<svg xmlns="http://www.w3.org/2000/svg" xmlns:xlink="http://www.w3.org/1999/xlink" viewBox="0 0 159.9 299.17"><defs><style>.a{fill:url(#a);}.b{fill:none;}.c{fill:#fff;}.d{fill:#5c315e;}.e{clip-path:url(#b);}.f{clip-path:url(#c);}.g{clip-path:url(#d);}.h{clip-path:url(#e);}.i{fill:url(#f);}.j{fill:#231f20;}.k{opacity:0.5;}.l{clip-path:url(#g);}.m{mask:url(#h);}.n{fill:url(#k);}.o{filter:url(#i);}</style><linearGradient id="a" x1="-319.45" y1="563.41" x2="-318.45" y2="563.41" gradientTransform="matrix(0, -237.2, -237.2, 0, 133709.66, -75464.47)" gradientUnits="userSpaceOnUse"><stop offset="0" stop-color="#fff"/><stop offset="1"/></linearGradient><clipPath id="b"><path class="b" d="M28.69,20V64.32s0,5.77,5.77,5.77h90.12s5.77,0,5.77-5.77V20H28.69Z"/></clipPath><clipPath id="c"><rect class="b" x="39.2" y="29.15" width="81.14" height="32.01"/></clipPath><clipPath id="d"><rect class="b" x="39.19" y="24.92" width="82.42" height="41.3"/></clipPath><clipPath id="e"><rect class="b" width="159.9" height="21"/></clipPath><linearGradient id="f" x1="-318.33" y1="566.93" x2="-317.33" y2="566.93" gradientTransform="matrix(159.9, 0, 0, -159.9, 50901.46, 90662.33)" gradientUnits="userSpaceOnUse"><stop offset="0" stop-color="#6c2769"/><stop offset="0.17" stop-color="#6c2769"/><stop offset="0.22" stop-color="#742d65"/><stop offset="0.29" stop-color="#883f5a"/><stop offset="0.38" stop-color="#aa5b47"/><stop offset="0.48" stop-color="#d9822d"/><stop offset="0.54" stop-color="#f99d1c"/><stop offset="0.75" stop-color="#e2e668"/><stop offset="0.99" stop-color="#65c5b4"/><stop offset="1" stop-color="#65c5b4"/></linearGradient><clipPath id="g"><rect class="b" x="0.28" y="100.99" width="141.52" height="159.01"/></clipPath><filter id="i" x="-68.85" y="39.46" width="279.78" height="282.07" filterUnits="userSpaceOnUse" color-interpolation-filters="sRGB"><feFlood flood-color="#fff" result="bg"/><feBlend in="SourceGraphic" in2="bg"/></filter><mask id="h" x="-68.85" y="39.46" width="279.78" height="282.07" maskUnits="userSpaceOnUse"><g class="o"><rect class="a" x="-30.11" y="76.18" width="202.3" height="208.62" transform="translate(-81.15 60.23) rotate(-30.2)"/></g></mask><linearGradient id="k" x1="-317.83" y1="568.11" x2="-316.83" y2="568.11" gradientTransform="matrix(122.47, 0, 0, -122.47, 38935.8, 69762.84)" gradientUnits="userSpaceOnUse"><stop offset="0" stop-color="#b51e8d"/><stop offset="0.98" stop-color="#b51e8d"/><stop offset="1" stop-color="#b51e8d"/></linearGradient></defs><title>main</title><rect class="c" width="159.54" height="299.17"/><path class="d" d="M28.69,20V64.33s0,5.77,5.77,5.77h90.12s5.77,0,5.77-5.77V20H28.69Z"/><g class="e"><rect class="d" x="-323.46" y="19.11" width="645.38" height="51.26"/></g><g class="f"><path class="c" d="M71.13,35.74V33.26H69.25v2.48H65.47v4.67a2.81,2.81,0,0,1-.12,1.09,1.22,1.22,0,0,1-.54.58,1.83,1.83,0,0,1-.86.19,1.87,1.87,0,0,1-.83-0.17,1.2,1.2,0,0,1-.54-0.52,1.7,1.7,0,0,1-.16-0.49,3.42,3.42,0,0,1-.06-0.67V35.74H60.48v4.88a4.25,4.25,0,0,0,.1.95,2.79,2.79,0,0,0,.3.78A2.73,2.73,0,0,0,62,43.4a4.16,4.16,0,0,0,1.91.39,4.91,4.91,0,0,0,1.1-.11,3.65,3.65,0,0,0,.88-0.32,2.74,2.74,0,0,0,.68-0.51,2.6,2.6,0,0,0,.47-0.66,3.59,3.59,0,0,0,.28-1.6V37.33h1.9v2.53h0v1a2.57,2.57,0,0,0,.51,1.52,2.74,2.74,0,0,0,.88.75,3.59,3.59,0,0,0,.49.22,7.69,7.69,0,0,0,2.19.29,3.41,3.41,0,0,0,.49,0V42H73.65c-0.8,0-2.52.29-2.52-1.8V37.33h3a2.49,2.49,0,0,1,1-1.3,3.43,3.43,0,0,1,.43-0.3H71.13Z"/><path class="c" d="M79.19,42.41a2.28,2.28,0,0,0,.53.77,2.25,2.25,0,0,0,.8.47,30.67,30.67,0,0,0,5.06,0s0-1.77,0-2.28V38.48a2.71,2.71,0,0,0-.21-1.07,2.29,2.29,0,0,0-.63-0.85A3.09,3.09,0,0,0,83.69,36a5,5,0,0,0-1.46-.21c-0.39,0-2,0-2.46,0v1.65a12.81,12.81,0,0,1,3-.08,1.13,1.13,0,0,1,.53.31,1.16,1.16,0,0,1,.29.44,1.49,1.49,0,0,1,.09.52v0.22a13.43,13.43,0,0,0-1.65-.12,4.1,4.1,0,0,0-1.24.18,2.77,2.77,0,0,0-1,.52,2.37,2.37,0,0,0-.63.83A2.63,2.63,0,0,0,79,41.39a2.57,2.57,0,0,0,.19,1m2.11-1.92a1.9,1.9,0,0,1,1.09-.27,4.86,4.86,0,0,1,.7.05l0.62,0.11v1.8a9.4,9.4,0,0,1-1.67.16,1.47,1.47,0,0,1-.43-0.06,1.06,1.06,0,0,1-.36-0.19A0.93,0.93,0,0,1,81,41.77a1.06,1.06,0,0,1-.09-0.45,0.94,0.94,0,0,1,.4-0.83m13.53-.76a2.45,2.45,0,0,0,.67.38,8,8,0,0,0,.79.26l0.62,0.16a3.34,3.34,0,0,1,.52.19,1.11,1.11,0,0,1,.37.26,0.6,0.6,0,0,1,.14.4,0.66,0.66,0,0,1-.13.41,1,1,0,0,1-.34.28,1.8,1.8,0,0,1-.52.16,3.77,3.77,0,0,1-.65.05,10.36,10.36,0,0,1-2.1-.21V43.6a12.45,12.45,0,0,0,2.25.19,5.49,5.49,0,0,0,1.35-.15,3,3,0,0,0,1.05-.47,2.22,2.22,0,0,0,.68-0.8,2.46,2.46,0,0,0,.24-1.13,2.11,2.11,0,0,0-.2-1,1.87,1.87,0,0,0-.52-0.62,2.42,2.42,0,0,0-.71-0.37Q98,39.12,97.57,39L97,38.9a3.4,3.4,0,0,1-.51-0.17,1,1,0,0,1-.38-0.27A0.65,0.65,0,0,1,96,38a0.67,0.67,0,0,1,.06-0.29,0.64,0.64,0,0,1,.2-0.25,1.15,1.15,0,0,1,.37-0.17,2.16,2.16,0,0,1,.56-0.06c0.17,0,2.1.1,2.27,0.16V35.93a15.11,15.11,0,0,0-2.43-.18,4,4,0,0,0-1.1.15,2.64,2.64,0,0,0-.91.46,2.2,2.2,0,0,0-.62.78,2.51,2.51,0,0,0-.23,1.11,2.07,2.07,0,0,0,.17.88,1.71,1.71,0,0,0,.46.6m-18.37-.45c0-2.1,1.72-1.8,2.52-1.8h0.16V35.83a3.43,3.43,0,0,0-.49,0,7.7,7.7,0,0,0-2.19.29,2.65,2.65,0,0,0-1.87,2.48v5.07h1.87V39.27Zm-17.16,2.8a2.57,2.57,0,0,0,.43-0.86,3.07,3.07,0,0,0,.12-0.83,2.39,2.39,0,0,0-.13-0.81,2.22,2.22,0,0,0-.36-0.65,2.27,2.27,0,0,0-.56-0.5,3.32,3.32,0,0,0-.72-0.34v0a2.38,2.38,0,0,0,1-1,2.62,2.62,0,0,0,.31-1.26,2.53,2.53,0,0,0-.12-0.77,2.46,2.46,0,0,0-.38-0.73,2.9,2.9,0,0,0-.65-0.62,3.38,3.38,0,0,0-.93-0.45A6.2,6.2,0,0,0,55.42,33H51.74V43.59H55.6l0.63,0,0.52-.07,0.43-.09a4.23,4.23,0,0,0,1.29-.55,3.32,3.32,0,0,0,.82-0.76m-5.61-7.43h1.59c0.28,0,.51,0,0.7,0a2.69,2.69,0,0,1,.5.09,1.28,1.28,0,0,1,.72.49,1.33,1.33,0,0,1,.21.75,1.4,1.4,0,0,1-.19.72,1.24,1.24,0,0,1-.62.5,3.33,3.33,0,0,1-1.18.16H53.68V34.65Zm4.1,6.23a1.11,1.11,0,0,1-.24.41,1.62,1.62,0,0,1-.43.33,2.53,2.53,0,0,1-.67.23,4.05,4.05,0,0,1-.62.09c-0.24,0-.53,0-0.87,0H53.68V39h1.83a7.39,7.39,0,0,1,.79,0,2.75,2.75,0,0,1,.54.1,1.47,1.47,0,0,1,.77.5,1.27,1.27,0,0,1,.24.77,1.58,1.58,0,0,1-.07.48M47.26,42.65s0-4.87,0-6.27c0-3.53,1.44-6.47,6-6.5,1.42,0,5.68-.13,5.68-0.13s0.2-.12-0.29-0.18-5.58-.46-7.75-0.43a4.57,4.57,0,0,0-4.36,4.19c-0.05,1.42.4,8.23,0.48,9s0.17,0.31.17,0.31M91,37.54a0.89,0.89,0,0,1,.43.49,1.57,1.57,0,0,1,.09.39,5.08,5.08,0,0,1,0,.53v4.72h1.87v-5c0-.26,0-0.48,0-0.67a2.61,2.61,0,0,0-.5-1.31,2.18,2.18,0,0,0-.57-0.53,2.35,2.35,0,0,0-.71-0.3,3.38,3.38,0,0,0-.81-0.1c-0.49,0-4.29.18-4.29,0.18v7.74h1.87V37.62A6.3,6.3,0,0,1,91,37.54"/></g><g class="g"><path class="c" d="M61.83,57.45v0.33H61l0,0.74a0.51,0.51,0,0,1,.37-0.13,0.48,0.48,0,0,1,.42.22,1,1,0,0,1,.09.59c0,0.16,0,.59,0,0.72a0.62,0.62,0,0,1-.67.57,0.63,0.63,0,0,1-.64-0.75c0-.07,0-0.11,0-0.17h0.35c0,0.32,0,.58.3,0.58a0.27,0.27,0,0,0,.29-0.27c0-.08,0-0.65,0-0.66,0-.23,0-0.5-0.28-0.5a0.28,0.28,0,0,0-.25.35H60.62l0-1.62h1.16Z"/><path class="c" d="M74.13,57.45v0.33H73.31l0,0.74a0.51,0.51,0,0,1,.37-0.13,0.48,0.48,0,0,1,.42.22,1,1,0,0,1,.09.59c0,0.16,0,.59,0,0.72a0.62,0.62,0,0,1-.67.57,0.63,0.63,0,0,1-.64-0.75c0-.07,0-0.11,0-0.17h0.35c0,0.32,0,.58.3,0.58a0.27,0.27,0,0,0,.29-0.27c0-.08,0-0.65,0-0.66,0-.23,0-0.5-0.28-0.5a0.28,0.28,0,0,0-.25.35H72.92l0-1.62h1.16Z"/><path class="c" d="M62.54,59.95v0.48a0.5,0.5,0,0,1-.37.6V60.81c0.17-.05.17-0.18,0.16-0.36H62.17v-0.5h0.37Z"/><path class="c" d="M67.09,59.95v0.48a0.5,0.5,0,0,1-.37.6V60.81c0.17-.05.17-0.18,0.16-0.36H66.72v-0.5h0.37Z"/><path class="c" d="M68.44,60.46H68.06V58.11h-0.5V57.83c0.25,0,.56,0,0.56-0.36h0.32v3Z"/><path class="c" d="M70.33,59.91a0.58,0.58,0,0,1-.64.57A0.59,0.59,0,0,1,69,60.09,4.83,4.83,0,0,1,69,58.94a3.54,3.54,0,0,1,.06-1.15,0.69,0.69,0,0,1,1.22,0,3,3,0,0,1,.07,1.17c0,0.17,0,.83,0,1M70,58.46c0-.49,0-0.71-0.3-0.71a0.33,0.33,0,0,0-.31.42c0,0.23,0,.29,0,0.94,0,0.15,0,.49,0,0.62s0,0.43.3,0.43,0.3-.2.3-0.44c0-.09,0-0.28,0-0.75v-0.5Z"/><path class="c" d="M71,59.95v0.48a0.5,0.5,0,0,1-.36.6V60.81c0.17-.05.17-0.18,0.16-0.36H70.64v-0.5H71Z"/><path class="c" d="M72.34,60.46H72V58.11h-0.5V57.83c0.25,0,.56,0,0.56-0.36h0.32v3Z"/><path class="c" d="M74.82,59.95v0.48a0.5,0.5,0,0,1-.37.6V60.81c0.17-.05.17-0.18,0.16-0.36H74.45v-0.5h0.37Z"/><path class="c" d="M76.94,60a0.46,0.46,0,0,0,.1.45H76.63V60.19a0.46,0.46,0,0,1-.44.29,0.5,0.5,0,0,1-.25-0.06,0.51,0.51,0,0,1-.22-0.48,0.63,0.63,0,0,1,.36-0.61,3.16,3.16,0,0,0,.53-0.4c0-.17,0-0.37-0.26-0.37a0.24,0.24,0,0,0-.25.31,1.38,1.38,0,0,0,0,.16H75.79a1.65,1.65,0,0,1,0-.42,0.66,0.66,0,0,1,1-.15,0.64,0.64,0,0,1,.13.54v1Zm-0.33-.76a2.23,2.23,0,0,1-.28.23,0.51,0.51,0,0,0-.27.45,0.25,0.25,0,0,0,.23.31,0.3,0.3,0,0,0,.18-0.06,0.46,0.46,0,0,0,.14-0.41V59.24Z"/><path class="c" d="M78.54,60.45H78.19V59.07c0-.3,0-0.51-0.25-0.51s-0.28.29-.28,0.52v1.37H77.32V58.33h0.32v0.19a0.56,0.56,0,0,1,.45-0.23c0.44,0,.44.37,0.44,0.67v1.49Z"/><path class="c" d="M80.13,60.45H79.81V60.22a0.48,0.48,0,0,1-.45.26l-0.13,0c-0.34-.09-0.36-0.45-0.36-1.07a3.57,3.57,0,0,1,.05-0.76,0.46,0.46,0,0,1,.45-0.35,0.45,0.45,0,0,1,.4.21v-1h0.34v3ZM79.5,58.56c-0.26,0-.26.26-0.27,0.43s0,0.23,0,.57c0,0.09,0,.2,0,0.34a0.29,0.29,0,0,0,.27.33c0.29,0,.29-0.28.3-0.82s0-.84-0.3-0.84"/><path class="c" d="M82.37,60.45H81.06V60.09l0.62-1a1.41,1.41,0,0,0,.3-0.88,0.32,0.32,0,0,0-.28-0.41c-0.27,0-.27.25-0.27,0.42v0.34H81.09V58.15a0.76,0.76,0,0,1,.15-0.56,0.62,0.62,0,0,1,.45-0.17,0.57,0.57,0,0,1,.45.17,0.81,0.81,0,0,1,.19.61,1.61,1.61,0,0,1-.28.9l-0.61,1h0.93v0.32Z"/><path class="c" d="M84,59.91a0.58,0.58,0,0,1-.64.57,0.59,0.59,0,0,1-.64-0.39,5,5,0,0,1-.05-1.15,3.56,3.56,0,0,1,.06-1.15,0.69,0.69,0,0,1,1.22,0A3.06,3.06,0,0,1,84,58.95c0,0.17,0,.83,0,1M83.6,58.46c0-.49,0-0.71-0.3-0.71a0.33,0.33,0,0,0-.3.42c0,0.23,0,.29,0,0.94,0,0.15,0,.49,0,0.62s0,0.43.3,0.43,0.3-.2.3-0.44c0-.09,0-0.28,0-0.75v-0.5Z"/><path class="c" d="M86.89,60.45H86.54V59.06a1.39,1.39,0,0,0,0-.33,0.25,0.25,0,0,0-.25-0.18c-0.27,0-.27.28-0.27,0.5v1.39H85.66V59.06c0-.28,0-0.51-0.26-0.51s-0.28.27-.28,0.51v1.38H84.78V58.33H85.1v0.21a0.54,0.54,0,0,1,.45-0.25,0.43,0.43,0,0,1,.42.25,0.52,0.52,0,0,1,.44-0.25,0.45,0.45,0,0,1,.33.13,0.79,0.79,0,0,1,.15.64v1.38Z"/><path class="c" d="M88.43,59.66c0,0.39,0,.83-0.62.83a0.5,0.5,0,0,1-.54-0.34,2.83,2.83,0,0,1-.05-0.71c0-.76,0-1.15.62-1.15s0.58,0.39.58,0.81H88.1c0-.37,0-0.55-0.27-0.55s-0.27.18-.27,0.78c0,0.08,0,.39,0,0.57a0.27,0.27,0,0,0,.26.33c0.25,0,.27-0.21.27-0.56h0.32Z"/><path class="c" d="M90,58.33v2a1.45,1.45,0,0,1,0,.48,0.61,0.61,0,0,1-.62.35,0.52,0.52,0,0,1-.58-0.54H89a0.25,0.25,0,0,0,.29.28c0.3,0,.3-0.23.3-0.42V60.23a0.51,0.51,0,0,1-.43.23,0.43,0.43,0,0,1-.43-0.28,2.48,2.48,0,0,1-.06-0.83,3,3,0,0,1,0-.66,0.47,0.47,0,0,1,.49-0.4,0.42,0.42,0,0,1,.42.23V58.33H90Zm-0.35.55a0.3,0.3,0,0,0-.29-0.35c-0.28,0-.28.3-0.28,0.64s0,0.59,0,.74a0.26,0.26,0,0,0,.26.29,0.29,0.29,0,0,0,.29-0.26,4.94,4.94,0,0,0,0-.53s0-.48,0-0.54"/><polygon class="c" points="90.54 60.45 90.18 60.45 91.03 57.45 91.38 57.45 90.54 60.45"/><path class="c" d="M92.8,60.45H92.47V59.18c0-.41,0-0.62-0.26-0.62s-0.28.28-.28,0.62v1.27H91.59v-3h0.34v1.07a0.49,0.49,0,0,1,.42-0.23,0.44,0.44,0,0,1,.34.15,0.87,0.87,0,0,1,.11.55v1.46Z"/><path class="c" d="M94.3,60.11a0.48,0.48,0,0,1-.56.38,0.55,0.55,0,0,1-.51-0.25,1.59,1.59,0,0,1-.08-0.8,4.19,4.19,0,0,1,0-.78,0.49,0.49,0,0,1,.56-0.38,0.53,0.53,0,0,1,.52.27,1.8,1.8,0,0,1,.07.85,4.06,4.06,0,0,1,0,.7M94,58.87a0.25,0.25,0,0,0-.23-0.3c-0.26,0-.26.21-0.26,0.64,0,0.06,0,.47,0,0.62s0,0.39.23,0.39S94,60,94,59.41c0-.18,0-0.43,0-0.54"/><path class="c" d="M95.9,60.45H95.57V60.25a0.53,0.53,0,0,1-.45.23,0.39,0.39,0,0,1-.34-0.17,1.17,1.17,0,0,1-.1-0.66V58.33H95v1.6a0.26,0.26,0,0,0,.25.31c0.29,0,.29-0.3.29-0.52V58.33H95.9v2.12Z"/><path class="c" d="M112.73,42.42l-0.35.1-0.42.08-0.42.06-0.39,0a4,4,0,0,1-1.23-.18A2.41,2.41,0,0,1,109,42a2.37,2.37,0,0,1-.59-0.91,3.72,3.72,0,0,1-.21-1.32,3.6,3.6,0,0,1,.23-1.34,2.72,2.72,0,0,1,.62-1,2.55,2.55,0,0,1,.92-0.58,3.38,3.38,0,0,1,1.16-.19,4.34,4.34,0,0,1,.8.07,5.85,5.85,0,0,1,.74.19L112.84,37V35.89l-0.08,0-0.33-.11L112,35.64l-0.46-.06-0.49,0a4.43,4.43,0,0,0-1.7.31,3.71,3.71,0,0,0-1.29.87,3.79,3.79,0,0,0-.81,1.34,5.33,5.33,0,0,0,0,3.37,3.33,3.33,0,0,0,.79,1.27,3.46,3.46,0,0,0,1.29.8,5.15,5.15,0,0,0,1.75.27,5.79,5.79,0,0,0,.94-0.07,4,4,0,0,0,.81-0.21l0.09,0V42.36Z"/><rect class="c" x="109.7" y="37.79" width="0.63" height="3.9"/><rect class="c" x="110.95" y="37.79" width="0.63" height="3.9"/><rect class="c" x="112.19" y="37.79" width="0.63" height="3.9"/><path class="c" d="M100.87,37.5a0.81,0.81,0,1,1,0-1.62,0.79,0.79,0,0,1,.82.8,0.78,0.78,0,0,1-.81.82m0-1.48a0.67,0.67,0,0,0-.68.67,0.68,0.68,0,0,0,.68.67,0.67,0.67,0,0,0,0-1.34m0.39,1.13H101l-0.19-.37h-0.07v0.06c0,0.07,0,.21,0,0.29v0h-0.2v0c0-.16,0-0.34,0-0.39s0-.35,0-0.53v0h0.24a0.69,0.69,0,0,1,.26,0,0.25,0.25,0,0,1,.15.25,0.25,0.25,0,0,1-.17.26l0.23,0.4v0Zm-0.49-.81v0.12s0,0.08,0,.15h0c0.13,0,.19,0,0.19-0.14s0-.14-0.18-0.14h0Z"/><path class="c" d="M92.36,46.81s-0.2.12,0.29,0.18,5.6,0.46,7.77.43a4.58,4.58,0,0,0,4.37-4.2c0.05-1.43-.4-8.26-0.49-9s-0.17-.32-0.17-0.32,0,4.89,0,6.29c0,3.54-1.45,6.49-6,6.52-1.43,0-5.69.13-5.69,0.13"/><path class="c" d="M40.9,55.88a5,5,0,0,1-1.11-1.65,7.54,7.54,0,0,1-.6-2.85,6.31,6.31,0,0,1,.42-2.27A6,6,0,0,1,40.89,47v0.59A5.3,5.3,0,0,0,40,49.49a6.53,6.53,0,0,0-.3,2,8.16,8.16,0,0,0,.3,2,5,5,0,0,0,.93,1.82v0.6Z"/><path class="c" d="M42,47v2.57a1.12,1.12,0,0,1,1-.51,1.14,1.14,0,0,1,1,1.4v2.7a1.14,1.14,0,0,1-1.11,1.26A1,1,0,0,1,42,54v0.43H41.53V47H42Zm1.55,3.44a0.77,0.77,0,0,0-.7-1,0.84,0.84,0,0,0-.84,1V53a0.93,0.93,0,0,0,.84,1.06,0.62,0.62,0,0,0,.44-0.18A1.13,1.13,0,0,0,43.52,53V50.48Z"/><path class="c" d="M44.84,49.16h0.44v4a0.78,0.78,0,0,0,.69,1,0.9,0.9,0,0,0,.82-0.68V49.16h0.45v5.26H46.78V53.93a1.15,1.15,0,0,1-1,.52,1,1,0,0,1-.57-0.17,1.19,1.19,0,0,1-.42-1.07V49.16Z"/><path class="c" d="M48.66,49.63a1.14,1.14,0,0,1,1-.51,0.93,0.93,0,0,1,.91.69,2.84,2.84,0,0,1,.08.88v2.55a1.07,1.07,0,0,1-1.07,1.21,1.05,1.05,0,0,1-.9-0.45v2.13H48.21v-7h0.45v0.46Zm1.52,0.71a0.69,0.69,0,0,0-.68-0.83,0.87,0.87,0,0,0-.84.69v3.24a0.82,0.82,0,0,0,.82.6,0.8,0.8,0,0,0,.7-1V50.34Z"/><path class="c" d="M52,50.09A2,2,0,0,1,53.05,49v0.6A1.44,1.44,0,0,0,52,50.71v3.71H51.52V49.17H52v0.92Z"/><path class="c" d="M53.44,50.4a1.12,1.12,0,0,1,1.18-1.27c1.22,0,1.22,1,1.22,1.65v1.06h-2v1.3a0.74,0.74,0,0,0,.77.89,0.66,0.66,0,0,0,.68-0.44,2.29,2.29,0,0,0,.07-1h0.44v0.59a1.12,1.12,0,0,1-1.21,1.24,1.15,1.15,0,0,1-.83-0.29,1.16,1.16,0,0,1-.37-1V50.4Zm2,0.1a0.79,0.79,0,1,0-1.52,0v0.93h1.52v-1Z"/><path class="c" d="M57.12,49.67a1,1,0,0,1,.37-0.4,1.17,1.17,0,0,1,1.15,0,1,1,0,0,1,.45,1v4.23H58.65V50.21A0.64,0.64,0,0,0,58,49.49a1,1,0,0,0-.69.31,1.06,1.06,0,0,0-.19.35v4.28H56.68V49.16h0.44v0.51Z"/><path class="c" d="M59.84,50.4a1.17,1.17,0,0,1,1.26-1.27,1.12,1.12,0,0,1,1.2,1.3v2.5a1.7,1.7,0,0,1-.23,1,1.21,1.21,0,0,1-1,.49,1.37,1.37,0,0,1-.7-0.18,1.1,1.1,0,0,1-.51-1.11V50.4Zm2,0.08a0.77,0.77,0,0,0-.74-0.91,0.83,0.83,0,0,0-.82,1v2.54A0.75,0.75,0,0,0,61,54a0.77,0.77,0,0,0,.81-0.91V50.48Z"/><path class="c" d="M63.53,50.09A2,2,0,0,1,64.63,49v0.6a1.45,1.45,0,0,0-1.09,1.09v3.71H63.11V49.17h0.43v0.92Z"/><path class="c" d="M65.59,49.63a1.14,1.14,0,0,1,1-.51,0.93,0.93,0,0,1,.91.69,2.84,2.84,0,0,1,.08.88v2.55a1.07,1.07,0,0,1-1.07,1.21,1.06,1.06,0,0,1-.9-0.45v2.13H65.14v-7h0.45v0.46Zm1.52,0.71a0.69,0.69,0,0,0-.68-0.83,0.87,0.87,0,0,0-.84.69v3.24a0.83,0.83,0,0,0,.82.6,0.8,0.8,0,0,0,.7-1V50.34Z"/><path class="c" d="M68.91,47v2.54a1.21,1.21,0,0,1,1-.47,1.13,1.13,0,0,1,.66.21,1.11,1.11,0,0,1,.37.94v4.18H70.44v-3.9a0.77,0.77,0,0,0-.69-1,0.87,0.87,0,0,0-.6.24,0.9,0.9,0,0,0-.24.46v4.18H68.46V47h0.45Z"/><path class="c" d="M71.76,47.73H72.2v0.82H71.76V47.73Zm0,1.42H72.2v5.27H71.76V49.15Z"/><path class="c" d="M73.61,49.67a1,1,0,0,1,.37-0.4,1.17,1.17,0,0,1,1.15,0,1,1,0,0,1,.45,1v4.23H75.14V50.21a0.64,0.64,0,0,0-.65-0.72,1,1,0,0,0-.69.31,1.06,1.06,0,0,0-.19.35v4.28H73.17V49.16h0.44v0.51Z"/><path class="c" d="M76.37,50.4a1.11,1.11,0,0,1,1.18-1.27c1.22,0,1.22,1,1.22,1.65v1.06h-2v1.3a0.74,0.74,0,0,0,.77.89,0.66,0.66,0,0,0,.68-0.44,2.32,2.32,0,0,0,.07-1h0.44v0.59a1.12,1.12,0,0,1-1.21,1.24,1.15,1.15,0,0,1-.83-0.29,1.16,1.16,0,0,1-.37-1V50.4Zm2,0.1a0.79,0.79,0,1,0-1.52,0v0.93h1.52v-1Z"/><path class="c" d="M78.75,47a5,5,0,0,1,1.11,1.66,7.53,7.53,0,0,1,.6,2.84A6.54,6.54,0,0,1,80,53.8a5.79,5.79,0,0,1-1.28,2.07V55.29a5.28,5.28,0,0,0,.92-1.87,6.46,6.46,0,0,0,.3-1.95,8.11,8.11,0,0,0-.3-2,4.86,4.86,0,0,0-.93-1.82V47Z"/><polygon class="c" points="83.08 54.43 82.62 54.43 82.62 49.6 81.72 49.6 81.72 49.17 84 49.17 84 49.6 83.08 49.6 83.08 54.43"/><path class="c" d="M84.43,54.43H84V50.66h0.4v0.49a1.58,1.58,0,0,1,.69-0.58l0.07,0v0.54h0a1,1,0,0,0-.72.72v2.63Z"/><path class="c" d="M87.39,54.43H87.33a0.48,0.48,0,0,1-.55-0.25,1.08,1.08,0,0,1-.68.25,0.8,0.8,0,0,1-.78-0.91,1.25,1.25,0,0,1,.84-1.2l0.1-.05A2.82,2.82,0,0,0,86.75,52v-0.4c0-.32,0-0.55-0.42-0.55s-0.44.28-.44,0.81v0.05H85.48V51.84c0-.56,0-1.21.89-1.21a0.74,0.74,0,0,1,.8.85V54c0,0.06,0,.08.17,0.08h0.05v0.4Zm-0.63-2-0.3.17-0.07,0a0.94,0.94,0,0,0-.65.88,0.44,0.44,0,0,0,.42.51,0.76,0.76,0,0,0,.59-0.32V52.44Z"/><path class="c" d="M89.56,54.43H89.15v-3a0.39,0.39,0,0,0-.4-0.45,0.61,0.61,0,0,0-.44.2,0.65,0.65,0,0,0-.12.22v3H87.78V50.65h0.41v0.24a0.77,0.77,0,0,1,.18-0.15,0.85,0.85,0,0,1,.45-0.12,0.87,0.87,0,0,1,.4.1,0.76,0.76,0,0,1,.34.72v3Z"/><path class="c" d="M90.91,54.44a0.91,0.91,0,0,1-.72-0.27A1.49,1.49,0,0,1,90,53.09V53h0.41v0.37a0.5,0.5,0,0,0,.52.63,0.46,0.46,0,0,0,.49-0.56,1,1,0,0,0-.59-0.86,1.37,1.37,0,0,1-.69-1.14,0.74,0.74,0,0,1,.82-0.84,0.77,0.77,0,0,1,.82.93v0.31H91.35V51.82c0-.6,0-0.79-0.4-0.79a0.35,0.35,0,0,0-.41.42c0,0.3,0,.39.7,1a1.14,1.14,0,0,1,.57,1,0.83,0.83,0,0,1-.9,1"/><path class="c" d="M93,54.46a0.79,0.79,0,0,1-.78-1V51.64a0.81,0.81,0,0,1,.79-1,0.75,0.75,0,0,1,.6.25V49.17H94v5.26H93.64V54.16a0.77,0.77,0,0,1-.63.3m0.09-3.41a0.48,0.48,0,0,0-.46.59v1.78a0.52,0.52,0,0,0,.45.66,0.57,0.57,0,0,0,.52-0.48V51.65a0.61,0.61,0,0,0-.52-0.6"/><path class="c" d="M95.48,54.44a0.85,0.85,0,0,1-.88-0.95V51.57a0.83,0.83,0,0,1,.88-0.93,0.94,0.94,0,0,1,.9,1.21v0.79H95v0.85a0.47,0.47,0,0,0,.49.57,0.41,0.41,0,0,0,.43-0.27,1.58,1.58,0,0,0,0-.67V53.06h0.41v0.46a0.83,0.83,0,0,1-.9.92M95,52.27h1V51.64A0.52,0.52,0,0,0,95.49,51a0.53,0.53,0,0,0-.48.66v0.6Z"/><path class="c" d="M97.33,54.43H96.92V50.66h0.4v0.49A1.58,1.58,0,0,1,98,50.57l0.07,0v0.54h0a1,1,0,0,0-.72.72v2.63Z"/><path class="c" d="M101.57,54.43h-0.42V51.75a1.92,1.92,0,0,0,0-.49,0.37,0.37,0,0,0-.37-0.26,0.6,0.6,0,0,0-.56.42v3H99.78V51.48a0.67,0.67,0,0,0-.06-0.3A0.41,0.41,0,0,0,99.36,51a0.62,0.62,0,0,0-.54.36v3.07H98.4V50.66h0.42v0.23a0.89,0.89,0,0,1,.63-0.27,0.65,0.65,0,0,1,.63.39,0.88,0.88,0,0,1,.74-0.39,0.69,0.69,0,0,1,.7.53,2.63,2.63,0,0,1,0,.64v2.65Z"/><path class="c" d="M104.06,54.43H104a0.48,0.48,0,0,1-.55-0.25,1.08,1.08,0,0,1-.68.25,0.8,0.8,0,0,1-.77-0.91,1.25,1.25,0,0,1,.84-1.2l0.1-.05a2.82,2.82,0,0,0,.48-0.29v-0.4c0-.32,0-0.55-0.42-0.55s-0.44.28-.44,0.81v0.05h-0.42V51.84c0-.56,0-1.21.89-1.21a0.74,0.74,0,0,1,.79.85V54c0,0.06,0,.08.17,0.08h0.05v0.4Zm-0.63-2-0.29.17-0.07,0a0.94,0.94,0,0,0-.65.88,0.44,0.44,0,0,0,.42.51,0.76,0.76,0,0,0,.59-0.32V52.44Z"/><rect class="c" x="104.43" y="49.17" width="0.42" height="5.26"/><path class="c" d="M107.88,54.51a1,1,0,0,1-1.13-1.09V52.64h0.46V53.1a1.14,1.14,0,0,0,.14.76,0.7,0.7,0,0,0,.56.22c0.43,0,.61-0.23.61-0.79a1.62,1.62,0,0,0-.74-1.35,2.13,2.13,0,0,1-.91-1.66,1,1,0,0,1,1-1.19,1,1,0,0,1,1,1.24v0.42h-0.45V50.25c0-.31,0-0.74-0.55-0.74-0.4,0-.57.21-0.57,0.72s0.08,0.67.86,1.47a1.87,1.87,0,0,1,.79,1.53,1,1,0,0,1-1.1,1.28"/><path class="c" d="M109.12,55.62h-0.05V55.2h0.21a0.51,0.51,0,0,0,.54-0.46l0.09-.41-0.81-3.7h0.42l0.6,2.85,0.61-2.85h0.44v0.06L110.2,54.8a0.91,0.91,0,0,1-1.09.82"/><path class="c" d="M112.23,54.44a0.91,0.91,0,0,1-.72-0.27,1.49,1.49,0,0,1-.21-1.08V53h0.41v0.37a0.5,0.5,0,0,0,.52.63,0.46,0.46,0,0,0,.49-0.56,1,1,0,0,0-.59-0.86,1.38,1.38,0,0,1-.69-1.14,0.74,0.74,0,0,1,.83-0.84,0.77,0.77,0,0,1,.82.93v0.31h-0.42V51.82c0-.6,0-0.79-0.4-0.79a0.35,0.35,0,0,0-.41.42c0,0.3,0,.39.7,1a1.14,1.14,0,0,1,.57,1,0.83,0.83,0,0,1-.9,1"/><path class="c" d="M114.25,54.44c-0.42,0-.59-0.14-0.59-0.48V51.05h-0.39v-0.4h0.39V49.71h0.43v0.93h0.55v0.4h-0.55v2.7c0,0.21,0,.3.22,0.3h0.34v0.39h0l-0.34,0"/><path class="c" d="M115.74,54.44a0.85,0.85,0,0,1-.88-0.95V51.57a0.83,0.83,0,0,1,.88-0.93,0.94,0.94,0,0,1,.9,1.21v0.79h-1.37v0.85a0.47,0.47,0,0,0,.49.57,0.41,0.41,0,0,0,.42-0.27,1.55,1.55,0,0,0,0-.67V53.06h0.41v0.46a0.83,0.83,0,0,1-.9.92m-0.47-2.17h1V51.64a0.52,0.52,0,0,0-.47-0.63,0.53,0.53,0,0,0-.48.66v0.6Z"/><path class="c" d="M120.34,54.43h-0.42V51.75a2,2,0,0,0,0-.49,0.37,0.37,0,0,0-.37-0.26,0.6,0.6,0,0,0-.55.42v3h-0.42V51.48a0.66,0.66,0,0,0-.06-0.3,0.41,0.41,0,0,0-.36-0.18,0.62,0.62,0,0,0-.54.36v3.07h-0.42V50.66h0.42v0.23a0.89,0.89,0,0,1,.63-0.27,0.65,0.65,0,0,1,.63.39,0.88,0.88,0,0,1,.74-0.39,0.69,0.69,0,0,1,.7.53,2.63,2.63,0,0,1,0,.64v2.65Z"/><path class="c" d="M96.62,60.45H96.27V58.33H96.6v0.4a0.58,0.58,0,0,1,.57-0.43v0.35a0.49,0.49,0,0,0-.46.17,1.08,1.08,0,0,0-.09.62v1Z"/><path class="c" d="M64.52,57.74a0.35,0.35,0,0,1,0,.09,3.74,3.74,0,0,0-.16.37,6.52,6.52,0,0,0-.37,2.25h-0.4a6.62,6.62,0,0,1,.35-2l0.26-.69H63.22V57.47h1.3v0.27Z"/><rect class="c" x="64.42" y="59.95" width="0.36" height="0.5"/><path class="c" d="M66.36,57.47v0.33H65.54l0,0.74a0.51,0.51,0,0,1,.36-0.13,0.47,0.47,0,0,1,.42.22,1,1,0,0,1,.09.58c0,0.16,0,.59,0,0.72a0.61,0.61,0,0,1-.67.57,0.63,0.63,0,0,1-.64-0.74c0-.07,0-0.11,0-0.17h0.35c0,0.32,0,.58.3,0.58A0.27,0.27,0,0,0,66,59.88c0-.08,0-0.64,0-0.66,0-.23,0-0.49-0.28-0.49a0.28,0.28,0,0,0-.25.35H65.15l0-1.61h1.16Z"/></g><g class="h"><rect class="i" width="159.9" height="21"/></g><path class="d" d="M30.23,100.22H27.8V91.15h2.45c2,0,3,.83,3,2.29A2.07,2.07,0,0,1,32,95.38a2.18,2.18,0,0,1,1.47,2.22C33.48,99.38,32.13,100.22,30.23,100.22Zm0-7.5H29.8v2.06h0.43a1,1,0,0,0,1.11-1A1,1,0,0,0,30.23,92.73Zm-0.05,3.52H29.8v2.39h0.42A1.2,1.2,0,1,0,30.17,96.25Z"/><path class="d" d="M37.32,100.22l-0.12-.68a2.48,2.48,0,0,1-1.71.82A1.41,1.41,0,0,1,34,98.71V93.78h1.89V98.2a0.4,0.4,0,0,0,.43.46A1.24,1.24,0,0,0,37,98.33V93.78h1.9v6.45h-1.6Z"/><path class="d" d="M42.16,100.33c-1.41,0-2-.5-2-2.09V95.4H39.38V93.78h0.73v-2l1.82-.29v2.26h1L43.2,95.4H41.93V98a0.54,0.54,0,0,0,.59.67,2.6,2.6,0,0,0,.47,0l0.25,1.57A4.41,4.41,0,0,1,42.16,100.33Z"/><path class="d" d="M45.66,96.29v3.93h-1.9V93.78h1.59l0.14,0.93A2.14,2.14,0,0,1,47,93.65l0.31,2A2.83,2.83,0,0,0,45.66,96.29Z"/><path class="d" d="M50.46,100.22l-0.1-.67a2.12,2.12,0,0,1-1.58.79,1.48,1.48,0,0,1-1.47-1.74c0-1.43,1.08-2.16,2.89-2.45V95.92a0.67,0.67,0,0,0-.78-0.79,3.55,3.55,0,0,0-1.51.49l-0.23-1.47a5.54,5.54,0,0,1,2.27-.47c1.49,0,2.14.62,2.14,2.16v4.39H50.46ZM50.2,97.15a1.29,1.29,0,0,0-1.15,1.21,0.52,0.52,0,0,0,.47.62,1,1,0,0,0,.68-0.34V97.15Z"/><path class="d" d="M55.91,100.22V95.82a0.41,0.41,0,0,0-.42-0.47,1.24,1.24,0,0,0-.74.34v4.54h-1.9V93.78h1.6l0.12,0.68a2.51,2.51,0,0,1,1.69-.82,1.41,1.41,0,0,1,1.54,1.64v4.93H55.91Z"/><path class="d" d="M60.45,100.36a4.33,4.33,0,0,1-2.16-.58l0.25-1.54a4.13,4.13,0,0,0,1.9.64A0.46,0.46,0,0,0,61,98.45a1.28,1.28,0,0,0-1-.83,2.25,2.25,0,0,1-1.64-2,1.91,1.91,0,0,1,2.1-1.93,4.07,4.07,0,0,1,1.88.43l-0.23,1.53a3.75,3.75,0,0,0-1.55-.47,0.38,0.38,0,0,0-.44.37,1.25,1.25,0,0,0,.89.75,2.37,2.37,0,0,1,1.69,2.08A2,2,0,0,1,60.45,100.36Z"/><path class="d" d="M65.69,100.22V91.15h2.16v9.08H65.69Z"/><path class="d" d="M70.72,100.36a4.33,4.33,0,0,1-2.16-.58l0.25-1.54a4.13,4.13,0,0,0,1.9.64,0.46,0.46,0,0,0,.55-0.43,1.28,1.28,0,0,0-1-.83,2.25,2.25,0,0,1-1.64-2,1.91,1.91,0,0,1,2.1-1.93,4.07,4.07,0,0,1,1.88.43L72.4,95.61a3.75,3.75,0,0,0-1.55-.47,0.38,0.38,0,0,0-.44.37,1.25,1.25,0,0,0,.89.75A2.37,2.37,0,0,1,73,98.33,2,2,0,0,1,70.72,100.36Z"/><path class="d" d="M75.39,100.22l2.33-9.1h2.57L82.52,100l-2.2.35-0.42-2h-2l-0.39,1.89H75.39Zm2.84-3.58h1.36l-0.66-3.1Z"/><path class="d" d="M85.88,100.24H83.73L82,93.92l2-.24,0.83,4.45,0.82-4.35h1.89Z"/><path class="d" d="M90.69,100.22l-0.1-.67a2.12,2.12,0,0,1-1.58.79,1.48,1.48,0,0,1-1.47-1.74c0-1.43,1.08-2.16,2.89-2.45V95.92a0.67,0.67,0,0,0-.78-0.79,3.55,3.55,0,0,0-1.51.49l-0.23-1.47a5.54,5.54,0,0,1,2.27-.47c1.48,0,2.14.62,2.14,2.16v4.39H90.69Zm-0.26-3.08a1.29,1.29,0,0,0-1.15,1.21,0.52,0.52,0,0,0,.47.62,1,1,0,0,0,.68-0.34V97.15Z"/><path class="d" d="M94.07,93.08A1.06,1.06,0,0,1,93,92a1.07,1.07,0,0,1,2.14,0A1.07,1.07,0,0,1,94.07,93.08Zm-1,7.14V93.78H95v6.45H93.12Z"/><path class="d" d="M95.88,100.22V91l1.9-.29v9.5h-1.9Z"/><path class="d" d="M101.54,100.22l-0.1-.67a2.13,2.13,0,0,1-1.58.79,1.48,1.48,0,0,1-1.47-1.74c0-1.43,1.08-2.16,2.89-2.45V95.92a0.67,0.67,0,0,0-.78-0.79,3.55,3.55,0,0,0-1.51.49l-0.24-1.47a5.54,5.54,0,0,1,2.27-.47c1.49,0,2.14.62,2.14,2.16v4.39h-1.62Zm-0.26-3.08a1.29,1.29,0,0,0-1.15,1.21,0.52,0.52,0,0,0,.47.62,1,1,0,0,0,.68-0.34V97.15Z"/><path class="d" d="M106.14,100.3a6,6,0,0,1-2.21-.41V91l1.9-.29v3.5a1.93,1.93,0,0,1,1.36-.58c1.21,0,2,1,2,3C109.16,99.26,108,100.3,106.14,100.3Zm0.35-4.93a1,1,0,0,0-.66.32v3a1,1,0,0,0,.38.07c0.67,0,1.11-.54,1.11-1.83S107,95.37,106.49,95.37Z"/><path class="d" d="M109.82,100.22V91l1.9-.29v9.5h-1.9Z"/><path class="d" d="M114.25,97.58a1.27,1.27,0,0,0,1.3,1.34,3.31,3.31,0,0,0,1.67-.49l0.21,1.36a4.41,4.41,0,0,1-2.2.57c-1.85,0-2.84-1.14-2.84-3.34,0-1.89.94-3.37,2.61-3.37s2.45,1.35,2.45,3.22a5.21,5.21,0,0,1,0,.71h-3.15Zm0-1.16h1.45c0-1-.29-1.47-0.72-1.47S114.31,95.34,114.24,96.42Z"/><path class="d" d="M122.93,100.36c-1.6,0-2.68-1.16-2.68-3.34s1.09-3.37,2.7-3.37,2.68,1.18,2.68,3.35S124.53,100.36,122.93,100.36Zm0-5.13c-0.56,0-.82.67-0.82,1.78s0.27,1.78.83,1.78,0.82-.66.82-1.76S123.5,95.23,122.93,95.23Z"/><path class="d" d="M129.31,100.22V95.82a0.41,0.41,0,0,0-.42-0.47,1.24,1.24,0,0,0-.74.34v4.54h-1.9V93.78h1.6L128,94.46a2.51,2.51,0,0,1,1.69-.82,1.41,1.41,0,0,1,1.54,1.64v4.93h-1.89Z"/><path class="d" d="M136.71,100.33c-1.41,0-2-.5-2-2.09V95.4h-0.73V93.78h0.73v-2l1.82-.29v2.26h1l0.26,1.62h-1.26V98a0.54,0.54,0,0,0,.59.67,2.6,2.6,0,0,0,.47,0l0.25,1.57A4.42,4.42,0,0,1,136.71,100.33Z"/><path class="d" d="M141.37,100.22V95.82a0.41,0.41,0,0,0-.42-0.47,1.24,1.24,0,0,0-.74.34v4.54h-1.9V91l1.9-.29v3.58a2.34,2.34,0,0,1,1.51-.66,1.41,1.41,0,0,1,1.54,1.64v4.93h-1.89Z"/><path class="d" d="M145.72,97.58a1.27,1.27,0,0,0,1.3,1.34,3.31,3.31,0,0,0,1.67-.49l0.21,1.36a4.41,4.41,0,0,1-2.2.57c-1.85,0-2.84-1.14-2.84-3.34,0-1.89.94-3.37,2.61-3.37s2.45,1.35,2.45,3.22a5.37,5.37,0,0,1,0,.71h-3.15Zm0-1.16h1.45c0-1-.29-1.47-0.72-1.47S145.77,95.34,145.71,96.42Z"/><path class="d" d="M25,114.74l-0.22-6.39-1.08,6.41h-2.1l-1.08-6.41-0.25,6.39H18.36l0.35-9.08h2.93l1,6,1.06-6h2.92L27,114.74H25Z"/><path class="d" d="M29.42,112.1a1.27,1.27,0,0,0,1.3,1.34,3.31,3.31,0,0,0,1.67-.49l0.21,1.36a4.41,4.41,0,0,1-2.2.57c-1.85,0-2.84-1.14-2.84-3.34,0-1.89.94-3.37,2.61-3.37s2.45,1.35,2.45,3.22a5.29,5.29,0,0,1,0,.71H29.42Zm0-1.16h1.45c0-1-.29-1.47-0.72-1.47S29.47,109.86,29.4,110.94Z"/><path class="d" d="M36.75,114.74l-0.09-.62a2.14,2.14,0,0,1-1.55.75c-1.19,0-2-1-2-3,0-2.51,1.17-3.59,2.7-3.59a2.43,2.43,0,0,1,.65.09v-2.8l1.89-.29v9.5h-1.6Zm-0.29-4.85a0.8,0.8,0,0,0-.38-0.09c-0.66,0-1.11.55-1.11,1.84s0.34,1.53.83,1.53a1.08,1.08,0,0,0,.65-0.32v-3Z"/><path class="d" d="M40.15,107.6a1.06,1.06,0,0,1-1.07-1.08,1.07,1.07,0,0,1,2.14,0A1.07,1.07,0,0,1,40.15,107.6Zm-1,7.14V108.3h1.89v6.45H39.2Z"/><path class="d" d="M41.78,111.83V110h3.17v1.84H41.78Z"/><path class="d" d="M49,114.89c-2.31,0-3.45-1.74-3.45-4.67s1.2-4.7,3.4-4.7a3.72,3.72,0,0,1,2,.5l-0.29,1.87a2.29,2.29,0,0,0-1.45-.55c-1,0-1.47,1-1.47,2.87s0.53,2.87,1.64,2.87a2.6,2.6,0,0,0,1.42-.55l0.29,1.79A4.28,4.28,0,0,1,49,114.89Z"/><path class="d" d="M54.53,114.74l-0.1-.67a2.12,2.12,0,0,1-1.58.79,1.48,1.48,0,0,1-1.47-1.74c0-1.43,1.08-2.16,2.89-2.45v-0.24a0.67,0.67,0,0,0-.78-0.79,3.55,3.55,0,0,0-1.51.49l-0.23-1.47a5.54,5.54,0,0,1,2.27-.47c1.49,0,2.14.62,2.14,2.16v4.39H54.53Zm-0.26-3.08a1.29,1.29,0,0,0-1.15,1.21,0.52,0.52,0,0,0,.47.62,1,1,0,0,0,.68-0.34v-1.49Z"/><path class="d" d="M56.94,114.74v-9.21l1.9-.29v9.5h-1.9Z"/><path class="d" d="M65.34,114.89c-2.31,0-3.45-1.74-3.45-4.67s1.2-4.7,3.4-4.7a3.72,3.72,0,0,1,2,.5L67,107.89a2.29,2.29,0,0,0-1.45-.55c-1,0-1.47,1-1.47,2.87s0.53,2.87,1.64,2.87a2.6,2.6,0,0,0,1.42-.55l0.29,1.79A4.28,4.28,0,0,1,65.34,114.89Z"/><path class="d" d="M70.42,114.87c-1.6,0-2.68-1.16-2.68-3.34s1.09-3.37,2.7-3.37,2.68,1.18,2.68,3.35S72,114.87,70.42,114.87Zm0-5.13c-0.56,0-.82.67-0.82,1.78s0.27,1.78.83,1.78,0.82-.66.82-1.76S71,109.74,70.42,109.74Z"/><path class="d" d="M76.8,114.74v-4.41a0.41,0.41,0,0,0-.42-0.47,1.24,1.24,0,0,0-.74.34v4.54h-1.9V108.3h1.6L75.46,109a2.51,2.51,0,0,1,1.69-.82,1.41,1.41,0,0,1,1.54,1.64v4.93H76.8Z"/><path class="d" d="M81.87,114.85c-1.41,0-2-.5-2-2.09v-2.84H79.09V108.3h0.73v-2l1.82-.29v2.26h1l0.26,1.62H81.64v2.6a0.54,0.54,0,0,0,.59.67,2.61,2.61,0,0,0,.47,0l0.25,1.57A4.41,4.41,0,0,1,81.87,114.85Z"/><path class="d" d="M85.37,110.81v3.93h-1.9V108.3h1.59l0.14,0.93a2.14,2.14,0,0,1,1.5-1.07l0.31,2A2.83,2.83,0,0,0,85.37,110.81Z"/><path class="d" d="M90.17,114.74l-0.1-.67a2.12,2.12,0,0,1-1.58.79A1.48,1.48,0,0,1,87,113.12c0-1.43,1.08-2.16,2.89-2.45v-0.24a0.67,0.67,0,0,0-.78-0.79,3.55,3.55,0,0,0-1.51.49l-0.23-1.47a5.54,5.54,0,0,1,2.27-.47c1.49,0,2.14.62,2.14,2.16v4.39H90.17Zm-0.26-3.08a1.29,1.29,0,0,0-1.15,1.21,0.52,0.52,0,0,0,.47.62,1,1,0,0,0,.68-0.34v-1.49Z"/><path class="d" d="M95.08,114.86c-1.75,0-2.71-1.17-2.71-3.33s1.05-3.34,2.7-3.34a3.24,3.24,0,0,1,1.58.37l-0.26,1.66a1.74,1.74,0,0,0-1-.37c-0.7,0-1.08.58-1.08,1.67s0.4,1.67,1.17,1.67a1.89,1.89,0,0,0,1-.36l0.23,1.55A2.92,2.92,0,0,1,95.08,114.86Z"/><path class="d" d="M99.8,114.85c-1.41,0-2-.5-2-2.09v-2.84H97V108.3h0.73v-2l1.82-.29v2.26h1l0.26,1.62H99.58v2.6a0.54,0.54,0,0,0,.59.67,2.61,2.61,0,0,0,.47,0l0.25,1.57A4.41,4.41,0,0,1,99.8,114.85Z"/><path class="d" d="M106.13,114.74h-2.27v-9.08h2.27c2.83,0,4.12,1.56,4.12,4.52S108.92,114.74,106.13,114.74Zm0.05-7.37H106V113h0.16c1.11,0,1.88-.63,1.88-2.82S107.27,107.38,106.18,107.38Z"/><path class="d" d="M112.86,110.81v3.93H111V108.3h1.59l0.14,0.93a2.14,2.14,0,0,1,1.5-1.07l0.31,2A2.83,2.83,0,0,0,112.86,110.81Z"/><path class="d" d="M118.25,114.74l-0.12-.68a2.48,2.48,0,0,1-1.71.82,1.41,1.41,0,0,1-1.52-1.64V108.3h1.89v4.42a0.4,0.4,0,0,0,.43.46,1.25,1.25,0,0,0,.73-0.33V108.3h1.9v6.45h-1.6Z"/><path class="d" d="M125.17,109.66a2.16,2.16,0,0,1,.12.72,2.22,2.22,0,0,1-2.4,2.21l-0.43,0a0.64,0.64,0,0,0,0,.2c0,0.14.12,0.21,0.4,0.26,2.38,0.34,3.06.78,3.06,1.92,0,1.42-1.45,2.18-3,2.18s-2.7-.53-2.7-1.59a1.83,1.83,0,0,1,1-1.47,0.86,0.86,0,0,1-.31-0.67,1.42,1.42,0,0,1,.73-1.13,2.09,2.09,0,0,1-1-1.88,2.21,2.21,0,0,1,2.4-2.22,2.54,2.54,0,0,1,1.64.57l1.3-.53,0.22,1.43Zm-3.09,4.85v0a1.27,1.27,0,0,0-.21.68,1,1,0,0,0,1.25.92,0.86,0.86,0,0,0,1-.68c0-.39-0.23-0.59-1.69-0.84Zm0.81-5.18c-0.39,0-.64.36-0.64,1.05s0.25,1.05.64,1.05,0.64-.35.64-1.05S123.27,109.33,122.89,109.33Z"/><path class="d" d="M128.93,114.74v-9.08h2.15v7.16h2.11l0.31,1.92h-4.57Z"/><path class="d" d="M134.94,107.6a1.06,1.06,0,0,1-1.07-1.08,1.07,1.07,0,0,1,2.14,0A1.07,1.07,0,0,1,134.94,107.6Zm-1,7.14V108.3h1.89v6.45H134Z"/><path class="d" d="M138.62,114.87a4.33,4.33,0,0,1-2.16-.58l0.25-1.54a4.13,4.13,0,0,0,1.9.64,0.46,0.46,0,0,0,.55-0.43,1.28,1.28,0,0,0-1-.83,2.25,2.25,0,0,1-1.64-2,1.91,1.91,0,0,1,2.1-1.93,4.08,4.08,0,0,1,1.88.43l-0.23,1.53a3.76,3.76,0,0,0-1.55-.47,0.38,0.38,0,0,0-.44.37,1.25,1.25,0,0,0,.89.75,2.37,2.37,0,0,1,1.69,2.08A2,2,0,0,1,138.62,114.87Z"/><path class="d" d="M143.77,114.85c-1.41,0-2-.5-2-2.09v-2.84H141V108.3h0.73v-2l1.82-.29v2.26h1l0.26,1.62h-1.26v2.6a0.54,0.54,0,0,0,.59.67,2.6,2.6,0,0,0,.47,0l0.25,1.57A4.42,4.42,0,0,1,143.77,114.85Z"/><path class="d" d="M147.92,108l0.5,1.3-0.33.21-1.07-.84-1.08.84-0.33-.21,0.5-1.3-1.15-.78,0.1-.38,1.39,0.07,0.35-1.36h0.42l0.35,1.36,1.39-.07,0.1,0.38Z"/><path class="j" d="M40.84,126v-5.52h1.33V126H40.84Z"/><path class="j" d="M44.71,126v-2.68a0.25,0.25,0,0,0-.26-0.29,0.77,0.77,0,0,0-.46.21V126H42.83v-3.92h1l0.07,0.42a1.55,1.55,0,0,1,1-.5,0.86,0.86,0,0,1,.94,1v3H44.71Z"/><path class="j" d="M48,126.06c-1.07,0-1.66-.71-1.66-2s0.65-2,1.66-2a2,2,0,0,1,1,.22l-0.16,1a1.08,1.08,0,0,0-.64-0.22c-0.43,0-.66.35-0.66,1s0.25,1,.72,1a1.16,1.16,0,0,0,.64-0.22L49,125.77A1.8,1.8,0,0,1,48,126.06Z"/><path class="j" d="M49.39,126v-5.6l1.17-.18V126H49.39Z"/><path class="j" d="M53.17,126l-0.07-.42a1.53,1.53,0,0,1-1,.5,0.86,0.86,0,0,1-.94-1v-3h1.16v2.69a0.25,0.25,0,0,0,.26.28,0.77,0.77,0,0,0,.45-0.2v-2.77h1.17V126h-1Z"/><path class="j" d="M55.88,126.07a2.68,2.68,0,0,1-1.33-.35l0.15-.94a2.55,2.55,0,0,0,1.17.39,0.28,0.28,0,0,0,.34-0.26,0.78,0.78,0,0,0-.58-0.5,1.37,1.37,0,0,1-1-1.24A1.17,1.17,0,0,1,55.9,122a2.51,2.51,0,0,1,1.15.26l-0.14.93a2.31,2.31,0,0,0-1-.29,0.23,0.23,0,0,0-.27.22,0.76,0.76,0,0,0,.54.46,1.44,1.44,0,0,1,1,1.26A1.22,1.22,0,0,1,55.88,126.07Z"/><path class="j" d="M58.26,121.64A0.65,0.65,0,0,1,57.6,121a0.66,0.66,0,0,1,1.31,0A0.65,0.65,0,0,1,58.26,121.64ZM57.67,126v-3.92h1.16V126H57.67Z"/><path class="j" d="M60.94,126.07c-1,0-1.65-.7-1.65-2S60,122,61,122s1.65,0.72,1.65,2S61.93,126.07,60.94,126.07Zm0-3.12c-0.34,0-.5.41-0.5,1.08s0.17,1.08.51,1.08,0.5-.4.5-1.07S61.3,122.95,60.94,122.95Z"/><path class="j" d="M64.93,126v-2.68a0.25,0.25,0,0,0-.26-0.29,0.77,0.77,0,0,0-.46.21V126H63v-3.92h1l0.07,0.42a1.55,1.55,0,0,1,1-.5,0.86,0.86,0,0,1,.94,1v3H64.93Z"/><path class="j" d="M69.65,126.07c-1,0-1.65-.7-1.65-2s0.67-2,1.66-2,1.65,0.72,1.65,2S70.63,126.07,69.65,126.07Zm0-3.12c-0.34,0-.5.41-0.5,1.08s0.17,1.08.51,1.08,0.5-.4.5-1.07S70,122.95,69.65,122.95Z"/><path class="j" d="M73.63,126v-2.68a0.25,0.25,0,0,0-.26-0.29,0.77,0.77,0,0,0-.46.21V126H71.75v-3.92h1l0.07,0.42a1.55,1.55,0,0,1,1-.5,0.86,0.86,0,0,1,.94,1v3H73.63Z"/><path class="j" d="M78.62,121.2a0.38,0.38,0,0,0-.43.45v0.42h0.61l0.16,1H78.18V126H77.07v-2.93H76.6v-1h0.47v-0.61a1.06,1.06,0,0,1,1.17-1.18,3.28,3.28,0,0,1,.6,0l0.14,0.9A1.77,1.77,0,0,0,78.62,121.2Z"/><path class="j" d="M80.71,126.07c-1,0-1.65-.7-1.65-2s0.67-2,1.66-2,1.65,0.72,1.65,2S81.7,126.07,80.71,126.07Zm0-3.12c-0.34,0-.5.41-0.5,1.08s0.17,1.08.51,1.08,0.5-.4.5-1.07S81.06,122.95,80.71,122.95Z"/><path class="j" d="M84,123.59V126H82.83v-3.92h1l0.09,0.57a1.32,1.32,0,0,1,.92-0.65L85,123.2A1.75,1.75,0,0,0,84,123.59Z"/><path class="j" d="M89,126V123.3a0.24,0.24,0,0,0-.26-0.28,0.66,0.66,0,0,0-.43.2V126H87.17V123.3a0.24,0.24,0,0,0-.26-0.28,0.69,0.69,0,0,0-.43.2V126H85.33v-3.92h1l0.07,0.41a1.5,1.5,0,0,1,1-.49,0.81,0.81,0,0,1,.82.46,1.53,1.53,0,0,1,1-.46,0.86,0.86,0,0,1,.93,1v3H89Z"/><path class="j" d="M92.74,126l-0.07-.42a1.52,1.52,0,0,1-1,.5,0.86,0.86,0,0,1-.94-1v-3h1.16v2.69a0.25,0.25,0,0,0,.26.28,0.77,0.77,0,0,0,.45-0.2v-2.77h1.17V126h-1Z"/><path class="j" d="M94.3,126v-5.6l1.17-.18V126H94.3Z"/><path class="j" d="M97.84,126l-0.06-.41a1.31,1.31,0,0,1-1,.48,0.9,0.9,0,0,1-.9-1.06c0-.87.66-1.31,1.77-1.49v-0.14a0.41,0.41,0,0,0-.48-0.48,2.2,2.2,0,0,0-.93.3l-0.14-.9a3.43,3.43,0,0,1,1.39-.29,1.12,1.12,0,0,1,1.31,1.31V126h-1Zm-0.16-1.87a0.78,0.78,0,0,0-.7.74,0.32,0.32,0,0,0,.29.38,0.61,0.61,0,0,0,.42-0.21v-0.9Z"/><path class="j" d="M100.54,123.59V126H99.37v-3.92h1l0.09,0.57a1.32,1.32,0,0,1,.92-0.65l0.19,1.22A1.75,1.75,0,0,0,100.54,123.59Z"/><path class="j" d="M103.93,126a1.39,1.39,0,0,1-1.47,1.31,3.26,3.26,0,0,1-.52,0l-0.16-1a1.91,1.91,0,0,0,.43.06,0.54,0.54,0,0,0,.46-0.23l0-.13-1.1-3.89,1.22-.14,0.54,2.67,0.49-2.61H105Z"/><path class="j" d="M108.91,126l-0.06-.38a1.32,1.32,0,0,1-1,.46c-0.73,0-1.22-.62-1.22-1.85,0-1.53.72-2.18,1.65-2.18a1.5,1.5,0,0,1,.4.06v-1.7l1.16-.18V126h-1Zm-0.18-3a0.5,0.5,0,0,0-.23-0.06c-0.41,0-.68.34-0.68,1.12s0.21,0.93.51,0.93a0.67,0.67,0,0,0,.4-0.19V123Z"/><path class="j" d="M112,126.07c-1,0-1.65-.7-1.65-2s0.67-2,1.66-2,1.65,0.72,1.65,2S113,126.07,112,126.07Zm0-3.12c-0.34,0-.5.41-0.5,1.08s0.17,1.08.51,1.08,0.5-.4.5-1.07S112.34,122.95,112,122.95Z"/><path class="j" d="M115.12,124.38a0.77,0.77,0,0,0,.8.82,2.05,2.05,0,0,0,1-.29l0.13,0.82a2.71,2.71,0,0,1-1.35.34c-1.14,0-1.74-.7-1.74-2,0-1.15.58-2,1.6-2s1.5,0.82,1.5,2a3.2,3.2,0,0,1,0,.43h-1.93Zm0-.7H116c0-.6-0.18-0.9-0.44-0.9S115.15,123,115.11,123.67Z"/><path class="j" d="M118.72,126.07a2.68,2.68,0,0,1-1.33-.35l0.15-.94a2.55,2.55,0,0,0,1.17.39,0.28,0.28,0,0,0,.34-0.26,0.78,0.78,0,0,0-.58-0.5,1.37,1.37,0,0,1-1-1.24,1.17,1.17,0,0,1,1.29-1.18,2.51,2.51,0,0,1,1.15.26l-0.14.93a2.32,2.32,0,0,0-1-.29,0.23,0.23,0,0,0-.27.22,0.77,0.77,0,0,0,.54.46,1.44,1.44,0,0,1,1,1.26A1.22,1.22,0,0,1,118.72,126.07Z"/><path class="j" d="M123.86,126v-2.68a0.25,0.25,0,0,0-.26-0.29,0.76,0.76,0,0,0-.46.21V126H122v-3.92h1l0.07,0.42a1.55,1.55,0,0,1,1-.5,0.86,0.86,0,0,1,.94,1v3h-1.16Z"/><path class="j" d="M127.08,126.07c-1,0-1.65-.7-1.65-2s0.67-2,1.66-2,1.65,0.72,1.65,2S128.06,126.07,127.08,126.07Zm0-3.12c-0.34,0-.5.41-0.5,1.08s0.17,1.08.51,1.08,0.5-.4.5-1.07S127.43,122.95,127.08,122.95Z"/><path class="j" d="M130.64,126a1.06,1.06,0,0,1-1.25-1.27v-1.73h-0.45v-1h0.45v-1.2l1.12-.18v1.38h0.62l0.16,1H130.5v1.58a0.33,0.33,0,0,0,.36.41,1.55,1.55,0,0,0,.29,0l0.15,1A2.71,2.71,0,0,1,130.64,126Z"/><path class="j" d="M133.78,121.64a0.65,0.65,0,0,1-.66-0.66,0.66,0.66,0,0,1,1.31,0A0.65,0.65,0,0,1,133.78,121.64ZM133.2,126v-3.92h1.16V126H133.2Z"/><path class="j" d="M138.62,126V123.3a0.24,0.24,0,0,0-.26-0.28,0.66,0.66,0,0,0-.43.2V126h-1.15V123.3a0.24,0.24,0,0,0-.26-0.28,0.69,0.69,0,0,0-.43.2V126h-1.15v-3.92h1l0.07,0.41a1.5,1.5,0,0,1,1-.49,0.81,0.81,0,0,1,.82.46,1.53,1.53,0,0,1,1-.46,0.86,0.86,0,0,1,.93,1v3h-1.15Z"/><path class="j" d="M141.87,126a1.53,1.53,0,0,1-.39-0.06v1.22l-1.17.18v-5.3h1l0.06,0.38a1.3,1.3,0,0,1,1-.46c0.74,0,1.22.62,1.22,1.85C143.53,125.36,142.81,126,141.87,126Zm0-3a0.63,0.63,0,0,0-.41.19V125a0.46,0.46,0,0,0,.23,0c0.41,0,.68-0.33.68-1.11S142.18,123,141.89,123Z"/><path class="j" d="M144,126v-5.6l1.17-.18V126H144Z"/><path class="j" d="M147.81,126a1.39,1.39,0,0,1-1.47,1.31,3.26,3.26,0,0,1-.52,0l-0.16-1a1.92,1.92,0,0,0,.43.06,0.54,0.54,0,0,0,.46-0.23l0-.13-1.1-3.89,1.22-.14,0.54,2.67,0.49-2.61h1.16Z"/><path class="j" d="M51.88,135a2.67,2.67,0,0,1-1.33-.35l0.15-.94a2.55,2.55,0,0,0,1.17.39,0.28,0.28,0,0,0,.34-0.26,0.78,0.78,0,0,0-.58-0.5,1.37,1.37,0,0,1-1-1.24,1.17,1.17,0,0,1,1.29-1.18,2.51,2.51,0,0,1,1.15.26l-0.14.93a2.31,2.31,0,0,0-1-.29,0.23,0.23,0,0,0-.27.22,0.77,0.77,0,0,0,.54.46,1.44,1.44,0,0,1,1,1.26A1.22,1.22,0,0,1,51.88,135Zm3.82-.08-0.07-.42a1.53,1.53,0,0,1-1,.5,0.86,0.86,0,0,1-.94-1v-3H54.8v2.69a0.24,0.24,0,0,0,.26.28,0.77,0.77,0,0,0,.45-0.2V131h1.17v3.92h-1Zm3.1,0a1.49,1.49,0,0,1-.39-0.06v1.22l-1.17.18V131h1l0.06,0.38a1.3,1.3,0,0,1,1-.46c0.74,0,1.22.62,1.22,1.85C60.46,134.32,59.74,135,58.8,135Zm0-3a0.62,0.62,0,0,0-.41.19V134a0.47,0.47,0,0,0,.23,0c0.41,0,.68-0.33.68-1.11S59.1,132,58.82,132ZM62,133.34a0.77,0.77,0,0,0,.8.82,2,2,0,0,0,1-.3l0.13,0.82a2.72,2.72,0,0,1-1.35.34c-1.14,0-1.74-.7-1.74-2,0-1.15.58-2,1.6-2s1.5,0.82,1.5,2a3.16,3.16,0,0,1,0,.43H62Zm0-.7h0.89c0-.6-0.18-0.9-0.44-0.9S62,132,61.95,132.63Zm3.61-.08v2.39H64.39V131h1l0.09,0.57a1.32,1.32,0,0,1,.92-0.65l0.19,1.22A1.75,1.75,0,0,0,65.55,132.55Zm1.94-2a0.65,0.65,0,0,1-.66-0.66,0.66,0.66,0,0,1,1.31,0A0.65,0.65,0,0,1,67.5,130.6Zm-0.58,4.34V131h1.16v3.92H66.91ZM70.19,135c-1,0-1.65-.7-1.65-2s0.67-2,1.66-2,1.65,0.72,1.65,2S71.18,135,70.19,135Zm0-3.12c-0.34,0-.5.41-0.5,1.08s0.17,1.08.51,1.08,0.5-.4.5-1.07S70.54,131.91,70.19,131.91Zm3.28,0.65v2.39H72.31V131h1l0.09,0.57a1.32,1.32,0,0,1,.92-0.65l0.19,1.22A1.75,1.75,0,0,0,73.47,132.55ZM77.86,135c-1.07,0-1.66-.71-1.66-2s0.65-2,1.66-2a2,2,0,0,1,1,.22l-0.16,1A1.07,1.07,0,0,0,78,132c-0.43,0-.66.35-0.66,1s0.25,1,.72,1a1.17,1.17,0,0,0,.64-0.22l0.14,0.94A1.8,1.8,0,0,1,77.86,135Zm1.43-.07v-5.6l1.17-.18v5.77H79.29Zm2.36-4.34a0.65,0.65,0,0,1-.66-0.66,0.66,0.66,0,0,1,1.31,0A0.65,0.65,0,0,1,81.65,130.6Zm-0.58,4.34V131h1.16v3.92H81.07Zm3.62,0v-2.68a0.25,0.25,0,0,0-.26-0.29,0.76,0.76,0,0,0-.46.21v2.76H82.81V131h1l0.07,0.42a1.55,1.55,0,0,1,1-.5,0.86,0.86,0,0,1,.94,1v3H84.69ZM87,130.6a0.65,0.65,0,0,1-.66-0.66,0.66,0.66,0,0,1,1.31,0A0.65,0.65,0,0,1,87,130.6Zm-0.58,4.34V131h1.16v3.92H86.41ZM89.7,135c-1.07,0-1.66-.71-1.66-2s0.65-2,1.66-2a2,2,0,0,1,1,.22l-0.16,1a1.07,1.07,0,0,0-.64-0.22c-0.43,0-.66.35-0.66,1s0.25,1,.72,1a1.17,1.17,0,0,0,.64-0.22l0.14,0.94A1.8,1.8,0,0,1,89.7,135Zm3.25-.07-0.06-.41a1.31,1.31,0,0,1-1,.48A0.9,0.9,0,0,1,91,134c0-.87.66-1.31,1.78-1.49v-0.14a0.41,0.41,0,0,0-.48-0.48,2.2,2.2,0,0,0-.93.3l-0.14-.9a3.42,3.42,0,0,1,1.39-.29,1.12,1.12,0,0,1,1.31,1.31v2.67H93Zm-0.16-1.87a0.78,0.78,0,0,0-.7.74,0.32,0.32,0,0,0,.29.38,0.61,0.61,0,0,0,.42-0.21v-0.9Zm1.7,1.87v-5.6l1.17-.18v5.77H94.5Zm4.28-1.61a0.77,0.77,0,0,0,.8.82,2,2,0,0,0,1-.3l0.13,0.82a2.72,2.72,0,0,1-1.35.34c-1.14,0-1.74-.7-1.74-2,0-1.15.58-2,1.6-2s1.5,0.82,1.5,2a3.16,3.16,0,0,1,0,.43H98.78Zm0-.7h0.89c0-.6-0.18-0.9-0.44-0.9S98.81,132,98.77,132.63Zm4.24-2.47a0.38,0.38,0,0,0-.43.45V131h0.61l0.16,1h-0.77v2.93h-1.11V132H101v-1h0.47v-0.61a1.06,1.06,0,0,1,1.17-1.18,3.24,3.24,0,0,1,.6,0l0.14,0.9A1.8,1.8,0,0,0,103,130.16Zm2.4,0a0.38,0.38,0,0,0-.43.45V131h0.61l0.16,1H105v2.93h-1.11V132h-0.47v-1h0.47v-0.61a1.06,1.06,0,0,1,1.17-1.18,3.24,3.24,0,0,1,.6,0l0.14,0.9A1.8,1.8,0,0,0,105.41,130.16Zm1.22,0.44a0.65,0.65,0,0,1-.66-0.66,0.66,0.66,0,0,1,1.31,0A0.65,0.65,0,0,1,106.62,130.6ZM106,134.94V131h1.16v3.92H106Zm3.3,0.07c-1.07,0-1.66-.71-1.66-2s0.65-2,1.66-2a2,2,0,0,1,1,.22l-0.16,1a1.07,1.07,0,0,0-.64-0.22c-0.43,0-.66.35-0.66,1s0.25,1,.72,1a1.17,1.17,0,0,0,.64-0.22l0.14,0.94A1.8,1.8,0,0,1,109.34,135Zm3.25-.07-0.06-.41a1.31,1.31,0,0,1-1,.48,0.9,0.9,0,0,1-.9-1.06c0-.87.66-1.31,1.78-1.49v-0.14a0.41,0.41,0,0,0-.48-0.48,2.2,2.2,0,0,0-.93.3l-0.14-.9a3.42,3.42,0,0,1,1.39-.29,1.12,1.12,0,0,1,1.31,1.31v2.67h-1Zm-0.16-1.87a0.78,0.78,0,0,0-.7.74,0.32,0.32,0,0,0,.29.38,0.61,0.61,0,0,0,.42-0.21v-0.9Zm3.24,1.94c-1.07,0-1.66-.71-1.66-2s0.65-2,1.66-2a2,2,0,0,1,1,.22l-0.16,1a1.07,1.07,0,0,0-.64-0.22c-0.43,0-.66.35-0.66,1s0.25,1,.72,1a1.17,1.17,0,0,0,.64-0.22l0.14,0.94A1.8,1.8,0,0,1,115.66,135Zm3.54,0a1.39,1.39,0,0,1-1.47,1.31,3.2,3.2,0,0,1-.52,0l-0.16-1a1.94,1.94,0,0,0,.43.06,0.54,0.54,0,0,0,.46-0.23l0-.13-1.1-3.89,1.22-.14,0.54,2.67,0.49-2.61h1.16Zm4.39,0c-1,0-1.65-.7-1.65-2s0.67-2,1.66-2,1.65,0.72,1.65,2S124.58,135,123.6,135Zm0-3.12c-0.34,0-.5.41-0.5,1.08s0.17,1.08.51,1.08,0.5-.4.5-1.07S124,131.91,123.6,131.91Zm3.28,0.65v2.39h-1.17V131h1l0.09,0.57a1.32,1.32,0,0,1,.92-0.65l0.19,1.22A1.75,1.75,0,0,0,126.88,132.55Zm4,2.47a2.67,2.67,0,0,1-1.33-.35l0.15-.94a2.55,2.55,0,0,0,1.17.39,0.28,0.28,0,0,0,.34-0.26,0.78,0.78,0,0,0-.58-0.5,1.37,1.37,0,0,1-1-1.24,1.17,1.17,0,0,1,1.29-1.18,2.51,2.51,0,0,1,1.15.26l-0.14.93a2.31,2.31,0,0,0-1-.29,0.23,0.23,0,0,0-.27.22,0.77,0.77,0,0,0,.54.46,1.44,1.44,0,0,1,1,1.26A1.22,1.22,0,0,1,130.88,135Zm3.65-.08-0.06-.41a1.31,1.31,0,0,1-1,.48,0.9,0.9,0,0,1-.9-1.06c0-.87.66-1.31,1.78-1.49v-0.14a0.41,0.41,0,0,0-.48-0.48,2.2,2.2,0,0,0-.93.3l-0.14-.9a3.42,3.42,0,0,1,1.39-.29,1.12,1.12,0,0,1,1.31,1.31v2.67h-1Zm-0.16-1.87a0.78,0.78,0,0,0-.7.74,0.32,0.32,0,0,0,.29.38,0.61,0.61,0,0,0,.42-0.21v-0.9Zm3.46-2.91a0.38,0.38,0,0,0-.43.45V131H138l0.16,1h-0.77v2.93h-1.11V132h-0.47v-1h0.47v-0.61a1.06,1.06,0,0,1,1.17-1.18,3.24,3.24,0,0,1,.6,0l0.14,0.9A1.8,1.8,0,0,0,137.82,130.16Zm1.59,3.17a0.77,0.77,0,0,0,.8.82,2,2,0,0,0,1-.3l0.13,0.82A2.72,2.72,0,0,1,140,135c-1.14,0-1.74-.7-1.74-2,0-1.15.58-2,1.6-2s1.5,0.82,1.5,2a3.16,3.16,0,0,1,0,.43h-1.93Zm0-.7h0.89c0-.6-0.18-0.9-0.44-0.9S139.45,132,139.41,132.63Zm4,2.37a1.06,1.06,0,0,1-1.26-1.27V132h-0.45v-1h0.45v-1.2l1.12-.18V131h0.62l0.16,1h-0.78v1.58a0.33,0.33,0,0,0,.36.41l0.29,0,0.15,1A2.72,2.72,0,0,1,143.37,135Zm3.08,0A1.39,1.39,0,0,1,145,136.3a3.2,3.2,0,0,1-.52,0l-0.16-1a1.94,1.94,0,0,0,.43.06,0.54,0.54,0,0,0,.46-0.23l0-.13-1.1-3.89,1.22-.14,0.54,2.67,0.49-2.61h1.16Zm1,0V133.5h1.3v1.45h-1.3Z"/><g class="k"><g class="l"><g class="m"><g class="l"><path class="c" d="M125.67,254.45a3.35,3.35,0,0,0,.79-0.26,1.77,1.77,0,0,0,.06-0.18,1.53,1.53,0,0,1,.28-0.59,3.62,3.62,0,0,0,0-2.42,0.53,0.53,0,0,1,0-.11,1,1,0,0,0-.31,0,1.57,1.57,0,0,1-.8-0.2l-0.1,0a1.68,1.68,0,0,1-.8-0.56l0,0a1.49,1.49,0,0,1,0-1.88,2.11,2.11,0,0,0,0-1.76l0-.07a2,2,0,0,1,.57-2.67c0.11-.13.22-0.24,0.34-0.36l0.09-.09,0,0s0-.11.06-0.17a1.41,1.41,0,0,1,.31-0.62l0,0a1,1,0,0,0,.09-0.7,1.73,1.73,0,0,1,.47-1.56l0.27-.33a3.84,3.84,0,0,1,.59-0.61,0.22,0.22,0,0,0,.06-0.07,1.21,1.21,0,0,0-.12-0.28l-0.1-.19a1.92,1.92,0,0,1-.29-1.11,0.83,0.83,0,0,0-.16-0.62,0.49,0.49,0,0,1-.13-0.19,1.26,1.26,0,0,1,.23-1.44,3.57,3.57,0,0,1,.47-0.48,0.47,0.47,0,0,1,.16-0.09,1,1,0,0,0,.37-0.86,0.49,0.49,0,0,1,.09-0.26,3.47,3.47,0,0,1,.81-0.78l0.29-.23,0,0,0,0,0.25-.25,0-.06,0.07-.08c0.11-.11.23-0.23,0.35-0.34a4.43,4.43,0,0,1,.46-0.47,3.89,3.89,0,0,1,.45-0.45c0.11-.13.23-0.25,0.35-0.37l0.08-.08a0.52,0.52,0,0,0,0-.58l-0.06-.07-0.17-.06a1.3,1.3,0,0,1-.59-0.32A4.93,4.93,0,0,1,130,229l-0.08-.08,0-.06a2.44,2.44,0,0,0-.27-0.22l-0.15,0a1.72,1.72,0,0,1-.78-0.54l0,0a1.59,1.59,0,0,1-.38-1.27,0.91,0.91,0,0,0-.06-0.5,1.37,1.37,0,0,1-.37-0.69,1.45,1.45,0,0,0-.06-0.18l0,0a1.68,1.68,0,0,1-.38-1.09,1,1,0,0,0-.1-0.46l-0.43-.62a4.92,4.92,0,0,0-.33-0.4l-0.05,0c-0.17-.17-0.3-0.3-0.43-0.44a3.9,3.9,0,0,1-.5-0.52,0.51,0.51,0,0,1-.07-0.11,2.8,2.8,0,0,1-.25-1.68,3.59,3.59,0,0,0,0-.72v-0.33a1.67,1.67,0,0,1-.36-0.05,0.49,0.49,0,0,1-.21-0.12l-6.55-6.47-16.6-16.38Q85.69,180.33,69.9,164.78c-1.81-1.78-3.64-3.55-5.47-5.32L62,157.06a1.56,1.56,0,0,1-.57-1.66,2.76,2.76,0,0,0,0-.33q0-22,0-44c0-.09,0-0.19,0-0.28a2.77,2.77,0,0,1,.06-0.91l0-.05a5.11,5.11,0,0,0-1.25,0l-0.64,0H14.94a4.67,4.67,0,0,0-.56,0,5.87,5.87,0,0,1-1.26,0c0,0.08,0,.16,0,0.24a3,3,0,0,1-.14,1.24,2.57,2.57,0,0,0,.38,2.36c1,2.1,2,4.57.77,7.36a6.17,6.17,0,0,0-.28,3.15v0.1c0.16,1.83.36,4.11-1.19,5.76-1.72,1.84-2.46,3.22-1.38,5.22a1.23,1.23,0,0,1,.09.72,1.35,1.35,0,0,0,0,.17,0.5,0.5,0,0,0,.29.47,17.6,17.6,0,0,1,4.68,5.07A8.36,8.36,0,0,1,18,148.31c-0.37,1.73-.45,3.15.37,4.48a5.91,5.91,0,0,1,.6,1.57l0.11,0.4a1.92,1.92,0,0,1-.25,1.94,0.91,0.91,0,0,0-.3.61,1.33,1.33,0,0,0,.72.71,8.91,8.91,0,0,1,3.12,3.32,5.68,5.68,0,0,0,1.25,1.56A18.43,18.43,0,0,1,27,167l0.31,0.45c1.18,1.71,1.24,2,.26,3.67h0a4.27,4.27,0,0,1,2.83,1.45,4.84,4.84,0,0,0,1.7,1.16,11,11,0,0,0,.34-2.42l0-.34a1.67,1.67,0,0,1,1.7-1.63,2.13,2.13,0,0,1,2,1,8.21,8.21,0,0,1,2.74.17,10.82,10.82,0,0,0,1.69.21,4.72,4.72,0,0,1,3.62.21,0.49,0.49,0,0,1,.45.2,0.52,0.52,0,0,1,0,.63,0.58,0.58,0,0,1-.48.19h0a2.17,2.17,0,0,1-.91-0.25,0.93,0.93,0,0,0-.68-0.15,8.59,8.59,0,0,1-3.35.09,6,6,0,0,0-3.78.4c-0.62.51-.73,0.83-0.24,1.75,0.22,0.4.46,0.78,0.72,1.19a8,8,0,0,1,1.56,3.7,1.13,1.13,0,0,0,.53.54l0.19,0.13a1.19,1.19,0,0,1,.64.85,1,1,0,0,1-.38.83,1.15,1.15,0,0,1-.86.36,1.34,1.34,0,0,1-.93-0.54,11.8,11.8,0,0,0-.92-0.91c-1.05-1-2.24-2.08-2-4.1a0.38,0.38,0,0,0-.38-0.08,0.44,0.44,0,0,0-.17.05,0.93,0.93,0,0,0,0,.25,3,3,0,0,1-.22,2,1.24,1.24,0,0,0,.32,1.47,3.06,3.06,0,0,1,.8,3.35,1.86,1.86,0,0,0,.58,2.08c0.37,0.42.73,0.84,1.09,1.26l0.77,0.9c0.75,0.86,1.11,1.07,1.76.65a1.29,1.29,0,0,1,1.3,0,3.8,3.8,0,0,1,2,3.09,3.65,3.65,0,0,1-1.24,3.32c-0.41.32-.43,0.36-0.42,0.54s0,0.51.06,0.77c0.14,1.92.27,3.57,2.14,4.48a2.38,2.38,0,0,1,1.12,1.17,14.66,14.66,0,0,0,1.5,2.39,15.17,15.17,0,0,1,1.67,2.72c0.08,0.18.15,0.36,0.23,0.56,0.44,1.13.78,1.83,1.78,2a1.27,1.27,0,0,1,.79.67,7,7,0,0,0,2.84,2.84,1.65,1.65,0,0,1,.92,1,1.69,1.69,0,0,1-.17,1.35,3.87,3.87,0,0,0-.42,1,5.75,5.75,0,0,0,1.17.48,2.94,2.94,0,0,1,1.93,1.34,2.85,2.85,0,0,1-.3,2.19,1.2,1.2,0,0,0-.16,1.19,6.47,6.47,0,0,1,.33,4.17c0,0.09,0,.19-0.06.29a1.46,1.46,0,0,0-.07.44,9.52,9.52,0,0,1,.84.58c0.88,0.66,1.65,1.23,2.62.93a5.71,5.71,0,0,1,4,.5,5.6,5.6,0,0,0,3.5.35l0.2-.05a1.44,1.44,0,0,1,1.47.19,6.88,6.88,0,0,0,1.32.86c1.1,0.61,2.34,1.3,2.58,3.07a1.18,1.18,0,0,0,.78.57l0.54,0.22a7.7,7.7,0,0,1,1.33.63,2.25,2.25,0,0,0,2.34.38c1.9-.73,2.89-0.15,3.38.46l0.21,0.26A4.06,4.06,0,0,1,81.73,238a1,1,0,0,0,0,.58,0.92,0.92,0,0,0,.51-0.12,3.13,3.13,0,0,1,1.23-.27,3.52,3.52,0,0,1,2.41,1.17,24.65,24.65,0,0,0,3.28,2.72c2.57,1.71,4.29,4.21,5.4,7.88,0.07,0.22.15,0.44,0.22,0.67a4.48,4.48,0,0,1,.15,3.69,0.31,0.31,0,0,0,0,.25,0.94,0.94,0,0,0,.54.43l0.26,0.1a1.31,1.31,0,0,1,1.07,1.54,0.86,0.86,0,0,0,.11.68,1.15,1.15,0,0,0,.93.09,22.64,22.64,0,0,1,2.86-.3c0.5,0,1-.06,1.49-0.11l21.5-2.16a5.64,5.64,0,0,1,1.22-.17,5,5,0,0,1,.82-0.26"/><path class="n" d="M125.67,254.45l-0.24-1a2.63,2.63,0,0,0,.55-0.17l0.48,0.88-0.92-.39,0-.06h0a2.49,2.49,0,0,1,.47-0.95l0.77,0.64-0.94-.35a1.93,1.93,0,0,0,.12-0.7,3.76,3.76,0,0,0-.19-1.08h0a1.53,1.53,0,0,1-.06-0.32l1-.08-0.43.9,0.07-.15v0.2l-0.06-.05,0.07-.15v0.2h0a2.53,2.53,0,0,1-1.28-.36l0.54-.84-0.12,1-0.28-.06h0a2.68,2.68,0,0,1-1.27-.88l0.78-.63-0.73.68-0.11-.13,0.8-.6-0.79.61a2.56,2.56,0,0,1-.57-1.58,2.61,2.61,0,0,1,.49-1.49l0.82,0.57-0.93-.38a1.22,1.22,0,0,0,.1-0.47,1.18,1.18,0,0,0-.12-0.5h0a1.6,1.6,0,0,1-.07-0.19l1-.28-0.92.4a3.89,3.89,0,0,1-.36-1.54,2.81,2.81,0,0,1,1.27-2.34l0.58,0.82-0.76-.65c0.14-.16.27-0.3,0.39-0.42h0l0.09-.09h0l0.07-.07,0.66,0.75-0.92-.39,0-.06,1,0.29-1-.28a2.38,2.38,0,0,1,.55-1l0.73,0.69-0.81-.58,0.07-.09h0l0.3,0.26h-0.44a2.84,2.84,0,0,1,.13-0.26l0.3,0.26h-0.44v-0.24h0c0-.11,0-0.26,0-0.43a2.5,2.5,0,0,1,.82-1.94l0.67,0.75-0.77-.64,0.27-.33,0.77,0.64-0.79-.61a4.84,4.84,0,0,1,.74-0.77l0.64,0.77-0.68-.73,0.56,0.59-0.75-.28a0.83,0.83,0,0,1,.2-0.31l0.56,0.59-0.75-.28,0.94,0.35h-0.67l-0.34.17V239.1h0.33l-0.34.17,0.89-.46-0.88.47-0.12-.24,0.91-.42-0.81.58a2.88,2.88,0,0,1-.48-1.65h0.23l-0.07.08-0.16-.07h0.23l-0.07.08h0a1.49,1.49,0,0,1-.39-0.58h0a2.72,2.72,0,0,1-.19-1,2.15,2.15,0,0,1,.64-1.54l0.71,0.71-0.78-.63a4.57,4.57,0,0,1,.6-0.61l0.65,0.76L126.7,234a1.47,1.47,0,0,1,.49-0.28l0.32,0.95-0.58-.81,0-.1h0a1.49,1.49,0,0,1,.26-0.78h0a4.41,4.41,0,0,1,1-1h0l0.25-.2h0l0.13-.1,0.57,0.82-0.71-.71,0,0,0.71,0.71-0.72-.7,0.29-.28,0.68,0.73-0.8-.6,0.12-.14h0l0.08-.08h0c0.11-.11.24-0.24,0.4-0.38l0.66,0.75-0.75-.66a5.41,5.41,0,0,1,.57-0.57l0.65,0.76-0.77-.64a4.89,4.89,0,0,1,.56-0.57l0.65,0.76-0.77-.64c0.15-.18.29-0.32,0.41-0.44h0l0.08-.08,0.7,0.71-0.9-.43,0.26,0.12H130.3l0-.12,0.26,0.12h0.24l-0.43.3a0.56,0.56,0,0,1-.09-0.3h0.52l-0.43.3,0.82-.58-0.69.72a1.5,1.5,0,0,1-.19-0.22l0.82-.58-0.64.76,0.34-.4-0.16.53s0,0-.17-0.13l0.34-.4-0.16.53h0a2.27,2.27,0,0,1-1-.58l0.72-.69-0.64.77a5.86,5.86,0,0,1-.5-0.47h0l-0.08-.08h0l-0.12-.14,0.8-.6-0.67.74-0.16-.13,0.56-.83v1a1.48,1.48,0,0,1-.47-0.08h0a2.73,2.73,0,0,1-1.23-.85l0.76-.64-0.71.71,0,0h0a2.44,2.44,0,0,1-.67-1.78v-0.22h0v-0.14h0.43l-0.33.21c-0.14-.21-0.09-0.21-0.1-0.21h0.43l-0.33.21,0.84-.54-0.68.73a2.35,2.35,0,0,1-.65-1.15h0v0l0.91-.41-0.71.71,0,0,0,0v0a2.66,2.66,0,0,1-.64-1.68v0h0.17l-0.08.06-0.08,0h0.17l-0.08.06h0l-0.44-.63,0.82-.57-0.82.58a4,4,0,0,0-.26-0.32l0.75-.66-0.62.78-0.14-.12c-0.16-.16-0.32-0.32-0.47-0.5l0.76-.66-0.67.74a4.88,4.88,0,0,1-.62-0.66h0a1.51,1.51,0,0,1-.19-0.33l0.92-.39-0.87.5a3.26,3.26,0,0,1-.41-1.66c0-.22,0-0.41,0-0.58h0c0-.15,0-0.28,0-0.37V219l1,0-0.05,1a2.67,2.67,0,0,1-.56-0.09h0a1.49,1.49,0,0,1-.65-0.38h0L117.37,213l-16.6-16.38Q85,181,69.2,165.49c-1.81-1.78-3.64-3.55-5.47-5.31l-2.48-2.4,0.7-.72-0.56.83a2.37,2.37,0,0,1-1.05-2,4.73,4.73,0,0,1,0-.58h0l0-.21h0q0-12.46,0-24.92,0-9.56,0-19.12v-0.23h0c0-.1,0-0.23,0-0.38a3.17,3.17,0,0,1,.11-0.85l1,0.26-0.84.54,0-.05,0.84-.54-0.2,1a2.66,2.66,0,0,0-.52,0l-0.49,0h0l-0.69,0H14.82l-0.39,0h0l-0.59,0a5.57,5.57,0,0,1-.88-0.06l0.16-1h1v0.22h0c0,0.11,0,.23,0,0.37a3.36,3.36,0,0,1-.22,1.29h0a1,1,0,0,0-.09.37,3,3,0,0,0,.43,1.17,11.53,11.53,0,0,1,1.47,5.11,7.37,7.37,0,0,1-.69,3.11,3.49,3.49,0,0,0-.26,1.49c0,0.34,0,.72.06,1.16h0v0.1h0c0.05,0.59.11,1.25,0.11,2a6.42,6.42,0,0,1-1.57,4.58c-1.15,1.21-1.63,2.06-1.62,2.77a2.74,2.74,0,0,0,.38,1.3,2,2,0,0,1,.22.93c0,0.16,0,.28,0,0.36h0v0H11.74l0.61,0v0H11.74l0.61,0H12l0.24-.37s0.19,0.33.16,0.37H12l0.24-.37h0a18.53,18.53,0,0,1,5,5.34,10.07,10.07,0,0,1,2,5.74,8.22,8.22,0,0,1-.19,1.74,9.17,9.17,0,0,0-.25,1.9,3.32,3.32,0,0,0,.49,1.84,6.81,6.81,0,0,1,.72,1.83h0L20,154.48h0a4,4,0,0,1,.2,1.16,2.56,2.56,0,0,1-.66,1.74h0l-0.11-.1h0.06l0,0.1-0.11-.1H18.85l0.68-.1v0.1H18.85l0.68-.1h0.24a9.91,9.91,0,0,1,3.47,3.68h0a4.72,4.72,0,0,0,1,1.29h0a19.33,19.33,0,0,1,3.6,4.26h0l0.31,0.45h0a4.61,4.61,0,0,1,1.12,2.53,4.5,4.5,0,0,1-.82,2.22l-0.86-.51v-1h0a5.21,5.21,0,0,1,3.5,1.71h0a4.06,4.06,0,0,0,1.33.95l-0.29,1-1-.28a10.15,10.15,0,0,0,.3-2.2h0l0-.34a2.69,2.69,0,0,1,2.58-2.55h0l0.4,0a3.19,3.19,0,0,1,2.5,1.35l-0.77.64-0.15-1a6.13,6.13,0,0,1,.94-0.07,12,12,0,0,1,2.12.24h0a10,10,0,0,0,1.53.2l0,1-0.31-1a6.14,6.14,0,0,1,1.91-.31,5.62,5.62,0,0,1,2.46.57l-0.43.9-0.08-1h0.13a1.5,1.5,0,0,1,1.21.61h0a1.52,1.52,0,0,1-.06,1.85h0a1.57,1.57,0,0,1-1.22.56H44.19l0-1v0.47l0,0.53h0v-0.53l0,0.53H44.19a3.11,3.11,0,0,1-1.32-.34h0l-0.13-.08v-0.55l0.18,0.52-0.18,0v-0.55l0.18,0.52H42.88a6.93,6.93,0,0,1-1.93.25,17,17,0,0,1-1.81-.12h0a14.8,14.8,0,0,0-1.51-.11,3.24,3.24,0,0,0-1.67.38L35.47,172l0.63,0.77-0.18.07a1.11,1.11,0,0,0,.19.43h0c0.19,0.35.42,0.72,0.69,1.12h0a8.94,8.94,0,0,1,1.71,4.16h0l-0.54,0,0.4-.43a0.63,0.63,0,0,1,.15.39l-0.54,0,0.4-.43,0.26,0.19h0l0.19,0.13-0.57.82,0.56-.83A2.15,2.15,0,0,1,39.87,180h0v0.15a2.07,2.07,0,0,1-.7,1.49h0a2.17,2.17,0,0,1-1.5.64h-0.1a2.33,2.33,0,0,1-1.64-.89h0a11,11,0,0,0-.84-0.83,5.74,5.74,0,0,1-2.34-4.28,5.3,5.3,0,0,1,0-.68l1,0.13-0.94.33,0.69-.24v0.83c-0.07-.1-0.19.25-0.69-0.59l0.69-.24v0.63l0,0.19h0v-0.19l0,0.19h0l-0.09-.63,0.36,0.5a0.59,0.59,0,0,1-.27.13l-0.09-.63,0.36,0.5-0.58-.81,0.6-.8c0.63,0.72.3,0.65,0.4,0.73v0h0a3.31,3.31,0,0,1,.15,1,4.62,4.62,0,0,1-.39,1.73h0l0,0.17a0.28,0.28,0,0,0,.13.21h0a4.09,4.09,0,0,1,1.3,3,4.38,4.38,0,0,1-.25,1.44h0a1,1,0,0,0-.07.31,1.25,1.25,0,0,0,.45.78h0c0.38,0.42.74,0.85,1.1,1.27h0l0.76,0.89h0a1.46,1.46,0,0,1,.43.52l0-.05a2.2,2.2,0,0,1,1.2-.35,2.48,2.48,0,0,1,1.08.26h0a4.79,4.79,0,0,1,2.52,3.89h0a5.67,5.67,0,0,1,0,.58,4.52,4.52,0,0,1-1.65,3.63h0l-0.21.17-0.54-.49H41a0.84,0.84,0,0,1-.18.49l-0.54-.49h0.42l0.3,0v0h-0.3l0.3,0h0c0,0.27,0,.53.06,0.78h0c0.18,2,.24,3,1.58,3.65h0a3.39,3.39,0,0,1,1.59,1.65h0a13.78,13.78,0,0,0,1.4,2.23h0a16.07,16.07,0,0,1,1.77,2.9h0c0.09,0.21.17,0.41,0.25,0.6h0c0.5,1.19.55,1.27,1,1.35h0a2.19,2.19,0,0,1,1.49,1.12h0a6,6,0,0,0,2.42,2.47h0A2.65,2.65,0,0,1,54,212.86h0a2.42,2.42,0,0,1,.12.77,2.92,2.92,0,0,1-.36,1.37h0c-0.06.12-.16,0.31-0.24,0.47l-0.07,0H52.58l0.89-.11v0.11H52.58l0.89-.11-1,.12,0.78-.63,0,0,0-.12v0.09l0,0,0-.12L54,215h0a3.85,3.85,0,0,1,2.52,1.9h0a2.6,2.6,0,0,1,.2,1,5,5,0,0,1-.51,2h0a2.94,2.94,0,0,1-.18.41H55.85l0.15-.08v0.08H55.85l0.15-.08h0a6.13,6.13,0,0,1,.62,2.8,11.15,11.15,0,0,1-.21,2c0,0.13-.05.24-0.07,0.34h0l0,0.16H55.44l0.81-.27a0.82,0.82,0,0,1,0,.27H55.44l0.81-.27-1,.31,0.51-.86a10.34,10.34,0,0,1,.93.64h0a3,3,0,0,0,1.49.82,0.8,0.8,0,0,0,.24,0h0a5.33,5.33,0,0,1,1.57-.24,8.12,8.12,0,0,1,3.13.77,5.06,5.06,0,0,0,1.93.41,4.17,4.17,0,0,0,1-.11h0l0.16,0h0a3.48,3.48,0,0,1,.94-0.15,2.15,2.15,0,0,1,1.47.57h0a6.06,6.06,0,0,0,1.13.73h0a5.05,5.05,0,0,1,3.09,3.8v0l-0.5.07,0.31-.47a0.68,0.68,0,0,1,.2.4l-0.5.07,0.31-.47a3.15,3.15,0,0,0,.39.19h0l0.51,0.21h0a8.61,8.61,0,0,1,1.49.72h0a1.81,1.81,0,0,0,.94.4,1.4,1.4,0,0,0,.5-0.11h0a5.53,5.53,0,0,1,2-.41A3.18,3.18,0,0,1,81,233.69h0l0.21,0.26h0a5.46,5.46,0,0,1,1.58,3.49,4.17,4.17,0,0,1-.08.8h0l0,0.17H82l0.5-.41c0.3,0.45.15,0.39,0.19,0.41H82l0.5-.41-0.77.64,0.45-.89-0.4.79v-0.89a0.79,0.79,0,0,1,.4.1l-0.4.79v-0.89l0.07,0a4.13,4.13,0,0,1,1.62-.35,4.5,4.5,0,0,1,3.1,1.44,23.7,23.7,0,0,0,3.15,2.61h0a14.56,14.56,0,0,1,5.8,8.42h0c0.06,0.19.13,0.4,0.21,0.62h0a7.56,7.56,0,0,1,.55,2.53,4.35,4.35,0,0,1-.45,1.93h0l-0.52-.25h0.57a0.6,0.6,0,0,1,0,.25l-0.52-.25H95.09l0.74-.24a0.94,0.94,0,0,1,0,.24H95.09l0.74-.24-1,.31,0.95-.33-0.06,0,0.08-.17,0,0.15-0.06,0,0.08-.17h0L96,254.2h0a2.33,2.33,0,0,1,1.77,2.23,3,3,0,0,1,0,.39h0v0.11H97.28l0.27-.28c0.24,0.27.16,0.28,0.17,0.28H97.28l0.27-.28-0.69.72,0.69-.73-0.18.19V256.5c0,0.06,0,0,.18.14l-0.18.19V256.5l0.23,0h0a23.53,23.53,0,0,1,3-.32h0c0.5,0,1-.06,1.46-0.11h0l21.5-2.16,0.1,1-0.27-1a6.56,6.56,0,0,1,1.43-.2l0.06,1-0.4-.92a6,6,0,0,1,1-.32h0l0.24,1,0.24,1a4.1,4.1,0,0,0-.66.21l-0.16.07h-0.18a4.74,4.74,0,0,0-1,.13l-0.08,0L102.24,258h0c-0.52.05-1,.08-1.53,0.12h0a21.75,21.75,0,0,0-2.73.29h0a3.24,3.24,0,0,1-.61.06,1.69,1.69,0,0,1-1.19-.41h0a1.56,1.56,0,0,1-.44-1.16,2.84,2.84,0,0,1,0-.38h0v-0.13c0-.23,0-0.15-0.41-0.33h0A3.5,3.5,0,0,1,95,256h0a1.87,1.87,0,0,1-1.05-1h0a1.24,1.24,0,0,1-.06-0.38,1.42,1.42,0,0,1,.15-0.62h0a2.34,2.34,0,0,0,.25-1.06,5.77,5.77,0,0,0-.44-1.86h0c-0.08-.22-0.16-0.46-0.24-0.71h0c-1.07-3.52-2.64-5.76-5-7.33h0a25.59,25.59,0,0,1-3.42-2.83,2.56,2.56,0,0,0-1.71-.89,2.13,2.13,0,0,0-.84.19,2.21,2.21,0,0,1-.85.2,1,1,0,0,1-.5-0.11l-0.19-.09L81,239.26a1.26,1.26,0,0,1-.27-0.86,2.88,2.88,0,0,1,.06-0.55h0a2.17,2.17,0,0,0,0-.42,3.61,3.61,0,0,0-1.12-2.22h0L79.46,235h0a1.15,1.15,0,0,0-1-.43,3.56,3.56,0,0,0-1.25.27h0A3.37,3.37,0,0,1,76,235a3.69,3.69,0,0,1-2-.72h0a6.82,6.82,0,0,0-1.16-.55h0l-0.57-.24h0a1.91,1.91,0,0,1-1.37-1.36h0c-0.19-1.27-.94-1.68-2.07-2.33h0a7.74,7.74,0,0,1-1.51-1h0l-0.12,0a1.68,1.68,0,0,0-.41.08h0l-0.23.06h0a6.18,6.18,0,0,1-1.42.17,7.06,7.06,0,0,1-2.69-.56,6.27,6.27,0,0,0-2.37-.62,3.33,3.33,0,0,0-1,.15h0a2.8,2.8,0,0,1-.82.12A4.6,4.6,0,0,1,55.54,227h0a8.73,8.73,0,0,0-.74-0.52l-0.33-.19-0.12-.36a1.11,1.11,0,0,1-.05-0.36,2.81,2.81,0,0,1,.1-0.64h0c0-.1,0-0.18.05-0.24a9.21,9.21,0,0,0,.18-1.65,4.13,4.13,0,0,0-.41-1.9h0a1.82,1.82,0,0,1-.21-0.82,3,3,0,0,1,.34-1.22h0a3.21,3.21,0,0,0,.34-1.16,0.6,0.6,0,0,0,0-.24h0a2.16,2.16,0,0,0-1.34-.79h0a4.08,4.08,0,0,1-1.61-.79l-0.18-.22,0-.29v-0.13a3.77,3.77,0,0,1,.54-1.43h0a0.94,0.94,0,0,0,.13-0.43l0-.13h0a0.67,0.67,0,0,0-.39-0.36h0a7.91,7.91,0,0,1-3.26-3.21h0c-0.09-.21-0.11-0.14-0.09-0.22h0a3.36,3.36,0,0,1-2.57-2.6h0c-0.08-.19-0.14-0.37-0.21-0.51h0A14.28,14.28,0,0,0,44,204.05h0a15.55,15.55,0,0,1-1.59-2.56h0a1.38,1.38,0,0,0-.65-0.69h0c-2.4-1.16-2.58-3.48-2.7-5.3h0c0-.26,0-0.51-0.06-0.75h0v-0.16a1.61,1.61,0,0,1,.81-1.26h0a2.53,2.53,0,0,0,.88-2,3.67,3.67,0,0,0,0-.38h0a2.82,2.82,0,0,0-1.4-2.29h0a0.49,0.49,0,0,0-.21-0.06l-0.11,0a2.06,2.06,0,0,1-1.12.37,2.7,2.7,0,0,1-1.94-1.2h0l-0.78-.91h0c-0.36-.42-0.71-0.84-1.07-1.24h0a3.16,3.16,0,0,1-1-2.11,2.94,2.94,0,0,1,.18-1h0a2.38,2.38,0,0,0,.14-0.78,2.08,2.08,0,0,0-.69-1.52h0a2.28,2.28,0,0,1-.74-1.64,2.46,2.46,0,0,1,.19-0.91h0a2.7,2.7,0,0,0,.24-1,1.31,1.31,0,0,0-.06-0.39h0a2.05,2.05,0,0,1-.08-0.37V175.8l0.66,0-0.66,0v0l0.66,0-0.66,0,1-.07-0.6.8c-0.63-.72-0.3-0.65-0.4-0.72l1-.07-0.6.8-1.09-.82,1.11-.79a1.34,1.34,0,0,1,.61-0.23h0l0.27,0a1.16,1.16,0,0,1,1.2.76l0.08,0.22,0,0.23a3.3,3.3,0,0,0,0,.42c0,1.2.72,1.91,1.7,2.82a12.67,12.67,0,0,1,1,1h0a0.57,0.57,0,0,0,.23.2h0l0.12-.09h0l0.08,0h0s0,0-.2-0.1h0l-0.2-.14h0a1.8,1.8,0,0,1-1-1.28h0a7.09,7.09,0,0,0-1.4-3.24h0c-0.26-.41-0.52-0.81-0.76-1.26h0a2.94,2.94,0,0,1-.43-1.38,2.09,2.09,0,0,1,.92-1.62l0.07-.05,0.07,0a5.24,5.24,0,0,1,2.66-.64,16.51,16.51,0,0,1,1.72.12h0a15.26,15.26,0,0,0,1.6.11,4.93,4.93,0,0,0,1.38-.17l0.28,1-0.33-.94a1.45,1.45,0,0,1,.47-0.08,2.26,2.26,0,0,1,1,.26h0a1.3,1.3,0,0,0,.49.17v1l-0.08-1h0.17l0,0.34v-0.34h0l0,0.34v0.09l-0.32-.27a0.43,0.43,0,0,1,.32-0.17v0.43l-0.32-.27h0l0.37,0.31H43.83a0.49,0.49,0,0,1,.12-0.31l0.37,0.31h0l-0.4.29a0.49,0.49,0,0,1-.1-0.29h0.49l-0.4.29h0l0.4-.29v0.5a0.52,0.52,0,0,1-.4-0.2l0.4-.29v0.09l0,0.41h0v-0.41l0,0.41-0.27,0-0.25-.12a3.61,3.61,0,0,0-1.59-.37,4.14,4.14,0,0,0-1.29.22l-0.16.05H40.64a11.7,11.7,0,0,1-1.85-.23h0a10.24,10.24,0,0,0-1.77-.21,4.13,4.13,0,0,0-.64,0l-0.56.09-0.36-.44a1.22,1.22,0,0,0-1-.62H34.34c-0.62.17-.73,0-0.83,0.7l0,0.34h0a11.93,11.93,0,0,1-.38,2.63l-0.28,1-1-.3a5.71,5.71,0,0,1-2.08-1.37h0a3.36,3.36,0,0,0-2.16-1.2H25.86l0.88-1.51a3.07,3.07,0,0,0,.55-1.21,3.35,3.35,0,0,0-.77-1.39h0l-0.31-.45h0A17.54,17.54,0,0,0,23,163.69h0a6.65,6.65,0,0,1-1.48-1.83h0a7.91,7.91,0,0,0-2.77-3h0a2.15,2.15,0,0,1-1.2-1.42h0v-0.2A1.88,1.88,0,0,1,18.1,156h0a0.54,0.54,0,0,0,.14-0.4,2.07,2.07,0,0,0-.11-0.58h0L18,154.62h0a5,5,0,0,0-.49-1.31,5.34,5.34,0,0,1-.79-2.89A11.08,11.08,0,0,1,17,148.1a6.22,6.22,0,0,0,.14-1.32,8.08,8.08,0,0,0-1.66-4.61,16.68,16.68,0,0,0-4.4-4.8h0a1.56,1.56,0,0,1-.75-1.3h1l-1,0v0a2.31,2.31,0,0,1,0-.26l1,0.11-1-.09v-0.17h0a4.73,4.73,0,0,1-.62-2.24c0-1.62,1-2.85,2.16-4.14a4.45,4.45,0,0,0,1-3.21c0-.59-0.05-1.19-0.1-1.78h0v-0.1h0c0-.47-0.07-0.9-0.07-1.33a5.45,5.45,0,0,1,.44-2.33,5.36,5.36,0,0,0,.51-2.28A9.65,9.65,0,0,0,12.47,114a4.62,4.62,0,0,1-.64-2.06,3,3,0,0,1,.23-1.13h0a1.44,1.44,0,0,0,.07-0.53c0-.09,0-0.19,0-0.3h0c0-.08,0-0.17,0-0.27v-1.19l1.17,0.19a3.59,3.59,0,0,0,.56,0l0.48,0h0c0.11,0,.27,0,0.5,0H15l-0.06,1v-1H59.53l0.58,0h0l0.59,0a4.63,4.63,0,0,1,.91.08L62,108.9l0.23,0.35,0,0.05,0.24,0.38-0.12.43a1.2,1.2,0,0,0,0,.32c0,0.08,0,.17,0,0.27h0c0,0.1,0,.21,0,0.34q0,9.56,0,19.12,0,12.46,0,24.91h0a3.63,3.63,0,0,1,0,.45h0a2.89,2.89,0,0,0,0,.34,0.35,0.35,0,0,0,.17.37l0.07,0.05,0.06,0.06,2.48,2.39c1.83,1.77,3.66,3.54,5.48,5.33q15.8,15.55,31.57,31.12l16.6,16.39,6.55,6.47h0l-0.36.36,0.13-.49a0.51,0.51,0,0,1,.22.13l-0.36.36,0.13-.49h0l0.15,0,0.92,0,0,1.25-1,0,1-.14a3,3,0,0,1,0,.41c0,0.19,0,.36,0,0.51h0c0,0.16,0,.31,0,0.45a1.27,1.27,0,0,0,.14.67l0,0.05,0,0.05-0.45.19,0.38-.3,0.06,0.11-0.45.19,0.38-.3h0a2.92,2.92,0,0,0,.37.39l0,0,0,0c0.09,0.11.21,0.23,0.38,0.39l-0.27.27,0.24-.3,0,0-0.27.27,0.24-.3,0.07,0.06,0.06,0.07a5.9,5.9,0,0,1,.39.49h0l0.44,0.63-0.82.57,0.81-.58a1.79,1.79,0,0,1,.28,1v0a0.76,0.76,0,0,0,.12.49l-0.74.68,0.71-.71,0,0,0.13,0.13,0.08,0.17a2.25,2.25,0,0,1,.11.32h0a0.52,0.52,0,0,0,.08.22L129,225.6l0.07,0.1a1.54,1.54,0,0,1,.22.88v0.2h0v0.16a0.46,0.46,0,0,0,.09.38h0l0,0,0,0,0,0a0.72,0.72,0,0,0,.33.24h0l-0.17.5V227.6l0.17,0-0.17.5V227.6h0.31l0.25,0.17a3.4,3.4,0,0,1,.39.31l0.07,0.06,0.06,0.07-0.27.21,0.25-.23,0,0-0.27.21,0.25-.23-0.73.69,0.72-.7,0.08,0.08h0a4,4,0,0,0,.33.31l0,0,0,0,0.17,0.06h0a1.22,1.22,0,0,1,.52.25l0.1,0.08,0.07,0.11-0.41.29,0.35-.36,0.06,0.07-0.41.29,0.35-.36,0.07,0.07,0.06,0.08a1.47,1.47,0,0,1,.28.85,1.71,1.71,0,0,1-.18.74L132,231l-0.2.2-0.7-.71,0.71,0.7c-0.12.12-.22,0.22-0.29,0.31l-0.05.06-0.06.05a2.89,2.89,0,0,0-.33.34l-0.05.07-0.07.06a3.46,3.46,0,0,0-.36.36l0,0,0,0-0.3.29h0l-0.07.08-0.71-.7,0.73,0.69-0.25-.23,0.27,0.2,0,0-0.25-.23,0.27,0.2-0.05.07-0.06.06-0.22.22h0l0,0-0.06.06-0.08.05-0.26-.38,0.3,0.35,0,0-0.26-.38,0.3,0.35h0l-0.33.26h0a2.57,2.57,0,0,0-.59.55h0l-0.42-.29,0.51,0a0.51,0.51,0,0,1-.09.27l-0.42-.29,0.51,0h0a2,2,0,0,1-.79,1.62l-0.12.09-0.14,0-0.17-.51,0.35,0.4a0.53,0.53,0,0,1-.18.1l-0.17-.51,0.35,0.4h0a2.57,2.57,0,0,0-.34.34l0,0,0,0-0.06.13a0.75,0.75,0,0,0,.06.25h0l-0.48.18,0.35-.38a0.51,0.51,0,0,1,.14.2l-0.48.18,0.35-.38h0a1.75,1.75,0,0,1,.48,1.32h0a1,1,0,0,0,.11.57l0.05,0.08,0,0.08,0.07,0.15h0a1.49,1.49,0,0,1,.23.74h0v0.18l-0.06.17a1.19,1.19,0,0,1-.31.45l0,0,0,0a2.85,2.85,0,0,0-.44.45v0l-0.29.34,0,0.06-0.05,0a0.5,0.5,0,0,0-.15.45c0,0.09,0,.18,0,0.3h0c0,0.12,0,.24,0,0.37a1.55,1.55,0,0,1-.34,1h0l-0.53-.45,0.56,0.4,0,0-0.53-.45,0.56,0.4,0,0.06,0,0a0.58,0.58,0,0,0-.08.21h0a2.56,2.56,0,0,1-.09.27l-0.09.21-0.17.15-0.36-.41,0.38,0.38,0,0-0.36-.41,0.38,0.38h0l-0.09.09h0l-0.28.3-0.08.1-0.1.07a0.78,0.78,0,0,0-.42.7,2,2,0,0,0,.19.75l0,0.06,0,0.06-0.38.11,0.37-.16,0,0-0.38.11,0.37-.16-0.92.4,0.91-.42a3.19,3.19,0,0,1,.3,1.33,3.22,3.22,0,0,1-.25,1.23l0,0.1-0.06.09a0.62,0.62,0,0,0-.13.35,0.57,0.57,0,0,0,.15.35h0l-0.35.26,0.32-.3,0,0-0.35.26,0.32-.3,0,0,0,0a0.68,0.68,0,0,0,.33.24l-0.3,1,0.29-1-0.12.39,0-.41,0.07,0-0.12.39,0-.41,0.23,0,0.19,0.12a0.75,0.75,0,0,0,.31,0h0a1.73,1.73,0,0,1,.68.14l0.52,0.25,0,0.57-0.47,0,0.45-.14,0,0.1-0.47,0,0.45-.14h0a5.72,5.72,0,0,1,.27,1.66,3.94,3.94,0,0,1-.25,1.4l-0.06.16-0.11.13a0.69,0.69,0,0,0-.08.22h0a2.49,2.49,0,0,1-.1.29l-0.14.32-0.31.17a4.21,4.21,0,0,1-1,.36h0Z"/></g></g></g></g></svg>