<?xml version="1.0" standalone="no"?>
<!DOCTYPE svg PUBLIC "-//W3C//DTD SVG 1.1//EN" "http://www.w3.org/Graphics/SVG/1.1/DTD/svg11.dtd" >
<svg>
<metadata>
Created by FontForge 20120731 at Fri Oct 24 16:15:21 2014
 By World Wide Web Server
Copyright (c) 1988, 1991 Adobe Systems Incorporated.  All Rights Reserved.Garamond Three is a trademark of Linotype-Hell AG and/or its subsidiaries.
</metadata>
<defs>
<font id="GaramondThree-Italic" horiz-adv-x="500" >
  <font-face 
    font-family="GaramondThree"
    font-weight="400"
    font-style="italic"
    font-stretch="normal"
    units-per-em="1000"
    panose-1="2 2 5 0 0 0 0 0 0 0"
    ascent="800"
    descent="-200"
    x-height="394"
    cap-height="614"
    bbox="-184 -254 1029 833"
    underline-thickness="50"
    underline-position="-50"
    slope="-13"
    unicode-range="U+0020-2122"
  />
<missing-glyph horiz-adv-x="502" 
d="M-1 0h500v500h-500v-500zM9 10v480h480v-480h-480z" />
    <glyph glyph-name=".notdef" horiz-adv-x="502" 
d="M-1 0h500v500h-500v-500zM9 10v480h480v-480h-480z" />
    <glyph glyph-name="space" unicode=" " horiz-adv-x="250" 
 />
    <glyph glyph-name="exclam" unicode="!" horiz-adv-x="389" 
d="M69 21q0 -33 35 -33q19 0 37 22t18 59q0 15 -8.5 23t-20.5 8q-23 0 -42 -21.5t-19 -57.5zM302 600q-21 0 -30.5 -11t-15.5 -28l-1 -2q-8 -22 -12 -39.5t-11 -51.5q-5 -29 -10.5 -54.5t-15.5 -59.5q-16 -55 -27 -87.5t-18 -52.5q-6 -15 -6 -19q0 -11 8 -11q7 0 12.5 10.5
t11.5 27.5q1 5 3 9q18 49 39.5 97t52.5 111q28 61 40.5 90t12.5 42q0 12 -8.5 20.5t-24.5 8.5z" />
    <glyph glyph-name="quotedbl" unicode="&#x22;" horiz-adv-x="333" 
d="M281 545q0 14 -0.5 26.5t-3.5 25t-10 21t-18 8.5t-18 -8.5t-10 -21t-3.5 -25t-0.5 -26.5l17 -204v-3q2 -12 4.5 -20t10.5 -8t11 8t4 20v3zM145 545q0 14 -0.5 26.5t-3.5 25t-10 21t-18 8.5t-18 -8.5t-10 -21t-3.5 -25t-0.5 -26.5l17 -204v-3q2 -12 4.5 -20t10.5 -8t11 8
t4 20v3z" />
    <glyph glyph-name="numbersign" unicode="#" 
d="M426 227h-90l18 130h93l2 38h-90l27 189h-42l-27 -189h-117l26 189h-41l-27 -189h-100l-3 -38h98l-18 -130h-101l-2 -38h98l-27 -189h42l26 189h118l-27 -189h42l27 189h92zM312 357l-18 -130h-118l19 130h117z" />
    <glyph glyph-name="dollar" unicode="$" 
d="M286 558l14 -1q14 0 16.5 -0.5t24.5 -7.5l-54 -224l-47 29zM297 243l6 -5q18 -16 27.5 -33.5t9.5 -50.5q0 -48 -23.5 -78.5t-67.5 -43.5zM225 282l49 -27l-54 -226q-9 -3 -22 -3q-17 0 -31 8zM215 369q-25 18 -36 37.5t-11 50.5q0 39 25.5 68.5t64.5 32.5zM400 688h-30
l-24 -112q-14 2 -17.5 2h-10.5q-9 1 -27 2l23 108h-28l-23 -109q-70 -12 -103.5 -53.5t-33.5 -97.5q0 -46 17.5 -73.5t55.5 -57.5l-60 -254q-38 14 -53 55q-3 9 -5 45q-1 25 -2.5 37.5t-7.5 12.5q-12 0 -20.5 -25.5t-8.5 -85.5q0 -33 16 -45.5t74 -24.5l-30 -132h31l28 128
q16 -2 24 -2q3 0 15 1h14l-29 -127h29l29 128q74 17 117.5 60t43.5 106q0 47 -23 78t-67 59l53 226q17 -14 23.5 -30.5t8.5 -45.5q2 -25 4.5 -37.5t9.5 -12.5t11 19l1 3q2 10 6 25q10 44 10 67q0 15 -21 29.5t-47 18.5z" />
    <glyph glyph-name="percent" unicode="%" horiz-adv-x="833" 
d="M701 625h-33q-11 -13 -29.5 -30.5t-35.5 -29.5q-2 -1 -3 -2q-33 -23 -66.5 -37t-82.5 -14q-21 0 -33.5 3t-31.5 10l-9 3q-4 23 -18.5 39t-34.5 24q-11 5 -40 5q-33 0 -71 -19t-71.5 -52.5t-54 -77t-20.5 -88.5q0 -31 9.5 -54t25 -36.5t34.5 -20t38 -6.5q37 0 72 20.5
t63.5 54.5t46 72.5t20.5 73.5q1 10 1.5 22t0.5 20l9 -3q22 -7 37 -10.5t33 -3.5q22 0 53.5 8.5t65.5 27.5l2 -2l-454 -574h44zM113 333q0 24 13.5 57.5t35 68.5t45.5 62.5t45 39.5q23 13 47 13q3 -10 14 -21t29 -26q10 -8 13 -11q0 -1 1 -7v-8q0 -46 -16.5 -89t-43.5 -76.5
t-59 -52.5t-61 -19q-28 0 -45.5 16t-17.5 53zM647 333q-37 0 -75 -22t-69.5 -57t-50 -74.5t-18.5 -72.5q0 -56 28 -90.5t84 -34.5q43 0 81 26t65 66t41.5 83t14.5 74q0 42 -24 72t-77 30zM661 309q33 0 49 -22t16 -52q0 -28 -13 -67.5t-37.5 -77t-57.5 -62t-71 -24.5
q-67 0 -67 67q0 25 17.5 65.5t45 80.5t59 66t59.5 26z" />
    <glyph glyph-name="ampersand" unicode="&#x26;" horiz-adv-x="667" 
d="M379 626q-78 0 -124.5 -41.5t-46.5 -95.5q0 -21 7.5 -44t26.5 -40q-97 -38 -149.5 -98t-52.5 -126q0 -89 63 -144t167 -55q49 0 99 17t90.5 48t64.5 73t24 91q0 20 -3 44q-2 11 -2 16q0 6 5.5 8t22.5 4q55 5 71.5 16t16.5 43q0 13 -3 17t-9 4q-4 0 -45 -16
q-40 -15 -81.5 -30t-92.5 -32q-45 -14 -64 -26.5t-19 -27.5q0 -11 11 -11q3 0 24 11q33 16 61.5 27t56.5 11q16 0 16 -11q0 -19 -11 -53t-37.5 -69.5t-73 -60.5t-113.5 -25q-43 0 -73.5 13t-48 34t-25.5 45t-8 48q0 43 17 77.5t42 57.5t49.5 35t38.5 12q15 0 44 -5
q28 -5 43 -5q28 0 40 8.5t12 27.5q0 18 -12 25t-44 7q-27 0 -60 -8q-10 -2 -13 -2q-7 0 -15 16t-8 38q0 38 27.5 68t77.5 30q23 0 37 -7t28 -19q16 -14 27 -14q20 0 33.5 18.5t13.5 31.5q0 21 -38 32.5t-85 11.5z" />
    <glyph glyph-name="quotesingle" unicode="'" horiz-adv-x="222" 
d="M157 545q0 14 -0.5 26.5t-3.5 25t-10 21t-18 8.5t-18 -8.5t-10 -21t-3.5 -25t-0.5 -26.5l17 -204v-3q2 -12 4.5 -20t10.5 -8t11 8t4 20v3z" />
    <glyph glyph-name="parenleft" unicode="(" horiz-adv-x="333" 
d="M164 -132q-2 5 -8 18q-23 45 -36.5 93.5t-13.5 125.5q0 167 53.5 291.5t151.5 229.5h-23q-34 -26 -71.5 -63.5t-75.5 -94t-63.5 -133.5t-25.5 -166q0 -43 8 -85.5t21 -82.5t28 -73.5t31 -59.5h24z" />
    <glyph glyph-name="parenright" unicode=")" horiz-adv-x="333" 
d="M25 -132q34 26 71.5 63.5t75.5 94.5t63.5 133.5t25.5 165.5q0 43 -8 86t-21 82.5t-28 73t-31 59.5h-24q2 -5 9 -18q22 -45 35.5 -93.5t13.5 -125.5q0 -167 -53.5 -291.5t-151.5 -229.5h23z" />
    <glyph glyph-name="asterisk" unicode="*" 
d="M275 626q-17 0 -26.5 -11.5t-9.5 -27.5q0 -15 9 -43q8 -26 12.5 -48.5t4.5 -58.5q-30 17 -49.5 34t-39.5 40q-15 17 -24 24t-21 7q-21 0 -29.5 -11.5t-8.5 -22.5q0 -23 13 -31.5t48 -16.5q29 -7 53 -15t51 -23q-29 -18 -53.5 -26.5t-55.5 -15.5q-31 -6 -43.5 -14
t-12.5 -32q0 -12 9.5 -22.5t24.5 -10.5q17 0 27.5 8t25.5 27q18 22 36 38t48 32q0 -46 -4.5 -69t-12.5 -42q-5 -10 -7 -18.5t-2 -20.5q0 -17 10 -29t27 -12t27 12t10 29q0 12 -2 20t-7 19q-8 19 -12.5 42t-4.5 69q30 -15 48 -31.5t36 -38.5q15 -19 25.5 -27t27.5 -8
q15 0 24.5 10.5t9.5 22.5q0 24 -12 32t-44 14q-29 6 -55 15t-54 27q27 15 51 23t53 15q34 8 47.5 16.5t13.5 31.5q0 11 -8.5 22.5t-29.5 11.5q-12 0 -21 -7t-24 -24q-20 -23 -39 -40t-50 -34q0 36 4.5 59t12.5 48q9 28 9 43q0 16 -9.5 27.5t-26.5 11.5z" />
    <glyph glyph-name="plus" unicode="+" horiz-adv-x="600" 
d="M260 208h-170v-38h170v-170h38v170h170v38h-170v170h-38v-170z" />
    <glyph glyph-name="comma" unicode="," horiz-adv-x="250" 
d="M44 24q0 -18 9 -25t22 -7q2 0 8 1q5 1 7 1q3 0 3 -5q0 -14 -22 -51.5t-68 -71.5q-1 -1 -3 -2q-9 -6 -9 -10q0 -7 7 -7q11 0 33 18t45 47.5t38.5 65.5t15.5 71q0 22 -7 36.5t-24 14.5q-25 0 -40 -25t-15 -51z" />
    <glyph glyph-name="hyphen" unicode="-" horiz-adv-x="333" 
d="M49 217l-14 -56h245l14 56h-245z" />
    <glyph glyph-name="period" unicode="." horiz-adv-x="250" 
d="M24 21q0 -33 35 -33q19 0 37 22t18 59q0 15 -8.5 23t-20.5 8q-23 0 -42 -21.5t-19 -57.5z" />
    <glyph glyph-name="slash" unicode="/" horiz-adv-x="278" 
d="M281 626h-38l-246 -644h38z" />
    <glyph glyph-name="zero" unicode="0" 
d="M30 213q0 -104 47 -167.5t124 -63.5q51 0 98 34t82.5 90.5t56 124.5t20.5 135q0 65 -14.5 111t-38.5 73.5t-52.5 39.5t-57.5 12q-47 0 -94.5 -30t-86.5 -84t-61.5 -125t-22.5 -150zM94 170q0 52 13.5 122.5t39 137t62.5 109.5t82 43q50 0 76.5 -37.5t26.5 -129.5
q0 -42 -13 -111.5t-38 -138.5t-63 -116t-87 -47q-29 0 -48.5 16.5t-30.5 42.5t-15.5 54.5t-4.5 54.5z" />
    <glyph glyph-name="one" unicode="1" 
d="M172 64q-6 -25 -18 -32t-39 -12h-3q-3 0 -5 -1q-21 -2 -28.5 -4.5t-7.5 -7.5q0 -9 12 -9q23 0 69 1t69 1q17 0 53 -3q18 -1 23 -1q28 0 28 8q0 5 -5.5 7t-23.5 6l-6 1q-2 1 -12 2q-22 2 -34.5 8t-12.5 23q0 19 7 43l125 484q2 8 2 12q0 12 -11 12q-6 0 -31 -9t-65 -23
q-57 -22 -66 -24q-17 -5 -23 -8t-6 -7q0 -12 8 -12q6 0 18 3t30 9q22 6 33.5 9t18.5 3q9 0 12 -4.5t3 -11.5q0 -9 -2 -15z" />
    <glyph glyph-name="two" unicode="2" 
d="M279 602q-39 0 -70 -14t-51.5 -33t-31 -37t-10.5 -24q0 -12 9 -12q6 0 20 18q20 28 44.5 45t68.5 17q50 0 86.5 -31.5t36.5 -94.5q0 -37 -26 -80.5t-67.5 -87.5t-84 -80.5t-100.5 -83.5q-40 -33 -58 -48.5t-28 -26.5q-2 -3 -8 -7q-10 -9 -10 -15q0 -11 11 -11q10 0 49 1
q20 1 62.5 2t69.5 1q22 0 76 -1t75 -1q13 0 16 10q1 3 5 13.5t8.5 22t7.5 22.5t3 14q0 11 -10 11q-6 0 -12 -9l-1 -1q-14 -20 -23 -25t-36 -6q-50 -2 -75 -2q-44 0 -75 2q-26 1 -43 3.5t-17 6.5q0 3 9 12t23 20l17 14q17 14 36 29.5t48 39.5t48 38.5t30 22.5q28 19 54 43
t47.5 52.5t34 58t12.5 57.5q0 26 -9 53t-28.5 50t-53 37.5t-79.5 14.5z" />
    <glyph glyph-name="three" unicode="3" 
d="M257 568q46 0 67.5 -24t21.5 -59q0 -32 -14.5 -57.5t-38 -43.5t-50 -29.5t-55.5 -20.5l-29 -9q-25 -8 -39.5 -16t-14.5 -15t11 -7q3 0 20 6q21 6 35 9.5t25 3.5q50 0 88 -33.5t38 -98.5q0 -51 -22 -91.5t-55.5 -68t-69 -42t-60.5 -14.5q-16 0 -36 13q-11 7 -19 10.5
t-19 3.5q-14 0 -23.5 -6.5t-9.5 -19.5q0 -21 15.5 -28t37.5 -7q55 0 112.5 18t105 52t76.5 82t29 105q0 40 -12.5 68t-30.5 45.5t-34 26t-33 14.5q-6 2 -7 3q0 1 -1 2q-2 2 -2 3q0 3 22 14t38.5 21.5t33.5 26.5t28.5 38t11.5 49q0 33 -13 55t-32.5 34t-40.5 16.5t-39 4.5
q-35 0 -60 -12t-39 -27.5t-20.5 -29.5t-6.5 -16q0 -10 8 -10q4 0 16 14q17 21 36 34t50 13z" />
    <glyph glyph-name="four" unicode="4" 
d="M19 178q-11 -13 -11 -24q0 -12 8 -17t21 -5h17q61 -2 195 -2q22 0 22 -12q0 -3 -4 -17q-2 -8 -3 -14l-33 -136q0 -1 -1 -3q-2 -7 -2 -13q0 -4 5.5 -6t23.5 -2q27 0 29 10l48 180q2 9 15 9q18 1 53 1q20 0 27 6t7 21q0 10 -2.5 13t-8.5 5q-3 1 -18.5 2t-43.5 1
q-12 1 -19 1l58 247q0 2 2 7q1 6 1 9q0 6 -5 8.5t-20 2.5q-27 0 -32 -15l-64 -259h-198q-22 0 -28 0.5t-6 4.5q0 3 5 9q2 1 3 3l386 453q5 5 5 11t-8.5 12.5t-15.5 6.5q-6 0 -13 -9z" />
    <glyph glyph-name="five" unicode="5" 
d="M377 548q18 1 24 7.5t6 25.5q0 13 -4.5 17t-17.5 4q-10 0 -35.5 -2t-60.5 -5q-54 -5 -73 -6q-20 -1 -28.5 -7t-13.5 -19q-1 -3 -7 -18q-5 -12 -11.5 -29t-12.5 -34.5t-9.5 -31t-3.5 -20.5q0 -6 8 -10t22 -8l4 -1l11 -3q40 -12 64.5 -22t45.5 -27t33 -45t12 -69
q0 -60 -27.5 -105t-68.5 -74t-78.5 -44.5t-80.5 -29.5l-9 -3q-6 -2 -19 -5q-18 -5 -28.5 -9t-10.5 -11q0 -11 16 -11q34 0 95.5 19.5t124.5 58t105.5 95t42.5 127.5q0 49 -15.5 84t-41 57t-50 33.5t-59.5 23.5q-26 9 -35 14q-8 5 -11.5 12t-3.5 23q0 36 64 40z" />
    <glyph glyph-name="six" unicode="6" 
d="M308 392q-33 0 -61.5 -12.5t-28.5 -23.5t10 -11q4 0 16 5q22 8 34 8q52 0 78 -39.5t26 -99.5q0 -30 -8.5 -67t-27 -71t-48 -56.5t-69.5 -22.5q-26 0 -47.5 10t-38.5 32.5t-26.5 59.5t-9.5 90q0 143 78 248.5t213 172.5q4 2 17 7q23 9 36 15.5t13 12.5q0 10 -13 10
q-34 0 -102 -29t-139.5 -85t-121 -141.5t-49.5 -194.5q0 -107 54.5 -167.5t136.5 -60.5q47 0 87.5 18.5t70.5 51.5t46 75t16 88q0 78 -39.5 127.5t-102.5 49.5z" />
    <glyph glyph-name="seven" unicode="7" 
d="M402 480q9 18 26 47q20 35 20 44q0 6 -5.5 9.5t-18.5 3.5q-38 0 -95 -2q-40 -1 -65 -1.5t-65 -0.5q-15 0 -53 2q-28 2 -36 2q-26 0 -26 -27q0 -19 7 -25t24 -6q12 0 73 1.5t76 1.5q31 1 59 1.5t35 0.5q18 0 18 -14q0 -4 -3 -11.5t-8 -17.5l-251 -511l-1 -2q-5 -10 -5 -15
q0 -6 12 -6q9 0 12.5 1.5t7.5 8.5z" />
    <glyph glyph-name="eight" unicode="8" 
d="M162 446q0 67 36 100.5t95 33.5q55 0 86 -27t31 -75q0 -32 -12 -59.5t-31.5 -46.5t-41.5 -29.5t-41 -10.5q-14 0 -35 11t-41 28t-33 37t-13 38zM100 436q0 -28 9 -50.5t22 -38t25 -24t26 -17.5q8 -5 8 -6t-14 -7q-24 -9 -47 -20.5t-47.5 -30.5t-41 -47.5t-16.5 -64.5
q0 -40 17.5 -69t45.5 -46.5t59.5 -25t61.5 -7.5q98 0 157 47.5t59 125.5q0 35 -10 61.5t-25 44t-29 27t-30 18.5q-11 5 -11 7q0 3 20 11q22 9 41 18.5t38.5 26.5t32.5 42t13 57q0 64 -44.5 99t-116.5 35q-41 0 -78 -12.5t-65 -35t-44 -53t-16 -65.5zM362 132q0 -20 -8 -42
t-25 -42t-43 -32t-60 -12q-21 0 -44 6.5t-44 21.5t-34.5 43t-13.5 69q0 50 35.5 92t92.5 42q16 0 40 -10t48 -29t40 -46.5t16 -60.5z" />
    <glyph glyph-name="nine" unicode="9" 
d="M272 602q-46 0 -85 -20.5t-67.5 -55.5t-44 -78t-15.5 -88q0 -68 38.5 -118t103.5 -50q10 0 26.5 3t32.5 8t26.5 11.5t10.5 13.5q0 9 -9 9q-2 0 -10 -3q-29 -10 -54 -10q-17 0 -34.5 6.5t-33 21.5t-25.5 41t-10 64q0 26 8 64t24.5 75t43.5 61.5t64 24.5q56 0 89 -45
t33 -145q0 -132 -73 -244.5t-207 -175.5q-9 -5 -30 -13t-32.5 -14t-11.5 -11q0 -10 13 -10q7 0 30 6t44 14q83 31 147 80.5t106.5 110t63 124.5t20.5 124q0 53 -15.5 94.5t-42 69t-59 41.5t-65.5 14z" />
    <glyph glyph-name="colon" unicode=":" horiz-adv-x="250" 
d="M39 21q0 -33 35 -33q19 0 37 22t18 59q0 15 -8.5 23t-20.5 8q-23 0 -42 -21.5t-19 -57.5zM104 317q0 -33 35 -33q19 0 37 22t18 59q0 15 -8.5 23t-20.5 8q-23 0 -42 -21.5t-19 -57.5z" />
    <glyph glyph-name="semicolon" unicode=";" horiz-adv-x="250" 
d="M44 24q0 -18 9 -25t22 -7q2 0 8 1q5 1 7 1q3 0 3 -5q0 -14 -22 -51.5t-68 -71.5q-1 -1 -3 -2q-9 -6 -9 -10q0 -7 7 -7q11 0 33 18t45 47.5t38.5 65.5t15.5 71q0 22 -7 36.5t-24 14.5q-25 0 -40 -25t-15 -51zM104 317q0 -33 35 -33q19 0 37 22t18 59q0 15 -8.5 23t-20.5 8
q-23 0 -42 -21.5t-19 -57.5z" />
    <glyph glyph-name="less" unicode="&#x3c;" horiz-adv-x="600" 
d="M468 34l-332 155l332 153v41l-378 -175v-38l378 -177v41z" />
    <glyph glyph-name="equal" unicode="=" horiz-adv-x="600" 
d="M468 281h-378v-38h378v38zM468 135h-378v-38h378v38z" />
    <glyph glyph-name="greater" unicode="&#x3e;" horiz-adv-x="600" 
d="M132 -7l378 177v38l-378 175v-41l332 -153l-332 -155v-41z" />
    <glyph glyph-name="question" unicode="?" 
d="M306 600q-40 0 -60 -15.5t-20 -30.5q0 -22 23 -22q11 0 19.5 5t20.5 15q14 12 25 18t25 6q31 0 51 -26t20 -69q0 -69 -45.5 -118t-139.5 -72q-17 -5 -22 -8q-7 -5 -16.5 -20.5t-18 -36.5t-14 -38.5t-5.5 -25.5q0 -10 6 -10q4 0 9 8t15 28q8 16 14.5 27t12.5 15t29 10
q48 12 90 33t80 68q17 20 27 48.5t10 66.5t-11.5 65.5t-31 45t-43.5 25.5t-50 8zM76 21q0 -33 35 -33q19 0 37 22t18 59q0 15 -8.5 23t-20.5 8q-23 0 -42 -21.5t-19 -57.5z" />
    <glyph glyph-name="at" unicode="@" horiz-adv-x="800" 
d="M508 372q-9 -94 -45 -151t-68 -57q-29 0 -47 19t-18 60q0 43 14 78.5t35.5 60t44.5 37.5t42 13q42 0 42 -60zM521 419l-1 2q-12 23 -25 35t-41 12q-44 0 -79 -24t-58 -60.5t-35 -74.5t-12 -64q0 -55 27.5 -86t61.5 -31q36 0 64 22t44 45h2q1 -8 5.5 -19.5t14.5 -22
t25.5 -18t37.5 -7.5q40 0 73 20.5t55.5 54t34 72.5t11.5 76q0 58 -23.5 109t-65 88t-98 57.5t-120.5 20.5q-69 0 -130.5 -24t-109 -69t-74.5 -107t-27 -136q0 -49 21.5 -103t65 -101t110.5 -75.5t154 -28.5q49 0 93.5 13.5t102.5 38.5l-12 19q-50 -22 -89.5 -32.5
t-95.5 -10.5q-64 0 -117 22.5t-89.5 61.5t-56 87.5t-19.5 98.5q0 76 20 137.5t57 104t87 64.5t109 22q65 0 117.5 -24t88.5 -62.5t54.5 -84t18.5 -87.5q0 -32 -8.5 -66t-25 -63t-41.5 -47t-56 -18q-22 0 -30.5 11.5t-8.5 27.5q0 9 3 18l62 243h-62z" />
    <glyph glyph-name="A" unicode="A" horiz-adv-x="667" 
d="M91 124q-2 -2 -8 -14q-18 -34 -33 -53q-10 -13 -21 -20.5t-27 -15.5q-21 -11 -21 -19t12 -8q3 0 17 1q43 5 71 5q19 0 41 -1.5t38 -3.5q8 -1 10 -1q8 0 11 1.5t3 7.5q0 9 -9.5 13.5t-28.5 10.5q-20 6 -30 11.5t-10 14.5q0 5 3 11t8 14v1l101 186q5 10 13 13t31 3
q21 0 61 -1t61 -1q15 0 20 -2.5t6 -7.5l25 -160q1 -7 3 -17q3 -18 3 -26q0 -20 -12.5 -28.5t-33.5 -11.5q-15 -2 -25 -6t-10 -13q0 -6 3.5 -9.5t13.5 -3.5q6 0 22 2q36 4 73 4q32 0 78 -4q22 -2 31 -2q11 0 14 1.5t3 6.5q0 6 -10.5 10.5t-30.5 9.5q-13 4 -14 4q-16 5 -19 20
l-92 505q-2 9 -4.5 30t-2.5 27q0 18 -18 18q-11 0 -18.5 -7.5t-18.5 -26.5l-8 -14zM402 315q-13 0 -48 -1q-24 -1 -34 -1q-6 0 -31 1q-36 1 -46 1l107 201q1 2 2 5q4 9 9 9q3 0 5 -5t3 -15l1 -5z" />
    <glyph glyph-name="B" unicode="B" horiz-adv-x="611" 
d="M548 516q0 98 -142 98q-22 0 -66 -3t-66 -3q-25 0 -78 3q-43 3 -58 3q-14 0 -19.5 -2.5t-5.5 -6.5q0 -9 8.5 -13t20.5 -4q25 0 39 -4t14 -17q0 -8 -22 -83q-28 -99 -53 -194.5t-49 -210.5q-4 -21 -10.5 -32t-16.5 -21q-4 -3 -18 -7q-10 -3 -15.5 -5.5t-5.5 -7.5
q0 -8 17 -8q9 0 32 1q15 1 21 1q29 0 80 -1q68 -1 95 -1q56 0 104.5 9t87.5 31t62.5 61.5t23.5 97.5t-31 97.5t-80 59.5q59 30 95 68t36 94zM205 291q5 20 17.5 25t69.5 5q31 0 54.5 -3t45 -14.5t35 -36.5t13.5 -66q0 -50 -15.5 -83.5t-43.5 -52.5t-63.5 -27t-80.5 -8
q-52 0 -69.5 5.5t-17.5 16.5q0 5 1.5 12t3.5 14l1 2zM266 529q9 35 17 44t37 9q23 0 47 -2.5t49 -11.5t41.5 -28t16.5 -49q0 -70 -62 -109t-171 -39q-8 0 -15 2t-7 6t7 27q3 12 5 19z" />
    <glyph glyph-name="C" unicode="C" horiz-adv-x="611" 
d="M26 224q0 -36 14 -77.5t46 -79t85.5 -61.5t128.5 -24q16 0 45 3t58.5 8.5t51 14.5t24.5 21q2 6 4 19t6 35t6 36.5t2 20.5q0 18 -10 18q-7 0 -11.5 -8t-10.5 -24q-8 -20 -13 -27q-1 -1 -4 -6q-9 -14 -18.5 -25.5t-26.5 -24t-44.5 -21t-63.5 -8.5q-33 0 -63.5 13
t-55.5 39.5t-39.5 68t-14.5 95.5q0 88 36.5 157.5t92.5 115t116 68.5t106 23q39 0 47.5 -14.5t8.5 -58.5q0 -17 2.5 -22.5t10.5 -5.5q5 0 7.5 4.5t5.5 15.5v2q2 5 3.5 16.5t4 31t3.5 32t1 18.5q0 7 -5 10t-25 3q-87 0 -177 -27t-166 -79.5t-122 -128t-46 -167.5z" />
    <glyph glyph-name="D" unicode="D" horiz-adv-x="722" 
d="M689 370q0 48 -17 91.5t-52.5 78t-92 54.5t-133.5 20q-31 0 -92 -3q-62 -3 -93 -3q-27 0 -42.5 1t-29.5 3q-12 2 -17 2q-14 0 -14 -16q0 -8 9 -11t28 -5h1q20 -2 30 -5t10 -12q0 -10 -4 -22q-33 -100 -59 -218t-45 -261q-2 -16 -10 -24.5t-27 -13.5q-4 -1 -16 -3
q-13 -1 -19 -4t-6 -11q0 -9 6 -11.5t25 -2.5q5 0 21 2q33 4 61 4q20 0 59 -3t58 -3q91 0 174.5 26.5t148 76.5t101.5 120t37 153zM597 359q0 -45 -20 -101.5t-64 -109.5t-117.5 -87.5t-176.5 -34.5q-32 0 -45.5 5t-13.5 19q0 11 2 33q8 81 28.5 177.5t56.5 240.5l5 22
q10 40 19.5 49.5t41.5 9.5q138 0 211 -53t73 -170z" />
    <glyph glyph-name="E" unicode="E" horiz-adv-x="556" 
d="M270 312q72 0 92.5 -7t20.5 -37q0 -12 -1 -31v-15q0 -12 11 -12q10 0 11 7q0 1 1 5q2 14 2 20q0 19 8 51.5t23 79.5q8 27 11 38t3 15q0 8 -8 8q-5 0 -16 -22q-11 -23 -19 -33q-19 -24 -46.5 -33.5t-84.5 -9.5q-19 0 -61 2h-5l53 224q2 8 12 11t40 3q38 0 70 -2.5
t55 -10.5q10 -3 15 -13t7 -25q1 -4 1 -10q3 -27 5.5 -34t9.5 -7q12 0 14 11q3 18 13 61q4 17 7 31.5t3 18.5q0 8 -2.5 13t-11.5 5q-14 0 -52 -2q-42 -2 -76.5 -3t-81.5 -1q-69 0 -150 5q-17 1 -22 1q-10 0 -13.5 -4.5t-3.5 -10.5q0 -9 9 -12t31 -5q20 -2 29 -6.5t9 -18.5
q0 -9 -6 -33l-113 -466q-4 -17 -10.5 -23.5t-14.5 -8.5q-12 -2 -21 -6.5t-9 -12.5q0 -9 17 -9q33 0 97 1q63 1 95 1q34 0 102 -1t101 -1q16 0 22.5 3.5t7.5 9.5q1 5 6 29q8 30 12.5 52.5t4.5 38.5q0 12 -8 12q-5 0 -10 -14q-8 -21 -16 -34q-13 -22 -29 -31.5t-41 -17.5
l-10 -3q-39 -13 -134 -13q-48 0 -63.5 6t-15.5 21q0 6 2 16l58 239h64z" />
    <glyph glyph-name="F" unicode="F" horiz-adv-x="556" 
d="M303 312q38 0 59.5 -2.5t31 -8.5t12 -17t2.5 -33v-15q-1 -8 -1 -16q0 -4 4 -7.5t8 -3.5q9 0 12 9.5t6 34.5q2 13 3 20q2 12 7 32t11 43q8 29 12 44.5t4 22.5q0 14 -12 14q-5 0 -8 -5t-7 -18q-6 -17 -10 -25q-12 -24 -45 -34.5t-105 -10.5q-33 0 -55 1h-7l52 228
q2 9 7.5 11t21.5 2q60 0 100.5 -2t55.5 -9q14 -7 22.5 -26t9.5 -39q1 -19 2.5 -24.5t6.5 -5.5q7 0 10 3.5t3 14.5q0 2 6 23q8 30 13 50.5t5 35.5q0 11 -15 11q-28 0 -76 -1q-69 -1 -107 -1q-11 0 -51 1q-52 1 -86 1q-16 0 -45 2q-18 2 -26 2q-19 0 -19 -13q0 -5 13 -9t35 -8
q10 -1 13 -2q22 -5 22 -21q0 -5 -3.5 -19.5t-8.5 -30.5q-24 -75 -47.5 -170t-52.5 -236l-7 -37q-4 -19 -12 -30.5t-18 -15.5q-2 -1 -10 -2q-14 -3 -24 -7t-10 -10q0 -5 3 -7t13 -2q4 0 25 2q43 4 71 4q21 0 66 -4q29 -2 38 -2q20 0 20 12q0 9 -55 20q-6 1 -9 2q-23 5 -23 23
q0 9 6 33l3 10l54 218h86z" />
    <glyph glyph-name="G" unicode="G" horiz-adv-x="722" 
d="M439 39q-2 -8 -13.5 -13t-27 -7.5t-29.5 -3.5t-23 -1q-104 0 -163 60t-59 174q0 69 34.5 132t95 111.5t137.5 75.5t159 27q47 0 63.5 -9.5t16.5 -51.5q0 -11 3 -14.5t9 -3.5t14 11t14.5 27.5t11 31.5t4.5 21q0 9 -30.5 14.5t-92.5 5.5q-132 0 -233.5 -34.5t-168.5 -91.5
t-100 -125t-33 -135q0 -47 14.5 -92t47.5 -82.5t90 -60.5t139 -23q16 0 44.5 2t57.5 6t53.5 10t34.5 12q5 3 9 9t7 17l42 158q12 42 52 42q18 0 29.5 4.5t11.5 11.5q0 10 -25 10q-19 0 -57 -2q-39 -2 -59 -2q-21 0 -58 2q-33 2 -46 2q-32 0 -32 -17q0 -9 10 -11.5t37 -3.5h4
q23 -1 35.5 -7t12.5 -23q0 -11 -7 -38q-2 -6 -2 -7z" />
    <glyph glyph-name="H" unicode="H" horiz-adv-x="722" 
d="M647 556q6 22 27 26l14 2q19 3 26.5 6t7.5 11q0 13 -25 13q-4 0 -19 -2q-40 -4 -77 -4q-34 0 -78 5q-16 1 -18 1q-16 0 -16 -13q0 -6 9.5 -9t27.5 -6q17 -2 24 -4q12 -3 15.5 -6.5t3.5 -10.5q0 -12 -5 -30q-1 -5 -2 -8l-48 -204q-13 0 -79 1h-79q-88 0 -145 4l53 228
q3 10 10 14t27 10l7 2q5 1 12 3q13 3 19 6t6 10t-7.5 10t-18.5 3q-6 0 -26 -2q-40 -4 -75 -4q-34 0 -78 5q-16 1 -18 1q-16 0 -16 -13q0 -6 8 -8.5t26 -5.5q19 -2 27 -5q12 -4 15.5 -7t3.5 -10q0 -12 -5 -30q-1 -5 -2 -8l-114 -485q-2 -11 -22 -16q-37 -9 -37 -21
q0 -11 18 -11q4 0 18 2q31 4 55 4q40 0 63 -1.5t41 -3.5q11 -1 15 -1q9 0 13.5 2.5t4.5 10.5q0 6 -12 9.5t-31 6.5q-15 2 -18 3q-24 7 -24 23q0 13 3 25l51 221q66 -3 146 -3q26 0 79 -2q52 -2 78 -2l-58 -236q-3 -11 -10.5 -15t-30.5 -11q-5 -1 -12 -3q-13 -2 -19 -5.5
t-6 -10.5t7.5 -10t18.5 -3q6 0 26 2q40 4 75 4q34 0 72 -4q16 -2 22 -2q26 0 26 13q0 6 -12 9.5t-31 6.5q-15 2 -18 3q-24 7 -24 23q0 13 3 25z" />
    <glyph glyph-name="I" unicode="I" horiz-adv-x="333" 
d="M63 45q-2 -8 -10.5 -12.5t-20.5 -6.5q-14 -2 -20.5 -5t-6.5 -11q0 -16 16 -16q3 0 10 1q13 2 28 3.5t41 1.5t43.5 -1t34.5 -3q18 -2 28 -2q26 0 26 13q0 6 -12 9.5t-31 6.5q-15 2 -18 3q-24 7 -24 23q0 13 3 25l112 482q5 21 27 26q5 1 12 3q13 3 19 6t6 10q0 13 -15 13
q-5 0 -18 -1q-40 -5 -77 -5q-34 0 -78 5q-16 1 -18 1q-16 0 -16 -13q0 -6 9.5 -9t27.5 -6q17 -2 24 -4q12 -3 15.5 -6.5t3.5 -10.5q0 -12 -5 -30q-1 -5 -2 -8z" />
    <glyph glyph-name="J" unicode="J" horiz-adv-x="389" 
d="M125 74q-8 -34 -24 -76t-38 -80.5t-49.5 -63t-56.5 -24.5q-12 0 -19 6.5t-16 20.5q-11 17 -21.5 26t-30.5 9q-23 0 -38.5 -14.5t-15.5 -42.5q0 -27 23.5 -41t46.5 -14q28 0 68.5 13.5t84.5 43t82.5 75.5t60.5 107q40 109 58 191l76 333q3 15 16 26.5t28 12.5q23 2 30.5 7
t7.5 12q0 13 -20 13q-4 0 -17 -1q-41 -5 -80 -5q-33 0 -81 4q-22 2 -30 2q-12 0 -17.5 -4t-5.5 -9q0 -7 8.5 -10t27.5 -6q11 -2 16 -3q16 -4 25.5 -11t9.5 -22q0 -10 -6 -31q-2 -10 -4 -17z" />
    <glyph glyph-name="K" unicode="K" horiz-adv-x="611" 
d="M406 26q14 -20 21 -24t20 -4q20 0 55 -4q35 -3 55 -3q8 0 14 1.5t6 7.5q0 7 -10 11t-28 9q-16 4 -21 6q-13 7 -27 24l-196 263q-6 8 -6 14t5 11l196 156q15 12 34 25.5t38 26.5t34 22.5t22 12.5l9 4q22 10 22 16q0 13 -19 13q-16 0 -44 -3q-32 -3 -49 -3q-34 0 -68 5
q-11 1 -16 1q-16 0 -16 -13q0 -5 6 -8t19 -7l12 -4l4 -1q10 -4 14.5 -7t4.5 -8q0 -10 -21.5 -34.5t-53.5 -50.5l-197 -161q-8 -7 -14 -7q-3 0 -3 5q0 7 3 17l54 208q5 21 16 29.5t26 9.5q18 1 26 4.5t8 14.5q0 13 -17 13q-11 0 -40 -3q-36 -3 -55 -3q-26 0 -69 4
q-20 2 -27 2q-22 0 -22 -13q0 -6 9.5 -9.5t27.5 -6.5q11 -1 18 -3q21 -5 21 -21q0 -9 -4 -25l-117 -483q-5 -20 -31 -27l-4 -1q-17 -5 -25.5 -9t-8.5 -12q0 -10 8 -10q6 0 26 2q45 4 78 4q15 0 35 -1.5t37 -2.5q26 -2 34 -2q11 0 15.5 1.5t4.5 7.5t-6.5 8.5t-21.5 3.5
q-14 1 -23.5 3.5t-16.5 7.5q-15 12 -15 31q0 13 3 28l40 168l1 6q4 12 6.5 17t7.5 5q3 0 11.5 -8t21.5 -22t23.5 -27t16.5 -22z" />
    <glyph glyph-name="L" unicode="L" horiz-adv-x="556" 
d="M64 50q-3 -14 -14 -20t-29 -10q-12 -4 -18 -7t-6 -9q0 -10 16 -10q8 0 25 2q18 2 36.5 3t48.5 1h350q7 0 11.5 5.5t8.5 21.5q2 9 6.5 22.5t11.5 35.5q10 27 13.5 38.5t3.5 15.5q0 15 -17 15q-5 0 -15 -19q-13 -26 -30.5 -46.5t-52.5 -34.5q-22 -9 -52.5 -14.5t-62 -8.5
t-54.5 -4t-40 -1q-36 0 -47 4.5t-11 19.5q0 12 5 30l106 443q1 3 2 7q6 27 12.5 37.5t24.5 14.5q6 2 19 4q18 3 27 6.5t9 10.5q0 11 -15 11q-10 0 -43 -2q-46 -4 -64 -4q-34 0 -78 4q-20 2 -27 2q-5 0 -10 -4t-5 -9q0 -7 8.5 -10t27.5 -6q13 -2 17 -3q10 -2 17 -7t7 -15
q0 -13 -5 -34l-2 -8z" />
    <glyph glyph-name="M" unicode="M" horiz-adv-x="833" 
d="M707 545q1 23 12.5 30t44.5 7q28 0 28 10q0 8 -5 11t-22 3q-9 0 -29 1t-29 1q-33 0 -43.5 -3.5t-15.5 -13.5l-181 -366l-12 -24q-23 -46 -26 -46q-4 0 -6.5 10.5t-4.5 27.5v1l-64 395q-1 8 -4 10.5t-11 3.5q-21 1 -51 3q-54 4 -84 4q-23 0 -30.5 -3t-7.5 -12q0 -6 8 -8.5
t26 -4.5h4q72 -6 72 -18q0 -7 -4 -17l-218 -489q-8 -19 -18 -27t-23 -12q-14 -4 -14 -13q0 -10 14 -10q7 0 24 1q32 3 50 3q29 0 62 -3q10 -1 12 -1q20 0 20 12q0 5 -8 7.5t-26 5.5q-14 2 -19 3q-27 5 -27 20q0 18 5 29l166 414q4 12 8.5 20t7.5 8t6 -17q0 -2 1 -6l67 -446
q2 -16 7 -31t12 -15q10 0 16 13q5 9 20 43q11 26 26 59.5t39.5 86.5t61 128t81.5 164q2 5 5 8l2 4h4l-24 -439q-1 -24 -11.5 -32t-28.5 -11l-6 -1q-16 -2 -24 -5.5t-8 -11.5q0 -6 3 -8t8 -2q19 0 40 2q19 1 30.5 1.5t33.5 0.5q16 0 36.5 -1t44.5 -2q16 -1 17 -1q12 0 16 2
t4 9q0 6 -8.5 9t-24.5 6q-11 2 -12 2q-15 4 -23.5 16t-8.5 40q0 30 1 45z" />
    <glyph glyph-name="N" unicode="N" horiz-adv-x="722" 
d="M557 143q-1 -9 -7 -9q-3 0 -9 10q-4 7 -6 10q-11 16 -31 50q-24 39 -38 58l-227 318q-2 2 -5 6q-11 16 -16 20t-14 4q-4 0 -11 -1t-12 -1q-19 0 -52 1q-26 1 -32 1q-17 0 -17 -15q0 -7 8.5 -9.5t23.5 -3.5h2q25 -2 44 -6t19 -13t-3.5 -26.5t-8.5 -35.5l-1 -6l-96 -437
q-3 -17 -11 -21.5t-45 -11.5l-4 -1q-11 -2 -14 -5t-3 -9q0 -14 15 -14q8 0 31 2q26 2 34 2q15 0 45 -2q38 -2 55 -2q14 0 18 2t4 7q0 7 -10 11t-42 8q-13 2 -22 8t-9 18q0 11 5 31l77 392q1 9 3 14.5t5 5.5q4 0 8 -7q1 -2 1 -3l293 -415q16 -23 37 -57q12 -21 16 -21
q6 0 8.5 7t4.5 21l71 517q4 29 20 39t42 10q39 0 39 17q0 7 -6 9t-24 2q-14 0 -42 -2t-43 -2t-45 2q-31 2 -47 2q-14 0 -18.5 -2.5t-4.5 -10.5q0 -13 20 -15q5 0 15 -1q27 -2 44.5 -5t17.5 -10q0 -18 -1 -23z" />
    <glyph glyph-name="O" unicode="O" horiz-adv-x="556" 
d="M224 -18q64 0 118.5 31.5t93.5 86.5t60 123.5t21 140.5q0 67 -15.5 117t-42.5 82t-62 47.5t-73 15.5q-64 0 -118 -31.5t-93.5 -86.5t-60.5 -123.5t-21 -140.5q0 -67 15.5 -117t42.5 -82t62 -47.5t73 -15.5zM224 8q-57 0 -89 40.5t-32 126.5q0 70 16.5 145.5t47 139
t71 102t86.5 38.5q57 0 89 -40.5t32 -126.5q0 -70 -16.5 -145.5t-46.5 -139t-71 -102t-87 -38.5z" />
    <glyph glyph-name="P" unicode="P" horiz-adv-x="556" 
d="M57 45q-3 -13 -22 -19q-4 -1 -14 -4q-12 -2 -18.5 -5t-6.5 -7q0 -16 28 -16q5 0 20 2q27 4 48 4q12 0 57 -3q46 -3 59 -3q27 0 27 13q0 5 -6.5 7t-20.5 4q-25 3 -37 8q-3 1 -4 2q-13 5 -19 11t-6 22q0 7 4 21l1 5l32 149q2 9 8.5 11.5t33.5 2.5q61 0 115.5 15.5t96 43.5
t65.5 67.5t24 85.5q0 29 -9.5 56t-31.5 48.5t-58 34.5t-87 13q-22 0 -65 -3q-44 -3 -66 -3q-24 0 -59 4q-26 2 -37 2q-6 0 -8.5 -5.5t-2.5 -12.5q0 -6 9 -8t30 -4q8 -1 15 -2q23 -3 23 -30q0 -12 -3 -24zM259 557q3 15 11.5 20t36.5 5q60 0 95.5 -25.5t35.5 -80.5
q0 -42 -20.5 -78.5t-54.5 -63.5t-75.5 -41.5t-81.5 -14.5q-10 0 -10 6q0 4 5 22q4 14 4 15z" />
    <glyph glyph-name="Q" unicode="Q" horiz-adv-x="611" 
d="M352 600q69 0 104 -48t35 -123q0 -61 -16 -133.5t-47.5 -138.5t-77.5 -107.5t-104 -41.5q-69 0 -104 48.5t-35 122.5q0 61 16 133.5t47.5 138.5t78 107.5t103.5 41.5zM128 -98q-5 -4 -28 -8q-30 -7 -47 -15t-17 -25q0 -13 6.5 -18t19.5 -5t23.5 5.5t24.5 15.5
q17 14 25 14t24 -7t52 -24q15 -8 23 -12q40 -20 74 -31.5t60 -11.5q42 0 80.5 14.5t67.5 35.5t46 39.5t17 25.5q0 6 -7 6q-6 0 -25 -11q-27 -17 -56.5 -27.5t-73.5 -10.5q-19 0 -44.5 6.5t-59.5 17.5q-53 16 -71 18q-1 0 -12 1q-26 1 -41.5 2.5t-15.5 5.5q0 3 7.5 8.5
t24.5 16.5q11 7 14 9l59 47q67 7 120.5 42t90 88.5t55.5 117.5t19 128q0 126 -57.5 196t-153.5 70q-73 0 -132.5 -32.5t-101 -87.5t-62.5 -122.5t-21 -135.5q0 -121 54 -191t145 -73v-2z" />
    <glyph glyph-name="R" unicode="R" horiz-adv-x="611" 
d="M383 16q7 -15 10.5 -20t9.5 -6q24 -3 47.5 -8.5t57.5 -14.5q36 -9 42 -9q14 0 14 10q0 6 -22 12q-28 9 -49.5 22.5t-35.5 44.5l-94 203q-2 5 -4 8q-6 12 -6 20q0 10 24 20q19 7 38.5 17t45.5 29q42 31 68 66.5t26 76.5q0 37 -14.5 62t-39 39t-55 20t-64.5 6q-23 0 -60 -3
q-33 -3 -48 -3t-47.5 1.5t-51.5 2.5q-45 2 -49 2q-18 0 -18 -8q0 -6 11 -9t30 -6q15 -2 18 -3q12 -4 17.5 -8.5t5.5 -13.5q0 -5 -4 -21l-1 -4l-118 -499q-3 -12 -16 -20q-3 -2 -21 -5q-16 -3 -24.5 -5.5t-8.5 -7.5q0 -10 15 -10q6 0 19 2q15 2 31 3t42 1q41 0 85 -4
q19 -2 26 -2q23 0 23 8q0 6 -9.5 8.5t-30.5 6.5q-24 4 -29 7q-16 12 -16 30q0 13 4 33l34 153q1 6 10.5 10t22 6t23.5 3t16 1q12 0 24 -27zM263 554v0q5 19 14.5 26.5t42.5 7.5q22 0 44.5 -3t45.5 -13.5t38 -33t15 -58.5q0 -40 -24.5 -77t-63 -65.5t-82.5 -45t-80 -16.5
q-11 0 -11 7q0 3 3 14q2 7 3 10z" />
    <glyph glyph-name="S" unicode="S" horiz-adv-x="444" 
d="M272 626q-47 0 -81 -13t-55 -34.5t-30.5 -46.5t-9.5 -50q0 -47 23.5 -92t69.5 -109q38 -53 56 -85.5t18 -63.5q0 -20 -4 -39t-17 -37.5t-39.5 -30t-69.5 -11.5q-28 0 -51.5 11t-34.5 22q-12 14 -12 84q0 14 -3.5 19.5t-9.5 5.5q-11 0 -15 -26q-1 -7 -3.5 -29.5t-3 -31.5
t-2 -26.5t-1.5 -23.5q0 -17 38.5 -27t82.5 -10q45 0 84.5 10.5t70 33t47.5 57t17 81.5q0 49 -23 93t-69 105q-38 51 -56.5 84.5t-18.5 66.5q0 32 21.5 56.5t69.5 24.5q52 0 81 -18t39 -63q11 -51 23 -51q6 0 9.5 3.5t3.5 13.5q0 4 -2 22q-7 49 -9 80q-1 10 -15 18t-37 14.5
t-44.5 9.5t-37.5 3z" />
    <glyph glyph-name="T" unicode="T" horiz-adv-x="611" 
d="M50 487q0 -1 -1 -2q-4 -9 -4 -14q0 -9 11 -9q9 0 15 5t14 20q14 24 25.5 36t34.5 25q20 11 64 17.5t83 6.5q29 0 29 -10q0 -6 -6 -25q-4 -14 -5 -19l-113 -434q-7 -29 -14.5 -41t-14.5 -15q-15 -6 -50 -9q-20 -2 -29 -4.5t-9 -10.5q0 -10 18 -10q16 0 52 2q63 4 107 4
q41 0 67 -1.5t43 -3.5q9 -1 10 -1q15 0 15 9q0 8 -9.5 11t-31.5 6q-32 4 -46 10q-13 5 -20.5 13t-7.5 21q0 7 6 28q4 14 8 29l106 427q4 16 16 16q45 0 79 -1.5t71 -5.5q9 -1 16.5 -6.5t7.5 -13.5q0 -4 -5 -27q-6 -25 -6 -30q0 -6 11 -6t15 17l31 118q2 10 2 15q0 8 -3 14
t-9 6t-16 -16q-9 -15 -18 -23.5t-24 -9.5t-44 -1h-288q-39 0 -59 2q-17 2 -23.5 9.5t-9.5 20.5q-3 9 -6 13.5t-11 4.5q-10 0 -18 -19z" />
    <glyph glyph-name="U" unicode="U" horiz-adv-x="722" 
d="M108 235v-1q-9 -30 -13 -52t-4 -49q0 -71 61 -111t145 -40q105 0 166 46t84 141l95 386q3 14 11 20t18 9q2 1 9 3q20 7 20 14q0 13 -17 13q-6 0 -22 -2q-33 -4 -58 -4q-23 0 -50 4q-13 2 -19 2q-12 0 -12 -16q0 -9 9 -11.5t24 -2.5q18 0 29.5 -9.5t11.5 -31.5
q0 -24 -18 -96l-66 -270q-9 -36 -21 -63.5t-34 -50t-58 -36t-88 -13.5q-59 0 -97.5 28t-38.5 64q0 16 2 35t5 32l90 369q5 22 17.5 30.5t28.5 11.5l3 1q21 4 29.5 7.5t8.5 10.5q0 11 -22 11q-11 0 -39 -2q-42 -4 -67 -4q-10 0 -42 3q-30 3 -41 3q-19 0 -24.5 -3t-5.5 -10
q0 -8 6.5 -12t18.5 -5q5 0 7 -1q21 -1 32.5 -5t11.5 -16q0 -13 -4 -28z" />
    <glyph glyph-name="V" unicode="V" horiz-adv-x="611" 
d="M595 553q10 17 20.5 24.5t25.5 13.5q16 6 16 15q0 5 -5.5 6.5t-14.5 1.5q-7 0 -24 -2q-30 -4 -57 -4q-24 0 -48 4q-14 2 -20 2q-17 0 -17 -15q0 -7 7 -9t35 -4q9 -1 20 -2q20 -2 20 -20q0 -14 -26 -62l-216 -398q-3 -5 -3 -6q-12 -20 -16 -20q-3 0 -7 17.5t-10 51.5
l-6 36l-63 322l-2 10q-5 28 -5 43q0 12 9.5 17t25.5 7q31 4 37.5 7t6.5 13q0 6 -4 9t-15 3q-15 0 -46 -3q-32 -3 -48 -3q-28 0 -75 4q-26 2 -35 2q-12 0 -15.5 -2.5t-3.5 -9.5t10 -9.5t31 -5.5q23 -3 29 -5q4 -1 6 -11l121 -602q5 -23 18 -23q8 0 18 17l2 4z" />
    <glyph glyph-name="W" unicode="W" horiz-adv-x="889" 
d="M444 -2q2 -16 10 -16h3q4 0 10 8l378 538q16 23 27.5 32.5t28.5 18.5l4 2q3 2 11 5q12 4 17.5 7.5t5.5 8.5q0 10 -18 10q-7 0 -24 -1q-27 -3 -47 -3q-27 0 -49 3q-7 1 -10 1q-20 0 -20 -11q0 -7 6 -10t17 -6l6 -1q14 -4 18.5 -7t4.5 -10q0 -9 -10 -23l-4 -5l-274 -405
l-3 -4q-6 -10 -10.5 -15.5t-9.5 -5.5q-2 0 -4.5 20t-4.5 38l-1 4l-26 156l125 213q14 24 28.5 32t30.5 11q4 1 5 1h1q17 5 22.5 8.5t5.5 12.5q0 7 -10 7q-7 0 -31 -2t-31 -2q-23 0 -53 3q-12 1 -17 1q-9 0 -15.5 -2t-6.5 -9t5.5 -10.5t14.5 -6.5l5 -2q9 -2 13 -5t4 -9
q0 -13 -21 -49q-1 -2 -3 -5l-61 -109q-2 -5 -5 -11q-11 -20 -16 -20q-2 0 -4 24q-2 14 -2 15l-12 108q-1 12 -1 41q0 9 6 13t18 6q8 1 12 3q8 3 8 12t-6 12.5t-23 3.5q-10 0 -30 -2q-24 -2 -37 -2q-10 0 -32 2t-33 2q-6 0 -11 -3t-5 -9q0 -7 4.5 -10.5t13.5 -5.5
q15 -3 25.5 -13.5t14.5 -36.5l38 -261l-96 -151q-2 -3 -5 -9q-9 -15 -13 -15q-3 0 -8 32q-5 34 -8 51l-62 349q-2 9 -3.5 17.5t-1.5 14.5q0 9 6.5 14t16.5 8q19 5 19 17q0 7 -3.5 9t-13.5 2q-12 0 -34 -2q-26 -2 -38 -2q-11 0 -35 2q-28 2 -38 2q-11 0 -18.5 -3t-7.5 -10
q0 -8 5 -10.5t16 -3.5q3 -1 4 -1l5 -1q15 -1 23 -4.5t10 -13.5l105 -564q4 -19 11 -19h3q5 0 16 16l128 200q2 3 4 7q8 13 13 13q6 0 9 -7.5t5 -29.5z" />
    <glyph glyph-name="X" unicode="X" horiz-adv-x="722" 
d="M301 324q2 -4 6 -9q10 -14 10 -20q0 -5 -11 -17t-25 -25l-3 -3l-188 -187q-17 -17 -32.5 -26t-33.5 -17q-19 -7 -19 -15q0 -7 6 -9t17 -2q6 0 24 2q32 4 49 4t48 -3q29 -3 41 -3q19 0 19 7q0 9 -7 13.5t-22 8.5q-7 1 -12 3q-10 3 -16 9.5t-6 17.5q0 15 11 26l159 176v1
q9 10 15 10q4 0 10 -11l3 -4l98 -164q15 -25 15 -40q0 -10 -9 -14.5t-25 -6.5q-11 -1 -13 -1q-24 -3 -34 -6t-10 -12q0 -13 26 -13q18 0 62 3q55 3 83 3q32 0 75 -4q22 -2 33 -2q19 0 19 11q0 8 -9 11t-27 7q-13 2 -16 3q-22 6 -38 15t-27 27l-154 253l230 216l8 8
q17 15 26 22q16 12 41 19q17 4 17 13t-5 11t-16 2q-3 0 -11 -1q-15 -1 -33.5 -2t-43.5 -1q-12 0 -38 2t-38 2q-16 0 -16 -11q0 -6 4.5 -9t13.5 -5q6 -1 11 -3q14 -5 21 -10.5t7 -18.5q0 -15 -5 -24t-18 -22l-122 -125l-15 -15q-11 -13 -17 -18.5t-10 -5.5q-6 0 -27 35
q-18 32 -30 51l-52 81q-8 11 -14 26t-6 21q0 12 13 16t31 6q6 1 8 1q14 2 20.5 6t6.5 13q0 7 -8.5 10t-17.5 3q-10 0 -31 -2q-35 -4 -64 -4q-9 0 -26 1t-34.5 2t-28 2l-10.5 1v0q-12 0 -17 -4.5t-5 -12.5q0 -7 6.5 -9.5t22.5 -5.5h1q23 -4 41 -33z" />
    <glyph glyph-name="Y" unicode="Y" horiz-adv-x="667" 
d="M225 59q-3 -14 -9 -20t-20 -12l-1 -1q-3 -2 -17 -4q-18 -3 -29 -7.5t-11 -11.5q0 -9 13 -9q9 0 30 1t43 3q37 2 41 2q32 0 52.5 -1.5t37.5 -2.5q17 -2 23 -2q24 0 24 11q0 5 -11 8t-34 7q-25 3 -31 6q-14 7 -16 21q0 10 4 25v1l34 158q7 30 12.5 49.5t12.5 26.5l235 228
q17 16 33.5 26.5t35.5 20.5q24 12 24 18q0 14 -19 14q-4 0 -25 -2q-32 -4 -45 -4q-38 0 -74 5q-12 1 -17 1q-19 0 -19 -14q0 -9 36 -17l3 -1q11 -3 17.5 -7.5t6.5 -12.5q0 -15 -15 -34t-37 -41l-3 -3l-137 -144l-1 -1q-8 -8 -13.5 -12.5t-9.5 -4.5t-7 6l-2 3l-96 194
q-9 18 -9 33q0 19 29 24q30 5 40.5 8.5t10.5 9.5q0 8 -7 11t-17 3q-8 0 -32 -2q-50 -4 -84 -4q-18 0 -42 3q-21 3 -34 3q-23 0 -23 -15q0 -5 5.5 -8t17.5 -7q5 -1 7 -2q11 -4 19.5 -11t15.5 -21l130 -262q3 -6 3 -12q0 -11 -3 -23z" />
    <glyph glyph-name="Z" unicode="Z" horiz-adv-x="611" 
d="M22 41q-3 -3 -6 -7q-14 -15 -14 -25q0 -7 7 -11t27 -4q55 0 163 3t163 3q17 0 60 -4q30 -2 40 -2q15 0 21 5t9 18l17 68l6 24t3 18q0 5 -3.5 8.5t-12.5 3.5q-5 0 -10 -8.5t-15 -34.5q-8 -21 -22.5 -34.5t-39.5 -20.5t-65 -10t-101 -3q-13 0 -52 1q-26 1 -35 1
q-27 0 -27 16q0 11 13 26q2 3 3 4l431 497q17 20 17 28q0 6 -4 7.5t-19 1.5h-96q-53 0 -160 -1t-161 -1q-26 0 -30 -15q-6 -25 -16 -61q-10 -35 -10 -43q0 -14 11 -14q6 0 11.5 3.5t9.5 12.5v1q8 17 19 33.5t27 25.5q17 9 30.5 14t32.5 7.5t50 3t81 0.5q46 0 69 -2.5
t23 -11.5q0 -5 -5 -12t-13 -16l-5 -5z" />
    <glyph glyph-name="bracketleft" unicode="[" horiz-adv-x="389" 
d="M233 435q11 46 24.5 75t35.5 53q18 19 34 26.5t36 12.5q18 5 18 12q0 6 -7.5 9t-29.5 3q-43 0 -81.5 -32.5t-57.5 -77.5q-11 -25 -19.5 -55t-22.5 -84q-10 -36 -14 -51l-1 -3q-5 -19 -9 -19q-3 0 -9 10q-8 13 -17.5 21t-26.5 8t-24 -10t-7 -25q0 -12 7 -20t15 -8t11 2.5
t5 7.5q4 9 12 9q12 0 16.5 -12t4.5 -25q0 -22 -5 -45q-3 -14 -8 -36q-8 -37 -13 -60.5t-10 -51.5t-8.5 -51.5t-3.5 -40.5q0 -41 27.5 -73t81.5 -32q25 0 33.5 4t8.5 11t-10 7q-13 0 -28 4t-28.5 13.5t-22 25.5t-8.5 38q0 26 5 52.5t14 63.5q3 11 6 26z" />
    <glyph glyph-name="backslash" unicode="\" horiz-adv-x="278" 
d="M-36 626l309 -644h41l-309 644h-41z" />
    <glyph glyph-name="bracketright" unicode="]" horiz-adv-x="389" 
d="M145 90q-12 -56 -28 -95t-33.5 -61t-34.5 -31t-35 -9q-22 0 -22 -9q0 -13 29 -13q40 0 68 15t46 40t29 54t24 73l1 3q8 27 21 82q17 71 30.5 103t39.5 32q6 0 11 -11q2 -7 5.5 -10.5t10.5 -3.5q27 0 27 34q0 35 -32 35q-11 0 -20 -6t-18 -15q-8 -9 -11 -9q-4 0 -4 7
q0 4 2 12q2 5 2 7q2 11 9 43q10 45 16 80t6 58q0 37 -12.5 63t-31.5 41t-39 21t-37 6q-20 0 -20 -9q0 -4 4 -6.5t18 -6.5q8 -2 18.5 -7.5t21 -15.5t17.5 -27t7 -40q0 -26 -2.5 -46t-8.5 -47z" />
    <glyph glyph-name="asciicircum" unicode="^" horiz-adv-x="600" 
d="M148 219l152 301l152 -301h55l-184 365h-46l-184 -365h55z" />
    <glyph glyph-name="underscore" unicode="_" 
d="M500 -125v50h-500v-50h500z" />
    <glyph glyph-name="grave" unicode="`" horiz-adv-x="278" 
d="M284 442l-117 149q-16 21 -38 21q-12 0 -20.5 -9.5t-8.5 -22.5q0 -16 18 -30l137 -108h29z" />
    <glyph glyph-name="a" unicode="a" horiz-adv-x="444" 
d="M-10 41q0 -22 9.5 -39.5t34.5 -17.5q21 0 46.5 11.5t51.5 30t51 41.5t44 44l44 48l2 -2q-3 -7 -8 -16q-8 -17 -18 -37.5t-18 -38.5t-13.5 -35.5t-5.5 -27.5q0 -18 24 -18q18 0 46.5 18.5t58 45t50 49.5t20.5 29q0 9 -9 9q-4 0 -29 -27q-28 -31 -47.5 -48t-34.5 -17
q-11 0 -11 7q0 5 5 15l1 2l130 285q6 12 6 18q0 14 -23 14q-19 0 -26.5 -5.5t-16.5 -23.5q-9 -19 -26 -19q-3 0 -13 2q-18 2 -27 2q-42 0 -94 -29t-99 -75.5t-76 -98.5t-29 -96zM50 74q0 31 24 72.5t61.5 80.5t78 64t72.5 25q20 0 28.5 -7.5t8.5 -21.5q0 -24 -27 -64
t-68 -82t-81 -69.5t-64 -27.5q-16 0 -24.5 8.5t-8.5 21.5z" />
    <glyph glyph-name="b" unicode="b" horiz-adv-x="389" 
d="M370 299q0 13 -2 26.5t-7.5 26.5t-17.5 21.5t-30 8.5q-22 0 -52.5 -23t-60 -54.5t-51.5 -59.5t-25 -33l-4 -7q-11 -17 -14 -17q-1 1 -1 2t2 8q1 3 2 7q1 0 27.5 61.5t59 143.5t56 149.5t23.5 89.5q0 7 -10 7q-2 0 -27 -3q-27 -3 -46 -5t-30 -2q-9 0 -9 -9q0 -6 5 -8.5
t17 -3.5q4 -1 6 -1q11 -2 17 -5.5t6 -11.5q0 -13 -15.5 -56.5t-48.5 -129.5q-30 -79 -46 -123.5t-32 -91.5t-26 -87t-10 -62q0 -23 8 -38t19.5 -22.5t23 -10t20.5 -2.5q41 0 89 28t90 75t68 103t26 109zM332 295q0 -23 -25.5 -71.5t-64 -100t-77 -86.5t-64.5 -35
q-19 0 -26 11t-7 25q0 41 25.5 93t64 100t76.5 78.5t59 30.5q39 0 39 -45z" />
    <glyph glyph-name="c" unicode="c" horiz-adv-x="278" 
d="M230 394q-48 0 -89.5 -32.5t-70.5 -82.5t-45 -102.5t-16 -89.5q0 -59 16 -81t45 -22q22 0 47 15.5t46 36.5t35 39.5t14 20.5t-5 5.5t-7 3.5q-3 0 -15 -14q-16 -21 -32.5 -34t-40.5 -13q-47 0 -47 66q0 17 11.5 60.5t30.5 90t41.5 78t43.5 31.5q11 0 31 -19
q12 -13 22.5 -20t24.5 -7t23 5t9 23q0 25 -21.5 33.5t-50.5 8.5z" />
    <glyph glyph-name="d" unicode="d" horiz-adv-x="444" 
d="M350 367l-7 2q-29 7 -51 7q-51 0 -102 -30.5t-93 -80t-66.5 -105.5t-24.5 -104q0 -34 10 -53t40 -19q24 0 55.5 20.5t63 50.5t56 58t35.5 43q1 2 3 4q4 7 6 7q3 0 3 -4q0 -1 -7 -17q-18 -37 -30.5 -72.5t-12.5 -66.5q0 -23 24 -23q21 0 50 19t56.5 46t46.5 52t19 34
q0 6 -9 6q-6 0 -23 -22q-26 -32 -48 -52q-6 -5 -19 -18q-19 -17 -24 -17q-11 0 -11 11q0 6 7 24q4 10 6 16l201 531q6 16 6 26t-25 10h-73q-14 0 -24 -1.5t-10 -8.5t8 -10.5t20 -5.5q13 -2 20 -6t7 -14q0 -15 -15 -52q-5 -13 -6 -17zM68 82q0 41 21.5 89t56 90.5t73 68.5
t69.5 26q21 0 29.5 -11t8.5 -41q0 -23 -24.5 -65.5t-63 -86.5t-78.5 -73t-69 -29q-13 0 -18 9t-5 23z" />
    <glyph glyph-name="e" unicode="e" horiz-adv-x="278" 
d="M218 394q-33 0 -70 -26.5t-68.5 -70.5t-51 -96.5t-19.5 -100.5q0 -52 20.5 -84t63.5 -32q28 0 54.5 17.5t48 41.5t35.5 46t14 26q0 9 -8 9q-2 0 -15 -15q-24 -28 -47.5 -46.5t-50.5 -18.5q-30 0 -44.5 15.5t-14.5 55.5q0 27 8 47q59 10 99.5 30t63.5 43.5t32.5 45.5
t9.5 38q0 29 -15 52t-45 23zM213 376q17 0 24 -10.5t7 -26.5q0 -17 -8.5 -37.5t-28 -42.5t-51.5 -42t-77 -33q13 49 31.5 86t38 60.5t37 34.5t27.5 11z" />
    <glyph glyph-name="f" unicode="f" horiz-adv-x="278" 
d="M203 378q6 18 16 53q12 41 22.5 72t23.5 59.5t29.5 46t36.5 17.5q13 0 34 -12t36 -12q17 0 24 8t7 21q0 35 -55 35q-46 0 -82 -25t-62.5 -65t-43.5 -81t-37 -98q-6 -17 -7 -19h-72q-15 0 -15 -14q0 -12 12 -12h68l-139 -482q-10 -34 -18.5 -46t-21.5 -12q-11 0 -16.5 5
t-10.5 15q-7 11 -13.5 16.5t-20.5 5.5q-30 0 -30 -27q0 -25 19.5 -36t41.5 -11q33 0 57.5 16t41.5 42.5t27.5 55.5t22.5 70l6 18l113 370h98q10 0 10 13t-10 13h-92z" />
    <glyph glyph-name="g" unicode="g" horiz-adv-x="389" 
d="M336 355q-14 0 -24.5 4t-26.5 14l-4 2l-1 1q-16 9 -29 13.5t-31 4.5q-27 0 -54 -14.5t-48.5 -38.5t-34.5 -55.5t-13 -64.5q0 -30 12 -56.5t33 -51.5q-4 -4 -23 -13q-15 -7 -24.5 -13.5t-9.5 -13.5q0 -19 18.5 -37t39.5 -29q-65 -18 -105.5 -51t-40.5 -68q0 -45 45 -76.5
t127 -31.5q75 0 121.5 29.5t46.5 73.5q0 27 -9.5 48t-25 37t-32 26.5t-41.5 23.5q-8 5 -12 7q-13 7 -30 16q-26 14 -34 21.5t-8 24.5q0 8 9 12.5t31 9.5q41 10 73 25.5t57 51.5q30 44 30 94q0 23 -4 49h75q9 0 9 12q0 14 -9 14h-53zM142 -198q-16 0 -34.5 3t-37.5 12
t-31.5 27t-12.5 46q0 22 13.5 41t33 32.5t36.5 21.5t22 8q3 0 25.5 -11.5t47.5 -28.5t43.5 -37t18.5 -39q0 -13 -5.5 -26t-19.5 -24t-38.5 -18t-60.5 -7zM120 185q0 18 7 50t20.5 64.5t34 54.5t45.5 22q28 0 37.5 -21t9.5 -51q0 -36 -10.5 -68.5t-28.5 -57t-39 -38.5
t-41 -14q-17 0 -26 16.5t-9 42.5z" />
    <glyph glyph-name="h" unicode="h" horiz-adv-x="444" 
d="M265 574q4 11 16 38q8 19 12 29.5t4 13.5q0 11 -18 11q-15 0 -45 -2t-45 -2q-8 0 -14 -2t-6 -7t16 -12q14 -6 21.5 -12t7.5 -18q0 -9 -6 -23l-191 -540q-7 -17 -9.5 -27t-2.5 -16q0 -15 27 -15q9 0 19 16t30 55q30 57 47 83q70 105 118.5 157.5t81.5 52.5q36 0 36 -36
q0 -17 -12 -65.5t-30 -99.5t-39.5 -87t-41.5 -36q-12 0 -27 9t-28 9q-34 0 -34 -28q0 -14 11 -22t25 -8q46 0 87 27t72 72.5t48 99.5t17 106q0 15 -2.5 31.5t-10 32t-22 25.5t-36.5 10q-19 0 -38 -9t-42.5 -31t-53 -60t-66.5 -93q-4 -6 -8 -13q-9 -15 -11 -15q-3 0 -3 9
q0 4 9 27q7 18 11 29z" />
    <glyph glyph-name="i" unicode="i" horiz-adv-x="278" 
d="M227 317q5 11 9.5 25t4.5 23t-5.5 18t-15.5 9q-15 0 -36.5 -11t-41.5 -26t-36 -29t-24 -22q-2 -2 -7 -6q-10 -8 -10 -14q0 -9 8 -9q5 0 14 6t26 20q19 15 28 21t14 6q9 0 9 -10q0 -12 -18 -50l-2 -4l-115 -233q-7 -14 -7 -24q0 -22 29 -22q21 0 48.5 13.5t53 33
t43.5 36.5t18 22q0 10 -7 10q-3 0 -17 -10q-16 -13 -30 -22l-2 -1q-36 -24 -44 -24q-7 0 -9 3t-2 9q0 7 9 23q2 5 5 11zM222 610q-16 0 -28 -12.5t-12 -27.5t12 -27.5t28 -12.5t28 12.5t12 27.5t-12 27.5t-28 12.5z" />
    <glyph glyph-name="j" unicode="j" horiz-adv-x="278" 
d="M22 -131q-3 -8 -4 -10q-9 -24 -15 -33.5t-15 -9.5t-29 15q-21 15 -30 15q-13 0 -21 -6.5t-8 -21.5q0 -19 17 -28.5t32 -9.5q26 0 50 12t43.5 31t33.5 40t21 40l158 423q4 11 7 23t3 20q0 25 -24 25q-15 0 -45.5 -20.5t-64 -50.5t-56.5 -56.5t-23 -36.5t9 -10q2 0 8.5 6
t23.5 23q33 32 53.5 49.5t30.5 17.5q8 0 8 -11q0 -7 -6 -22l-1 -4zM260 617q-16 0 -28 -12.5t-12 -27.5t12 -27.5t28 -12.5t28 12.5t12 27.5t-12 27.5t-28 12.5z" />
    <glyph glyph-name="k" unicode="k" horiz-adv-x="444" 
d="M20 38q-2 -5 -3 -8q-8 -20 -8 -28q0 -12 20 -12q10 0 17.5 3.5t12.5 15.5l57 139l1 2q3 7 6 7q4 0 9 -9l1 -2q8 -13 20 -36q18 -32 30.5 -51t30 -37t40.5 -28t52 -10q33 0 55.5 17t22.5 41q0 16 -14.5 30.5t-33.5 14.5q-27 0 -27 -15q0 -8 7 -10.5t19 -2.5q11 0 18 -4
t7 -16q0 -17 -14 -25t-36 -8q-15 0 -29.5 11t-28 27.5t-24 34t-22.5 40.5q-12 21 -16 26q-8 11 -8 17q0 7 7 7q38 0 62 3q42 5 73.5 20.5t51 36t28.5 42t9 40.5q0 37 -25.5 60t-66.5 23q-26 0 -49 -10.5t-41 -26t-28 -28.5t-22 -29q-4 -7 -5 -7q-4 0 -4 9q0 4 4 12
q5 11 8 20q6 23 17.5 56t26.5 71.5t25.5 65t30.5 75.5q20 51 21 54q0 4 -3.5 6t-13.5 2q-8 0 -39 -3q-38 -3 -51 -3q-21 0 -21 -12q0 -6 17 -14q12 -7 19 -13t7 -16q0 -14 -10 -41zM142 213q0 15 22 38.5t57.5 47.5t71.5 39.5t61 15.5q16 0 27.5 -6.5t11.5 -21.5
q0 -21 -24.5 -45.5t-62.5 -46.5t-75 -35.5t-59 -13.5q-11 0 -20.5 8t-9.5 20z" />
    <glyph glyph-name="l" unicode="l" horiz-adv-x="278" 
d="M65 159q-15 -42 -24 -67.5t-13.5 -40t-5.5 -21.5t-1 -15q0 -16 6 -23.5t23 -7.5q18 0 46 18.5t56.5 45t48.5 50t20 29.5q0 7 -9 7q-5 0 -13.5 -7t-23.5 -23q-24 -23 -38.5 -34.5t-26.5 -11.5q-13 0 -13 15q0 8 6 23l1 4l190 504l4 11q5 11 8 19t3 11q0 11 -11 11
q-19 0 -57 -3t-57 -3q-8 0 -8 -8q0 -6 6 -9.5t16 -6.5q11 -3 17.5 -9t6.5 -17q0 -10 -5.5 -28t-21.5 -61z" />
    <glyph glyph-name="m" unicode="m" horiz-adv-x="611" 
d="M208 33l-4 -8q-6 -14 -6 -20q0 -13 26 -13q13 0 19.5 8.5t16.5 32.5q15 36 29 60q86 151 133 213t83 62q26 0 26 -23q0 -22 -14 -48l-117 -233q-17 -34 -17 -52q0 -11 6.5 -19.5t15.5 -8.5q25 0 55 17t57.5 42t45.5 47t18 28q0 8 -9 8q-4 0 -16 -12q-25 -27 -55 -54
q-7 -7 -18.5 -12.5t-17.5 -5.5q-10 0 -10 10q0 12 9 30l105 213l1 2q13 26 13 46q0 22 -14.5 36.5t-45.5 14.5q-26 0 -51.5 -16.5t-47.5 -42t-38.5 -51.5t-38.5 -64q-12 -19 -17 -28q-2 -4 -6 -10q-4 -8 -6 -8q-1 0 -1 6q0 2 12 32q12 28 17.5 42t13 35t12 37t4.5 26
q0 19 -14 30.5t-32 11.5q-25 0 -49 -16.5t-45.5 -42t-37.5 -51t-34 -57.5q-5 -8 -9 -15t-13 -25q-6 -13 -7 -13q-4 0 -4 5q0 4 5.5 17t14.5 34q22 50 34.5 83.5t12.5 55.5q0 25 -23 25q-32 0 -59.5 -21t-51.5 -52q-7 -9 -20 -22q-24 -26 -24 -37q0 -7 8 -7q7 0 20 18
q26 32 54 55l7 5q15 13 18 13q13 0 13 -17q0 -11 -10 -35l-3 -6l-96 -243q-5 -13 -8.5 -23t-3.5 -19q0 -11 19 -11q13 0 19 6t17 28q6 11 9 17l18 34q10 18 25 46t26.5 48t23.5 40.5t22 37.5q13 21 27.5 42t29 38.5t28.5 28t24 10.5q9 0 13 -9t4 -17q0 -10 -2 -23t-7 -24z
" />
    <glyph glyph-name="n" unicode="n" horiz-adv-x="444" 
d="M387 260l1 1q11 24 18 43t7 35q0 26 -16 40.5t-45 14.5t-57.5 -21t-53.5 -51.5t-42.5 -59.5t-35.5 -61q-7 -12 -10 -17q-9 -14 -12 -14q-2 0 -2 5q0 3 4.5 15t12.5 30q19 48 31 81.5t12 50.5q0 21 -7 31.5t-24 10.5q-14 0 -30.5 -10t-33 -24.5t-29.5 -28.5t-19 -23
q-1 -2 -5 -7q-13 -17 -13 -25t8 -8q4 0 25 24q19 23 33 36.5t25 13.5q15 0 15 -13q0 -6 -8 -29l-2 -5l-95 -254q-1 -3 -2 -5q-3 -9 -5.5 -16t-2.5 -12q0 -18 24 -18q11 0 17.5 8t15.5 27q13 30 26 54t32 54q43 69 72.5 113.5t50 69t35 34.5t28.5 10q23 0 23 -27
q0 -19 -10 -40l-114 -243q-6 -15 -10 -25.5t-4 -17.5q0 -17 25 -17q24 0 51 13.5t50 33t38 38t15 26.5t-9 8q-2 0 -21 -18q-22 -22 -37.5 -34.5t-26.5 -12.5t-11 12q0 4 6 13q2 4 3 7z" />
    <glyph glyph-name="o" unicode="o" horiz-adv-x="333" 
d="M67 52q0 28 13 82t35.5 109.5t52 93t60.5 37.5q21 0 30 -18t9 -42t-14 -75.5t-37.5 -106t-51.5 -91.5t-55 -37q-24 0 -33 14.5t-9 33.5zM25 119q0 -24 3.5 -47t12.5 -43t25 -32.5t39 -12.5q38 0 75 23.5t66 63t46 87t17 93.5q0 65 -21 104t-63 39q-30 0 -65 -21
t-66 -58.5t-50 -88t-19 -107.5z" />
    <glyph glyph-name="p" unicode="p" horiz-adv-x="389" 
d="M176 332q8 25 15.5 30.5t34.5 5.5q39 0 59.5 -18t20.5 -50q0 -22 -14 -69t-38 -96.5t-53 -83t-58 -33.5q-26 0 -35.5 11t-9.5 32q0 13 5 30zM-28 -141q-7 -21 -12.5 -30t-16.5 -15q-8 -4 -28 -7q-12 -1 -17.5 -3t-5.5 -7q0 -9 9 -9q20 0 54 -2q34 -1 54 -1q19 0 52 -3
q23 -2 29 -2q21 0 21 10q0 4 -10.5 7.5t-31.5 8.5q-23 6 -27 8q-15 8 -15 23q0 5 1 8l45 150q14 -3 32 -3q58 0 107 34t84 86t53.5 106t18.5 92q0 39 -23 61.5t-78 22.5q-8 0 -32 -2t-42 -5q4 15 15 49q10 32 13.5 44t3.5 17q0 11 -7.5 15.5t-18.5 4.5q-14 0 -20 -4.5
t-11 -20.5l-35 -112l-76 -15q-10 -2 -10 -12t10 -10q4 0 18 3t29 6q19 4 23 5z" />
    <glyph glyph-name="q" unicode="q" horiz-adv-x="444" 
d="M74 84q0 30 22.5 78.5t58 97t76.5 80.5t75 32q23 0 31.5 -13.5t8.5 -44.5q0 -14 -24.5 -59t-62 -96t-77 -86t-69.5 -35q-16 0 -27.5 13t-11.5 33zM414 340q5 16 21 42q9 16 9 20q0 8 -6 8q-5 0 -21 -14q-13 -12 -22 -18t-18 -6q-6 0 -17 7q-10 7 -21 11t-29 4
q-51 0 -103.5 -31.5t-96.5 -82t-70 -108t-26 -106.5q0 -29 17.5 -55.5t49.5 -26.5q26 0 51 14t47.5 36t40.5 44.5t42 55.5q18 26 27 37l3 3q3 3 4 3t1 -3q0 -4 -3 -12l-104 -307q-9 -26 -21 -34t-27 -9h-1q-26 -2 -32.5 -4t-6.5 -9q0 -5 4 -7t17 -2v2v0v0q0 -2 30 -3t66 -1
q19 0 39.5 -2t39.5 -5q10 -1 12 -1q15 0 15 12q0 4 -20.5 10.5t-42.5 9.5q-6 1 -12 8t-6 15q0 10 6 26z" />
    <glyph glyph-name="r" unicode="r" horiz-adv-x="333" 
d="M40 25l-1 -4q-3 -12 -3 -15q0 -9 7 -12.5t15 -3.5q13 0 17 9l7 13q17 34 43.5 85.5t58 106.5t58.5 92.5t40 37.5q6 0 8 -17q1 -14 4.5 -21.5t15.5 -7.5q23 0 30.5 17t7.5 41q0 27 -7 37.5t-31 10.5q-17 0 -37 -19t-40 -48t-36.5 -57.5t-38.5 -69.5q-16 -30 -22 -40
q-3 -6 -5 -6q-1 0 -1 4q0 2 5 15q8 22 11 33q10 35 20.5 81t11.5 75q0 16 -4.5 24t-19.5 8q-14 0 -37 -20t-47 -50t-40.5 -55t-16.5 -30q0 -11 8 -11q4 0 10.5 8t20.5 27q19 26 31 40t21 14q12 0 12 -15q0 -4 -3 -16l-2 -5z" />
    <glyph glyph-name="s" unicode="s" horiz-adv-x="278" 
d="M201 394q-54 0 -82.5 -32.5t-28.5 -88.5q0 -16 5 -36t14 -52l4 -14l2 -8q11 -35 16 -56.5t5 -39.5q0 -24 -12 -41.5t-44 -17.5q-14 0 -21.5 7t-16.5 21q-7 13 -13.5 19.5t-18.5 6.5q-10 0 -18 -7.5t-8 -19.5q0 -24 19 -37.5t61 -13.5q58 0 90 32t32 91q0 24 -5.5 49.5
t-16.5 63.5l-1 4q-2 6 -5 17q-18 63 -18 87q0 22 9.5 32t22.5 10q8 0 14 -4.5t14 -14.5q10 -10 17.5 -15.5t17.5 -5.5t17.5 5t7.5 19q0 20 -16.5 30t-42.5 10z" />
    <glyph glyph-name="t" unicode="t" horiz-adv-x="278" 
d="M270 346q10 0 13 3t3 13q0 16 -13 16h-72l27 72q4 12 4 19q0 11 -25 11q-23 0 -26 -10l-35 -92h-63q-17 0 -17 -16t16 -16h53l-108 -302q-1 -3 -4 -10q-8 -20 -8 -31q0 -17 21 -17q17 0 46.5 18.5t60 46.5t51 53.5t20.5 37.5q0 8 -8 8q-4 0 -23 -23q-24 -29 -44.5 -47
t-39.5 -18q-9 0 -9 9q0 5 6 20q3 8 4 10l92 245h78z" />
    <glyph glyph-name="u" unicode="u" horiz-adv-x="444" 
d="M407 330q9 19 14.5 33t5.5 18q0 9 -20 9q-16 0 -22 -2t-9 -8q-2 -3 -12 -25q-13 -28 -23.5 -50t-19.5 -38q-10 -19 -41.5 -56.5t-70 -76.5t-71 -65.5t-47.5 -26.5q-11 0 -11 8q0 5 3 11q0 1 1 3l136 266q6 13 9.5 23t3.5 24q0 17 -27 17q-23 0 -49 -15t-50 -37t-39.5 -42
t-15.5 -27q0 -8 8 -8q2 0 20 20q24 27 43 44t32 17q12 0 12 -10q0 -4 -13 -27q0 -1 -5 -10l-86 -160q-6 -11 -15.5 -29t-19.5 -39.5t-16 -38.5t-6 -26q0 -11 7.5 -16.5t17.5 -5.5q37 0 147 95q28 23 48 44.5t42 47.5q16 19 18 19q1 0 1 -5q0 -2 -1.5 -5t-7.5 -17
q-12 -24 -22 -46l-31 -67q-11 -25 -11 -36q0 -13 7.5 -21.5t20.5 -8.5q21 0 47.5 16t50 38.5t40 42.5t16.5 25q0 10 -10 10q-2 0 -8 -6.5t-19 -20.5q-26 -29 -45.5 -47t-31.5 -18q-8 0 -8 9q0 5 3 11l1 3z" />
    <glyph glyph-name="v" unicode="v" horiz-adv-x="389" 
d="M56 80q-7 -18 -7 -42q0 -23 14.5 -38.5t33.5 -15.5q22 0 52 17.5t62 46.5t60 61t47 60q41 60 56.5 98.5t15.5 79.5q0 53 -24 53q-13 0 -20 -10t-7 -25q0 -6 3 -21q4 -25 4 -43q0 -32 -22 -76t-57 -87t-69.5 -70.5t-56.5 -27.5q-12 0 -18 9.5t-6 24.5q0 10 3 20.5t8 24.5
v0l77 200q9 25 9 41t-10.5 25t-26.5 9q-21 0 -49.5 -20.5t-57 -50.5t-47 -55.5t-18.5 -32.5q0 -9 9 -9q6 0 14.5 9t24.5 29q23 30 41 47t33 17q14 0 14 -14q0 -8 -4 -20z" />
    <glyph glyph-name="w" unicode="w" horiz-adv-x="611" 
d="M68 124q-15 -38 -15 -61q0 -34 16.5 -56.5t32.5 -22.5q23 0 49 15t52 39t49 50t40 51l2 -2q-1 -3 -4 -11q-7 -20 -11.5 -38.5t-4.5 -38.5q0 -26 13.5 -45.5t42.5 -19.5q28 0 75 36t94.5 93.5t79 120.5t31.5 114q0 52 -26 52q-11 0 -18 -12.5t-7 -31.5q0 -9 3 -28
q4 -28 4 -46q0 -27 -21 -68t-54 -82t-65.5 -67.5t-53.5 -26.5q-17 0 -25.5 9t-8.5 34q0 19 6.5 46.5t16 55.5t20.5 55.5t26 62.5q17 39 23 55t6 23q0 11 -22 11q-17 0 -22.5 -4t-10.5 -17q-11 -31 -30 -77t-37 -79q-16 -30 -36 -60t-42.5 -55t-45 -39.5t-42.5 -14.5
q-12 0 -21.5 6t-9.5 22t6 31l76 204q2 4 2 5q6 14 9.5 26t3.5 23q0 15 -8.5 24t-27.5 9q-18 0 -47 -20.5t-57 -49.5t-48 -55t-20 -33q0 -8 9 -8q5 0 26 28q24 33 45 53.5t42 20.5q6 0 9 -5t3 -12q0 -15 -12 -44z" />
    <glyph glyph-name="x" unicode="x" horiz-adv-x="444" 
d="M143 394q-21 0 -35 -10t-21 -26.5t-10 -36t-3 -42.5q0 -34 14 -34q7 0 10.5 7.5t3.5 28.5q0 23 8.5 33t21.5 10q14 0 24.5 -21.5t24.5 -66.5q11 -37 18 -52q-14 -14 -31.5 -33.5t-41.5 -47.5q-32 -38 -48.5 -55.5t-21.5 -17.5q-6 0 -6 7q0 2 1 5q2 6 2 10q0 12 -6.5 18
t-14.5 6q-17 0 -27 -14t-10 -34q0 -19 10 -31.5t27 -12.5q22 0 46 22.5t63 68.5q44 53 68 75q4 -9 13 -35q22 -63 41.5 -97t48.5 -34q30 0 47 33t17 77q0 31 -13 31q-8 0 -10.5 -8.5t-4.5 -27.5q-4 -45 -24 -45q-12 0 -25 21t-24 51t-18.5 56.5t-7.5 33.5q0 2 18.5 26.5
t42 52t44.5 48.5t29 21q13 0 13 -13q0 -3 -1 -12q-1 -6 -1 -10q0 -12 11 -12q17 0 28 14.5t11 32.5q0 16 -10.5 28t-24.5 12q-16 0 -35 -12t-38 -31t-34.5 -37.5t-34.5 -43.5q-25 -32 -28 -32t-7 9t-12 33q-18 52 -35 83t-42 31z" />
    <glyph glyph-name="y" unicode="y" horiz-adv-x="389" 
d="M-19 -152q-14 0 -23.5 -8.5t-9.5 -22.5q0 -37 38 -37q40 0 80 27.5t73.5 67.5t57 77.5t43.5 72.5l4 7q17 30 37 77.5t38 101.5t29 97t11 61q0 25 -18 25q-24 0 -24 -42q0 -72 -18.5 -131t-61.5 -153l-1 -2q-8 -17 -16 -31.5t-10 -14.5t-2 5q0 6 1 20q3 43 3 79
q0 55 -5 104t-15 86t-25 58.5t-34 21.5q-20 0 -39 -17.5t-34 -42.5t-24 -48t-9 -30q0 -11 9 -11q4 0 14 21q14 29 29.5 47.5t38.5 18.5q9 0 17.5 -27t14 -71t9 -96t3.5 -100q0 -35 -13.5 -71.5t-35.5 -67.5t-44.5 -50t-39.5 -19q-6 0 -17 7q-16 11 -31 11z" />
    <glyph glyph-name="z" unicode="z" horiz-adv-x="389" 
d="M293 118q-26 0 -26 -28q0 -10 5 -18.5t14 -18.5q10 -11 10 -15q0 -18 -24 -18q-14 0 -55 22l-5 3q-46 25 -87 25q-5 0 -22 -2q-5 -1 -6 -1q51 58 109 124t106 123q9 10 28 25q15 12 21.5 19t6.5 18q0 18 -23 18q-12 0 -18 -6.5t-10 -18.5l-1 -3q-3 -11 -7 -16.5t-11 -5.5
q-12 0 -37 15q-13 8 -17 10q-21 12 -41 18.5t-47 6.5q-37 0 -66.5 -20t-29.5 -53q0 -19 10.5 -32.5t26.5 -13.5q26 0 26 17q0 11 -5.5 16t-14.5 10q-9 4 -14 8t-5 13q0 10 11 16.5t27 6.5t29 -5t34 -16l6 -3q22 -11 43 -17.5t48 -6.5q-32 -31 -65 -67.5t-72 -81.5l-13 -16
q-6 -6 -18 -24q-14 -21 -26 -35t-27 -26l-6 -5q-19 -14 -29 -25.5t-10 -26.5q0 -10 6.5 -14.5t17.5 -4.5q15 0 22 9.5t13 27.5q6 17 11 17q18 0 33 -7.5t36 -21.5q20 -13 39 -21t41 -8q46 0 69.5 25t23.5 57q0 19 -9 35.5t-26 16.5z" />
    <glyph glyph-name="braceleft" unicode="{" horiz-adv-x="389" 
d="M63 -9q-9 -33 -9 -56q0 -39 22.5 -53t68.5 -14l5 22q-24 7 -33 20t-9 37q0 13 7 39l39 148q10 37 10 57q0 40 -54 55v2q47 11 68 36t34 76l38 148q13 48 29 67.5t56 28.5l6 22q-58 0 -92.5 -24.5t-53.5 -98.5l-40 -156q-11 -43 -30 -65.5t-58 -34.5q24 -8 33.5 -21.5
t9.5 -36.5q0 -14 -7 -42z" />
    <glyph glyph-name="bar" unicode="|" horiz-adv-x="222" 
d="M92 -250h38v1000h-38v-1000z" />
    <glyph glyph-name="braceright" unicode="}" horiz-adv-x="389" 
d="M196 360q-10 -37 -10 -57q0 -40 54 -55v-2q-47 -11 -68 -36t-34 -76l-38 -148q-13 -48 -29 -67.5t-56 -28.5l-6 -22q59 0 93 24.5t53 98.5l40 156q11 44 30 66t58 34q-24 8 -33.5 21.5t-9.5 36.5q0 14 7 42l40 156q9 33 9 56q0 39 -22.5 53t-68.5 14l-5 -22q24 -7 33 -20
t9 -37q0 -13 -7 -39z" />
    <glyph glyph-name="asciitilde" unicode="~" horiz-adv-x="600" 
d="M495 252q-23 -35 -42 -53.5t-46 -18.5q-15 0 -33.5 7t-47.5 20q-10 4 -21 9q-34 15 -61 23.5t-50 8.5q-46 0 -75.5 -24t-49.5 -62l36 -36q15 32 34.5 52t49.5 20q31 0 58.5 -9.5t56.5 -25.5t53 -24.5t49 -8.5q41 0 68 22t57 64z" />
    <glyph glyph-name="quotesinglbase" unicode="&#x201a;" horiz-adv-x="222" 
d="M124 50q0 27 -7.5 38.5t-23.5 11.5q-21 0 -38 -22.5t-17 -53.5q0 -19 9 -26.5t23 -7.5q2 0 7 1q5 2 7 2q3 0 3 -5q0 -3 -4.5 -15.5t-14.5 -30t-28 -38t-43 -39.5q-1 -1 -3 -2q-8 -5 -8 -9q0 -8 7 -8q9 0 30.5 17t45 45.5t39.5 65.5t16 76z" />
    <glyph glyph-name="florin" unicode="&#x192;" 
d="M422 400h-125l2 11q7 40 14.5 74t21.5 69t36.5 58.5t52.5 23.5q25 0 25 -12q0 -4 -7 -11q-7 -6 -10.5 -12t-3.5 -15q0 -35 34 -35q16 0 27 11t11 33q0 31 -25 48t-57 17q-45 0 -78 -25t-54 -64.5t-33 -81.5t-20 -89h-108l-6 -32h109q-9 -42 -24 -141q-17 -113 -28 -164
q-1 -5 -3 -14q-7 -37 -14 -65t-18.5 -54t-28.5 -42t-40 -16q-20 0 -20 11q0 4 6 11q11 13 11 26q0 34 -33 34q-17 0 -28 -10.5t-11 -32.5q0 -34 22 -48.5t49 -14.5q31 0 55 14t41.5 37.5t29 48.5t25.5 62q9 23 18 60.5t18 83.5t14 73.5t17 96.5q5 33 7 44h124z" />
    <glyph glyph-name="quotedblbase" unicode="&#x201e;" horiz-adv-x="389" 
d="M124 50q0 27 -7.5 38.5t-23.5 11.5q-21 0 -38 -22.5t-17 -53.5q0 -19 9 -26.5t23 -7.5q2 0 7 1q5 2 7 2q3 0 3 -5q0 -3 -4.5 -15.5t-14.5 -30t-28 -38t-43 -39.5q-1 -1 -3 -2q-8 -5 -8 -9q0 -8 7 -8q9 0 30.5 17t45 45.5t39.5 65.5t16 76zM291 50q0 27 -7.5 38.5
t-23.5 11.5q-21 0 -38 -22.5t-17 -53.5q0 -19 9 -26.5t23 -7.5q2 0 7 1q5 2 7 2q3 0 3 -5q0 -3 -4.5 -15.5t-14.5 -30t-28 -38t-43 -39.5q-1 -1 -3 -2q-8 -5 -8 -9q0 -8 7 -8q9 0 30.5 17t45 45.5t39.5 65.5t16 76z" />
    <glyph glyph-name="ellipsis" unicode="&#x2026;" horiz-adv-x="1000" 
d="M96 21q0 -33 35 -33q19 0 37 22t18 59q0 15 -8.5 23t-20.5 8q-23 0 -42 -21.5t-19 -57.5zM429 21q0 -33 35 -33q19 0 37 22t18 59q0 15 -8.5 23t-20.5 8q-23 0 -42 -21.5t-19 -57.5zM762 21q0 -33 35 -33q19 0 37 22t18 59q0 15 -8.5 23t-20.5 8q-23 0 -42 -21.5
t-19 -57.5z" />
    <glyph glyph-name="dagger" unicode="&#x2020;" 
d="M149 -198q29 161 63 262t66 155q-16 33 -16 80q0 41 9 87q38 0 60 -5.5t42 -15.5q24 -11 40 -11q45 0 45 43q0 41 -42 41q-21 0 -53 -12q-23 -9 -41.5 -13.5t-47.5 -4.5l10 35q7 25 16.5 43.5t21.5 38.5q12 19 17 31t5 26q0 20 -10.5 32t-30.5 12q-26 0 -36.5 -15
t-10.5 -43q0 -12 3 -32q5 -32 5 -58q0 -18 -2 -32.5t-7 -37.5q-40 0 -59.5 5t-38.5 13q-12 6 -21.5 9t-25.5 3q-18 0 -28 -11.5t-10 -26.5q0 -20 10.5 -33t29.5 -13q12 0 22 3t23 9q21 10 40.5 15t52.5 5q-10 -57 -29.5 -97t-44.5 -66l1 -9q5 -32 5 -53q0 -47 -13 -128.5
t-42 -230.5h22z" />
    <glyph glyph-name="daggerdbl" unicode="&#x2021;" 
d="M284 443q7 25 16.5 43.5t21.5 38.5q12 19 17 31t5 26q0 20 -10.5 32t-30.5 12q-26 0 -36.5 -15t-10.5 -43q0 -12 3 -32q5 -32 5 -58q0 -18 -2 -32.5t-7 -37.5q-40 0 -59.5 5t-38.5 13q-12 6 -21.5 9t-25.5 3q-18 0 -28 -11.5t-10 -26.5q0 -20 10.5 -33t29.5 -13
q12 0 22 3t23 9q21 10 40.5 15t52.5 5q-10 -57 -29.5 -97t-44.5 -66q1 -4 4 -13q6 -16 9 -31t3 -36q0 -41 -9 -87q-38 0 -59.5 5.5t-42.5 15.5q-24 11 -40 11q-45 0 -45 -43q0 -41 42 -41q21 0 53 12q23 9 42 13.5t47 4.5l-10 -35q-7 -25 -16 -43.5t-22 -38.5
q-12 -19 -17 -31t-5 -26q0 -20 10.5 -32t30.5 -12q26 0 36.5 15t10.5 43q0 12 -3 32q-5 32 -5 58q0 18 2 32.5t7 37.5q39 0 59.5 -5t39.5 -14q13 -6 22 -8.5t24 -2.5q18 0 28 11.5t10 26.5q0 21 -10 33.5t-30 12.5q-12 0 -22 -3t-23 -9q-21 -10 -40.5 -15t-52.5 -5
q10 63 31 104.5t43 58.5q-16 33 -16 80q0 41 9 87q38 0 60 -5.5t42 -15.5q24 -11 40 -11q45 0 45 43q0 41 -42 41q-21 0 -53 -12q-23 -9 -41.5 -13.5t-47.5 -4.5z" />
    <glyph glyph-name="circumflex" unicode="&#x2c6;" horiz-adv-x="278" 
d="M260 610h-38l-161 -168h37l136 106l82 -106h32z" />
    <glyph glyph-name="perthousand" unicode="&#x2030;" horiz-adv-x="1000" 
d="M938 263q22 0 36 -7.5t20.5 -19.5t8.5 -24.5t2 -26.5q0 -27 -13.5 -62t-36.5 -68t-51.5 -54t-56.5 -21q-26 0 -42.5 8.5t-24.5 21t-10.5 24.5t-2.5 24q0 28 15.5 63.5t41.5 68t56 53t58 20.5zM649 630h-33q-4 -3 -12 -13q-13 -16 -31 -31t-57 -33q-15 -7 -43.5 -12
t-53.5 -5q-37 0 -49 5t-22 19q-14 19 -34 33q-26 18 -68 18q-44 0 -82 -21t-65.5 -53.5t-42.5 -67t-15 -59.5q0 -36 11.5 -61.5t29 -40.5t37.5 -21.5t38 -6.5q37 0 72 22t62 57t42.5 75.5t15.5 76.5q0 12 -1 17l7 -2q19 -6 34.5 -9t39.5 -3q25 0 55 7t47 18l2 -2l-479 -596
h43zM87 380q0 28 15.5 63.5t41.5 68t56 53t58 20.5q7 0 12 -2q8 -10 23.5 -23t30.5 -21v-4q1 -14 1 -41q0 -24 -14 -57t-37.5 -64t-54 -51t-62.5 -20q-22 0 -36.5 8.5t-21.5 21t-9.5 25t-2.5 23.5zM560 289q-44 0 -82.5 -20t-66 -51.5t-42 -66t-14.5 -63.5q0 -36 11.5 -61.5
t29 -40.5t37.5 -21.5t38 -6.5q37 0 72 22t62 57t42.5 75.5t15.5 76.5q0 15 -4.5 32t-15.5 32.5t-32 25.5t-51 10zM572 263q22 0 36 -7.5t20.5 -19.5t8.5 -24.5t2 -26.5q0 -27 -13.5 -62t-36.5 -68t-51.5 -54t-56.5 -21q-26 0 -42.5 8.5t-24.5 21t-10.5 24.5t-2.5 24
q0 28 15.5 63.5t41.5 68t56 53t58 20.5zM926 289q-44 0 -82.5 -20t-66 -51.5t-42 -66t-14.5 -63.5q0 -36 11.5 -61.5t29 -40.5t37.5 -21.5t38 -6.5q37 0 72 22t62 57t42.5 75.5t15.5 76.5q0 15 -4.5 32t-15.5 32.5t-32 25.5t-51 10z" />
    <glyph glyph-name="Scaron" unicode="&#x160;" horiz-adv-x="444" 
d="M478 809h-36l-143 -107l-92 107h-33l98 -168h38zM272 626q-47 0 -81 -13t-55 -34.5t-30.5 -46.5t-9.5 -50q0 -47 23.5 -92t69.5 -109q38 -53 56 -85.5t18 -63.5q0 -20 -4 -39t-17 -37.5t-39.5 -30t-69.5 -11.5q-28 0 -51.5 11t-34.5 22q-12 14 -12 84q0 14 -3.5 19.5
t-9.5 5.5q-11 0 -15 -26q-1 -7 -3.5 -29.5t-3 -31.5t-2 -26.5t-1.5 -23.5q0 -17 38.5 -27t82.5 -10q45 0 84.5 10.5t70 33t47.5 57t17 81.5q0 49 -23 93t-69 105q-38 51 -56.5 84.5t-18.5 66.5q0 32 21.5 56.5t69.5 24.5q52 0 81 -18t39 -63q11 -51 23 -51q6 0 9.5 3.5
t3.5 13.5q0 4 -2 22q-7 49 -9 80q-1 10 -15 18t-37 14.5t-44.5 9.5t-37.5 3z" />
    <glyph glyph-name="guilsinglleft" unicode="&#x2039;" horiz-adv-x="333" 
d="M79 184q14 -16 43 -51q38 -44 58 -67.5t24 -23.5q7 0 7 5q0 4 -10 23t-30 55q-13 23 -21 38t-12 23q18 16 37 33.5t40.5 40t35.5 41t14 28.5q0 7 -8 7q-4 0 -22 -18l-5 -5q-12 -12 -30.5 -28t-40.5 -34t-42.5 -33.5t-37.5 -27.5v-6z" />
    <glyph glyph-name="OE" unicode="&#x152;" horiz-adv-x="889" 
d="M618 312q65 0 80.5 -8t15.5 -38q0 -8 -1 -22q-1 -10 -1 -16q0 -8 3.5 -13.5t10.5 -5.5q8 0 13 40q3 24 6 39q5 29 23 83q13 39 13 49q0 13 -11 13q-6 0 -9 -5.5t-7 -17.5q-3 -11 -5 -16q-11 -29 -46 -43.5t-116 -14.5q-21 0 -31 0.5t-16 1.5l56 224q2 8 6 12t14 4
q59 0 89.5 -1.5t49.5 -7t28 -16.5t13 -32q2 -12 2 -27q0 -22 13 -22q11 0 13 10q4 14 7.5 31t7.5 35.5t6 31.5t2 18q0 16 -14 16q-26 0 -81 -2q-86 -4 -148 -4q-26 0 -89 3q-69 3 -107 3q-67 0 -133.5 -32.5t-119 -88t-83 -122.5t-30.5 -133q0 -45 14 -88t45.5 -79t82 -57.5
t120.5 -21.5q28 0 90 3q84 5 135 5q35 0 110 -2q63 -2 95 -2q39 0 42 10q13 46 21 79.5t8 40.5q0 6 -2.5 10.5t-7.5 4.5t-9 -7t-10 -23l-3 -8q-5 -12 -14.5 -23.5t-33 -23.5t-65.5 -20t-104 -8q-47 0 -62 5.5t-15 23.5q0 14 3 26l57 229h79zM396 75q-8 -33 -30.5 -45
t-67.5 -12q-51 0 -86 18t-54 45.5t-26.5 57t-7.5 55.5q0 75 25 146.5t68 127.5t97 88t111 32q37 0 59.5 -9t22.5 -39q0 -7 -4 -26q-1 -2 -1 -3z" />
    <glyph glyph-name="quoteleft" unicode="&#x2018;" horiz-adv-x="222" 
d="M78 422q0 -27 7.5 -38.5t23.5 -11.5q21 0 38 22.5t17 53.5q0 19 -9 26.5t-23 7.5q-2 0 -7 -1q-5 -2 -7 -2q-3 0 -3 5q0 3 4.5 15.5t14.5 30t28 38t43 39.5q1 1 3 2q8 5 8 9q0 8 -7 8q-9 0 -30.5 -17t-45 -45.5t-39.5 -65.5t-16 -76z" />
    <glyph glyph-name="quoteright" unicode="&#x2019;" horiz-adv-x="222" 
d="M198 576q0 27 -7.5 38.5t-23.5 11.5q-21 0 -38 -22.5t-17 -53.5q0 -19 9 -26.5t23 -7.5q2 0 7 2q5 1 7 1q3 0 3 -5q0 -3 -4.5 -15.5t-14.5 -30t-28 -38t-43 -39.5q-1 -1 -3 -2q-8 -5 -8 -9q0 -8 7 -8q9 0 30.5 17t45 45.5t39.5 65.5t16 76z" />
    <glyph glyph-name="quotedblleft" unicode="&#x201c;" horiz-adv-x="389" 
d="M245 422q0 -27 7.5 -38.5t23.5 -11.5q21 0 38 22.5t17 53.5q0 19 -9 26.5t-23 7.5q-2 0 -7 -1q-5 -2 -7 -2q-3 0 -3 5q0 3 4.5 15.5t14.5 30t28 38t43 39.5q1 1 3 2q8 5 8 9q0 8 -7 8q-9 0 -30.5 -17t-45 -45.5t-39.5 -65.5t-16 -76zM78 422q0 -27 7.5 -38.5t23.5 -11.5
q21 0 38 22.5t17 53.5q0 19 -9 26.5t-23 7.5q-2 0 -7 -1q-5 -2 -7 -2q-3 0 -3 5q0 3 4.5 15.5t14.5 30t28 38t43 39.5q1 1 3 2q8 5 8 9q0 8 -7 8q-9 0 -30.5 -17t-45 -45.5t-39.5 -65.5t-16 -76z" />
    <glyph glyph-name="quotedblright" unicode="&#x201d;" horiz-adv-x="389" 
d="M198 576q0 27 -7.5 38.5t-23.5 11.5q-21 0 -38 -22.5t-17 -53.5q0 -19 9 -26.5t23 -7.5q2 0 7 2q5 1 7 1q3 0 3 -5q0 -3 -4.5 -15.5t-14.5 -30t-28 -38t-43 -39.5q-1 -1 -3 -2q-8 -5 -8 -9q0 -8 7 -8q9 0 30.5 17t45 45.5t39.5 65.5t16 76zM365 576q0 27 -7.5 38.5
t-23.5 11.5q-21 0 -38 -22.5t-17 -53.5q0 -19 9 -26.5t23 -7.5q2 0 7 2q5 1 7 1q3 0 3 -5q0 -3 -4.5 -15.5t-14.5 -30t-28 -38t-43 -39.5q-1 -1 -3 -2q-8 -5 -8 -9q0 -8 7 -8q9 0 30.5 17t45 45.5t39.5 65.5t16 76z" />
    <glyph glyph-name="bullet" unicode="&#x2022;" 
d="M250 456q-31 0 -58.5 -11.5t-49 -33t-33 -49t-11.5 -58.5t11.5 -58.5t33 -49t49 -33t58.5 -11.5t58.5 11.5t49 33t33 49t11.5 58.5t-11.5 58.5t-33 49t-49 33t-58.5 11.5z" />
    <glyph glyph-name="endash" unicode="&#x2013;" 
d="M7 208l-14 -38h500l14 38h-500z" />
    <glyph glyph-name="emdash" unicode="&#x2014;" horiz-adv-x="1000" 
d="M7 208l-14 -38h1000l14 38h-1000z" />
    <glyph glyph-name="tilde" unicode="&#x2dc;" horiz-adv-x="278" 
d="M101 466q5 25 20 36.5t32 11.5q16 0 58 -18q9 -3 13 -5l5 -2q26 -10 42 -15.5t30 -5.5q19 0 35 10t29 28q21 28 30 66h-26q-2 -17 -16.5 -32.5t-31.5 -15.5q-10 0 -25 5t-41 15l-5 2q-29 11 -47 16.5t-33 5.5q-42 0 -64 -28.5t-31 -73.5h26z" />
    <glyph glyph-name="trademark" unicode="&#x2122;" horiz-adv-x="990" 
d="M279 590h52q29 0 44.5 -18.5t24.5 -51.5h18v88h-334v-88h18q9 33 24.5 51.5t44.5 18.5h52v-310q0 -38 -5.5 -45.5t-36.5 -11.5q-6 -1 -8 -1v-18h156v18q-2 0 -7 1q-32 4 -37.5 11.5t-5.5 45.5v310zM713 201h9l156 318h2v-239q0 -38 -5 -45.5t-37 -11.5q-5 -1 -7 -1v-18
h155v18q-2 0 -7 1q-32 4 -37.5 11.5t-5.5 45.5v251q0 28 13.5 43t44.5 16v18h-93l-167 -322l-161 322h-109v-18q23 0 45.5 -14.5t22.5 -34.5v-256q0 -32 -11 -45.5t-42 -17.5v-18h130v18q-31 4 -42 17.5t-11 45.5v231h2z" />
    <glyph glyph-name="scaron" unicode="&#x161;" horiz-adv-x="278" 
d="M404 610h-36l-143 -107l-92 107h-33l98 -168h38zM201 394q-54 0 -82.5 -32.5t-28.5 -88.5q0 -16 5 -36t14 -52l4 -14l2 -8q11 -35 16 -56.5t5 -39.5q0 -24 -12 -41.5t-44 -17.5q-14 0 -21.5 7t-16.5 21q-7 13 -13.5 19.5t-18.5 6.5q-10 0 -18 -7.5t-8 -19.5
q0 -24 19 -37.5t61 -13.5q58 0 90 32t32 91q0 24 -5.5 49.5t-16.5 63.5l-1 4q-2 6 -5 17q-18 63 -18 87q0 22 9.5 32t22.5 10q8 0 14 -4.5t14 -14.5q10 -10 17.5 -15.5t17.5 -5.5t17.5 5t7.5 19q0 20 -16.5 30t-42.5 10z" />
    <glyph glyph-name="guilsinglright" unicode="&#x203a;" horiz-adv-x="333" 
d="M245 194q-14 16 -43 51q-38 45 -58 68t-24 23q-7 0 -7 -5q0 -4 10 -23t30 -55q13 -23 21 -38t12 -23q-18 -15 -37 -33t-40.5 -40.5t-35.5 -41t-14 -28.5q0 -7 8 -7q4 0 22 18l5 5q12 12 30.5 28t40.5 34t42.5 33.5t37.5 27.5v6z" />
    <glyph glyph-name="oe" unicode="&#x153;" 
d="M469 340q0 -28 -17.5 -54.5t-45 -48t-57.5 -35t-54 -17.5q29 88 64 139.5t74 51.5q36 0 36 -36zM433 394q-40 0 -68.5 -23t-56.5 -60l-2 -2l-1 4q-3 10 -8 22.5t-15 26t-25.5 23t-36.5 9.5q-34 0 -71 -24.5t-67.5 -65.5t-48.5 -91t-18 -97q0 -20 4 -41.5t14 -42.5
t28.5 -34.5t45.5 -13.5q38 0 62.5 13.5t51.5 38.5q9 9 12 11q20 -63 75 -63q30 0 59 18t51.5 43t36.5 48t14 27q0 6 -7 6q-2 0 -15 -15q-23 -28 -48 -47.5t-56 -19.5q-64 0 -64 64q0 9 3 24.5t8 27.5q42 10 78.5 22t66.5 30.5t48 45.5t18 61q0 33 -16 54t-52 21zM221 376
q28 0 37.5 -18t9.5 -48q0 -22 -13 -73.5t-35 -105.5t-50.5 -91.5t-58.5 -37.5q-25 0 -37.5 14t-12.5 36q0 38 14.5 93.5t38.5 108.5t52.5 87.5t54.5 34.5z" />
    <glyph glyph-name="Ydieresis" unicode="&#x178;" horiz-adv-x="667" 
d="M328 750q-18 0 -31.5 -13.5t-13.5 -31.5t13.5 -31.5t31.5 -13.5t31.5 13.5t13.5 31.5t-13.5 31.5t-31.5 13.5zM528 750q-18 0 -31.5 -13.5t-13.5 -31.5t13.5 -31.5t31.5 -13.5t31.5 13.5t13.5 31.5t-13.5 31.5t-31.5 13.5zM225 59q-3 -14 -9 -20t-20 -12l-1 -1
q-3 -2 -17 -4q-18 -3 -29 -7.5t-11 -11.5q0 -9 13 -9q9 0 30 1t43 3q37 2 41 2q32 0 52.5 -1.5t37.5 -2.5q17 -2 23 -2q24 0 24 11q0 5 -11 8t-34 7q-25 3 -31 6q-14 7 -16 21q0 10 4 25v1l34 158q7 30 12.5 49.5t12.5 26.5l235 228q17 16 33.5 26.5t35.5 20.5q24 12 24 18
q0 14 -19 14q-4 0 -25 -2q-32 -4 -45 -4q-38 0 -74 5q-12 1 -17 1q-19 0 -19 -14q0 -9 36 -17l3 -1q11 -3 17.5 -7.5t6.5 -12.5q0 -15 -15 -34t-37 -41l-3 -3l-137 -144l-1 -1q-8 -8 -13.5 -12.5t-9.5 -4.5t-7 6l-2 3l-96 194q-9 18 -9 33q0 19 29 24q30 5 40.5 8.5
t10.5 9.5q0 8 -7 11t-17 3q-8 0 -32 -2q-50 -4 -84 -4q-18 0 -42 3q-21 3 -34 3q-23 0 -23 -15q0 -5 5.5 -8t17.5 -7q5 -1 7 -2q11 -4 19.5 -11t15.5 -21l130 -262q3 -6 3 -12q0 -11 -3 -23z" />
    <glyph glyph-name="exclamdown" unicode="&#xa1;" horiz-adv-x="389" 
d="M260 359q0 33 -35 33q-19 0 -37 -22t-18 -59q0 -15 8.5 -23t20.5 -8q23 0 42 21.5t19 57.5zM27 -220q21 0 30.5 11t15.5 28l1 2q8 22 12 39.5t11 51.5q5 29 10.5 54.5t15.5 59.5q16 55 27 88t18 52q6 15 6 19q0 11 -8 11q-7 0 -12.5 -10t-11.5 -28q-1 -4 -3 -9
q-18 -49 -39.5 -96.5t-52.5 -111.5q-28 -61 -40.5 -90t-12.5 -42q0 -12 8.5 -20.5t24.5 -8.5z" />
    <glyph glyph-name="cent" unicode="&#xa2;" 
d="M365 526h-26l-43 -132q-49 -5 -92 -36.5t-73.5 -79.5t-47.5 -102t-17 -102q0 -39 20.5 -62.5t49.5 -23.5q12 0 24 2l-50 -148h26l51 152q30 13 59 35t51 44.5t35.5 40.5t13.5 22q0 11 -8 11q-6 0 -21 -18q-19 -24 -43 -44.5t-68 -38.5l102 307q4 -2 12 -10
q10 -10 18.5 -15.5t20.5 -5.5q18 0 25 9t7 20q0 18 -17.5 30.5t-50.5 12.5zM179 46q-23 0 -38 12.5t-15 37.5q0 34 13 82t34.5 92t47.5 73t52 29q4 0 12 -2h2z" />
    <glyph glyph-name="sterling" unicode="&#xa3;" 
d="M376 314h-139q0 7 1 15q2 53 6 91t17.5 75.5t41.5 61t74 23.5q40 0 58.5 -18t18.5 -63v-18q-1 -13 -1 -14q0 -28 8 -28q6 0 9.5 6t7.5 19q3 7 3 8l4 10q9 20 14 36t5 29q0 18 -15 29t-37 16.5t-41.5 7.5t-34.5 2q-53 0 -93.5 -24t-72.5 -76q-13 -21 -19.5 -39t-10.5 -39
q-5 -31 -5 -110h-122v-22h119q1 -23 1 -35q2 -40 2 -63q0 -39 -8.5 -68t-19.5 -51l-1 1q-31 14 -51.5 21t-41.5 7q-32 0 -49.5 -16t-17.5 -49q0 -17 7 -28t18 -17.5t21.5 -9t17.5 -2.5q28 0 53.5 15t48.5 39l11 -7q34 -22 69 -34.5t62 -12.5q26 0 50.5 12.5t43 31.5t29.5 37
t11 27q0 14 -7 14q-2 0 -13 -10q-23 -22 -47.5 -37t-59.5 -15q-84 0 -129 24q26 36 42.5 98t21.5 128h140v22zM12 41q0 17 12.5 27t31.5 10q11 0 33 -7.5t42 -19.5q-11 -19 -33.5 -31t-45.5 -12q-22 0 -31 9t-9 24z" />
    <glyph glyph-name="currency" unicode="&#xa4;" 
d="M7 86l37 -37l52 57q66 -57 156 -57q42 0 81 14.5t71 42.5l52 -57l37 37l-52 55q52 65 52 152q0 42 -13 81.5t-40 70.5l53 53l-37 37l-55 -54q-64 54 -148 54q-42 0 -82 -13.5t-72 -40.5l-55 54l-37 -37l55 -56q-29 -30 -42 -69t-13 -82q0 -83 53 -149zM443 292
q0 -40 -15 -76t-41.5 -63.5t-62 -42.5t-74.5 -15t-74.5 15t-62 42t-41.5 63.5t-15 76.5t15 76.5t41.5 63.5t62 42t74.5 15t74.5 -15t62 -42t41.5 -63.5t15 -76.5z" />
    <glyph glyph-name="yen" unicode="&#xa5;" 
d="M421 353h-94l124 161q19 24 51 45q17 11 17 17q0 14 -14 14q-3 0 -18 -2q-24 -4 -33 -4q-27 0 -53 5q-9 1 -12 1q-13 0 -13 -14q0 -8 27 -17q9 -3 13.5 -8t4.5 -17q0 -7 -22 -42t-51.5 -76t-54.5 -74t-28 -33t-5 7l-1 2l-69 186q-7 17 -7 32q0 18 21 23q37 9 37 17t-5 11
t-13 3q-6 0 -22 -2q-35 -4 -61 -4q-13 0 -31 3q-14 3 -24 3q-17 0 -17 -15q0 -7 16 -14l6 -2q17 -7 25 -31l66 -175h-100l-8 -22h116l20 -54q2 -4 2 -12q0 -10 -1 -16h-115l-7 -22h118l-30 -170q-3 -14 -7 -19t-13 -12l-2 -1q-2 -1 -13 -4q-13 -4 -20.5 -7.5t-7.5 -10.5
q0 -9 10 -9q3 0 12 1q31 5 65 5q26 0 40.5 -1t28.5 -3q12 -2 17 -2q18 0 18 11q0 5 -8 7.5t-24 6.5q-19 3 -23 6q-12 7 -12 20t3 25l25 157h120l7 22h-123q4 19 7 30t7 16l27 36h104z" />
    <glyph glyph-name="brokenbar" unicode="&#xa6;" horiz-adv-x="222" 
d="M92 -175h38v350h-38v-350zM92 325h38v350h-38v-350z" />
    <glyph glyph-name="section" unicode="&#xa7;" 
d="M303 626q-72 0 -111.5 -36t-39.5 -90q0 -35 16 -64.5t42 -62.5q8 -11 9 -12l-3 -2q-1 0 -2 1q-9 3 -19.5 5.5t-27.5 2.5q-44 0 -76.5 -33t-32.5 -94q0 -51 28.5 -93.5t82.5 -100.5q44 -46 65.5 -76.5t21.5 -62.5q0 -24 -10 -41t-25.5 -27.5t-33.5 -15t-34 -4.5
q-8 0 -19.5 2t-23.5 6.5t-20 11.5t-8 16q0 7 14 16q13 9 20.5 18.5t7.5 28.5t-14 32t-32 13q-20 0 -39 -15t-19 -45q0 -41 39.5 -73.5t94.5 -32.5q73 0 115.5 41t42.5 94q0 38 -13.5 63.5t-37.5 55.5q-7 8 -11 13l1 2q6 -3 18 -5t21 -2q48 0 80 36t32 90q0 53 -27 95t-78 97
q-43 46 -64 77t-21 66q0 39 24.5 61t71.5 22q20 0 37 -6t17 -23q0 -10 -13 -21q-9 -8 -14 -15.5t-5 -21.5q0 -21 13.5 -33t35.5 -12q26 0 38.5 18t12.5 38q0 43 -38 70.5t-89 27.5zM183 346q23 0 40.5 -10t42.5 -38q14 -16 27 -33t25 -36t20 -39t8 -38q0 -20 -7.5 -33.5
t-19.5 -21.5t-23.5 -11.5t-20.5 -3.5q-17 0 -38 13.5t-37 33.5q-7 9 -22 27q-32 38 -48 66.5t-16 63.5q0 21 18.5 40.5t50.5 19.5z" />
    <glyph glyph-name="dieresis" unicode="&#xa8;" horiz-adv-x="278" 
d="M133 551q-18 0 -31.5 -13.5t-13.5 -31.5t13.5 -31.5t31.5 -13.5t31.5 13.5t13.5 31.5t-13.5 31.5t-31.5 13.5zM333 551q-18 0 -31.5 -13.5t-13.5 -31.5t13.5 -31.5t31.5 -13.5t31.5 13.5t13.5 31.5t-13.5 31.5t-31.5 13.5z" />
    <glyph glyph-name="copyright" unicode="&#xa9;" horiz-adv-x="800" 
d="M420 -18q64 0 121.5 25t101 69.5t68 103t24.5 123.5q0 66 -24 124.5t-68 103.5t-101.5 70t-121.5 25q-63 0 -121 -25t-101.5 -70t-68 -104t-24.5 -124t24.5 -123.5t68 -103t101 -69.5t121.5 -25zM420 16q-54 0 -103.5 23t-87 64t-59 93t-21.5 107t21 107.5t59 93.5
t87.5 64.5t103.5 23.5q55 0 104.5 -23t87 -64t58.5 -93.5t21 -108.5q0 -55 -21 -107t-59 -93t-87.5 -64t-103.5 -23zM563 222q-14 -35 -41 -56.5t-74 -21.5q-73 0 -110 46t-37 125q1 71 36 114.5t103 43.5q55 0 80 -24.5t27 -59.5h14v65q0 13 -19 20q-24 9 -44 13t-53 4
q-48 0 -86.5 -16.5t-64 -43t-38.5 -58.5t-13 -62q0 -49 15.5 -84.5t43 -57.5t62.5 -32.5t76 -10.5q30 0 54 4.5t44 10.5q12 4 16.5 7.5t6.5 10.5l16 63h-14z" />
    <glyph glyph-name="ordfeminine" unicode="&#xaa;" horiz-adv-x="266" 
d="M269 577q4 7 4 11q0 8 -15 8q-12 0 -17 -3.5t-11 -13.5q-5 -11 -17 -11q-2 0 -8 1q-11 1 -18 1q-27 0 -61 -17.5t-64.5 -45.5t-49.5 -59t-19 -57q0 -14 6.5 -24.5t22.5 -10.5q26 0 61 23.5t65 53.5l26 28l2 -2l1 1q-1 -2 -6 -11q-15 -29 -24.5 -50t-9.5 -32t15 -11
q12 0 31 11.5t38 27.5t32 30t13 17q0 5 -6 5q-3 0 -18 -16q-18 -18 -31 -28.5t-23 -10.5q-7 0 -7 4t4 10zM33 410q0 18 15.5 43.5t40 49t51 38.5t46.5 15q24 0 24 -18q0 -14 -17.5 -38.5t-44 -49.5t-52.5 -41.5t-42 -16.5q-21 0 -21 18z" />
    <glyph glyph-name="guillemotleft" unicode="&#xab;" 
d="M104 184q14 -16 43 -51q38 -44 58 -67.5t24 -23.5q7 0 7 5q0 4 -10 23t-30 55q-13 23 -21 38t-12 23q18 16 37 33.5t40.5 40t35.5 41t14 28.5q0 7 -8 7q-4 0 -22 -18l-5 -5q-12 -12 -30.5 -28t-40.5 -34t-42.5 -33.5t-37.5 -27.5v-6zM236 184q14 -16 43 -51
q38 -44 58 -67.5t24 -23.5q7 0 7 5q0 4 -10 23t-30 55q-13 23 -21 38t-12 23q18 16 37 33.5t40.5 40t35.5 41t14 28.5q0 7 -8 7q-4 0 -22 -18l-5 -5q-12 -12 -30.5 -28t-40.5 -34t-42.5 -33.5t-37.5 -27.5v-6z" />
    <glyph glyph-name="logicalnot" unicode="&#xac;" horiz-adv-x="600" 
d="M430 97h38v184h-378v-38h340v-146z" />
    <glyph glyph-name="minus" unicode="&#xad;" horiz-adv-x="600" 
d="M468 170v38h-378v-38h378z" />
    <glyph glyph-name="minus" unicode="&#x2212;" horiz-adv-x="600" 
d="M468 170v38h-378v-38h378z" />
    <glyph glyph-name="registered" unicode="&#xae;" horiz-adv-x="800" 
d="M420 -18q64 0 121.5 25t101 69.5t68 103t24.5 123.5q0 66 -24 124.5t-68 103.5t-101.5 70t-121.5 25q-63 0 -121 -25t-101.5 -70t-68 -104t-24.5 -124t24.5 -123.5t68 -103t101 -69.5t121.5 -25zM420 16q-54 0 -103.5 23t-87 64t-59 93t-21.5 107t21 107.5t59 93.5
t87.5 64.5t103.5 23.5q55 0 104.5 -23t87 -64t58.5 -93.5t21 -108.5q0 -55 -21 -107t-59 -93t-87.5 -64t-103.5 -23zM271 467l8 -1q29 -3 34 -9t5 -38v-222q0 -32 -5 -38t-36 -10q-4 -1 -6 -1v-12h146v12q-2 0 -6 1q-31 4 -36 10t-5 38v92h52q19 -28 49 -75
q28 -45 42.5 -61.5t29.5 -16.5h50v7q-13 7 -33.5 29t-42.5 51l-54 74q33 11 54.5 37t21.5 62q0 41 -32.5 62.5t-77.5 21.5h-158v-13zM370 464h42q33 0 54 -17.5t21 -54.5q0 -87 -71 -87h-46v159z" />
    <glyph glyph-name="macron" unicode="&#xaf;" horiz-adv-x="278" 
d="M384 531h-296l-8 -48h296z" />
    <glyph glyph-name="degree" unicode="&#xb0;" horiz-adv-x="400" 
d="M218 346q-45 0 -76 34t-31 79t31 79t76 34t76 -34t31 -79t-31 -79t-76 -34zM218 316q60 0 101.5 41.5t41.5 101.5t-41.5 101.5t-101.5 41.5t-101.5 -41.5t-41.5 -101.5t41.5 -101.5t101.5 -41.5z" />
    <glyph glyph-name="plusminus" unicode="&#xb1;" horiz-adv-x="600" 
d="M260 242h-170v-38h170v-137h38v137h170v38h-170v136h-38v-136zM90 0h378v38h-378v-38z" />
    <glyph glyph-name="twosuperior" unicode="&#xb2;" horiz-adv-x="300" 
d="M181 602q-25 0 -45.5 -8t-33.5 -20t-20 -22.5t-7 -14.5q0 -7 6 -7q4 0 13 11q13 16 28.5 26.5t42.5 10.5q30 0 53.5 -19t23.5 -56q0 -22 -17 -48t-44.5 -53t-54 -48t-65.5 -51q-46 -35 -56 -45l-4 -3q-8 -6 -8 -10q0 -6 8 -6q5 0 31 1q70 2 86 2t58 -1q30 -1 46 -1
q8 0 11 6q2 5 8.5 22t6.5 21q0 7 -6 7q-4 0 -7 -4l-2 -2q-8 -12 -14 -15t-24 -4q-16 -1 -49 -1q-28 0 -48 1q-17 1 -28 2.5t-11 3.5t5.5 7t14.5 12q2 1 17 13l59.5 45.5t20.5 15t20 13.5q38 23 67 58t29 68q0 16 -5.5 32t-18.5 30t-34.5 22.5t-52.5 8.5z" />
    <glyph glyph-name="threesuperior" unicode="&#xb3;" horiz-adv-x="300" 
d="M167 582q30 0 44 -14.5t14 -35.5q0 -36 -30 -57.5t-73 -33.5l-19 -5q-35 -10 -35 -19q0 -4 7 -4q2 0 15 4l22.5 6t14.5 2q33 0 57 -20.5t24 -59.5q0 -30 -14 -54.5t-36 -41.5t-44.5 -25.5t-38.5 -8.5q-10 0 -24 9q-14 8 -24 8q-22 0 -22 -16q0 -12 11.5 -16.5t29.5 -4.5
q36 0 73.5 11t69 31.5t50.5 49.5t19 63q0 23 -8 40t-20.5 27.5t-23 15.5t-21.5 9q-4 2 -5 2q-2 2 -2 3q0 2 14 8q30 14 51.5 32.5t21.5 48.5q0 20 -8.5 33t-21.5 20.5t-27 10t-28 2.5q-24 0 -40.5 -7t-25.5 -16.5t-13.5 -17.5t-4.5 -10q0 -6 5 -6q3 0 10 9q11 12 23.5 20
t32.5 8z" />
    <glyph glyph-name="acute" unicode="&#xb4;" horiz-adv-x="278" 
d="M191 442l155 97q15 9 23.5 17.5t8.5 19.5q0 17 -10 26.5t-22 9.5q-8 0 -15.5 -5t-18.5 -15l-6 -6l-146 -144h31z" />
    <glyph glyph-name="mu" unicode="&#xb5;" horiz-adv-x="444" 
d="M407 330q9 19 14.5 33t5.5 18q0 9 -20 9q-16 0 -22 -2t-9 -8q-2 -3 -12 -25q-13 -28 -23.5 -50t-19.5 -38q-10 -19 -41.5 -56.5t-70 -76.5t-71 -65.5t-47.5 -26.5q-11 0 -11 8q0 5 3 11q0 1 1 3l136 266q6 13 9.5 23t3.5 24q0 17 -27 17q-23 0 -49 -15t-50 -37t-39.5 -42
t-15.5 -27q0 -8 8 -8q2 0 20 20q24 27 43 44t32 17q12 0 12 -10q0 -4 -13 -27q0 -1 -5 -10l-211 -403q-29 -56 -38.5 -77t-9.5 -30t8 -9q7 0 15.5 6.5t20.5 18.5l3 3q18 18 32 42t36 67l11 23l19 44q48 13 143 95q28 23 48 44.5t42 47.5q16 19 18 19q1 0 1 -5q0 -2 -1.5 -5
t-7.5 -17q-12 -24 -22 -46l-31 -67q-11 -25 -11 -36q0 -13 7.5 -21.5t20.5 -8.5q21 0 47.5 16t50 38.5t40 42.5t16.5 25q0 10 -10 10q-2 0 -8 -6.5t-19 -20.5q-26 -29 -45.5 -47t-31.5 -18q-8 0 -8 9q0 5 3 11l1 3z" />
    <glyph glyph-name="paragraph" unicode="&#xb6;" horiz-adv-x="600" 
d="M614 608h-240q-127 0 -199.5 -74.5t-72.5 -206.5q0 -61 41 -95.5t121 -34.5l-117 -451h50l215 832h59l-215 -832h50l191 739q2 9 6 23q4 16 7 26.5t9 23.5t23.5 18t55.5 9l10 1z" />
    <glyph glyph-name="periodcentered" unicode="&#xb7;" horiz-adv-x="250" 
d="M109 244q-21 0 -38 -17t-17 -38t17 -38t38 -17t38 17t17 38t-17 38t-38 17z" />
    <glyph glyph-name="periodcentered" unicode="&#x2219;" horiz-adv-x="250" 
d="M109 244q-21 0 -38 -17t-17 -38t17 -38t38 -17t38 17t17 38t-17 38t-38 17z" />
    <glyph glyph-name="cedilla" unicode="&#xb8;" horiz-adv-x="278" 
d="M71 0h-36l-62 -93l7 -10l5 1q23 6 33 6q20 0 33 -10t13 -30q0 -24 -21 -34t-47 -10q-16 0 -52 12q-1 0 -3 1l-19 -26q27 -12 50.5 -16.5t39.5 -4.5q52 0 86 21.5t34 60.5q0 32 -21 51t-55 19q-12 0 -29 -3z" />
    <glyph glyph-name="onesuperior" unicode="&#xb9;" horiz-adv-x="300" 
d="M236 588q1 2 1 7q0 7 -13 7q-3 0 -16.5 -4.5t-38.5 -12.5q-28 -10 -36.5 -12.5t-13.5 -3.5q-19 -5 -19 -9q0 -8 5 -8q7 0 33 8q25 7 32 7q6 0 7.5 -2.5t1.5 -7.5v-9l-73 -269q-3 -10 -10.5 -13t-24.5 -5l-4 -1q-14 -1 -20.5 -5.5t-6.5 -9.5t8 -5q15 0 45 1t45 1
q16 0 42 -1q12 -1 13 -1q18 0 18 3q0 16 -22 17h-5q-16 1 -25 3.5t-9 8.5q0 12 5 25z" />
    <glyph glyph-name="ordmasculine" unicode="&#xba;" horiz-adv-x="200" 
d="M44 397q0 17 8.5 49t23 65.5t33.5 56t39 22.5q14 0 20 -11t6 -25q0 -15 -9 -45.5t-24.5 -63.5t-33.5 -55t-36 -22q-16 0 -21.5 9t-5.5 20zM16 437q0 -32 11.5 -56.5t40.5 -24.5q25 0 49 14t43.5 38t30.5 53t11 56q0 38 -14 61.5t-42 23.5q-20 0 -43 -12.5t-42.5 -35
t-32 -53t-12.5 -64.5z" />
    <glyph glyph-name="guillemotright" unicode="&#xbb;" 
d="M396 194q-14 16 -43 51q-38 45 -58 68t-24 23q-7 0 -7 -5q0 -4 10 -23t30 -55q13 -23 21 -38t12 -23q-18 -15 -37 -33t-40.5 -40.5t-35.5 -41t-14 -28.5q0 -7 8 -7q4 0 22 18l5 5q12 12 30.5 28t40.5 34t42.5 33.5t37.5 27.5v6zM264 194q-14 16 -43 51q-38 45 -58 68
t-24 23q-7 0 -7 -5q0 -4 10 -23t30 -55q13 -23 21 -38t12 -23q-18 -15 -37 -33t-40.5 -40.5t-35.5 -41t-14 -28.5q0 -7 8 -7q4 0 22 18l5 5q12 12 30.5 28t40.5 34t42.5 33.5t37.5 27.5v6z" />
    <glyph glyph-name="onequarter" unicode="&#xbc;" horiz-adv-x="750" 
d="M426 119q-7 -7 -7 -15q0 -14 19 -14h138q14 0 14 -7q0 -2 -2 -10q-2 -7 -2 -9l-22 -81q0 -1 -1 -4t-1 -6t4 -4t18 -1q21 0 22 6l31 108q2 6 10 6h34q13 0 17.5 3.5t4.5 12.5q0 6 -2 8t-9 3l-48 3l37 148q2 6 2 9q0 7 -16 7q-24 0 -27 -9l-41 -155h-123q-15 0 -18.5 0.5
t-3.5 2.5t3 4q1 2 2 3l251 272q3 2 3 6t-5.5 8t-9.5 4q-9 0 -15 -6zM628 602h-43l-458 -620h43zM236 588q1 2 1 7q0 7 -13 7q-3 0 -16.5 -4.5t-38.5 -12.5q-28 -10 -36.5 -12.5t-13.5 -3.5q-19 -5 -19 -9q0 -8 5 -8q7 0 33 8q25 7 32 7q6 0 7.5 -2.5t1.5 -7.5v-9l-73 -269
q-3 -10 -10.5 -13t-24.5 -5l-4 -1q-14 -1 -20.5 -5.5t-6.5 -9.5t8 -5q15 0 45 1t45 1q16 0 42 -1q12 -1 13 -1q18 0 18 3q0 16 -22 17h-5q-16 1 -25 3.5t-9 8.5q0 12 5 25z" />
    <glyph glyph-name="onehalf" unicode="&#xbd;" horiz-adv-x="750" 
d="M613 602h-43l-458 -620h43zM601 360q-25 0 -45.5 -8t-33.5 -20t-20 -22.5t-7 -14.5q0 -7 6 -7q4 0 13 11q13 16 28.5 26.5t42.5 10.5q30 0 53.5 -19t23.5 -56q0 -22 -17 -48t-44.5 -53t-54 -48t-65.5 -51q-46 -35 -56 -45l-4 -3q-8 -6 -8 -10q0 -6 8 -6q5 0 31 1
q70 2 86 2t58 -1q30 -1 46 -1q8 0 11 6q2 5 8.5 22t6.5 21q0 7 -6 7q-4 0 -7 -4l-2 -2q-8 -12 -14 -15t-24 -4q-16 -1 -49 -1q-28 0 -48 1q-17 1 -28 2.5t-11 3.5t5.5 7t14.5 12q2 1 17 13l59.5 45.5t20.5 15t20 13.5q38 23 67 58t29 68q0 16 -5.5 32t-18.5 30t-34.5 22.5
t-52.5 8.5zM236 588q1 2 1 7q0 7 -13 7q-3 0 -16.5 -4.5t-38.5 -12.5q-28 -10 -36.5 -12.5t-13.5 -3.5q-19 -5 -19 -9q0 -8 5 -8q7 0 33 8q25 7 32 7q6 0 7.5 -2.5t1.5 -7.5v-9l-73 -269q-3 -10 -10.5 -13t-24.5 -5l-4 -1q-14 -1 -20.5 -5.5t-6.5 -9.5t8 -5q15 0 45 1t45 1
q16 0 42 -1q12 -1 13 -1q18 0 18 3q0 16 -22 17h-5q-16 1 -25 3.5t-9 8.5q0 12 5 25z" />
    <glyph glyph-name="threequarters" unicode="&#xbe;" horiz-adv-x="750" 
d="M426 119q-7 -7 -7 -15q0 -14 19 -14h138q14 0 14 -7q0 -2 -2 -10q-2 -7 -2 -9l-22 -81q0 -1 -1 -4t-1 -6t4 -4t18 -1q21 0 22 6l31 108q2 6 10 6h34q13 0 17.5 3.5t4.5 12.5q0 6 -2 8t-9 3l-48 3l37 148q2 6 2 9q0 7 -16 7q-24 0 -27 -9l-41 -155h-123q-15 0 -18.5 0.5
t-3.5 2.5t3 4q1 2 2 3l251 272q3 2 3 6t-5.5 8t-9.5 4q-9 0 -15 -6zM633 602h-43l-458 -620h43zM185 582q30 0 44 -14.5t14 -35.5q0 -36 -30 -57.5t-73 -33.5l-19 -5q-35 -10 -35 -19q0 -4 7 -4q2 0 15 4l22.5 6t14.5 2q33 0 57 -20.5t24 -59.5q0 -30 -14 -54.5t-36 -41.5
t-44.5 -25.5t-38.5 -8.5q-10 0 -24 9q-14 8 -24 8q-22 0 -22 -16q0 -12 11.5 -16.5t29.5 -4.5q36 0 73.5 11t69 31.5t50.5 49.5t19 63q0 23 -8 40t-20.5 27.5t-23 15.5t-21.5 9q-4 2 -5 2q-2 2 -2 3q0 2 14 8q30 14 51.5 32.5t21.5 48.5q0 20 -8.5 33t-21.5 20.5t-27 10
t-28 2.5q-24 0 -40.5 -7t-25.5 -16.5t-13.5 -17.5t-4.5 -10q0 -6 5 -6q3 0 10 9q11 12 23.5 20t32.5 8z" />
    <glyph glyph-name="questiondown" unicode="&#xbf;" 
d="M154 -220q40 0 60 15.5t20 30.5q0 22 -23 22q-11 0 -19.5 -5t-20.5 -15q-13 -12 -24.5 -18t-25.5 -6q-31 0 -51 26t-20 69q0 69 45.5 118t139.5 72q17 5 22 8q7 5 16.5 20.5t18 36.5t14 38.5t5.5 25.5q0 10 -6 10q-4 0 -9 -8t-15 -27q-8 -17 -14.5 -28t-12.5 -15t-29 -10
q-48 -12 -90 -33t-80 -68q-17 -20 -27 -48.5t-10 -66.5t11.5 -65.5t31 -45t43.5 -25.5t50 -8zM384 359q0 33 -35 33q-19 0 -37 -22t-18 -59q0 -15 8.5 -23t20.5 -8q23 0 42 21.5t19 57.5z" />
    <glyph glyph-name="Agrave" unicode="&#xc0;" horiz-adv-x="667" 
d="M479 641l-117 149q-16 21 -38 21q-12 0 -20.5 -9.5t-8.5 -22.5q0 -16 18 -30l137 -108h29zM91 124q-2 -2 -8 -14q-18 -34 -33 -53q-10 -13 -21 -20.5t-27 -15.5q-21 -11 -21 -19t12 -8q3 0 17 1q43 5 71 5q19 0 41 -1.5t38 -3.5q8 -1 10 -1q8 0 11 1.5t3 7.5
q0 9 -9.5 13.5t-28.5 10.5q-20 6 -30 11.5t-10 14.5q0 5 3 11t8 14v1l101 186q5 10 13 13t31 3q21 0 61 -1t61 -1q15 0 20 -2.5t6 -7.5l25 -160q1 -7 3 -17q3 -18 3 -26q0 -20 -12.5 -28.5t-33.5 -11.5q-15 -2 -25 -6t-10 -13q0 -6 3.5 -9.5t13.5 -3.5q6 0 22 2q36 4 73 4
q32 0 78 -4q22 -2 31 -2q11 0 14 1.5t3 6.5q0 6 -10.5 10.5t-30.5 9.5q-13 4 -14 4q-16 5 -19 20l-92 505q-2 9 -4.5 30t-2.5 27q0 18 -18 18q-11 0 -18.5 -7.5t-18.5 -26.5l-8 -14zM402 315q-13 0 -48 -1q-24 -1 -34 -1q-6 0 -31 1q-36 1 -46 1l107 201q1 2 2 5q4 9 9 9
q3 0 5 -5t3 -15l1 -5z" />
    <glyph glyph-name="Aacute" unicode="&#xc1;" horiz-adv-x="667" 
d="M386 641l155 97q15 9 23.5 17.5t8.5 19.5q0 17 -10 26.5t-22 9.5q-8 0 -15.5 -5t-18.5 -15l-6 -6l-146 -144h31zM91 124q-2 -2 -8 -14q-18 -34 -33 -53q-10 -13 -21 -20.5t-27 -15.5q-21 -11 -21 -19t12 -8q3 0 17 1q43 5 71 5q19 0 41 -1.5t38 -3.5q8 -1 10 -1
q8 0 11 1.5t3 7.5q0 9 -9.5 13.5t-28.5 10.5q-20 6 -30 11.5t-10 14.5q0 5 3 11t8 14v1l101 186q5 10 13 13t31 3q21 0 61 -1t61 -1q15 0 20 -2.5t6 -7.5l25 -160q1 -7 3 -17q3 -18 3 -26q0 -20 -12.5 -28.5t-33.5 -11.5q-15 -2 -25 -6t-10 -13q0 -6 3.5 -9.5t13.5 -3.5
q6 0 22 2q36 4 73 4q32 0 78 -4q22 -2 31 -2q11 0 14 1.5t3 6.5q0 6 -10.5 10.5t-30.5 9.5q-13 4 -14 4q-16 5 -19 20l-92 505q-2 9 -4.5 30t-2.5 27q0 18 -18 18q-11 0 -18.5 -7.5t-18.5 -26.5l-8 -14zM402 315q-13 0 -48 -1q-24 -1 -34 -1q-6 0 -31 1q-36 1 -46 1l107 201
q1 2 2 5q4 9 9 9q3 0 5 -5t3 -15l1 -5z" />
    <glyph glyph-name="Acircumflex" unicode="&#xc2;" horiz-adv-x="667" 
d="M455 809h-38l-161 -168h37l136 106l82 -106h32zM91 124q-2 -2 -8 -14q-18 -34 -33 -53q-10 -13 -21 -20.5t-27 -15.5q-21 -11 -21 -19t12 -8q3 0 17 1q43 5 71 5q19 0 41 -1.5t38 -3.5q8 -1 10 -1q8 0 11 1.5t3 7.5q0 9 -9.5 13.5t-28.5 10.5q-20 6 -30 11.5t-10 14.5
q0 5 3 11t8 14v1l101 186q5 10 13 13t31 3q21 0 61 -1t61 -1q15 0 20 -2.5t6 -7.5l25 -160q1 -7 3 -17q3 -18 3 -26q0 -20 -12.5 -28.5t-33.5 -11.5q-15 -2 -25 -6t-10 -13q0 -6 3.5 -9.5t13.5 -3.5q6 0 22 2q36 4 73 4q32 0 78 -4q22 -2 31 -2q11 0 14 1.5t3 6.5
q0 6 -10.5 10.5t-30.5 9.5q-13 4 -14 4q-16 5 -19 20l-92 505q-2 9 -4.5 30t-2.5 27q0 18 -18 18q-11 0 -18.5 -7.5t-18.5 -26.5l-8 -14zM402 315q-13 0 -48 -1q-24 -1 -34 -1q-6 0 -31 1q-36 1 -46 1l107 201q1 2 2 5q4 9 9 9q3 0 5 -5t3 -15l1 -5z" />
    <glyph glyph-name="Atilde" unicode="&#xc3;" horiz-adv-x="667" 
d="M296 665q5 25 20 36.5t32 11.5q16 0 58 -18q9 -3 13 -5l5 -2q26 -10 42 -15.5t30 -5.5q19 0 35 10t29 28q21 28 30 66h-26q-2 -17 -16.5 -32.5t-31.5 -15.5q-10 0 -25 5t-41 15l-5 2q-29 11 -47 16.5t-33 5.5q-42 0 -64 -28.5t-31 -73.5h26zM91 124q-2 -2 -8 -14
q-18 -34 -33 -53q-10 -13 -21 -20.5t-27 -15.5q-21 -11 -21 -19t12 -8q3 0 17 1q43 5 71 5q19 0 41 -1.5t38 -3.5q8 -1 10 -1q8 0 11 1.5t3 7.5q0 9 -9.5 13.5t-28.5 10.5q-20 6 -30 11.5t-10 14.5q0 5 3 11t8 14v1l101 186q5 10 13 13t31 3q21 0 61 -1t61 -1q15 0 20 -2.5
t6 -7.5l25 -160q1 -7 3 -17q3 -18 3 -26q0 -20 -12.5 -28.5t-33.5 -11.5q-15 -2 -25 -6t-10 -13q0 -6 3.5 -9.5t13.5 -3.5q6 0 22 2q36 4 73 4q32 0 78 -4q22 -2 31 -2q11 0 14 1.5t3 6.5q0 6 -10.5 10.5t-30.5 9.5q-13 4 -14 4q-16 5 -19 20l-92 505q-2 9 -4.5 30t-2.5 27
q0 18 -18 18q-11 0 -18.5 -7.5t-18.5 -26.5l-8 -14zM402 315q-13 0 -48 -1q-24 -1 -34 -1q-6 0 -31 1q-36 1 -46 1l107 201q1 2 2 5q4 9 9 9q3 0 5 -5t3 -15l1 -5z" />
    <glyph glyph-name="Adieresis" unicode="&#xc4;" horiz-adv-x="667" 
d="M328 750q-18 0 -31.5 -13.5t-13.5 -31.5t13.5 -31.5t31.5 -13.5t31.5 13.5t13.5 31.5t-13.5 31.5t-31.5 13.5zM528 750q-18 0 -31.5 -13.5t-13.5 -31.5t13.5 -31.5t31.5 -13.5t31.5 13.5t13.5 31.5t-13.5 31.5t-31.5 13.5zM91 124q-2 -2 -8 -14q-18 -34 -33 -53
q-10 -13 -21 -20.5t-27 -15.5q-21 -11 -21 -19t12 -8q3 0 17 1q43 5 71 5q19 0 41 -1.5t38 -3.5q8 -1 10 -1q8 0 11 1.5t3 7.5q0 9 -9.5 13.5t-28.5 10.5q-20 6 -30 11.5t-10 14.5q0 5 3 11t8 14v1l101 186q5 10 13 13t31 3q21 0 61 -1t61 -1q15 0 20 -2.5t6 -7.5l25 -160
q1 -7 3 -17q3 -18 3 -26q0 -20 -12.5 -28.5t-33.5 -11.5q-15 -2 -25 -6t-10 -13q0 -6 3.5 -9.5t13.5 -3.5q6 0 22 2q36 4 73 4q32 0 78 -4q22 -2 31 -2q11 0 14 1.5t3 6.5q0 6 -10.5 10.5t-30.5 9.5q-13 4 -14 4q-16 5 -19 20l-92 505q-2 9 -4.5 30t-2.5 27q0 18 -18 18
q-11 0 -18.5 -7.5t-18.5 -26.5l-8 -14zM402 315q-13 0 -48 -1q-24 -1 -34 -1q-6 0 -31 1q-36 1 -46 1l107 201q1 2 2 5q4 9 9 9q3 0 5 -5t3 -15l1 -5z" />
    <glyph glyph-name="Aring" unicode="&#xc5;" horiz-adv-x="667" 
d="M299 733q0 -39 30.5 -69.5t69.5 -30.5t69.5 30.5t30.5 69.5t-30.5 69.5t-69.5 30.5t-69.5 -30.5t-30.5 -69.5zM333 733q0 26 20 46t46 20t46 -20t20 -46t-20 -46t-46 -20t-46 20t-20 46zM91 124q-2 -2 -8 -14q-18 -34 -33 -53q-10 -13 -21 -20.5t-27 -15.5
q-21 -11 -21 -19t12 -8q3 0 17 1q43 5 71 5q19 0 41 -1.5t38 -3.5q8 -1 10 -1q8 0 11 1.5t3 7.5q0 9 -9.5 13.5t-28.5 10.5q-20 6 -30 11.5t-10 14.5q0 5 3 11t8 14v1l101 186q5 10 13 13t31 3q21 0 61 -1t61 -1q15 0 20 -2.5t6 -7.5l25 -160q1 -7 3 -17q3 -18 3 -26
q0 -20 -12.5 -28.5t-33.5 -11.5q-15 -2 -25 -6t-10 -13q0 -6 3.5 -9.5t13.5 -3.5q6 0 22 2q36 4 73 4q32 0 78 -4q22 -2 31 -2q11 0 14 1.5t3 6.5q0 6 -10.5 10.5t-30.5 9.5q-13 4 -14 4q-16 5 -19 20l-92 505q-2 9 -4.5 30t-2.5 27q0 18 -18 18q-11 0 -18.5 -7.5
t-18.5 -26.5l-8 -14zM402 315q-13 0 -48 -1q-24 -1 -34 -1q-6 0 -31 1q-36 1 -46 1l107 201q1 2 2 5q4 9 9 9q3 0 5 -5t3 -15l1 -5z" />
    <glyph glyph-name="AE" unicode="&#xc6;" horiz-adv-x="889" 
d="M259 271q5 6 28 6q22 0 66 -1q43 -1 65 -1q23 0 23 -6q0 -9 -6 -32l-1 -2l-47 -189q-3 -14 -39 -20l-4 -1q-18 -2 -27 -5.5t-9 -11.5q0 -7 7 -10.5t16 -3.5q10 0 35 3q34 3 50 3h203q21 0 64 -3q42 -3 63 -3q17 0 23 3.5t9 15.5q10 39 18 72.5t8 39.5q0 14 -15 14
q-7 0 -18 -27q-11 -25 -19 -37q-11 -16 -57 -32.5t-130 -16.5q-53 0 -72.5 6.5t-19.5 17.5q0 6 5 24l58 238h98q47 0 63 -9.5t16 -26.5q0 -4 -1 -19q-2 -21 -2 -32q0 -14 13 -14q7 0 10 9.5t3 21.5q0 7 5 33t10 45q7 27 20 64q9 27 9 35q0 17 -12 17q-6 0 -9 -5t-7 -18
q-3 -12 -6 -19q-13 -31 -49.5 -44.5t-104.5 -13.5h-23q-18 1 -30 1l49 206q1 3 2 7q4 23 9.5 26.5t39.5 5.5q11 0 29.5 -1t39.5 -3.5t39.5 -6.5t27.5 -9t15 -23t6 -38q0 -26 12 -26q11 0 12 8q2 10 10 42l10 45t4 28t-3.5 13t-9.5 3q-24 0 -75 -2q-47 -2 -75 -3t-71 -1
q-26 0 -93 2q-101 4 -158 4q-9 0 -15.5 -3t-6.5 -10q0 -8 9 -11t31 -6q14 -2 17 -2q14 -2 22.5 -7.5t8.5 -20.5q0 -12 -6 -22.5t-22 -30.5l-353 -442q-10 -13 -21.5 -21t-26.5 -15q-22 -12 -23 -21q0 -8 14 -8q9 0 38 2q41 4 57 4t46 -3q23 -3 33 -3t12.5 1.5t2.5 7.5
q0 8 -9.5 13.5t-26.5 9.5q-19 5 -29.5 10t-10.5 14q0 11 6 18zM450 313q-1 -6 -15 -6q-67 0 -123 4q-16 0 -16 5q0 3 10 14q6 7 6 8l174 229q10 13 19 13q4 0 5.5 -5t1.5 -12q0 -5 -4 -21z" />
    <glyph glyph-name="Ccedilla" unicode="&#xc7;" horiz-adv-x="611" 
d="M307 -17q16 0 43.5 2.5t56 8.5t49 15t23.5 20q2 6 4 19t6 35t6 36.5t2 20.5q0 18 -10 18q-7 0 -11.5 -8t-10.5 -24q-8 -20 -13 -27q-1 -1 -4 -6q-9 -14 -18.5 -25.5t-26.5 -24t-44.5 -21t-63.5 -8.5q-33 0 -63.5 13t-55.5 39.5t-39.5 68t-14.5 95.5q0 88 36.5 157.5
t92.5 115t116 68.5t106 23q39 0 47.5 -14.5t8.5 -58.5q0 -17 2.5 -22.5t10.5 -5.5q5 0 7.5 4.5t5.5 15.5v2q2 5 3.5 16.5t4 31t3.5 32t1 18.5q0 7 -5 10t-25 3q-87 0 -177 -27t-166 -79.5t-122 -128t-46 -167.5q0 -34 12.5 -73.5t41.5 -76t77 -61.5t115 -30l-51 -76l7 -10
l5 1q23 6 33 6q20 0 33 -10t13 -30q0 -24 -21 -34t-47 -10q-16 0 -52 12q-1 0 -3 1l-19 -26q27 -12 50.5 -16.5t39.5 -4.5q52 0 86 21.5t34 60.5q0 32 -21 51t-55 19q-12 0 -29 -3z" />
    <glyph glyph-name="Egrave" unicode="&#xc8;" horiz-adv-x="556" 
d="M414 641l-117 149q-16 21 -38 21q-12 0 -20.5 -9.5t-8.5 -22.5q0 -16 18 -30l137 -108h29zM270 312q72 0 92.5 -7t20.5 -37q0 -12 -1 -31v-15q0 -12 11 -12q10 0 11 7q0 1 1 5q2 14 2 20q0 19 8 51.5t23 79.5q8 27 11 38t3 15q0 8 -8 8q-5 0 -16 -22q-11 -23 -19 -33
q-19 -24 -46.5 -33.5t-84.5 -9.5q-19 0 -61 2h-5l53 224q2 8 12 11t40 3q38 0 70 -2.5t55 -10.5q10 -3 15 -13t7 -25q1 -4 1 -10q3 -27 5.5 -34t9.5 -7q12 0 14 11q3 18 13 61q4 17 7 31.5t3 18.5q0 8 -2.5 13t-11.5 5q-14 0 -52 -2q-42 -2 -76.5 -3t-81.5 -1q-69 0 -150 5
q-17 1 -22 1q-10 0 -13.5 -4.5t-3.5 -10.5q0 -9 9 -12t31 -5q20 -2 29 -6.5t9 -18.5q0 -9 -6 -33l-113 -466q-4 -17 -10.5 -23.5t-14.5 -8.5q-12 -2 -21 -6.5t-9 -12.5q0 -9 17 -9q33 0 97 1q63 1 95 1q34 0 102 -1t101 -1q16 0 22.5 3.5t7.5 9.5q1 5 6 29q8 30 12.5 52.5
t4.5 38.5q0 12 -8 12q-5 0 -10 -14q-8 -21 -16 -34q-13 -22 -29 -31.5t-41 -17.5l-10 -3q-39 -13 -134 -13q-48 0 -63.5 6t-15.5 21q0 6 2 16l58 239h64z" />
    <glyph glyph-name="Eacute" unicode="&#xc9;" horiz-adv-x="556" 
d="M321 641l155 97q15 9 23.5 17.5t8.5 19.5q0 17 -10 26.5t-22 9.5q-8 0 -15.5 -5t-18.5 -15l-6 -6l-146 -144h31zM270 312q72 0 92.5 -7t20.5 -37q0 -12 -1 -31v-15q0 -12 11 -12q10 0 11 7q0 1 1 5q2 14 2 20q0 19 8 51.5t23 79.5q8 27 11 38t3 15q0 8 -8 8q-5 0 -16 -22
q-11 -23 -19 -33q-19 -24 -46.5 -33.5t-84.5 -9.5q-19 0 -61 2h-5l53 224q2 8 12 11t40 3q38 0 70 -2.5t55 -10.5q10 -3 15 -13t7 -25q1 -4 1 -10q3 -27 5.5 -34t9.5 -7q12 0 14 11q3 18 13 61q4 17 7 31.5t3 18.5q0 8 -2.5 13t-11.5 5q-14 0 -52 -2q-42 -2 -76.5 -3
t-81.5 -1q-69 0 -150 5q-17 1 -22 1q-10 0 -13.5 -4.5t-3.5 -10.5q0 -9 9 -12t31 -5q20 -2 29 -6.5t9 -18.5q0 -9 -6 -33l-113 -466q-4 -17 -10.5 -23.5t-14.5 -8.5q-12 -2 -21 -6.5t-9 -12.5q0 -9 17 -9q33 0 97 1q63 1 95 1q34 0 102 -1t101 -1q16 0 22.5 3.5t7.5 9.5
q1 5 6 29q8 30 12.5 52.5t4.5 38.5q0 12 -8 12q-5 0 -10 -14q-8 -21 -16 -34q-13 -22 -29 -31.5t-41 -17.5l-10 -3q-39 -13 -134 -13q-48 0 -63.5 6t-15.5 21q0 6 2 16l58 239h64z" />
    <glyph glyph-name="Ecircumflex" unicode="&#xca;" horiz-adv-x="556" 
d="M390 809h-38l-161 -168h37l136 106l82 -106h32zM270 312q72 0 92.5 -7t20.5 -37q0 -12 -1 -31v-15q0 -12 11 -12q10 0 11 7q0 1 1 5q2 14 2 20q0 19 8 51.5t23 79.5q8 27 11 38t3 15q0 8 -8 8q-5 0 -16 -22q-11 -23 -19 -33q-19 -24 -46.5 -33.5t-84.5 -9.5q-19 0 -61 2
h-5l53 224q2 8 12 11t40 3q38 0 70 -2.5t55 -10.5q10 -3 15 -13t7 -25q1 -4 1 -10q3 -27 5.5 -34t9.5 -7q12 0 14 11q3 18 13 61q4 17 7 31.5t3 18.5q0 8 -2.5 13t-11.5 5q-14 0 -52 -2q-42 -2 -76.5 -3t-81.5 -1q-69 0 -150 5q-17 1 -22 1q-10 0 -13.5 -4.5t-3.5 -10.5
q0 -9 9 -12t31 -5q20 -2 29 -6.5t9 -18.5q0 -9 -6 -33l-113 -466q-4 -17 -10.5 -23.5t-14.5 -8.5q-12 -2 -21 -6.5t-9 -12.5q0 -9 17 -9q33 0 97 1q63 1 95 1q34 0 102 -1t101 -1q16 0 22.5 3.5t7.5 9.5q1 5 6 29q8 30 12.5 52.5t4.5 38.5q0 12 -8 12q-5 0 -10 -14
q-8 -21 -16 -34q-13 -22 -29 -31.5t-41 -17.5l-10 -3q-39 -13 -134 -13q-48 0 -63.5 6t-15.5 21q0 6 2 16l58 239h64z" />
    <glyph glyph-name="Edieresis" unicode="&#xcb;" horiz-adv-x="556" 
d="M263 750q-18 0 -31.5 -13.5t-13.5 -31.5t13.5 -31.5t31.5 -13.5t31.5 13.5t13.5 31.5t-13.5 31.5t-31.5 13.5zM463 750q-18 0 -31.5 -13.5t-13.5 -31.5t13.5 -31.5t31.5 -13.5t31.5 13.5t13.5 31.5t-13.5 31.5t-31.5 13.5zM270 312q72 0 92.5 -7t20.5 -37q0 -12 -1 -31
v-15q0 -12 11 -12q10 0 11 7q0 1 1 5q2 14 2 20q0 19 8 51.5t23 79.5q8 27 11 38t3 15q0 8 -8 8q-5 0 -16 -22q-11 -23 -19 -33q-19 -24 -46.5 -33.5t-84.5 -9.5q-19 0 -61 2h-5l53 224q2 8 12 11t40 3q38 0 70 -2.5t55 -10.5q10 -3 15 -13t7 -25q1 -4 1 -10q3 -27 5.5 -34
t9.5 -7q12 0 14 11q3 18 13 61q4 17 7 31.5t3 18.5q0 8 -2.5 13t-11.5 5q-14 0 -52 -2q-42 -2 -76.5 -3t-81.5 -1q-69 0 -150 5q-17 1 -22 1q-10 0 -13.5 -4.5t-3.5 -10.5q0 -9 9 -12t31 -5q20 -2 29 -6.5t9 -18.5q0 -9 -6 -33l-113 -466q-4 -17 -10.5 -23.5t-14.5 -8.5
q-12 -2 -21 -6.5t-9 -12.5q0 -9 17 -9q33 0 97 1q63 1 95 1q34 0 102 -1t101 -1q16 0 22.5 3.5t7.5 9.5q1 5 6 29q8 30 12.5 52.5t4.5 38.5q0 12 -8 12q-5 0 -10 -14q-8 -21 -16 -34q-13 -22 -29 -31.5t-41 -17.5l-10 -3q-39 -13 -134 -13q-48 0 -63.5 6t-15.5 21q0 6 2 16
l58 239h64z" />
    <glyph glyph-name="Igrave" unicode="&#xcc;" horiz-adv-x="333" 
d="M303 641l-117 149q-16 21 -38 21q-12 0 -20.5 -9.5t-8.5 -22.5q0 -16 18 -30l137 -108h29zM63 45q-2 -8 -10.5 -12.5t-20.5 -6.5q-14 -2 -20.5 -5t-6.5 -11q0 -16 16 -16q3 0 10 1q13 2 28 3.5t41 1.5t43.5 -1t34.5 -3q18 -2 28 -2q26 0 26 13q0 6 -12 9.5t-31 6.5
q-15 2 -18 3q-24 7 -24 23q0 13 3 25l112 482q5 21 27 26q5 1 12 3q13 3 19 6t6 10q0 13 -15 13q-5 0 -18 -1q-40 -5 -77 -5q-34 0 -78 5q-16 1 -18 1q-16 0 -16 -13q0 -6 9.5 -9t27.5 -6q17 -2 24 -4q12 -3 15.5 -6.5t3.5 -10.5q0 -12 -5 -30q-1 -5 -2 -8z" />
    <glyph glyph-name="Iacute" unicode="&#xcd;" horiz-adv-x="333" 
d="M210 641l155 97q15 9 23.5 17.5t8.5 19.5q0 17 -10 26.5t-22 9.5q-8 0 -15.5 -5t-18.5 -15l-6 -6l-146 -144h31zM63 45q-2 -8 -10.5 -12.5t-20.5 -6.5q-14 -2 -20.5 -5t-6.5 -11q0 -16 16 -16q3 0 10 1q13 2 28 3.5t41 1.5t43.5 -1t34.5 -3q18 -2 28 -2q26 0 26 13
q0 6 -12 9.5t-31 6.5q-15 2 -18 3q-24 7 -24 23q0 13 3 25l112 482q5 21 27 26q5 1 12 3q13 3 19 6t6 10q0 13 -15 13q-5 0 -18 -1q-40 -5 -77 -5q-34 0 -78 5q-16 1 -18 1q-16 0 -16 -13q0 -6 9.5 -9t27.5 -6q17 -2 24 -4q12 -3 15.5 -6.5t3.5 -10.5q0 -12 -5 -30
q-1 -5 -2 -8z" />
    <glyph glyph-name="Icircumflex" unicode="&#xce;" horiz-adv-x="333" 
d="M279 809h-38l-161 -168h37l136 106l82 -106h32zM63 45q-2 -8 -10.5 -12.5t-20.5 -6.5q-14 -2 -20.5 -5t-6.5 -11q0 -16 16 -16q3 0 10 1q13 2 28 3.5t41 1.5t43.5 -1t34.5 -3q18 -2 28 -2q26 0 26 13q0 6 -12 9.5t-31 6.5q-15 2 -18 3q-24 7 -24 23q0 13 3 25l112 482
q5 21 27 26q5 1 12 3q13 3 19 6t6 10q0 13 -15 13q-5 0 -18 -1q-40 -5 -77 -5q-34 0 -78 5q-16 1 -18 1q-16 0 -16 -13q0 -6 9.5 -9t27.5 -6q17 -2 24 -4q12 -3 15.5 -6.5t3.5 -10.5q0 -12 -5 -30q-1 -5 -2 -8z" />
    <glyph glyph-name="Idieresis" unicode="&#xcf;" horiz-adv-x="333" 
d="M152 750q-18 0 -31.5 -13.5t-13.5 -31.5t13.5 -31.5t31.5 -13.5t31.5 13.5t13.5 31.5t-13.5 31.5t-31.5 13.5zM352 750q-18 0 -31.5 -13.5t-13.5 -31.5t13.5 -31.5t31.5 -13.5t31.5 13.5t13.5 31.5t-13.5 31.5t-31.5 13.5zM63 45q-2 -8 -10.5 -12.5t-20.5 -6.5
q-14 -2 -20.5 -5t-6.5 -11q0 -16 16 -16q3 0 10 1q13 2 28 3.5t41 1.5t43.5 -1t34.5 -3q18 -2 28 -2q26 0 26 13q0 6 -12 9.5t-31 6.5q-15 2 -18 3q-24 7 -24 23q0 13 3 25l112 482q5 21 27 26q5 1 12 3q13 3 19 6t6 10q0 13 -15 13q-5 0 -18 -1q-40 -5 -77 -5q-34 0 -78 5
q-16 1 -18 1q-16 0 -16 -13q0 -6 9.5 -9t27.5 -6q17 -2 24 -4q12 -3 15.5 -6.5t3.5 -10.5q0 -12 -5 -30q-1 -5 -2 -8z" />
    <glyph glyph-name="Eth" unicode="&#xd0;" horiz-adv-x="722" 
d="M24 292h90q-22 -111 -38 -228q-2 -16 -10 -24.5t-27 -13.5q-4 -1 -16 -3q-13 -1 -19 -4t-6 -11q0 -9 6 -11.5t25 -2.5q5 0 21 2q33 4 61 4q20 0 59 -3t58 -3q91 0 174.5 26.5t148 76.5t101.5 120t37 153q0 48 -17 91.5t-52.5 78t-92 54.5t-133.5 20q-31 0 -92 -3
q-62 -3 -93 -3q-27 0 -42.5 1t-29.5 3q-12 2 -17 2q-14 0 -14 -16q0 -8 9 -11t28 -5h1q20 -2 30 -5t10 -12q0 -10 -4 -22q-35 -104 -59 -219h-87zM391 324h-187q10 45 32 136q7 26 16 63q10 40 19.5 49.5t41.5 9.5q138 0 211 -53t73 -170q0 -45 -20 -101.5t-64 -109.5
t-117.5 -87.5t-176.5 -34.5q-32 0 -45.5 5t-13.5 19q0 11 2 33q8 81 35 209h185z" />
    <glyph glyph-name="Ntilde" unicode="&#xd1;" horiz-adv-x="722" 
d="M314 665q5 25 20 36.5t32 11.5q16 0 58 -18q9 -3 13 -5l5 -2q26 -10 42 -15.5t30 -5.5q19 0 35 10t29 28q21 28 30 66h-26q-2 -17 -16.5 -32.5t-31.5 -15.5q-10 0 -25 5t-41 15l-5 2q-29 11 -47 16.5t-33 5.5q-42 0 -64 -28.5t-31 -73.5h26zM557 143q-1 -9 -7 -9
q-3 0 -9 10q-4 7 -6 10q-11 16 -31 50q-24 39 -38 58l-227 318q-2 2 -5 6q-11 16 -16 20t-14 4q-4 0 -11 -1t-12 -1q-19 0 -52 1q-26 1 -32 1q-17 0 -17 -15q0 -7 8.5 -9.5t23.5 -3.5h2q25 -2 44 -6t19 -13t-3.5 -26.5t-8.5 -35.5l-1 -6l-96 -437q-3 -17 -11 -21.5
t-45 -11.5l-4 -1q-11 -2 -14 -5t-3 -9q0 -14 15 -14q8 0 31 2q26 2 34 2q15 0 45 -2q38 -2 55 -2q14 0 18 2t4 7q0 7 -10 11t-42 8q-13 2 -22 8t-9 18q0 11 5 31l77 392q1 9 3 14.5t5 5.5q4 0 8 -7q1 -2 1 -3l293 -415q16 -23 37 -57q12 -21 16 -21q6 0 8.5 7t4.5 21l71 517
q4 29 20 39t42 10q39 0 39 17q0 7 -6 9t-24 2q-14 0 -42 -2t-43 -2t-45 2q-31 2 -47 2q-14 0 -18.5 -2.5t-4.5 -10.5q0 -13 20 -15q5 0 15 -1q27 -2 44.5 -5t17.5 -10q0 -18 -1 -23z" />
    <glyph glyph-name="Ograve" unicode="&#xd2;" horiz-adv-x="556" 
d="M414 641l-117 149q-16 21 -38 21q-12 0 -20.5 -9.5t-8.5 -22.5q0 -16 18 -30l137 -108h29zM224 -18q64 0 118.5 31.5t93.5 86.5t60 123.5t21 140.5q0 67 -15.5 117t-42.5 82t-62 47.5t-73 15.5q-64 0 -118 -31.5t-93.5 -86.5t-60.5 -123.5t-21 -140.5q0 -67 15.5 -117
t42.5 -82t62 -47.5t73 -15.5zM224 8q-57 0 -89 40.5t-32 126.5q0 70 16.5 145.5t47 139t71 102t86.5 38.5q57 0 89 -40.5t32 -126.5q0 -70 -16.5 -145.5t-46.5 -139t-71 -102t-87 -38.5z" />
    <glyph glyph-name="Oacute" unicode="&#xd3;" horiz-adv-x="556" 
d="M321 641l155 97q15 9 23.5 17.5t8.5 19.5q0 17 -10 26.5t-22 9.5q-8 0 -15.5 -5t-18.5 -15l-6 -6l-146 -144h31zM224 -18q64 0 118.5 31.5t93.5 86.5t60 123.5t21 140.5q0 67 -15.5 117t-42.5 82t-62 47.5t-73 15.5q-64 0 -118 -31.5t-93.5 -86.5t-60.5 -123.5
t-21 -140.5q0 -67 15.5 -117t42.5 -82t62 -47.5t73 -15.5zM224 8q-57 0 -89 40.5t-32 126.5q0 70 16.5 145.5t47 139t71 102t86.5 38.5q57 0 89 -40.5t32 -126.5q0 -70 -16.5 -145.5t-46.5 -139t-71 -102t-87 -38.5z" />
    <glyph glyph-name="Ocircumflex" unicode="&#xd4;" horiz-adv-x="556" 
d="M390 809h-38l-161 -168h37l136 106l82 -106h32zM224 -18q64 0 118.5 31.5t93.5 86.5t60 123.5t21 140.5q0 67 -15.5 117t-42.5 82t-62 47.5t-73 15.5q-64 0 -118 -31.5t-93.5 -86.5t-60.5 -123.5t-21 -140.5q0 -67 15.5 -117t42.5 -82t62 -47.5t73 -15.5zM224 8
q-57 0 -89 40.5t-32 126.5q0 70 16.5 145.5t47 139t71 102t86.5 38.5q57 0 89 -40.5t32 -126.5q0 -70 -16.5 -145.5t-46.5 -139t-71 -102t-87 -38.5z" />
    <glyph glyph-name="Otilde" unicode="&#xd5;" horiz-adv-x="556" 
d="M231 665q5 25 20 36.5t32 11.5q16 0 58 -18q9 -3 13 -5l5 -2q26 -10 42 -15.5t30 -5.5q19 0 35 10t29 28q21 28 30 66h-26q-2 -17 -16.5 -32.5t-31.5 -15.5q-10 0 -25 5t-41 15l-5 2q-29 11 -47 16.5t-33 5.5q-42 0 -64 -28.5t-31 -73.5h26zM224 -18q64 0 118.5 31.5
t93.5 86.5t60 123.5t21 140.5q0 67 -15.5 117t-42.5 82t-62 47.5t-73 15.5q-64 0 -118 -31.5t-93.5 -86.5t-60.5 -123.5t-21 -140.5q0 -67 15.5 -117t42.5 -82t62 -47.5t73 -15.5zM224 8q-57 0 -89 40.5t-32 126.5q0 70 16.5 145.5t47 139t71 102t86.5 38.5q57 0 89 -40.5
t32 -126.5q0 -70 -16.5 -145.5t-46.5 -139t-71 -102t-87 -38.5z" />
    <glyph glyph-name="Odieresis" unicode="&#xd6;" horiz-adv-x="556" 
d="M263 750q-18 0 -31.5 -13.5t-13.5 -31.5t13.5 -31.5t31.5 -13.5t31.5 13.5t13.5 31.5t-13.5 31.5t-31.5 13.5zM463 750q-18 0 -31.5 -13.5t-13.5 -31.5t13.5 -31.5t31.5 -13.5t31.5 13.5t13.5 31.5t-13.5 31.5t-31.5 13.5zM224 -18q64 0 118.5 31.5t93.5 86.5t60 123.5
t21 140.5q0 67 -15.5 117t-42.5 82t-62 47.5t-73 15.5q-64 0 -118 -31.5t-93.5 -86.5t-60.5 -123.5t-21 -140.5q0 -67 15.5 -117t42.5 -82t62 -47.5t73 -15.5zM224 8q-57 0 -89 40.5t-32 126.5q0 70 16.5 145.5t47 139t71 102t86.5 38.5q57 0 89 -40.5t32 -126.5
q0 -70 -16.5 -145.5t-46.5 -139t-71 -102t-87 -38.5z" />
    <glyph glyph-name="multiply" unicode="&#xd7;" horiz-adv-x="600" 
d="M253 189l-163 -161l26 -28l163 163l164 -163l25 27l-162 162l162 162l-25 27l-164 -163l-163 163l-26 -28z" />
    <glyph glyph-name="Oslash" unicode="&#xd8;" horiz-adv-x="556" 
d="M433 519q12 -33 12 -86q0 -70 -16.5 -145.5t-46.5 -139t-71 -102t-87 -38.5q-60 0 -90 43zM116 86q-13 36 -13 89q0 70 16.5 145.5t47 139t71 102t86.5 38.5q61 0 92 -45zM536 681h-39l-61 -95q-47 40 -112 40q-64 0 -118 -31.5t-93.5 -86.5t-60.5 -123.5t-21 -140.5
q0 -66 15.5 -115.5t43.5 -83.5l-83 -130h40l68 106q45 -39 109 -39t118.5 31.5t93.5 86.5t60 123.5t21 140.5q0 129 -57 197z" />
    <glyph glyph-name="Ugrave" unicode="&#xd9;" horiz-adv-x="722" 
d="M515 641l-117 149q-16 21 -38 21q-12 0 -20.5 -9.5t-8.5 -22.5q0 -16 18 -30l137 -108h29zM108 235v-1q-9 -30 -13 -52t-4 -49q0 -71 61 -111t145 -40q105 0 166 46t84 141l95 386q3 14 11 20t18 9q2 1 9 3q20 7 20 14q0 13 -17 13q-6 0 -22 -2q-33 -4 -58 -4
q-23 0 -50 4q-13 2 -19 2q-12 0 -12 -16q0 -9 9 -11.5t24 -2.5q18 0 29.5 -9.5t11.5 -31.5q0 -24 -18 -96l-66 -270q-9 -36 -21 -63.5t-34 -50t-58 -36t-88 -13.5q-59 0 -97.5 28t-38.5 64q0 16 2 35t5 32l90 369q5 22 17.5 30.5t28.5 11.5l3 1q21 4 29.5 7.5t8.5 10.5
q0 11 -22 11q-11 0 -39 -2q-42 -4 -67 -4q-10 0 -42 3q-30 3 -41 3q-19 0 -24.5 -3t-5.5 -10q0 -8 6.5 -12t18.5 -5q5 0 7 -1q21 -1 32.5 -5t11.5 -16q0 -13 -4 -28z" />
    <glyph glyph-name="Uacute" unicode="&#xda;" horiz-adv-x="722" 
d="M422 641l155 97q15 9 23.5 17.5t8.5 19.5q0 17 -10 26.5t-22 9.5q-8 0 -15.5 -5t-18.5 -15l-6 -6l-146 -144h31zM108 235v-1q-9 -30 -13 -52t-4 -49q0 -71 61 -111t145 -40q105 0 166 46t84 141l95 386q3 14 11 20t18 9q2 1 9 3q20 7 20 14q0 13 -17 13q-6 0 -22 -2
q-33 -4 -58 -4q-23 0 -50 4q-13 2 -19 2q-12 0 -12 -16q0 -9 9 -11.5t24 -2.5q18 0 29.5 -9.5t11.5 -31.5q0 -24 -18 -96l-66 -270q-9 -36 -21 -63.5t-34 -50t-58 -36t-88 -13.5q-59 0 -97.5 28t-38.5 64q0 16 2 35t5 32l90 369q5 22 17.5 30.5t28.5 11.5l3 1q21 4 29.5 7.5
t8.5 10.5q0 11 -22 11q-11 0 -39 -2q-42 -4 -67 -4q-10 0 -42 3q-30 3 -41 3q-19 0 -24.5 -3t-5.5 -10q0 -8 6.5 -12t18.5 -5q5 0 7 -1q21 -1 32.5 -5t11.5 -16q0 -13 -4 -28z" />
    <glyph glyph-name="Ucircumflex" unicode="&#xdb;" horiz-adv-x="722" 
d="M491 809h-38l-161 -168h37l136 106l82 -106h32zM108 235v-1q-9 -30 -13 -52t-4 -49q0 -71 61 -111t145 -40q105 0 166 46t84 141l95 386q3 14 11 20t18 9q2 1 9 3q20 7 20 14q0 13 -17 13q-6 0 -22 -2q-33 -4 -58 -4q-23 0 -50 4q-13 2 -19 2q-12 0 -12 -16q0 -9 9 -11.5
t24 -2.5q18 0 29.5 -9.5t11.5 -31.5q0 -24 -18 -96l-66 -270q-9 -36 -21 -63.5t-34 -50t-58 -36t-88 -13.5q-59 0 -97.5 28t-38.5 64q0 16 2 35t5 32l90 369q5 22 17.5 30.5t28.5 11.5l3 1q21 4 29.5 7.5t8.5 10.5q0 11 -22 11q-11 0 -39 -2q-42 -4 -67 -4q-10 0 -42 3
q-30 3 -41 3q-19 0 -24.5 -3t-5.5 -10q0 -8 6.5 -12t18.5 -5q5 0 7 -1q21 -1 32.5 -5t11.5 -16q0 -13 -4 -28z" />
    <glyph glyph-name="Udieresis" unicode="&#xdc;" horiz-adv-x="722" 
d="M364 750q-18 0 -31.5 -13.5t-13.5 -31.5t13.5 -31.5t31.5 -13.5t31.5 13.5t13.5 31.5t-13.5 31.5t-31.5 13.5zM564 750q-18 0 -31.5 -13.5t-13.5 -31.5t13.5 -31.5t31.5 -13.5t31.5 13.5t13.5 31.5t-13.5 31.5t-31.5 13.5zM108 235v-1q-9 -30 -13 -52t-4 -49
q0 -71 61 -111t145 -40q105 0 166 46t84 141l95 386q3 14 11 20t18 9q2 1 9 3q20 7 20 14q0 13 -17 13q-6 0 -22 -2q-33 -4 -58 -4q-23 0 -50 4q-13 2 -19 2q-12 0 -12 -16q0 -9 9 -11.5t24 -2.5q18 0 29.5 -9.5t11.5 -31.5q0 -24 -18 -96l-66 -270q-9 -36 -21 -63.5
t-34 -50t-58 -36t-88 -13.5q-59 0 -97.5 28t-38.5 64q0 16 2 35t5 32l90 369q5 22 17.5 30.5t28.5 11.5l3 1q21 4 29.5 7.5t8.5 10.5q0 11 -22 11q-11 0 -39 -2q-42 -4 -67 -4q-10 0 -42 3q-30 3 -41 3q-19 0 -24.5 -3t-5.5 -10q0 -8 6.5 -12t18.5 -5q5 0 7 -1
q21 -1 32.5 -5t11.5 -16q0 -13 -4 -28z" />
    <glyph glyph-name="Yacute" unicode="&#xdd;" horiz-adv-x="667" 
d="M377 641l155 97q15 9 23.5 17.5t8.5 19.5q0 17 -10 26.5t-22 9.5q-8 0 -15.5 -5t-18.5 -15l-6 -6l-146 -144h31zM225 59q-3 -14 -9 -20t-20 -12l-1 -1q-3 -2 -17 -4q-18 -3 -29 -7.5t-11 -11.5q0 -9 13 -9q9 0 30 1t43 3q37 2 41 2q32 0 52.5 -1.5t37.5 -2.5q17 -2 23 -2
q24 0 24 11q0 5 -11 8t-34 7q-25 3 -31 6q-14 7 -16 21q0 10 4 25v1l34 158q7 30 12.5 49.5t12.5 26.5l235 228q17 16 33.5 26.5t35.5 20.5q24 12 24 18q0 14 -19 14q-4 0 -25 -2q-32 -4 -45 -4q-38 0 -74 5q-12 1 -17 1q-19 0 -19 -14q0 -9 36 -17l3 -1q11 -3 17.5 -7.5
t6.5 -12.5q0 -15 -15 -34t-37 -41l-3 -3l-137 -144l-1 -1q-8 -8 -13.5 -12.5t-9.5 -4.5t-7 6l-2 3l-96 194q-9 18 -9 33q0 19 29 24q30 5 40.5 8.5t10.5 9.5q0 8 -7 11t-17 3q-8 0 -32 -2q-50 -4 -84 -4q-18 0 -42 3q-21 3 -34 3q-23 0 -23 -15q0 -5 5.5 -8t17.5 -7
q5 -1 7 -2q11 -4 19.5 -11t15.5 -21l130 -262q3 -6 3 -12q0 -11 -3 -23z" />
    <glyph glyph-name="Thorn" unicode="&#xde;" horiz-adv-x="556" 
d="M63 45q-2 -8 -10.5 -12.5t-20.5 -6.5q-14 -2 -20.5 -5t-6.5 -11q0 -16 16 -16q3 0 10 1q13 2 28 3.5t41 1.5t43.5 -1t34.5 -3q18 -2 28 -2q26 0 26 13q0 6 -12 9.5t-31 6.5q-15 2 -18 3q-24 7 -24 23q0 12 7 41l5 20q5 20 11.5 23.5t38.5 3.5q57 0 109 15.5t93 44
t64 67.5t23 85q0 67 -48.5 110t-136.5 43q-21 0 -65 -6l2 9q6 32 14.5 52t24.5 25q5 1 12 3q13 3 19 6t6 10q0 13 -20 13q-3 0 -11 -1q-41 -5 -79 -5q-34 0 -78 5q-16 1 -18 1q-16 0 -16 -13q0 -6 9.5 -9t27.5 -6q17 -2 24 -4q12 -3 15.5 -6.5t3.5 -10.5q0 -12 -5 -30
q-1 -5 -2 -8zM239 459q15 11 49 11q23 0 45.5 -5.5t40.5 -18.5t29 -35.5t11 -54.5q0 -40 -20.5 -76t-55 -63t-74.5 -41.5t-79 -14.5q-11 0 -11 10q0 9 6 30q1 8 2 10z" />
    <glyph glyph-name="germandbls" unicode="&#xdf;" 
d="M0 -134q-8 -27 -16.5 -41.5t-20.5 -14.5q-10 0 -22 18q-8 13 -16 20t-22 7q-13 0 -21.5 -6.5t-8.5 -20.5q0 -21 19.5 -34.5t43.5 -13.5q32 0 55.5 15.5t39.5 41t26 51.5t24 72l2 5l158 504q11 37 21 63.5t25 51.5t36 40.5t48 15.5q32 0 48 -21t16 -68q0 -66 -34.5 -109
t-72.5 -49q-2 0 -11 -1q-23 -2 -37.5 -5.5t-14.5 -11.5t25 -17q19 -6 32.5 -13t27 -20.5t22 -36.5t8.5 -57q0 -35 -10.5 -74.5t-29 -75t-41 -56.5t-45.5 -21q-15 0 -22 7.5t-13 23.5q-7 16 -14.5 24t-22.5 8q-18 0 -23.5 -9.5t-5.5 -18.5q0 -24 21 -39.5t62 -15.5
q39 0 76 18.5t66 51t45.5 74t16.5 84.5q0 37 -12.5 65t-30.5 45.5t-34 26t-33 15.5q-7 3 -7 4q0 4 17 8q22 4 44.5 12.5t49.5 28.5q29 22 45 54t16 70q0 54 -34 86.5t-92 32.5q-62 0 -114 -57.5t-80 -152.5z" />
    <glyph glyph-name="agrave" unicode="&#xe0;" horiz-adv-x="444" 
d="M409 442l-117 149q-16 21 -38 21q-12 0 -20.5 -9.5t-8.5 -22.5q0 -16 18 -30l137 -108h29zM-10 41q0 -22 9.5 -39.5t34.5 -17.5q21 0 46.5 11.5t51.5 30t51 41.5t44 44l44 48l2 -2q-3 -7 -8 -16q-8 -17 -18 -37.5t-18 -38.5t-13.5 -35.5t-5.5 -27.5q0 -18 24 -18
q18 0 46.5 18.5t58 45t50 49.5t20.5 29q0 9 -9 9q-4 0 -29 -27q-28 -31 -47.5 -48t-34.5 -17q-11 0 -11 7q0 5 5 15l1 2l130 285q6 12 6 18q0 14 -23 14q-19 0 -26.5 -5.5t-16.5 -23.5q-9 -19 -26 -19q-3 0 -13 2q-18 2 -27 2q-42 0 -94 -29t-99 -75.5t-76 -98.5t-29 -96z
M50 74q0 31 24 72.5t61.5 80.5t78 64t72.5 25q20 0 28.5 -7.5t8.5 -21.5q0 -24 -27 -64t-68 -82t-81 -69.5t-64 -27.5q-16 0 -24.5 8.5t-8.5 21.5z" />
    <glyph glyph-name="aacute" unicode="&#xe1;" horiz-adv-x="444" 
d="M316 442l155 97q15 9 23.5 17.5t8.5 19.5q0 17 -10 26.5t-22 9.5q-8 0 -15.5 -5t-18.5 -15l-6 -6l-146 -144h31zM-10 41q0 -22 9.5 -39.5t34.5 -17.5q21 0 46.5 11.5t51.5 30t51 41.5t44 44l44 48l2 -2q-3 -7 -8 -16q-8 -17 -18 -37.5t-18 -38.5t-13.5 -35.5t-5.5 -27.5
q0 -18 24 -18q18 0 46.5 18.5t58 45t50 49.5t20.5 29q0 9 -9 9q-4 0 -29 -27q-28 -31 -47.5 -48t-34.5 -17q-11 0 -11 7q0 5 5 15l1 2l130 285q6 12 6 18q0 14 -23 14q-19 0 -26.5 -5.5t-16.5 -23.5q-9 -19 -26 -19q-3 0 -13 2q-18 2 -27 2q-42 0 -94 -29t-99 -75.5
t-76 -98.5t-29 -96zM50 74q0 31 24 72.5t61.5 80.5t78 64t72.5 25q20 0 28.5 -7.5t8.5 -21.5q0 -24 -27 -64t-68 -82t-81 -69.5t-64 -27.5q-16 0 -24.5 8.5t-8.5 21.5z" />
    <glyph glyph-name="acircumflex" unicode="&#xe2;" horiz-adv-x="444" 
d="M385 610h-38l-161 -168h37l136 106l82 -106h32zM-10 41q0 -22 9.5 -39.5t34.5 -17.5q21 0 46.5 11.5t51.5 30t51 41.5t44 44l44 48l2 -2q-3 -7 -8 -16q-8 -17 -18 -37.5t-18 -38.5t-13.5 -35.5t-5.5 -27.5q0 -18 24 -18q18 0 46.5 18.5t58 45t50 49.5t20.5 29q0 9 -9 9
q-4 0 -29 -27q-28 -31 -47.5 -48t-34.5 -17q-11 0 -11 7q0 5 5 15l1 2l130 285q6 12 6 18q0 14 -23 14q-19 0 -26.5 -5.5t-16.5 -23.5q-9 -19 -26 -19q-3 0 -13 2q-18 2 -27 2q-42 0 -94 -29t-99 -75.5t-76 -98.5t-29 -96zM50 74q0 31 24 72.5t61.5 80.5t78 64t72.5 25
q20 0 28.5 -7.5t8.5 -21.5q0 -24 -27 -64t-68 -82t-81 -69.5t-64 -27.5q-16 0 -24.5 8.5t-8.5 21.5z" />
    <glyph glyph-name="atilde" unicode="&#xe3;" horiz-adv-x="444" 
d="M226 466q5 25 20 36.5t32 11.5q16 0 58 -18q9 -3 13 -5l5 -2q26 -10 42 -15.5t30 -5.5q19 0 35 10t29 28q21 28 30 66h-26q-2 -17 -16.5 -32.5t-31.5 -15.5q-10 0 -25 5t-41 15l-5 2q-29 11 -47 16.5t-33 5.5q-42 0 -64 -28.5t-31 -73.5h26zM-10 41q0 -22 9.5 -39.5
t34.5 -17.5q21 0 46.5 11.5t51.5 30t51 41.5t44 44l44 48l2 -2q-3 -7 -8 -16q-8 -17 -18 -37.5t-18 -38.5t-13.5 -35.5t-5.5 -27.5q0 -18 24 -18q18 0 46.5 18.5t58 45t50 49.5t20.5 29q0 9 -9 9q-4 0 -29 -27q-28 -31 -47.5 -48t-34.5 -17q-11 0 -11 7q0 5 5 15l1 2
l130 285q6 12 6 18q0 14 -23 14q-19 0 -26.5 -5.5t-16.5 -23.5q-9 -19 -26 -19q-3 0 -13 2q-18 2 -27 2q-42 0 -94 -29t-99 -75.5t-76 -98.5t-29 -96zM50 74q0 31 24 72.5t61.5 80.5t78 64t72.5 25q20 0 28.5 -7.5t8.5 -21.5q0 -24 -27 -64t-68 -82t-81 -69.5t-64 -27.5
q-16 0 -24.5 8.5t-8.5 21.5z" />
    <glyph glyph-name="adieresis" unicode="&#xe4;" horiz-adv-x="444" 
d="M258 551q-18 0 -31.5 -13.5t-13.5 -31.5t13.5 -31.5t31.5 -13.5t31.5 13.5t13.5 31.5t-13.5 31.5t-31.5 13.5zM458 551q-18 0 -31.5 -13.5t-13.5 -31.5t13.5 -31.5t31.5 -13.5t31.5 13.5t13.5 31.5t-13.5 31.5t-31.5 13.5zM-10 41q0 -22 9.5 -39.5t34.5 -17.5
q21 0 46.5 11.5t51.5 30t51 41.5t44 44l44 48l2 -2q-3 -7 -8 -16q-8 -17 -18 -37.5t-18 -38.5t-13.5 -35.5t-5.5 -27.5q0 -18 24 -18q18 0 46.5 18.5t58 45t50 49.5t20.5 29q0 9 -9 9q-4 0 -29 -27q-28 -31 -47.5 -48t-34.5 -17q-11 0 -11 7q0 5 5 15l1 2l130 285q6 12 6 18
q0 14 -23 14q-19 0 -26.5 -5.5t-16.5 -23.5q-9 -19 -26 -19q-3 0 -13 2q-18 2 -27 2q-42 0 -94 -29t-99 -75.5t-76 -98.5t-29 -96zM50 74q0 31 24 72.5t61.5 80.5t78 64t72.5 25q20 0 28.5 -7.5t8.5 -21.5q0 -24 -27 -64t-68 -82t-81 -69.5t-64 -27.5q-16 0 -24.5 8.5
t-8.5 21.5z" />
    <glyph glyph-name="aring" unicode="&#xe5;" horiz-adv-x="444" 
d="M229 534q0 -39 30.5 -69.5t69.5 -30.5t69.5 30.5t30.5 69.5t-30.5 69.5t-69.5 30.5t-69.5 -30.5t-30.5 -69.5zM263 534q0 26 20 46t46 20t46 -20t20 -46t-20 -46t-46 -20t-46 20t-20 46zM-10 41q0 -22 9.5 -39.5t34.5 -17.5q21 0 46.5 11.5t51.5 30t51 41.5t44 44l44 48
l2 -2q-3 -7 -8 -16q-8 -17 -18 -37.5t-18 -38.5t-13.5 -35.5t-5.5 -27.5q0 -18 24 -18q18 0 46.5 18.5t58 45t50 49.5t20.5 29q0 9 -9 9q-4 0 -29 -27q-28 -31 -47.5 -48t-34.5 -17q-11 0 -11 7q0 5 5 15l1 2l130 285q6 12 6 18q0 14 -23 14q-19 0 -26.5 -5.5t-16.5 -23.5
q-9 -19 -26 -19q-3 0 -13 2q-18 2 -27 2q-42 0 -94 -29t-99 -75.5t-76 -98.5t-29 -96zM50 74q0 31 24 72.5t61.5 80.5t78 64t72.5 25q20 0 28.5 -7.5t8.5 -21.5q0 -24 -27 -64t-68 -82t-81 -69.5t-64 -27.5q-16 0 -24.5 8.5t-8.5 21.5z" />
    <glyph glyph-name="ae" unicode="&#xe6;" horiz-adv-x="556" 
d="M544 320q0 29 -16 51.5t-48 22.5q-25 0 -44.5 -12t-38.5 -31q-5 -5 -9.5 -9t-5.5 -4q-2 0 -2 4q0 5 3 14q6 16 6 29q0 9 -21 9q-11 0 -14.5 -3t-7.5 -11q-4 -10 -8 -16q-11 -15 -17 -19t-14 -4q-3 0 -11 2q-15 3 -25 3q-41 0 -88.5 -32t-88.5 -81t-66 -99.5t-25 -83.5
q0 -27 13 -46.5t40 -19.5q24 0 48 12t47 31t41.5 38.5t43.5 47.5l13 15l6 7q9 10 12 10t3 -9q0 -3 -1 -13q-2 -17 -2 -27q0 -18 3 -36t12.5 -35.5t27.5 -29t46 -11.5q29 0 57 18.5t50 43.5t36 47t14 25q0 8 -10 8q-3 0 -16 -16q-22 -28 -46 -47t-58 -19q-27 0 -42.5 20
t-15.5 54q0 10 2 22.5t7 20.5q33 4 69 15.5t68.5 32t52.5 48.5t20 63zM71 82q0 28 20.5 69t52.5 81t67 66t63 26q43 0 43 -34q0 -22 -23 -62t-58.5 -82.5t-71 -71t-58.5 -28.5q-18 0 -26.5 9.5t-8.5 26.5zM510 338q0 -43 -43.5 -88.5t-127.5 -65.5q11 36 27.5 70.5
t35.5 61.5t38 43.5t36 16.5q16 0 25 -8t9 -30z" />
    <glyph glyph-name="ccedilla" unicode="&#xe7;" horiz-adv-x="278" 
d="M83 -13q21 3 43.5 19t41.5 35t31.5 36t12.5 19t-5 5.5t-7 3.5q-3 0 -15 -14q-16 -21 -32.5 -34t-40.5 -13q-47 0 -47 66q0 17 11.5 60.5t30.5 90t41.5 78t43.5 31.5q11 0 31 -19q12 -13 22.5 -20t24.5 -7t23 5t9 23q0 25 -21.5 33.5t-50.5 8.5q-48 0 -89.5 -32.5
t-70.5 -82.5t-45 -102.5t-16 -89.5q0 -47 10 -70t29 -29l-54 -81l7 -10l5 1q23 6 33 6q20 0 33 -10t13 -30q0 -24 -21 -34t-47 -10q-16 0 -52 12q-1 0 -3 1l-19 -26q27 -12 50.5 -16.5t39.5 -4.5q52 0 86 21.5t34 60.5q0 32 -21 51t-55 19q-12 0 -29 -3z" />
    <glyph glyph-name="egrave" unicode="&#xe8;" horiz-adv-x="278" 
d="M284 442l-117 149q-16 21 -38 21q-12 0 -20.5 -9.5t-8.5 -22.5q0 -16 18 -30l137 -108h29zM218 394q-33 0 -70 -26.5t-68.5 -70.5t-51 -96.5t-19.5 -100.5q0 -52 20.5 -84t63.5 -32q28 0 54.5 17.5t48 41.5t35.5 46t14 26q0 9 -8 9q-2 0 -15 -15q-24 -28 -47.5 -46.5
t-50.5 -18.5q-30 0 -44.5 15.5t-14.5 55.5q0 27 8 47q59 10 99.5 30t63.5 43.5t32.5 45.5t9.5 38q0 29 -15 52t-45 23zM213 376q17 0 24 -10.5t7 -26.5q0 -17 -8.5 -37.5t-28 -42.5t-51.5 -42t-77 -33q13 49 31.5 86t38 60.5t37 34.5t27.5 11z" />
    <glyph glyph-name="eacute" unicode="&#xe9;" horiz-adv-x="278" 
d="M191 442l155 97q15 9 23.5 17.5t8.5 19.5q0 17 -10 26.5t-22 9.5q-8 0 -15.5 -5t-18.5 -15l-6 -6l-146 -144h31zM218 394q-33 0 -70 -26.5t-68.5 -70.5t-51 -96.5t-19.5 -100.5q0 -52 20.5 -84t63.5 -32q28 0 54.5 17.5t48 41.5t35.5 46t14 26q0 9 -8 9q-2 0 -15 -15
q-24 -28 -47.5 -46.5t-50.5 -18.5q-30 0 -44.5 15.5t-14.5 55.5q0 27 8 47q59 10 99.5 30t63.5 43.5t32.5 45.5t9.5 38q0 29 -15 52t-45 23zM213 376q17 0 24 -10.5t7 -26.5q0 -17 -8.5 -37.5t-28 -42.5t-51.5 -42t-77 -33q13 49 31.5 86t38 60.5t37 34.5t27.5 11z" />
    <glyph glyph-name="ecircumflex" unicode="&#xea;" horiz-adv-x="278" 
d="M260 610h-38l-161 -168h37l136 106l82 -106h32zM218 394q-33 0 -70 -26.5t-68.5 -70.5t-51 -96.5t-19.5 -100.5q0 -52 20.5 -84t63.5 -32q28 0 54.5 17.5t48 41.5t35.5 46t14 26q0 9 -8 9q-2 0 -15 -15q-24 -28 -47.5 -46.5t-50.5 -18.5q-30 0 -44.5 15.5t-14.5 55.5
q0 27 8 47q59 10 99.5 30t63.5 43.5t32.5 45.5t9.5 38q0 29 -15 52t-45 23zM213 376q17 0 24 -10.5t7 -26.5q0 -17 -8.5 -37.5t-28 -42.5t-51.5 -42t-77 -33q13 49 31.5 86t38 60.5t37 34.5t27.5 11z" />
    <glyph glyph-name="edieresis" unicode="&#xeb;" horiz-adv-x="278" 
d="M133 551q-18 0 -31.5 -13.5t-13.5 -31.5t13.5 -31.5t31.5 -13.5t31.5 13.5t13.5 31.5t-13.5 31.5t-31.5 13.5zM333 551q-18 0 -31.5 -13.5t-13.5 -31.5t13.5 -31.5t31.5 -13.5t31.5 13.5t13.5 31.5t-13.5 31.5t-31.5 13.5zM218 394q-33 0 -70 -26.5t-68.5 -70.5
t-51 -96.5t-19.5 -100.5q0 -52 20.5 -84t63.5 -32q28 0 54.5 17.5t48 41.5t35.5 46t14 26q0 9 -8 9q-2 0 -15 -15q-24 -28 -47.5 -46.5t-50.5 -18.5q-30 0 -44.5 15.5t-14.5 55.5q0 27 8 47q59 10 99.5 30t63.5 43.5t32.5 45.5t9.5 38q0 29 -15 52t-45 23zM213 376
q17 0 24 -10.5t7 -26.5q0 -17 -8.5 -37.5t-28 -42.5t-51.5 -42t-77 -33q13 49 31.5 86t38 60.5t37 34.5t27.5 11z" />
    <glyph glyph-name="igrave" unicode="&#xec;" horiz-adv-x="278" 
d="M293 442l-117 149q-16 21 -38 21q-12 0 -20.5 -9.5t-8.5 -22.5q0 -16 18 -30l137 -108h29zM220 392q-15 0 -36.5 -11t-41.5 -26t-36 -29t-24 -22q-2 -2 -7 -6q-10 -8 -10 -14q0 -9 8 -9q5 0 14 6t26 20q19 15 28 21t14 6q9 0 9 -10q0 -12 -18 -50l-2 -4l-115 -233
q-7 -14 -7 -24q0 -22 29 -22q21 0 48.5 13.5t53 33t43.5 36.5t18 22q0 10 -7 10q-3 0 -17 -10q-16 -13 -30 -22l-2 -1q-36 -24 -44 -24q-7 0 -9 3t-2 9q0 7 9 23q2 5 5 11l110 228q5 11 9.5 25t4.5 23t-5.5 18t-15.5 9z" />
    <glyph glyph-name="iacute" unicode="&#xed;" horiz-adv-x="278" 
d="M200 442l155 97q15 9 23.5 17.5t8.5 19.5q0 17 -10 26.5t-22 9.5q-8 0 -15.5 -5t-18.5 -15l-6 -6l-146 -144h31zM220 392q-15 0 -36.5 -11t-41.5 -26t-36 -29t-24 -22q-2 -2 -7 -6q-10 -8 -10 -14q0 -9 8 -9q5 0 14 6t26 20q19 15 28 21t14 6q9 0 9 -10q0 -12 -18 -50
l-2 -4l-115 -233q-7 -14 -7 -24q0 -22 29 -22q21 0 48.5 13.5t53 33t43.5 36.5t18 22q0 10 -7 10q-3 0 -17 -10q-16 -13 -30 -22l-2 -1q-36 -24 -44 -24q-7 0 -9 3t-2 9q0 7 9 23q2 5 5 11l110 228q5 11 9.5 25t4.5 23t-5.5 18t-15.5 9z" />
    <glyph glyph-name="icircumflex" unicode="&#xee;" horiz-adv-x="278" 
d="M269 610h-38l-161 -168h37l136 106l82 -106h32zM220 392q-15 0 -36.5 -11t-41.5 -26t-36 -29t-24 -22q-2 -2 -7 -6q-10 -8 -10 -14q0 -9 8 -9q5 0 14 6t26 20q19 15 28 21t14 6q9 0 9 -10q0 -12 -18 -50l-2 -4l-115 -233q-7 -14 -7 -24q0 -22 29 -22q21 0 48.5 13.5
t53 33t43.5 36.5t18 22q0 10 -7 10q-3 0 -17 -10q-16 -13 -30 -22l-2 -1q-36 -24 -44 -24q-7 0 -9 3t-2 9q0 7 9 23q2 5 5 11l110 228q5 11 9.5 25t4.5 23t-5.5 18t-15.5 9z" />
    <glyph glyph-name="idieresis" unicode="&#xef;" horiz-adv-x="278" 
d="M142 551q-18 0 -31.5 -13.5t-13.5 -31.5t13.5 -31.5t31.5 -13.5t31.5 13.5t13.5 31.5t-13.5 31.5t-31.5 13.5zM342 551q-18 0 -31.5 -13.5t-13.5 -31.5t13.5 -31.5t31.5 -13.5t31.5 13.5t13.5 31.5t-13.5 31.5t-31.5 13.5zM220 392q-15 0 -36.5 -11t-41.5 -26t-36 -29
t-24 -22q-2 -2 -7 -6q-10 -8 -10 -14q0 -9 8 -9q5 0 14 6t26 20q19 15 28 21t14 6q9 0 9 -10q0 -12 -18 -50l-2 -4l-115 -233q-7 -14 -7 -24q0 -22 29 -22q21 0 48.5 13.5t53 33t43.5 36.5t18 22q0 10 -7 10q-3 0 -17 -10q-16 -13 -30 -22l-2 -1q-36 -24 -44 -24q-7 0 -9 3
t-2 9q0 7 9 23q2 5 5 11l110 228q5 11 9.5 25t4.5 23t-5.5 18t-15.5 9z" />
    <glyph glyph-name="eth" unicode="&#xf0;" horiz-adv-x="333" 
d="M67 52q0 28 13 82t35.5 109.5t52 93t60.5 37.5q21 0 30 -18t9 -42t-14 -75.5t-37.5 -106t-51.5 -91.5t-55 -37q-24 0 -33 14.5t-9 33.5zM383 622l-109 -51q-27 39 -55 67t-39 28q-9 0 -9 -7q0 -5 13 -19q24 -24 38 -49l19 -36l-106 -49l5 -22l106 50q11 -17 18.5 -54
t7.5 -65q0 -7 -1 -21q-2 -13 -2 -17q-15 17 -44 17q-30 0 -64.5 -20.5t-65.5 -57.5t-50.5 -87.5t-19.5 -108.5q0 -24 3.5 -47.5t12.5 -43.5t25 -32.5t39 -12.5q51 0 92 34.5t69 90t42.5 119.5t14.5 122q0 66 -10.5 112.5t-28.5 88.5l102 47z" />
    <glyph glyph-name="ntilde" unicode="&#xf1;" horiz-adv-x="444" 
d="M184 466q5 25 20 36.5t32 11.5q16 0 58 -18q9 -3 13 -5l5 -2q26 -10 42 -15.5t30 -5.5q19 0 35 10t29 28q21 28 30 66h-26q-2 -17 -16.5 -32.5t-31.5 -15.5q-10 0 -25 5t-41 15l-5 2q-29 11 -47 16.5t-33 5.5q-42 0 -64 -28.5t-31 -73.5h26zM387 260l1 1q11 24 18 43
t7 35q0 26 -16 40.5t-45 14.5t-57.5 -21t-53.5 -51.5t-42.5 -59.5t-35.5 -61q-7 -12 -10 -17q-9 -14 -12 -14q-2 0 -2 5q0 3 4.5 15t12.5 30q19 48 31 81.5t12 50.5q0 21 -7 31.5t-24 10.5q-14 0 -30.5 -10t-33 -24.5t-29.5 -28.5t-19 -23q-1 -2 -5 -7q-13 -17 -13 -25t8 -8
q4 0 25 24q19 23 33 36.5t25 13.5q15 0 15 -13q0 -6 -8 -29l-2 -5l-95 -254q-1 -3 -2 -5q-3 -9 -5.5 -16t-2.5 -12q0 -18 24 -18q11 0 17.5 8t15.5 27q13 30 26 54t32 54q43 69 72.5 113.5t50 69t35 34.5t28.5 10q23 0 23 -27q0 -19 -10 -40l-114 -243q-6 -15 -10 -25.5
t-4 -17.5q0 -17 25 -17q24 0 51 13.5t50 33t38 38t15 26.5t-9 8q-2 0 -21 -18q-22 -22 -37.5 -34.5t-26.5 -12.5t-11 12q0 4 6 13q2 4 3 7z" />
    <glyph glyph-name="ograve" unicode="&#xf2;" horiz-adv-x="333" 
d="M303 442l-117 149q-16 21 -38 21q-12 0 -20.5 -9.5t-8.5 -22.5q0 -16 18 -30l137 -108h29zM67 52q0 28 13 82t35.5 109.5t52 93t60.5 37.5q21 0 30 -18t9 -42t-14 -75.5t-37.5 -106t-51.5 -91.5t-55 -37q-24 0 -33 14.5t-9 33.5zM25 119q0 -24 3.5 -47t12.5 -43t25 -32.5
t39 -12.5q38 0 75 23.5t66 63t46 87t17 93.5q0 65 -21 104t-63 39q-30 0 -65 -21t-66 -58.5t-50 -88t-19 -107.5z" />
    <glyph glyph-name="oacute" unicode="&#xf3;" horiz-adv-x="333" 
d="M210 442l155 97q15 9 23.5 17.5t8.5 19.5q0 17 -10 26.5t-22 9.5q-8 0 -15.5 -5t-18.5 -15l-6 -6l-146 -144h31zM67 52q0 28 13 82t35.5 109.5t52 93t60.5 37.5q21 0 30 -18t9 -42t-14 -75.5t-37.5 -106t-51.5 -91.5t-55 -37q-24 0 -33 14.5t-9 33.5zM25 119
q0 -24 3.5 -47t12.5 -43t25 -32.5t39 -12.5q38 0 75 23.5t66 63t46 87t17 93.5q0 65 -21 104t-63 39q-30 0 -65 -21t-66 -58.5t-50 -88t-19 -107.5z" />
    <glyph glyph-name="ocircumflex" unicode="&#xf4;" horiz-adv-x="333" 
d="M279 610h-38l-161 -168h37l136 106l82 -106h32zM67 52q0 28 13 82t35.5 109.5t52 93t60.5 37.5q21 0 30 -18t9 -42t-14 -75.5t-37.5 -106t-51.5 -91.5t-55 -37q-24 0 -33 14.5t-9 33.5zM25 119q0 -24 3.5 -47t12.5 -43t25 -32.5t39 -12.5q38 0 75 23.5t66 63t46 87
t17 93.5q0 65 -21 104t-63 39q-30 0 -65 -21t-66 -58.5t-50 -88t-19 -107.5z" />
    <glyph glyph-name="otilde" unicode="&#xf5;" horiz-adv-x="333" 
d="M120 466q5 25 20 36.5t32 11.5q16 0 58 -18q9 -3 13 -5l5 -2q26 -10 42 -15.5t30 -5.5q19 0 35 10t29 28q21 28 30 66h-26q-2 -17 -16.5 -32.5t-31.5 -15.5q-10 0 -25 5t-41 15l-5 2q-29 11 -47 16.5t-33 5.5q-42 0 -64 -28.5t-31 -73.5h26zM67 52q0 28 13 82t35.5 109.5
t52 93t60.5 37.5q21 0 30 -18t9 -42t-14 -75.5t-37.5 -106t-51.5 -91.5t-55 -37q-24 0 -33 14.5t-9 33.5zM25 119q0 -24 3.5 -47t12.5 -43t25 -32.5t39 -12.5q38 0 75 23.5t66 63t46 87t17 93.5q0 65 -21 104t-63 39q-30 0 -65 -21t-66 -58.5t-50 -88t-19 -107.5z" />
    <glyph glyph-name="odieresis" unicode="&#xf6;" horiz-adv-x="333" 
d="M152 551q-18 0 -31.5 -13.5t-13.5 -31.5t13.5 -31.5t31.5 -13.5t31.5 13.5t13.5 31.5t-13.5 31.5t-31.5 13.5zM352 551q-18 0 -31.5 -13.5t-13.5 -31.5t13.5 -31.5t31.5 -13.5t31.5 13.5t13.5 31.5t-13.5 31.5t-31.5 13.5zM67 52q0 28 13 82t35.5 109.5t52 93t60.5 37.5
q21 0 30 -18t9 -42t-14 -75.5t-37.5 -106t-51.5 -91.5t-55 -37q-24 0 -33 14.5t-9 33.5zM25 119q0 -24 3.5 -47t12.5 -43t25 -32.5t39 -12.5q38 0 75 23.5t66 63t46 87t17 93.5q0 65 -21 104t-63 39q-30 0 -65 -21t-66 -58.5t-50 -88t-19 -107.5z" />
    <glyph glyph-name="divide" unicode="&#xf7;" horiz-adv-x="600" 
d="M468 170v38h-378v-38h378zM280 370q-17 0 -29.5 -12.5t-12.5 -29.5q0 -16 12.5 -29t29.5 -13t29.5 13t12.5 29q0 17 -12.5 29.5t-29.5 12.5zM280 92q-17 0 -29.5 -12.5t-12.5 -29.5q0 -16 12.5 -29t29.5 -13t29.5 13t12.5 29q0 17 -12.5 29.5t-29.5 12.5z" />
    <glyph glyph-name="oslash" unicode="&#xf8;" horiz-adv-x="333" 
d="M68 43q-1 4 -1 9q0 28 13 82t35.5 109.5t52 93t60.5 37.5q16 0 28 -15zM265 332q2 -6 2 -18q0 -24 -14 -75.5t-37.5 -106t-51.5 -91.5t-55 -37q-20 0 -31 13zM322 470l-54 -91q-16 15 -43 15q-30 0 -65 -21t-66 -58.5t-50 -88t-19 -107.5q0 -31 5.5 -59t19.5 -47
l-69 -116h26l59 101q16 -14 39 -14q38 0 75 23.5t66 63t46 87t17 93.5q0 75 -26 111l64 108h-25z" />
    <glyph glyph-name="ugrave" unicode="&#xf9;" horiz-adv-x="444" 
d="M386 442l-117 149q-16 21 -38 21q-12 0 -20.5 -9.5t-8.5 -22.5q0 -16 18 -30l137 -108h29zM407 330q9 19 14.5 33t5.5 18q0 9 -20 9q-16 0 -22 -2t-9 -8q-2 -3 -12 -25q-13 -28 -23.5 -50t-19.5 -38q-10 -19 -41.5 -56.5t-70 -76.5t-71 -65.5t-47.5 -26.5q-11 0 -11 8
q0 5 3 11q0 1 1 3l136 266q6 13 9.5 23t3.5 24q0 17 -27 17q-23 0 -49 -15t-50 -37t-39.5 -42t-15.5 -27q0 -8 8 -8q2 0 20 20q24 27 43 44t32 17q12 0 12 -10q0 -4 -13 -27q0 -1 -5 -10l-86 -160q-6 -11 -15.5 -29t-19.5 -39.5t-16 -38.5t-6 -26q0 -11 7.5 -16.5t17.5 -5.5
q37 0 147 95q28 23 48 44.5t42 47.5q16 19 18 19q1 0 1 -5q0 -2 -1.5 -5t-7.5 -17q-12 -24 -22 -46l-31 -67q-11 -25 -11 -36q0 -13 7.5 -21.5t20.5 -8.5q21 0 47.5 16t50 38.5t40 42.5t16.5 25q0 10 -10 10q-2 0 -8 -6.5t-19 -20.5q-26 -29 -45.5 -47t-31.5 -18q-8 0 -8 9
q0 5 3 11l1 3z" />
    <glyph glyph-name="uacute" unicode="&#xfa;" horiz-adv-x="444" 
d="M293 442l155 97q15 9 23.5 17.5t8.5 19.5q0 17 -10 26.5t-22 9.5q-8 0 -15.5 -5t-18.5 -15l-6 -6l-146 -144h31zM407 330q9 19 14.5 33t5.5 18q0 9 -20 9q-16 0 -22 -2t-9 -8q-2 -3 -12 -25q-13 -28 -23.5 -50t-19.5 -38q-10 -19 -41.5 -56.5t-70 -76.5t-71 -65.5
t-47.5 -26.5q-11 0 -11 8q0 5 3 11q0 1 1 3l136 266q6 13 9.5 23t3.5 24q0 17 -27 17q-23 0 -49 -15t-50 -37t-39.5 -42t-15.5 -27q0 -8 8 -8q2 0 20 20q24 27 43 44t32 17q12 0 12 -10q0 -4 -13 -27q0 -1 -5 -10l-86 -160q-6 -11 -15.5 -29t-19.5 -39.5t-16 -38.5t-6 -26
q0 -11 7.5 -16.5t17.5 -5.5q37 0 147 95q28 23 48 44.5t42 47.5q16 19 18 19q1 0 1 -5q0 -2 -1.5 -5t-7.5 -17q-12 -24 -22 -46l-31 -67q-11 -25 -11 -36q0 -13 7.5 -21.5t20.5 -8.5q21 0 47.5 16t50 38.5t40 42.5t16.5 25q0 10 -10 10q-2 0 -8 -6.5t-19 -20.5
q-26 -29 -45.5 -47t-31.5 -18q-8 0 -8 9q0 5 3 11l1 3z" />
    <glyph glyph-name="ucircumflex" unicode="&#xfb;" horiz-adv-x="444" 
d="M362 610h-38l-161 -168h37l136 106l82 -106h32zM407 330q9 19 14.5 33t5.5 18q0 9 -20 9q-16 0 -22 -2t-9 -8q-2 -3 -12 -25q-13 -28 -23.5 -50t-19.5 -38q-10 -19 -41.5 -56.5t-70 -76.5t-71 -65.5t-47.5 -26.5q-11 0 -11 8q0 5 3 11q0 1 1 3l136 266q6 13 9.5 23
t3.5 24q0 17 -27 17q-23 0 -49 -15t-50 -37t-39.5 -42t-15.5 -27q0 -8 8 -8q2 0 20 20q24 27 43 44t32 17q12 0 12 -10q0 -4 -13 -27q0 -1 -5 -10l-86 -160q-6 -11 -15.5 -29t-19.5 -39.5t-16 -38.5t-6 -26q0 -11 7.5 -16.5t17.5 -5.5q37 0 147 95q28 23 48 44.5t42 47.5
q16 19 18 19q1 0 1 -5q0 -2 -1.5 -5t-7.5 -17q-12 -24 -22 -46l-31 -67q-11 -25 -11 -36q0 -13 7.5 -21.5t20.5 -8.5q21 0 47.5 16t50 38.5t40 42.5t16.5 25q0 10 -10 10q-2 0 -8 -6.5t-19 -20.5q-26 -29 -45.5 -47t-31.5 -18q-8 0 -8 9q0 5 3 11l1 3z" />
    <glyph glyph-name="udieresis" unicode="&#xfc;" horiz-adv-x="444" 
d="M235 551q-18 0 -31.5 -13.5t-13.5 -31.5t13.5 -31.5t31.5 -13.5t31.5 13.5t13.5 31.5t-13.5 31.5t-31.5 13.5zM435 551q-18 0 -31.5 -13.5t-13.5 -31.5t13.5 -31.5t31.5 -13.5t31.5 13.5t13.5 31.5t-13.5 31.5t-31.5 13.5zM407 330q9 19 14.5 33t5.5 18q0 9 -20 9
q-16 0 -22 -2t-9 -8q-2 -3 -12 -25q-13 -28 -23.5 -50t-19.5 -38q-10 -19 -41.5 -56.5t-70 -76.5t-71 -65.5t-47.5 -26.5q-11 0 -11 8q0 5 3 11q0 1 1 3l136 266q6 13 9.5 23t3.5 24q0 17 -27 17q-23 0 -49 -15t-50 -37t-39.5 -42t-15.5 -27q0 -8 8 -8q2 0 20 20
q24 27 43 44t32 17q12 0 12 -10q0 -4 -13 -27q0 -1 -5 -10l-86 -160q-6 -11 -15.5 -29t-19.5 -39.5t-16 -38.5t-6 -26q0 -11 7.5 -16.5t17.5 -5.5q37 0 147 95q28 23 48 44.5t42 47.5q16 19 18 19q1 0 1 -5q0 -2 -1.5 -5t-7.5 -17q-12 -24 -22 -46l-31 -67q-11 -25 -11 -36
q0 -13 7.5 -21.5t20.5 -8.5q21 0 47.5 16t50 38.5t40 42.5t16.5 25q0 10 -10 10q-2 0 -8 -6.5t-19 -20.5q-26 -29 -45.5 -47t-31.5 -18q-8 0 -8 9q0 5 3 11l1 3z" />
    <glyph glyph-name="yacute" unicode="&#xfd;" horiz-adv-x="389" 
d="M226 442l155 97q15 9 23.5 17.5t8.5 19.5q0 17 -10 26.5t-22 9.5q-8 0 -15.5 -5t-18.5 -15l-6 -6l-146 -144h31zM-19 -152q-14 0 -23.5 -8.5t-9.5 -22.5q0 -37 38 -37q40 0 80 27.5t73.5 67.5t57 77.5t43.5 72.5l4 7q17 30 37 77.5t38 101.5t29 97t11 61q0 25 -18 25
q-24 0 -24 -42q0 -72 -18.5 -131t-61.5 -153l-1 -2q-8 -17 -16 -31.5t-10 -14.5t-2 5q0 6 1 20q3 43 3 79q0 55 -5 104t-15 86t-25 58.5t-34 21.5q-20 0 -39 -17.5t-34 -42.5t-24 -48t-9 -30q0 -11 9 -11q4 0 14 21q14 29 29.5 47.5t38.5 18.5q9 0 17.5 -27t14 -71t9 -96
t3.5 -100q0 -35 -13.5 -71.5t-35.5 -67.5t-44.5 -50t-39.5 -19q-6 0 -17 7q-16 11 -31 11z" />
    <glyph glyph-name="thorn" unicode="&#xfe;" horiz-adv-x="389" 
d="M176 332q8 25 15.5 30.5t34.5 5.5q39 0 59.5 -18t20.5 -50q0 -22 -14 -69t-38 -96.5t-53 -83t-58 -33.5q-26 0 -35.5 11t-9.5 32q0 13 5 30zM73 -5q14 -3 32 -3q58 0 107 34t84 86t53.5 106t18.5 92q0 39 -23 61.5t-78 22.5q-8 0 -32 -2t-42 -5q5 16 16 53l9 28
q25 65 41 114t16 67q0 7 -10 7q-2 0 -27 -3q-27 -3 -46 -5t-30 -2q-9 0 -9 -9q0 -6 5 -8.5t17 -3.5q4 -1 6 -1q11 -2 17 -5.5t6 -11.5t-17 -59q-26 -77 -47 -144l-168 -545q-7 -21 -12.5 -30t-16.5 -15q-8 -4 -28 -7q-12 -1 -17.5 -3t-5.5 -7q0 -9 9 -9q20 0 54 -2
q34 -1 54 -1q19 0 52 -3q23 -2 29 -2q21 0 21 10q0 4 -10.5 7.5t-31.5 8.5q-23 6 -27 8q-15 8 -15 23q0 5 1 8z" />
    <glyph glyph-name="ydieresis" unicode="&#xff;" horiz-adv-x="389" 
d="M168 551q-18 0 -31.5 -13.5t-13.5 -31.5t13.5 -31.5t31.5 -13.5t31.5 13.5t13.5 31.5t-13.5 31.5t-31.5 13.5zM368 551q-18 0 -31.5 -13.5t-13.5 -31.5t13.5 -31.5t31.5 -13.5t31.5 13.5t13.5 31.5t-13.5 31.5t-31.5 13.5zM-19 -152q-14 0 -23.5 -8.5t-9.5 -22.5
q0 -37 38 -37q40 0 80 27.5t73.5 67.5t57 77.5t43.5 72.5l4 7q17 30 37 77.5t38 101.5t29 97t11 61q0 25 -18 25q-24 0 -24 -42q0 -72 -18.5 -131t-61.5 -153l-1 -2q-8 -17 -16 -31.5t-10 -14.5t-2 5q0 6 1 20q3 43 3 79q0 55 -5 104t-15 86t-25 58.5t-34 21.5
q-20 0 -39 -17.5t-34 -42.5t-24 -48t-9 -30q0 -11 9 -11q4 0 14 21q14 29 29.5 47.5t38.5 18.5q9 0 17.5 -27t14 -71t9 -96t3.5 -100q0 -35 -13.5 -71.5t-35.5 -67.5t-44.5 -50t-39.5 -19q-6 0 -17 7q-16 11 -31 11z" />
    </font>
</defs>
</svg>
