<svg xmlns="http://www.w3.org/2000/svg" xmlns:xlink="http://www.w3.org/1999/xlink" viewBox="0 0 120 33.39"><defs><style>.a{fill:none;}.b{clip-path:url(#a);}.c{fill:#d18a00;}.d{fill:#5c315e;}</style><clipPath id="a"><rect class="a" width="120" height="33.39"/></clipPath></defs><title>callout_125x34</title><g class="b"><path class="c" d="M120,8.41S120,0,111.59,0H8.41S0,0,0,8.41v25H120v-25Z"/><path class="d" d="M100.82,25.33a0.76,0.76,0,0,1-.58.29,0.64,0.64,0,0,1-.59-0.69V24.88a1.07,1.07,0,0,1,1.09-1.05h0.07v1.5h0Zm0,1.37,0.08,0h1.5l0.07-.06a18.63,18.63,0,0,1-.09-2.35V23.49a3.46,3.46,0,0,0-.21-1.79,1.85,1.85,0,0,0-1.66-.75,5,5,0,0,0-1.82.35l-0.06.09a8.1,8.1,0,0,1,0,1.08h0.07A2.38,2.38,0,0,1,100,22a0.63,0.63,0,0,1,.76.77C99.51,23,98.1,23.41,98.1,25a1.52,1.52,0,0,0,1.25,1.75l0.18,0a1.77,1.77,0,0,0,1.28-.55V26.7ZM95,23.22c0-1.13.48-1.19,0.63-1.19a0.63,0.63,0,0,1,.54.64,3.24,3.24,0,0,1,0,.55H95Zm2.69,1,0.07-.06V23.6a2.47,2.47,0,0,0-1.18-2.5,2.23,2.23,0,0,0-.91-0.18,2.12,2.12,0,0,0-2.16,1.79,4.82,4.82,0,0,0-.13,1.17c0,1.8.74,3,2.58,3a2.92,2.92,0,0,0,1.52-.34V26.45a8.32,8.32,0,0,1,0-1.11H97.41a1.82,1.82,0,0,1-1.17.39A1.28,1.28,0,0,1,94.9,24.3h2.68ZM91.7,26.65V24.21A2.23,2.23,0,0,1,92,22.82a0.68,0.68,0,0,1,.5-0.24,0.72,0.72,0,0,1,.53.25h0.07c0.08-.83.1-1,0.2-1.76l0-.07a1.39,1.39,0,0,0-.33,0,1.51,1.51,0,0,0-1.24,1.32V21.06l-0.06,0a10.84,10.84,0,0,1-1.62.3l-0.06.06c0.09,1,.11,2,0.11,2.92v2.49l0.06,0.06h1.64ZM85.91,22.1l0.4-1.73L86.64,22l0.31,1.37H85.58Zm1.79,4.64h1.73l0-.06L89.3,26c0-.09-0.21-0.79-0.44-1.68l-0.53-2c-0.27-1-.46-1.72-0.71-2.72l-0.1-.35-0.06-.06H85.37l-0.06,0L84.84,21l-0.4,1.42-0.59,2.13c-0.29,1-.36,1.35-0.62,2.19l0,0h1.55l0.08-.06c0.12-.65.27-1.31,0.43-2h1.89c0.2,0.91.31,1.46,0.41,2ZM79,26.64V24.2a2.23,2.23,0,0,1,.27-1.39,0.68,0.68,0,0,1,.5-0.24,0.72,0.72,0,0,1,.53.25h0.07c0.08-.83.1-1,0.2-1.76l0-.07a1.39,1.39,0,0,0-.33,0,1.51,1.51,0,0,0-1.24,1.32V21l-0.06,0a10.84,10.84,0,0,1-1.62.3l-0.06.06c0.09,1,.11,2,0.11,2.92v2.49l0.06,0.06H79Zm-4.32,0h1.6l0-.06V21l-0.08.08c-0.69,0-.87,0-1.57.06l-0.06.06c0,0.89.06,3,.06,3.19v0.88a0.81,0.81,0,0,1-.61.31,0.5,0.5,0,0,1-.51-0.49h0V21.12l-0.06-.06a13.08,13.08,0,0,1-1.56.06l0,0.06v4.41a1.28,1.28,0,0,0,1.26,1.3h0a2,2,0,0,0,1.48-.72v0.47Zm-5.27-2.77a3.72,3.72,0,0,1-.27,1.63,0.47,0.47,0,0,1-.39.19c-0.35,0-.68-0.28-0.68-2a4.33,4.33,0,0,1,.16-1.31,0.57,0.57,0,0,1,.5-0.46,0.55,0.55,0,0,1,.49.44,5.6,5.6,0,0,1,.17,1.48m-0.61-3a2.41,2.41,0,0,0-1.77.67,4.26,4.26,0,0,0,0,4.55,2.28,2.28,0,0,0,1.74.7,2.25,2.25,0,0,0,1.8-.75,3.28,3.28,0,0,0,.61-2.12,3.51,3.51,0,0,0-.73-2.43,2.22,2.22,0,0,0-1.62-.61m-3.27.94,0.75-1.63a10.05,10.05,0,0,1,.5-1V19.08H65.26l-0.08.06c-0.26.73-.41,1.11-0.68,1.81L64,22.17l-0.59-1.51-0.57-1.58L62.76,19c-0.85,0-1,.06-1.82.08v0.06c0.25,0.51.29,0.62,0.74,1.66,0.14,0.32.28,0.64,0.43,1L63,23.76c0,0.18,0,1.86,0,2.89L63,26.71h1.76l0.06-.06V23.73Zm-9.36,4.89h1.61l0.06-.06c0-.62,0-0.79-0.06-2.33v-0.7c0-1.38,0-2.18-.7-2.55a1.3,1.3,0,0,0-.6-0.14,2.12,2.12,0,0,0-1.45.7V20.94l-0.08-.06c-0.71.15-.89,0.18-1.65,0.29l0,0.06c0.08,1,.11,2.11.11,3.24v2.2l0.06,0H55l0.06-.06c0-.85-0.09-3.45-0.08-3.83a1.37,1.37,0,0,1,0-.21,0.77,0.77,0,0,1,.58-0.34,0.57,0.57,0,0,1,.47.65h0v3.75h0.09Zm-3.84-6.77V18.63l-0.09,0c-0.65.1-.78,0.12-1.52,0.19l-0.06.06v1.3l0.06,0.06c0.65-.12.85-0.14,1.49-0.21Zm0.16,6.68c-0.08-1.11-.1-2.22-0.1-3.33V20.9l-0.06-.06c-0.74.16-.93,0.19-1.68,0.3l0,0.06c0,0.57.1,1.16,0.1,2.85,0,1.21,0,1.88,0,2.57l0.06,0.06h1.69Zm-8-3.45C44.48,22,45,22,45.11,22a0.63,0.63,0,0,1,.54.64,3.24,3.24,0,0,1,0,.55H44.48Zm2.69,1,0.08-.06V23.52A2.47,2.47,0,0,0,46.07,21a2.22,2.22,0,0,0-.91-0.18A2.12,2.12,0,0,0,43,22.63a4.82,4.82,0,0,0-.13,1.17c0,1.8.74,3,2.58,3A2.92,2.92,0,0,0,47,26.46V26.37a8.32,8.32,0,0,1,0-1.11H46.95a1.82,1.82,0,0,1-1.17.39,1.27,1.27,0,0,1-1.34-1.43h2.79ZM40.63,22.9a1.15,1.15,0,0,1-.31.91,0.49,0.49,0,0,1-.24.06c-0.47,0-.57-0.57-0.57-1,0-.82.28-1,0.55-1s0.57,0.26.57,1.06m-1,3.67L40,26.77a0.79,0.79,0,0,1,.68.71,0.69,0.69,0,0,1-.74.63h0a0.7,0.7,0,0,1-.78-0.61v0a1.17,1.17,0,0,1,.51-0.85m2.89-4.54a6.32,6.32,0,0,1,0-.93l0-.07H40.44a2.36,2.36,0,0,0-2,.61A2,2,0,0,0,38,23a1.65,1.65,0,0,0,1,1.59l-0.39.63c-0.11.19-.21,0.41-0.32,0.61V26a3.57,3.57,0,0,0,.58.35,1.47,1.47,0,0,0-1,1.32c0,0.79.78,1.43,2.13,1.43a2.93,2.93,0,0,0,1.89-.56,1.75,1.75,0,0,0,.48-0.63,1.8,1.8,0,0,0,.13-0.68c0-.88-0.57-1.24-1.41-1.59l-1.31-.48V25.06a2.53,2.53,0,0,1,.16-0.27,1.92,1.92,0,0,0,.39,0,1.72,1.72,0,0,0,1.94-1.69A1.45,1.45,0,0,0,41.78,22a6.84,6.84,0,0,1,.69.06h0.06Zm-6.88,3.28a0.76,0.76,0,0,1-.58.29,0.63,0.63,0,0,1-.58-0.74,1.07,1.07,0,0,1,1.09-1.05h0.07v1.5h0Zm0,1.37,0.08,0h1.5l0.07-.06a18.63,18.63,0,0,1-.09-2.35V23.5A3.44,3.44,0,0,0,37,21.71,1.85,1.85,0,0,0,35.34,21a5,5,0,0,0-1.82.35l-0.06.09a8.1,8.1,0,0,1,0,1.08h0.07A2.38,2.38,0,0,1,34.85,22a0.63,0.63,0,0,1,.76.77c-1.27.24-2.68,0.6-2.68,2.22a1.52,1.52,0,0,0,1.25,1.75l0.18,0a1.78,1.78,0,0,0,1.28-.55v0.45Zm-4.21,0V24.27a2.23,2.23,0,0,1,.27-1.39,0.68,0.68,0,0,1,.5-0.24,0.72,0.72,0,0,1,.53.25h0.07c0.08-.83.1-1,0.2-1.76l0-.07a1.39,1.39,0,0,0-.33,0,1.51,1.51,0,0,0-1.24,1.32V21.12l-0.06,0a10.84,10.84,0,0,1-1.62.3l-0.06.06c0.09,1,.11,2,0.11,2.92v2.49l0.06,0.06h1.64Zm-5.21-3.49c0-1.13.48-1.19,0.63-1.19a0.63,0.63,0,0,1,.54.64,3.24,3.24,0,0,1,0,.55H26.23Zm2.69,1L29,24.16V23.6a2.47,2.47,0,0,0-1.18-2.5,2.23,2.23,0,0,0-.91-0.18,2.12,2.12,0,0,0-2.16,1.79,4.82,4.82,0,0,0-.13,1.17c0,1.8.74,3,2.58,3a2.92,2.92,0,0,0,1.52-.34V26.45a8.32,8.32,0,0,1,0-1.11H28.7a1.82,1.82,0,0,1-1.17.39,1.27,1.27,0,0,1-1.34-1.43h2.68Zm-7.11-1c-0.16-.74-0.34-1.54-0.45-2.21l-0.13,0c-0.7,0-.89,0-1.61.08l0,0.06c0.3,1,.57,2,0.84,2.93l0.72,2.62,0.08,0.06h1.5l0.09-.06c0.13-.56.14-0.57,0.41-1.58l0.4-1.42c0.12-.41.63-2.21,0.73-2.57V21.12H23L23,21.18c-0.11.69-.15,0.91-0.42,2.12L22.18,25Zm-4.17.65a3.74,3.74,0,0,1-.27,1.63,0.47,0.47,0,0,1-.39.19c-0.35,0-.68-0.28-0.68-2a4.33,4.33,0,0,1,.16-1.31,0.57,0.57,0,0,1,.5-0.46,0.55,0.55,0,0,1,.49.44,5.6,5.6,0,0,1,.17,1.48m-0.61-3a2.41,2.41,0,0,0-1.77.67,4.25,4.25,0,0,0,0,4.55,2.28,2.28,0,0,0,1.73.7,2.25,2.25,0,0,0,1.8-.75,3.28,3.28,0,0,0,.61-2.12,3.51,3.51,0,0,0-.73-2.43A2.22,2.22,0,0,0,17,20.85m-3,4.09a1.83,1.83,0,0,1-1.28.45c-1.65,0-1.81-1.76-1.81-2.49,0-1.23.42-2.58,1.79-2.58a1.67,1.67,0,0,1,1.19.46H14V20.09l0.06-.75,0-.08a3.59,3.59,0,0,0-1.58-.3,3,3,0,0,0-3.15,2.27A5.93,5.93,0,0,0,9,23a4.16,4.16,0,0,0,.9,2.84,3.23,3.23,0,0,0,2.47.94,3.71,3.71,0,0,0,1.54-.29V26.43A12.13,12.13,0,0,1,14,25Z"/><path class="d" d="M107,15.62h1.45l0.08-.06c0.17-.77.35-1.43,0.78-2.92l0.54-1.76c0.63-2.07.7-2.31,1-3.15V7.67h-1.33l-0.06.06c-0.2.91-.21,1-0.42,1.75l-0.44,1.73-0.41-1.62c-0.29-1.17-.32-1.33-0.44-1.9l-0.09-.06c-0.76,0-.91.06-1.69,0.08l0,0.06c0.48,1.33,1.35,4.09,1.83,5.78a21,21,0,0,1-.73,2Zm-2.81-2.34V10.84a2.23,2.23,0,0,1,.27-1.39A0.68,0.68,0,0,1,105,9.21a0.72,0.72,0,0,1,.53.25h0.07c0.08-.83.1-1,0.2-1.76l0-.07a1.38,1.38,0,0,0-.33,0,1.51,1.51,0,0,0-1.24,1.32V7.69l-0.06,0a10.77,10.77,0,0,1-1.62.3L102.45,8c0.09,1,.11,2,0.11,2.92v2.49l0.06,0.06h1.64Zm-4.29-1.34a0.76,0.76,0,0,1-.58.29,0.63,0.63,0,0,1-.58-0.74,1.07,1.07,0,0,1,1.09-1.05h0.07v1.5h0Zm0,1.37,0.08,0h1.5l0.07-.06a18.63,18.63,0,0,1-.09-2.35V10.06a3.44,3.44,0,0,0-.21-1.79,1.85,1.85,0,0,0-1.66-.75,5,5,0,0,0-1.82.35L97.75,8A8.1,8.1,0,0,1,97.7,9h0.07a2.38,2.38,0,0,1,1.37-.43,0.63,0.63,0,0,1,.76.77c-1.27.24-2.68,0.6-2.68,2.22a1.52,1.52,0,0,0,1.25,1.75l0.18,0a1.77,1.77,0,0,0,1.28-.55v0.49Zm-3.29,0c0-.51,0-1-0.06-2V5.22l-0.06-.06c-0.66.14-.92,0.18-1.64,0.3l0,0.06c0,0.51.06,0.88,0.09,2s0,2,0,3v2.9l0,0.06h1.66V13.31Zm-4.35,0h1.6l0-.06V7.65l-0.06-.06c-0.68,0-.87,0-1.57.06l-0.06.06c0,0.89.06,3,.06,3.19v0.88a0.81,0.81,0,0,1-.61.31,0.5,0.5,0,0,1-.52-0.48v-4l-0.06-.06a13.05,13.05,0,0,1-1.56.06l0,0.06v4.41a1.28,1.28,0,0,0,1.26,1.3h0a2,2,0,0,0,1.48-.72v0.61ZM81.37,7.87a30.8,30.8,0,0,1,.13,3.55V13.3l0,0.06h1.62l0.06-.06c0-.73-0.06-1.59-0.06-4.08a0.91,0.91,0,0,1,.56-0.32c0.42,0,.45.51,0.47,0.76v3.67l0.06,0.06h1.6l0.08-.06c0-.94,0-1.18-0.06-2.28V9.18a0.8,0.8,0,0,1,.56-0.31c0.48,0,.49.57,0.5,0.86s0,0.54,0,.8v2.76l0,0.06h1.63l0.06-.06c-0.06-1.46-.06-2.06-0.06-3V9.83A2.86,2.86,0,0,0,88.24,8a1.29,1.29,0,0,0-1-.43,2.12,2.12,0,0,0-1.54.72,1.07,1.07,0,0,0-1-.72,2.1,2.1,0,0,0-1.45.75V7.59l-0.06-.06a13,13,0,0,1-1.68.29Zm-1.94,5.4V10.83a2.23,2.23,0,0,1,.27-1.39,0.69,0.69,0,0,1,.51-0.24,0.72,0.72,0,0,1,.53.25h0.07c0.08-.83.1-1,0.2-1.76l0-.07a1.38,1.38,0,0,0-.33,0,1.51,1.51,0,0,0-1.24,1.32V7.68l-0.06,0a10.77,10.77,0,0,1-1.62.3L77.65,8c0.09,1,.11,2,0.11,2.92V13.4l0.06,0.06h1.64Zm-4.2-2.73A3.74,3.74,0,0,1,75,12.17a0.47,0.47,0,0,1-.39.19c-0.35,0-.68-0.28-0.68-2a4.33,4.33,0,0,1,.16-1.31,0.57,0.57,0,0,1,.51-0.46,0.55,0.55,0,0,1,.49.44,5.6,5.6,0,0,1,.17,1.48m-0.61-3a2.41,2.41,0,0,0-1.77.67,4.25,4.25,0,0,0,0,4.55,2.28,2.28,0,0,0,1.74.7,2.25,2.25,0,0,0,1.8-.75A3.29,3.29,0,0,0,77,10.56a3.52,3.52,0,0,0-.73-2.43,2.23,2.23,0,0,0-1.62-.61m-3.06,2.61a7.78,7.78,0,0,1,.06-1.19l-0.06,0h-2V7h2.2l0.07-.06a9.1,9.1,0,0,1,.06-1.2l-0.06-.06h-4l-0.06,0c0,1.61.08,2.25,0.08,4.31v3.17l0,0.06h1.7l0.06-.06V10.12h1.92ZM60.9,12v1.1l0,0.1a3.6,3.6,0,0,0,1.43.27,2.12,2.12,0,0,0,1.56-.53,1.8,1.8,0,0,0,.55-1.32,1.86,1.86,0,0,0-1.17-1.67,1.11,1.11,0,0,1-.82-0.83,0.58,0.58,0,0,1,.6-0.55h0.11a1.31,1.31,0,0,1,1,.39h0.07V7.72A3.65,3.65,0,0,0,63,7.52,2.3,2.3,0,0,0,61.5,8a1.69,1.69,0,0,0-.56,1.33c0,1,.59,1.34,1.38,1.81a0.83,0.83,0,0,1,.56.69,0.62,0.62,0,0,1-.65.59H62.14a1.62,1.62,0,0,1-1.07-.44Zm-2.36,1.38h1.61l0.06-.06c0-.62,0-0.79-0.06-2.34v-0.7c0-1.38,0-2.18-.7-2.55a1.3,1.3,0,0,0-.6-0.14,2.13,2.13,0,0,0-1.45.7V7.59l-0.08-.06c-0.71.15-.89,0.18-1.65,0.29l0,0.06c0.08,1,.11,2.11.11,3.24v2.2l0.06,0h1.63l0.06-.06c0-.85-0.09-3.45-0.08-3.83a1.37,1.37,0,0,1,0-.21A0.77,0.77,0,0,1,58,8.93a0.57,0.57,0,0,1,.47.65h0v3.75h0.09Zm-5.31-1.4a0.76,0.76,0,0,1-.58.29,0.63,0.63,0,0,1-.58-0.74,1.07,1.07,0,0,1,1.09-1.05h0.07v1.5h0Zm0,1.37v0h1.5l0.07-.06a18.63,18.63,0,0,1-.09-2.35V10.06a3.44,3.44,0,0,0-.21-1.79,1.85,1.85,0,0,0-1.66-.75A5,5,0,0,0,51,7.87L51,8a8.1,8.1,0,0,1,0,1.08H51a2.38,2.38,0,0,1,1.37-.43,0.63,0.63,0,0,1,.76.77c-1.27.24-2.68,0.6-2.68,2.22a1.52,1.52,0,0,0,1.25,1.75l0.18,0a1.77,1.77,0,0,0,1.28-.55v0.42Zm-4.21,0V10.87a2.22,2.22,0,0,1,.27-1.39,0.68,0.68,0,0,1,.5-0.24,0.72,0.72,0,0,1,.53.25h0.07c0.08-.83.1-1,0.2-1.76l0-.07a1.38,1.38,0,0,0-.33,0A1.51,1.51,0,0,0,49,9V7.72l-0.06,0a10.77,10.77,0,0,1-1.62.3L47.23,8c0.09,1,.11,2,0.11,2.92v2.49L47.4,13.5H49Zm-2.34-4.5a6.38,6.38,0,0,1,0-1l-0.06-.06H45.89V6l-0.08,0c-0.62.19-.82,0.26-1.53,0.43l0,0.08V7.73a3.62,3.62,0,0,1-.48,0l-0.06.06v1l0,0.06h0.53v2.53a2.58,2.58,0,0,0,.26,1.6,1.57,1.57,0,0,0,1.27.48,3.08,3.08,0,0,0,.88-0.11l0.06-.09a6.19,6.19,0,0,1,0-1l-0.06,0a0.62,0.62,0,0,1-.35.11c-0.48,0-.49-0.53-0.49-1.08V8.88h0.74Zm-5.11,4.54h1.6l0-.06V7.69l-0.06-.06c-0.68,0-.87,0-1.57.06l-0.06.06c0,0.89.06,3,.06,3.19v0.88a0.81,0.81,0,0,1-.61.31,0.5,0.5,0,0,1-.52-0.48v-4L40.4,7.63a13.05,13.05,0,0,1-1.56.06l0,0.06v4.41A1.28,1.28,0,0,0,40,13.46h0a2,2,0,0,0,1.48-.72v0.61Zm-7-4.45v-2h0.51a0.83,0.83,0,0,1,.94,1,1,1,0,0,1-.46.93,2,2,0,0,1-1,.13m0,3.32V10.17h0.37a1,1,0,0,1,1.21,1,1.1,1.1,0,0,1-.42.94,2,2,0,0,1-1.15.16M32.77,5.9c0.08,1.39.08,2.76,0.08,4.16v3.31l0.06,0.06h1.28c1.41,0,2.41,0,3.1-.55a2.12,2.12,0,0,0,.76-1.71,1.72,1.72,0,0,0-.75-1.55,2,2,0,0,0-.59-0.22H36.47l0.26-.09a1.66,1.66,0,0,0,1-1.65c0-1.79-1.5-1.79-2.48-1.79h-2.4Zm-6.44,5.68c0.21,1.2.24,1.34,0.31,1.8l0.08,0.06h1.51l0.09-.06c0.06-.3.27-1.17,0.31-1.36L29,10.55c0.5-2,.56-2.27.66-2.74V7.75a11,11,0,0,1-1.2,0l-0.06.06c-0.14,1-.18,1.19-0.3,1.8l-0.36,1.91L27.38,9.6c-0.23-1.24-.24-1.34-0.31-1.81L27,7.73H25.32l-0.08.06c-0.09.55-.14,0.84-0.3,1.73l-0.39,2L24.19,9.6C24,8.82,24,8.6,23.87,7.78l-0.08,0-1.48.09,0,0.06,0.31,1.23,0.27,1.13,0.39,1.6c0,0.25.31,1.36,0.36,1.59l0.08,0.06h1.52l0.08-.06,0.39-2L26,9.68ZM19.13,9.9c0-1.13.48-1.19,0.63-1.19a0.63,0.63,0,0,1,.54.64,3.24,3.24,0,0,1,0,.55H19.13Zm2.69,1,0.08-.06V10.28a2.47,2.47,0,0,0-1.18-2.5,2.23,2.23,0,0,0-.91-0.18,2.12,2.12,0,0,0-2.16,1.79,4.82,4.82,0,0,0-.13,1.17c0,1.8.74,3,2.58,3a2.93,2.93,0,0,0,1.52-.34V13.13a8.32,8.32,0,0,1,0-1.11H21.6a1.82,1.82,0,0,1-1.17.39A1.27,1.27,0,0,1,19.09,11h2.68ZM16.67,6.66V5.38l-0.06-.06c-0.65.1-.78,0.12-1.52,0.19L15,5.57v1.3l0.06,0.06c0.65-.12.85-0.14,1.49-0.21Zm0.16,6.68c-0.08-1.11-.1-2.22-0.1-3.33V7.65l-0.06-.06c-0.74.16-.93,0.19-1.68,0.3l0,0.06c0,0.57.1,1.16,0.1,2.85,0,1.21,0,1.89,0,2.57l0.06,0.06h1.69Zm-4.22,0C13,12,13,11.79,13.26,10.8l0.43-1.62L14.6,5.87V5.81H13.11l-0.06,0c-0.2,1.19-.34,1.8-0.61,3l-0.6,2.61L11.23,9.06c-0.25-1.16-.44-2-0.68-3.32l-0.08-.06c-0.76,0-1,0-1.77.08V5.82C8.85,6.35,9,7,9.17,7.59,9.28,8,9.38,8.38,9.48,8.78l0.63,2.36,0.26,1,0.28,1.17,0.06,0.06h1.82Z"/></g></svg>