<svg xmlns="http://www.w3.org/2000/svg" xmlns:xlink="http://www.w3.org/1999/xlink" viewBox="0 0 726 88"><defs><style>.a{fill:url(#a);}.b,.c,.f{fill:none;}.c,.f{stroke-miterlimit:10;}.c{stroke-width:0.5px;stroke:url(#b);}.d{clip-path:url(#c);}.e{mask:url(#d);}.f{stroke:url(#g);}.g{fill:#231f20;}.h{fill:#5c315e;}.i{clip-path:url(#h);}.j{fill:url(#i);}.k{clip-path:url(#j);}.l{clip-path:url(#k);}.m{fill:#fff;}.n{clip-path:url(#l);}.o{filter:url(#e);}</style><linearGradient id="a" x1="-36.38" y1="354.39" x2="-35.13" y2="354.39" gradientTransform="matrix(0, 106.94, 106.94, 0, -37689.96, 3873.31)" gradientUnits="userSpaceOnUse"><stop offset="0" stop-color="#fff"/><stop offset="1"/></linearGradient><linearGradient id="b" x1="401.93" y1="42.75" x2="402.43" y2="42.75" gradientUnits="userSpaceOnUse"><stop offset="0" stop-color="#b51e8d"/><stop offset="0.98" stop-color="#b51e8d"/><stop offset="1" stop-color="#b51e8d"/></linearGradient><clipPath id="c"><rect class="b" x="161.15" y="-2" width="92.37" height="84.66"/></clipPath><filter id="e" x="118.86" y="-48.14" width="176.96" height="176.95" filterUnits="userSpaceOnUse" color-interpolation-filters="sRGB"><feFlood flood-color="#fff" result="bg"/><feBlend in="SourceGraphic" in2="bg"/></filter><mask id="d" x="118.86" y="-48.14" width="176.96" height="176.95" maskUnits="userSpaceOnUse"><g class="o"><rect class="a" x="144.82" y="-22.3" width="125.04" height="125.27" transform="translate(34.72 162.07) rotate(-46.2)"/></g></mask><linearGradient id="g" x1="172.7" y1="44.1" x2="241.98" y2="44.1" xlink:href="#b"/><clipPath id="h"><rect class="b" y="-0.5" width="401.86" height="12.61"/></clipPath><linearGradient id="i" x1="-34.92" y1="352.95" x2="-33.67" y2="352.95" gradientTransform="matrix(322.49, 0, 0, -322.49, 11261.08, 113828.29)" gradientUnits="userSpaceOnUse"><stop offset="0" stop-color="#6d2869"/><stop offset="0.17" stop-color="#6d2869"/><stop offset="0.22" stop-color="#752e65"/><stop offset="0.3" stop-color="#894059"/><stop offset="0.38" stop-color="#ab5c47"/><stop offset="0.49" stop-color="#da832d"/><stop offset="0.54" stop-color="#f99d1c"/><stop offset="0.75" stop-color="#e1e66a"/><stop offset="0.99" stop-color="#66c5b4"/><stop offset="1" stop-color="#66c5b4"/></linearGradient><clipPath id="j"><path class="b" d="M16.5,12.12V55.65s0,5.67,5.67,5.67h91s5.67,0,5.67-5.67V12.12H16.5Z"/></clipPath><clipPath id="k"><rect class="b" x="28.08" y="21.1" width="79.69" height="31.44"/></clipPath><clipPath id="l"><rect class="b" x="27.07" y="16.95" width="82.99" height="40.56"/></clipPath></defs><title>main_726x88</title><line class="c" x1="402.18" y1="-0.5" x2="402.18" y2="86"/><g class="d"><g class="e"><g class="d"><path class="f" d="M238.29,79.12h0a2.07,2.07,0,0,0,.45-0.13l0-.09a0.72,0.72,0,0,1,.16-0.29,1.29,1.29,0,0,0,.11-0.52,2.06,2.06,0,0,0-.13-0.68,0.23,0.23,0,0,1,0-.06l-0.18,0a1,1,0,0,1-.45-0.1H238.2a1,1,0,0,1-.45-0.28l0,0a0.71,0.71,0,0,1-.2-0.48A0.73,0.73,0,0,1,237.7,76a0.93,0.93,0,0,0,0-.87l0,0a1.3,1.3,0,0,1-.16-0.57,0.86,0.86,0,0,1,.48-0.75l0.19-.18,0.05,0h0l0-.08a0.67,0.67,0,0,1,.18-0.31h0a0.25,0.25,0,0,0,.06-0.19s0-.09,0-0.15,0-.11,0-0.18a0.69,0.69,0,0,1,.27-0.59l0.16-.16a2.14,2.14,0,0,1,.33-0.3l0,0a0.58,0.58,0,0,0-.07-0.14l-0.06-.1a0.86,0.86,0,0,1-.17-0.55,0.37,0.37,0,0,0-.09-0.31,0.25,0.25,0,0,1-.07-0.09,0.76,0.76,0,0,1-.07-0.3,0.53,0.53,0,0,1,.2-0.41,2,2,0,0,1,.27-0.24l0.09,0a0.47,0.47,0,0,0,.21-0.42,0.24,0.24,0,0,1,.05-0.13,1.87,1.87,0,0,1,.46-0.39l0.16-.11,0,0,0,0,0.14-.12,0,0,0,0,0.2-.17a2.24,2.24,0,0,1,.26-0.23,2,2,0,0,1,.25-0.22l0.2-.19,0,0a0.32,0.32,0,0,0,0-.15,0.21,0.21,0,0,0-.05-0.13l0,0-0.1,0a0.78,0.78,0,0,1-.33-0.16l-0.23-.19,0,0,0,0-0.15-.11h-0.09a1,1,0,0,1-.44-0.27h0a0.66,0.66,0,0,1-.21-0.53s0-.06,0-0.09,0-.06,0-0.08a0.27,0.27,0,0,0,0-.17,0.65,0.65,0,0,1-.21-0.34l0-.09h0a0.77,0.77,0,0,1-.22-0.54,0.44,0.44,0,0,0-.06-0.23l-0.24-.31a2.21,2.21,0,0,0-.19-0.2l0,0-0.24-.22a2.18,2.18,0,0,1-.28-0.26l0-.06a1,1,0,0,1-.16-0.57c0-.09,0-0.17,0-0.25s0-.15,0-0.21a0.88,0.88,0,0,0,0-.14V61.58l-0.2,0a0.28,0.28,0,0,1-.12-0.06L234,58.29l-9.4-8.09L206.7,34.84c-1-.88-2.06-1.75-3.1-2.63L202.19,31a0.64,0.64,0,0,1-.34-0.59,1.64,1.64,0,0,1,0-.23,1.24,1.24,0,0,0,0-.16q0-6.21,0-12.43,0-4.66,0-9.31s0-.09,0-0.14,0-.1,0-0.16a1,1,0,0,1,0-.29l0,0a2.37,2.37,0,0,0-.41,0H174.93a2.88,2.88,0,0,1-.41,0V7.78c0,0.05,0,.11,0,0.17a1,1,0,0,1-.08.45,0.86,0.86,0,0,0-.09.37,1.69,1.69,0,0,0,.3.8,4.75,4.75,0,0,1,.78,2.3,2.81,2.81,0,0,1-.34,1.33,2,2,0,0,0-.2.95c0,0.19,0,.39,0,0.61v0c0,0.29.06,0.6,0.06,0.92a2.47,2.47,0,0,1-.73,1.92,2.55,2.55,0,0,0-1.07,1.7,1.67,1.67,0,0,0,.28.87,0.43,0.43,0,0,1,.06.23,1.13,1.13,0,0,1,0,.13,0.61,0.61,0,0,0,0,.08,0.24,0.24,0,0,0,.17.23,9.28,9.28,0,0,1,2.65,2.5,4.13,4.13,0,0,1,1,2.56,3.13,3.13,0,0,1-.09.75,4.41,4.41,0,0,0-.15,1,1.93,1.93,0,0,0,.36,1.17,2.67,2.67,0,0,1,.34.78l0.07,0.2a1.32,1.32,0,0,1,.09.43,0.71,0.71,0,0,1-.23.53,0.48,0.48,0,0,0-.17.28v0a0.71,0.71,0,0,0,.41.35,4.74,4.74,0,0,1,1.77,1.64,2.89,2.89,0,0,0,.71.77,9.58,9.58,0,0,1,1.93,2l0.18,0.22a1.78,1.78,0,0,1,.54,1,1.68,1.68,0,0,1-.39.85h0a2.56,2.56,0,0,1,1.6.72,2.81,2.81,0,0,0,1,.57A4.84,4.84,0,0,0,185.5,38V37.88a0.91,0.91,0,0,1,1-.8h0.16a1.3,1.3,0,0,1,1,.49,3.33,3.33,0,0,1,.45,0,7.17,7.17,0,0,1,1.11.11,7.2,7.2,0,0,0,1,.1,3.31,3.31,0,0,1,.91-0.13,2.93,2.93,0,0,1,1.15.23h0a0.3,0.3,0,0,1,.23.1,0.23,0.23,0,0,1,.05.15,0.23,0.23,0,0,1-.07.16,0.35,0.35,0,0,1-.25.1h0a1.37,1.37,0,0,1-.51-0.13,0.89,0.89,0,0,0-.31-0.09h-0.08a3.81,3.81,0,0,1-.94.11c-0.33,0-.65,0-1-0.06s-0.62-.06-0.91-0.06a2.69,2.69,0,0,0-1.23.25,0.55,0.55,0,0,0-.31.42,0.92,0.92,0,0,0,.18.45c0.12,0.2.26,0.39,0.41,0.59a3.71,3.71,0,0,1,.88,1.83,0.61,0.61,0,0,0,.3.27L188.76,42a0.61,0.61,0,0,1,.36.42v0a0.51,0.51,0,0,1-.22.38,0.71,0.71,0,0,1-.46.18h0a0.79,0.79,0,0,1-.53-0.27,6.34,6.34,0,0,0-.52-0.45,2.32,2.32,0,0,1-1.14-1.75,1.85,1.85,0,0,1,0-.27,0.17,0.17,0,0,0-.14,0H186l-0.1,0a0.4,0.4,0,0,0,0,.13,1,1,0,0,1,.06.34,1.62,1.62,0,0,1-.18.67,0.64,0.64,0,0,0-.07.27,0.59,0.59,0,0,0,.25.45,1.44,1.44,0,0,1,.56,1.11,1.48,1.48,0,0,1-.11.55,0.85,0.85,0,0,0-.07.32,1,1,0,0,0,.4.71l0.62,0.62,0.44,0.44a1.06,1.06,0,0,0,.67.43,0.68,0.68,0,0,0,.33-0.1,0.75,0.75,0,0,1,.37-0.1,0.94,0.94,0,0,1,.36.08,1.88,1.88,0,0,1,1.11,1.53,1.69,1.69,0,0,1,0,.19c0,0.11,0,.14-0.07.14a2.34,2.34,0,0,0-.3-0.05,0.59,0.59,0,0,0-.34.11,3.07,3.07,0,0,0-.24,1.43s0,0.08,0,.09,0,0.25,0,.38c0.08,0.95.15,1.76,1.21,2.21a1.28,1.28,0,0,1,.64.58,7.13,7.13,0,0,0,.85,1.18,7.36,7.36,0,0,1,.94,1.34l0.13,0.28a1.25,1.25,0,0,0,1,1,0.71,0.71,0,0,1,.45.33,3.72,3.72,0,0,0,1.61,1.4,0.87,0.87,0,0,1,.52.47,0.61,0.61,0,0,1,0,.22,0.86,0.86,0,0,1-.14.44,2,2,0,0,0-.24.48h0a3.51,3.51,0,0,0,.66.24,1.67,1.67,0,0,1,1.09.66,0.7,0.7,0,0,1,.07.31,1.81,1.81,0,0,1-.24.77,1,1,0,0,0-.15.4,0.36,0.36,0,0,0,.06.18,2.26,2.26,0,0,1,.29,1.16,4.41,4.41,0,0,1-.11.9l0,0.14a1,1,0,0,0,0,.2v0a5.26,5.26,0,0,1,.47.29,2.26,2.26,0,0,0,1.19.5,1.16,1.16,0,0,0,.3,0,2.77,2.77,0,0,1,.72-0.1,4.55,4.55,0,0,1,1.56.34,3.87,3.87,0,0,0,1.31.24,3.35,3.35,0,0,0,.68-0.07l0.11,0a1.65,1.65,0,0,1,.38-0.06,0.7,0.7,0,0,1,.45.15,4,4,0,0,0,.75.43,2.11,2.11,0,0,1,1.46,1.51,0.66,0.66,0,0,0,.44.28l0.31,0.11a4.64,4.64,0,0,1,.75.31,1.69,1.69,0,0,0,.84.28,1.52,1.52,0,0,0,.48-0.09,2.9,2.9,0,0,1,.91-0.17,1.3,1.3,0,0,1,1,.4l0.12,0.13a2.13,2.13,0,0,1,.76,1.41,1.38,1.38,0,0,1,0,.3,0.82,0.82,0,0,0,0,.18,0.2,0.2,0,0,0,0,.11h0a0.8,0.8,0,0,0,.26-0.06,2,2,0,0,1,.7-0.13,2.11,2.11,0,0,1,1.36.58A13.79,13.79,0,0,0,217.6,73a6.77,6.77,0,0,1,3.06,3.89l0.13,0.33a2.94,2.94,0,0,1,.28,1.08,1.48,1.48,0,0,1-.2.74,0.19,0.19,0,0,0,0,.09,0.09,0.09,0,0,0,0,0,0.51,0.51,0,0,0,.3.21l0.15,0a0.69,0.69,0,0,1,.62.63,0.85,0.85,0,0,1,0,.13,0.79,0.79,0,0,0,0,.12,0.28,0.28,0,0,0,.07.22,0.46,0.46,0,0,0,.28.07l0.24,0a14.72,14.72,0,0,1,1.62-.15l0.85-.06,12.18-1.07a3.67,3.67,0,0,1,.69-0.08,3.16,3.16,0,0,1,.46-0.13h0a3.16,3.16,0,0,0-.46.13,3.67,3.67,0,0,0-.69.08L225,80.39l-0.85.06a14.72,14.72,0,0,0-1.62.15l-0.24,0a0.46,0.46,0,0,1-.28-0.07,0.28,0.28,0,0,1-.07-0.22,0.79,0.79,0,0,1,0-.12,0.85,0.85,0,0,0,0-.13,0.69,0.69,0,0,0-.62-0.63l-0.15,0a0.51,0.51,0,0,1-.3-0.21,0.08,0.08,0,0,1,0,0,0.19,0.19,0,0,1,0-.09,1.48,1.48,0,0,0,.2-0.74,2.94,2.94,0,0,0-.28-1.08l-0.13-.33A6.77,6.77,0,0,0,217.6,73a13.79,13.79,0,0,1-1.86-1.34,2.11,2.11,0,0,0-1.36-.58,2,2,0,0,0-.7.13,0.8,0.8,0,0,1-.26.06h0a0.2,0.2,0,0,1,0-.11,0.82,0.82,0,0,1,0-.18,1.38,1.38,0,0,0,0-.3,2.13,2.13,0,0,0-.76-1.41l-0.12-.13a1.3,1.3,0,0,0-1-.4,2.9,2.9,0,0,0-.91.17,1.52,1.52,0,0,1-.48.09,1.69,1.69,0,0,1-.84-0.28,4.64,4.64,0,0,0-.75-0.31l-0.31-.11a0.66,0.66,0,0,1-.44-0.28,2.11,2.11,0,0,0-1.46-1.51,4,4,0,0,1-.75-0.43,0.7,0.7,0,0,0-.45-0.15,1.64,1.64,0,0,0-.38.06l-0.11,0a3.35,3.35,0,0,1-.68.07,3.87,3.87,0,0,1-1.31-.24,4.55,4.55,0,0,0-1.56-.34,2.77,2.77,0,0,0-.72.1,1.16,1.16,0,0,1-.3,0,2.26,2.26,0,0,1-1.19-.5,5.26,5.26,0,0,0-.47-0.29v0a1,1,0,0,1,0-.2l0-.14a4.41,4.41,0,0,0,.11-0.9,2.26,2.26,0,0,0-.29-1.16,0.36,0.36,0,0,1-.06-0.18,1,1,0,0,1,.15-0.4,1.81,1.81,0,0,0,.24-0.77,0.7,0.7,0,0,0-.07-0.31,1.67,1.67,0,0,0-1.09-.66,3.51,3.51,0,0,1-.66-0.24h0a2,2,0,0,1,.24-0.48A0.86,0.86,0,0,0,197.2,59a0.61,0.61,0,0,0,0-.22,0.87,0.87,0,0,0-.52-0.47,3.72,3.72,0,0,1-1.61-1.4,0.71,0.71,0,0,0-.45-0.33,1.25,1.25,0,0,1-1-1l-0.13-.28a7.36,7.36,0,0,0-.94-1.34,7.13,7.13,0,0,1-.85-1.18,1.28,1.28,0,0,0-.64-0.58c-1.06-.45-1.13-1.27-1.21-2.21,0-.13,0-0.25,0-0.38s0,0,0-.09a3.07,3.07,0,0,1,.24-1.43,0.59,0.59,0,0,1,.34-0.11,2.34,2.34,0,0,1,.3.05s0.07,0,.07-0.14a1.69,1.69,0,0,0,0-.19,1.88,1.88,0,0,0-1.11-1.53,0.94,0.94,0,0,0-.36-0.08,0.75,0.75,0,0,0-.37.1,0.68,0.68,0,0,1-.33.1,1.06,1.06,0,0,1-.67-0.43l-0.44-.44-0.62-.62a1,1,0,0,1-.4-0.71,0.85,0.85,0,0,1,.07-0.32,1.48,1.48,0,0,0,.11-0.55,1.44,1.44,0,0,0-.56-1.11,0.59,0.59,0,0,1-.25-0.45,0.64,0.64,0,0,1,.07-0.27,1.62,1.62,0,0,0,.18-0.67,1,1,0,0,0-.06-0.34,0.4,0.4,0,0,1,0-.13l0.1,0h0.07a0.17,0.17,0,0,1,.14,0,1.85,1.85,0,0,0,0,.27,2.32,2.32,0,0,0,1.14,1.75,6.33,6.33,0,0,1,.52.45,0.79,0.79,0,0,0,.53.27h0a0.71,0.71,0,0,0,.46-0.18,0.51,0.51,0,0,0,.22-0.38v0a0.61,0.61,0,0,0-.36-0.42l-0.11-.07a0.61,0.61,0,0,1-.3-0.27,3.71,3.71,0,0,0-.88-1.83c-0.15-.2-0.29-0.39-0.41-0.59a0.92,0.92,0,0,1-.18-0.45,0.55,0.55,0,0,1,.31-0.42,2.69,2.69,0,0,1,1.23-.25c0.3,0,.6,0,0.91.06s0.64,0.06,1,.06a3.81,3.81,0,0,0,.94-0.11h0.08a0.89,0.89,0,0,1,.31.09,1.37,1.37,0,0,0,.51.13h0a0.35,0.35,0,0,0,.25-0.1,0.23,0.23,0,0,0,.07-0.16,0.23,0.23,0,0,0-.05-0.15,0.3,0.3,0,0,0-.23-0.1h0a2.93,2.93,0,0,0-1.15-.23,3.31,3.31,0,0,0-.91.13,7.2,7.2,0,0,1-1-.1,7.17,7.17,0,0,0-1.11-.11,3.33,3.33,0,0,0-.45,0,1.3,1.3,0,0,0-1-.49h-0.16a0.91,0.91,0,0,0-1,.8V38a4.85,4.85,0,0,1-.19,1.19,2.81,2.81,0,0,1-1-.57,2.56,2.56,0,0,0-1.6-.72h0a1.68,1.68,0,0,0,.39-0.85,1.78,1.78,0,0,0-.54-1l-0.18-.22a9.58,9.58,0,0,0-1.93-2,2.89,2.89,0,0,1-.71-0.77A4.74,4.74,0,0,0,178,31.5a0.71,0.71,0,0,1-.41-0.35v0a0.48,0.48,0,0,1,.17-0.28,0.71,0.71,0,0,0,.23-0.53,1.32,1.32,0,0,0-.09-0.43l-0.07-.2a2.67,2.67,0,0,0-.34-0.78,1.93,1.93,0,0,1-.36-1.17,4.41,4.41,0,0,1,.15-1,3.13,3.13,0,0,0,.09-0.75,4.13,4.13,0,0,0-1-2.56,9.28,9.28,0,0,0-2.65-2.5,0.24,0.24,0,0,1-.17-0.23,0.62,0.62,0,0,1,0-.08,1.13,1.13,0,0,0,0-.13,0.43,0.43,0,0,0-.06-0.23,1.67,1.67,0,0,1-.28-0.87,2.55,2.55,0,0,1,1.07-1.7,2.47,2.47,0,0,0,.73-1.92c0-.32,0-0.63-0.06-0.92v0c0-.22,0-0.42,0-0.61a2,2,0,0,1,.2-0.95,2.81,2.81,0,0,0,.34-1.33,4.75,4.75,0,0,0-.78-2.3,1.69,1.69,0,0,1-.3-0.8,0.86,0.86,0,0,1,.09-0.37A1,1,0,0,0,174.53,8c0-.06,0-0.11,0-0.17V7.66a2.88,2.88,0,0,0,.41,0h26.55a2.37,2.37,0,0,1,.41,0l0,0a1,1,0,0,0,0,.29c0,0.06,0,.11,0,0.16s0,0.09,0,.14q0,4.66,0,9.31,0,6.21,0,12.43a1.24,1.24,0,0,1,0,.16,1.64,1.64,0,0,0,0,.23,0.64,0.64,0,0,0,.34.59l1.4,1.18c1,0.87,2.07,1.74,3.1,2.63L224.58,50.2l9.4,8.09,3.71,3.2a0.28,0.28,0,0,0,.12.06l0.2,0v0.17a0.88,0.88,0,0,1,0,.14c0,0.07,0,.14,0,0.21s0,0.17,0,.25a1,1,0,0,0,.16.57l0,0.06a2.18,2.18,0,0,0,.28.26l0.24,0.22,0,0a2.21,2.21,0,0,1,.19.2L239.19,64a0.44,0.44,0,0,1,.06.23,0.77,0.77,0,0,0,.22.54h0l0,0.09a0.65,0.65,0,0,0,.21.34,0.27,0.27,0,0,1,0,.17s0,0.05,0,.08,0,0.06,0,.09a0.66,0.66,0,0,0,.21.53h0a1,1,0,0,0,.44.27h0.09l0.15,0.11,0,0,0,0L241,66.73a0.78,0.78,0,0,0,.33.16l0.1,0,0,0a0.21,0.21,0,0,1,.05.13,0.32,0.32,0,0,1,0,.15l0,0-0.2.19a2,2,0,0,0-.25.22,2.23,2.23,0,0,0-.26.23l-0.2.17,0,0,0,0-0.14.12,0,0,0,0-0.16.11a1.87,1.87,0,0,0-.46.39,0.24,0.24,0,0,0-.05.13,0.47,0.47,0,0,1-.21.42l-0.09,0a1.94,1.94,0,0,0-.27.24,0.53,0.53,0,0,0-.2.41,0.76,0.76,0,0,0,.07.3,0.25,0.25,0,0,0,.07.09,0.37,0.37,0,0,1,.09.31,0.86,0.86,0,0,0,.17.55l0.06,0.1a0.58,0.58,0,0,1,.07.14l0,0a2.13,2.13,0,0,0-.33.3l-0.16.16a0.69,0.69,0,0,0-.27.59c0,0.06,0,.12,0,0.18s0,0.11,0,.15a0.25,0.25,0,0,1-.06.19h0a0.67,0.67,0,0,0-.18.31l0,0.08h0l-0.05,0-0.19.18a0.86,0.86,0,0,0-.48.75,1.3,1.3,0,0,0,.16.57l0,0a0.93,0.93,0,0,1,0,.87,0.73,0.73,0,0,0-.18.45,0.71,0.71,0,0,0,.2.48l0,0a1,1,0,0,0,.45.28h0.06a1,1,0,0,0,.45.1l0.18,0a0.23,0.23,0,0,0,0,.06,2.06,2.06,0,0,1,.13.68,1.3,1.3,0,0,1-.11.52,0.72,0.72,0,0,0-.16.29l0,0.09a2.08,2.08,0,0,1-.45.13h0Z"/></g></g></g><path class="g" d="M394.39,64.39h-1.23v1.38h1.23V64.39ZM393.2,62h-1.1l-0.46,2.49L391.11,62l-1.16.14L391,65.82l0,0.12a0.51,0.51,0,0,1-.43.22,1.86,1.86,0,0,1-.41-0.05L390.27,67a3.1,3.1,0,0,0,.5,0,1.32,1.32,0,0,0,1.4-1.25Zm-3.33,3.72-0.15-.91-0.27,0a0.32,0.32,0,0,1-.34-0.39V63h0.74L389.69,62H389.1V60.72l-1.07.17V62h-0.43V63H388v1.65a1,1,0,0,0,1.2,1.21,2.64,2.64,0,0,0,.63-0.08m-4-3c0.25,0,.41.28,0.42,0.85h-0.85c0-.63.2-0.85,0.43-0.85m1.43,1.52a3,3,0,0,0,0-.41c0-1.08-.45-1.87-1.43-1.87s-1.52.85-1.52,2c0,1.27.58,1.94,1.66,1.94a2.59,2.59,0,0,0,1.29-.33l-0.12-.78a2,2,0,0,1-1,.28,0.74,0.74,0,0,1-.76-0.78h1.84Zm-3-3-0.14-.86a3.12,3.12,0,0,0-.57,0,1,1,0,0,0-1.11,1.12V62H382V63h0.45v2.8h1.06V63h0.73L384.12,62h-0.58v-0.4a0.36,0.36,0,0,1,.41-0.43,1.64,1.64,0,0,1,.35,0m-3.64,3.61a0.58,0.58,0,0,1-.4.2,0.3,0.3,0,0,1-.28-0.36,0.75,0.75,0,0,1,.67-0.7v0.86Zm1.1,0.92V63.22A1.07,1.07,0,0,0,380.5,62a3.28,3.28,0,0,0-1.33.27l0.14,0.85a2.1,2.1,0,0,1,.88-0.28,0.39,0.39,0,0,1,.46.46v0.14C379.6,63.58,379,64,379,64.83a0.86,0.86,0,0,0,.86,1,1.25,1.25,0,0,0,.92-0.46l0.06,0.39h0.94Zm-3.09-1.1a1.38,1.38,0,0,0-1-1.21,0.73,0.73,0,0,1-.52-0.44,0.22,0.22,0,0,1,.26-0.21,2.21,2.21,0,0,1,.91.27l0.14-.88a2.4,2.4,0,0,0-1.1-.25,1.11,1.11,0,0,0-1.23,1.12,1.31,1.31,0,0,0,1,1.18,0.75,0.75,0,0,1,.56.48,0.27,0.27,0,0,1-.32.25,2.43,2.43,0,0,1-1.11-.37l-0.15.89a2.56,2.56,0,0,0,1.27.34,1.17,1.17,0,0,0,1.33-1.17m-4.18-1.56L374.3,62a1.26,1.26,0,0,0-.88.62L373.34,62h-0.93v3.74h1.11V63.48a1.67,1.67,0,0,1,1-.37m-3.6.79c0,0.64-.15,1-0.48,1s-0.49-.38-0.49-1,0.15-1,.48-1,0.49,0.4.49,1m1.09,0c0-1.26-.63-1.94-1.57-1.94s-1.58.69-1.58,2,0.63,1.94,1.57,1.94S372,65.16,372,63.9M367.24,62h-1.1l-0.46,2.49L365.15,62l-1.17.14L365,65.82l0,0.12a0.51,0.51,0,0,1-.43.22,1.86,1.86,0,0,1-.41-0.05L364.31,67a3.07,3.07,0,0,0,.49,0,1.32,1.32,0,0,0,1.4-1.25Zm-3.45,3.53-0.14-.9a1.11,1.11,0,0,1-.61.21c-0.45,0-.69-0.32-0.69-1s0.22-1,.63-1a1,1,0,0,1,.61.21l0.15-1a1.9,1.9,0,0,0-.92-0.21c-1,0-1.58.69-1.58,1.94s0.56,1.93,1.58,1.93a1.72,1.72,0,0,0,1-.28m-4-.72a0.58,0.58,0,0,1-.4.2,0.3,0.3,0,0,1-.28-0.36,0.75,0.75,0,0,1,.67-0.7v0.86Zm1.1,0.92V63.22A1.07,1.07,0,0,0,359.59,62a3.28,3.28,0,0,0-1.33.27l0.14,0.85a2.09,2.09,0,0,1,.88-0.28,0.39,0.39,0,0,1,.46.46v0.14c-1.06.17-1.69,0.59-1.69,1.42a0.86,0.86,0,0,0,.86,1,1.25,1.25,0,0,0,.92-0.46l0.06,0.39h0.94Zm-3.09-.21-0.14-.9a1.11,1.11,0,0,1-.61.21c-0.45,0-.69-0.32-0.69-1s0.22-1,.63-1a1,1,0,0,1,.61.21l0.15-1a1.9,1.9,0,0,0-.92-0.21c-1,0-1.58.69-1.58,1.94s0.56,1.93,1.59,1.93a1.72,1.72,0,0,0,1-.28m-4.35-4.32-0.14-.86a3.12,3.12,0,0,0-.57,0,1,1,0,0,0-1.11,1.12V62h-0.45V63h0.45v2.8h1.06V63h0.73L353.23,62h-0.58v-0.4a0.36,0.36,0,0,1,.41-0.43,1.64,1.64,0,0,1,.35,0m-2.29,0L351,60.38a3.12,3.12,0,0,0-.57,0,1,1,0,0,0-1.11,1.12V62h-0.45V63h0.45v2.8h1.06V63h0.73L350.94,62h-0.58v-0.4a0.36,0.36,0,0,1,.41-0.43,1.66,1.66,0,0,1,.35,0M354.77,62h-1.1v3.74h1.1V62Zm0.08-1a0.62,0.62,0,1,0-.62.62,0.62,0.62,0,0,0,.62-0.62m-7.68,1.71c0.25,0,.41.28,0.42,0.85h-0.85c0-.63.2-0.85,0.43-0.85m1.43,1.52a3,3,0,0,0,0-.41c0-1.08-.45-1.87-1.43-1.87s-1.53.85-1.53,2c0,1.27.58,1.94,1.66,1.94a2.59,2.59,0,0,0,1.29-.33l-0.12-.78a2,2,0,0,1-1,.28,0.74,0.74,0,0,1-.76-0.78h1.84Zm-4.81,1.53v-5.5l-1.11.17v5.34h1.11ZM341,64.84a0.58,0.58,0,0,1-.4.2,0.3,0.3,0,0,1-.27-0.36A0.75,0.75,0,0,1,341,64v0.86Zm1.1,0.92V63.22A1.07,1.07,0,0,0,340.88,62a3.28,3.28,0,0,0-1.33.27l0.14,0.85a2.09,2.09,0,0,1,.88-0.28,0.39,0.39,0,0,1,.46.46v0.14c-1.06.17-1.69,0.59-1.69,1.42a0.86,0.86,0,0,0,.86,1,1.25,1.25,0,0,0,.92-0.46l0.06,0.39h0.94ZM339,65.56l-0.14-.9a1.11,1.11,0,0,1-.61.21c-0.45,0-.69-0.32-0.69-1s0.22-1,.63-1a1,1,0,0,1,.61.21l0.15-1a1.9,1.9,0,0,0-.92-0.21c-1,0-1.58.69-1.58,1.94s0.56,1.93,1.58,1.93a1.72,1.72,0,0,0,1-.28m-3-3.53H335v3.74h1.1V62Zm0.08-1a0.62,0.62,0,1,0-.62.62,0.62,0.62,0,0,0,.62-0.62m-1.71,4.76V62.91a0.82,0.82,0,0,0-.9-1,1.47,1.47,0,0,0-1,.47l-0.07-.4h-0.94v3.74h1.11V63.13a0.73,0.73,0,0,1,.44-0.2,0.24,0.24,0,0,1,.24.28v2.55h1.1ZM331,62h-1.1v3.74H331V62ZM331,61a0.63,0.63,0,1,0-.63.62A0.62,0.62,0,0,0,331,61m-1.76,4.76v-5.5l-1.11.17v5.34h1.11Zm-1.52-.21-0.14-.9a1.11,1.11,0,0,1-.61.21c-0.45,0-.69-0.32-0.69-1s0.22-1,.63-1a1,1,0,0,1,.61.21l0.15-1a1.9,1.9,0,0,0-.92-0.21c-1,0-1.58.69-1.58,1.94s0.56,1.93,1.58,1.93a1.72,1.72,0,0,0,1-.28m-4.17-2.45L323.4,62a1.26,1.26,0,0,0-.88.62L322.44,62h-0.93v3.74h1.11V63.48a1.67,1.67,0,0,1,1-.37m-3.6.79c0,0.64-.15,1-0.48,1s-0.49-.38-0.49-1,0.15-1,.48-1,0.49,0.4.49,1m1.09,0c0-1.26-.63-1.94-1.57-1.94s-1.58.69-1.58,2,0.63,1.94,1.57,1.94,1.58-.69,1.58-1.94M317.48,62h-1.1v3.74h1.1V62Zm0.08-1a0.63,0.63,0,1,0-.62.62,0.62,0.62,0,0,0,.62-0.62M316,63.11L315.85,62a1.26,1.26,0,0,0-.88.62L314.89,62H314v3.74h1.11V63.48a1.67,1.67,0,0,1,1-.37m-4-.4c0.25,0,.41.28,0.42,0.85h-0.85c0-.63.2-0.85,0.43-0.85m1.43,1.52a3,3,0,0,0,0-.41c0-1.08-.45-1.87-1.43-1.87s-1.52.85-1.52,2c0,1.27.58,1.94,1.66,1.94a2.59,2.59,0,0,0,1.29-.33l-0.12-.78a2,2,0,0,1-1,.28,0.74,0.74,0,0,1-.76-0.78h1.85Zm-4.35-.4c0,0.75-.26,1.06-0.65,1.06a0.44,0.44,0,0,1-.22,0V63.13a0.59,0.59,0,0,1,.39-0.18c0.28,0,.48.2,0.48,0.88m1.08-.12c0-1.17-.46-1.76-1.16-1.76a1.24,1.24,0,0,0-.91.44L308.09,62h-0.94v5.05l1.11-.17V65.75a1.46,1.46,0,0,0,.37.05c0.9,0,1.58-.63,1.58-2.09m-3.6,2V62h-1.11v2.64a0.74,0.74,0,0,1-.43.19,0.23,0.23,0,0,1-.25-0.27V62h-1.1v2.86a0.82,0.82,0,0,0,.89,1,1.46,1.46,0,0,0,1-.47l0.07,0.4h0.94Zm-3.25-1.1a1.38,1.38,0,0,0-1-1.21,0.73,0.73,0,0,1-.52-0.44,0.22,0.22,0,0,1,.26-0.21,2.21,2.21,0,0,1,.91.27l0.14-.88a2.4,2.4,0,0,0-1.1-.25,1.11,1.11,0,0,0-1.23,1.12,1.31,1.31,0,0,0,1,1.18,0.75,0.75,0,0,1,.56.48A0.27,0.27,0,0,1,302,65a2.43,2.43,0,0,1-1.11-.37l-0.15.89a2.56,2.56,0,0,0,1.27.34,1.17,1.17,0,0,0,1.33-1.17"/><path class="g" d="M394.61,52.5h-1.1L393,55l-0.52-2.55-1.16.14,1.05,3.71,0,0.12a0.52,0.52,0,0,1-.43.22,1.86,1.86,0,0,1-.41-0.05l0.15,0.91a3,3,0,0,0,.5,0,1.32,1.32,0,0,0,1.4-1.25Zm-3.54,3.74v-5.5L390,50.9v5.34h1.11Zm-2.65-1.93c0,0.75-.26,1.06-0.65,1.06a0.45,0.45,0,0,1-.22,0V53.6a0.59,0.59,0,0,1,.39-0.18c0.27,0,.48.2,0.48,0.88m1.08-.12c0-1.17-.46-1.76-1.16-1.76a1.24,1.24,0,0,0-.91.44l-0.06-.37h-0.94v5.05l1.11-.17V56.22a1.44,1.44,0,0,0,.37.05c0.9,0,1.58-.63,1.58-2.09m-3.57,2V53.38a0.81,0.81,0,0,0-.88-1,1.45,1.45,0,0,0-1,.44,0.77,0.77,0,0,0-.78-0.44,1.43,1.43,0,0,0-1,.46l-0.07-.39h-0.93v3.74h1.1V53.6a0.66,0.66,0,0,1,.41-0.19,0.23,0.23,0,0,1,.24.27v2.56h1.1V53.6a0.64,0.64,0,0,1,.41-0.19,0.23,0.23,0,0,1,.24.27v2.56h1.1Zm-5.16-3.74h-1.1v3.74h1.1V52.5Zm0.08-1a0.62,0.62,0,1,0-.62.62,0.62,0.62,0,0,0,.62-0.62m-3,4.75-0.15-.91-0.27,0a0.32,0.32,0,0,1-.34-0.39V53.44h0.74l-0.15-.94h-0.59V51.19l-1.07.17V52.5h-0.43v0.94H376v1.65a1,1,0,0,0,1.2,1.21,2.63,2.63,0,0,0,.63-0.08m-3.54-1.84c0,0.64-.15,1-0.48,1s-0.49-.38-0.49-1,0.15-1,.48-1,0.49,0.4.49,1m1.09,0c0-1.26-.63-1.94-1.57-1.94s-1.58.69-1.58,2,0.63,1.94,1.57,1.94,1.58-.69,1.58-1.94m-3.55,1.87V53.38a0.82,0.82,0,0,0-.9-1,1.47,1.47,0,0,0-1,.47l-0.07-.4h-0.94v3.74h1.11V53.6a0.73,0.73,0,0,1,.44-0.2,0.24,0.24,0,0,1,.24.27v2.55h1.1Zm-4.69-1.1a1.38,1.38,0,0,0-1-1.21,0.73,0.73,0,0,1-.52-0.43,0.22,0.22,0,0,1,.26-0.21,2.2,2.2,0,0,1,.91.28l0.14-.88a2.4,2.4,0,0,0-1.1-.25,1.11,1.11,0,0,0-1.23,1.12,1.3,1.3,0,0,0,1,1.18,0.75,0.75,0,0,1,.56.48,0.27,0.27,0,0,1-.32.25,2.42,2.42,0,0,1-1.11-.37l-0.15.89a2.55,2.55,0,0,0,1.27.34,1.17,1.17,0,0,0,1.33-1.17m-4.34-2c0.25,0,.41.28,0.42,0.85h-0.85c0-.63.2-0.85,0.43-0.85m1.43,1.52a3,3,0,0,0,0-.41c0-1.08-.45-1.87-1.43-1.87s-1.52.85-1.52,2c0,1.27.58,1.94,1.66,1.94a2.59,2.59,0,0,0,1.29-.33l-0.12-.78a2,2,0,0,1-1,.28,0.74,0.74,0,0,1-.76-0.78h1.85Zm-4.35-.33c0,0.64-.15,1-0.48,1s-0.49-.38-0.49-1,0.15-1,.48-1,0.49,0.4.49,1m1.09,0c0-1.26-.63-1.94-1.57-1.94s-1.58.69-1.58,2,0.63,1.94,1.57,1.94,1.58-.69,1.58-1.94m-4.68.77a0.63,0.63,0,0,1-.38.18c-0.29,0-.49-0.21-0.49-0.88s0.26-1.07.65-1.07a0.47,0.47,0,0,1,.22.05v1.72Zm1.1,1.1v-5.5l-1.1.17v1.62a1.4,1.4,0,0,0-.38-0.05c-0.89,0-1.58.62-1.58,2.08,0,1.17.47,1.76,1.17,1.76a1.26,1.26,0,0,0,.91-0.43l0.05,0.36h0.94Zm-4.67-3.74h-1.1L351.17,55l-0.52-2.55-1.17.14,1.05,3.71,0,0.12a0.52,0.52,0,0,1-.44.22,1.88,1.88,0,0,1-.41-0.05l0.15,0.91a3,3,0,0,0,.5,0,1.32,1.32,0,0,0,1.4-1.25Zm-3.3,1.08-0.18-1.16a1.25,1.25,0,0,0-.88.62l-0.08-.54h-0.93v3.74h1.11V54a1.67,1.67,0,0,1,1-.37m-3.68,1.73a0.58,0.58,0,0,1-.4.2,0.3,0.3,0,0,1-.28-0.36,0.75,0.75,0,0,1,.67-0.7v0.86Zm1.1,0.92V53.69a1.07,1.07,0,0,0-1.25-1.25,3.26,3.26,0,0,0-1.33.27l0.14,0.85a2.08,2.08,0,0,1,.88-0.28,0.39,0.39,0,0,1,.46.46v0.14c-1.06.17-1.69,0.59-1.69,1.42a0.86,0.86,0,0,0,.86,1,1.25,1.25,0,0,0,.92-0.46l0.06,0.39h0.94Zm-3.22,0v-5.5l-1.11.17v5.34h1.11Zm-1.66,0V52.5h-1.11v2.64a0.73,0.73,0,0,1-.43.19,0.23,0.23,0,0,1-.25-0.27V52.5h-1.1v2.86a0.82,0.82,0,0,0,.89,1,1.46,1.46,0,0,0,1-.47l0.07,0.4H342Zm-3.39,0V53.38a0.82,0.82,0,0,0-.88-1,1.45,1.45,0,0,0-1,.44,0.77,0.77,0,0,0-.78-0.44,1.43,1.43,0,0,0-1,.46l-0.07-.39H334v3.74h1.1V53.6a0.66,0.66,0,0,1,.41-0.19,0.23,0.23,0,0,1,.25.27v2.56h1.1V53.6a0.64,0.64,0,0,1,.41-0.19,0.23,0.23,0,0,1,.24.27v2.56h1.1Zm-4.92-2.65-0.18-1.16a1.25,1.25,0,0,0-.88.62l-0.08-.54h-0.93v3.74h1.11V54a1.67,1.67,0,0,1,1-.37m-3.6.79c0,0.64-.15,1-0.48,1s-0.49-.38-0.49-1,0.15-1,.48-1,0.49,0.4.49,1m1.09,0c0-1.26-.63-1.94-1.57-1.94s-1.58.69-1.58,2,0.63,1.94,1.57,1.94,1.58-.69,1.58-1.94m-3.22-2.66-0.14-.86a3.14,3.14,0,0,0-.57,0,1,1,0,0,0-1.11,1.12V52.5h-0.45v0.94h0.45v2.8h1.06v-2.8h0.73l-0.15-.94h-0.58V52.1a0.36,0.36,0,0,1,.41-0.43,1.73,1.73,0,0,1,.35,0m-4,4.53V53.38a0.82,0.82,0,0,0-.9-1,1.47,1.47,0,0,0-1,.47L322,52.5H321v3.74h1.11V53.6a0.73,0.73,0,0,1,.44-0.2,0.24,0.24,0,0,1,.24.27v2.55h1.1Zm-4.42-1.86c0,0.64-.15,1-0.48,1s-0.49-.38-0.49-1,0.15-1,.48-1,0.49,0.4.49,1m1.09,0c0-1.26-.63-1.94-1.57-1.94s-1.58.69-1.58,2,0.63,1.94,1.57,1.94,1.58-.69,1.58-1.94m-5,1.87V53.38a0.82,0.82,0,0,0-.9-1,1.47,1.47,0,0,0-1,.47l-0.07-.4h-0.94v3.74h1.11V53.6a0.73,0.73,0,0,1,.44-0.2,0.24,0.24,0,0,1,.24.27v2.55h1.1Zm-4.42-1.86c0,0.64-.15,1-0.48,1s-0.49-.38-0.49-1,0.15-1,.48-1,0.49,0.4.49,1m1.09,0c0-1.26-.63-1.94-1.57-1.94s-1.58.69-1.58,2,0.63,1.94,1.57,1.94,1.58-.69,1.58-1.94m-3.6-1.87h-1.1v3.74h1.1V52.5Zm0.08-1a0.63,0.63,0,1,0-.63.62,0.62,0.62,0,0,0,.63-0.62m-1.57,3.67a1.38,1.38,0,0,0-1-1.21,0.73,0.73,0,0,1-.52-0.43,0.22,0.22,0,0,1,.26-0.21,2.2,2.2,0,0,1,.91.28l0.14-.88a2.39,2.39,0,0,0-1.1-.25,1.11,1.11,0,0,0-1.23,1.12,1.3,1.3,0,0,0,1,1.18,0.75,0.75,0,0,1,.56.48,0.27,0.27,0,0,1-.32.25,2.42,2.42,0,0,1-1.11-.37L304.6,56a2.54,2.54,0,0,0,1.27.34,1.17,1.17,0,0,0,1.33-1.17m-3,1.1V52.5h-1.11v2.64a0.73,0.73,0,0,1-.43.19,0.23,0.23,0,0,1-.25-0.27V52.5h-1.1v2.86a0.82,0.82,0,0,0,.89,1,1.46,1.46,0,0,0,1-.47l0.07,0.4h0.94Zm-3.44,0v-5.5l-1.11.17v5.34h1.11ZM299.26,56l-0.14-.9a1.11,1.11,0,0,1-.61.21c-0.45,0-.69-0.32-0.69-1s0.22-1,.63-1a1,1,0,0,1,.61.21l0.15-1a1.92,1.92,0,0,0-.92-0.21c-1,0-1.58.68-1.58,1.94s0.56,1.93,1.59,1.93a1.71,1.71,0,0,0,1-.27m-2.94.21V53.38a0.82,0.82,0,0,0-.9-1,1.47,1.47,0,0,0-1,.47l-0.07-.4h-0.94v3.74h1.11V53.6a0.73,0.73,0,0,1,.44-0.2,0.24,0.24,0,0,1,.24.27v2.55h1.1ZM292.79,51h-1.27v5.26h1.27V51Z"/><path class="h" d="M394.45,36.32l-0.11-.4-1.48.07-0.37-1.44H392L391.66,36l-1.48-.07-0.11.4,1.22,0.82-0.53,1.39,0.35,0.22,1.15-.9,1.14,0.9,0.35-.22-0.53-1.39ZM390,44.24l-0.26-1.66a2.82,2.82,0,0,1-.5,0,0.58,0.58,0,0,1-.62-0.71V39.14h1.34l-0.28-1.72h-1.07V35l-1.94.31v2.1h-0.78v1.72h0.78v3c0,1.69.68,2.22,2.17,2.22a4.67,4.67,0,0,0,1.15-.14m-4.21-2a2.52,2.52,0,0,0-1.8-2.21,1.33,1.33,0,0,1-.94-0.8,0.41,0.41,0,0,1,.47-0.39,4,4,0,0,1,1.65.5l0.25-1.62a4.32,4.32,0,0,0-2-.46,2,2,0,0,0-2.23,2.06,2.39,2.39,0,0,0,1.74,2.17,1.36,1.36,0,0,1,1,.88,0.49,0.49,0,0,1-.58.46,4.39,4.39,0,0,1-2-.69L381,43.8a4.6,4.6,0,0,0,2.3.62,2.13,2.13,0,0,0,2.41-2.15m-5.32-4.84h-2v6.86h2V37.41Zm0.14-1.89a1.14,1.14,0,1,0-1.13,1.15,1.14,1.14,0,0,0,1.13-1.15m-2.65,8.75-0.33-2h-2.24V34.62h-2.28v9.66h4.86ZM367.3,39.64c0,0.74-.28,1.12-0.68,1.12s-0.68-.39-0.68-1.12,0.26-1.12.68-1.12,0.68,0.38.68,1.12m-1.16,4.45c1.55,0.27,1.8.48,1.8,0.9a0.91,0.91,0,0,1-1.07.73,1.08,1.08,0,0,1-1.33-1,1.35,1.35,0,0,1,.22-0.73v0ZM370,38.84l-0.24-1.52-1.39.56a2.69,2.69,0,0,0-1.75-.6,2.35,2.35,0,0,0-2.55,2.36,2.22,2.22,0,0,0,1.11,2,1.51,1.51,0,0,0-.78,1.2,0.92,0.92,0,0,0,.33.71,2,2,0,0,0-1,1.57c0,1.13,1.3,1.69,2.87,1.69s3.24-.81,3.24-2.32c0-1.22-.72-1.68-3.26-2-0.31-.06-0.43-0.13-0.43-0.28a0.7,0.7,0,0,1,0-.21,4.2,4.2,0,0,0,.46,0,2.36,2.36,0,0,0,2.55-2.35,2.31,2.31,0,0,0-.13-0.77Zm-6.58,5.43V37.41h-2v4.84a1.34,1.34,0,0,1-.78.35,0.43,0.43,0,0,1-.46-0.49v-4.7h-2v5.25a1.5,1.5,0,0,0,1.62,1.75,2.65,2.65,0,0,0,1.82-.87l0.12,0.73h1.7Zm-5.68-4.87-0.33-2.13a2.28,2.28,0,0,0-1.59,1.13l-0.15-1H354v6.86h2V40.09a3,3,0,0,1,1.75-.69m-6.86,0c0,2.32-.82,3-2,3h-0.17v-6h0.18c1.16,0,2,.69,2,3m2.34,0c0-3.15-1.37-4.81-4.38-4.81h-2.41v9.66h2.41c3,0,4.38-1.68,4.38-4.84m-9.94,4.82L343,42.58a2.82,2.82,0,0,1-.5,0,0.58,0.58,0,0,1-.62-0.71V39.14h1.34L343,37.41h-1.07V35l-1.94.31v2.1h-0.78v1.72h0.78v3c0,1.69.68,2.22,2.17,2.22a4.67,4.67,0,0,0,1.15-.14m-4.43-.35-0.25-1.65a2,2,0,0,1-1.11.38c-0.82,0-1.25-.59-1.25-1.78s0.4-1.78,1.15-1.78a1.85,1.85,0,0,1,1.11.39l0.28-1.76a3.44,3.44,0,0,0-1.68-.39c-1.75,0-2.87,1.26-2.87,3.55s1,3.54,2.88,3.54a3.1,3.1,0,0,0,1.73-.5m-7.22-1.31a1.06,1.06,0,0,1-.72.36,0.55,0.55,0,0,1-.5-0.66A1.37,1.37,0,0,1,331.62,41v1.58Zm2,1.69V39.6c0-1.64-.69-2.29-2.27-2.29a5.88,5.88,0,0,0-2.41.5l0.25,1.57a3.77,3.77,0,0,1,1.61-.52,0.71,0.71,0,0,1,.83.84v0.25c-1.93.31-3.08,1.08-3.08,2.6a1.57,1.57,0,0,0,1.56,1.85,2.26,2.26,0,0,0,1.68-.84l0.11,0.71h1.72Zm-5.07-4.87-0.33-2.13a2.28,2.28,0,0,0-1.59,1.13l-0.15-1h-1.69v6.86h2V40.09a3,3,0,0,1,1.75-.69m-4.31,4.84L324,42.58a2.82,2.82,0,0,1-.5,0,0.58,0.58,0,0,1-.62-0.71V39.14h1.34l-0.28-1.72h-1.07V35l-1.94.31v2.1h-0.78v1.72h0.78v3c0,1.69.68,2.22,2.17,2.22a4.67,4.67,0,0,0,1.15-.14m-4.53,0V39a1.5,1.5,0,0,0-1.63-1.75,2.67,2.67,0,0,0-1.8.87l-0.12-.73h-1.7v6.86h2V39.44a1.32,1.32,0,0,1,.79-0.36,0.44,0.44,0,0,1,.44.5v4.69h2Zm-7.91-3.41c0,1.18-.28,1.88-0.87,1.88S310,42,310,40.84s0.28-1.89.87-1.89,0.89,0.73.89,1.9m2,0c0-2.31-1.15-3.57-2.85-3.57s-2.87,1.27-2.87,3.58,1.15,3.55,2.85,3.55,2.87-1.26,2.87-3.57m-6,3-0.31-1.9a2.76,2.76,0,0,1-1.51.59c-1.18,0-1.75-1-1.75-3.05s0.55-3.05,1.57-3.05a2.44,2.44,0,0,1,1.54.59l0.31-2a4,4,0,0,0-2.13-.53c-2.34,0-3.61,1.92-3.61,5s1.22,5,3.67,5a4.55,4.55,0,0,0,2.23-.62m-9.15.46V34.17l-2,.31v9.8h2Zm-4.85-1.69a1.06,1.06,0,0,1-.72.36,0.55,0.55,0,0,1-.5-0.66A1.37,1.37,0,0,1,293.75,41v1.58Zm2,1.69V39.6c0-1.64-.69-2.29-2.27-2.29a5.88,5.88,0,0,0-2.41.5l0.25,1.57a3.77,3.77,0,0,1,1.61-.52,0.71,0.71,0,0,1,.83.84v0.25c-1.93.31-3.08,1.08-3.08,2.6a1.57,1.57,0,0,0,1.57,1.85,2.27,2.27,0,0,0,1.68-.84L294,44.27h1.72Zm-5.42-.46-0.3-1.9a2.77,2.77,0,0,1-1.51.59c-1.18,0-1.75-1-1.75-3.05s0.55-3.05,1.57-3.05a2.44,2.44,0,0,1,1.54.59l0.3-2a4,4,0,0,0-2.13-.53c-2.34,0-3.61,1.92-3.61,5s1.22,5,3.67,5a4.54,4.54,0,0,0,2.23-.62m-6.48-4.59h-3.37v2h3.37v-2Zm-4.1-1.81h-2v6.86h2V37.41Zm0.14-1.89a1.14,1.14,0,1,0-1.14,1.15,1.14,1.14,0,0,0,1.14-1.15m-5,6.73a1.15,1.15,0,0,1-.69.34c-0.53,0-.89-0.38-0.89-1.62s0.47-2,1.18-2a0.85,0.85,0,0,1,.4.1v3.15Zm2,2V34.17l-2,.31v3a2.57,2.57,0,0,0-.69-0.1c-1.62,0-2.87,1.15-2.87,3.82,0,2.16.86,3.23,2.12,3.23a2.28,2.28,0,0,0,1.65-.8l0.1,0.66h1.7Zm-8.73-5.61c0.46,0,.75.52,0.76,1.57h-1.54c0.07-1.15.36-1.57,0.78-1.57m2.59,2.8a5.62,5.62,0,0,0,0-.75c0-2-.82-3.43-2.6-3.43s-2.77,1.57-2.77,3.58c0,2.34,1.05,3.55,3,3.55a4.66,4.66,0,0,0,2.34-.6l-0.22-1.44a3.51,3.51,0,0,1-1.77.52,1.35,1.35,0,0,1-1.39-1.43h3.35Zm-5.89,2.81-0.39-9.66h-3.1L260.21,41l-1.11-6.42H256l-0.37,9.66h2l0.26-6.8,1.15,6.8h2.23l1.15-6.8,0.24,6.8h2.19Z"/><path class="h" d="M391.66,23.22c0.46,0,.75.52,0.76,1.57h-1.54c0.07-1.15.36-1.57,0.78-1.57m2.59,2.8a5.61,5.61,0,0,0,0-.75c0-2-.82-3.43-2.6-3.43s-2.77,1.57-2.77,3.58c0,2.34,1.05,3.55,3,3.55a4.68,4.68,0,0,0,2.34-.6l-0.22-1.44a3.51,3.51,0,0,1-1.77.52A1.35,1.35,0,0,1,390.9,26h3.35Zm-6,2.81V23.58a1.5,1.5,0,0,0-1.63-1.75,2.49,2.49,0,0,0-1.61.7V18.72L383,19v9.8h2V24a1.31,1.31,0,0,1,.79-0.36,0.44,0.44,0,0,1,.44.5v4.69h2Zm-5.81,0-0.26-1.66a2.81,2.81,0,0,1-.5,0,0.58,0.58,0,0,1-.62-0.71V23.69h1.34L382.17,22H381.1V19.56l-1.94.31V22h-0.78v1.72h0.78v3c0,1.69.68,2.22,2.17,2.22a4.66,4.66,0,0,0,1.15-.14m-7,0V23.58a1.5,1.5,0,0,0-1.63-1.75,2.67,2.67,0,0,0-1.8.87L371.93,22h-1.7v6.86h2V24a1.31,1.31,0,0,1,.79-0.36,0.44,0.44,0,0,1,.44.5v4.69h2Zm-7.91-3.41c0,1.18-.28,1.88-0.87,1.88s-0.89-.7-0.89-1.89,0.28-1.89.87-1.89,0.89,0.73.89,1.9m2,0c0-2.31-1.15-3.57-2.85-3.57s-2.87,1.27-2.87,3.58S365,29,366.69,29s2.87-1.26,2.87-3.57m-11.32-2.18c0.46,0,.75.52,0.76,1.57h-1.54c0.07-1.15.36-1.57,0.78-1.57m2.59,2.8a5.61,5.61,0,0,0,0-.75c0-2-.82-3.43-2.6-3.43s-2.77,1.57-2.77,3.58c0,2.34,1.05,3.55,3,3.55a4.67,4.67,0,0,0,2.34-.6l-0.22-1.44a3.51,3.51,0,0,1-1.77.52A1.35,1.35,0,0,1,357.48,26h3.35Zm-6,2.81V18.72l-2,.31v9.8h2Zm-4.69-3.54c0,1.37-.47,1.95-1.18,1.95a1.1,1.1,0,0,1-.4-0.07V24a1.1,1.1,0,0,1,.71-0.34c0.5,0,.87.38,0.87,1.62m2-.22c0-2.16-.82-3.23-2.1-3.23a2.05,2.05,0,0,0-1.44.62V18.72l-2,.31v9.45a6.39,6.39,0,0,0,2.35.43c2,0,3.21-1.1,3.21-3.85m-8.37,2.07a1.06,1.06,0,0,1-.72.36,0.55,0.55,0,0,1-.5-0.66,1.37,1.37,0,0,1,1.22-1.29v1.58Zm2,1.69V24.15c0-1.64-.69-2.29-2.27-2.29a5.9,5.9,0,0,0-2.41.5l0.25,1.57a3.78,3.78,0,0,1,1.61-.52,0.71,0.71,0,0,1,.83.84V24.5c-1.93.31-3.08,1.08-3.08,2.6A1.57,1.57,0,0,0,342.19,29a2.26,2.26,0,0,0,1.68-.84L344,28.83h1.72Zm-5.72,0V18.72L338,19v9.8h2ZM337,22h-2v6.86h2V22Zm0.14-1.89A1.14,1.14,0,1,0,336,21.23a1.13,1.13,0,0,0,1.14-1.15m-5,7.05a1.06,1.06,0,0,1-.72.36,0.55,0.55,0,0,1-.5-0.66,1.37,1.37,0,0,1,1.22-1.29v1.58Zm2,1.69V24.15c0-1.64-.69-2.29-2.27-2.29a5.9,5.9,0,0,0-2.41.5l0.25,1.57a3.78,3.78,0,0,1,1.61-.52,0.71,0.71,0,0,1,.83.84V24.5c-1.93.31-3.08,1.08-3.08,2.6A1.57,1.57,0,0,0,330.68,29a2.26,2.26,0,0,0,1.68-.84l0.11,0.71h1.72Zm-5-6.86h-2l-0.87,4.62-0.89-4.72-2.12.25,1.79,6.7h2.29Zm-9.2-.25,0.71,3.3h-1.44Zm-1.5,7.11,0.42-2H321l0.44,2.11,2.34-.38-2.37-9.4h-2.73l-2.48,9.68h2.26Zm-4.82-2a2.52,2.52,0,0,0-1.8-2.21,1.33,1.33,0,0,1-.94-0.8,0.41,0.41,0,0,1,.47-0.39,4,4,0,0,1,1.65.5l0.25-1.62a4.33,4.33,0,0,0-2-.46A2,2,0,0,0,309,23.89a2.39,2.39,0,0,0,1.74,2.17,1.37,1.37,0,0,1,1,.88,0.49,0.49,0,0,1-.58.46,4.38,4.38,0,0,1-2-.69l-0.26,1.64a4.6,4.6,0,0,0,2.3.62,2.13,2.13,0,0,0,2.41-2.15m-5.45-7.64h-2.3v9.66h2.3V19.17Zm-5.46,7.64a2.52,2.52,0,0,0-1.8-2.21,1.33,1.33,0,0,1-.94-0.8,0.41,0.41,0,0,1,.47-0.39,4,4,0,0,1,1.65.5l0.25-1.62a4.33,4.33,0,0,0-2-.46,2,2,0,0,0-2.23,2.06,2.39,2.39,0,0,0,1.74,2.17,1.37,1.37,0,0,1,1,.88,0.49,0.49,0,0,1-.58.46,4.38,4.38,0,0,1-2-.69L298,28.35a4.6,4.6,0,0,0,2.3.62,2.13,2.13,0,0,0,2.41-2.15m-5.24,2V23.58a1.5,1.5,0,0,0-1.63-1.75,2.67,2.67,0,0,0-1.8.87L293.95,22h-1.7v6.86h2V24a1.31,1.31,0,0,1,.79-0.36,0.44,0.44,0,0,1,.44.5v4.69h2Zm-8.06-1.69a1.05,1.05,0,0,1-.72.36,0.55,0.55,0,0,1-.5-0.66,1.37,1.37,0,0,1,1.22-1.29v1.58Zm2,1.69V24.15c0-1.64-.69-2.29-2.27-2.29a5.89,5.89,0,0,0-2.41.5L287,23.93a3.78,3.78,0,0,1,1.61-.52,0.71,0.71,0,0,1,.83.84V24.5c-1.93.31-3.08,1.08-3.08,2.6A1.57,1.57,0,0,0,287.93,29a2.26,2.26,0,0,0,1.68-.84l0.11,0.71h1.72ZM286.37,24L286,21.83A2.27,2.27,0,0,0,284.44,23l-0.15-1H282.6v6.86h2V24.64a3,3,0,0,1,1.75-.69m-4.31,4.84-0.26-1.66a2.81,2.81,0,0,1-.5,0,0.58,0.58,0,0,1-.62-0.71V23.69H282L281.74,22h-1.07V19.56l-1.94.31V22H278v1.72h0.78v3c0,1.69.68,2.22,2.17,2.22a4.67,4.67,0,0,0,1.15-.14m-4.57,0V22h-2v4.84a1.32,1.32,0,0,1-.78.35,0.43,0.43,0,0,1-.46-0.49V22h-2v5.25A1.5,1.5,0,0,0,273.84,29a2.64,2.64,0,0,0,1.82-.87l0.13,0.73h1.7Zm-7.87-2.94a1.2,1.2,0,0,1-1.4,1.26h-0.44V24.6h0.4a1.2,1.2,0,0,1,1.44,1.29m-0.21-3.95A1,1,0,0,1,268.23,23h-0.46v-2.2h0.46a1,1,0,0,1,1.18,1.09m2.28,4.1a2.32,2.32,0,0,0-1.56-2.36,2.2,2.2,0,0,0,1.3-2.07c0-1.55-1.08-2.44-3.17-2.44h-2.6v9.66h2.58c2,0,3.46-.89,3.46-2.78"/><g class="i"><rect class="j" y="-0.5" width="401.86" height="12.61"/></g><path class="h" d="M16.5,12.12V55.65s0,5.67,5.67,5.67h91s5.67,0,5.67-5.67V12.12H16.5Z"/><g class="k"><rect class="h" x="-338.06" y="11.24" width="649.78" height="50.34"/></g><g class="l"><path class="m" d="M59.44,27.57V25.14H57.6v2.44H53.88v4.58a2.75,2.75,0,0,1-.12,1.07,1.2,1.2,0,0,1-.53.57,1.79,1.79,0,0,1-.85.19,1.84,1.84,0,0,1-.81-0.17A1.18,1.18,0,0,1,51,33.3a1.66,1.66,0,0,1-.16-0.48,3.43,3.43,0,0,1-.05-0.66v-4.6H49v4.79a4.13,4.13,0,0,0,.1.93,2.61,2.61,0,0,0,1.42,1.8,4.08,4.08,0,0,0,1.88.38,4.82,4.82,0,0,0,1.08-.11,3.51,3.51,0,0,0,.87-0.32,2.69,2.69,0,0,0,.67-0.5,2.59,2.59,0,0,0,.46-0.65,3.55,3.55,0,0,0,.28-1.57v-3.2H57.6v2.48h0v1a2.53,2.53,0,0,0,.5,1.49,2.69,2.69,0,0,0,.87.73,3.68,3.68,0,0,0,.48.21,7.55,7.55,0,0,0,2.15.29,3.27,3.27,0,0,0,.48,0V33.72H61.92c-0.79,0-2.47.29-2.47-1.77v-2.8h2.93a2.44,2.44,0,0,1,1-1.28,3.36,3.36,0,0,1,.42-0.29H59.44Z"/><path class="m" d="M67.36,34.12a2.24,2.24,0,0,0,.52.76,2.21,2.21,0,0,0,.78.46,30.07,30.07,0,0,0,5,0V30.27a2.68,2.68,0,0,0-.2-1,2.26,2.26,0,0,0-.62-0.83,3,3,0,0,0-1-.55,4.84,4.84,0,0,0-1.44-.2c-0.38,0-1.95,0-2.42,0v1.62a12.61,12.61,0,0,1,3-.07,1.13,1.13,0,0,1,.52.3,1.15,1.15,0,0,1,.29.43,1.5,1.5,0,0,1,.09.51v0.21a13.34,13.34,0,0,0-1.62-.12,4,4,0,0,0-1.22.17,2.74,2.74,0,0,0-.95.51,2.35,2.35,0,0,0-.62.81,2.58,2.58,0,0,0-.22,1.09,2.51,2.51,0,0,0,.19,1m2.07-1.88A1.86,1.86,0,0,1,70.5,32a4.91,4.91,0,0,1,.69,0l0.6,0.11V33.9a9.33,9.33,0,0,1-1.64.16A1.46,1.46,0,0,1,69.72,34a1,1,0,0,1-.35-0.19,0.92,0.92,0,0,1-.24-0.31A1,1,0,0,1,69,33.05a0.92,0.92,0,0,1,.39-0.82m13.29-.75a2.38,2.38,0,0,0,.66.38,7.6,7.6,0,0,0,.77.25l0.61,0.16a3.14,3.14,0,0,1,.52.18,1.08,1.08,0,0,1,.36.26,0.58,0.58,0,0,1,.13.4,0.64,0.64,0,0,1-.12.4,0.93,0.93,0,0,1-.34.28,1.83,1.83,0,0,1-.51.16,3.77,3.77,0,0,1-.64,0,10.22,10.22,0,0,1-2.06-.2v1.5a12.26,12.26,0,0,0,2.21.19,5.4,5.4,0,0,0,1.32-.15,3,3,0,0,0,1-.47,2.2,2.2,0,0,0,.67-0.79A2.43,2.43,0,0,0,87.58,33a2.06,2.06,0,0,0-.2-1,1.82,1.82,0,0,0-.51-0.61,2.35,2.35,0,0,0-.7-0.37c-0.26-.09-0.52-0.16-0.78-0.22l-0.51-.13a3.63,3.63,0,0,1-.5-0.17A1,1,0,0,1,84,30.25a0.63,0.63,0,0,1-.13-0.42,0.65,0.65,0,0,1,.06-0.28,0.62,0.62,0,0,1,.2-0.24,1.1,1.1,0,0,1,.36-0.17,2.12,2.12,0,0,1,.55-0.06c0.17,0,2.06.1,2.23,0.16V27.76a14.9,14.9,0,0,0-2.39-.18,3.88,3.88,0,0,0-1.07.15,2.58,2.58,0,0,0-.89.45,2.14,2.14,0,0,0-.61.76A2.45,2.45,0,0,0,82.1,30a2,2,0,0,0,.17.86,1.67,1.67,0,0,0,.45.59m-18-.44c0-2.07,1.69-1.77,2.48-1.77H67.3V27.66a3.34,3.34,0,0,0-.48,0,7.6,7.6,0,0,0-2.15.29,2.6,2.6,0,0,0-1.84,2.44v5h1.84V31ZM47.82,33.79A2.49,2.49,0,0,0,48.24,33a3,3,0,0,0,.12-0.81,2.37,2.37,0,0,0-.13-0.8,2.18,2.18,0,0,0-.36-0.64,2.24,2.24,0,0,0-.55-0.49,3.23,3.23,0,0,0-.71-0.34v0a2.33,2.33,0,0,0,1-.94,2.56,2.56,0,0,0,.3-1.24,2.52,2.52,0,0,0-.12-0.76,2.45,2.45,0,0,0-.37-0.71,2.86,2.86,0,0,0-.64-0.61,3.3,3.3,0,0,0-.92-0.45A6.07,6.07,0,0,0,44,24.91H40.4V35.29h3.78l0.62,0,0.51-.07,0.42-.08A4.15,4.15,0,0,0,47,34.54a3.24,3.24,0,0,0,.81-0.75M42.3,26.5h1.56c0.27,0,.5,0,0.69,0a2.6,2.6,0,0,1,.49.09,1.25,1.25,0,0,1,.71.48,1.31,1.31,0,0,1,.21.73,1.37,1.37,0,0,1-.18.71,1.2,1.2,0,0,1-.61.49,3.27,3.27,0,0,1-1.16.16H42.3V26.5Zm4,6.12a1.11,1.11,0,0,1-.23.4,1.55,1.55,0,0,1-.43.33,2.5,2.5,0,0,1-.66.23,4,4,0,0,1-.61.09c-0.24,0-.52,0-0.85,0H42.3V30.77h1.8a7.28,7.28,0,0,1,.77,0,2.7,2.7,0,0,1,.53.1,1.45,1.45,0,0,1,.75.49,1.25,1.25,0,0,1,.24.76,1.6,1.6,0,0,1-.07.47M36,34.37s0-4.78,0-6.16c0-3.47,1.42-6.35,5.92-6.38,1.4,0,5.58-.13,5.58-0.13s0.19-.12-0.28-0.18-5.48-.45-7.61-0.42a4.48,4.48,0,0,0-4.28,4.11c-0.05,1.4.39,8.08,0.47,8.84S36,34.37,36,34.37m42.94-5a0.88,0.88,0,0,1,.42.48,1.5,1.5,0,0,1,.08.38,4.86,4.86,0,0,1,0,.53v4.64H81.3V30.44c0-.25,0-0.47,0-0.66a2.52,2.52,0,0,0-.11-0.53,2.38,2.38,0,0,0-.38-0.76A2.17,2.17,0,0,0,80.22,28a2.34,2.34,0,0,0-.7-0.29,3.35,3.35,0,0,0-.8-0.09c-0.48,0-4.21.18-4.21,0.18v7.6h1.84V29.42a6.21,6.21,0,0,1,2.59-.09"/></g><g class="n"><path class="m" d="M50.31,48.9v0.32H49.5l0,0.73a0.51,0.51,0,0,1,.36-0.13,0.47,0.47,0,0,1,.41.22,1,1,0,0,1,.09.57c0,0.15,0,.58,0,0.71a0.61,0.61,0,0,1-.66.56A0.62,0.62,0,0,1,49,51.15c0-.07,0-0.11,0-0.17h0.35c0,0.32,0,.57.3,0.57A0.27,0.27,0,0,0,50,51.28c0-.08,0-0.63,0-0.65,0-.22,0-0.49-0.28-0.49a0.27,0.27,0,0,0-.25.35H49.12l0-1.59h1.14Z"/><path class="m" d="M62.39,48.9v0.32H61.58l0,0.73a0.51,0.51,0,0,1,.36-0.13,0.47,0.47,0,0,1,.41.22,1,1,0,0,1,.09.57c0,0.15,0,.58,0,0.71a0.61,0.61,0,0,1-.66.56,0.62,0.62,0,0,1-.63-0.73c0-.07,0-0.11,0-0.17h0.35c0,0.32,0,.57.3,0.57A0.27,0.27,0,0,0,62,51.28c0-.08,0-0.63,0-0.65,0-.22,0-0.49-0.28-0.49a0.27,0.27,0,0,0-.25.35H61.2l0-1.59h1.14Z"/><path class="m" d="M51,51.35v0.47a0.49,0.49,0,0,1-.36.59V52.2c0.16,0,.16-0.18.16-0.35H50.64V51.35H51Z"/><path class="m" d="M55.47,51.35v0.47a0.49,0.49,0,0,1-.36.59V52.2c0.16,0,.16-0.18.16-0.35H55.11V51.35h0.36Z"/><path class="m" d="M56.8,51.85H56.43V49.55H55.94V49.27c0.24,0,.55,0,0.55-0.35H56.8v2.94Z"/><path class="m" d="M58.65,51.32a0.57,0.57,0,0,1-.63.56,0.58,0.58,0,0,1-.62-0.39,4.76,4.76,0,0,1,0-1.13,3.49,3.49,0,0,1,.06-1.13,0.67,0.67,0,0,1,1.2,0,3,3,0,0,1,.07,1.15c0,0.17,0,.81,0,0.95M58.3,49.89c0-.48,0-0.7-0.29-0.7s-0.3.25-.3,0.41,0,0.29,0,.92c0,0.15,0,.48,0,0.61s0,0.42.29,0.42,0.29-.2.3-0.43c0-.08,0-0.27,0-0.74V49.89Z"/><path class="m" d="M59.31,51.35v0.47a0.49,0.49,0,0,1-.36.59V52.2c0.16,0,.16-0.18.16-0.35H59V51.35h0.36Z"/><path class="m" d="M60.63,51.85H60.26V49.55H59.78V49.27c0.24,0,.55,0,0.55-0.35h0.31v2.94Z"/><path class="m" d="M63.06,51.35v0.47a0.49,0.49,0,0,1-.36.59V52.2c0.16,0,.16-0.18.16-0.35H62.7V51.35h0.36Z"/><path class="m" d="M65.15,51.4a0.45,0.45,0,0,0,.1.44H64.84V51.59a0.45,0.45,0,0,1-.43.29,0.49,0.49,0,0,1-.25-0.06,0.5,0.5,0,0,1-.22-0.47,0.62,0.62,0,0,1,.35-0.6,3.08,3.08,0,0,0,.52-0.4c0-.17,0-0.37-0.25-0.37a0.24,0.24,0,0,0-.25.3c0,0.06,0,.11,0,0.15H64a1.62,1.62,0,0,1,0-.42,0.65,0.65,0,0,1,1-.15,0.63,0.63,0,0,1,.13.53v1Zm-0.33-.75a2.12,2.12,0,0,1-.28.23,0.5,0.5,0,0,0-.26.44,0.25,0.25,0,0,0,.22.31,0.3,0.3,0,0,0,.18-0.06,0.46,0.46,0,0,0,.13-0.4V50.65Z"/><path class="m" d="M66.72,51.84H66.38V50.48c0-.3,0-0.5-0.25-0.5s-0.28.28-.28,0.51v1.35H65.52V49.76h0.32V50a0.55,0.55,0,0,1,.44-0.23c0.43,0,.43.37,0.43,0.65v1.47Z"/><path class="m" d="M68.28,51.84H68V51.62a0.47,0.47,0,0,1-.44.26l-0.13,0c-0.34-.09-0.35-0.44-0.35-1.05a3.58,3.58,0,0,1,0-.75,0.46,0.46,0,0,1,.45-0.35,0.45,0.45,0,0,1,.4.2v-1h0.34v2.94ZM67.66,50c-0.25,0-.26.25-0.27,0.42s0,0.22,0,.56c0,0.09,0,.2,0,0.33a0.28,0.28,0,0,0,.27.32c0.28,0,.28-0.28.29-0.81S68,50,67.66,50"/><path class="m" d="M70.48,51.84H69.19V51.49l0.61-1a1.39,1.39,0,0,0,.3-0.86,0.32,0.32,0,0,0-.27-0.4c-0.26,0-.26.25-0.26,0.41V50H69.22V49.58A0.75,0.75,0,0,1,69.37,49a0.6,0.6,0,0,1,.44-0.17,0.57,0.57,0,0,1,.44.17,0.8,0.8,0,0,1,.19.6,1.58,1.58,0,0,1-.28.88l-0.6,1h0.92v0.32Z"/><path class="m" d="M72,51.32a0.57,0.57,0,0,1-.63.56,0.58,0.58,0,0,1-.63-0.39,4.91,4.91,0,0,1,0-1.13,3.52,3.52,0,0,1,.06-1.13,0.67,0.67,0,0,1,1.2,0,3,3,0,0,1,.07,1.15c0,0.17,0,.81,0,0.95m-0.35-1.42c0-.48,0-0.7-0.29-0.7s-0.3.25-.3,0.41,0,0.29,0,.92c0,0.15,0,.48,0,0.61s0,0.42.29,0.42,0.29-.2.3-0.43c0-.08,0-0.27,0-0.74V49.89Z"/><path class="m" d="M74.92,51.84H74.58V50.48a1.31,1.31,0,0,0,0-.33A0.24,0.24,0,0,0,74.32,50c-0.27,0-.27.28-0.27,0.49v1.37H73.71V50.48c0-.28,0-0.5-0.26-0.5s-0.27.26-.27,0.5v1.36H72.85V49.76h0.32V50a0.53,0.53,0,0,1,.45-0.25A0.43,0.43,0,0,1,74,50a0.51,0.51,0,0,1,.43-0.25,0.45,0.45,0,0,1,.33.13,0.78,0.78,0,0,1,.14.63v1.36Z"/><path class="m" d="M76.43,51.07c0,0.38,0,.81-0.6.81a0.49,0.49,0,0,1-.53-0.33,2.84,2.84,0,0,1,0-.7c0-.74,0-1.13.61-1.13s0.57,0.38.57,0.79H76.11c0-.36,0-0.54-0.26-0.54s-0.27.18-.27,0.76c0,0.08,0,.38,0,0.56a0.27,0.27,0,0,0,.26.32c0.25,0,.27-0.2.27-0.55h0.32Z"/><path class="m" d="M78,49.76v2a1.42,1.42,0,0,1,0,.47,0.6,0.6,0,0,1-.61.34A0.51,0.51,0,0,1,76.74,52H77a0.25,0.25,0,0,0,.28.27c0.29,0,.29-0.22.29-0.41V51.62a0.5,0.5,0,0,1-.42.23,0.43,0.43,0,0,1-.42-0.28,2.46,2.46,0,0,1-.06-0.82,2.94,2.94,0,0,1,0-.65,0.46,0.46,0,0,1,.48-0.39,0.42,0.42,0,0,1,.41.23V49.76H78Zm-0.34.54A0.29,0.29,0,0,0,77.33,50c-0.27,0-.27.3-0.27,0.63s0,0.58,0,.73a0.25,0.25,0,0,0,.25.29,0.28,0.28,0,0,0,.29-0.25,4.94,4.94,0,0,0,0-.52s0-.47,0-0.53"/><polygon class="m" points="78.5 51.84 78.15 51.84 78.99 48.9 79.33 48.9 78.5 51.84"/><path class="m" d="M80.73,51.84H80.4V50.59c0-.4,0-0.61-0.26-0.61s-0.28.27-.28,0.61v1.25H79.53V48.9h0.33v1a0.49,0.49,0,0,1,.42-0.23,0.43,0.43,0,0,1,.34.15,0.85,0.85,0,0,1,.11.54v1.43Z"/><path class="m" d="M82.19,51.51a0.47,0.47,0,0,1-.55.37,0.54,0.54,0,0,1-.5-0.24,1.54,1.54,0,0,1-.08-0.78,4.08,4.08,0,0,1,0-.76,0.49,0.49,0,0,1,.55-0.37,0.52,0.52,0,0,1,.51.27,1.75,1.75,0,0,1,.07.83,4.09,4.09,0,0,1,0,.68m-0.31-1.22a0.25,0.25,0,0,0-.23-0.3c-0.25,0-.25.2-0.25,0.63,0,0.06,0,.47,0,0.61s0,0.38.22,0.38,0.25-.22.25-0.8c0-.17,0-0.42,0-0.53"/><path class="m" d="M83.77,51.84H83.44V51.65a0.52,0.52,0,0,1-.44.23,0.38,0.38,0,0,1-.34-0.16,1.14,1.14,0,0,1-.1-0.65V49.76H82.9v1.57a0.26,0.26,0,0,0,.24.31c0.29,0,.29-0.29.29-0.51V49.76h0.33v2.08Z"/><path class="m" d="M100.3,34.14l-0.35.1-0.41.08-0.41.06-0.39,0a4,4,0,0,1-1.21-.17,2.35,2.35,0,0,1-.91-0.52A2.32,2.32,0,0,1,96,32.8a3.67,3.67,0,0,1-.21-1.3,3.55,3.55,0,0,1,.22-1.32,2.68,2.68,0,0,1,.61-0.94,2.52,2.52,0,0,1,.91-0.57,3.31,3.31,0,0,1,1.14-.19,4.31,4.31,0,0,1,.79.07,6,6,0,0,1,.73.18l0.18,0.06V27.72l-0.08,0L100,27.57l-0.4-.09-0.45-.06-0.48,0a4.32,4.32,0,0,0-1.66.31,3.64,3.64,0,0,0-1.27.86,3.72,3.72,0,0,0-.8,1.31,5.22,5.22,0,0,0,0,3.31,3.28,3.28,0,0,0,.78,1.24,3.41,3.41,0,0,0,1.27.78,5.08,5.08,0,0,0,1.71.27,5.76,5.76,0,0,0,.92-0.07,3.93,3.93,0,0,0,.8-0.21l0.08,0V34.07Z"/><rect class="m" x="97.32" y="29.59" width="0.62" height="3.83"/><rect class="m" x="98.55" y="29.59" width="0.62" height="3.83"/><rect class="m" x="99.77" y="29.59" width="0.62" height="3.83"/><path class="m" d="M88.65,29.31a0.79,0.79,0,1,1,0-1.59,0.78,0.78,0,0,1,.8.79,0.77,0.77,0,0,1-.79.8m0-1.45a0.65,0.65,0,0,0-.67.66,0.66,0.66,0,0,0,.67.65,0.66,0.66,0,0,0,0-1.31M89,29H88.79L88.6,28.6H88.54v0.06c0,0.07,0,.21,0,0.29v0H88.34l0,0c0-.16,0-0.33,0-0.38s0-.35,0-0.52v0h0.23a0.69,0.69,0,0,1,.26,0,0.25,0.25,0,0,1,.15.25,0.25,0.25,0,0,1-.17.25L89,29v0Zm-0.48-.8v0.12s0,0.08,0,.15h0c0.13,0,.19,0,0.19-0.14s0-.13-0.17-0.13h0Z"/><path class="m" d="M80.3,38.44s-0.2.12,0.28,0.18,5.5,0.45,7.63.42a4.5,4.5,0,0,0,4.29-4.12c0.05-1.4-.39-8.11-0.48-8.87s-0.17-.31-0.17-0.31,0,4.8,0,6.17c0,3.48-1.42,6.37-5.94,6.4-1.4,0-5.59.13-5.59,0.13"/><path class="m" d="M29.75,47.36a5,5,0,0,1-1.09-1.62,7.4,7.4,0,0,1-.59-2.8,6.2,6.2,0,0,1,.41-2.23,5.92,5.92,0,0,1,1.25-2v0.58a5.18,5.18,0,0,0-.9,1.84,6.4,6.4,0,0,0-.3,1.92,8,8,0,0,0,.3,2,5,5,0,0,0,.91,1.79v0.59Z"/><path class="m" d="M30.8,38.67V41.2a1.1,1.1,0,0,1,.95-0.5,1.12,1.12,0,0,1,1,1.38v2.65A1.12,1.12,0,0,1,31.66,46a1,1,0,0,1-.84-0.45v0.42H30.37V38.67H30.8Zm1.52,3.38a0.76,0.76,0,0,0-.69-0.95,0.82,0.82,0,0,0-.82.94v2.49a0.92,0.92,0,0,0,.82,1,0.61,0.61,0,0,0,.43-0.17,1.11,1.11,0,0,0,.26-0.82V42.06Z"/><path class="m" d="M33.62,40.75H34v3.88a0.77,0.77,0,0,0,.68.95,0.88,0.88,0,0,0,.8-0.67V40.75H36v5.17H35.53V45.44a1.13,1.13,0,0,1-.93.51A1,1,0,0,1,34,45.79a1.18,1.18,0,0,1-.41-1v-4Z"/><path class="m" d="M37.37,41.21a1.12,1.12,0,0,1,1-.5,0.92,0.92,0,0,1,.89.68,2.8,2.8,0,0,1,.08.86v2.51a1,1,0,0,1-1,1.19,1,1,0,0,1-.88-0.44v2.1H36.93V40.76h0.44v0.45Zm1.49,0.7a0.68,0.68,0,0,0-.67-0.81,0.85,0.85,0,0,0-.82.68V45a0.81,0.81,0,0,0,.8.59,0.79,0.79,0,0,0,.69-1V41.91Z"/><path class="m" d="M40.61,41.66a2,2,0,0,1,1.08-1v0.59a1.42,1.42,0,0,0-1.07,1.07v3.65H40.18V40.76h0.42v0.9Z"/><path class="m" d="M42.07,42a1.09,1.09,0,0,1,1.16-1.24c1.2,0,1.2,1,1.2,1.62v1H42.5v1.27a0.73,0.73,0,0,0,.76.87,0.65,0.65,0,0,0,.67-0.43,2.29,2.29,0,0,0,.07-1h0.43v0.57a1.1,1.1,0,0,1-1.19,1.22,1.12,1.12,0,0,1-1.17-1.26V42ZM44,42.08a0.77,0.77,0,1,0-1.49,0V43H44v-1Z"/><path class="m" d="M45.68,41.25A1,1,0,0,1,46,40.86a1.15,1.15,0,0,1,1.13,0,1,1,0,0,1,.44.95v4.15H47.18V41.79a0.62,0.62,0,0,0-.64-0.71,0.94,0.94,0,0,0-.68.31,1,1,0,0,0-.18.34v4.2H45.25V40.75h0.43v0.5Z"/><path class="m" d="M48.35,42a1.14,1.14,0,0,1,1.23-1.24A1.1,1.1,0,0,1,50.77,42v2.46a1.66,1.66,0,0,1-.23,1,1.18,1.18,0,0,1-1,.48,1.35,1.35,0,0,1-.69-0.17,1.09,1.09,0,0,1-.5-1.09V42Zm2,0.08a0.76,0.76,0,0,0-.73-0.89,0.82,0.82,0,0,0-.8,1v2.5a0.73,0.73,0,0,0,.74.85,0.76,0.76,0,0,0,.79-0.89V42.06Z"/><path class="m" d="M52,41.66a2,2,0,0,1,1.08-1v0.59A1.42,1.42,0,0,0,52,42.28v3.65H51.56V40.76H52v0.9Z"/><path class="m" d="M54,41.21a1.12,1.12,0,0,1,1-.5,0.92,0.92,0,0,1,.89.68,2.8,2.8,0,0,1,.08.86v2.51a1,1,0,0,1-1,1.19A1,1,0,0,1,54,45.51v2.1H53.55V40.76H54v0.45Zm1.49,0.7a0.68,0.68,0,0,0-.67-0.81,0.85,0.85,0,0,0-.82.68V45a0.81,0.81,0,0,0,.8.59,0.79,0.79,0,0,0,.69-1V41.91Z"/><path class="m" d="M57.26,38.66v2.5a1.19,1.19,0,0,1,.94-0.46,1.1,1.1,0,0,1,.65.21,1.09,1.09,0,0,1,.36.92v4.1H58.76V42.1a0.76,0.76,0,0,0-.68-1,0.86,0.86,0,0,0-.59.24,0.88,0.88,0,0,0-.24.45v4.11H56.82V38.66h0.44Z"/><path class="m" d="M60.06,39.35h0.43v0.8H60.06v-0.8Zm0,1.4h0.43v5.18H60.06V40.75Z"/><path class="m" d="M61.88,41.25a1,1,0,0,1,.36-0.39,1.11,1.11,0,0,1,.6-0.16,1.13,1.13,0,0,1,.53.13,1,1,0,0,1,.44.95v4.15H63.38V41.79a0.62,0.62,0,0,0-.64-0.71,0.94,0.94,0,0,0-.68.31,1,1,0,0,0-.18.34v4.2H61.45V40.75h0.43v0.5Z"/><path class="m" d="M64.59,42a1.09,1.09,0,0,1,1.16-1.24c1.2,0,1.2,1,1.2,1.62v1H65v1.27a0.73,0.73,0,0,0,.76.87,0.65,0.65,0,0,0,.67-0.43,2.29,2.29,0,0,0,.07-1H67v0.57a1.1,1.1,0,0,1-1.19,1.22A1.13,1.13,0,0,1,65,45.65a1.14,1.14,0,0,1-.36-1V42Zm1.92,0.1a0.77,0.77,0,1,0-1.49,0V43h1.49v-1Z"/><path class="m" d="M66.93,38.65A4.9,4.9,0,0,1,68,40.29a7.39,7.39,0,0,1,.59,2.79,6.4,6.4,0,0,1-.41,2.24,5.68,5.68,0,0,1-1.25,2V46.77a5.22,5.22,0,0,0,.9-1.84,6.38,6.38,0,0,0,.3-1.91,8,8,0,0,0-.3-2,4.79,4.79,0,0,0-.91-1.79v-0.6Z"/><polygon class="m" points="71.18 45.93 70.73 45.93 70.73 41.19 69.84 41.19 69.84 40.76 72.08 40.76 72.08 41.19 71.18 41.19 71.18 45.93"/><path class="m" d="M72.5,45.93H72.1V42.22h0.4V42.7a1.56,1.56,0,0,1,.68-0.57l0.07,0v0.53h0a0.93,0.93,0,0,0-.71.71v2.58Z"/><path class="m" d="M75.41,45.93h0a0.47,0.47,0,0,1-.54-0.25,1.05,1.05,0,0,1-.67.25,0.78,0.78,0,0,1-.76-0.9,1.23,1.23,0,0,1,.82-1.18l0.1-.05a2.73,2.73,0,0,0,.47-0.29V43.13c0-.31,0-0.54-0.41-0.54s-0.43.27-.43,0.8v0H73.53v0c0-.56,0-1.18.88-1.18a0.72,0.72,0,0,1,.78.84v2.42c0,0.06,0,.08.16,0.08h0v0.39Zm-0.62-2-0.29.16-0.07,0a0.92,0.92,0,0,0-.64.87,0.43,0.43,0,0,0,.41.5,0.75,0.75,0,0,0,.58-0.31V44Z"/><path class="m" d="M77.54,45.93h-0.4V43a0.39,0.39,0,0,0-.39-0.44,0.6,0.6,0,0,0-.43.2,0.63,0.63,0,0,0-.12.21v3h-0.4V42.22h0.4v0.24a0.76,0.76,0,0,1,.17-0.15,0.85,0.85,0,0,1,.84,0,0.75,0.75,0,0,1,.33.7v2.95Z"/><path class="m" d="M78.87,45.94a0.9,0.9,0,0,1-.71-0.26A1.47,1.47,0,0,1,78,44.61V44.56h0.4v0.37a0.49,0.49,0,0,0,.51.62A0.45,0.45,0,0,0,79.35,45a0.94,0.94,0,0,0-.58-0.84A1.35,1.35,0,0,1,78.09,43a0.72,0.72,0,0,1,.81-0.82,0.76,0.76,0,0,1,.8.91v0.3H79.3v0c0-.59,0-0.77-0.39-0.77a0.34,0.34,0,0,0-.4.41c0,0.3,0,.39.69,1a1.12,1.12,0,0,1,.56,1,0.82,0.82,0,0,1-.89.95"/><path class="m" d="M80.93,46a0.78,0.78,0,0,1-.77-1V43.19a0.8,0.8,0,0,1,.78-1,0.73,0.73,0,0,1,.59.25V40.77h0.4v5.16H81.55V45.67a0.76,0.76,0,0,1-.62.29M81,42.61a0.47,0.47,0,0,0-.45.58v1.75a0.51,0.51,0,0,0,.44.64,0.56,0.56,0,0,0,.52-0.47V43.2A0.6,0.6,0,0,0,81,42.61"/><path class="m" d="M83.36,45.94A0.83,0.83,0,0,1,82.49,45V43.12a0.81,0.81,0,0,1,.86-0.92,0.93,0.93,0,0,1,.89,1.18v0.78H82.89V45a0.46,0.46,0,0,0,.48.56,0.4,0.4,0,0,0,.42-0.27,1.58,1.58,0,0,0,0-.66V44.58h0.4V45a0.81,0.81,0,0,1-.88.9m-0.47-2.13h0.94V43.19a0.51,0.51,0,0,0-.47-0.62,0.52,0.52,0,0,0-.47.65v0.59Z"/><path class="m" d="M85.18,45.93h-0.4V42.22h0.4V42.7a1.56,1.56,0,0,1,.68-0.57l0.07,0v0.53h0a0.94,0.94,0,0,0-.71.71v2.58Z"/><path class="m" d="M89.33,45.93H88.92V43.3a1.89,1.89,0,0,0,0-.48,0.36,0.36,0,0,0-.37-0.26A0.59,0.59,0,0,0,88,43v3H87.58V43a0.65,0.65,0,0,0-.06-0.29,0.41,0.41,0,0,0-.35-0.18,0.61,0.61,0,0,0-.53.35v3H86.23V42.22h0.42v0.22a0.87,0.87,0,0,1,.62-0.27,0.64,0.64,0,0,1,.62.38,0.87,0.87,0,0,1,.72-0.38,0.68,0.68,0,0,1,.69.52,2.57,2.57,0,0,1,0,.63v2.6Z"/><path class="m" d="M91.78,45.93h0a0.47,0.47,0,0,1-.54-0.25,1.05,1.05,0,0,1-.67.25,0.78,0.78,0,0,1-.76-0.9,1.23,1.23,0,0,1,.82-1.18l0.1-.05a2.73,2.73,0,0,0,.47-0.29V43.13c0-.31,0-0.54-0.41-0.54s-0.43.27-.43,0.8v0H89.91v0c0-.56,0-1.18.88-1.18a0.72,0.72,0,0,1,.78.84v2.42c0,0.06,0,.08.16,0.08h0v0.39Zm-0.62-2-0.29.16-0.07,0a0.92,0.92,0,0,0-.64.87,0.43,0.43,0,0,0,.41.5,0.75,0.75,0,0,0,.58-0.31V44Z"/><rect class="m" x="92.15" y="40.77" width="0.41" height="5.16"/><path class="m" d="M95.53,46a1,1,0,0,1-1.11-1.08V44.17h0.45v0.45a1.11,1.11,0,0,0,.14.75,0.69,0.69,0,0,0,.55.22c0.43,0,.6-0.22.6-0.77a1.59,1.59,0,0,0-.72-1.33,2.09,2.09,0,0,1-.9-1.63,1,1,0,0,1,1-1.17,1,1,0,0,1,1,1.22v0.42H96.1v-0.5c0-.31,0-0.73-0.54-0.73S95,41.3,95,41.81s0.08,0.66.85,1.44a1.84,1.84,0,0,1,.77,1.5A1,1,0,0,1,95.53,46"/><path class="m" d="M96.75,47.1H96.7V46.69h0.21a0.5,0.5,0,0,0,.53-0.45l0.08-.41-0.79-3.63h0.41L97.73,45l0.6-2.8h0.43v0.06l-0.92,4a0.9,0.9,0,0,1-1.07.81"/><path class="m" d="M99.81,45.94a0.9,0.9,0,0,1-.71-0.26,1.47,1.47,0,0,1-.21-1.07V44.56h0.4v0.37a0.49,0.49,0,0,0,.51.62,0.45,0.45,0,0,0,.48-0.55,0.94,0.94,0,0,0-.58-0.84A1.35,1.35,0,0,1,99,43a0.72,0.72,0,0,1,.81-0.82,0.76,0.76,0,0,1,.8.91v0.3h-0.41v0c0-.59,0-0.77-0.39-0.77a0.34,0.34,0,0,0-.4.41c0,0.3,0,.39.69,1a1.12,1.12,0,0,1,.56,1,0.82,0.82,0,0,1-.89.95"/><path class="m" d="M101.79,45.94c-0.41,0-.58-0.14-0.58-0.47V42.61h-0.39v-0.4h0.38V41.3h0.42v0.92h0.54v0.4h-0.54v2.65c0,0.21,0,.29.21,0.29h0.33v0.38h0l-0.33,0"/><path class="m" d="M103.25,45.94a0.83,0.83,0,0,1-.87-0.93V43.12a0.81,0.81,0,0,1,.86-0.92,0.93,0.93,0,0,1,.89,1.18v0.78h-1.35V45a0.46,0.46,0,0,0,.48.56,0.4,0.4,0,0,0,.42-0.27,1.54,1.54,0,0,0,0-.66V44.58h0.4V45a0.81,0.81,0,0,1-.88.9m-0.47-2.13h0.94V43.19a0.51,0.51,0,0,0-.47-0.62,0.52,0.52,0,0,0-.47.65v0.59Z"/><path class="m" d="M107.77,45.93h-0.41V43.3a2,2,0,0,0,0-.48,0.36,0.36,0,0,0-.37-0.26,0.59,0.59,0,0,0-.54.41v3H106V43a0.65,0.65,0,0,0-.06-0.29,0.4,0.4,0,0,0-.35-0.18,0.61,0.61,0,0,0-.53.35v3h-0.41V42.22h0.42v0.22a0.87,0.87,0,0,1,.62-0.27,0.64,0.64,0,0,1,.62.38,0.87,0.87,0,0,1,.72-0.38,0.68,0.68,0,0,1,.69.52,2.57,2.57,0,0,1,0,.63v2.6Z"/><path class="m" d="M84.47,51.84H84.13V49.76h0.32v0.39A0.58,0.58,0,0,1,85,49.72v0.35a0.48,0.48,0,0,0-.45.17,1,1,0,0,0-.09.6v1Z"/><path class="m" d="M52.95,49.18a0.37,0.37,0,0,1,0,.09,3.83,3.83,0,0,0-.15.36,6.43,6.43,0,0,0-.37,2.21H52a6.48,6.48,0,0,1,.34-1.93c0-.1.22-0.57,0.26-0.68H51.67V48.91h1.27v0.27Z"/><rect class="m" x="52.85" y="51.35" width="0.35" height="0.49"/><path class="m" d="M54.76,48.91v0.32H54l0,0.73a0.5,0.5,0,0,1,.36-0.13,0.47,0.47,0,0,1,.41.22,1,1,0,0,1,.09.57c0,0.15,0,.58,0,0.71a0.6,0.6,0,0,1-.66.56,0.62,0.62,0,0,1-.63-0.73c0-.07,0-0.11,0-0.17h0.35c0,0.32,0,.57.29,0.57a0.26,0.26,0,0,0,.29-0.27c0-.08,0-0.63,0-0.65,0-.22,0-0.49-0.28-0.49a0.27,0.27,0,0,0-.25.34H53.57l0-1.59h1.14Z"/></g></svg>