<?xml version="1.0" standalone="no"?>
<!DOCTYPE svg PUBLIC "-//W3C//DTD SVG 1.1//EN" "http://www.w3.org/Graphics/SVG/1.1/DTD/svg11.dtd" >
<svg xmlns="http://www.w3.org/2000/svg">
<metadata></metadata>
<defs>
<font id="pill_gothic_600mgoblique" horiz-adv-x="1298" >
<font-face units-per-em="2048" ascent="1638" descent="-410" />
<missing-glyph horiz-adv-x="446" />
<glyph unicode="&#xdf;" horiz-adv-x="1345" d="M109 0l133 913h-117l20 131h115l25 166q20 137 131.5 221.5t255.5 84.5q108 0 205 -39l-56 -127q-77 22 -147 22q-100 0 -165 -48.5t-77 -139.5l-20 -140h794l-18 -124l-330 -308h80q70 -3 119 -26t72 -59t30.5 -75.5t1.5 -82.5l-20 -136q-15 -108 -112.5 -177.5 t-235.5 -69.5q-104 0 -184 37.5t-109 101.5l96 86q19 -43 72 -69.5t123 -26.5q77 0 134 34.5t64 92.5l19 116q8 62 -29 98t-119 36h-194l18 116l326 303h-615l-131 -911h-155z" />
<glyph unicode="&#xfb01;" horiz-adv-x="1210" d="M131 926l19 121h135l18 127q14 101 79 170.5t158 101t208 31.5q188 0 374 -58l-45 -121h-1h-1l-1 1h-1h-1h-1h-1h-1l-1 1h-1h-1h-1h-1l-1 1h-1h-1h-1h-1h-1l-2 1q-176 31 -283 33h-23q-125 0 -202.5 -46.5t-90.5 -137.5l-17 -104h248l-18 -121h-246l-135 -926h-156 l133 926h-135zM762 0l151 1051h160l-151 -1051h-160z" />
<glyph unicode="&#xfb02;" horiz-adv-x="1210" d="M100 0l136 926h-136l17 121h135l18 127q15 101 80.5 170.5t158.5 101t208 31.5q189 0 375 -58l-5 -6h19l-205 -1413h-160l193 1317q-126 18 -217 18q-124 0 -202 -46.5t-91 -137.5l-14 -104h245l-16 -121h-248l-133 -926h-158z" />
<glyph horiz-adv-x="2048" />
<glyph horiz-adv-x="2048" />
<glyph horiz-adv-x="682" />
<glyph unicode="&#xd;" horiz-adv-x="446" />
<glyph unicode=" "  horiz-adv-x="446" />
<glyph unicode="&#x09;" horiz-adv-x="446" />
<glyph unicode="&#xa0;" horiz-adv-x="446" />
<glyph unicode="!" horiz-adv-x="534" d="M82 0l31 207h211l-31 -207h-211zM182 483l123 910h166l-141 -910h-148z" />
<glyph unicode="&#x22;" horiz-adv-x="628" d="M176 946l60 453h116l-69 -453h-107zM418 946l59 453h117l-70 -453h-106z" />
<glyph unicode="#" horiz-adv-x="1441" d="M63 315l17 113h307l129 401h-321l18 113h344l111 350h127l-113 -350h270l115 350h123l-111 -350h254l-18 -113h-277l-127 -401h287l-18 -113h-308l-96 -315h-127l96 315h-270l-100 -315h-123l96 315h-285zM514 428h272l127 401h-270z" />
<glyph unicode="$" horiz-adv-x="1191" d="M35 184l104 105q53 -77 152 -119.5t215 -42.5q129 0 225.5 57.5t110.5 165.5l22 150l-688 297l39 270q25 165 141 248t299 96l27 193h135l-26 -195q212 -20 342 -156l-97 -123q-50 57 -140 96.5t-194 39.5q-81 0 -147 -19t-115.5 -66.5t-60.5 -119.5l-25 -174l686 -293 l-34 -250q-25 -165 -138 -251.5t-288 -104.5l-35 -242h-133l34 240q-138 6 -245 56t-166 142z" />
<glyph unicode="%" horiz-adv-x="1507" d="M141 0l1041 1393h149l-1038 -1393h-152zM184 999l29 197q13 96 99 156.5t196 60.5q103 0 172.5 -63t56.5 -154l-28 -197q-15 -99 -99 -159t-194 -60q-108 0 -177.5 61t-54.5 158zM311 1010q-7 -51 27.5 -80t95.5 -29q52 0 99 33t53 76l26 176q7 48 -29 76t-94 28 q-54 0 -100.5 -31t-52.5 -75zM750 190l30 211q13 96 96.5 155.5t192.5 59.5q103 0 172.5 -59t56.5 -151l-30 -209q-15 -99 -97 -157t-194 -58q-102 0 -171 59.5t-56 148.5zM874 209q-7 -48 28.5 -78.5t92.5 -30.5q53 0 100.5 32.5t53.5 76.5l27 176q7 50 -28 79.5t-95 29.5 q-54 0 -101.5 -32t-54.5 -77z" />
<glyph unicode="&#x26;" horiz-adv-x="1474" d="M59 328q7 51 33 100t59 86.5t89 84t100 77.5t117 80q4 2 6 3.5t5.5 4t6.5 4.5l14 10l-172 213l25 174q17 112 119 181t237 69q155 0 239 -74.5t64 -205.5q-8 -58 -34.5 -109.5t-73.5 -99t-87.5 -80t-107.5 -80.5l-2 -2l281 -344l244 221l92 -98l-250 -228l205 -249 l-123 -99l-197 244q-249 -231 -514 -231q-194 0 -297 88.5t-78 259.5zM219 330q-13 -95 38.5 -151t191.5 -56q188 0 413 194l-291 359l-18 -14q-18 -13 -60.5 -42.5t-60 -42t-52 -38.5t-50.5 -40.5t-40 -38.5t-35.5 -42.5t-22 -41.5t-13.5 -46zM469 1040l147 -180 q51 36 85 62.5t70.5 61.5t57 71.5t25.5 74.5q10 73 -33.5 110.5t-140.5 37.5q-78 0 -132.5 -37t-62.5 -92z" />
<glyph unicode="'" horiz-adv-x="466" d="M221 985l60 469h131l-80 -469h-111z" />
<glyph unicode="(" horiz-adv-x="698" d="M113 199l102 700q33 226 137 396.5t254 254.5l62 -82q-114 -67 -198 -215t-114 -354l-102 -700q-59 -417 147 -561l-86 -87q-124 84 -178.5 256.5t-23.5 391.5z" />
<glyph unicode=")" horiz-adv-x="712" d="M-20 -367q114 70 197 220.5t114 361.5l96 672q31 212 -6 359.5t-129 215.5l78 88q123 -83 176.5 -262.5t21.5 -400.5l-96 -672q-34 -226 -138 -400.5t-253 -258.5z" />
<glyph unicode="*" horiz-adv-x="806" d="M188 1192l41 92l197 -65l31 217h100l-33 -219l215 67l15 -92l-213 -68l102 -176l-88 -59l-100 178l-156 -178l-70 59l154 176z" />
<glyph unicode="+" horiz-adv-x="1183" d="M84 725l18 125h437l59 420h131l-59 -420h436l-19 -125h-436l-67 -459h-131l67 459h-436z" />
<glyph unicode="," horiz-adv-x="403" d="M-68 -203q43 53 67.5 107t37.5 141l18 117h140l-7 -53q-12 -78 -30 -136.5t-44 -101t-46.5 -67t-55.5 -58.5z" />
<glyph unicode="-" horiz-adv-x="714" d="M82 512l20 139h492l-21 -139h-491z" />
<glyph unicode="." horiz-adv-x="501" d="M49 0l29 205h203l-29 -205h-203z" />
<glyph unicode="/" horiz-adv-x="800" d="M-68 -174l764 1567h150l-768 -1567h-146z" />
<glyph unicode="0" horiz-adv-x="1300" d="M106 412l82 563q20 140 102.5 241t199 149t253.5 48q96 0 179.5 -29.5t144 -84t89 -139t13.5 -185.5l-82 -563q-16 -107 -66 -190.5t-125 -135.5t-166.5 -79t-194.5 -27q-97 0 -181 29t-145 82t-89.5 136.5t-13.5 184.5zM266 416q-11 -75 6.5 -132t59 -91t98 -51 t125.5 -17q140 0 248 75t129 216l80 555q22 145 -61.5 220t-229.5 75q-139 0 -246.5 -77t-128.5 -218z" />
<glyph unicode="1" horiz-adv-x="755" d="M150 1245l22 148h457l-203 -1393h-156l181 1245h-301z" />
<glyph unicode="2" horiz-adv-x="1130" d="M27 0l12 76q32 226 142.5 367.5t346.5 265.5q69 36 108.5 58.5t88.5 56t75.5 62.5t48 68.5t28.5 83.5q15 105 -48.5 158t-185.5 53q-96 0 -201 -45t-180 -108l-63 112q100 86 225 136.5t256 50.5q78 0 146.5 -21.5t120.5 -62.5t77 -109t12 -153q-7 -48 -23.5 -91 t-37 -76.5t-54.5 -68t-63.5 -59t-77 -54.5t-82 -50t-90.5 -50q-189 -96 -279 -199t-118 -258h717l-21 -143h-880z" />
<glyph unicode="3" horiz-adv-x="1198" d="M53 287l144 39q-1 -94 85.5 -146.5t209.5 -52.5q73 0 142.5 20t125.5 68t65 115l17 110q14 103 -63 158t-193 55h-187l21 135h182q64 0 128 20.5t116 67t61 109.5l11 76q16 109 -57 158t-204 49q-64 0 -130.5 -21.5t-122.5 -68t-72 -107.5l-129 39q34 133 177 218t308 85 q88 0 162.5 -21t131 -61.5t83 -107t14.5 -150.5l-12 -76q-14 -103 -90 -175.5t-180 -104.5q100 -31 159 -102.5t43 -180.5l-16 -115q-13 -86 -61.5 -152.5t-120 -105t-153 -58t-169.5 -19.5q-118 0 -215 36t-155.5 106t-55.5 161z" />
<glyph unicode="4" horiz-adv-x="1189" d="M8 324l21 133l772 936h188l-133 -924h227l-20 -145h-227l-48 -324h-157l47 324h-670zM203 469h495l103 698h-19z" />
<glyph unicode="5" horiz-adv-x="1191" d="M90 330l154 28q-10 -106 66.5 -169.5t207.5 -63.5q109 0 205.5 60.5t110.5 162.5l20 137q15 107 -49 164.5t-187 57.5h-407l166 686h694l-20 -148h-559l-97 -399h260q174 0 277.5 -96.5t79.5 -262.5l-21 -143q-13 -87 -60 -157.5t-115.5 -115t-149 -68t-164.5 -23.5 q-121 0 -216 39.5t-149.5 120.5t-46.5 190z" />
<glyph unicode="6" horiz-adv-x="1187" d="M88 360l96 674q26 175 169.5 277t346.5 102q109 0 204.5 -34t156.5 -95l-88 -119q-52 49 -127.5 76t-159.5 27q-132 0 -230.5 -64t-113.5 -170l-43 -295q67 70 160.5 109t191.5 39q80 0 151 -22.5t125.5 -65t81 -112t13.5 -155.5l-27 -178q-13 -94 -62.5 -167.5 t-121 -117.5t-154.5 -66.5t-172 -22.5q-84 0 -160 24.5t-134.5 70t-87 119.5t-15.5 166zM246 367q-10 -65 8.5 -113.5t57.5 -76t88 -41t106 -13.5q53 0 106 14.5t102 42.5t83.5 76.5t44.5 110.5l22 155q9 61 -9.5 107t-57.5 73t-88.5 40.5t-108.5 13.5q-73 0 -144.5 -27 t-124.5 -82t-63 -125z" />
<glyph unicode="7" horiz-adv-x="962" d="M106 1239l23 154h868l-14 -103l-623 -1290h-174l611 1239h-691z" />
<glyph unicode="8" horiz-adv-x="1247" d="M98 328l15 102q16 105 94 179.5t188 113.5q-88 36 -135.5 113.5t-34.5 173.5l11 65q12 84 57.5 150t112.5 106t147 61t166 21q79 0 152 -22t129.5 -63t85 -107t16.5 -146l-10 -71q-13 -93 -85.5 -169t-166.5 -112q97 -40 154.5 -114t41.5 -179l-14 -102q-13 -91 -62 -160 t-121 -109t-155 -59.5t-174 -19.5q-69 0 -132.5 12.5t-119.5 40.5t-95 68t-57 98.5t-8 128.5zM258 336q-8 -59 12 -102t62 -65.5t91.5 -33t108.5 -10.5q53 0 105 11t101.5 34.5t83.5 65.5t42 98l17 110q9 65 -28 114.5t-97 73t-129 23.5h-35q-73 -2 -140.5 -25.5t-118 -72.5 t-59.5 -113zM379 991q-9 -63 23.5 -110t86 -69.5t121.5 -25.5h35q107 5 191.5 59t97.5 146l10 70q7 54 -11 95t-54.5 65t-82 35.5t-98.5 11.5q-69 0 -134 -21t-115.5 -69.5t-59.5 -116.5z" />
<glyph unicode="9" horiz-adv-x="1200" d="M102 115l80 114q141 -104 326 -104q78 0 149 23t127 78t68 134l37 254q-68 -68 -160.5 -103.5t-187.5 -35.5q-85 0 -158.5 23t-129.5 67t-83 114.5t-14 158.5l30 213q13 84 61.5 153.5t119 114.5t155.5 69.5t172 24.5q81 0 158.5 -25.5t136.5 -70.5t90 -115t19 -151 l-103 -709q-13 -91 -62.5 -162.5t-121 -114t-154 -64t-170.5 -21.5q-107 0 -215 36t-170 99zM313 842q-8 -60 11.5 -105.5t59.5 -71.5t90 -38.5t108 -12.5q111 0 211 62.5t114 165.5l29 198q16 104 -64 165t-198 61q-72 0 -142.5 -25.5t-124.5 -78.5t-65 -122z" />
<glyph unicode=":" horiz-adv-x="577" d="M96 0l33 227h197l-33 -227h-197zM219 840l33 225h197l-33 -225h-197z" />
<glyph unicode=";" horiz-adv-x="626" d="M80 -203q43 53 67 107t37 141l19 117h139l-6 -53q-12 -78 -30 -136.5t-44 -101t-46.5 -67t-55.5 -58.5zM270 831l35 234h189l-35 -234h-189z" />
<glyph unicode="&#x3c;" horiz-adv-x="1265" d="M102 500l981 547l39 -107l-784 -436l698 -414l-73 -106z" />
<glyph unicode="=" horiz-adv-x="1292" d="M76 406l18 126h1032l-18 -126h-1032zM139 848l19 125h1034l-18 -125h-1035z" />
<glyph unicode="&#x3e;" horiz-adv-x="1226" d="M43 86l774 422l-629 428l84 106l789 -530l-969 -535z" />
<glyph unicode="?" horiz-adv-x="919" d="M152 1276q82 60 182.5 98.5t202.5 38.5q171 0 261.5 -75.5t69.5 -221.5l-12 -86q-4 -26 -12.5 -50t-24.5 -46t-29 -38t-38.5 -36.5t-38.5 -31t-44 -32.5t-42 -30q-88 -59 -132 -109t-55 -125l-18 -118h-156l21 145q11 81 63.5 141.5t143.5 118.5q10 7 37.5 26.5t39.5 28 t34.5 26t33.5 29.5t25 28.5t21 33t9 33.5l11 76q5 38 -3 67t-26 47.5t-46.5 30t-60 16.5t-69.5 5q-74 0 -158.5 -31t-144.5 -76zM178 0l31 207h221l-29 -207h-223z" />
<glyph unicode="@" horiz-adv-x="1671" d="M94 528q17 122 62 279q48 171 159.5 310.5t276 223.5t350.5 84q185 0 329.5 -73.5t216.5 -206.5t48 -297q-37 -254 -130.5 -380t-266.5 -126q-64 0 -117.5 30.5t-67.5 88.5q-59 -66 -144 -107t-173 -41q-119 0 -172.5 60t-42.5 151q5 33 33.5 126t58.5 165 q51 128 171 214.5t249 86.5q114 0 176 -55t49 -148q-5 -36 -51 -168q-44 -127 -51 -176q-8 -55 19 -91t77 -36q106 0 177.5 101.5t101.5 308.5q32 215 -109 345t-395 130q-229 0 -419.5 -152.5t-248.5 -373.5q-50 -178 -63 -269q-28 -199 124.5 -325.5t421.5 -126.5 q164 0 330 84l37 -88q-175 -94 -381 -94q-148 0 -274 41.5t-211 113.5t-126 174t-24 217zM547 559q-20 -139 123 -139q91 0 176 60t112 149q71 187 82 262q9 64 -24 92.5t-107 28.5q-91 0 -179.5 -73.5t-119.5 -170.5q-34 -94 -63 -209z" />
<glyph unicode="A" d="M-33 0l695 1409h169l275 -1409h-172l-76 420h-516l-203 -420h-172zM399 559h443l-125 645z" />
<glyph unicode="B" horiz-adv-x="1271" d="M84 0l203 1393h485q110 0 193 -39q83 -40 126 -120q31 -59 31 -133q0 -28 -4 -57l-8 -53q-13 -93 -79 -165.5t-159 -100.5q108 -37 164 -117q42 -61 43 -142q0 -25 -4 -52l-12 -78q-25 -170 -145 -253t-304 -83h-530zM264 137h352q111 0 194 52.5t97 158.5l13 76 q3 20 3 39q0 83 -57 129q-70 58 -194 57h-334zM356 780h326q103 0 181 54.5t91 150.5l9 53q4 27 4 50q0 78 -48 116q-62 48 -190 49h-303z" />
<glyph unicode="C" horiz-adv-x="1181" d="M100 430l78 531q20 139 103.5 243.5t203.5 156.5t260 52q279 0 414 -156l-94 -118q-117 127 -334 127q-144 0 -259 -86t-136 -226l-74 -516q-5 -35 -5 -66q0 -110 65 -170q84 -78 247 -77q223 0 367 102l53 -116q-93 -70 -201 -100.5t-249 -30.5q-140 0 -245 50 q-106 50 -160 154q-40 76 -39 172q0 36 5 74z" />
<glyph unicode="D" horiz-adv-x="1341" d="M84 0l203 1393h450q103 0 191.5 -30.5t154 -87.5t95.5 -147q20 -59 20 -127q0 -36 -6 -75l-68 -465q-17 -118 -72 -208.5t-136.5 -144.5t-179 -81t-208.5 -27h-444zM262 145h287q73 0 141 19.5t127 57.5t99.5 102t52.5 147l65 447q5 31 5 60q0 114 -75 182 q-93 84 -247 85h-295z" />
<glyph unicode="E" horiz-adv-x="1134" d="M84 0l203 1393h768l-21 -148h-612l-68 -463h510l-20 -143h-510l-72 -494h660l-21 -145h-817z" />
<glyph unicode="F" horiz-adv-x="1034" d="M84 0l203 1393h764l-21 -148h-608l-66 -450h508l-22 -144h-504l-94 -651h-160z" />
<glyph unicode="G" horiz-adv-x="1316" d="M100 428l78 537q21 142 107.5 245t209.5 153t267 50q133 0 245.5 -40t180.5 -103l-82 -123q-140 119 -361 119q-94 0 -181 -35.5t-150.5 -107.5t-77.5 -167l-74 -520q-4 -27 -4 -52q0 -106 72 -174q89 -85 243 -85q197 0 345 88l55 381h-328l21 139h485l-88 -598 q-108 -72 -229 -113.5t-281 -41.5q-137 0 -247 55t-168 159q-43 78 -43 171q0 31 5 63z" />
<glyph unicode="H" horiz-adv-x="1447" d="M84 0l203 1393h157l-94 -645h733l93 645h157l-200 -1393h-158l88 602h-733l-88 -602h-158z" />
<glyph unicode="I" horiz-adv-x="600" d="M119 0l200 1393h158l-203 -1393h-155z" />
<glyph unicode="J" horiz-adv-x="1124" d="M4 315l158 29q-2 -13 -2 -26q0 -76 62 -130q72 -63 186 -63q116 0 203 61t104 172l149 1035h160l-152 -1039q-26 -183 -155 -277.5t-328 -94.5q-176 0 -287 91q-99 81 -99 211q0 15 1 31z" />
<glyph unicode="K" horiz-adv-x="1286" d="M84 0l203 1393h157l-102 -697l711 697h200l-686 -656l555 -737h-209l-469 625l-129 -121l-73 -504h-158z" />
<glyph unicode="L" horiz-adv-x="1089" d="M84 0l203 1393h157l-182 -1248h699l-23 -145h-854z" />
<glyph unicode="M" horiz-adv-x="1701" d="M84 0l203 1393h174l352 -836l594 836h174l-201 -1393h-159l165 1143l-557 -791h-94l-327 787l-166 -1139h-158z" />
<glyph unicode="N" horiz-adv-x="1441" d="M84 0l203 1393h164l563 -1145l166 1145h149l-201 -1393h-161l-568 1147l-166 -1147h-149z" />
<glyph unicode="O" horiz-adv-x="1355" d="M106 428l78 535q31 211 188 330.5t378 119.5h34q140 0 248.5 -54t163.5 -158q40 -76 40 -169q0 -34 -5 -69l-78 -535q-31 -218 -186.5 -333t-391.5 -115h-30q-143 0 -249 51t-158 153q-38 74 -38 169q0 36 6 75zM266 436q-5 -34 -6 -65q0 -107 64 -168q80 -78 241 -78h33 q157 0 267.5 81t131.5 230l76 518q4 29 4 55q1 109 -69 175q-86 82 -246 82h-33q-146 0 -256 -85t-131 -227z" />
<glyph unicode="P" horiz-adv-x="1245" d="M84 0l203 1393h497q197 -1 303 -105q85 -84 86 -215q0 -32 -6 -67l-16 -113q-26 -181 -152.5 -269.5t-332.5 -88.5h-347l-77 -535h-158zM340 674h336q132 0 216.5 58t102.5 175l13 86q4 24 4 46q0 85 -52 139q-66 67 -202 67h-336z" />
<glyph unicode="Q" horiz-adv-x="1355" d="M106 428l78 535q31 211 188 330.5t378 119.5h34q140 0 248.5 -54t163.5 -158q40 -76 40 -169q0 -33 -5 -69l-78 -535q-28 -203 -178 -324l115 -161l-103 -74l-121 170q-127 -59 -291 -59h-30q-143 0 -248.5 51t-158.5 153q-38 75 -38 169q0 36 6 75zM266 436 q-5 -34 -5 -65q0 -107 63 -168q80 -78 241 -78h33q105 0 184 33l-110 157l98 74l119 -166q90 81 108 213l76 518q4 29 4 55q0 108 -69 175q-87 82 -246 82h-33q-146 0 -256 -85t-131 -227z" />
<glyph unicode="R" horiz-adv-x="1241" d="M86 0l203 1393h524q180 1 277 -97q78 -78 78 -202q0 -31 -5 -64l-10 -78q-41 -269 -324 -329l224 -623h-174l-205 588h-344l-86 -588h-158zM348 725h373q105 5 180.5 60.5t89.5 156.5l13 84q3 20 3 39q0 74 -48 121q-60 59 -179 59h-356z" />
<glyph unicode="S" horiz-adv-x="1193" d="M45 211l107 102q54 -92 151.5 -139t220.5 -47q127 0 218 59.5t108 165.5q4 25 4 47q0 79 -48 123q-61 57 -239 113q-97 32 -165 67.5t-118 83.5t-68 112q-11 39 -12 84q0 29 5 60q16 120 88 205t176.5 124.5t231.5 39.5q133 0 241.5 -48t179.5 -138l-100 -109 q-124 150 -340 150q-125 0 -216 -58t-105 -161q-3 -21 -3 -39q0 -24 5 -44q9 -36 29.5 -63.5t62.5 -52t87 -43t116 -41.5q202 -64 284 -156q64 -72 64 -184q0 -32 -6 -68q-23 -174 -160.5 -273t-337.5 -99q-146 0 -273 59.5t-188 167.5z" />
<glyph unicode="T" horiz-adv-x="1177" d="M127 1245l20 148h1067l-22 -148h-459l-180 -1245h-158l180 1245h-448z" />
<glyph unicode="U" horiz-adv-x="1421" d="M141 432l140 961h157l-139 -955q-4 -31 -5 -59q0 -47 13 -85q20 -62 65.5 -98t106 -53.5t135.5 -17.5q144 0 263.5 84.5t140.5 228.5l139 955h158l-139 -961q-16 -114 -68.5 -202t-131.5 -142t-175 -81t-207 -27q-104 0 -192 28t-153 82t-95 142q-19 57 -19 125 q0 36 6 75z" />
<glyph unicode="V" horiz-adv-x="1212" d="M162 1393h172l188 -1176l539 1176h172l-662 -1393h-163z" />
<glyph unicode="W" horiz-adv-x="1826" d="M195 1393h165l70 -1178l492 1178h145l152 -1180l411 1180h164l-508 -1393h-182l-146 1147l-483 -1147h-182z" />
<glyph unicode="X" horiz-adv-x="1185" d="M-27 0l519 698l-289 695h180l227 -566l400 566h182l-506 -695l305 -698h-186l-232 569l-413 -569h-187z" />
<glyph unicode="Y" horiz-adv-x="1210" d="M182 1393h183l229 -682l432 682h184l-561 -848l-80 -545h-159l79 545z" />
<glyph unicode="Z" horiz-adv-x="1181" d="M10 0l17 100l886 1145h-698l23 148h897l-15 -103l-882 -1145h733l-23 -145h-938z" />
<glyph unicode="[" horiz-adv-x="575" d="M33 -336l250 1729h297l-19 -123h-151l-215 -1485h143l-19 -121h-286z" />
<glyph unicode="\" horiz-adv-x="858" d="M182 1393h146l358 -1393h-147z" />
<glyph unicode="]" horiz-adv-x="571" d="M-31 -324l19 123h145l213 1465h-147l18 129h293l-250 -1717h-291z" />
<glyph unicode="^" horiz-adv-x="849" d="M145 897l385 518l224 -518l-113 -27l-143 334l-246 -334z" />
<glyph unicode="_" horiz-adv-x="1118" d="M-10 -172l16 117h868l-16 -117h-868z" />
<glyph unicode="`" horiz-adv-x="524" d="M203 1378l129 80l149 -301l-96 -59z" />
<glyph unicode="a" horiz-adv-x="1103" d="M57 276l33 232l680 104l16 115q3 20 3 37q0 68 -41 105q-51 46 -164 46q-85 0 -185.5 -27t-162.5 -57l-33 123q80 43 197.5 76t217.5 33q168 1 260 -87q73 -70 73 -186q0 -29 -5 -61l-106 -729h-140l9 119q-118 -129 -336 -129q-162 0 -249 76q-71 61 -71 162q0 23 4 48z M217 287q-2 -16 -2 -30q0 -64 44 -96q54 -40 163 -40q65 0 130 21.5t114 64.5t57 98l27 191l-514 -82z" />
<glyph unicode="b" horiz-adv-x="1175" d="M57 0l205 1413h156l-72 -500q62 75 155 113.5t193 38.5q172 -1 268 -103q76 -81 76 -204q0 -33 -6 -70l-47 -330q-27 -183 -145 -279.5t-303 -96.5q-98 0 -182.5 38.5t-123.5 116.5l-36 -137h-138zM260 340q-3 -19 -3 -36q0 -83 64 -129q77 -56 199 -56q119 0 204.5 62.5 t102.5 176.5l50 330q3 21 3 39q0 83 -54 135q-66 64 -185 64q-76 0 -144.5 -23t-120.5 -75.5t-63 -125.5z" />
<glyph unicode="c" horiz-adv-x="972" d="M70 346l49 348q26 175 158 273t319 98q201 0 317 -129l-86 -113q-92 95 -239 95q-116 0 -205.5 -64t-106.5 -174l-47 -322q-3 -21 -2 -40q0 -86 59 -135q73 -60 189 -60h10q141 0 260 82l48 -117q-139 -106 -349 -106q-85 0 -157.5 23t-126 67t-78.5 114q-16 46 -16 101 q0 29 4 59z" />
<glyph unicode="d" horiz-adv-x="1175" d="M76 358l47 330q26 180 145.5 278.5t302.5 98.5q96 0 180 -39t123 -113l72 500h158l-205 -1413h-139l2 137q-61 -79 -154 -117t-194 -38q-176 0 -270 100q-73 79 -74 203q0 35 6 73zM231 358q-4 -25 -4 -47q0 -85 52 -132q65 -60 190 -60q73 0 141 23t120 75t61 123 l53 362q3 20 3 37q-1 84 -63 131q-76 56 -202 56q-111 0 -198.5 -65.5t-102.5 -172.5z" />
<glyph unicode="e" horiz-adv-x="1093" d="M70 348l53 367q23 152 165.5 250t315.5 98q107 0 196 -43q90 -44 138 -125q37 -62 36 -134q0 -22 -3 -46l-31 -219h-692l-21 -142q-3 -19 -3 -36q0 -86 66 -134q79 -57 208 -57q93 0 180 22.5t143 57.5l39 -113q-151 -106 -389 -106q-84 0 -160 23t-135.5 66.5 t-89.5 113.5q-20 49 -20 105q0 25 4 52zM266 618h541l12 95q2 15 2 29q0 74 -58 124q-69 60 -179 60q-105 0 -197.5 -62t-107.5 -151z" />
<glyph unicode="f" horiz-adv-x="645" d="M94 0l135 924h-133l17 120h133l18 127q21 143 123.5 217t245.5 74q125 0 217 -39l-47 -125q-84 23 -168 23t-143.5 -42t-71.5 -120l-17 -115h244l-16 -120h-246l-133 -924h-158z" />
<glyph unicode="g" horiz-adv-x="1159" d="M-20 -190q25 175 223 231q-94 50 -94 139q0 13 2 27q8 51 47 99t94 71q-109 76 -109 215q0 27 4 57l11 68q24 170 154 258t313 88q135 0 223 -49l264 80l23 -115l-187 -51q47 -69 47 -156q0 -25 -4 -51l-10 -78q-13 -87 -54 -153t-103.5 -104.5t-137 -57.5t-160.5 -19 q-101 0 -174 23q-34 -14 -59 -41.5t-31 -61.5q-1 -8 -1 -16q0 -37 29 -60q35 -27 91 -38l549 -90l-29 -203q-11 -74 -53.5 -130t-105.5 -88t-135 -47.5t-152 -15.5h-109q-79 0 -147 15t-122.5 46t-80.5 84q-19 39 -19 86q0 19 3 38zM135 -176q-2 -11 -2 -22q0 -29 13 -52 q17 -31 53 -46.5t77.5 -22.5t92.5 -7h108q98 0 172 36.5t94 117.5l15 96l-410 64q-81 -7 -141.5 -46.5t-71.5 -117.5zM303 635q-2 -16 -2 -31q0 -75 53 -117q64 -51 187 -51q105 0 184.5 49t95.5 150l10 82q1 12 1 23q0 82 -58 128q-66 52 -170 52q-103 0 -189 -53.5 t-100 -149.5z" />
<glyph unicode="h" horiz-adv-x="1216" d="M66 0l204 1413h158l-80 -559q69 97 172.5 153t220.5 56q165 0 247 -96q62 -73 62 -191q0 -36 -6 -76l-102 -700h-156l101 694q3 23 3 44q0 77 -44 122q-56 58 -164 58q-75 0 -155 -34t-139 -95t-69 -130l-96 -659h-157z" />
<glyph unicode="i" horiz-adv-x="542" d="M92 0l152 1044h159l-151 -1044h-160zM268 1262l21 151h172l-23 -151h-170z" />
<glyph unicode="j" horiz-adv-x="575" d="M-227 -283q94 24 155 51.5t106.5 72t70.5 107t38 154.5l138 942h157l-137 -956q-34 -230 -150.5 -342t-355.5 -164zM305 1262l23 151h161l-20 -151h-164z" />
<glyph unicode="k" horiz-adv-x="1026" d="M66 0l204 1413h158l-113 -778h76l434 409h189l-496 -475l381 -569h-188l-328 487h-88l-72 -487h-157z" />
<glyph unicode="l" horiz-adv-x="542" d="M90 0l205 1413h160l-205 -1413h-160z" />
<glyph unicode="m" horiz-adv-x="1832" d="M66 0l151 1044h131l-18 -176q64 88 162 141.5t202 53.5q113 0 190 -47.5t91 -143.5q144 193 389 193q154 1 230 -87q58 -67 58 -175q0 -32 -5 -68l-107 -735h-156l103 705q3 23 3 44q0 70 -36 114q-47 57 -147 57q-122 0 -216.5 -67t-111.5 -177l-98 -676h-158l104 719 q3 21 3 40q0 69 -38 111q-48 52 -149 52q-103 0 -206 -79.5t-118 -176.5l-96 -666h-157z" />
<glyph unicode="n" horiz-adv-x="1218" d="M66 0l151 1044h135l-18 -194q163 213 399 213q168 1 253 -95q66 -74 66 -195q0 -34 -5 -71l-103 -702h-158l99 688q4 27 4 51q0 77 -41 122q-54 59 -170 59q-71 0 -150 -34.5t-139 -96.5t-70 -130l-96 -659h-157z" />
<glyph unicode="o" horiz-adv-x="1136" d="M70 350l51 348q16 113 89 197t178 126t226 42q177 1 292 -101q97 -85 97 -214q0 -24 -4 -50l-51 -348q-17 -114 -91.5 -199t-178 -126t-219.5 -41q-83 0 -158.5 25.5t-130.5 71.5q-56 47 -84 117q-20 49 -20 104q0 23 4 48zM227 358q-2 -17 -3 -33q0 -85 64 -137 q74 -61 191 -61q68 0 135 26.5t117 81t60 123.5l47 332q3 19 3 36q-1 80 -61 130q-74 62 -186 62q-109 0 -206.5 -64t-111.5 -164z" />
<glyph unicode="p" horiz-adv-x="1169" d="M-12 -422l213 1466h139l-4 -141q61 80 155 120t195 40q174 0 269 -102q75 -80 75 -205q0 -34 -6 -72l-47 -332q-27 -180 -146 -276t-303 -96q-98 0 -181.5 36.5t-123.5 110.5l-78 -549h-157zM256 340q-3 -20 -3 -38q0 -35 11 -64q17 -44 55 -70t87.5 -38.5t109.5 -12.5 q112 0 200.5 65.5t102.5 173.5l47 324q4 27 4 50q0 84 -50 132q-64 62 -189 62q-73 0 -141 -24t-120 -76.5t-63 -123.5z" />
<glyph unicode="q" horiz-adv-x="1169" d="M74 352l49 332q26 182 144.5 280.5t303.5 98.5q97 0 181.5 -39t121.5 -117l37 137h140l-213 -1466h-156l78 549q-61 -74 -153 -110.5t-193 -36.5q-175 0 -270 100q-75 80 -75 205q0 32 5 67zM231 354q-4 -23 -4 -44q0 -82 53 -131q65 -62 185 -62q76 0 144.5 22.5t120 75 t61.5 125.5l53 360q3 19 3 36q0 83 -63 130q-76 58 -198 58q-120 0 -205 -63t-102 -179z" />
<glyph unicode="r" horiz-adv-x="747" d="M72 0l149 1044h135l-10 -190q44 89 125 150t174 61q63 0 115 -14l-45 -162q-48 10 -113 10q-100 0 -184 -91.5t-99 -205.5l-88 -602h-159z" />
<glyph unicode="s" horiz-adv-x="987" d="M8 115l82 114q53 -52 142.5 -82t173.5 -30q108 0 178.5 39t81.5 120q1 10 1 20q0 56 -43 90q-51 40 -188 73q-178 41 -246 113q-54 57 -55 146q0 23 4 48q12 80 51 139t97 92.5t124 49.5t142 16q93 0 187 -26.5t159 -71.5l-76 -117q-132 78 -274 78q-103 0 -173 -38 t-83 -124q-2 -12 -2 -24q-1 -56 41 -86q50 -38 188 -68q180 -40 246 -112q54 -59 53 -150q0 -20 -2 -43q-15 -103 -77.5 -172.5t-149.5 -99t-195 -29.5q-101 0 -209.5 35t-177.5 100z" />
<glyph unicode="t" horiz-adv-x="802" d="M94 922l19 122h151l39 269h156l-39 -269h299l-19 -122h-297l-92 -639q-3 -18 -3 -34q0 -112 136 -112q114 0 201 35l19 -129q-135 -51 -275 -51q-127 0 -193 68q-50 52 -51 143q0 28 5 59l96 660h-152z" />
<glyph unicode="u" horiz-adv-x="1204" d="M113 346l102 698h156l-101 -690q-3 -23 -3 -43q-1 -81 53 -128q68 -58 194 -58q118 0 207.5 61.5t103.5 167.5l101 690h157l-102 -698q-17 -118 -87 -202t-172.5 -124t-227.5 -40q-185 0 -295 98q-90 81 -90 210q0 28 4 58z" />
<glyph unicode="v" horiz-adv-x="1079" d="M106 1044h170l183 -849l428 849h170l-553 -1044h-150z" />
<glyph unicode="w" horiz-adv-x="1515" d="M119 1044h160l73 -849l375 849h131l137 -847l316 847h157l-424 -1044h-151l-129 821l-367 -821h-155z" />
<glyph unicode="x" horiz-adv-x="1021" d="M-53 0l438 522l-266 522h180l199 -405l311 405h190l-426 -522l287 -522h-188l-211 403l-328 -403h-186z" />
<glyph unicode="y" horiz-adv-x="1034" d="M-14 -438l4 131q88 0 167.5 53t127.5 154l32 65l-213 1079h170l156 -874l408 874h170l-568 -1159q-159 -323 -454 -323z" />
<glyph unicode="z" horiz-adv-x="1003" d="M4 0l14 100l674 813h-545l19 131h733l-12 -88l-674 -819h590l-19 -137h-780z" />
<glyph unicode="{" horiz-adv-x="632" d="M113 111l104 393l-76 96l109 115v346q0 151 92 267.5t254 191.5l45 -90q-246 -134 -252 -365l-6 -365l-90 -94l65 -82l-108 -420q-29 -116 11 -210t140 -158l-75 -94q-295 171 -213 469z" />
<glyph unicode="|" horiz-adv-x="481" d="M29 -301l245 1694h136l-246 -1694h-135z" />
<glyph unicode="}" horiz-adv-x="647" d="M10 -264q265 156 271 368l10 420l88 82l-60 92l101 367q58 204 -156 365l68 88q143 -79 203 -196.5t18 -260.5l-102 -346l75 -115l-106 -96l-6 -393q-2 -137 -91.5 -258t-265.5 -207z" />
<glyph unicode="~" horiz-adv-x="823" d="M197 1276q47 65 92 97t100 32q45 0 127 -46.5t123 -47.5q51 5 92 67l74 -55q-90 -131 -180 -131q-44 0 -89 23.5t-87 47t-78 23.5q-56 0 -109 -72z" />
<glyph unicode="&#xa1;" horiz-adv-x="522" d="M41 -350l162 950h147l-114 -950h-195zM225 883l25 170h188l-24 -170h-189z" />
<glyph unicode="&#xa2;" horiz-adv-x="964" d="M74 346l49 348q26 175 158 273t319 98l78 264l115 -18l-78 -258q117 -24 203 -117l-87 -113q-92 95 -239 95q-116 0 -205 -64t-106 -174l-48 -322q-16 -116 56.5 -175.5t189.5 -59.5q148 -3 271 82l47 -117q-139 -106 -348 -106q-8 0 -24.5 1t-23.5 1l-77 -256l-113 18 l78 256q-116 36 -175 123t-40 221z" />
<glyph unicode="&#xa3;" horiz-adv-x="1171" d="M41 0l16 106q86 2 146.5 25.5t96 68t54 97t27.5 125.5l8 182h-266l18 125h254l15 234q20 212 196.5 327t442.5 117l-21 -145q-125 0 -224 -31t-163.5 -99t-71.5 -165l-14 -238h395l-16 -125h-383q-2 -37 -4.5 -79t-3.5 -63t-2 -24q-13 -107 -41 -174t-103 -119h568 l-23 -145h-901z" />
<glyph unicode="&#xa5;" horiz-adv-x="1189" d="M57 317l15 95h399l18 133l-12 28h-383l15 97h335l-262 723h183l229 -682l432 682h184l-481 -723h320l-15 -97h-368l-17 -28l-20 -133h379l-13 -95h-381l-45 -317h-159l47 317h-400z" />
<glyph unicode="&#xa6;" horiz-adv-x="339" d="M-18 -227l98 669h115l-97 -669h-116zM123 743l98 672h115l-98 -672h-115z" />
<glyph unicode="&#xa7;" horiz-adv-x="1157" d="M29 -250l100 70q22 -69 99.5 -114.5t170.5 -45.5q68 0 127.5 23t105 75t56.5 125q6 38 -3 74t-25 64.5t-47.5 57t-58.5 48.5t-70.5 44t-71 37.5t-72.5 33.5q-27 13 -47 23.5t-44.5 25t-41.5 28t-37 31.5t-31 36.5t-24 42.5t-15.5 49.5t-6 57.5t4.5 66q13 87 76 159.5 t131 90.5q-50 82 -31 213q17 113 79.5 192.5t153 116.5t202.5 37q121 0 212.5 -50.5t129.5 -139.5l-95 -74q-30 67 -99.5 106t-164.5 39q-103 0 -187 -63.5t-99 -163.5q-7 -49 6.5 -91.5t37.5 -72t65 -57.5t75 -45.5t82 -39.5q24 -11 35 -16q73 -37 120 -67.5t92.5 -75.5 t63.5 -102.5t8 -128.5q-32 -207 -209 -275q55 -86 37 -203q-24 -167 -145.5 -258.5t-288.5 -91.5q-123 0 -222 57.5t-134 151.5zM229 604q-6 -43 3 -78t24.5 -58.5t51.5 -48.5t65.5 -40t85.5 -41q163 -76 243 -145q56 6 104 54.5t56 100.5q6 42 -2 75.5t-24 59t-51 51.5 t-70 45t-94 48q-155 74 -230 139q-59 -6 -106 -54.5t-56 -107.5z" />
<glyph unicode="&#xa8;" horiz-adv-x="737" d="M190 1190l23 160h147l-24 -160h-146zM537 1190l24 160h146l-23 -160h-147z" />
<glyph unicode="&#xa9;" horiz-adv-x="1656" d="M119 713q22 152 95.5 286.5t181 229t244 149t280.5 54.5q135 0 254 -57t200 -152.5t119.5 -229.5t17.5 -280q-29 -203 -146 -367t-289 -255t-363 -91q-137 0 -257 56t-201 150.5t-119 227.5t-17 279zM215 713q-25 -174 35.5 -316.5t187 -221.5t291.5 -79q154 0 303 82 t253 225t128 310q26 175 -33 317t-184.5 221.5t-290.5 79.5q-156 0 -305.5 -82t-254.5 -225t-130 -311zM446 649l15 96q22 141 144 238.5t274 97.5q190 0 280 -135l-78 -84q-32 47 -93 76t-126 29q-98 0 -182.5 -66.5t-97.5 -155.5l-15 -96q-13 -99 52.5 -159t171.5 -62 q62 0 132.5 24.5t118.5 65.5l45 -90q-59 -55 -145.5 -85t-169.5 -30q-154 0 -250.5 96t-75.5 240z" />
<glyph unicode="&#xaa;" horiz-adv-x="716" d="M154 954l20 144l371 55l4 31q10 70 -19 97.5t-92 27.5q-35 0 -85.5 -16t-82.5 -33l-24 92q102 56 211 59q105 0 163 -52t44 -153l-62 -424h-84l-12 60q-33 -30 -80.5 -47t-93.5 -17q-85 0 -136.5 49.5t-41.5 126.5zM262 956q-3 -31 28 -52t77 -21t92.5 22.5t50.5 55.5 l14 104l-250 -35z" />
<glyph unicode="&#xab;" horiz-adv-x="958" d="M68 356l366 369l51 -72l-268 -293l182 -286l-69 -74zM406 356l368 369l49 -72l-266 -293l182 -286l-69 -74z" />
<glyph unicode="&#xac;" horiz-adv-x="927" d="M98 575l17 115h686l-45 -311h-109l27 196h-576z" />
<glyph unicode="&#xad;" horiz-adv-x="714" d="M82 512l20 139h492l-21 -139h-491z" />
<glyph unicode="&#xae;" horiz-adv-x="1656" d="M119 713q29 205 145 370.5t288.5 257t367.5 91.5q136 0 255.5 -56t200 -151.5t118.5 -229.5t17 -282q-30 -205 -146 -369t-287.5 -254t-364.5 -90q-138 0 -258 55.5t-201.5 149.5t-119 227t-15.5 281zM215 713q-19 -133 11.5 -248t99.5 -196t173.5 -127t229.5 -46 q156 0 304.5 81t252 224t127.5 312q26 176 -32.5 318t-184 221t-291.5 79q-158 0 -307.5 -81.5t-253.5 -224.5t-129 -312zM502 319l114 785h322q90 0 148.5 -66t46.5 -157l-7 -33q-10 -78 -64.5 -132t-135.5 -69l149 -328h-129l-145 318h-144l-45 -318h-110zM672 731h198 q50 0 97.5 32t54.5 81l4 33q6 53 -28 90t-89 37h-198z" />
<glyph unicode="&#xaf;" horiz-adv-x="960" d="M207 1303l12 92h713l-12 -92h-713z" />
<glyph unicode="&#xb0;" horiz-adv-x="778" d="M178 1130l8 56q15 100 101 162t200 65q112 -3 182.5 -66.5t55.5 -160.5l-8 -56q-15 -101 -101.5 -162t-199.5 -61q-108 0 -179.5 63t-58.5 160zM289 1122q-6 -50 35 -81t106 -31q61 0 113.5 32t58.5 80l10 72q7 50 -33 82.5t-106 32.5q-62 0 -114.5 -33.5t-59.5 -81.5z " />
<glyph unicode="&#xb1;" horiz-adv-x="1128" d="M14 0l17 113h878l-16 -113h-879zM119 627l16 118h354l50 347h125l-50 -347h363l-16 -118h-365l-53 -371h-125l53 371h-352z" />
<glyph unicode="&#xb2;" horiz-adv-x="804" d="M129 680l12 84q16 106 85.5 167t193.5 113q40 16 56 22.5t50.5 23.5t50.5 30t31.5 33.5t18.5 42.5q8 51 -25.5 76.5t-114.5 25.5q-122 0 -229 -92l-45 84q54 54 136 87.5t173 33.5q124 0 185 -55t47 -150q-6 -43 -27 -79t-57 -63t-70 -45.5t-82 -39.5q-45 -20 -66.5 -30 t-57 -29.5t-53.5 -36t-35 -40t-23 -50.5h424l-17 -113h-561z" />
<glyph unicode="&#xb3;" horiz-adv-x="755" d="M125 823l90 41q3 -49 56 -77.5t130 -28.5q71 0 121.5 22.5t57.5 69.5l4 29q7 51 -40 79.5t-114 28.5h-133l14 100h123q43 0 79 7.5t67.5 32.5t37.5 65l3 16q8 54 -33.5 74.5t-112.5 20.5q-72 0 -132 -29t-77 -78l-71 47q27 74 116 122t191 48q53 0 98.5 -10t83.5 -32 t56 -62t10 -95l-2 -16q-20 -127 -164 -162q56 -15 95 -53.5t30 -103.5l-4 -33q-11 -72 -59 -118.5t-110 -63.5t-139 -17q-105 0 -186.5 49.5t-85.5 126.5z" />
<glyph unicode="&#xb4;" horiz-adv-x="524" d="M176 1155l244 293l98 -74l-258 -270z" />
<glyph unicode="&#xb6;" horiz-adv-x="1073" d="M166 1040l10 64q18 127 111 206.5t235 82.5h449l-203 -1393h-102l188 1300h-170l-188 -1300h-105l111 766h-70q-131 0 -207.5 74t-58.5 200z" />
<glyph unicode="&#xb7;" horiz-adv-x="403" d="M106 408l29 204h203l-29 -204h-203z" />
<glyph unicode="&#xb8;" horiz-adv-x="493" d="M-41 -434q150 56 158 127q16 103 -125 137l65 170h109l-45 -106q11 -5 20 -9.5t30.5 -21t35.5 -36t23 -52.5t3 -72q-10 -80 -75.5 -134t-171.5 -83z" />
<glyph unicode="&#xb9;" horiz-adv-x="567" d="M164 1270l18 123h346l-100 -703h-131l86 580h-219z" />
<glyph unicode="&#xba;" horiz-adv-x="763" d="M162 1010l24 178q15 98 100 160.5t195 62.5q102 0 173.5 -64.5t58.5 -158.5l-27 -180q-15 -99 -100.5 -160.5t-194.5 -61.5q-104 0 -173 64t-56 160zM279 1016q-6 -59 28.5 -92t98.5 -33q56 0 106 32t57 81l29 190q4 49 -34.5 80t-96.5 31t-107.5 -31.5t-56.5 -81.5z" />
<glyph unicode="&#xbb;" horiz-adv-x="946" d="M4 74l264 286l-180 293l70 72l260 -369l-365 -356zM346 74l264 286l-182 293l70 72l260 -369l-365 -356z" />
<glyph unicode="&#xbc;" horiz-adv-x="1386" d="M43 0l1040 1393h150l-1038 -1393h-152zM174 1270l19 123h346l-101 -703h-131l86 580h-219zM551 174l12 84l422 475h170l-68 -459h130l-17 -100h-127l-24 -170h-125l24 170h-397zM700 274h263l49 330h-13z" />
<glyph unicode="&#xbd;" horiz-adv-x="1402" d="M20 0l1041 1393h149l-1038 -1393h-152zM174 1270l19 123h346l-101 -703h-131l86 580h-219zM641 -6l12 84q16 106 85.5 167t193.5 113q40 16 56 22.5t50.5 23.5t50.5 30t31.5 33.5t18.5 42.5q8 51 -25.5 76.5t-114.5 25.5q-122 0 -229 -92l-45 84q54 54 136 87.5t173 33.5 q124 0 185 -55t47 -150q-6 -43 -27 -79t-57 -63t-70 -45.5t-82 -39.5q-44 -19 -66.5 -29.5t-57 -30.5t-53 -36t-35.5 -40t-23 -51h424l-17 -112h-561z" />
<glyph unicode="&#xbe;" horiz-adv-x="1511" d="M113 823l90 41q3 -49 56 -77.5t130 -28.5q70 0 120.5 22.5t57.5 69.5l4 29q7 51 -39.5 79.5t-113.5 28.5h-133l14 100h123q43 0 79 7.5t67.5 32.5t37.5 65l2 16q8 54 -33 74.5t-112 20.5q-72 0 -132 -29t-77 -78l-72 47q27 74 116 122t191 48q53 0 98.5 -10t83.5 -32 t56 -62t10 -95l-2 -16q-20 -127 -164 -162q56 -15 95 -53.5t30 -103.5l-4 -33q-8 -55 -37 -95t-72 -62t-92 -32t-106 -10q-105 0 -186.5 49.5t-85.5 126.5zM199 0l1040 1393h150l-1039 -1393h-151zM684 172l12 84l422 475h170l-67 -459h129l-17 -100h-127l-24 -170h-125 l24 170h-397zM834 272h262l49 330h-12z" />
<glyph unicode="&#xbf;" horiz-adv-x="831" d="M-23 -90l17 113q3 21 10 41t13.5 35t21 33.5t22.5 28.5t28.5 28.5t28 24.5t33 26.5t31.5 25.5q81 61 122 110.5t52 121.5l19 135h157l-24 -160q-10 -72 -57.5 -128t-135.5 -124q-39 -32 -55.5 -46.5t-44.5 -42t-41 -51.5t-16 -48l-17 -107q-7 -53 6 -88.5t42 -51t56 -21 t62 -5.5q61 0 134 33t132 78l45 -115q-71 -59 -163.5 -101t-184.5 -42q-159 0 -236 76t-57 221zM367 844l28 209h223l-30 -209h-221z" />
<glyph unicode="&#xc0;" d="M-33 0l695 1409h169l275 -1409h-172l-76 420h-516l-203 -420h-172zM399 559h443l-125 645zM570 1790l129 80l149 -301l-96 -59z" />
<glyph unicode="&#xc1;" d="M-33 0l695 1409h169l275 -1409h-172l-76 420h-516l-203 -420h-172zM399 559h443l-125 645zM682 1556l244 293l98 -74l-258 -270z" />
<glyph unicode="&#xc2;" d="M-33 0l695 1409h169l275 -1409h-172l-76 420h-516l-203 -420h-172zM399 559h443l-125 645zM515 1577l274 176l227 -178l-69 -76l-176 125l-211 -123z" />
<glyph unicode="&#xc3;" d="M-33 0l695 1409h169l275 -1409h-172l-76 420h-516l-203 -420h-172zM399 559h443l-125 645zM465 1583q47 65 92 97t100 32q45 0 127 -46.5t123 -47.5q51 5 92 67l74 -55q-90 -131 -180 -131q-44 0 -89 23.5t-87 47t-78 23.5q-56 0 -109 -72z" />
<glyph unicode="&#xc4;" d="M-33 0l695 1409h169l275 -1409h-172l-76 420h-516l-203 -420h-172zM399 559h443l-125 645zM512 1538l23 160h147l-25 -160h-145zM858 1538l25 160h145l-22 -160h-148z" />
<glyph unicode="&#xc5;" d="M-33 0l695 1409h169l275 -1409h-172l-76 420h-516l-203 -420h-172zM399 559h443l-125 645zM618 1661q9 68 62 113t117 45q60 0 102 -46t33 -112q-9 -68 -62.5 -114t-119.5 -46q-61 0 -101 47.5t-31 112.5zM692 1657q-4 -35 16.5 -58.5t53.5 -23.5q32 0 61 24.5t33 57.5 q5 35 -15.5 60.5t-54.5 25.5q-31 0 -59.5 -25.5t-34.5 -60.5z" />
<glyph unicode="&#xc6;" horiz-adv-x="1794" d="M-63 0l1036 1393h743l-20 -148h-525l-67 -457h436l-20 -139h-435l-73 -504h571l-20 -145h-732l56 381h-484l-282 -381h-184zM494 520h413l103 707z" />
<glyph unicode="&#xc7;" horiz-adv-x="1218" d="M104 430l78 531q30 208 191 330t375 122q280 0 415 -156l-94 -118q-117 127 -334 127q-144 0 -259 -86t-136 -226l-74 -516q-24 -158 60 -235.5t247 -77.5q223 0 367 102l53 -116q-91 -69 -195.5 -99t-238.5 -32l-37 -86q11 -5 20 -9t31 -21t35.5 -36.5t23 -52.5t3.5 -72 q-19 -153 -248 -217l-29 80q151 54 160 127q16 103 -125 137l60 156q-186 22 -281 136.5t-68 307.5z" />
<glyph unicode="&#xc8;" horiz-adv-x="1138" d="M84 0l203 1393h768l-21 -148h-612l-68 -463h510l-20 -143h-510l-72 -494h660l-21 -145h-817zM510 1772l129 79l149 -301l-96 -59z" />
<glyph unicode="&#xc9;" horiz-adv-x="1138" d="M84 0l203 1393h768l-21 -148h-612l-68 -463h510l-20 -143h-510l-72 -494h660l-21 -145h-817zM625 1540l243 293l99 -74l-258 -270z" />
<glyph unicode="&#xca;" horiz-adv-x="1138" d="M84 0l203 1393h768l-21 -148h-612l-68 -463h510l-20 -143h-510l-72 -494h660l-21 -145h-817zM453 1561l274 176l227 -178l-69 -76l-176 125l-211 -123z" />
<glyph unicode="&#xcb;" horiz-adv-x="1138" d="M84 0l203 1393h768l-21 -148h-612l-68 -463h510l-20 -143h-510l-72 -494h660l-21 -145h-817zM455 1522l22 159h148l-25 -159h-145zM801 1522l24 159h146l-23 -159h-147z" />
<glyph unicode="&#xcc;" horiz-adv-x="600" d="M119 0l200 1393h158l-203 -1393h-155zM229 1772l129 79l150 -301l-96 -59z" />
<glyph unicode="&#xcd;" horiz-adv-x="600" d="M119 0l200 1393h158l-203 -1393h-155zM340 1540l244 293l98 -74l-258 -270z" />
<glyph unicode="&#xce;" horiz-adv-x="600" d="M119 0l200 1393h158l-203 -1393h-155zM176 1561l275 176l227 -178l-70 -76l-176 125l-211 -123z" />
<glyph unicode="&#xcf;" horiz-adv-x="600" d="M119 0l200 1393h158l-203 -1393h-155zM174 1522l23 160h147l-24 -160h-146zM521 1522l24 160h146l-23 -160h-147z" />
<glyph unicode="&#xd0;" horiz-adv-x="1411" d="M68 637l18 133h215l92 635h438q107 0 200.5 -30.5t161 -85.5t100.5 -140t18 -186l-76 -519q-21 -149 -107 -250.5t-213 -147.5t-290 -46h-435l93 637h-215zM369 143h276q174 0 292 78t140 230l74 505q21 146 -75 225t-267 79h-277l-69 -490h315l-18 -133h-320z" />
<glyph unicode="&#xd1;" horiz-adv-x="1441" d="M76 0l203 1393h163l564 -1145l165 1145h150l-201 -1393h-162l-567 1147l-166 -1147h-149zM532 1565q47 65 92.5 97t100.5 32q45 0 127 -47t123 -48q50 5 92 68l74 -55q-90 -131 -180 -131q-44 0 -89 23.5t-87 47t-78 23.5q-56 0 -109 -72z" />
<glyph unicode="&#xd2;" horiz-adv-x="1353" d="M106 428l78 535q31 211 188 330.5t378 119.5h34q140 0 248.5 -54t163.5 -158t35 -238l-78 -535q-31 -218 -186.5 -333t-391.5 -115h-30q-143 0 -248.5 51t-158 153.5t-32.5 243.5zM266 436q-23 -155 57.5 -233t241.5 -78h33q157 0 267.5 81t131.5 230l76 518 q21 147 -65.5 229.5t-245.5 82.5h-33q-146 0 -256 -85t-131 -227zM592 1792l129 80l149 -301l-96 -60z" />
<glyph unicode="&#xd3;" horiz-adv-x="1353" d="M106 428l78 535q31 211 188 330.5t378 119.5h34q140 0 248.5 -54t163.5 -158t35 -238l-78 -535q-31 -218 -186.5 -333t-391.5 -115h-30q-143 0 -248.5 51t-158 153.5t-32.5 243.5zM266 436q-23 -155 57.5 -233t241.5 -78h33q157 0 267.5 81t131.5 230l76 518 q21 147 -65.5 229.5t-245.5 82.5h-33q-146 0 -256 -85t-131 -227zM705 1561l243 292l99 -73l-259 -271z" />
<glyph unicode="&#xd4;" horiz-adv-x="1353" d="M106 428l78 535q31 211 188 330.5t378 119.5h34q140 0 248.5 -54t163.5 -158t35 -238l-78 -535q-31 -218 -186.5 -333t-391.5 -115h-30q-143 0 -248.5 51t-158 153.5t-32.5 243.5zM266 436q-23 -155 57.5 -233t241.5 -78h33q157 0 267.5 81t131.5 230l76 518 q21 147 -65.5 229.5t-245.5 82.5h-33q-146 0 -256 -85t-131 -227zM537 1581l274 176l227 -178l-69 -76l-176 125l-211 -123z" />
<glyph unicode="&#xd5;" horiz-adv-x="1353" d="M106 428l78 535q31 211 188 330.5t378 119.5h34q140 0 248.5 -54t163.5 -158t35 -238l-78 -535q-31 -218 -186.5 -333t-391.5 -115h-30q-143 0 -248.5 51t-158 153.5t-32.5 243.5zM266 436q-23 -155 57.5 -233t241.5 -78h33q157 0 267.5 81t131.5 230l76 518 q21 147 -65.5 229.5t-245.5 82.5h-33q-146 0 -256 -85t-131 -227zM487 1585q47 65 92.5 97t100.5 32q45 0 127 -46.5t123 -47.5q50 5 92 68l74 -56q-90 -131 -181 -131q-44 0 -88.5 23.5t-86.5 47t-78 23.5q-56 0 -109 -71z" />
<glyph unicode="&#xd6;" horiz-adv-x="1353" d="M106 428l78 535q31 211 188 330.5t378 119.5h34q140 0 248.5 -54t163.5 -158t35 -238l-78 -535q-31 -218 -186.5 -333t-391.5 -115h-30q-143 0 -248.5 51t-158 153.5t-32.5 243.5zM266 436q-23 -155 57.5 -233t241.5 -78h33q157 0 267.5 81t131.5 230l76 518 q21 147 -65.5 229.5t-245.5 82.5h-33q-146 0 -256 -85t-131 -227zM535 1542l22 160h148l-25 -160h-145zM881 1542l24 160h146l-23 -160h-147z" />
<glyph unicode="&#xd7;" horiz-adv-x="1175" d="M12 0l465 516l-297 488h142l241 -390l361 390h141l-440 -488l315 -516h-149l-256 418l-375 -418h-148z" />
<glyph unicode="&#xd8;" horiz-adv-x="1294" d="M100 428l78 535q21 141 101.5 244t200 154.5t265.5 51.5h33q119 0 217 -39l107 185h108l-133 -228q87 -60 126.5 -154t21.5 -214l-76 -535q-33 -218 -188.5 -333t-389.5 -115h-32q-130 0 -220 34l-96 -166h-114l124 213q-81 57 -116 150t-17 217zM262 436 q-22 -145 55 -229l596 1030q-72 29 -155 29h-35q-146 0 -256 -85t-131 -227zM399 154q73 -29 160 -29h33q157 0 267.5 81t131.5 230l76 518q20 146 -72 232z" />
<glyph unicode="&#xd9;" horiz-adv-x="1421" d="M141 432l140 961h157l-139 -955q-12 -82 8 -143.5t65.5 -98t106 -54t135.5 -17.5q144 0 263.5 84.5t140.5 228.5l139 955h158l-139 -961q-16 -114 -68.5 -202t-131.5 -142t-175 -81t-207 -27q-104 0 -192 28t-153 82t-94.5 142.5t-13.5 199.5zM625 1772l129 79l149 -301 l-96 -59z" />
<glyph unicode="&#xda;" horiz-adv-x="1421" d="M141 432l140 961h157l-139 -955q-12 -82 8 -143.5t65.5 -98t106 -54t135.5 -17.5q144 0 263.5 84.5t140.5 228.5l139 955h158l-139 -961q-16 -114 -68.5 -202t-131.5 -142t-175 -81t-207 -27q-104 0 -192 28t-153 82t-94.5 142.5t-13.5 199.5zM739 1540l244 293l98 -74 l-258 -270z" />
<glyph unicode="&#xdb;" horiz-adv-x="1421" d="M141 432l140 961h157l-139 -955q-12 -82 8 -143.5t65.5 -98t106 -54t135.5 -17.5q144 0 263.5 84.5t140.5 228.5l139 955h158l-139 -961q-16 -114 -68.5 -202t-131.5 -142t-175 -81t-207 -27q-104 0 -192 28t-153 82t-94.5 142.5t-13.5 199.5zM569 1561l275 176l227 -178 l-70 -76l-176 125l-211 -123z" />
<glyph unicode="&#xdc;" horiz-adv-x="1421" d="M141 432l140 961h157l-139 -955q-12 -82 8 -143.5t65.5 -98t106 -54t135.5 -17.5q144 0 263.5 84.5t140.5 228.5l139 955h158l-139 -961q-16 -114 -68.5 -202t-131.5 -142t-175 -81t-207 -27q-104 0 -192 28t-153 82t-94.5 142.5t-13.5 199.5zM569 1522l23 160h147 l-24 -160h-146zM916 1522l24 160h146l-23 -160h-147z" />
<glyph unicode="&#xdd;" horiz-adv-x="1226" d="M182 1393h183l229 -682l432 682h184l-561 -848l-80 -545h-159l79 545zM641 1540l244 293l98 -74l-258 -270z" />
<glyph unicode="&#xde;" horiz-adv-x="1103" d="M10 0l203 1393h160l-41 -275h330q158 0 250.5 -104.5t70.5 -259.5l-6 -39q-23 -158 -136.5 -248t-285.5 -90h-330l-55 -377h-160zM246 522h321q98 0 169.5 55t82.5 138l6 39q13 90 -39 155.5t-155 65.5h-320z" />
<glyph unicode="&#xe0;" horiz-adv-x="1110" d="M57 276l33 232l680 104l16 115q13 96 -38 142t-164 46q-85 0 -185.5 -27t-162.5 -57l-33 123q80 43 197.5 76t217.5 33q168 0 259.5 -87.5t68.5 -246.5l-106 -729h-140l9 119q-118 -129 -336 -129q-162 0 -249 75.5t-67 210.5zM217 287q-12 -86 42 -126t163 -40 q65 0 130 21.5t114 64.5t57 98l27 191l-514 -82zM406 1473l129 79l149 -301l-96 -59z" />
<glyph unicode="&#xe1;" horiz-adv-x="1110" d="M57 276l33 232l680 104l16 115q13 96 -38 142t-164 46q-85 0 -185.5 -27t-162.5 -57l-33 123q80 43 197.5 76t217.5 33q168 0 259.5 -87.5t68.5 -246.5l-106 -729h-140l9 119q-118 -129 -336 -129q-162 0 -249 75.5t-67 210.5zM217 287q-12 -86 42 -126t163 -40 q65 0 130 21.5t114 64.5t57 98l27 191l-514 -82zM520 1239l244 293l98 -74l-258 -270z" />
<glyph unicode="&#xe2;" horiz-adv-x="1110" d="M57 276l33 232l680 104l16 115q13 96 -38 142t-164 46q-85 0 -185.5 -27t-162.5 -57l-33 123q80 43 197.5 76t217.5 33q168 0 259.5 -87.5t68.5 -246.5l-106 -729h-140l9 119q-118 -129 -336 -129q-162 0 -249 75.5t-67 210.5zM217 287q-12 -86 42 -126t163 -40 q65 0 130 21.5t114 64.5t57 98l27 191l-514 -82zM350 1260l275 176l227 -179l-70 -75l-176 125l-211 -123z" />
<glyph unicode="&#xe3;" horiz-adv-x="1110" d="M57 276l33 232l680 104l16 115q13 96 -38 142t-164 46q-85 0 -185.5 -27t-162.5 -57l-33 123q80 43 197.5 76t217.5 33q168 0 259.5 -87.5t68.5 -246.5l-106 -729h-140l9 119q-118 -129 -336 -129q-162 0 -249 75.5t-67 210.5zM217 287q-12 -86 42 -126t163 -40 q65 0 130 21.5t114 64.5t57 98l27 191l-514 -82zM301 1266q47 65 92.5 97t100.5 32q45 0 126.5 -47t122.5 -48q51 5 93 68l73 -55q-90 -131 -180 -131q-44 0 -89 23.5t-87 47t-78 23.5q-55 0 -108 -72z" />
<glyph unicode="&#xe4;" horiz-adv-x="1110" d="M57 276l33 232l680 104l16 115q13 96 -38 142t-164 46q-85 0 -185.5 -27t-162.5 -57l-33 123q80 43 197.5 76t217.5 33q168 0 259.5 -87.5t68.5 -246.5l-106 -729h-140l9 119q-118 -129 -336 -129q-162 0 -249 75.5t-67 210.5zM217 287q-12 -86 42 -126t163 -40 q65 0 130 21.5t114 64.5t57 98l27 191l-514 -82zM350 1221l23 159h147l-24 -159h-146zM696 1221l25 159h145l-22 -159h-148z" />
<glyph unicode="&#xe5;" horiz-adv-x="1110" d="M57 276l33 232l680 104l16 115q13 96 -38 142t-164 46q-85 0 -185.5 -27t-162.5 -57l-33 123q80 43 197.5 76t217.5 33q168 0 259.5 -87.5t68.5 -246.5l-106 -729h-140l9 119q-118 -129 -336 -129q-162 0 -249 75.5t-67 210.5zM217 287q-12 -86 42 -126t163 -40 q65 0 130 21.5t114 64.5t57 98l27 191l-514 -82zM457 1343q9 68 61.5 113t116.5 45q60 0 102 -46t33 -112q-9 -68 -62.5 -113.5t-119.5 -45.5q-61 0 -100.5 47t-30.5 112zM530 1339q-4 -35 16.5 -58.5t53.5 -23.5q32 0 61 24.5t33 57.5q5 35 -15 60.5t-54 25.5 q-31 0 -60 -25.5t-35 -60.5z" />
<glyph unicode="&#xe6;" horiz-adv-x="1759" d="M43 295l31 209l671 82l21 137q30 211 -205 211q-74 0 -178 -29.5t-166 -58.5l-24 119q74 44 186 77t213 33q109 0 186 -43t103 -117q63 74 164.5 118t218.5 44q111 0 195.5 -39.5t128.5 -120.5t28 -190l-23 -166l-692 -72l-20 -139q-16 -111 62.5 -166t219.5 -55 q92 0 185 29.5t141 60.5l49 -106q-83 -62 -190 -94.5t-211 -32.5q-138 0 -243 47t-144 141q-68 -99 -173 -143.5t-219 -44.5q-151 0 -243 84.5t-72 224.5zM197 297q-11 -87 48.5 -132.5t162.5 -45.5q66 0 128.5 19t112.5 63t58 106l24 168l-516 -61zM918 602l540 53l12 82 q14 101 -49.5 152t-179.5 51q-108 0 -200.5 -63.5t-104.5 -149.5z" />
<glyph unicode="&#xe7;" horiz-adv-x="983" d="M74 346l49 348q26 175 158 273t319 98q202 0 318 -129l-87 -113q-92 95 -239 95q-116 0 -205 -64t-106 -174l-48 -322q-16 -116 56.5 -175.5t189.5 -59.5q148 -3 271 82l47 -117q-132 -103 -344 -106l-35 -88q11 -5 20 -9.5t30.5 -21t35.5 -36t23 -52.5t3 -72 q-22 -154 -247 -217l-29 80q149 53 160 127q5 36 -7.5 63t-39 42t-42 21t-36.5 11l61 160q-145 23 -221.5 114t-54.5 242z" />
<glyph unicode="&#xe8;" horiz-adv-x="1093" d="M70 348l53 367q23 152 165.5 250t315.5 98q107 0 196 -43.5t137.5 -124.5t33.5 -180l-31 -219h-692l-21 -142q-16 -113 63 -170t208 -57q93 0 180 22.5t143 57.5l39 -113q-151 -106 -389 -106q-84 0 -160 23t-135.5 66.5t-89 113.5t-16.5 157zM266 618h541l12 95 q13 94 -56 153.5t-179 59.5q-105 0 -197.5 -62t-107.5 -151zM422 1472l129 80l149 -301l-96 -59z" />
<glyph unicode="&#xe9;" horiz-adv-x="1093" d="M70 348l53 367q23 152 165.5 250t315.5 98q107 0 196 -43.5t137.5 -124.5t33.5 -180l-31 -219h-692l-21 -142q-16 -113 63 -170t208 -57q93 0 180 22.5t143 57.5l39 -113q-151 -106 -389 -106q-84 0 -160 23t-135.5 66.5t-89 113.5t-16.5 157zM266 618h541l12 95 q13 94 -56 153.5t-179 59.5q-105 0 -197.5 -62t-107.5 -151zM536 1241l244 293l98 -74l-258 -270z" />
<glyph unicode="&#xea;" horiz-adv-x="1093" d="M70 348l53 367q23 152 165.5 250t315.5 98q107 0 196 -43.5t137.5 -124.5t33.5 -180l-31 -219h-692l-21 -142q-16 -113 63 -170t208 -57q93 0 180 22.5t143 57.5l39 -113q-151 -106 -389 -106q-84 0 -160 23t-135.5 66.5t-89 113.5t-16.5 157zM266 618h541l12 95 q13 94 -56 153.5t-179 59.5q-105 0 -197.5 -62t-107.5 -151zM367 1261l274 176l227 -178l-69 -76l-176 125l-211 -123z" />
<glyph unicode="&#xeb;" horiz-adv-x="1093" d="M70 348l53 367q23 152 165.5 250t315.5 98q107 0 196 -43.5t137.5 -124.5t33.5 -180l-31 -219h-692l-21 -142q-16 -113 63 -170t208 -57q93 0 180 22.5t143 57.5l39 -113q-151 -106 -389 -106q-84 0 -160 23t-135.5 66.5t-89 113.5t-16.5 157zM266 618h541l12 95 q13 94 -56 153.5t-179 59.5q-105 0 -197.5 -62t-107.5 -151zM365 1223l22 159h148l-25 -159h-145zM711 1223l24 159h146l-23 -159h-147z" />
<glyph unicode="&#xec;" horiz-adv-x="522" d="M74 0l151 1051h158l-152 -1051h-157zM139 1458l129 80l150 -301l-96 -59z" />
<glyph unicode="&#xed;" horiz-adv-x="522" d="M74 0l151 1051h158l-152 -1051h-157zM250 1227l244 293l98 -74l-258 -270z" />
<glyph unicode="&#xee;" horiz-adv-x="522" d="M74 0l151 1051h158l-152 -1051h-157zM84 1247l274 176l228 -178l-70 -76l-176 125l-211 -123z" />
<glyph unicode="&#xef;" horiz-adv-x="522" d="M74 0l151 1051h158l-152 -1051h-157zM81 1208l23 160h147l-24 -160h-146zM428 1208l24 160h146l-23 -160h-147z" />
<glyph unicode="&#xf0;" horiz-adv-x="1134" d="M61 342l41 291q23 159 149 260.5t300 101.5q85 0 164 -29t123 -89q-17 181 -158 342l-303 -132l-27 89l254 108q-105 102 -244 131l76 125q204 -58 338 -192l270 116l31 -86l-237 -104q194 -243 143 -606l-49 -326q-23 -160 -166 -261t-330 -101q-113 0 -203.5 45.5 t-138.5 129.5t-33 187zM221 356q-15 -103 54 -167t182 -64q109 0 207.5 67.5t111.5 161.5l37 262q15 102 -60 167t-192 65q-108 0 -198 -67t-103 -163z" />
<glyph unicode="&#xf1;" horiz-adv-x="1218" d="M66 0l151 1044h135l-18 -194q163 213 399 213q168 0 253 -95.5t61 -265.5l-103 -702h-158l99 688q17 114 -37 173t-170 59q-71 0 -150 -34.5t-139 -96.5t-70 -130l-96 -659h-157zM379 1268q47 65 92 97t100 32q45 0 127 -46.5t123 -47.5q51 5 92 67l74 -55 q-90 -131 -180 -131q-44 0 -89 23.5t-87 47t-78 23.5q-56 0 -109 -72z" />
<glyph unicode="&#xf2;" horiz-adv-x="1136" d="M70 350l51 348q16 113 89 197t178 126t226 42q177 0 292 -101.5t93 -263.5l-51 -348q-17 -114 -91.5 -199t-178 -126t-219.5 -41q-83 0 -158.5 25.5t-131 71.5t-83.5 116.5t-16 152.5zM227 358q-14 -109 60.5 -170t191.5 -61q68 0 135 26.5t117 81t60 123.5l47 332 q16 105 -57.5 166.5t-186.5 61.5q-109 0 -206.5 -64t-111.5 -164zM436 1473l129 79l150 -301l-97 -59z" />
<glyph unicode="&#xf3;" horiz-adv-x="1136" d="M70 350l51 348q16 113 89 197t178 126t226 42q177 0 292 -101.5t93 -263.5l-51 -348q-17 -114 -91.5 -199t-178 -126t-219.5 -41q-83 0 -158.5 25.5t-131 71.5t-83.5 116.5t-16 152.5zM227 358q-14 -109 60.5 -170t191.5 -61q68 0 135 26.5t117 81t60 123.5l47 332 q16 105 -57.5 166.5t-186.5 61.5q-109 0 -206.5 -64t-111.5 -164zM551 1241l244 293l98 -74l-258 -270z" />
<glyph unicode="&#xf4;" horiz-adv-x="1136" d="M70 350l51 348q16 113 89 197t178 126t226 42q177 0 292 -101.5t93 -263.5l-51 -348q-17 -114 -91.5 -199t-178 -126t-219.5 -41q-83 0 -158.5 25.5t-131 71.5t-83.5 116.5t-16 152.5zM227 358q-14 -109 60.5 -170t191.5 -61q68 0 135 26.5t117 81t60 123.5l47 332 q16 105 -57.5 166.5t-186.5 61.5q-109 0 -206.5 -64t-111.5 -164zM381 1262l274 176l228 -178l-70 -76l-176 125l-211 -123z" />
<glyph unicode="&#xf5;" horiz-adv-x="1136" d="M70 350l51 348q16 113 89 197t178 126t226 42q177 0 292 -101.5t93 -263.5l-51 -348q-17 -114 -91.5 -199t-178 -126t-219.5 -41q-83 0 -158.5 25.5t-131 71.5t-83.5 116.5t-16 152.5zM227 358q-14 -109 60.5 -170t191.5 -61q68 0 135 26.5t117 81t60 123.5l47 332 q16 105 -57.5 166.5t-186.5 61.5q-109 0 -206.5 -64t-111.5 -164zM332 1268q47 65 92 97t100 32q45 0 127 -46.5t123 -47.5q51 5 92 67l74 -55q-90 -131 -180 -131q-44 0 -89 23.5t-87 47t-78 23.5q-56 0 -109 -72z" />
<glyph unicode="&#xf6;" horiz-adv-x="1136" d="M70 350l51 348q16 113 89 197t178 126t226 42q177 0 292 -101.5t93 -263.5l-51 -348q-17 -114 -91.5 -199t-178 -126t-219.5 -41q-83 0 -158.5 25.5t-131 71.5t-83.5 116.5t-16 152.5zM227 358q-14 -109 60.5 -170t191.5 -61q68 0 135 26.5t117 81t60 123.5l47 332 q16 105 -57.5 166.5t-186.5 61.5q-109 0 -206.5 -64t-111.5 -164zM380 1223l23 160h147l-24 -160h-146zM727 1223l24 160h146l-23 -160h-147z" />
<glyph unicode="&#xf7;" horiz-adv-x="1404" d="M90 522l16 113h1149l-16 -113h-1149zM508 156l29 198h198l-28 -198h-199zM602 797l29 198h198l-28 -198h-199z" />
<glyph unicode="&#xf8;" horiz-adv-x="1122" d="M20 -119l152 209q-108 100 -84 260l49 348q17 113 90.5 197t178.5 126t227 42q120 0 207 -43l102 141h102l-133 -184q61 -49 89.5 -121t15.5 -158l-49 -348q-17 -115 -92 -199.5t-179 -125.5t-221 -41q-139 0 -235 57l-115 -160h-105zM246 358q-11 -75 24 -129l475 660 q-63 29 -135 29q-108 0 -204.5 -64t-110.5 -164zM332 170q72 -43 164 -43q107 0 202 64t111 167l47 332q14 86 -43 150z" />
<glyph unicode="&#xf9;" horiz-adv-x="1204" d="M113 346l102 698h156l-101 -690q-17 -113 50.5 -171t193.5 -58q118 0 207.5 61.5t103.5 167.5l101 690h157l-102 -698q-17 -118 -87 -202t-172.5 -124t-227.5 -40q-185 0 -295 98.5t-86 267.5zM473 1452l129 80l150 -301l-97 -60z" />
<glyph unicode="&#xfa;" horiz-adv-x="1204" d="M113 346l102 698h156l-101 -690q-17 -113 50.5 -171t193.5 -58q118 0 207.5 61.5t103.5 167.5l101 690h157l-102 -698q-17 -118 -87 -202t-172.5 -124t-227.5 -40q-185 0 -295 98.5t-86 267.5zM588 1221l244 293l98 -74l-258 -270z" />
<glyph unicode="&#xfb;" horiz-adv-x="1204" d="M113 346l102 698h156l-101 -690q-17 -113 50.5 -171t193.5 -58q118 0 207.5 61.5t103.5 167.5l101 690h157l-102 -698q-17 -118 -87 -202t-172.5 -124t-227.5 -40q-185 0 -295 98.5t-86 267.5zM418 1243l274 176l228 -178l-70 -76l-176 125l-211 -123z" />
<glyph unicode="&#xfc;" horiz-adv-x="1204" d="M113 346l102 698h156l-101 -690q-17 -113 50.5 -171t193.5 -58q118 0 207.5 61.5t103.5 167.5l101 690h157l-102 -698q-17 -118 -87 -202t-172.5 -124t-227.5 -40q-185 0 -295 98.5t-86 267.5zM415 1202l23 160h147l-24 -160h-146zM762 1202l24 160h146l-23 -160h-147z " />
<glyph unicode="&#xfd;" horiz-adv-x="1034" d="M-14 -438l4 131q88 0 167.5 53t127.5 154l32 65l-213 1079h170l156 -874l408 874h170l-568 -1159q-159 -323 -454 -323zM500 1227l244 293l98 -74l-258 -270z" />
<glyph unicode="&#xfe;" horiz-adv-x="1206" d="M-2 -475l274 1886h158l-74 -504q150 160 355 160q108 0 193 -46t127.5 -129.5t27.5 -186.5l-51 -359q-25 -163 -152.5 -264.5t-302.5 -101.5q-104 0 -186.5 40t-126.5 113l-88 -608h-154zM289 350q-15 -101 60.5 -167t193.5 -66q109 0 201 66.5t106 168.5l51 342 q15 107 -54 171.5t-185 64.5q-112 0 -211.5 -70t-112.5 -166z" />
<glyph unicode="&#xff;" horiz-adv-x="1050" d="M-6 -438l4 131q88 0 167.5 53t127.5 154l33 65l-213 1079h170l155 -874l408 874h170l-567 -1159q-159 -323 -455 -323zM342 1202l23 160h147l-25 -160h-145zM688 1202l25 160h145l-22 -160h-148z" />
<glyph unicode="&#x152;" horiz-adv-x="1863" d="M80 446l72 496q17 120 107.5 223.5t225.5 164.5t279 61h1016l-21 -146h-575l-66 -450h488l-21 -144h-485l-74 -506h623l-21 -145h-1065q-144 0 -261.5 59t-178.5 162.5t-43 224.5zM242 461q-18 -137 81.5 -226.5t260.5 -89.5h282l160 1100h-285q-88 0 -184 -43.5 t-166 -117.5t-82 -154z" />
<glyph unicode="&#x153;" horiz-adv-x="1814" d="M66 354l53 357q23 160 153.5 259t313.5 99q113 0 213.5 -52t136.5 -145q62 84 164 141.5t217 57.5q80 0 150.5 -21.5t124.5 -63t80.5 -110t13.5 -153.5l-23 -158l-696 -94l-19 -129q-10 -71 31 -121.5t106.5 -72t145.5 -21.5q77 0 171.5 24.5t147.5 59.5l52 -107 q-75 -54 -183.5 -82t-212.5 -28q-127 0 -228.5 48t-143.5 146q-63 -94 -172 -145t-230 -51q-174 0 -280.5 103t-85.5 259zM227 360q-15 -98 55.5 -161.5t186.5 -63.5q105 0 198.5 62.5t108.5 150.5l53 367q10 91 -63 152t-182 61q-110 0 -202.5 -65t-105.5 -158zM985 590 l533 72l8 59q13 90 -50 148.5t-165 58.5q-108 -2 -200 -64.5t-107 -148.5z" />
<glyph unicode="&#x178;" horiz-adv-x="1212" d="M182 1393h183l229 -682l432 682h184l-561 -848l-80 -545h-159l79 545zM469 1522l23 159h147l-25 -159h-145zM815 1522l25 159h145l-22 -159h-148z" />
<glyph unicode="&#x2c6;" horiz-adv-x="731" d="M193 1247l274 176l227 -178l-69 -76l-176 125l-211 -123z" />
<glyph unicode="&#x2dc;" horiz-adv-x="843" d="M201 1276q47 65 92 97t100 32q45 0 127 -46.5t123 -47.5q51 5 92 67l74 -55q-90 -131 -180 -131q-44 0 -89 23.5t-87 47t-78 23.5q-56 0 -109 -72z" />
<glyph unicode="&#x2000;" horiz-adv-x="936" />
<glyph unicode="&#x2001;" horiz-adv-x="1872" />
<glyph unicode="&#x2002;" horiz-adv-x="936" />
<glyph unicode="&#x2003;" horiz-adv-x="1872" />
<glyph unicode="&#x2004;" horiz-adv-x="624" />
<glyph unicode="&#x2005;" horiz-adv-x="468" />
<glyph unicode="&#x2006;" horiz-adv-x="312" />
<glyph unicode="&#x2007;" horiz-adv-x="312" />
<glyph unicode="&#x2008;" horiz-adv-x="234" />
<glyph unicode="&#x2009;" horiz-adv-x="374" />
<glyph unicode="&#x200a;" horiz-adv-x="104" />
<glyph unicode="&#x2010;" horiz-adv-x="714" d="M82 512l20 139h492l-21 -139h-491z" />
<glyph unicode="&#x2011;" horiz-adv-x="714" d="M82 512l20 139h492l-21 -139h-491z" />
<glyph unicode="&#x2012;" horiz-adv-x="714" d="M82 512l20 139h492l-21 -139h-491z" />
<glyph unicode="&#x2013;" horiz-adv-x="1175" d="M0 539l16 116h1104l-18 -116h-1102z" />
<glyph unicode="&#x2015;" horiz-adv-x="1611" d="M2 539l16 116h1530l-16 -116h-1530z" />
<glyph unicode="&#x2018;" horiz-adv-x="270" d="M115 1032l8 58q21 136 60 222t100 142l67 -49q-64 -94 -84 -254l-18 -119h-133z" />
<glyph unicode="&#x2019;" horiz-adv-x="276" d="M74 1087q43 53 67 107t37 141l19 117h139l-6 -53q-12 -78 -30 -136.5t-44 -101t-46.5 -67t-55.5 -58.5z" />
<glyph unicode="&#x201a;" horiz-adv-x="466" d="M57 -203q43 53 67.5 107t37.5 141l18 117h139l-6 -53q-12 -78 -30 -136.5t-44 -101t-46.5 -67t-55.5 -58.5z" />
<glyph unicode="&#x201c;" horiz-adv-x="530" d="M115 1032l8 58q21 136 60 222t100 142l67 -49q-64 -94 -84 -254l-18 -119h-133zM371 1032l8 58q21 136 60 222t100 142l67 -49q-64 -94 -84 -254l-18 -119h-133z" />
<glyph unicode="&#x201d;" horiz-adv-x="555" d="M66 1040q43 53 67 107t37 141l18 117h140l-6 -53q-12 -78 -30 -136.5t-44.5 -101t-47 -67t-55.5 -58.5zM332 1040q43 53 67 107t37 141l19 117h139l-6 -53q-12 -78 -30 -136.5t-44 -101t-46.5 -67t-55.5 -58.5z" />
<glyph unicode="&#x201e;" horiz-adv-x="819" d="M57 -201q43 53 67.5 107t37.5 141l18 117h139l-6 -53q-12 -78 -30 -136.5t-44 -101t-46.5 -67t-55.5 -58.5zM379 -199q43 53 67 107t37 141l19 117h139l-6 -53q-12 -78 -30 -136.5t-44 -101t-46.5 -67t-55.5 -58.5z" />
<glyph unicode="&#x2022;" horiz-adv-x="702" d="M121 356l53 365h358l-53 -365h-358z" />
<glyph unicode="&#x2026;" horiz-adv-x="1523" d="M70 0l28 209h195l-29 -209h-194zM549 0l31 209h194l-31 -209h-194zM1028 0l31 209h196l-30 -209h-197z" />
<glyph unicode="&#x202f;" horiz-adv-x="374" />
<glyph unicode="&#x2039;" horiz-adv-x="608" d="M59 356l363 369l67 -72l-266 -293l183 -286l-89 -74z" />
<glyph unicode="&#x203a;" horiz-adv-x="608" d="M20 74l267 286l-183 293l89 72l256 -369l-363 -356z" />
<glyph unicode="&#x205f;" horiz-adv-x="468" />
<glyph unicode="&#x20ac;" horiz-adv-x="1353" d="M61 528l15 99h174l22 157h-174l15 99h174l10 78q21 139 104 243.5t203.5 156.5t259.5 52q279 0 414 -156l-94 -118q-114 127 -334 127q-144 0 -259 -86t-136 -226l-11 -71h578l-14 -99h-578l-22 -157h575l-12 -99h-578l-12 -90q-24 -158 60 -235.5t247 -77.5 q225 0 367 102l53 -116q-93 -70 -201.5 -100.5t-249.5 -30.5q-140 0 -244.5 50t-158.5 153.5t-33 246.5l15 98h-175z" />
<glyph unicode="&#x2122;" horiz-adv-x="1142" d="M188 1348l13 86h368l-12 -86h-139l-51 -349h-88l51 349h-142zM590 1004l61 430h90l88 -205l150 205h90l-61 -430h-88l41 282l-130 -174h-40l-72 178l-41 -286h-88z" />
<glyph unicode="&#x25fc;" horiz-adv-x="1044" d="M0 0v1044h1044v-1044h-1044z" />
<glyph unicode="&#xfb03;" horiz-adv-x="1871" d="M111 0l133 926h-133l16 121h135l19 127q15 101 80 170.5t157.5 101t206.5 31.5q191 0 377 -58l-4 -4q115 62 270 62q189 0 375 -58l-45 -121q-79 14 -112.5 19.5t-96 11.5t-121.5 6q-124 0 -202 -46.5t-91 -137.5l-14 -104h246l-17 -121h-248l-133 -926h-157l135 926 h-135l16 121h135l19 127q12 81 55 139q-147 22 -250 22q-124 0 -202 -46.5t-91 -137.5l-14 -104h246l-19 -121h-246l-133 -926h-157zM1393 0l151 1051h160l-154 -1051h-157z" />
<glyph unicode="&#xfb04;" horiz-adv-x="1933" d="M125 926l18 121h136l18 127q15 101 80 170.5t157.5 101t206.5 31.5q189 0 375 -58v-2q117 60 266 60q189 0 375 -58l-4 -6h51l-207 -1413h-157l190 1313q-147 22 -248 22q-124 0 -201.5 -46.5t-90.5 -137.5l-15 -104h246l-18 -121h-246l-133 -926h-158l135 926h-135 l16 121h136l18 127q11 79 53 139q-139 22 -246 22q-125 0 -202 -46.5t-90 -137.5l-17 -104h248l-18 -121h-246l-135 -926h-156l133 926h-135z" />
</font>
</defs>
</svg>
