<?xml version="1.0" standalone="no"?>
<!DOCTYPE svg PUBLIC "-//W3C//DTD SVG 1.1//EN" "http://www.w3.org/Graphics/SVG/1.1/DTD/svg11.dtd" >
<svg xmlns="http://www.w3.org/2000/svg">
<metadata></metadata>
<defs>
<font id="pill_gothic_600mg_rgregular" horiz-adv-x="1298" >
<font-face units-per-em="2048" ascent="1638" descent="-410" />
<missing-glyph horiz-adv-x="446" />
<glyph unicode="&#xdf;" horiz-adv-x="1345" d="M88 913v131h119v166q0 134 103 220t251 86q110 0 217 -39l-39 -127q-80 22 -155 22q-106 0 -164 -48t-58 -140v-140h820v-124l-293 -308h82q72 -3 126 -26t83 -59t43 -75.5t14 -82.5v-136q0 -104 -91.5 -175.5t-232.5 -71.5q-112 0 -196.5 37t-124.5 102l86 86 q26 -43 85 -69.5t130 -26.5q82 0 134 34t52 93v116q0 61 -43.5 97.5t-126.5 36.5h-200v116l290 303h-632v-911h-160v913h-119z" />
<glyph unicode="&#xfb01;" horiz-adv-x="1210" d="M92 926v121h139v127q0 146 116.5 224.5t297.5 78.5q193 0 395 -58l-28 -121q-84 14 -118.5 19.5t-99.5 11.5t-126 6q-133 0 -204 -46t-71 -138v-104h254v-121h-254v-926h-162v926h-139zM881 0v1051h163v-1051h-163z" />
<glyph unicode="&#xfb02;" horiz-adv-x="1210" d="M59 926v121h140v127q0 146 116 224.5t297 78.5q194 0 396 -58l-2 -6h18v-1413h-164v1317q-130 18 -225 18q-133 0 -204 -46t-71 -138v-104h254v-121h-254v-926h-161v926h-140z" />
<glyph horiz-adv-x="2048" />
<glyph horiz-adv-x="2048" />
<glyph horiz-adv-x="682" />
<glyph unicode="&#xd;" horiz-adv-x="446" />
<glyph unicode=" "  horiz-adv-x="446" />
<glyph unicode="&#x09;" horiz-adv-x="446" />
<glyph unicode="&#xa0;" horiz-adv-x="446" />
<glyph unicode="!" horiz-adv-x="534" d="M180 0v207h217v-207h-217zM201 1393h172l-11 -910h-151z" />
<glyph unicode="&#x22;" horiz-adv-x="628" d="M129 1399h121l-4 -453h-111zM379 1399h119l-4 -453h-109z" />
<glyph unicode="#" horiz-adv-x="1441" d="M113 315v113h317l74 401h-332l2 113h354l62 350h131l-64 -350h279l65 350h127l-61 -350h262l-2 -113h-285l-71 -401h295l-2 -113h-316l-53 -315h-131l53 315h-278l-58 -315h-127l54 315h-295zM561 428h281l71 401h-278z" />
<glyph unicode="$" horiz-adv-x="1191" d="M102 184l93 105q66 -77 175 -119.5t228 -42.5q138 0 225.5 57t87.5 166v150l-753 297v270q0 160 108.5 245.5t292.5 98.5v193h139v-195q224 -20 377 -156l-80 -123q-62 57 -159.5 96.5t-204.5 39.5q-135 0 -219 -49.5t-84 -155.5v-174l751 -293v-250 q0 -159 -104.5 -248.5t-280.5 -107.5v-242h-137v240q-143 6 -261.5 56t-193.5 142z" />
<glyph unicode="%" horiz-adv-x="1507" d="M135 999v197q0 94 80 155.5t193 61.5q110 0 189 -62.5t79 -154.5v-197q0 -95 -78 -157t-190 -62q-116 0 -194.5 60.5t-78.5 158.5zM242 0l866 1393h154l-863 -1393h-157zM264 1010q0 -49 41.5 -79t102.5 -30q57 0 99 32.5t42 76.5v176q0 46 -41 75t-100 29 q-58 0 -101 -30.5t-43 -75.5v-174zM840 190v211q0 94 77 154.5t189 60.5q110 0 188 -58.5t78 -151.5v-209q0 -95 -76 -155t-190 -60q-109 0 -187.5 59t-78.5 149zM963 385l2 -176q0 -45 41.5 -77t99.5 -32t100.5 32t42.5 77v176q0 49 -41 79t-102 30q-58 0 -100.5 -32 t-42.5 -77z" />
<glyph unicode="&#x26;" horiz-adv-x="1474" d="M106 328q0 32 7 62.5t24.5 61t33 54.5t48 56t52 51t63.5 53t64.5 49.5t70.5 52.5l14 10l-209 213v174q0 109 95.5 179.5t234.5 70.5q168 0 261 -73.5t93 -206.5q0 -56 -20 -107.5t-60 -98.5t-79 -82t-99 -81l-2 -2l340 -344l219 221l111 -98l-225 -228l250 -249l-113 -99 l-240 244q-220 -231 -495 -231q-207 0 -323 87.5t-116 260.5zM272 330q0 -92 62 -149.5t205 -57.5q109 0 203.5 50t193.5 144l-352 359l-19 -14q-15 -12 -50 -37.5t-50 -37.5t-44 -35t-42.5 -36t-34.5 -34t-31 -37t-21 -36t-15.5 -39.5t-4.5 -39.5zM424 1040l178 -180 q64 48 102.5 83t70.5 86t32 101q0 72 -51.5 110t-151.5 38q-84 0 -132 -36.5t-48 -92.5v-109z" />
<glyph unicode="'" horiz-adv-x="466" d="M166 1454h135l-12 -469h-113z" />
<glyph unicode="(" horiz-adv-x="698" d="M182 199v700q0 220 82 393.5t223 257.5l76 -82q-108 -67 -171.5 -215t-63.5 -354v-700q0 -210 63 -351.5t172 -209.5l-76 -87q-141 84 -223 257t-82 391z" />
<glyph unicode=")" horiz-adv-x="712" d="M129 -367q107 70 170 221t63 361v672q0 207 -61 357.5t-166 217.5l68 88q140 -83 222.5 -262.5t82.5 -400.5v-672q0 -218 -82.5 -397t-222.5 -262z" />
<glyph unicode="*" horiz-adv-x="806" d="M111 1192l28 92l213 -65v217h103v-219l211 67l28 -92l-209 -68l131 -176l-81 -59l-132 178l-133 -178l-80 59l132 176z" />
<glyph unicode="+" horiz-adv-x="1183" d="M74 725v125h448v420h135v-420h451v-125h-451v-459h-135v459h-448z" />
<glyph unicode="," horiz-adv-x="403" d="M55 -203q37 54 54.5 107.5t17.5 140.5v117h145v-53q0 -141 -32.5 -218.5t-94.5 -144.5z" />
<glyph unicode="-" horiz-adv-x="714" d="M102 512v139h508v-139h-508z" />
<glyph unicode="." horiz-adv-x="501" d="M145 0v205h209v-205h-209z" />
<glyph unicode="/" horiz-adv-x="800" d="M51 -174l553 1567h154l-557 -1567h-150z" />
<glyph unicode="0" horiz-adv-x="1300" d="M143 412v563q0 135 69.5 236t183 151.5t253.5 50.5q141 0 254.5 -50.5t182.5 -151.5t69 -236v-563q0 -136 -69 -235.5t-182 -148t-255 -48.5t-255 49t-182 148.5t-69 234.5zM307 416q0 -141 97 -216t245 -75q150 0 247 74.5t97 216.5v555q0 95 -47.5 163t-124 100 t-172.5 32q-150 0 -246 -76.5t-96 -218.5v-555z" />
<glyph unicode="1" horiz-adv-x="755" d="M63 1245v148h472v-1393h-162v1245h-310z" />
<glyph unicode="2" horiz-adv-x="1130" d="M119 1208q91 86 212.5 136.5t256.5 50.5q115 0 208 -36t152.5 -116.5t59.5 -193.5q0 -63 -20.5 -119t-51.5 -98.5t-84 -86t-100.5 -74t-118.5 -71.5q-182 -96 -260 -199t-82 -258h739v-143h-907v76q0 220 94 365t318 268q54 30 86 49t73 46.5t64 50.5t45 52t31.5 61.5 t9.5 69.5q0 103 -74.5 157t-198.5 54q-102 0 -201.5 -44.5t-168.5 -108.5z" />
<glyph unicode="3" horiz-adv-x="1198" d="M106 287l144 39q11 -93 108.5 -146t225.5 -53q78 0 146.5 20t117.5 67.5t49 115.5v110q0 68 -44.5 118t-109.5 72.5t-141 22.5h-192v135h188q70 0 133 20.5t107.5 67t44.5 109.5v76q0 106 -83 156.5t-216 50.5q-109 0 -203.5 -53.5t-104.5 -143.5l-139 39q11 89 79 159.5 t168 107t210 36.5q129 0 229 -35.5t162 -114t62 -190.5v-76q0 -99 -68.5 -174t-169.5 -106q108 -31 180 -102.5t72 -180.5v-115q0 -82 -40.5 -147.5t-108 -105.5t-149.5 -61t-171 -21q-195 0 -332 82.5t-154 220.5z" />
<glyph unicode="4" horiz-adv-x="1189" d="M55 324v133l658 936h194v-924h236v-145h-236v-324h-162v324h-690zM233 469h512v698h-18z" />
<glyph unicode="5" horiz-adv-x="1191" d="M139 330l154 28q4 -106 93.5 -169.5t223.5 -63.5q117 0 205 60t88 163v137q0 104 -75 163t-201 59h-420l67 686h717v-148h-575l-39 -399h268q187 0 303.5 -95.5t116.5 -263.5v-143q0 -83 -38.5 -153t-102 -115.5t-144 -70.5t-166.5 -25q-199 0 -331 93t-144 257z" />
<glyph unicode="6" horiz-adv-x="1187" d="M131 360v674q0 170 134 274.5t341 104.5q237 0 391 -129l-73 -119q-61 49 -143 76t-169 27q-140 0 -229.5 -63.5t-89.5 -170.5v-295q58 70 149.5 109t192.5 39q118 0 214.5 -38t158 -120.5t61.5 -196.5v-178q0 -90 -40 -163t-106.5 -118t-150 -69t-174.5 -24t-173.5 24 t-149 70t-105.5 120t-39 166zM293 367q0 -82 46 -139t113 -81t146 -24q58 0 111.5 14.5t98.5 42.5t72 76.5t27 110.5v155q0 114 -89.5 174t-217.5 60q-79 0 -148.5 -27t-114 -81.5t-44.5 -125.5v-155z" />
<glyph unicode="7" horiz-adv-x="962" d="M20 1239v154h895v-103l-448 -1290h-180l444 1239h-711z" />
<glyph unicode="8" horiz-adv-x="1247" d="M147 328v102q0 102 70.5 178.5t177.5 114.5q-98 36 -158.5 113.5t-60.5 173.5v65q0 107 65 185.5t165 115.5t219 37q117 0 216.5 -37t164.5 -115.5t65 -185.5v-71q0 -90 -64 -167.5t-155 -113.5q106 -40 177 -114t71 -179v-102q0 -87 -40 -155.5t-108 -109.5t-151 -62 t-176 -21q-95 0 -179 21t-152 62t-107.5 109t-39.5 156zM311 336q0 -57 27 -99.5t73.5 -66t100 -34.5t113.5 -11q58 0 110.5 11t99 34.5t74 65.5t27.5 98v110q0 94 -91 152.5t-202 58.5h-37q-74 -2 -139.5 -25.5t-110.5 -72.5t-45 -113v-108zM338 991q0 -90 80 -145t188 -60 h37q69 3 128 26t98.5 69.5t39.5 109.5v70q0 69 -43 117.5t-105.5 69t-135.5 20.5q-117 0 -202 -53.5t-85 -153.5v-70z" />
<glyph unicode="9" horiz-adv-x="1200" d="M131 838v213q0 107 67.5 191.5t173.5 127.5t228 43q120 0 226 -42.5t174.5 -127t68.5 -192.5v-709q0 -116 -69 -200t-173.5 -123t-226.5 -39q-115 0 -229 35.5t-187 99.5l64 114q161 -104 352 -104q85 0 155 23t117.5 78t47.5 134v254q-61 -68 -151 -103.5t-187 -35.5 q-91 0 -171.5 23t-143.5 67t-99.5 114.5t-36.5 158.5zM293 842q0 -76 46.5 -129.5t114.5 -76t148 -22.5q77 0 145 25.5t113 79t45 123.5v198q0 102 -92.5 164t-212.5 62q-122 0 -214.5 -61.5t-92.5 -164.5v-198z" />
<glyph unicode=":" horiz-adv-x="577" d="M195 0v227h202v-227h-202zM195 840v225h202v-225h-202z" />
<glyph unicode=";" horiz-adv-x="626" d="M209 -203q37 54 54.5 107.5t17.5 140.5v117h145v-53q0 -141 -32.5 -218.5t-94.5 -144.5zM250 831v234h194v-234h-194z" />
<glyph unicode="&#x3c;" horiz-adv-x="1265" d="M125 500l930 547l57 -107l-743 -436l780 -414l-59 -106z" />
<glyph unicode="=" horiz-adv-x="1292" d="M113 406v126h1065v-126h-1065zM113 848v125h1065v-125h-1065z" />
<glyph unicode="&#x3e;" horiz-adv-x="1226" d="M127 86l735 422l-712 428l69 106l893 -530l-919 -535z" />
<glyph unicode="?" horiz-adv-x="919" d="M61 1276q75 61 172 99t203 38q185 0 286 -74.5t101 -222.5v-86q0 -22 -5.5 -43.5t-11.5 -38t-22 -37t-24.5 -31t-32 -31.5t-31 -27.5t-36 -29t-33.5 -26.5q-82 -58 -120 -108.5t-38 -125.5v-118h-162v145q0 79 45.5 141.5t128.5 118.5q8 6 35 26t37 28.5t31 26.5 t30.5 29.5t21.5 28.5t16.5 33t4.5 33v76q0 87 -66 126.5t-169 39.5q-81 0 -161 -30.5t-136 -76.5zM279 0v207h229v-207h-229z" />
<glyph unicode="@" horiz-adv-x="1671" d="M113 528q0 122 22 279q18 128 77.5 240t151 196.5t218.5 133t272 48.5q200 0 359.5 -73.5t249 -205.5t89.5 -298q0 -246 -78.5 -376t-254.5 -130q-69 0 -127.5 30.5t-81.5 88.5q-52 -66 -133 -107t-172 -41q-127 0 -189.5 59.5t-62.5 151.5q0 33 15.5 126t35.5 165 q32 128 143 214.5t244 86.5q123 0 192.5 -54.5t69.5 -148.5q0 -14 -3 -35t-6 -38.5t-9 -47.5t-9 -47q-26 -123 -26 -176q0 -52 34 -89.5t85 -37.5q115 0 170 99.5t55 310.5q0 209 -165 342t-425 133q-247 0 -415 -151t-195 -375q-25 -200 -25 -269q0 -127 79.5 -230 t224.5 -162.5t327 -59.5q169 0 328 84l51 -88q-167 -94 -379 -94q-214 0 -383 71t-261.5 195.5t-92.5 279.5zM575 559q0 -68 38.5 -103.5t109.5 -35.5q99 0 175 59.5t91 149.5q2 7 14 60.5t16 75t9.5 60t5.5 66.5q0 63 -38 92t-115 29q-97 0 -175 -73t-96 -171 q-7 -34 -16 -84t-14 -85.5t-5 -39.5z" />
<glyph unicode="A" d="M61 0l506 1409h174l494 -1409h-176l-141 420h-533l-145 -420h-179zM424 559h455l-226 645z" />
<glyph unicode="B" horiz-adv-x="1271" d="M182 0v1393h500q184 0 297 -91.5t113 -257.5v-53q0 -90 -57.5 -164t-147.5 -102q117 -38 185.5 -117.5t68.5 -193.5v-78q0 -164 -112.5 -250t-299.5 -86h-547zM346 137h365q118 0 193 51.5t75 159.5v76q0 108 -81 166.5t-208 58.5h-344v-512zM346 780h336q111 0 180.5 54 t69.5 151v53q0 215 -273 215h-313v-473z" />
<glyph unicode="C" horiz-adv-x="1181" d="M135 430v531q0 202 148.5 327t367.5 125q287 0 451 -156l-80 -118q-137 127 -363 127q-155 0 -257.5 -85.5t-102.5 -226.5v-516q0 -153 99.5 -233t265.5 -80q229 0 362 102l72 -116q-86 -70 -193 -100.5t-252 -30.5q-232 0 -375 117.5t-143 332.5z" />
<glyph unicode="D" horiz-adv-x="1341" d="M182 0v1393h465q113 0 210 -30.5t170.5 -87.5t116 -147t42.5 -202v-465q0 -114 -43.5 -203.5t-119 -145t-173.5 -84t-211 -28.5h-457zM344 145h295q80 0 148 19t122 57.5t84.5 102.5t30.5 147v447q0 103 -54 179t-138 112t-185 36h-303v-1100z" />
<glyph unicode="E" horiz-adv-x="1134" d="M182 0v1393h793v-148h-631v-463h524v-143h-524v-494h680v-145h-842z" />
<glyph unicode="F" horiz-adv-x="1034" d="M182 0v1393h789v-148h-627v-450h522v-144h-520v-651h-164z" />
<glyph unicode="G" horiz-adv-x="1316" d="M135 428v537q0 137 73 240.5t193.5 155.5t268.5 52q144 0 261.5 -39t198.5 -104l-67 -123q-161 119 -389 119q-158 0 -266.5 -84t-108.5 -226v-520q0 -137 106 -224t263 -87q201 0 342 88v381h-338v139h499v-598q-101 -72 -219 -113.5t-284 -41.5q-149 0 -270 55.5 t-192 158.5t-71 234z" />
<glyph unicode="H" horiz-adv-x="1447" d="M182 0v1393h162v-645h756v645h162v-1393h-162v602h-756v-602h-162z" />
<glyph unicode="I" horiz-adv-x="600" d="M217 0v1393h162v-1393h-162z" />
<glyph unicode="J" horiz-adv-x="1124" d="M51 315l160 29q1 -93 84.5 -156t200.5 -63q127 0 204.5 60.5t77.5 172.5v1035h164v-1039q0 -177 -119.5 -274.5t-322.5 -97.5q-189 0 -314.5 90t-134.5 243z" />
<glyph unicode="K" horiz-adv-x="1286" d="M182 0v1393h162v-697l629 697h207l-611 -656l682 -737h-215l-575 625l-117 -121v-504h-162z" />
<glyph unicode="L" horiz-adv-x="1089" d="M182 0v1393h162v-1248h719v-145h-881z" />
<glyph unicode="M" horiz-adv-x="1701" d="M182 0v1393h180l488 -836l487 836h181v-1393h-164v1143l-457 -791h-96l-457 787v-1139h-162z" />
<glyph unicode="N" horiz-adv-x="1441" d="M182 0v1393h170l752 -1145v1145h153v-1393h-165l-756 1147v-1147h-154z" />
<glyph unicode="O" horiz-adv-x="1355" d="M141 428v535q0 206 144.5 328t371.5 122h35q232 0 380.5 -123t148.5 -327v-535q0 -211 -144.5 -329.5t-384.5 -118.5h-33q-235 0 -376.5 117.5t-141.5 330.5zM305 436q0 -151 95 -231t259 -80h33q169 0 268 80.5t99 230.5v518q0 144 -102 228t-265 84h-35 q-156 0 -254 -84t-98 -228v-518z" />
<glyph unicode="P" horiz-adv-x="1245" d="M182 0v1393h514q212 0 332.5 -103.5t120.5 -283.5v-113q0 -175 -119.5 -266.5t-329.5 -91.5h-356v-535h-162zM344 674h346q295 0 295 233v86q0 116 -78 184t-217 68h-346v-571z" />
<glyph unicode="Q" horiz-adv-x="1355" d="M141 428v535q0 206 144.5 328t371.5 122h35q232 0 380.5 -123t148.5 -327v-535q0 -202 -138 -324l144 -161l-94 -74l-150 170q-124 -59 -291 -59h-33q-235 0 -376.5 117.5t-141.5 330.5zM305 436q0 -151 95 -231t259 -80h33q111 0 187 33l-140 157l92 74l148 -166 q80 80 80 213v518q0 144 -102 228t-265 84h-35q-156 0 -254 -84t-98 -228v-518z" />
<glyph unicode="R" horiz-adv-x="1241" d="M184 0v1393h541q194 0 305 -96.5t111 -266.5v-78q0 -133 -75.5 -216.5t-209.5 -112.5l324 -623h-179l-299 588h-356v-588h-162zM346 725h383q108 5 178 60.5t70 156.5v84q0 99 -71 159t-193 60h-367v-520z" />
<glyph unicode="S" horiz-adv-x="1193" d="M111 211l94 102q68 -92 176.5 -139t234.5 -47q137 0 219.5 59t82.5 166q0 111 -71.5 169t-260.5 114q-215 65 -323.5 158t-108.5 252q0 177 126 271q128 95 330 95q283 0 463 -186l-88 -109q-150 150 -373 150q-133 0 -216 -57.5t-83 -161.5q0 -107 81 -166.5t270 -116.5 q215 -64 314 -156.5t99 -254.5q0 -173 -126 -271q-127 -98 -333 -98q-157 0 -292 58.5t-215 168.5z" />
<glyph unicode="T" horiz-adv-x="1177" d="M39 1245v148h1100v-148h-473v-1245h-164v1245h-463z" />
<glyph unicode="U" horiz-adv-x="1421" d="M176 432v961h162v-955q0 -103 52.5 -175.5t135 -105t185.5 -32.5q154 0 261 83.5t107 229.5v955h164v-961q0 -110 -41 -197t-113.5 -142t-168.5 -84t-209 -29t-209 28t-169.5 82.5t-115 142t-41.5 199.5z" />
<glyph unicode="V" horiz-adv-x="1212" d="M53 1393h178l369 -1176l381 1176h176l-473 -1393h-168z" />
<glyph unicode="W" horiz-adv-x="1826" d="M88 1393h170l248 -1178l332 1178h149l332 -1180l248 1180h170l-316 -1393h-188l-322 1147l-325 -1147h-189z" />
<glyph unicode="X" horiz-adv-x="1185" d="M68 0l430 698l-402 695h187l317 -566l328 566h188l-418 -695l418 -698h-190l-326 569l-340 -569h-192z" />
<glyph unicode="Y" horiz-adv-x="1210" d="M74 1393h188l340 -682l342 682h191l-453 -848v-545h-164v545z" />
<glyph unicode="Z" horiz-adv-x="1181" d="M106 0v100l744 1145h-719v148h926v-103l-740 -1145h756v-145h-967z" />
<glyph unicode="[" horiz-adv-x="575" d="M178 -336v1729h305v-123h-155v-1485h147v-121h-297z" />
<glyph unicode="\" horiz-adv-x="858" d="M74 1393h151l578 -1393h-152z" />
<glyph unicode="]" horiz-adv-x="571" d="M111 1264v129h301v-1717h-299v123h149v1465h-151z" />
<glyph unicode="^" horiz-adv-x="849" d="M111 897l319 518l307 -518l-110 -27l-199 334l-203 -334z" />
<glyph unicode="_" horiz-adv-x="1118" d="M111 -55h895v-117h-895v117z" />
<glyph unicode="`" horiz-adv-x="524" d="M98 1378l121 80l199 -301l-90 -59z" />
<glyph unicode="a" horiz-adv-x="1103" d="M113 276v232l684 104v115q0 188 -238 188q-90 0 -187.5 -26.5t-158.5 -57.5l-51 123q75 42 191.5 75.5t219.5 33.5q181 0 284.5 -86.5t103.5 -247.5v-729h-144l-10 119q-56 -70 -136.5 -99.5t-189.5 -29.5q-173 0 -270.5 74.5t-97.5 211.5zM276 287q0 -83 62.5 -124.5 t173.5 -41.5q110 0 196.5 51t86.5 133v191l-519 -82v-127z" />
<glyph unicode="b" horiz-adv-x="1175" d="M154 0v1413h161v-500q53 75 143 113.5t193 38.5q187 0 296.5 -101.5t109.5 -275.5v-330q0 -177 -108.5 -276.5t-297.5 -99.5q-104 0 -194.5 38t-143.5 117l-18 -137h-141zM313 340q0 -106 88 -163.5t213 -57.5q128 0 204.5 61.5t76.5 177.5v330q0 108 -78 173t-199 65 q-129 0 -217 -57.5t-88 -166.5v-362z" />
<glyph unicode="c" horiz-adv-x="972" d="M115 346v348q0 170 122.5 270.5t313.5 100.5q208 0 346 -129l-72 -113q-112 95 -262 95q-124 0 -204 -63.5t-80 -174.5v-322q0 -112 84.5 -173.5t203.5 -61.5h10q146 0 257 82l65 -117q-128 -106 -344 -106q-191 0 -315.5 94.5t-124.5 269.5z" />
<glyph unicode="d" horiz-adv-x="1175" d="M119 358v330q0 174 109.5 275.5t295.5 101.5q103 0 193 -38.5t143 -113.5v500h162v-1413h-143l-19 137q-51 -79 -141.5 -117t-194.5 -38q-189 0 -297 99.5t-108 276.5zM281 358q0 -116 76 -177.5t204 -61.5q125 0 212 57.5t87 163.5v362q0 109 -87 166.5t-216 57.5 q-121 0 -198.5 -65t-77.5 -173v-330z" />
<glyph unicode="e" horiz-adv-x="1093" d="M115 348v367q0 98 63.5 179t164.5 125t216 44q178 0 304 -98.5t126 -249.5v-219h-713v-142q0 -74 45 -126.5t114.5 -76.5t154.5 -24q200 0 321 80l58 -113q-141 -106 -387 -106q-91 0 -173.5 23t-149 66.5t-105.5 113.5t-39 157zM276 618h558v95q0 92 -81 152.5 t-194 60.5q-112 0 -197 -61.5t-86 -151.5v-95z" />
<glyph unicode="f" horiz-adv-x="645" d="M55 924v120h138v127q0 139 95 215t240 76q132 0 230 -39l-29 -125q-90 23 -176 23q-91 0 -145 -41.5t-54 -120.5v-115h252v-120h-252v-924h-161v924h-138z" />
<glyph unicode="g" horiz-adv-x="1159" d="M102 -190q0 88 52.5 146.5t142.5 84.5q-58 28 -88.5 67t-30.5 99q0 50 34 98.5t87 71.5q-149 90 -149 272v68q0 111 59 190.5t154.5 117.5t216.5 38q139 0 237 -49l260 80l41 -115l-184 -51q76 -89 76 -207v-78q0 -110 -57.5 -187t-150 -112t-210.5 -35q-105 0 -184 23 q-33 -14 -54.5 -41.5t-21.5 -61.5q0 -47 40 -75.5t99 -38.5l580 -90v-203q0 -71 -35.5 -126.5t-95.5 -88.5t-133 -49.5t-154 -16.5h-113q-86 0 -159 15t-132.5 46t-93 84t-33.5 124zM260 -176q0 -54 40.5 -89.5t96.5 -48t127 -12.5h111q236 0 252 154v96l-430 64 q-83 -7 -140 -46.5t-57 -117.5zM313 635q0 -94 74.5 -146.5t200.5 -52.5q113 0 185.5 48.5t72.5 150.5v82q-6 99 -82 151t-184 52q-69 0 -128.5 -21.5t-99 -69t-39.5 -112.5v-82z" />
<glyph unicode="h" horiz-adv-x="1216" d="M162 0v1413h164v-559q56 97 155 153t219 56q178 0 272.5 -95t94.5 -268v-700h-162v694q0 106 -65.5 165t-177.5 59q-82 0 -159 -34.5t-127 -95t-50 -129.5v-659h-164z" />
<glyph unicode="i" horiz-adv-x="542" d="M182 1262v151h176v-151h-176zM190 0v1044h164v-1044h-164z" />
<glyph unicode="j" horiz-adv-x="575" d="M-96 -283q93 24 151.5 51.5t98.5 72t56.5 107t16.5 154.5v942h164v-956q0 -223 -104 -338.5t-340 -167.5zM221 1262v151h168v-151h-168z" />
<glyph unicode="k" horiz-adv-x="1026" d="M162 0v1413h164v-778h77l388 409h192l-438 -475l477 -569h-195l-409 487h-92v-487h-164z" />
<glyph unicode="l" horiz-adv-x="542" d="M188 0v1413h164v-1413h-164z" />
<glyph unicode="m" horiz-adv-x="1832" d="M162 0v1044h135l8 -176q54 88 146.5 141.5t199.5 53.5q260 0 318 -191q121 193 372 193q165 0 253.5 -86t88.5 -244v-735h-161v705q0 98 -57 156.5t-160 58.5q-130 0 -215.5 -66.5t-85.5 -177.5v-676h-164v719q0 96 -57.5 149.5t-161.5 53.5q-110 0 -202.5 -79.5 t-92.5 -176.5v-666h-164z" />
<glyph unicode="n" horiz-adv-x="1218" d="M162 0v1044h139l10 -194q138 213 381 213q181 0 279 -94.5t98 -266.5v-702h-164v688q0 112 -65.5 172t-184.5 60q-77 0 -153 -35t-126 -96t-50 -130v-659h-164z" />
<glyph unicode="o" horiz-adv-x="1136" d="M115 350v348q0 109 62.5 193.5t165 128t226.5 43.5q125 0 227.5 -44t163 -128t60.5 -193v-348q0 -110 -64 -195t-166 -128t-221 -43q-121 0 -223.5 43.5t-166.5 128t-64 194.5zM276 358q0 -105 86.5 -168t206.5 -63q115 0 201 63.5t86 167.5v332q0 103 -85.5 165.5 t-201.5 62.5t-204.5 -63.5t-88.5 -164.5v-332z" />
<glyph unicode="p" horiz-adv-x="1169" d="M145 -422v1466h144l18 -141q51 80 141.5 120t194.5 40q188 0 297 -100.5t109 -278.5v-332q0 -174 -109.5 -273t-296.5 -99q-105 0 -194 36.5t-142 110.5v-549h-162zM307 340q0 -109 87 -166t216 -57q121 0 199 64.5t78 174.5v324q0 117 -76.5 180.5t-204.5 63.5 q-80 0 -146 -24t-109.5 -76t-43.5 -124v-360z" />
<glyph unicode="q" horiz-adv-x="1169" d="M119 352v332q0 178 108.5 278.5t296.5 100.5q104 0 194.5 -38.5t141.5 -117.5l19 137h143v-1466h-162v549q-53 -74 -142 -110.5t-194 -36.5q-187 0 -296 99t-109 273zM281 354q0 -110 77 -173.5t199 -63.5q129 0 216 57t87 166v360q0 72 -43.5 124t-109.5 76t-146 24 q-128 0 -204 -62.5t-76 -179.5v-328z" />
<glyph unicode="r" horiz-adv-x="747" d="M168 0v1044h139l17 -190q33 89 106.5 150t169.5 61q66 0 121 -14l-23 -162q-52 10 -116 10q-108 0 -178 -90.5t-70 -206.5v-602h-166z" />
<glyph unicode="s" horiz-adv-x="987" d="M86 115l68 114q62 -52 158.5 -82t183.5 -30q243 0 243 159q0 69 -58.5 109t-205.5 74q-189 41 -269.5 113.5t-80.5 193.5q0 62 20.5 112.5t56 84.5t84.5 57t104 33t116 10q101 0 199.5 -26t173.5 -72l-62 -117q-146 78 -295 78q-239 0 -239 -162q0 -70 57.5 -109.5 t202.5 -68.5q190 -40 270 -112.5t82 -192.5q0 -100 -54 -169.5t-139.5 -100.5t-195.5 -31q-108 0 -223 34.5t-197 100.5z" />
<glyph unicode="t" horiz-adv-x="802" d="M55 922v122h156v269h162v-269h307v-122h-307v-639q0 -146 159 -146q116 0 203 35l37 -129q-130 -51 -274 -51q-137 0 -212 67t-75 203v660h-156z" />
<glyph unicode="u" horiz-adv-x="1204" d="M160 346v698h162v-690q0 -109 78.5 -169t205.5 -60t207 61t80 168v690h162v-698q0 -170 -126.5 -268t-322.5 -98q-197 0 -321.5 97.5t-124.5 268.5z" />
<glyph unicode="v" horiz-adv-x="1079" d="M49 1044h174l316 -849l315 849h174l-414 -1044h-153z" />
<glyph unicode="w" horiz-adv-x="1515" d="M61 1044h164l205 -849l258 849h135l269 -847l198 847h162l-281 -1044h-155l-256 821l-256 -821h-160z" />
<glyph unicode="x" horiz-adv-x="1021" d="M41 0l373 522l-353 522h187l264 -405l260 405h197l-361 -522l373 -522h-193l-278 403l-279 -403h-190z" />
<glyph unicode="y" horiz-adv-x="1034" d="M47 1044h174l291 -874l291 874h174l-412 -1159q-116 -323 -420 -323l-14 131q95 0 166.5 52.5t105.5 154.5l25 65z" />
<glyph unicode="z" horiz-adv-x="1003" d="M98 0v100l574 813h-561v131h755v-88l-571 -819h608v-137h-805z" />
<glyph unicode="{" horiz-adv-x="632" d="M152 600l94 115l-51 346q-22 152 54.5 268t231.5 191l62 -90q-114 -65 -167 -158t-38 -207l47 -365l-78 -94l80 -82l-49 -420q-13 -116 42.5 -209.5t168.5 -158.5l-66 -94q-328 171 -288 469l49 393z" />
<glyph unicode="|" horiz-adv-x="481" d="M170 -301v1694h139v-1694h-139z" />
<glyph unicode="}" horiz-adv-x="647" d="M145 -264q250 156 224 368l-52 420l78 82l-76 92l50 367q29 205 -215 365l57 88q160 -79 239 -196.5t56 -260.5l-53 -346l96 -115l-96 -96l53 -393q19 -137 -56 -258t-243 -207z" />
<glyph unicode="~" horiz-adv-x="823" d="M104 1276q39 64 82 96.5t99 32.5q50 0 139.5 -46.5t130.5 -47.5q54 5 86 67l84 -55q-74 -131 -166 -131q-49 0 -98.5 23.5t-94.5 47t-83 23.5q-59 0 -101 -72z" />
<glyph unicode="&#xa1;" horiz-adv-x="522" d="M190 -350l25 950h152l24 -950h-201zM195 883v170h194v-170h-194z" />
<glyph unicode="&#xa2;" horiz-adv-x="964" d="M119 346v348q0 170 122.5 270.5t313.5 100.5l41 264l121 -18l-43 -258q125 -24 227 -117l-72 -113q-112 95 -262 95q-124 0 -204 -63.5t-80 -174.5v-322q0 -112 84.5 -173.5t203.5 -61.5q153 -3 267 82l65 -117q-128 -106 -344 -106q-8 0 -24 1t-23 1l-43 -256l-119 18 l43 256q-126 35 -200 122.5t-74 221.5z" />
<glyph unicode="&#xa3;" horiz-adv-x="1171" d="M131 604v125h262l-20 234q-8 142 69 243.5t212 150.5t313 50v-145q-206 0 -323 -74.5t-107 -220.5l22 -238h408v-125h-394q3 -39 6.5 -79t6 -62t2.5 -25q2 -107 -17 -174t-88 -119h584v-145h-930v106q89 2 148 25.5t89 68t41 97t9 125.5l-18 182h-275z" />
<glyph unicode="&#xa5;" horiz-adv-x="1189" d="M74 1393h188l340 -682l342 682h191l-387 -723h327v-97h-379l-14 -28v-133h391v-95h-391v-317h-164v317h-412v95h412v133l-16 28h-396v97h347z" />
<glyph unicode="&#xa6;" horiz-adv-x="339" d="M111 -227v669h118v-669h-118zM111 743v672h118v-672h-118z" />
<glyph unicode="&#xa7;" horiz-adv-x="1157" d="M106 602q0 85 55 158.5t122 91.5q-64 83 -64 213q0 164 110 255t285 91q131 0 229.5 -50t151.5 -140l-86 -74q-40 67 -118 106t-175 39q-110 0 -186 -63.5t-76 -163.5q0 -49 23 -92.5t49.5 -71t82.5 -60.5t85.5 -46.5t95.5 -41.5q15 -7 23 -10q64 -29 107.5 -52.5 t93 -58.5t78.5 -71t49 -85.5t20 -106.5q0 -56 -14 -105t-54.5 -97t-105.5 -73q69 -84 69 -203q0 -161 -112.5 -255.5t-282.5 -94.5q-132 0 -240 57t-159 152l94 70q32 -69 118.5 -114.5t182.5 -45.5q114 0 189 56.5t75 166.5q0 51 -27 99t-65 82.5t-99 70.5t-107.5 58 t-112.5 49q-56 24 -93.5 43.5t-81 51t-69 66.5t-43 86t-17.5 113zM242 604q0 -41 13.5 -75t34 -59t59.5 -49.5t75 -41.5t94 -41q185 -78 273 -145q56 6 98.5 54.5t42.5 100.5q0 41 -13 74t-34 58.5t-60.5 51.5t-79.5 46.5t-104 48.5q-170 74 -258 139q-59 -6 -100 -55 t-41 -107z" />
<glyph unicode="&#xa8;" horiz-adv-x="737" d="M113 1190v160h151v-160h-151zM471 1190v160h152v-160h-152z" />
<glyph unicode="&#xa9;" horiz-adv-x="1656" d="M111 713q0 147 56 280t152 229.5t229 153t281 56.5q195 0 360 -96t261 -261.5t96 -361.5q0 -146 -56.5 -278.5t-152.5 -227.5t-229 -151t-279 -56q-99 0 -192.5 25.5t-172 71t-144.5 110.5t-112 143.5t-71.5 171.5t-25.5 191zM211 713q0 -168 82.5 -310t225.5 -224.5 t312 -82.5q168 0 309.5 82.5t223.5 224.5t82 310q0 169 -82 311.5t-224 224.5t-311 82q-127 0 -241.5 -48.5t-197 -131t-131 -197t-48.5 -241.5zM459 649v96q0 138 112.5 237t268.5 99q194 0 309 -135l-68 -84q-39 47 -106.5 76t-134.5 29q-105 0 -180.5 -66t-75.5 -156v-96 q0 -96 77 -157.5t185 -63.5q68 0 135.5 24t110.5 66l61 -90q-54 -55 -138 -85t-171 -30q-164 0 -274.5 95.5t-110.5 240.5z" />
<glyph unicode="&#xaa;" horiz-adv-x="716" d="M111 954v144l372 55v31q0 69 -34 97t-99 28q-36 0 -84.5 -16t-79.5 -33l-41 92q99 56 209 59q113 0 178.5 -51.5t65.5 -153.5v-424h-86l-20 60q-30 -30 -77 -47t-93 -17q-91 0 -151 49.5t-60 126.5zM223 956q0 -29 36 -51t83 -22q48 0 91.5 22.5t43.5 55.5v104l-254 -35 v-74z" />
<glyph unicode="&#xab;" horiz-adv-x="958" d="M111 356l323 369l64 -72l-234 -293l232 -286l-62 -74zM461 356l323 369l62 -72l-232 -293l232 -286l-62 -74z" />
<glyph unicode="&#xac;" horiz-adv-x="927" d="M111 575v115h706v-311h-112v196h-594z" />
<glyph unicode="&#xad;" horiz-adv-x="714" d="M102 512v139h508v-139h-508z" />
<glyph unicode="&#xae;" horiz-adv-x="1656" d="M111 713q0 149 55.5 282t151 229t228.5 152t283 56q197 0 362 -95t260 -260.5t95 -363.5q0 -197 -95 -361t-259.5 -258t-362.5 -94q-150 0 -283 55t-228.5 150t-151 227t-55.5 281zM211 713q0 -170 82 -312t224.5 -223.5t313.5 -81.5q170 0 311.5 81.5t222.5 223.5 t81 312t-81.5 312t-223.5 224t-312 82q-171 0 -313 -82t-223.5 -223.5t-81.5 -312.5zM565 319v785h332q98 0 165.5 -65t67.5 -158v-33q0 -76 -49 -131t-129 -70l203 -328h-133l-197 318h-147v-318h-113zM678 731h205q54 0 96.5 31.5t42.5 81.5v33q-2 53 -42 90t-97 37h-205 v-273z" />
<glyph unicode="&#xaf;" horiz-adv-x="960" d="M113 1303v92h735v-92h-735z" />
<glyph unicode="&#xb0;" horiz-adv-x="778" d="M111 1130v56q0 98 79.5 161t196.5 66q116 -3 197.5 -66.5t81.5 -160.5v-56q0 -98 -81 -160.5t-198 -62.5q-116 0 -196 62.5t-80 160.5zM225 1122q1 -50 48.5 -81t113.5 -31t114 32t48 80v72q0 49 -47.5 82t-114.5 33q-66 0 -114 -33t-48 -82v-72z" />
<glyph unicode="&#xb1;" horiz-adv-x="1128" d="M111 0v113h905v-113h-905zM123 627v118h364v347h129v-347h375v-118h-375v-371h-129v371h-364z" />
<glyph unicode="&#xb2;" horiz-adv-x="804" d="M121 1290q47 54 127 87.5t174 33.5q135 0 202.5 -54t67.5 -151q0 -78 -57 -131t-152 -96q-39 -18 -53.5 -25t-47 -24t-46 -28.5t-32.5 -29.5t-27 -37.5t-9 -41.5h437v-113h-578v84q0 54 18 98t54 77t76 56.5t96 48.5q33 13 45.5 18.5t41.5 19t42.5 23.5t31 25t24.5 31.5 t7 34.5q0 102 -160 102q-128 0 -223 -92z" />
<glyph unicode="&#xb3;" horiz-adv-x="755" d="M100 823l88 41q10 -49 69.5 -77.5t137.5 -28.5q76 0 123 22t47 70v29q0 50 -53 79t-121 29h-137v100h127q174 0 174 105v16q0 95 -166 95q-76 0 -132.5 -29t-66.5 -78l-79 47q17 74 101 122t189 48q123 0 204 -47t81 -152v-16q0 -68 -42.5 -107.5t-100.5 -54.5 q26 -7 50.5 -18.5t48 -29.5t38 -46.5t14.5 -62.5v-33q0 -69 -42 -115.5t-104 -65t-140 -18.5q-113 0 -202 49t-106 127z" />
<glyph unicode="&#xb4;" horiz-adv-x="524" d="M104 1155l207 293l113 -74l-225 -270z" />
<glyph unicode="&#xb6;" horiz-adv-x="1073" d="M111 1040v64q0 123 84.5 204.5t230.5 84.5h461v-1393h-107v1300h-174v-1300h-108v766h-72q-141 0 -228 73t-87 201z" />
<glyph unicode="&#xb7;" horiz-adv-x="403" d="M145 408v204h209v-204h-209z" />
<glyph unicode="&#xb8;" horiz-adv-x="493" d="M113 -170l41 170h112l-30 -106q11 -4 22 -9t35.5 -21.5t42 -36t31.5 -52.5t14 -72q0 -77 -60 -132.5t-163 -84.5l-41 80q145 54 145 127q0 103 -149 137z" />
<glyph unicode="&#xb9;" horiz-adv-x="567" d="M74 1270v123h358v-703h-133v580h-225z" />
<glyph unicode="&#xba;" horiz-adv-x="763" d="M111 1010v178q0 95 79 159t191 64q110 0 190 -64t80 -159v-180q0 -95 -79.5 -158.5t-190.5 -63.5q-112 0 -191 63.5t-79 160.5zM229 1016q3 -59 44 -92t108 -33q61 0 106 32t45 81v190q-3 49 -47.5 80t-103.5 31q-61 0 -106.5 -31.5t-45.5 -81.5v-176z" />
<glyph unicode="&#xbb;" horiz-adv-x="946" d="M88 74l229 286l-229 293l62 72l323 -369l-323 -356zM438 653l62 72l323 -369l-323 -356l-60 74l230 286z" />
<glyph unicode="&#xbc;" horiz-adv-x="1386" d="M86 1270v123h358v-703h-133v580h-225zM139 0l867 1393h153l-862 -1393h-158zM639 174v84l362 475h177v-459h131v-100h-131v-170h-129v170h-410zM778 274h271v330h-13z" />
<glyph unicode="&#xbd;" horiz-adv-x="1402" d="M86 1270v123h358v-703h-133v580h-225zM117 0l866 1393h154l-863 -1393h-157zM752 604q47 54 127 87.5t174 33.5q135 0 202.5 -54t67.5 -151q0 -78 -57 -131t-152 -96q-44 -21 -64 -30.5t-54.5 -29.5t-50.5 -36t-30 -40t-16 -51h436v-112h-577v84q0 103 62.5 166 t180.5 114q39 16 54.5 22.5t49 23.5t48 30t28 33.5t13.5 42.5q0 102 -160 102q-128 0 -223 -92z" />
<glyph unicode="&#xbe;" horiz-adv-x="1511" d="M86 823l88 41q10 -49 69.5 -77.5t137.5 -28.5q76 0 123 22t47 70v29q0 50 -53 79t-121 29h-137v100h127q174 0 174 105v16q0 95 -166 95q-76 0 -132.5 -29t-66.5 -78l-80 47q17 74 101.5 122t189.5 48q123 0 204 -47t81 -152v-16q0 -68 -43 -107.5t-101 -54.5 q37 -9 68.5 -26t57.5 -51.5t26 -79.5v-33q0 -69 -42.5 -115.5t-104.5 -65t-140 -18.5q-113 0 -201.5 49t-105.5 127zM299 0l866 1393h154l-862 -1393h-158zM776 172v84l363 475h176v-459h131v-100h-131v-170h-129v170h-410zM915 272h271v330h-12z" />
<glyph unicode="&#xbf;" horiz-adv-x="831" d="M86 23q0 16 2.5 32t6 28.5t11.5 28t12.5 24.5t17.5 24t18.5 21.5t21.5 22.5t21 20.5t24 21t23 20.5q74 61 108.5 110.5t34.5 121.5v135h162v-160q0 -70 -42 -128t-120 -124q-45 -40 -67 -62t-45 -58t-23 -68v-107q0 -41 13 -72t33 -48.5t47.5 -28t52 -14t51.5 -3.5 q123 0 256 111l65 -115q-66 -59 -154.5 -101t-183.5 -42q-170 0 -258 75.5t-88 221.5v113zM346 844v209h229v-209h-229z" />
<glyph unicode="&#xc0;" d="M61 0l506 1409h174l494 -1409h-176l-141 420h-533l-145 -420h-179zM415 1790l121 80l199 -301l-90 -59zM424 559h455l-226 645z" />
<glyph unicode="&#xc1;" d="M61 0l506 1409h174l494 -1409h-176l-141 420h-533l-145 -420h-179zM424 559h455l-226 645zM567 1556l207 293l113 -74l-225 -270z" />
<glyph unicode="&#xc2;" d="M61 0l506 1409h174l494 -1409h-176l-141 420h-533l-145 -420h-179zM389 1577l259 176l260 -178l-62 -76l-198 125l-201 -123zM424 559h455l-226 645z" />
<glyph unicode="&#xc3;" d="M61 0l506 1409h174l494 -1409h-176l-141 420h-533l-145 -420h-179zM338 1583q39 65 81.5 97t98.5 32q50 0 139.5 -46.5t130.5 -47.5q54 5 86 67l84 -55q-74 -131 -166 -131q-49 0 -98.5 23.5t-94.5 47t-83 23.5q-59 0 -101 -72zM424 559h455l-226 645z" />
<glyph unicode="&#xc4;" d="M61 0l506 1409h174l494 -1409h-176l-141 420h-533l-145 -420h-179zM393 1538v160h152v-160h-152zM424 559h455l-226 645zM752 1538v160h151v-160h-151z" />
<glyph unicode="&#xc5;" d="M61 0l506 1409h174l494 -1409h-176l-141 420h-533l-145 -420h-179zM424 559h455l-226 645zM485 1661q0 67 47.5 112.5t112.5 45.5q67 0 115.5 -45.5t48.5 -112.5q0 -66 -49 -113t-115 -47q-65 0 -112.5 47t-47.5 113zM563 1657q0 -34 25 -58t59 -24t59 24t25 58 q0 35 -25 60.5t-59 25.5t-59 -25.5t-25 -60.5z" />
<glyph unicode="&#xc6;" horiz-adv-x="1794" d="M29 0l860 1393h768v-148h-541v-457h449v-139h-449v-504h590v-145h-754v381h-497l-236 -381h-190zM526 520h426v707z" />
<glyph unicode="&#xc7;" horiz-adv-x="1218" d="M139 430v531q0 202 148.5 327t367.5 125q287 0 451 -156l-80 -118q-137 127 -362 127q-155 0 -258 -85.5t-103 -226.5v-516q0 -153 99.5 -233t265.5 -80q229 0 362 102l72 -116q-84 -69 -186.5 -99t-241.5 -32l-25 -86q11 -4 22 -9t35.5 -21.5t42 -36t32 -52.5t14.5 -72 q0 -77 -60.5 -132.5t-163.5 -84.5l-41 80q146 54 146 127q0 103 -150 137l37 156q-194 22 -309 137t-115 307z" />
<glyph unicode="&#xc8;" horiz-adv-x="1138" d="M182 0v1393h793v-148h-631v-463h524v-143h-524v-494h680v-145h-842zM356 1772l121 79l199 -301l-90 -59z" />
<glyph unicode="&#xc9;" horiz-adv-x="1138" d="M182 0v1393h793v-148h-631v-463h524v-143h-524v-494h680v-145h-842zM510 1540l207 293l112 -74l-225 -270z" />
<glyph unicode="&#xca;" horiz-adv-x="1138" d="M182 0v1393h793v-148h-631v-463h524v-143h-524v-494h680v-145h-842zM330 1561l258 176l260 -178l-62 -76l-198 125l-201 -123z" />
<glyph unicode="&#xcb;" horiz-adv-x="1138" d="M182 0v1393h793v-148h-631v-463h524v-143h-524v-494h680v-145h-842zM336 1522v159h151v-159h-151zM694 1522v159h152v-159h-152z" />
<glyph unicode="&#xcc;" horiz-adv-x="600" d="M68 1772l120 79l199 -301l-90 -59zM217 0v1393h162v-1393h-162z" />
<glyph unicode="&#xcd;" horiz-adv-x="600" d="M217 0v1393h162v-1393h-162zM217 1540l207 293l113 -74l-225 -270z" />
<glyph unicode="&#xce;" horiz-adv-x="600" d="M41 1561l258 176l260 -178l-61 -76l-199 125l-201 -123zM217 0v1393h162v-1393h-162z" />
<glyph unicode="&#xcf;" horiz-adv-x="600" d="M45 1522v160h151v-160h-151zM217 0v1393h162v-1393h-162zM403 1522v160h152v-160h-152z" />
<glyph unicode="&#xd0;" horiz-adv-x="1411" d="M70 637v133h221v635h450q157 0 283.5 -51.5t202.5 -153t76 -237.5v-519q0 -144 -73.5 -245.5t-198.5 -150t-292 -48.5h-448v637h-221zM455 143h284q188 0 294 77t106 231v505q0 142 -112 223t-286 81h-284v-490h325v-133h-327v-494z" />
<glyph unicode="&#xd1;" horiz-adv-x="1441" d="M172 0v1393h170l752 -1145v1145h153v-1393h-166l-755 1147v-1147h-154zM410 1565q39 65 81.5 97t98.5 32q50 0 139.5 -47t130.5 -48q53 5 86 68l84 -55q-74 -131 -166 -131q-49 0 -98.5 23.5t-94.5 47t-83 23.5q-59 0 -101 -72z" />
<glyph unicode="&#xd2;" horiz-adv-x="1353" d="M141 428v535q0 206 144.5 328t371.5 122h35q232 0 380.5 -123t148.5 -327v-535q0 -211 -144.5 -329.5t-384.5 -118.5h-33q-235 0 -376.5 117.5t-141.5 330.5zM305 436q0 -151 95 -231t259 -80h33q169 0 268 80.5t99 230.5v518q0 144 -102 228t-265 84h-35 q-156 0 -254 -84t-98 -228v-518zM438 1792l121 80l199 -301l-90 -60z" />
<glyph unicode="&#xd3;" horiz-adv-x="1353" d="M141 428v535q0 206 144.5 328t371.5 122h35q232 0 380.5 -123t148.5 -327v-535q0 -211 -144.5 -329.5t-384.5 -118.5h-33q-235 0 -376.5 117.5t-141.5 330.5zM305 436q0 -151 95 -231t259 -80h33q169 0 268 80.5t99 230.5v518q0 144 -102 228t-265 84h-35 q-156 0 -254 -84t-98 -228v-518zM590 1561l207 292l112 -73l-225 -271z" />
<glyph unicode="&#xd4;" horiz-adv-x="1353" d="M141 428v535q0 206 144.5 328t371.5 122h35q232 0 380.5 -123t148.5 -327v-535q0 -211 -144.5 -329.5t-384.5 -118.5h-33q-235 0 -376.5 117.5t-141.5 330.5zM305 436q0 -151 95 -231t259 -80h33q169 0 268 80.5t99 230.5v518q0 144 -102 228t-265 84h-35 q-156 0 -254 -84t-98 -228v-518zM412 1581l258 176l260 -178l-62 -76l-198 125l-201 -123z" />
<glyph unicode="&#xd5;" horiz-adv-x="1353" d="M141 428v535q0 206 144.5 328t371.5 122h35q232 0 380.5 -123t148.5 -327v-535q0 -211 -144.5 -329.5t-384.5 -118.5h-33q-235 0 -376.5 117.5t-141.5 330.5zM305 436q0 -151 95 -231t259 -80h33q169 0 268 80.5t99 230.5v518q0 144 -102 228t-265 84h-35 q-156 0 -254 -84t-98 -228v-518zM360 1585q39 64 82 96.5t99 32.5q50 0 139.5 -46.5t130.5 -47.5q53 5 86 68l84 -56q-74 -131 -166 -131q-49 0 -98.5 23.5t-94.5 47t-83 23.5q-60 0 -101 -71z" />
<glyph unicode="&#xd6;" horiz-adv-x="1353" d="M141 428v535q0 206 144.5 328t371.5 122h35q232 0 380.5 -123t148.5 -327v-535q0 -211 -144.5 -329.5t-384.5 -118.5h-33q-235 0 -376.5 117.5t-141.5 330.5zM305 436q0 -151 95 -231t259 -80h33q169 0 268 80.5t99 230.5v518q0 144 -102 228t-265 84h-35 q-156 0 -254 -84t-98 -228v-518zM416 1542v160h151v-160h-151zM774 1542v160h152v-160h-152z" />
<glyph unicode="&#xd7;" horiz-adv-x="1175" d="M109 0l401 516l-379 488h145l308 -390l313 390h145l-380 -488l403 -516h-156l-325 418l-324 -418h-151z" />
<glyph unicode="&#xd8;" horiz-adv-x="1294" d="M135 428v535q0 206 144.5 328t371.5 122h35q120 0 229 -39l82 185h113l-102 -228q98 -60 152 -154t54 -214v-535q0 -211 -144.5 -329.5t-383.5 -118.5h-33q-130 0 -231 34l-74 -166h-119l97 213q-191 117 -191 367zM299 436q0 -146 92 -229l461 1030q-79 29 -166 29h-35 q-156 0 -254 -84t-98 -228v-518zM483 154q79 -29 170 -29h33q169 0 268 80.5t99 230.5v518q0 147 -109 232z" />
<glyph unicode="&#xd9;" horiz-adv-x="1421" d="M176 432v961h162v-955q0 -103 52.5 -175.5t135 -105t185.5 -32.5q154 0 261 83.5t107 229.5v955h164v-961q0 -110 -41 -197t-113.5 -142t-168.5 -84t-209 -29t-209 28t-169.5 82.5t-115 142t-41.5 199.5zM475 1772l121 79l199 -301l-90 -59z" />
<glyph unicode="&#xda;" horiz-adv-x="1421" d="M176 432v961h162v-955q0 -103 52.5 -175.5t135 -105t185.5 -32.5q154 0 261 83.5t107 229.5v955h164v-961q0 -110 -41 -197t-113.5 -142t-168.5 -84t-209 -29t-209 28t-169.5 82.5t-115 142t-41.5 199.5zM628 1540l207 293l113 -74l-225 -270z" />
<glyph unicode="&#xdb;" horiz-adv-x="1421" d="M176 432v961h162v-955q0 -103 52.5 -175.5t135 -105t185.5 -32.5q154 0 261 83.5t107 229.5v955h164v-961q0 -110 -41 -197t-113.5 -142t-168.5 -84t-209 -29t-209 28t-169.5 82.5t-115 142t-41.5 199.5zM449 1561l258 176l260 -178l-62 -76l-198 125l-201 -123z" />
<glyph unicode="&#xdc;" horiz-adv-x="1421" d="M176 432v961h162v-955q0 -103 52.5 -175.5t135 -105t185.5 -32.5q154 0 261 83.5t107 229.5v955h164v-961q0 -110 -41 -197t-113.5 -142t-168.5 -84t-209 -29t-209 28t-169.5 82.5t-115 142t-41.5 199.5zM455 1522v160h151v-160h-151zM813 1522v160h152v-160h-152z" />
<glyph unicode="&#xdd;" horiz-adv-x="1226" d="M74 1393h188l340 -682l342 682h191l-453 -848v-545h-164v545zM526 1540l207 293l113 -74l-225 -270z" />
<glyph unicode="&#xde;" horiz-adv-x="1103" d="M106 0v1393h164v-275h340q171 0 278 -103.5t107 -260.5v-39q0 -153 -104 -245.5t-281 -92.5h-340v-377h-164zM270 522h332q106 0 169 54t63 139v39q0 87 -64.5 154t-169.5 67h-330v-453z" />
<glyph unicode="&#xe0;" horiz-adv-x="1110" d="M115 276v232l684 104v115q0 188 -238 188q-90 0 -187.5 -26.5t-158.5 -57.5l-51 123q75 42 191.5 75.5t219.5 33.5q181 0 284.5 -86.5t103.5 -247.5v-729h-144l-10 119q-56 -70 -136.5 -99.5t-189.5 -29.5q-173 0 -270.5 74.5t-97.5 211.5zM279 287q0 -83 62.5 -124.5 t172.5 -41.5t196.5 51t86.5 133v191l-518 -82v-127zM295 1473l121 79l198 -301l-90 -59z" />
<glyph unicode="&#xe1;" horiz-adv-x="1110" d="M115 276v232l684 104v115q0 188 -238 188q-90 0 -187.5 -26.5t-158.5 -57.5l-51 123q75 42 191.5 75.5t219.5 33.5q181 0 284.5 -86.5t103.5 -247.5v-729h-144l-10 119q-56 -70 -136.5 -99.5t-189.5 -29.5q-173 0 -270.5 74.5t-97.5 211.5zM279 287q0 -83 62.5 -124.5 t172.5 -41.5t196.5 51t86.5 133v191l-518 -82v-127zM449 1239l206 293l113 -74l-225 -270z" />
<glyph unicode="&#xe2;" horiz-adv-x="1110" d="M115 276v232l684 104v115q0 188 -238 188q-90 0 -187.5 -26.5t-158.5 -57.5l-51 123q75 42 191.5 75.5t219.5 33.5q181 0 284.5 -86.5t103.5 -247.5v-729h-144l-10 119q-56 -70 -136.5 -99.5t-189.5 -29.5q-173 0 -270.5 74.5t-97.5 211.5zM268 1260l258 176l260 -179 l-61 -75l-199 125l-200 -123zM279 287q0 -83 62.5 -124.5t172.5 -41.5t196.5 51t86.5 133v191l-518 -82v-127z" />
<glyph unicode="&#xe3;" horiz-adv-x="1110" d="M115 276v232l684 104v115q0 188 -238 188q-90 0 -187.5 -26.5t-158.5 -57.5l-51 123q75 42 191.5 75.5t219.5 33.5q181 0 284.5 -86.5t103.5 -247.5v-729h-144l-10 119q-56 -70 -136.5 -99.5t-189.5 -29.5q-173 0 -270.5 74.5t-97.5 211.5zM217 1266q39 65 81.5 97 t98.5 32q50 0 140 -47t131 -48q53 5 86 68l84 -55q-74 -131 -166 -131q-49 0 -98.5 23.5t-95 47t-83.5 23.5q-58 0 -100 -72zM279 287q0 -83 62.5 -124.5t172.5 -41.5t196.5 51t86.5 133v191l-518 -82v-127z" />
<glyph unicode="&#xe4;" horiz-adv-x="1110" d="M115 276v232l684 104v115q0 188 -238 188q-90 0 -187.5 -26.5t-158.5 -57.5l-51 123q75 42 191.5 75.5t219.5 33.5q181 0 284.5 -86.5t103.5 -247.5v-729h-144l-10 119q-56 -70 -136.5 -99.5t-189.5 -29.5q-173 0 -270.5 74.5t-97.5 211.5zM274 1221v159h152v-159h-152z M279 287q0 -83 62.5 -124.5t172.5 -41.5t196.5 51t86.5 133v191l-518 -82v-127zM633 1221v159h151v-159h-151z" />
<glyph unicode="&#xe5;" horiz-adv-x="1110" d="M115 276v232l684 104v115q0 188 -238 188q-90 0 -187.5 -26.5t-158.5 -57.5l-51 123q75 42 191.5 75.5t219.5 33.5q181 0 284.5 -86.5t103.5 -247.5v-729h-144l-10 119q-56 -70 -136.5 -99.5t-189.5 -29.5q-173 0 -270.5 74.5t-97.5 211.5zM279 287q0 -83 62.5 -124.5 t172.5 -41.5t196.5 51t86.5 133v191l-518 -82v-127zM367 1343q0 67 47 112.5t112 45.5q67 0 115.5 -45.5t48.5 -112.5q0 -66 -49 -112.5t-115 -46.5q-65 0 -112 46.5t-47 112.5zM444 1339q0 -34 25 -58t59 -24t59 24t25 58q0 35 -25 60.5t-59 25.5t-59 -25.5t-25 -60.5z" />
<glyph unicode="&#xe6;" horiz-adv-x="1759" d="M96 295v209l680 82v137q0 104 -61.5 157.5t-179.5 53.5q-80 0 -180.5 -29t-161.5 -59l-43 119q69 44 180 77t215 33q119 0 200.5 -42t120.5 -118q54 74 151.5 118t219.5 44q185 0 300.5 -92.5t115.5 -257.5v-166l-703 -72v-139q0 -108 91 -164.5t235 -56.5 q102 0 188.5 28.5t132.5 61.5l66 -106q-75 -62 -180.5 -94.5t-212.5 -32.5q-149 0 -261 46.5t-167 141.5q-56 -99 -156.5 -143.5t-218.5 -44.5q-162 0 -266.5 83.5t-104.5 225.5zM254 297q0 -83 70 -130.5t174 -47.5q71 0 132.5 19t104.5 63t43 106v168l-524 -61v-117z M950 602l551 53v82q0 99 -73.5 151t-192.5 52q-117 0 -201 -62.5t-84 -150.5v-125z" />
<glyph unicode="&#xe7;" horiz-adv-x="983" d="M119 346v348q0 170 122.5 270.5t313.5 100.5q208 0 346 -129l-72 -113q-112 95 -262 95q-124 0 -204 -63.5t-80 -174.5v-322q0 -112 84.5 -173.5t203.5 -61.5q153 -3 267 82l65 -117q-121 -103 -338 -106l-24 -88q11 -4 22 -9t35.5 -21.5t42 -36t31.5 -52.5t14 -72 q0 -77 -60 -132.5t-163 -84.5l-41 80q145 54 145 127q0 103 -149 137l39 160q-152 23 -245 114t-93 242z" />
<glyph unicode="&#xe8;" horiz-adv-x="1093" d="M115 348v367q0 98 63.5 179t164.5 125t216 44q178 0 304 -98.5t126 -249.5v-219h-713v-142q0 -74 45 -126.5t114.5 -76.5t154.5 -24q200 0 321 80l58 -113q-141 -106 -387 -106q-91 0 -173.5 23t-149 66.5t-105.5 113.5t-39 157zM276 618h558v95q0 92 -81 152.5 t-194 60.5q-112 0 -197 -61.5t-86 -151.5v-95zM311 1472l121 80l199 -301l-90 -59z" />
<glyph unicode="&#xe9;" horiz-adv-x="1093" d="M115 348v367q0 98 63.5 179t164.5 125t216 44q178 0 304 -98.5t126 -249.5v-219h-713v-142q0 -74 45 -126.5t114.5 -76.5t154.5 -24q200 0 321 80l58 -113q-141 -106 -387 -106q-91 0 -173.5 23t-149 66.5t-105.5 113.5t-39 157zM276 618h558v95q0 92 -81 152.5 t-194 60.5q-112 0 -197 -61.5t-86 -151.5v-95zM465 1241l207 293l112 -74l-225 -270z" />
<glyph unicode="&#xea;" horiz-adv-x="1093" d="M115 348v367q0 98 63.5 179t164.5 125t216 44q178 0 304 -98.5t126 -249.5v-219h-713v-142q0 -74 45 -126.5t114.5 -76.5t154.5 -24q200 0 321 80l58 -113q-141 -106 -387 -106q-91 0 -173.5 23t-149 66.5t-105.5 113.5t-39 157zM276 618h558v95q0 92 -81 152.5 t-194 60.5q-112 0 -197 -61.5t-86 -151.5v-95zM284 1261l259 176l260 -178l-62 -76l-198 125l-201 -123z" />
<glyph unicode="&#xeb;" horiz-adv-x="1093" d="M115 348v367q0 98 63.5 179t164.5 125t216 44q178 0 304 -98.5t126 -249.5v-219h-713v-142q0 -74 45 -126.5t114.5 -76.5t154.5 -24q200 0 321 80l58 -113q-141 -106 -387 -106q-91 0 -173.5 23t-149 66.5t-105.5 113.5t-39 157zM276 618h558v95q0 92 -81 152.5 t-194 60.5q-112 0 -197 -61.5t-86 -151.5v-95zM289 1223v159h151v-159h-151zM647 1223v159h152v-159h-152z" />
<glyph unicode="&#xec;" horiz-adv-x="522" d="M20 1458l121 80l199 -301l-90 -59zM170 0v1051h164v-1051h-164z" />
<glyph unicode="&#xed;" horiz-adv-x="522" d="M170 0v1051h164v-1051h-164zM170 1227l207 293l113 -74l-225 -270z" />
<glyph unicode="&#xee;" horiz-adv-x="522" d="M-6 1247l258 176l260 -178l-61 -76l-199 125l-201 -123zM170 0v1051h164v-1051h-164z" />
<glyph unicode="&#xef;" horiz-adv-x="522" d="M-2 1208v160h151v-160h-151zM170 0v1051h164v-1051h-164zM356 1208v160h152v-160h-152z" />
<glyph unicode="&#xf0;" horiz-adv-x="1134" d="M106 342v291q0 155 115 258.5t293 103.5q206 0 313 -118q-47 182 -213 342l-292 -132l-41 89l245 108q-123 102 -270 131l59 125q221 -59 377 -192l260 116l45 -86l-229 -104q238 -244 238 -606v-326q0 -155 -134 -258.5t-325 -103.5q-121 0 -221.5 45.5t-160 129 t-59.5 187.5zM270 356q0 -100 80.5 -165.5t196.5 -65.5q119 0 207 67t88 162v262q0 99 -87.5 165.5t-207.5 66.5q-116 0 -196.5 -66t-80.5 -164v-262z" />
<glyph unicode="&#xf1;" horiz-adv-x="1218" d="M162 0v1044h139l10 -194q138 213 381 213q181 0 279 -94.5t98 -266.5v-702h-164v688q0 112 -65.5 172t-184.5 60q-77 0 -153 -35t-126 -96t-50 -130v-659h-164zM297 1268q39 65 81.5 97t98.5 32q50 0 139.5 -46.5t130.5 -47.5q54 5 86 67l84 -55q-74 -131 -166 -131 q-49 0 -98.5 23.5t-94.5 47t-83 23.5q-59 0 -101 -72z" />
<glyph unicode="&#xf2;" horiz-adv-x="1136" d="M115 350v348q0 109 62.5 193.5t165 128t226.5 43.5q125 0 227.5 -44t163 -128t60.5 -193v-348q0 -110 -64 -195t-166 -128t-221 -43q-121 0 -223.5 43.5t-166.5 128t-64 194.5zM276 358q0 -105 86.5 -168t206.5 -63q115 0 201 63.5t86 167.5v332q0 103 -85.5 165.5 t-201.5 62.5t-204.5 -63.5t-88.5 -164.5v-332zM326 1473l120 79l199 -301l-90 -59z" />
<glyph unicode="&#xf3;" horiz-adv-x="1136" d="M115 350v348q0 109 62.5 193.5t165 128t226.5 43.5q125 0 227.5 -44t163 -128t60.5 -193v-348q0 -110 -64 -195t-166 -128t-221 -43q-121 0 -223.5 43.5t-166.5 128t-64 194.5zM276 358q0 -105 86.5 -168t206.5 -63q115 0 201 63.5t86 167.5v332q0 103 -85.5 165.5 t-201.5 62.5t-204.5 -63.5t-88.5 -164.5v-332zM479 1241l207 293l113 -74l-225 -270z" />
<glyph unicode="&#xf4;" horiz-adv-x="1136" d="M115 350v348q0 109 62.5 193.5t165 128t226.5 43.5q125 0 227.5 -44t163 -128t60.5 -193v-348q0 -110 -64 -195t-166 -128t-221 -43q-121 0 -223.5 43.5t-166.5 128t-64 194.5zM276 358q0 -105 86.5 -168t206.5 -63q115 0 201 63.5t86 167.5v332q0 103 -85.5 165.5 t-201.5 62.5t-204.5 -63.5t-88.5 -164.5v-332zM299 1262l258 176l260 -178l-61 -76l-199 125l-201 -123z" />
<glyph unicode="&#xf5;" horiz-adv-x="1136" d="M115 350v348q0 109 62.5 193.5t165 128t226.5 43.5q125 0 227.5 -44t163 -128t60.5 -193v-348q0 -110 -64 -195t-166 -128t-221 -43q-121 0 -223.5 43.5t-166.5 128t-64 194.5zM248 1268q39 65 81.5 97t98.5 32q50 0 139.5 -46.5t130.5 -47.5q54 5 86 67l84 -55 q-74 -131 -166 -131q-49 0 -98.5 23.5t-94.5 47t-83 23.5q-58 0 -100 -72zM276 358q0 -105 86.5 -168t206.5 -63q115 0 201 63.5t86 167.5v332q0 103 -85.5 165.5t-201.5 62.5t-204.5 -63.5t-88.5 -164.5v-332z" />
<glyph unicode="&#xf6;" horiz-adv-x="1136" d="M115 350v348q0 109 62.5 193.5t165 128t226.5 43.5q125 0 227.5 -44t163 -128t60.5 -193v-348q0 -110 -64 -195t-166 -128t-221 -43q-121 0 -223.5 43.5t-166.5 128t-64 194.5zM276 358q0 -105 86.5 -168t206.5 -63q115 0 201 63.5t86 167.5v332q0 103 -85.5 165.5 t-201.5 62.5t-204.5 -63.5t-88.5 -164.5v-332zM306 1223v160h151v-160h-151zM664 1223v160h152v-160h-152z" />
<glyph unicode="&#xf7;" horiz-adv-x="1404" d="M111 522v113h1183v-113h-1183zM596 156v198h205v-198h-205zM596 797v198h205v-198h-205z" />
<glyph unicode="&#xf8;" horiz-adv-x="1122" d="M133 -119l125 209q-125 101 -125 260v348q0 109 62.5 193.5t165.5 128t227 43.5q123 0 221 -43l84 141h104l-108 -184q70 -49 109.5 -120.5t39.5 -158.5v-348q0 -110 -63.5 -194.5t-165.5 -128t-221 -43.5q-144 0 -252 57l-94 -160h-109zM295 358q0 -75 45 -129l391 660 q-69 29 -143 29q-116 0 -204.5 -63.5t-88.5 -164.5v-332zM412 170q81 -43 176 -43q115 0 200.5 63.5t85.5 167.5v332q0 90 -67 150z" />
<glyph unicode="&#xf9;" horiz-adv-x="1204" d="M160 346v698h162v-690q0 -109 78.5 -169t205.5 -60t207 61t80 168v690h162v-698q0 -170 -126.5 -268t-322.5 -98q-197 0 -321.5 97.5t-124.5 268.5zM367 1452l120 80l199 -301l-90 -60z" />
<glyph unicode="&#xfa;" horiz-adv-x="1204" d="M160 346v698h162v-690q0 -109 78.5 -169t205.5 -60t207 61t80 168v690h162v-698q0 -170 -126.5 -268t-322.5 -98q-197 0 -321.5 97.5t-124.5 268.5zM520 1221l207 293l113 -74l-225 -270z" />
<glyph unicode="&#xfb;" horiz-adv-x="1204" d="M160 346v698h162v-690q0 -109 78.5 -169t205.5 -60t207 61t80 168v690h162v-698q0 -170 -126.5 -268t-322.5 -98q-197 0 -321.5 97.5t-124.5 268.5zM340 1243l258 176l260 -178l-61 -76l-199 125l-201 -123z" />
<glyph unicode="&#xfc;" horiz-adv-x="1204" d="M160 346v698h162v-690q0 -109 78.5 -169t205.5 -60t207 61t80 168v690h162v-698q0 -170 -126.5 -268t-322.5 -98q-197 0 -321.5 97.5t-124.5 268.5zM344 1202v160h151v-160h-151zM702 1202v160h152v-160h-152z" />
<glyph unicode="&#xfd;" horiz-adv-x="1034" d="M49 1044h174l291 -874l291 874h174l-412 -1159q-116 -323 -420 -323l-14 131q95 0 167 52.5t106 154.5l24 65zM428 1227l207 293l113 -74l-226 -270z" />
<glyph unicode="&#xfe;" horiz-adv-x="1206" d="M164 -475v1886h164v-504q131 160 340 160q180 0 296.5 -102t116.5 -260v-359q0 -159 -116.5 -262.5t-296.5 -103.5q-227 0 -346 153v-608h-158zM340 350q0 -97 88.5 -165t208.5 -68q118 0 200.5 66t82.5 169v342q0 105 -81.5 170.5t-201.5 65.5t-208.5 -69.5 t-88.5 -166.5v-344z" />
<glyph unicode="&#xff;" horiz-adv-x="1050" d="M57 1044h174l291 -874l291 874h174l-412 -1159q-116 -323 -419 -323l-15 131q95 0 167 52.5t106 154.5l24 65zM268 1202v160h152v-160h-152zM627 1202v160h151v-160h-151z" />
<glyph unicode="&#x152;" horiz-adv-x="1863" d="M111 446v496q0 116 77.5 220t208 166.5t277.5 62.5h1048v-146h-594v-450h504v-144h-502v-506h644v-145h-1098q-155 0 -285 59.5t-205 162t-75 224.5zM274 461q3 -138 119 -227t283 -89h291v1100h-293q-96 0 -189 -43.5t-152 -117t-59 -154.5v-469z" />
<glyph unicode="&#x153;" horiz-adv-x="1814" d="M111 354v357q0 156 121 257t307 101q123 0 231 -51.5t160 -145.5q50 83 146.5 141t215.5 58q87 0 163.5 -21.5t137 -63.5t96 -109.5t35.5 -153.5v-158l-702 -94v-129q0 -68 49 -118.5t121 -73.5t154 -23q83 0 174 24.5t141 59.5l70 -107q-70 -54 -177.5 -82t-214.5 -28 q-135 0 -245 47.5t-168 146.5q-51 -94 -155.5 -145t-229.5 -51q-186 0 -308 102t-122 260zM274 360q0 -95 83 -160t202 -65q114 0 198 61.5t87 151.5v367q-3 91 -87.5 152t-199.5 61q-118 0 -200.5 -64t-82.5 -159v-345zM1022 590l539 72v59q0 88 -75 147.5t-179 59.5 q-111 -2 -196.5 -64.5t-88.5 -148.5v-125z" />
<glyph unicode="&#x178;" horiz-adv-x="1212" d="M74 1393h188l340 -682l342 682h191l-453 -848v-545h-164v545zM350 1522v159h152v-159h-152zM709 1522v159h151v-159h-151z" />
<glyph unicode="&#x2c6;" horiz-adv-x="731" d="M106 1247l259 176l260 -178l-62 -76l-198 125l-201 -123z" />
<glyph unicode="&#x2dc;" horiz-adv-x="843" d="M111 1276q39 65 81.5 97t98.5 32q50 0 139.5 -46.5t130.5 -47.5q54 5 86 67l84 -55q-74 -131 -166 -131q-49 0 -98.5 23.5t-94.5 47t-83 23.5q-59 0 -101 -72z" />
<glyph unicode="&#x2000;" horiz-adv-x="936" />
<glyph unicode="&#x2001;" horiz-adv-x="1872" />
<glyph unicode="&#x2002;" horiz-adv-x="936" />
<glyph unicode="&#x2003;" horiz-adv-x="1872" />
<glyph unicode="&#x2004;" horiz-adv-x="624" />
<glyph unicode="&#x2005;" horiz-adv-x="468" />
<glyph unicode="&#x2006;" horiz-adv-x="312" />
<glyph unicode="&#x2007;" horiz-adv-x="312" />
<glyph unicode="&#x2008;" horiz-adv-x="234" />
<glyph unicode="&#x2009;" horiz-adv-x="374" />
<glyph unicode="&#x200a;" horiz-adv-x="104" />
<glyph unicode="&#x2010;" horiz-adv-x="714" d="M102 512v139h508v-139h-508z" />
<glyph unicode="&#x2011;" horiz-adv-x="714" d="M102 512v139h508v-139h-508z" />
<glyph unicode="&#x2012;" horiz-adv-x="714" d="M102 512v139h508v-139h-508z" />
<glyph unicode="&#x2013;" horiz-adv-x="1175" d="M14 539v116h1137v-116h-1137z" />
<glyph unicode="&#x2015;" horiz-adv-x="1611" d="M16 539v116h1577v-116h-1577z" />
<glyph unicode="&#x2018;" horiz-adv-x="270" d="M59 1032v58q0 135 28 221t83 143l76 -49q-49 -87 -49 -254v-119h-138z" />
<glyph unicode="&#x2019;" horiz-adv-x="276" d="M8 1087q37 54 54.5 107.5t17.5 140.5v117h145v-53q0 -141 -32.5 -218.5t-94.5 -144.5z" />
<glyph unicode="&#x201a;" horiz-adv-x="466" d="M184 -203q37 54 54.5 107.5t17.5 140.5v117h145v-53q0 -141 -32.5 -218.5t-94.5 -144.5z" />
<glyph unicode="&#x201c;" horiz-adv-x="530" d="M59 1032v58q0 135 28 221t83 143l76 -49q-49 -87 -49 -254v-119h-138zM324 1032v58q0 136 27.5 221.5t82.5 142.5l76 -49q-49 -87 -49 -254v-119h-137z" />
<glyph unicode="&#x201d;" horiz-adv-x="555" d="M8 1040q37 54 54.5 107.5t17.5 140.5v117h145v-53q0 -141 -32.5 -218.5t-94.5 -144.5zM283 1040q36 53 53.5 107t17.5 141v117h146v-53q0 -141 -32.5 -218.5t-94.5 -144.5z" />
<glyph unicode="&#x201e;" horiz-adv-x="819" d="M184 -201q37 54 54.5 107.5t17.5 140.5v117h145v-53q0 -141 -32.5 -218.5t-94.5 -144.5zM516 -199q37 54 54.5 107.5t17.5 140.5v117h145v-53q0 -141 -32.5 -218.5t-94.5 -144.5z" />
<glyph unicode="&#x2022;" horiz-adv-x="702" d="M166 356v365h371v-365h-371z" />
<glyph unicode="&#x2026;" horiz-adv-x="1523" d="M166 0v209h201v-209h-201zM662 0v209h200v-209h-200zM1155 0v209h203v-209h-203z" />
<glyph unicode="&#x202f;" horiz-adv-x="374" />
<glyph unicode="&#x2039;" horiz-adv-x="608" d="M102 356l320 369l80 -72l-232 -293l232 -286l-80 -74z" />
<glyph unicode="&#x203a;" horiz-adv-x="608" d="M104 74l232 286l-232 293l80 72l320 -369l-320 -356z" />
<glyph unicode="&#x205f;" horiz-adv-x="468" />
<glyph unicode="&#x20ac;" horiz-adv-x="1353" d="M80 528v99h178v157h-178v99h178v78q0 202 148.5 327t367.5 125q288 0 451 -156l-80 -118q-137 127 -363 127q-155 0 -257.5 -85.5t-102.5 -226.5v-71h594v-99h-594v-157h594v-99h-594v-90q0 -153 99 -233t265 -80q230 0 363 102l72 -116q-86 -70 -193 -100.5t-252 -30.5 q-232 0 -375 117.5t-143 332.5v98h-178z" />
<glyph unicode="&#x2122;" horiz-adv-x="1142" d="M88 1348v86h379v-86h-143v-349h-91v349h-145zM553 1004v430h92l121 -205l125 205h92v-430h-90v282l-107 -174h-43l-100 178v-286h-90z" />
<glyph unicode="&#x25fc;" horiz-adv-x="1044" d="M0 0v1044h1044v-1044h-1044z" />
<glyph unicode="&#xfb03;" horiz-adv-x="1871" d="M70 926v121h139v127q0 146 116.5 224.5t297.5 78.5q193 0 395 -58l-2 -4q109 62 268 62q193 0 395 -58l-28 -121q-84 14 -118.5 19.5t-99.5 11.5t-126 6q-133 0 -204 -46t-71 -138v-104h254v-121h-254v-926h-162v926h-139v121h139v127q0 80 35 139q-154 22 -260 22 q-274 0 -274 -184v-104h254v-121h-254v-926h-162v926h-139zM1530 0v1051h164v-1051h-164z" />
<glyph unicode="&#xfb04;" horiz-adv-x="1933" d="M86 926v121h139v127q0 146 116.5 224.5t297.5 78.5q193 0 395 -58v-2q111 60 264 60q194 0 396 -58l-2 -6h51v-1413h-164v1313q-154 22 -258 22q-274 0 -274 -184v-104h253v-121h-253v-926h-162v926h-140v121h140v127q0 80 35 139q-150 22 -258 22q-133 0 -204 -46 t-71 -138v-104h254v-121h-254v-926h-162v926h-139z" />
</font>
</defs>
</svg>
