<svg xmlns="http://www.w3.org/2000/svg" xmlns:xlink="http://www.w3.org/1999/xlink" viewBox="0 0 299.88 135.11"><defs><style>.a{fill:url(#a);}.b{fill:none;}.c{fill:#5c315e;}.d{clip-path:url(#b);}.e{fill:url(#c);}.f{clip-path:url(#d);}.g{clip-path:url(#e);}.h{fill:#fff;}.i{clip-path:url(#f);}.j{clip-path:url(#g);}.k{clip-path:url(#i);}.l{mask:url(#j);}.m{fill:url(#m);}.n{fill:#231f20;}.o{filter:url(#k);}</style><linearGradient id="a" x1="-184.72" y1="114.2" x2="-183.72" y2="114.2" gradientTransform="matrix(0, 190.83, 190.83, 0, -21618.77, 35234.67)" gradientUnits="userSpaceOnUse"><stop offset="0" stop-color="#fff"/><stop offset="1"/></linearGradient><clipPath id="b"><rect class="b" y="-0.11" width="299.88" height="19.2"/></clipPath><linearGradient id="c" x1="-185.41" y1="112.99" x2="-184.41" y2="112.99" gradientTransform="matrix(299.88, 0, 0, -299.88, 55600.68, 33892.83)" gradientUnits="userSpaceOnUse"><stop offset="0" stop-color="#6c2769"/><stop offset="0.17" stop-color="#6c2769"/><stop offset="0.22" stop-color="#742d65"/><stop offset="0.29" stop-color="#883f5a"/><stop offset="0.38" stop-color="#aa5b47"/><stop offset="0.48" stop-color="#d9822d"/><stop offset="0.54" stop-color="#f99d1c"/><stop offset="0.75" stop-color="#e1e568"/><stop offset="0.99" stop-color="#65c4b3"/><stop offset="1" stop-color="#65c4b3"/></linearGradient><clipPath id="d"><path class="b" d="M16.58,19.09V61.66s0,5.7,5.71,5.7h80.91s5.71,0,5.71-5.7V19.09H16.58Z"/></clipPath><clipPath id="e"><rect class="b" x="23.47" y="26.52" width="80.21" height="31.64"/></clipPath><clipPath id="f"><rect class="b" x="22.54" y="22.71" width="81.47" height="40.83"/></clipPath><clipPath id="g"><rect class="b" x="129" y="26.35" width="88.67" height="106.77"/></clipPath><clipPath id="i"><rect class="b" x="120" y="19.35" width="106.67" height="114.77"/></clipPath><filter id="k" x="62.77" y="-33.85" width="221.13" height="221.15" filterUnits="userSpaceOnUse" color-interpolation-filters="sRGB"><feFlood flood-color="#fff" result="bg"/><feBlend in="SourceGraphic" in2="bg"/></filter><mask id="j" x="62.77" y="-33.85" width="221.13" height="221.15" maskUnits="userSpaceOnUse"><g class="o"><rect class="a" x="94.99" y="-1.4" width="156.69" height="156.27" transform="translate(-0.87 151.48) rotate(-47.1)"/></g></mask><linearGradient id="m" x1="-184.13" y1="114.76" x2="-183.13" y2="114.76" gradientTransform="matrix(89.45, 89.45, 89.45, -89.45, 6335.55, 26770.79)" gradientUnits="userSpaceOnUse"><stop offset="0" stop-color="#b6008d"/><stop offset="0.98" stop-color="#b6008d"/><stop offset="1" stop-color="#b6008d"/></linearGradient></defs><title>main_300x250</title><path class="c" d="M187,47.55h-2.66v-10h2.69c2.16,0,3.28.91,3.28,2.52A2.27,2.27,0,0,1,189,42.22a2.4,2.4,0,0,1,1.62,2.44C190.61,46.62,189.13,47.55,187,47.55Zm0-8.25h-0.47v2.27H187a1.06,1.06,0,0,0,1.22-1.14A1,1,0,0,0,187,39.3ZM187,43.18h-0.42v2.63H187A1.32,1.32,0,1,0,187,43.18Z"/><path class="c" d="M194.85,47.55l-0.13-.75a2.73,2.73,0,0,1-1.87.9,1.55,1.55,0,0,1-1.67-1.81V40.46h2.08v4.86a0.44,0.44,0,0,0,.47.51,1.37,1.37,0,0,0,.8-0.36v-5h2.09v7.09h-1.76Z"/><path class="c" d="M200.16,47.66c-1.55,0-2.25-.55-2.25-2.3V42.24h-0.8V40.46h0.8V38.29l2-.32v2.49H201l0.29,1.78h-1.39V45.1a0.6,0.6,0,0,0,.64.74,2.82,2.82,0,0,0,.52,0l0.27,1.72A4.82,4.82,0,0,1,200.16,47.66Z"/><path class="c" d="M204,43.22v4.33h-2.09V40.46h1.75l0.16,1a2.36,2.36,0,0,1,1.65-1.17l0.34,2.2A3.11,3.11,0,0,0,204,43.22Z"/><path class="c" d="M209.29,47.55l-0.11-.74a2.33,2.33,0,0,1-1.73.87,1.62,1.62,0,0,1-1.62-1.91c0-1.58,1.19-2.37,3.18-2.69V42.82a0.73,0.73,0,0,0-.86-0.87,3.91,3.91,0,0,0-1.66.54l-0.26-1.62a6.07,6.07,0,0,1,2.49-.52c1.63,0,2.35.68,2.35,2.37v4.83h-1.77ZM209,44.16a1.41,1.41,0,0,0-1.26,1.33,0.57,0.57,0,0,0,.52.68A1.09,1.09,0,0,0,209,45.8V44.16Z"/><path class="c" d="M215.28,47.55V42.7a0.46,0.46,0,0,0-.46-0.52,1.36,1.36,0,0,0-.82.38v5h-2.09V40.46h1.76l0.13,0.75a2.76,2.76,0,0,1,1.86-.9,1.55,1.55,0,0,1,1.69,1.81v5.42h-2.07Z"/><path class="c" d="M220.29,47.69a4.76,4.76,0,0,1-2.38-.64l0.27-1.69a4.54,4.54,0,0,0,2.09.71,0.5,0.5,0,0,0,.6-0.48,1.41,1.41,0,0,0-1-.91,2.47,2.47,0,0,1-1.8-2.24,2.1,2.1,0,0,1,2.3-2.13,4.46,4.46,0,0,1,2.06.48l-0.26,1.68a4.1,4.1,0,0,0-1.7-.52,0.42,0.42,0,0,0-.49.41,1.37,1.37,0,0,0,1,.82c1,0.46,1.86,1.07,1.86,2.29A2.2,2.2,0,0,1,220.29,47.69Z"/><path class="c" d="M226,47.55v-10h2.38v10H226Z"/><path class="c" d="M231.57,47.69a4.76,4.76,0,0,1-2.38-.64l0.27-1.69a4.54,4.54,0,0,0,2.09.71,0.5,0.5,0,0,0,.6-0.48,1.41,1.41,0,0,0-1-.91,2.47,2.47,0,0,1-1.8-2.24,2.1,2.1,0,0,1,2.3-2.13,4.46,4.46,0,0,1,2.06.48l-0.26,1.68a4.1,4.1,0,0,0-1.7-.52,0.42,0.42,0,0,0-.49.41,1.37,1.37,0,0,0,1,.82c1,0.46,1.86,1.07,1.86,2.29A2.2,2.2,0,0,1,231.57,47.69Z"/><path class="c" d="M236.72,47.55l2.56-10h2.82l2.45,9.72-2.42.39-0.46-2.18h-2.19l-0.43,2.08h-2.33Zm3.12-3.93h1.49L240.6,40.2Z"/><path class="c" d="M248.24,47.56h-2.36L244,40.62l2.19-.26,0.92,4.89,0.9-4.79h2.08Z"/><path class="c" d="M253.54,47.55l-0.11-.74a2.33,2.33,0,0,1-1.73.87,1.62,1.62,0,0,1-1.62-1.91c0-1.58,1.19-2.37,3.18-2.69V42.82a0.73,0.73,0,0,0-.86-0.87,3.91,3.91,0,0,0-1.66.54l-0.26-1.62a6.07,6.07,0,0,1,2.49-.52c1.63,0,2.35.68,2.35,2.37v4.83h-1.77Zm-0.29-3.38A1.41,1.41,0,0,0,252,45.49a0.57,0.57,0,0,0,.52.68,1.09,1.09,0,0,0,.74-0.38V44.16Z"/><path class="c" d="M257.25,39.69a1.17,1.17,0,0,1-1.17-1.19,1.17,1.17,0,0,1,2.35,0A1.18,1.18,0,0,1,257.25,39.69Zm-1,7.85V40.46h2.08v7.09H256.2Z"/><path class="c" d="M259.23,47.55V37.42l2.09-.32V47.55h-2.09Z"/><path class="c" d="M265.46,47.55l-0.11-.74a2.33,2.33,0,0,1-1.73.87A1.62,1.62,0,0,1,262,45.77c0-1.58,1.19-2.37,3.18-2.69V42.82a0.73,0.73,0,0,0-.86-0.87,3.9,3.9,0,0,0-1.66.54l-0.26-1.62a6.07,6.07,0,0,1,2.49-.52c1.63,0,2.35.68,2.35,2.37v4.83h-1.78Zm-0.29-3.38a1.41,1.41,0,0,0-1.26,1.33,0.57,0.57,0,0,0,.51.68,1.09,1.09,0,0,0,.74-0.38V44.16Z"/><path class="c" d="M270.51,47.63a6.59,6.59,0,0,1-2.43-.45V37.42l2.09-.32v3.85a2.12,2.12,0,0,1,1.49-.64c1.33,0,2.18,1.11,2.18,3.34C273.83,46.49,272.55,47.63,270.51,47.63Zm0.39-5.42a1.14,1.14,0,0,0-.73.35v3.27a1.15,1.15,0,0,0,.42.07c0.73,0,1.22-.59,1.22-2S271.42,42.21,270.9,42.21Z"/><path class="c" d="M274.56,47.55V37.42l2.09-.32V47.55h-2.09Z"/><path class="c" d="M279.42,44.64a1.39,1.39,0,0,0,1.43,1.48,3.63,3.63,0,0,0,1.83-.54l0.23,1.49a4.83,4.83,0,0,1-2.42.62c-2,0-3.12-1.26-3.12-3.67,0-2.08,1-3.7,2.86-3.7s2.69,1.49,2.69,3.54a5.82,5.82,0,0,1,0,.78h-3.46Zm0-1.27H281c0-1.08-.32-1.62-0.79-1.62S279.47,42.18,279.4,43.36Z"/><path class="c" d="M206.43,63.64c-1.76,0-2.95-1.27-2.95-3.67s1.2-3.7,3-3.7,2.95,1.3,2.95,3.69S208.19,63.64,206.43,63.64Zm0-5.64c-0.62,0-.9.74-0.9,2s0.3,2,.92,2,0.9-.72.9-1.94S207.06,58,206.43,58Z"/><path class="c" d="M213.46,63.5V58.65a0.46,0.46,0,0,0-.46-0.52,1.36,1.36,0,0,0-.82.38v5H210.1V56.41h1.76L212,57.16a2.76,2.76,0,0,1,1.86-.9,1.55,1.55,0,0,1,1.69,1.81V63.5h-2.08Z"/><path class="c" d="M221.59,63.62c-1.55,0-2.25-.55-2.25-2.3V58.19h-0.8V56.41h0.8V54.24l2-.32v2.49h1.1l0.29,1.78h-1.39v2.86a0.6,0.6,0,0,0,.64.74,2.82,2.82,0,0,0,.52,0l0.27,1.72A4.82,4.82,0,0,1,221.59,63.62Z"/><path class="c" d="M226.71,63.5V58.65a0.46,0.46,0,0,0-.46-0.52,1.36,1.36,0,0,0-.82.38v5h-2.09V53.37l2.09-.32V57a2.57,2.57,0,0,1,1.66-.72,1.55,1.55,0,0,1,1.69,1.81V63.5h-2.08Z"/><path class="c" d="M231.5,60.59a1.39,1.39,0,0,0,1.43,1.48,3.63,3.63,0,0,0,1.83-.54L235,63a4.83,4.83,0,0,1-2.42.62c-2,0-3.12-1.26-3.12-3.67,0-2.08,1-3.7,2.86-3.7S235,57.76,235,59.81a5.82,5.82,0,0,1,0,.78H231.5Zm0-1.27h1.59c0-1.08-.32-1.62-0.79-1.62S231.55,58.13,231.48,59.32Z"/><path class="c" d="M245.46,63.5l-0.24-7-1.19,7h-2.3l-1.19-7-0.27,7h-2.06l0.39-10h3.22L243,60.16l1.16-6.64h3.21l0.4,10h-2.26Z"/><path class="c" d="M250.36,60.59a1.39,1.39,0,0,0,1.43,1.48,3.63,3.63,0,0,0,1.83-.54L253.85,63a4.83,4.83,0,0,1-2.42.62c-2,0-3.12-1.26-3.12-3.67,0-2.08,1-3.7,2.86-3.7s2.69,1.49,2.69,3.54a5.82,5.82,0,0,1,0,.78h-3.46Zm0-1.27h1.59c0-1.08-.32-1.62-0.79-1.62S250.42,58.13,250.35,59.32Z"/><path class="c" d="M258.42,63.5l-0.1-.68a2.36,2.36,0,0,1-1.7.82c-1.3,0-2.19-1.11-2.19-3.34,0-2.76,1.29-3.95,3-3.95a2.65,2.65,0,0,1,.71.1V53.37l2.08-.32V63.5h-1.76Zm-0.32-5.34a0.87,0.87,0,0,0-.41-0.1c-0.73,0-1.22.61-1.22,2s0.37,1.68.92,1.68a1.18,1.18,0,0,0,.71-0.35V58.16Z"/><path class="c" d="M262.14,55.65A1.17,1.17,0,0,1,261,54.46a1.17,1.17,0,0,1,2.35,0A1.18,1.18,0,0,1,262.14,55.65Zm-1,7.85V56.41h2.08V63.5H261.1Z"/><path class="c" d="M263.94,60.3v-2h3.48v2h-3.48Z"/><path class="c" d="M271.83,63.66c-2.53,0-3.79-1.91-3.79-5.14s1.32-5.16,3.74-5.16a4.08,4.08,0,0,1,2.2.55L273.66,56a2.52,2.52,0,0,0-1.59-.61c-1,0-1.62,1.08-1.62,3.15s0.59,3.15,1.8,3.15a2.85,2.85,0,0,0,1.56-.61l0.31,2A4.69,4.69,0,0,1,271.83,63.66Z"/><path class="c" d="M278,63.5l-0.11-.74a2.33,2.33,0,0,1-1.73.87,1.62,1.62,0,0,1-1.62-1.91c0-1.58,1.19-2.37,3.18-2.69V58.77a0.73,0.73,0,0,0-.86-0.87,3.91,3.91,0,0,0-1.66.54l-0.26-1.62a6.08,6.08,0,0,1,2.49-.52c1.63,0,2.35.68,2.35,2.37V63.5H278Zm-0.29-3.38a1.41,1.41,0,0,0-1.26,1.33,0.57,0.57,0,0,0,.52.68,1.09,1.09,0,0,0,.74-0.38V60.12Z"/><path class="c" d="M280.62,63.5V53.37l2.09-.32V63.5h-2.09Z"/><path class="c" d="M191,79.61c-2.53,0-3.79-1.91-3.79-5.14s1.32-5.16,3.74-5.16a4.08,4.08,0,0,1,2.2.55l-0.31,2.05a2.52,2.52,0,0,0-1.59-.61c-1,0-1.62,1.08-1.62,3.15s0.59,3.15,1.8,3.15A2.85,2.85,0,0,0,193,77l0.32,2A4.7,4.7,0,0,1,191,79.61Z"/><path class="c" d="M196.61,79.6c-1.76,0-2.95-1.27-2.95-3.67s1.2-3.7,3-3.7,2.95,1.3,2.95,3.69S198.37,79.6,196.61,79.6Zm0-5.64c-0.62,0-.9.74-0.9,2s0.3,2,.92,2,0.9-.72.9-1.94S197.24,74,196.61,74Z"/><path class="c" d="M203.64,79.45V74.61a0.46,0.46,0,0,0-.46-0.52,1.36,1.36,0,0,0-.82.38v5h-2.09V72.37H202l0.13,0.75a2.75,2.75,0,0,1,1.86-.9A1.55,1.55,0,0,1,205.71,74v5.42h-2.08Z"/><path class="c" d="M209.21,79.57c-1.54,0-2.25-.55-2.25-2.3V74.15h-0.8V72.37H207V70.2l2-.32v2.49h1.1l0.29,1.78H209V77a0.6,0.6,0,0,0,.64.74,2.81,2.81,0,0,0,.51,0l0.27,1.72A4.83,4.83,0,0,1,209.21,79.57Z"/><path class="c" d="M213.06,75.13v4.33H211V72.37h1.75l0.16,1a2.36,2.36,0,0,1,1.65-1.17l0.34,2.2A3.1,3.1,0,0,0,213.06,75.13Z"/><path class="c" d="M218.34,79.45l-0.11-.74a2.33,2.33,0,0,1-1.73.87,1.62,1.62,0,0,1-1.62-1.91c0-1.58,1.19-2.37,3.18-2.69V74.72a0.73,0.73,0,0,0-.86-0.87,3.9,3.9,0,0,0-1.66.54l-0.26-1.62a6.07,6.07,0,0,1,2.49-.52c1.63,0,2.35.68,2.35,2.37v4.83h-1.78Zm-0.29-3.38a1.41,1.41,0,0,0-1.26,1.33,0.57,0.57,0,0,0,.51.68,1.09,1.09,0,0,0,.74-0.38V76.07Z"/><path class="c" d="M223.74,79.58c-1.92,0-3-1.29-3-3.66s1.16-3.67,3-3.67a3.55,3.55,0,0,1,1.73.41l-0.29,1.82a1.91,1.91,0,0,0-1.15-.41c-0.77,0-1.19.64-1.19,1.84s0.44,1.84,1.29,1.84a2.07,2.07,0,0,0,1.14-.39l0.26,1.71A3.2,3.2,0,0,1,223.74,79.58Z"/><path class="c" d="M228.92,79.57c-1.55,0-2.25-.55-2.25-2.3V74.15h-0.8V72.37h0.8V70.2l2-.32v2.49h1.1l0.29,1.78h-1.39V77a0.6,0.6,0,0,0,.64.74,2.82,2.82,0,0,0,.52,0l0.27,1.72A4.82,4.82,0,0,1,228.92,79.57Z"/><path class="c" d="M235.88,79.45h-2.49v-10h2.49c3.11,0,4.52,1.72,4.52,5S238.94,79.45,235.88,79.45Zm0.06-8.1h-0.19v6.21h0.17c1.22,0,2.06-.69,2.06-3.1S237.13,71.35,235.93,71.35Z"/><path class="c" d="M243.27,75.13v4.33h-2.09V72.37h1.75l0.16,1a2.36,2.36,0,0,1,1.65-1.17l0.34,2.2A3.11,3.11,0,0,0,243.27,75.13Z"/><path class="c" d="M249.2,79.45l-0.13-.75a2.73,2.73,0,0,1-1.87.9,1.55,1.55,0,0,1-1.67-1.81V72.37h2.08v4.86a0.44,0.44,0,0,0,.47.51,1.37,1.37,0,0,0,.8-0.36v-5H251v7.09H249.2Z"/><path class="c" d="M256.8,73.87a2.38,2.38,0,0,1,.13.8,2.44,2.44,0,0,1-2.63,2.43c-0.17,0-.33,0-0.47,0a0.73,0.73,0,0,0,0,.22c0,0.16.13,0.23,0.44,0.29,2.62,0.38,3.36.85,3.36,2.11,0,1.56-1.59,2.4-3.35,2.4s-3-.58-3-1.75a2,2,0,0,1,1.07-1.62A1,1,0,0,1,252,78a1.57,1.57,0,0,1,.8-1.24,2.3,2.3,0,0,1-1.14-2.07,2.43,2.43,0,0,1,2.63-2.45,2.79,2.79,0,0,1,1.8.62l1.43-.58,0.24,1.58Zm-3.39,5.34v0a1.4,1.4,0,0,0-.23.75c0,0.64.49,1,1.37,1a0.94,0.94,0,0,0,1.1-.75c0-.43-0.26-0.65-1.86-0.93Zm0.89-5.7c-0.43,0-.7.39-0.7,1.16s0.27,1.16.7,1.16,0.7-.39.7-1.16S254.71,73.51,254.3,73.51Z"/><path class="c" d="M261,79.45v-10h2.36v7.87h2.32L266,79.45h-5Z"/><path class="c" d="M267.56,71.6a1.17,1.17,0,0,1-1.17-1.19,1.17,1.17,0,0,1,2.35,0A1.18,1.18,0,0,1,267.56,71.6Zm-1,7.85V72.37h2.08v7.09h-2.08Z"/><path class="c" d="M271.6,79.6a4.74,4.74,0,0,1-2.38-.64l0.27-1.69a4.53,4.53,0,0,0,2.09.71,0.5,0.5,0,0,0,.6-0.48,1.41,1.41,0,0,0-1-.91,2.47,2.47,0,0,1-1.8-2.24,2.1,2.1,0,0,1,2.3-2.13,4.46,4.46,0,0,1,2.06.48l-0.26,1.68a4.1,4.1,0,0,0-1.7-.52,0.42,0.42,0,0,0-.49.41,1.37,1.37,0,0,0,1,.82c1,0.46,1.86,1.07,1.86,2.29A2.2,2.2,0,0,1,271.6,79.6Z"/><path class="c" d="M277.26,79.57c-1.55,0-2.25-.55-2.25-2.3V74.15h-0.8V72.37H275V70.2l2-.32v2.49h1.1l0.29,1.78H277V77a0.6,0.6,0,0,0,.64.74,2.82,2.82,0,0,0,.52,0l0.27,1.72A4.82,4.82,0,0,1,277.26,79.57Z"/><path class="c" d="M281.82,72.09l0.54,1.43-0.36.23-1.17-.93-1.19.93-0.36-.23,0.54-1.43-1.26-.85,0.12-.42,1.53,0.07,0.39-1.49h0.46l0.39,1.49,1.53-.07,0.12,0.42Z"/><g class="d"><rect class="e" y="-0.11" width="299.88" height="19.2"/></g><g class="f"><rect class="c" x="-331.52" y="16.96" width="637.96" height="50.67"/></g><g class="g"><path class="h" d="M55,33V30.59H53.18V33H49.43v4.61a2.77,2.77,0,0,1-.12,1.07,1.2,1.2,0,0,1-.53.57,1.8,1.8,0,0,1-.85.19,1.85,1.85,0,0,1-.82-0.17,1.18,1.18,0,0,1-.53-0.51,1.65,1.65,0,0,1-.16-0.48,3.41,3.41,0,0,1-.05-0.66V33H44.5v4.82a4.16,4.16,0,0,0,.1.94A2.63,2.63,0,0,0,46,40.61a4.12,4.12,0,0,0,1.89.39A4.8,4.8,0,0,0,49,40.89a3.52,3.52,0,0,0,.87-0.32,2.7,2.7,0,0,0,.67-0.5A2.59,2.59,0,0,0,51,39.41a3.56,3.56,0,0,0,.28-1.58V34.61h1.87v2.5h0v1a2.54,2.54,0,0,0,.5,1.5,2.68,2.68,0,0,0,.87.74,3.43,3.43,0,0,0,.48.21,7.6,7.6,0,0,0,2.16.29,3.32,3.32,0,0,0,.48,0V39.22H57.52c-0.79,0-2.49.29-2.49-1.78V34.62h3a2.46,2.46,0,0,1,1-1.29A3.36,3.36,0,0,1,59.41,33H55Z"/><path class="h" d="M63,39.63a2.27,2.27,0,0,0,.53.76,2.21,2.21,0,0,0,.79.46,30.19,30.19,0,0,0,5,0s0-1.75,0-2.25V35.75a2.68,2.68,0,0,0-.21-1.05,2.26,2.26,0,0,0-.62-0.84,3.06,3.06,0,0,0-1-.56A4.92,4.92,0,0,0,66,33.1c-0.39,0-2,0-2.43,0v1.63a12.67,12.67,0,0,1,3-.07,1.11,1.11,0,0,1,.52.3,1.14,1.14,0,0,1,.29.44,1.48,1.48,0,0,1,.09.51v0.21A13.35,13.35,0,0,0,65.83,36a4,4,0,0,0-1.23.18,2.74,2.74,0,0,0-1,.51,2.34,2.34,0,0,0-.62.82,2.59,2.59,0,0,0-.22,1.09,2.54,2.54,0,0,0,.19,1m2.08-1.9a1.88,1.88,0,0,1,1.07-.27,4.89,4.89,0,0,1,.69.05l0.61,0.11v1.78a9.39,9.39,0,0,1-1.65.16,1.49,1.49,0,0,1-.43-0.06A1,1,0,0,1,65,39.32,0.91,0.91,0,0,1,64.78,39a1,1,0,0,1-.09-0.45,0.93,0.93,0,0,1,.39-0.82M78.46,37a2.41,2.41,0,0,0,.66.38,7.56,7.56,0,0,0,.78.25l0.61,0.16A3.3,3.3,0,0,1,81,38a1.09,1.09,0,0,1,.36.26,0.58,0.58,0,0,1,.14.4,0.65,0.65,0,0,1-.12.4,0.93,0.93,0,0,1-.34.28,1.79,1.79,0,0,1-.51.16,3.79,3.79,0,0,1-.64.05,10.25,10.25,0,0,1-2.07-.2v1.51a12.36,12.36,0,0,0,2.23.19,5.42,5.42,0,0,0,1.33-.15,3,3,0,0,0,1-.47,2.21,2.21,0,0,0,.68-0.79,2.44,2.44,0,0,0,.24-1.12,2.07,2.07,0,0,0-.2-1,1.83,1.83,0,0,0-.51-0.62,2.38,2.38,0,0,0-.7-0.37c-0.26-.09-0.52-0.17-0.78-0.23l-0.52-.13A3.56,3.56,0,0,1,80.14,36a1,1,0,0,1-.38-0.27,0.64,0.64,0,0,1-.14-0.42A0.67,0.67,0,0,1,79.69,35a0.62,0.62,0,0,1,.2-0.24,1.12,1.12,0,0,1,.37-0.17,2.1,2.1,0,0,1,.55-0.06c0.17,0,2.08.1,2.25,0.16V33.23a14.88,14.88,0,0,0-2.4-.18,3.87,3.87,0,0,0-1.08.15,2.61,2.61,0,0,0-.9.45,2.17,2.17,0,0,0-.61.77,2.48,2.48,0,0,0-.23,1.1,2,2,0,0,0,.17.87,1.68,1.68,0,0,0,.45.59M60.3,36.53c0-2.08,1.7-1.78,2.49-1.78h0.16V33.13a3.36,3.36,0,0,0-.48,0,7.63,7.63,0,0,0-2.16.29,2.62,2.62,0,0,0-1.85,2.45v5H60.3V36.53Zm-17,2.77a2.56,2.56,0,0,0,.42-0.85,3,3,0,0,0,.12-0.82,2.34,2.34,0,0,0-.13-0.8,2.19,2.19,0,0,0-.36-0.64,2.28,2.28,0,0,0-.55-0.49,3.26,3.26,0,0,0-.71-0.34v0a2.35,2.35,0,0,0,1-.94,2.57,2.57,0,0,0,.3-1.24,2.53,2.53,0,0,0-.12-0.76,2.43,2.43,0,0,0-.38-0.72A2.83,2.83,0,0,0,42.29,31a3.37,3.37,0,0,0-.92-0.45,6.13,6.13,0,0,0-1.87-.23H35.87V40.8h3.81l0.63,0,0.51-.07,0.43-.08a4.19,4.19,0,0,0,1.28-.55,3.32,3.32,0,0,0,.81-0.75M37.78,32h1.57c0.28,0,.51,0,0.69,0a2.68,2.68,0,0,1,.49.09,1.25,1.25,0,0,1,.72.48,1.32,1.32,0,0,1,.21.74,1.4,1.4,0,0,1-.18.71,1.22,1.22,0,0,1-.61.5,3.29,3.29,0,0,1-1.16.16H37.78V32Zm4.05,6.16a1.11,1.11,0,0,1-.24.41,1.58,1.58,0,0,1-.43.33,2.52,2.52,0,0,1-.66.23,3.87,3.87,0,0,1-.62.09c-0.24,0-.53,0-0.86,0H37.78V36.26h1.81a7.55,7.55,0,0,1,.78,0,2.84,2.84,0,0,1,.53.1,1.45,1.45,0,0,1,.76.49,1.26,1.26,0,0,1,.24.76,1.58,1.58,0,0,1-.07.47m-10.4,1.75s0-4.82,0-6.2c0-3.49,1.43-6.39,6-6.42,1.41,0,5.61-.13,5.61-0.13s0.2-.12-0.28-0.18-5.52-.45-7.66-0.42a4.52,4.52,0,0,0-4.31,4.14c-0.05,1.41.39,8.14,0.48,8.9s0.17,0.31.17,0.31m43.21-5.06a0.88,0.88,0,0,1,.43.48,1.58,1.58,0,0,1,.08.39,5.24,5.24,0,0,1,0,.53v4.67H77v-5c0-.25,0-0.47,0-0.67a2.51,2.51,0,0,0-.1-0.53A2.45,2.45,0,0,0,76.52,34a2.18,2.18,0,0,0-.57-0.52,2.33,2.33,0,0,0-.71-0.3,3.37,3.37,0,0,0-.8-0.09c-0.49,0-4.24.18-4.24,0.18v7.65H72v-6a6.24,6.24,0,0,1,2.61-.09"/></g><g class="i"><path class="h" d="M45.84,54.51v0.32H45l0,0.73a0.51,0.51,0,0,1,.36-0.13,0.47,0.47,0,0,1,.42.22,1,1,0,0,1,.09.58c0,0.15,0,.59,0,0.71a0.61,0.61,0,0,1-.66.56,0.62,0.62,0,0,1-.64-0.74c0-.07,0-0.11,0-0.17h0.35c0,0.32,0,.58.3,0.58a0.27,0.27,0,0,0,.29-0.27c0-.08,0-0.64,0-0.65,0-.23,0-0.49-0.28-0.49a0.27,0.27,0,0,0-.25.35H44.64l0-1.6h1.15Z"/><path class="h" d="M58,54.51v0.32H57.19l0,0.73a0.51,0.51,0,0,1,.36-0.13,0.47,0.47,0,0,1,.42.22,1,1,0,0,1,.09.58c0,0.15,0,.59,0,0.71a0.61,0.61,0,0,1-.66.56,0.62,0.62,0,0,1-.64-0.74c0-.07,0-0.11,0-0.17h0.35c0,0.32,0,.58.3,0.58a0.27,0.27,0,0,0,.29-0.27c0-.08,0-0.64,0-0.65,0-.23,0-0.49-0.28-0.49a0.27,0.27,0,0,0-.25.35H56.8l0-1.6H58Z"/><path class="h" d="M46.54,57v0.47a0.49,0.49,0,0,1-.36.6V57.82c0.16-.05.16-0.18,0.16-0.36H46.18V57h0.36Z"/><path class="h" d="M51,57v0.47a0.49,0.49,0,0,1-.36.6V57.82c0.16-.05.16-0.18,0.16-0.36H50.67V57H51Z"/><path class="h" d="M52.37,57.48H52V55.15H51.51V54.87c0.24,0,.55,0,0.55-0.36h0.32v3Z"/><path class="h" d="M54.24,56.94a0.57,0.57,0,0,1-.64.57A0.58,0.58,0,0,1,53,57.11,4.73,4.73,0,0,1,52.92,56,3.51,3.51,0,0,1,53,54.84a0.68,0.68,0,0,1,1.2,0A3,3,0,0,1,54.26,56c0,0.17,0,.82,0,1M53.88,55.5c0-.49,0-0.7-0.29-0.7s-0.3.25-.3,0.42,0,0.29,0,.93c0,0.15,0,.49,0,0.61s0,0.42.29,0.42,0.29-.2.3-0.44c0-.08,0-0.27,0-0.74V55.5Z"/><path class="h" d="M54.9,57v0.47a0.49,0.49,0,0,1-.36.6V57.82c0.16-.05.16-0.18,0.16-0.36H54.54V57H54.9Z"/><path class="h" d="M56.23,57.48H55.86V55.15H55.37V54.87c0.24,0,.55,0,0.55-0.36h0.32v3Z"/><path class="h" d="M58.67,57v0.47a0.49,0.49,0,0,1-.36.6V57.82c0.16-.05.16-0.18,0.16-0.36H58.31V57h0.36Z"/><path class="h" d="M60.78,57a0.45,0.45,0,0,0,.1.45H60.47V57.21a0.45,0.45,0,0,1-.43.29,0.48,0.48,0,0,1-.25-0.06A0.5,0.5,0,0,1,59.57,57a0.62,0.62,0,0,1,.35-0.6,3.07,3.07,0,0,0,.53-0.4c0-.17,0-0.37-0.26-0.37a0.24,0.24,0,0,0-.25.3c0,0.06,0,.11,0,0.16H59.64a1.61,1.61,0,0,1,0-.42,0.65,0.65,0,0,1,1-.15,0.64,0.64,0,0,1,.13.53v1Zm-0.33-.75a2.1,2.1,0,0,1-.28.23,0.5,0.5,0,0,0-.26.45,0.25,0.25,0,0,0,.23.31,0.3,0.3,0,0,0,.18-0.06,0.46,0.46,0,0,0,.13-0.4V56.27Z"/><path class="h" d="M62.35,57.47H62V56.1c0-.3,0-0.5-0.25-0.5s-0.28.28-.28,0.51v1.35H61.15v-2.1h0.32v0.19a0.56,0.56,0,0,1,.45-0.23c0.44,0,.44.37,0.44,0.66v1.48Z"/><path class="h" d="M63.93,57.47H63.61V57.24a0.47,0.47,0,0,1-.44.26l-0.13,0c-0.34-.09-0.35-0.44-0.35-1.06a3.55,3.55,0,0,1,.05-0.75,0.46,0.46,0,0,1,.45-0.35,0.44,0.44,0,0,1,.4.21v-1h0.34v3ZM63.3,55.6c-0.25,0-.26.26-0.27,0.42s0,0.23,0,.57c0,0.09,0,.2,0,0.33a0.29,0.29,0,0,0,.27.32c0.28,0,.28-0.28.29-0.81s0-.83-0.29-0.83"/><path class="h" d="M66.14,57.47h-1.3V57.11l0.61-1a1.4,1.4,0,0,0,.3-0.87,0.32,0.32,0,0,0-.27-0.4c-0.26,0-.26.25-0.26,0.42v0.34H64.88V55.19A0.76,0.76,0,0,1,65,54.64a0.61,0.61,0,0,1,.44-0.17,0.57,0.57,0,0,1,.44.17,0.8,0.8,0,0,1,.19.6,1.59,1.59,0,0,1-.28.89l-0.61,1h0.92v0.32Z"/><path class="h" d="M67.71,56.94a0.57,0.57,0,0,1-.64.57,0.58,0.58,0,0,1-.63-0.39A4.84,4.84,0,0,1,66.39,56a3.48,3.48,0,0,1,.06-1.14,0.61,0.61,0,0,1,.6-0.37,0.62,0.62,0,0,1,.6.36A3,3,0,0,1,67.73,56c0,0.17,0,.82,0,1M67.35,55.5c0-.49,0-0.7-0.29-0.7s-0.3.25-.3,0.42,0,0.29,0,.93c0,0.15,0,.49,0,0.61s0,0.42.29,0.42,0.29-.2.3-0.44c0-.08,0-0.27,0-0.74V55.5Z"/><path class="h" d="M70.61,57.47H70.27V56.09a1.35,1.35,0,0,0,0-.33A0.24,0.24,0,0,0,70,55.59c-0.27,0-.27.28-0.27,0.5v1.38H69.39V56.09c0-.28,0-0.5-0.26-0.5s-0.27.26-.27,0.51v1.37H68.52v-2.1h0.32v0.21a0.53,0.53,0,0,1,.45-0.25,0.43,0.43,0,0,1,.41.25,0.51,0.51,0,0,1,.44-0.25,0.45,0.45,0,0,1,.33.13,0.79,0.79,0,0,1,.14.64v1.37Z"/><path class="h" d="M72.13,56.69c0,0.38,0,.82-0.61.82A0.49,0.49,0,0,1,71,57.17a2.81,2.81,0,0,1,0-.7c0-.75,0-1.14.62-1.14s0.57,0.38.57,0.8H71.81c0-.36,0-0.54-0.26-0.54s-0.27.18-.27,0.77c0,0.08,0,.38,0,0.56a0.27,0.27,0,0,0,.26.32c0.25,0,.27-0.2.27-0.55h0.32Z"/><path class="h" d="M73.66,55.37v2a1.41,1.41,0,0,1,0,.47,0.61,0.61,0,0,1-.62.34,0.51,0.51,0,0,1-.57-0.54h0.31a0.25,0.25,0,0,0,.29.27c0.29,0,.29-0.23.29-0.42V57.25a0.5,0.5,0,0,1-.42.23,0.43,0.43,0,0,1-.42-0.28,2.43,2.43,0,0,1-.06-0.83,3,3,0,0,1,0-.65,0.46,0.46,0,0,1,.48-0.39,0.42,0.42,0,0,1,.41.23V55.37h0.31Zm-0.34.54A0.3,0.3,0,0,0,73,55.57c-0.28,0-.28.3-0.28,0.63s0,0.58,0,.73a0.25,0.25,0,0,0,.26.29A0.28,0.28,0,0,0,73.31,57a5.11,5.11,0,0,0,0-.52s0-.47,0-0.53"/><polygon class="h" points="74.22 57.47 73.86 57.47 74.71 54.51 75.05 54.51 74.22 57.47"/><path class="h" d="M76.46,57.47H76.12V56.21c0-.41,0-0.61-0.26-0.61s-0.28.28-.28,0.61v1.26H75.25v-3h0.33v1.05A0.49,0.49,0,0,1,76,55.33a0.43,0.43,0,0,1,.34.15,0.86,0.86,0,0,1,.11.54v1.44Z"/><path class="h" d="M77.93,57.13a0.48,0.48,0,0,1-.55.37,0.54,0.54,0,0,1-.5-0.24,1.58,1.58,0,0,1-.08-0.79,4.17,4.17,0,0,1,0-.77,0.49,0.49,0,0,1,.55-0.37,0.52,0.52,0,0,1,.52.27,1.77,1.77,0,0,1,.07.84,4.07,4.07,0,0,1,0,.69m-0.31-1.23a0.25,0.25,0,0,0-.23-0.3c-0.25,0-.25.21-0.25,0.64,0,0.06,0,.47,0,0.61s0,0.39.23,0.39,0.25-.22.25-0.81c0-.18,0-0.42,0-0.53"/><path class="h" d="M79.51,57.47H79.19V57.27a0.52,0.52,0,0,1-.44.23,0.39,0.39,0,0,1-.34-0.16,1.14,1.14,0,0,1-.1-0.65V55.37h0.33v1.58a0.26,0.26,0,0,0,.24.31c0.29,0,.29-0.29.29-0.51V55.37h0.33v2.1Z"/><path class="h" d="M96.15,39.64l-0.35.1-0.41.08L95,39.88l-0.39,0a4,4,0,0,1-1.22-.17,2.28,2.28,0,0,1-1.5-1.43A3.69,3.69,0,0,1,91.66,37a3.56,3.56,0,0,1,.23-1.33,2.68,2.68,0,0,1,.61-0.94,2.51,2.51,0,0,1,.91-0.57A3.33,3.33,0,0,1,94.55,34a4.35,4.35,0,0,1,.8.07,5.93,5.93,0,0,1,.73.19l0.18,0.06V33.19l-0.08,0L95.85,33l-0.41-.09L95,32.89l-0.48,0a4.37,4.37,0,0,0-1.68.31,3.65,3.65,0,0,0-1.28.86,3.75,3.75,0,0,0-.81,1.32,5.26,5.26,0,0,0,0,3.33,3.31,3.31,0,0,0,.78,1.25,3.43,3.43,0,0,0,1.28.79,5.1,5.1,0,0,0,1.72.27,5.77,5.77,0,0,0,.93-0.07,3.93,3.93,0,0,0,.81-0.21l0.09,0v-1.1Z"/><rect class="h" x="93.16" y="35.07" width="0.62" height="3.86"/><rect class="h" x="94.39" y="35.06" width="0.62" height="3.86"/><rect class="h" x="95.62" y="35.07" width="0.62" height="3.86"/><path class="h" d="M84.42,34.79a0.8,0.8,0,1,1,0-1.6,0.78,0.78,0,0,1,.81.79,0.77,0.77,0,0,1-.79.81m0-1.46a0.66,0.66,0,0,0-.67.66,0.67,0.67,0,0,0,.68.66,0.66,0.66,0,0,0,0-1.32m0.38,1.12H84.57l-0.19-.36H84.31v0.06c0,0.07,0,.21,0,0.29v0H84.11l0,0c0-.16,0-0.33,0-0.39s0-.35,0-0.53v0h0.24a0.68,0.68,0,0,1,.26,0,0.25,0.25,0,0,1,.15.25,0.25,0.25,0,0,1-.17.25l0.23,0.39v0Zm-0.48-.8v0.12s0,0.08,0,.15h0c0.13,0,.19,0,0.19-0.14s0-.13-0.17-0.13h0Z"/><path class="h" d="M76,44s-0.2.12,0.28,0.18,5.53,0.45,7.68.42a4.53,4.53,0,0,0,4.32-4.15c0.05-1.41-.39-8.16-0.48-8.93s-0.17-.31-0.17-0.31,0,4.83,0,6.21c0,3.5-1.43,6.41-6,6.44C80.24,43.86,76,44,76,44"/><path class="h" d="M25.15,53a5,5,0,0,1-1.1-1.63,7.46,7.46,0,0,1-.59-2.81,6.25,6.25,0,0,1,.41-2.24,5.94,5.94,0,0,1,1.26-2.06v0.58a5.22,5.22,0,0,0-.91,1.85,6.47,6.47,0,0,0-.3,1.93,8.12,8.12,0,0,0,.3,2,5,5,0,0,0,.92,1.8V53Z"/><path class="h" d="M26.21,44.21v2.55a1.1,1.1,0,0,1,1-.51,1.13,1.13,0,0,1,1,1.39v2.67a1.13,1.13,0,0,1-1.1,1.24,1,1,0,0,1-.85-0.46v0.42H25.77v-7.3h0.44Zm1.53,3.4a0.76,0.76,0,0,0-.69-1,0.83,0.83,0,0,0-.83.94v2.5a0.92,0.92,0,0,0,.83,1A0.61,0.61,0,0,0,27.48,51a1.11,1.11,0,0,0,.26-0.83V47.62Z"/><path class="h" d="M29,46.3h0.43v3.91a0.78,0.78,0,0,0,.68,1A0.88,0.88,0,0,0,31,50.49V46.3h0.44v5.2H31V51a1.13,1.13,0,0,1-.94.52,1,1,0,0,1-.57-0.17A1.18,1.18,0,0,1,29,50.32v-4Z"/><path class="h" d="M32.81,46.77a1.13,1.13,0,0,1,1-.51,0.92,0.92,0,0,1,.9.68,2.81,2.81,0,0,1,.08.87v2.52a1.06,1.06,0,0,1-1.06,1.2,1,1,0,0,1-.89-0.44V53.2H32.37V46.31h0.45v0.46Zm1.5,0.7a0.69,0.69,0,0,0-.67-0.82,0.86,0.86,0,0,0-.83.68v3.21a0.82,0.82,0,0,0,.81.59,0.8,0.8,0,0,0,.69-1V47.47Z"/><path class="h" d="M36.07,47.22a2,2,0,0,1,1.09-1v0.59a1.43,1.43,0,0,0-1.08,1.07v3.67H35.65v-5.2h0.42v0.91Z"/><path class="h" d="M37.54,47.53a1.1,1.1,0,0,1,1.17-1.25c1.21,0,1.21,1,1.21,1.63v1H38v1.28a0.73,0.73,0,0,0,.77.88,0.66,0.66,0,0,0,.67-0.43,2.26,2.26,0,0,0,.07-1h0.43v0.58a1.1,1.1,0,0,1-1.2,1.23,1.13,1.13,0,0,1-1.18-1.27V47.53Zm1.93,0.1a0.78,0.78,0,1,0-1.5,0V48.6h1.5v-1Z"/><path class="h" d="M41.18,46.81a1,1,0,0,1,.36-0.39,1.12,1.12,0,0,1,.6-0.17,1.15,1.15,0,0,1,.54.13,1,1,0,0,1,.44,1v4.18H42.69V47.35a0.63,0.63,0,0,0-.64-0.71,0.94,0.94,0,0,0-.68.31,1,1,0,0,0-.19.34v4.23H40.75V46.3h0.44v0.51Z"/><path class="h" d="M43.87,47.53a1.15,1.15,0,0,1,1.24-1.25,1.1,1.1,0,0,1,1.19,1.28V50a1.68,1.68,0,0,1-.23,1,1.19,1.19,0,0,1-1,.49,1.36,1.36,0,0,1-.69-0.18,1.09,1.09,0,0,1-.51-1.1V47.53Zm2,0.08a0.76,0.76,0,0,0-.73-0.9,0.82,0.82,0,0,0-.81,1v2.51a0.74,0.74,0,0,0,.74.86,0.76,0.76,0,0,0,.8-0.9v-2.6Z"/><path class="h" d="M47.52,47.22a2,2,0,0,1,1.09-1v0.59a1.42,1.42,0,0,0-1.08,1.07v3.67H47.1v-5.2h0.42v0.91Z"/><path class="h" d="M49.55,46.77a1.13,1.13,0,0,1,1-.51,0.92,0.92,0,0,1,.9.68,2.81,2.81,0,0,1,.08.87v2.52a1.06,1.06,0,0,1-1.06,1.2,1,1,0,0,1-.89-0.44V53.2H49.11V46.31h0.45v0.46Zm1.5,0.7a0.69,0.69,0,0,0-.67-0.82,0.86,0.86,0,0,0-.83.68v3.21a0.82,0.82,0,0,0,.81.59,0.8,0.8,0,0,0,.69-1V47.47Z"/><path class="h" d="M52.84,44.2v2.51a1.19,1.19,0,0,1,.94-0.47,1.11,1.11,0,0,1,.65.21,1.1,1.1,0,0,1,.36.93v4.13H54.35V47.66a0.76,0.76,0,0,0-.68-1,0.85,0.85,0,0,0-.59.24,0.89,0.89,0,0,0-.24.46v4.14H52.39V44.2h0.45Z"/><path class="h" d="M55.65,44.89h0.43V45.7H55.65V44.89Zm0,1.41h0.43v5.21H55.65V46.3Z"/><path class="h" d="M57.48,46.81a1,1,0,0,1,.36-0.39,1.12,1.12,0,0,1,.6-0.17,1.15,1.15,0,0,1,.54.13,1,1,0,0,1,.44,1v4.18H59V47.35a0.63,0.63,0,0,0-.64-0.71,0.94,0.94,0,0,0-.68.31,1,1,0,0,0-.19.34v4.23H57.05V46.3h0.43v0.51Z"/><path class="h" d="M60.22,47.53a1.1,1.1,0,0,1,1.17-1.25c1.21,0,1.21,1,1.21,1.63v1H60.65v1.28a0.73,0.73,0,0,0,.76.88,0.66,0.66,0,0,0,.67-0.43,2.29,2.29,0,0,0,.07-1h0.44v0.58a1.1,1.1,0,0,1-1.2,1.23,1.14,1.14,0,0,1-.82-0.29,1.15,1.15,0,0,1-.36-1V47.53Zm1.93,0.1a0.78,0.78,0,1,0-1.5,0V48.6h1.5v-1Z"/><path class="h" d="M62.56,44.19a5,5,0,0,1,1.1,1.64,7.45,7.45,0,0,1,.59,2.8,6.45,6.45,0,0,1-.41,2.26,5.71,5.71,0,0,1-1.26,2V52.36a5.22,5.22,0,0,0,.91-1.85,6.38,6.38,0,0,0,.3-1.92,8,8,0,0,0-.3-2,4.79,4.79,0,0,0-.92-1.8v-0.6Z"/><polygon class="h" points="66.84 51.52 66.39 51.52 66.39 46.74 65.5 46.74 65.5 46.31 67.75 46.31 67.75 46.74 66.84 46.74 66.84 51.52"/><path class="h" d="M68.18,51.51H67.77V47.79h0.4v0.48a1.55,1.55,0,0,1,.68-0.57l0.07,0v0.53h0a0.94,0.94,0,0,0-.71.71v2.6Z"/><path class="h" d="M71.1,51.51H71a0.48,0.48,0,0,1-.55-0.25,1.06,1.06,0,0,1-.67.25,0.79,0.79,0,0,1-.76-0.9,1.24,1.24,0,0,1,.83-1.18l0.1-.05a2.77,2.77,0,0,0,.48-0.29V48.69c0-.32,0-0.54-0.41-0.54s-0.43.27-.43,0.8V49H69.22V49c0-.56,0-1.19.88-1.19a0.73,0.73,0,0,1,.79.85V51c0,0.06,0,.08.17,0.08H71.1v0.39Zm-0.62-2-0.29.17-0.07,0a0.92,0.92,0,0,0-.65.87,0.44,0.44,0,0,0,.42.5,0.75,0.75,0,0,0,.58-0.32V49.55Z"/><path class="h" d="M73.25,51.51H72.84v-3a0.39,0.39,0,0,0-.4-0.45,0.61,0.61,0,0,0-.44.2,0.63,0.63,0,0,0-.12.21v3h-0.4V47.78h0.4V48a0.79,0.79,0,0,1,.17-0.15,0.85,0.85,0,0,1,.45-0.12,0.87,0.87,0,0,1,.4.1,0.75,0.75,0,0,1,.34.71v3Z"/><path class="h" d="M74.58,51.52a0.9,0.9,0,0,1-.71-0.26,1.48,1.48,0,0,1-.21-1.07V50.14h0.4v0.37a0.5,0.5,0,0,0,.51.63,0.45,0.45,0,0,0,.48-0.56,1,1,0,0,0-.58-0.85,1.36,1.36,0,0,1-.68-1.13,0.73,0.73,0,0,1,.82-0.83,0.76,0.76,0,0,1,.81.92V49H75V48.94c0-.59,0-0.78-0.4-0.78a0.35,0.35,0,0,0-.4.42c0,0.3,0,.39.7,1a1.12,1.12,0,0,1,.57,1,0.82,0.82,0,0,1-.89,1"/><path class="h" d="M76.66,51.54a0.78,0.78,0,0,1-.77-1V48.76a0.8,0.8,0,0,1,.78-1,0.74,0.74,0,0,1,.59.25V46.32h0.4v5.19H77.28V51.25a0.76,0.76,0,0,1-.62.29m0.09-3.37a0.47,0.47,0,0,0-.45.58v1.76a0.52,0.52,0,0,0,.45.65,0.56,0.56,0,0,0,.52-0.48V48.77a0.6,0.6,0,0,0-.51-0.59"/><path class="h" d="M79.1,51.52a0.84,0.84,0,0,1-.87-0.94v-1.9a0.82,0.82,0,0,1,.87-0.92A0.93,0.93,0,0,1,80,49v0.78H78.63v0.84a0.46,0.46,0,0,0,.48.56,0.41,0.41,0,0,0,.42-0.27,1.57,1.57,0,0,0,0-.66V50.16H80v0.45a0.82,0.82,0,0,1-.89.91m-0.47-2.14h0.94V48.76a0.51,0.51,0,0,0-.47-0.62,0.52,0.52,0,0,0-.48.65v0.59Z"/><path class="h" d="M80.93,51.51H80.53V47.79h0.4v0.48a1.55,1.55,0,0,1,.68-0.57l0.07,0v0.53h0a0.94,0.94,0,0,0-.71.71v2.6Z"/><path class="h" d="M85.12,51.51H84.7V48.87a2,2,0,0,0,0-.48,0.36,0.36,0,0,0-.37-0.26,0.59,0.59,0,0,0-.55.41v3H83.35V48.6a0.65,0.65,0,0,0-.06-0.29,0.41,0.41,0,0,0-.35-0.18,0.61,0.61,0,0,0-.54.36v3H82V47.79h0.42V48A0.87,0.87,0,0,1,83,47.74a0.65,0.65,0,0,1,.62.38,0.87,0.87,0,0,1,.73-0.38,0.68,0.68,0,0,1,.69.52,2.57,2.57,0,0,1,0,.63v2.62Z"/><path class="h" d="M87.58,51.51H87.53A0.48,0.48,0,0,1,87,51.27a1.07,1.07,0,0,1-.67.25,0.79,0.79,0,0,1-.76-0.9,1.24,1.24,0,0,1,.83-1.18l0.1-.05A2.86,2.86,0,0,0,87,49.09V48.69c0-.32,0-0.54-0.41-0.54s-0.43.27-.43,0.8V49H85.7V49c0-.56,0-1.19.88-1.19a0.73,0.73,0,0,1,.79.85V51c0,0.06,0,.08.17,0.08h0.05v0.39Zm-0.62-2-0.29.16-0.07,0a0.92,0.92,0,0,0-.64.87,0.44,0.44,0,0,0,.42.5A0.75,0.75,0,0,0,87,50.81V49.55Z"/><rect class="h" x="87.95" y="46.32" width="0.41" height="5.19"/><path class="h" d="M91.36,51.59a1,1,0,0,1-1.12-1.08V49.75h0.46V50.2a1.13,1.13,0,0,0,.14.76,0.69,0.69,0,0,0,.55.22c0.43,0,.61-0.23.61-0.78a1.6,1.6,0,0,0-.73-1.33,2.1,2.1,0,0,1-.9-1.64,1,1,0,0,1,1-1.18,1,1,0,0,1,1,1.23v0.42H91.92V47.39c0-.31,0-0.74-0.55-0.74s-0.56.21-.56,0.71,0.08,0.66.85,1.45a1.85,1.85,0,0,1,.78,1.51,1,1,0,0,1-1.09,1.26"/><path class="h" d="M92.58,52.69H92.53V52.28h0.21a0.51,0.51,0,0,0,.53-0.46l0.09-.41-0.8-3.66H93l0.59,2.82,0.6-2.82H94.6v0.06l-0.93,4a0.9,0.9,0,0,1-1.07.81"/><path class="h" d="M95.66,51.52A0.9,0.9,0,0,1,95,51.26a1.47,1.47,0,0,1-.21-1.07V50.14h0.41v0.37a0.5,0.5,0,0,0,.51.63,0.45,0.45,0,0,0,.48-0.56,1,1,0,0,0-.58-0.85,1.36,1.36,0,0,1-.68-1.13,0.73,0.73,0,0,1,.82-0.83,0.76,0.76,0,0,1,.81.92V49H96.1V48.94c0-.59,0-0.78-0.4-0.78a0.35,0.35,0,0,0-.4.42c0,0.3,0,.39.69,1a1.12,1.12,0,0,1,.57,1,0.82,0.82,0,0,1-.89,1"/><path class="h" d="M97.65,51.53c-0.42,0-.59-0.14-0.59-0.48V48.18H96.68v-0.4h0.38V46.85h0.42v0.92H98v0.4H97.48v2.67c0,0.21,0,.29.22,0.29H98V51.5h0l-0.33,0"/><path class="h" d="M99.13,51.52a0.84,0.84,0,0,1-.87-0.94v-1.9a0.82,0.82,0,0,1,.87-0.92A0.93,0.93,0,0,1,100,49v0.78H98.66v0.84a0.46,0.46,0,0,0,.48.56,0.41,0.41,0,0,0,.42-0.27,1.54,1.54,0,0,0,0-.66V50.16H100v0.45a0.82,0.82,0,0,1-.89.91m-0.47-2.14H99.6V48.76a0.51,0.51,0,0,0-.47-0.62,0.52,0.52,0,0,0-.48.65v0.59Z"/><path class="h" d="M103.67,51.51h-0.41V48.87a2,2,0,0,0,0-.48,0.36,0.36,0,0,0-.37-0.26,0.59,0.59,0,0,0-.55.41v3H101.9V48.6a0.65,0.65,0,0,0-.06-0.29,0.41,0.41,0,0,0-.35-0.18,0.61,0.61,0,0,0-.54.36v3h-0.41V47.79H101V48a0.87,0.87,0,0,1,.63-0.27,0.65,0.65,0,0,1,.62.38,0.87,0.87,0,0,1,.73-0.38,0.68,0.68,0,0,1,.69.52,2.57,2.57,0,0,1,0,.63v2.62Z"/><path class="h" d="M80.22,57.47H79.88v-2.1H80.2v0.39a0.58,0.58,0,0,1,.57-0.43v0.35a0.49,0.49,0,0,0-.45.17,1.05,1.05,0,0,0-.09.61v1Z"/><path class="h" d="M48.49,54.79a0.32,0.32,0,0,1,0,.09,3.63,3.63,0,0,0-.15.36,6.44,6.44,0,0,0-.37,2.23h-0.4a6.54,6.54,0,0,1,.34-1.94l0.26-.68H47.21V54.52h1.28v0.27Z"/><rect class="h" x="48.39" y="56.97" width="0.35" height="0.49"/><path class="h" d="M50.31,54.52v0.32H49.5l0,0.73a0.51,0.51,0,0,1,.36-0.13,0.47,0.47,0,0,1,.41.22,1,1,0,0,1,.09.58c0,0.15,0,.58,0,0.71a0.61,0.61,0,0,1-.66.56A0.62,0.62,0,0,1,49,56.77c0-.07,0-0.11,0-0.17h0.35c0,0.32,0,.57.3,0.57A0.27,0.27,0,0,0,50,56.91c0-.08,0-0.64,0-0.65,0-.23,0-0.49-0.28-0.49a0.27,0.27,0,0,0-.25.35H49.12l0-1.6h1.15Z"/></g><g class="j"><g class="j"><g class="k"><g class="l"><g class="k"><path class="h" d="M212.51,129.84a2.38,2.38,0,0,0,.57-0.19,0.92,0.92,0,0,0,0-.12,1.07,1.07,0,0,1,.2-0.41,2.52,2.52,0,0,0,0-1.71,0.36,0.36,0,0,1,0-.08,0.74,0.74,0,0,0-.22,0,1.14,1.14,0,0,1-.57-0.14l-0.07,0a1.2,1.2,0,0,1-.57-0.39l0,0a1,1,0,0,1,0-1.33,1.48,1.48,0,0,0,0-1.25l0-.05a1.4,1.4,0,0,1,.41-1.88l0.24-.25,0.07-.06,0,0,0-.12a1,1,0,0,1,.22-0.44v0a0.66,0.66,0,0,0,.07-0.49,1.2,1.2,0,0,1,.33-1.1l0.19-.23a2.79,2.79,0,0,1,.42-0.43l0,0a0.81,0.81,0,0,0-.09-0.2l-0.07-.14a1.34,1.34,0,0,1-.21-0.78,0.57,0.57,0,0,0-.11-0.44,0.35,0.35,0,0,1-.09-0.14,0.88,0.88,0,0,1,.16-1,2.56,2.56,0,0,1,.34-0.34l0.11-.06a0.7,0.7,0,0,0,.26-0.61,0.35,0.35,0,0,1,.06-0.18,2.47,2.47,0,0,1,.58-0.55l0.21-.16,0,0,0,0,0.18-.18,0,0,0.05-.05,0.25-.24a3.12,3.12,0,0,1,.33-0.33,2.75,2.75,0,0,1,.32-0.32c0.08-.09.16-0.18,0.25-0.26l0.06-.06a0.36,0.36,0,0,0,0-.41l0-.05-0.12,0a0.93,0.93,0,0,1-.42-0.23,3.37,3.37,0,0,1-.3-0.28l-0.06-.06,0,0-0.2-.16-0.11,0a1.24,1.24,0,0,1-.56-0.38h0a1.11,1.11,0,0,1-.27-0.9,0.64,0.64,0,0,0,0-.35,1,1,0,0,1-.26-0.49,1.13,1.13,0,0,0,0-.13l0,0a1.19,1.19,0,0,1-.27-0.77,0.69,0.69,0,0,0-.07-0.32l-0.31-.44a3.45,3.45,0,0,0-.24-0.29l0,0-0.31-.31a2.89,2.89,0,0,1-.36-0.37l0-.08a1.94,1.94,0,0,1-.18-1.18,2.45,2.45,0,0,0,0-.51v-0.24a1.18,1.18,0,0,1-.26,0,0.35,0.35,0,0,1-.15-0.09l-4.7-4.57-11.9-11.57-22.64-22q-1.95-1.89-3.92-3.75l-1.78-1.69a1.09,1.09,0,0,1-.41-1.17,1.91,1.91,0,0,0,0-.23q0-15.54,0-31.09c0-.07,0-0.13,0-0.2a1.94,1.94,0,0,1,0-.64l0,0a3.72,3.72,0,0,0-.9,0H133.11a3.31,3.31,0,0,0-.4,0,4.22,4.22,0,0,1-.9,0c0,0.06,0,.11,0,0.17a2.08,2.08,0,0,1-.1.88,1.79,1.79,0,0,0,.27,1.67c0.75,1.48,1.47,3.23.55,5.19a4.29,4.29,0,0,0-.2,2.22v0.07c0.11,1.29.25,2.9-.85,4.07s-1.76,2.27-1,3.69a0.84,0.84,0,0,1,.06.51,0.94,0.94,0,0,0,0,.12,0.35,0.35,0,0,0,.21.33,12.5,12.5,0,0,1,3.36,3.58,5.83,5.83,0,0,1,1.2,4.73,4,4,0,0,0,.26,3.16,4.13,4.13,0,0,1,.43,1.11l0.08,0.28a1.34,1.34,0,0,1-.18,1.37,0.63,0.63,0,0,0-.21.43,0.94,0.94,0,0,0,.51.5,6.34,6.34,0,0,1,2.24,2.35,4,4,0,0,0,.9,1.1,13.06,13.06,0,0,1,2.44,2.86L142,68.38c0.85,1.2.89,1.41,0.19,2.59h0a3.08,3.08,0,0,1,2,1,3.47,3.47,0,0,0,1.22.82,7.7,7.7,0,0,0,.24-1.71l0-.24a1.19,1.19,0,0,1,1.22-1.15,1.53,1.53,0,0,1,1.44.68,6,6,0,0,1,2,.12,8.07,8.07,0,0,0,1.21.15,3.42,3.42,0,0,1,2.6.14,0.36,0.36,0,0,1,.31.59,0.42,0.42,0,0,1-.34.14h0a1.57,1.57,0,0,1-.65-0.18,0.68,0.68,0,0,0-.49-0.11,6.27,6.27,0,0,1-2.41.07,4.36,4.36,0,0,0-2.71.28c-0.45.36-.53,0.58-0.17,1.23,0.16,0.28.33,0.55,0.52,0.84a5.6,5.6,0,0,1,1.12,2.61,0.8,0.8,0,0,0,.38.38l0.14,0.09a0.84,0.84,0,0,1,.46.6,0.73,0.73,0,0,1-.27.59,0.83,0.83,0,0,1-.62.26,1,1,0,0,1-.67-0.38,8.41,8.41,0,0,0-.66-0.65,3.17,3.17,0,0,1-1.42-2.89,0.28,0.28,0,0,0-.27-0.05,0.31,0.31,0,0,0-.12,0,0.65,0.65,0,0,0,0,.18,2.06,2.06,0,0,1-.15,1.44,0.86,0.86,0,0,0,.23,1,2.14,2.14,0,0,1,.58,2.37,1.3,1.3,0,0,0,.42,1.47l0.78,0.89,0.55,0.64c0.54,0.61.79,0.76,1.26,0.46a0.94,0.94,0,0,1,.93,0,2.68,2.68,0,0,1,1.4,2.18,2.55,2.55,0,0,1-.89,2.34c-0.3.23-.31,0.25-0.3,0.38s0,0.36,0,.54c0.1,1.35.19,2.52,1.53,3.16a1.7,1.7,0,0,1,.8.83,10.34,10.34,0,0,0,1.07,1.69,10.65,10.65,0,0,1,1.2,1.92c0.06,0.13.11,0.26,0.16,0.39,0.32,0.8.56,1.29,1.28,1.39a0.91,0.91,0,0,1,.57.47,4.94,4.94,0,0,0,2,2,1.09,1.09,0,0,1,.53,1.62,2.73,2.73,0,0,0-.3.69,4.12,4.12,0,0,0,.84.34,2.11,2.11,0,0,1,1.38.95,2,2,0,0,1-.22,1.55,0.83,0.83,0,0,0-.11.84,4.5,4.5,0,0,1,.23,2.95c0,0.07,0,.13,0,0.2a1,1,0,0,0,0,.31,7,7,0,0,1,.6.41,2.12,2.12,0,0,0,1.88.66,4.16,4.16,0,0,1,2.89.35,4.07,4.07,0,0,0,2.51.25l0.14,0a1,1,0,0,1,1.06.13,4.89,4.89,0,0,0,.94.61,2.88,2.88,0,0,1,1.85,2.16,0.84,0.84,0,0,0,.56.4l0.39,0.16a5.56,5.56,0,0,1,.95.45,1.63,1.63,0,0,0,1.68.27c1.36-.51,2.07-0.11,2.42.32l0.15,0.18a2.84,2.84,0,0,1,.92,2.44,0.25,0.25,0,1,0,.37.33,2.28,2.28,0,0,1,.88-0.19,2.54,2.54,0,0,1,1.73.82,17.67,17.67,0,0,0,2.35,1.92,9.57,9.57,0,0,1,3.87,5.56c0,0.16.1,0.31,0.16,0.47a3.12,3.12,0,0,1,.1,2.6,0.21,0.21,0,0,0,0,.18,0.67,0.67,0,0,0,.38.31l0.19,0.07a0.93,0.93,0,0,1,.77,1.08,0.6,0.6,0,0,0,.08.48,0.83,0.83,0,0,0,.66.07,16.32,16.32,0,0,1,2-.21l1.07-.08,15.41-1.53a4.17,4.17,0,0,1,.87-0.12,3.61,3.61,0,0,1,.59-0.19"/><path class="m" d="M212.51,129.84l-0.12-.49a2,2,0,0,0,.45-0.14l0.24,0.44-0.46-.21v0h0a1.55,1.55,0,0,1,.3-0.6l0.38,0.32-0.47-.18a1.54,1.54,0,0,0,.1-0.56,2.81,2.81,0,0,0-.14-0.82h0l0-.19,0.5,0-0.21.45,0,0h0a1.62,1.62,0,0,1-.81-0.22l0.27-.42,0,0.5-0.19,0,0.16-.47-0.15.48a1.7,1.7,0,0,1-.81-0.55l0.39-.32-0.35.35L211.4,127l0.4-.3-0.39.31a1.6,1.6,0,0,1-.36-1,1.62,1.62,0,0,1,.31-0.93l0.41,0.29-0.46-.19a1.05,1.05,0,0,0,.09-0.41,1,1,0,0,0-.1-0.44l0.45-.21-0.45.22-0.05-.13,0.48-.14-0.46.2a2.51,2.51,0,0,1-.24-1,1.77,1.77,0,0,1,.82-1.49l0.28,0.41-0.38-.33,0.26-.28h0l0.07-.07,0.35,0.36-0.38-.32,0.12-.11,0.28,0.42-0.46-.19,0-.07,0.48,0.14-0.48-.14a1.47,1.47,0,0,1,.34-0.65l0.36,0.35-0.39-.31h0l0.06,0.05h-0.11l0-.05,0.06,0.05h-0.11v-0.18h0c0-.08,0-0.18,0-0.29a1.55,1.55,0,0,1,.52-1.22l0.33,0.38-0.38-.32,0.19-.23,0.38,0.32-0.39-.31a3.29,3.29,0,0,1,.5-0.51l0.32,0.39-0.34-.36,0.24,0.26-0.32-.13,0.08-.13,0.24,0.26-0.32-.13,0.46,0.19h-0.46l-0.07,0,0,0h0l-0.07,0h0l-0.08-.16,0.45-.21-0.4.3a1.82,1.82,0,0,1-.31-1.06h0l0-.09h0a0.85,0.85,0,0,1-.22-0.33h0a1.7,1.7,0,0,1-.12-0.61,1.31,1.31,0,0,1,.4-0.94l0.35,0.36L213,116a3.06,3.06,0,0,1,.4-0.4h0a0.85,0.85,0,0,1,.28-0.16l0.16,0.47-0.29-.41s0,0,.05-0.22h0a0.85,0.85,0,0,1,.15-0.44h0a2.94,2.94,0,0,1,.69-0.66h0l0.18-.14h0l0.08-.05,0.27,0.42-0.35-.35,0,0,0.2-.19,0.34,0.37-0.42-.28,0.1-.12,0.05-.05,0.27-.26,0.33,0.38-0.37-.33a3.6,3.6,0,0,1,.38-0.38l0.32,0.38-0.38-.32a3.24,3.24,0,0,1,.38-0.38l0.32,0.38-0.38-.32c0.1-.12.19-0.21,0.28-0.3h0l0.06-.06,0.35,0.36-0.45-.22h0.17l-0.14.1,0-.1h0.16l-0.14.1,0.41-.29-0.34.36-0.11-.13,0.41-.29-0.32.38,0.1-.12-0.05.17,0,0,0.1-.12-0.05.17h0a1.41,1.41,0,0,1-.63-0.36l0.36-.35-0.31.39a3.83,3.83,0,0,1-.34-0.32h0l-0.06-.06,0.36-.35-0.34.37-0.1-.12,0.41-.29-0.33.37L215,112l0.28-.42v0.5a0.86,0.86,0,0,1-.26,0h0a1.74,1.74,0,0,1-.78-0.53l0.38-.32-0.31.39-0.09-.09,0.39-.31-0.35.35a1.51,1.51,0,0,1-.42-1.12v-0.15h0v-0.1H214l-0.06,0,0,0H214l-0.06,0,0.42-.28-0.34.37a1.45,1.45,0,0,1-.41-0.72h0l0-.06,0.46-.2-0.35.35,0.17-.17-0.16.19h0l0.17-.17-0.16.19,0,0,0,0a1.67,1.67,0,0,1-.4-1.07h0l0-.07h0l-0.31-.44,0.41-.29-0.4.29-0.2-.24,0.37-.34-0.3.4-0.09-.08h0l-0.33-.34,0.37-.33-0.33.37a3.38,3.38,0,0,1-.42-0.43h0a0.84,0.84,0,0,1-.11-0.2l0.47-.18-0.43.25a2.08,2.08,0,0,1-.27-1.08c0-.15,0-0.28,0-0.4h0c0-.11,0-0.2,0-0.28v-0.41h0.5l0,0.5a1.68,1.68,0,0,1-.36-0.05h0a0.85,0.85,0,0,1-.37-0.21h0l-4.7-4.57-11.9-11.57-22.64-22q-1.95-1.89-3.92-3.75l-1.78-1.69,0.35-.36-0.28.42a1.46,1.46,0,0,1-.66-1.27,3.11,3.11,0,0,1,0-.38h0l0-.17h0q0-9,0-17.93,0-6.58,0-13.16V28.4l0.5,0-0.5,0c0-.07,0-0.16,0-0.26a2,2,0,0,1,.07-0.54l0.48,0.13L166,28l0,0,0.42-.28-0.1.49a2.18,2.18,0,0,0-.42,0h-0.36l-0.48,0H133l-0.29,0h-0.41a3.8,3.8,0,0,1-.59,0l0.08-.49h0.5v0.16h-0.5l0.5,0c0,0.08,0,.16,0,0.26a2.15,2.15,0,0,1-.14.83h0a0.86,0.86,0,0,0-.08.34,2.22,2.22,0,0,0,.33.91h0a7.85,7.85,0,0,1,1,3.52,4.94,4.94,0,0,1-.48,2.12h0a2.62,2.62,0,0,0-.2,1.14c0,0.25,0,.52,0,0.83h0v0.07h0c0,0.41.08,0.88,0.08,1.36a4.29,4.29,0,0,1-1.07,3.09h0a3.31,3.31,0,0,0-1.21,2.09,2.11,2.11,0,0,0,.3,1h0a1.17,1.17,0,0,1,.13.56,2.17,2.17,0,0,1,0,.24h0v0.06H131l0.06-.09,0,0.09H131l0.06-.09h0a13,13,0,0,1,3.49,3.72h0a6.84,6.84,0,0,1,1.41,3.94,5.52,5.52,0,0,1-.13,1.19h0a6.58,6.58,0,0,0-.18,1.39,2.52,2.52,0,0,0,.38,1.4h0a4.58,4.58,0,0,1,.49,1.24h0l0.08,0.27h0a2.57,2.57,0,0,1,.13.76,1.59,1.59,0,0,1-.42,1.09h0l-0.09.06H135.9l0.28,0v0H135.9l0.28,0h0s0,0,.27.14h0a6.84,6.84,0,0,1,2.41,2.52h0a3.56,3.56,0,0,0,.78,1h0a13.52,13.52,0,0,1,2.54,3h0l0.22,0.32h0a3.06,3.06,0,0,1,.77,1.67,3,3,0,0,1-.56,1.47L142.19,71v-0.5h0a3.55,3.55,0,0,1,2.36,1.15h0a3.07,3.07,0,0,0,1,.71l-0.14.48L145,72.67a7.26,7.26,0,0,0,.22-1.6h0l0-.24h0a1.7,1.7,0,0,1,1.66-1.61h0l0.26,0a2.08,2.08,0,0,1,1.63.87l-0.38.32-0.08-.49a4.23,4.23,0,0,1,.64,0,8.54,8.54,0,0,1,1.48.17,7.63,7.63,0,0,0,1.14.14v0.5l-0.15-.48a4.23,4.23,0,0,1,1.3-.21,3.85,3.85,0,0,1,1.67.38l-0.21.45,0-.5h0.07a0.86,0.86,0,0,1,.69.35h0a0.86,0.86,0,0,1,0,1.06l-0.38-.32,0.38,0.32a0.91,0.91,0,0,1-.7.32h0l0-.5V72h0a2,2,0,0,1-.85-0.22h0a1.1,1.1,0,0,1-.18-0.08V71.57l0.05,0.16H153V71.57l0.05,0.16h0a4.81,4.81,0,0,1-1.32.17,12.37,12.37,0,0,1-1.27-.09h0a11,11,0,0,0-1.1-.08,2.57,2.57,0,0,0-1.31.3l-0.24-.44L148.14,72a0.67,0.67,0,0,0-.21.2,1.08,1.08,0,0,0,.16.4h0c0.14,0.26.31,0.52,0.5,0.81h0a6.07,6.07,0,0,1,1.2,2.84H150l0.14,0.09-0.28.41,0.28-.42a1.32,1.32,0,0,1,.68,1h0v0.09a1.25,1.25,0,0,1-.44.91h0a1.34,1.34,0,0,1-.92.39h-0.06a1.46,1.46,0,0,1-1-.55,8,8,0,0,0-.62-0.61h0a3.84,3.84,0,0,1-1.61-2.88,3.49,3.49,0,0,1,0-.45l0.5,0.06-0.47.17,0.29-.1v0.37a0.93,0.93,0,0,1-.29-0.27l0.29-.1v0.37h0l0-.24,0.13,0.19-0.1.05,0-.24,0.13,0.19-0.29-.41,0.28-.42a0.67,0.67,0,0,0,.22.41v0h0a2.11,2.11,0,0,1,.1.63,3,3,0,0,1-.26,1.15l0,0.2a0.39,0.39,0,0,0,.16.29h0a2.66,2.66,0,0,1,.87,1.94,2.85,2.85,0,0,1-.17,1h0a0.86,0.86,0,0,0-.06.29,1.06,1.06,0,0,0,.38.68h0l0.79,0.89h0l0.55,0.63h0a1.59,1.59,0,0,0,.47.44l0.15-.07a1.37,1.37,0,0,1,.74-0.21,1.57,1.57,0,0,1,.68.16h0a3.17,3.17,0,0,1,1.69,2.58h0a3.75,3.75,0,0,1,0,.39,3,3,0,0,1-1.1,2.4h0l-0.1-.06h0c0,0.19,0,.37,0,0.55h0c0.12,1.4.18,2.23,1.25,2.75h0a2.2,2.2,0,0,1,1,1.07,9.91,9.91,0,0,0,1,1.61h0a11.1,11.1,0,0,1,1.25,2h0c0.06,0.14.12,0.28,0.17,0.41h0c0.35,0.82.44,1,.89,1.08h0a1.36,1.36,0,0,1,.91.69h0A4.46,4.46,0,0,0,160,99.57h0a1.67,1.67,0,0,1,.92,1h0a1.49,1.49,0,0,1,.08.48,1.84,1.84,0,0,1-.24.87,3.63,3.63,0,0,1-.24.44H160.1l0.42,0v0H160.1l0.42,0-0.5.06,0.39-.32a1.28,1.28,0,0,0,.61.18h0a2.56,2.56,0,0,1,1.68,1.22h0a1.61,1.61,0,0,1,.13.64,3.3,3.3,0,0,1-.35,1.31h0a1.81,1.81,0,0,0-.14.37l0,0h0a4.07,4.07,0,0,1,.43,1.88,7.57,7.57,0,0,1-.15,1.38h0c0,0.08,0,.16-0.05.23h0l0,0.17h-0.4l0.38-.12,0,0.12h-0.4l0.38-.12-0.48.15,0.25-.43a7.39,7.39,0,0,1,.65.44h0a2.3,2.3,0,0,0,1.2.62,0.81,0.81,0,0,0,.23,0h0a3.65,3.65,0,0,1,1.06-.16,5.71,5.71,0,0,1,2.16.53h0a3.89,3.89,0,0,0,1.47.31,3.25,3.25,0,0,0,.74-0.09h0l0.12,0h0a2.32,2.32,0,0,1,.62-0.1,1.33,1.33,0,0,1,.91.34h0a4.48,4.48,0,0,0,.85.54h0a3.38,3.38,0,0,1,2.11,2.53h0s0,0,.26,0h0l0.37,0.15h0a6,6,0,0,1,1,.49h0a1.51,1.51,0,0,0,.8.32,1.24,1.24,0,0,0,.44-0.09,3.79,3.79,0,0,1,1.33-.27,2.07,2.07,0,0,1,1.66.75h0l0.15,0.18h0a3.64,3.64,0,0,1,1.08,2.33,2.71,2.71,0,0,1-.05.53h0l0,0.16h-0.29l0.2-.17c0.15,0.17.07,0.17,0.09,0.17h-0.29l0.2-.17-0.38.32,0.23-.44-0.2.37v-0.43a0.37,0.37,0,0,1,.2.05l-0.2.37v-0.43l0.14,0h0a2.78,2.78,0,0,1,1.07-.23,3,3,0,0,1,2.07,1h0a17.2,17.2,0,0,0,2.29,1.87h0a10.07,10.07,0,0,1,4.07,5.83h0c0,0.14.1,0.29,0.15,0.45h0a5.08,5.08,0,0,1,.38,1.72,2.84,2.84,0,0,1-.3,1.28h0l-0.18-.09h0.19V130l-0.18-.09h-0.17l0.34-.13,0,0.13h-0.37l0.34-.13h0l0.13,0h0l0.13,0h0a1.44,1.44,0,0,1,1.12,1.38,1.85,1.85,0,0,1,0,.25h0v0.11h-0.11l0.05-.05,0.06,0.05h-0.11l0.05-.05h0l0,0,0.21,0h0a16.77,16.77,0,0,1,2.11-.22h0l1.06-.08h0L211,129.64l0,0.5-0.13-.48a4.64,4.64,0,0,1,1-.13l0,0.5-0.2-.46a4.08,4.08,0,0,1,.67-0.21h0l0.12,0.49,0.12,0.49a3.14,3.14,0,0,0-.51.16l-0.08,0H212a3.72,3.72,0,0,0-.77.1h0l-15.46,1.53h0l-1.09.08h0a15.88,15.88,0,0,0-2,.21h0a2.14,2.14,0,0,1-.4,0,1,1,0,0,1-.7-0.23h0a0.9,0.9,0,0,1-.25-0.67,1.8,1.8,0,0,1,0-.24h0v-0.11c0-.3-0.16-0.31-0.44-0.43h0l-0.24-.09h0a1.13,1.13,0,0,1-.64-0.59l0.47-.17-0.47.17a0.64,0.64,0,0,1,0-.22,0.8,0.8,0,0,1,.09-0.35h0a1.83,1.83,0,0,0,.2-0.83,4.18,4.18,0,0,0-.33-1.38h0c-0.06-.16-0.11-0.32-0.17-0.49h0a9.06,9.06,0,0,0-3.67-5.29h0a18.15,18.15,0,0,1-2.42-2h0a2.06,2.06,0,0,0-1.38-.69,1.78,1.78,0,0,0-.69.15h0a1.38,1.38,0,0,1-.52.13,0.53,0.53,0,0,1-.27-0.06l-0.08,0-0.06-.07a0.7,0.7,0,0,1-.15-0.48,1.84,1.84,0,0,1,0-.35h0a1.7,1.7,0,0,0,0-.33,2.72,2.72,0,0,0-.85-1.69h0l-0.15-.18h0a1.06,1.06,0,0,0-.88-0.38,2.81,2.81,0,0,0-1,.21,2.23,2.23,0,0,1-.79.16,2.46,2.46,0,0,1-1.33-.48h0a5.12,5.12,0,0,0-.87-0.4h0l-0.41-.17h0a1.18,1.18,0,0,1-.86-0.8h0a2.4,2.4,0,0,0-1.59-1.79h0a5.32,5.32,0,0,1-1-.68h0a0.32,0.32,0,0,0-.24-0.09,1.41,1.41,0,0,0-.35.07h0l-0.16,0h0a4.26,4.26,0,0,1-1,.11,4.89,4.89,0,0,1-1.84-.38h0a4.78,4.78,0,0,0-1.79-.45,2.64,2.64,0,0,0-.77.11h0a1.81,1.81,0,0,1-.52.08,3.12,3.12,0,0,1-1.8-.82h0a6.57,6.57,0,0,0-.55-0.38l-0.17-.1-0.06-.18,0-.18a1.85,1.85,0,0,1,.07-0.4h0l0-.17h0a6.6,6.6,0,0,0,.13-1.2,3.07,3.07,0,0,0-.32-1.43h0a1.07,1.07,0,0,1-.13-0.49,1.94,1.94,0,0,1,.23-0.78h0a2.42,2.42,0,0,0,.26-0.9,0.61,0.61,0,0,0,0-.25h0a1.7,1.7,0,0,0-1.09-.68h0a2.9,2.9,0,0,1-1.06-.5l-0.09-.11,0-.14v-0.07a2.6,2.6,0,0,1,.36-0.92A0.85,0.85,0,0,0,160,101l0-.16h0a0.68,0.68,0,0,0-.39-0.38h0a5.41,5.41,0,0,1-2.25-2.19h0a0.74,0.74,0,0,0-.22-0.25h0a2.18,2.18,0,0,1-1.67-1.7h0L155.29,96h0a10.2,10.2,0,0,0-1.14-1.83h0A10.79,10.79,0,0,1,153,92.36a1.2,1.2,0,0,0-.57-0.59h0c-1.61-.76-1.73-2.27-1.82-3.57h0c0-.18,0-0.36,0-0.53h0v-0.1a0.94,0.94,0,0,1,.5-0.73h0a2,2,0,0,0,.71-1.61,2.75,2.75,0,0,0,0-.29h0a2.19,2.19,0,0,0-1.12-1.78h0a0.58,0.58,0,0,0-.25-0.06,0.36,0.36,0,0,0-.2.06,1.27,1.27,0,0,1-.68.23,1.75,1.75,0,0,1-1.22-.78h0L147.75,82h0L147,81.09h0a2,2,0,0,1-.64-1.35,1.85,1.85,0,0,1,.11-0.62h0a1.85,1.85,0,0,0,.11-0.62,1.66,1.66,0,0,0-.56-1.22h0a1.39,1.39,0,0,1-.47-1,1.51,1.51,0,0,1,.12-0.57,2.08,2.08,0,0,0,.19-0.77,1.11,1.11,0,0,0-.05-0.33h0a1.23,1.23,0,0,1-.05-0.23V74.3l0.49,0-0.27.4a0.85,0.85,0,0,1-.22-0.39l0.49,0-0.27.4-0.61-.41,0.6-.42a0.76,0.76,0,0,1,.34-0.12l0.07,0.5-0.07-.49h0.16a0.64,0.64,0,0,1,.65.39l0,0.11,0,0.12a2.49,2.49,0,0,0,0,.32,2.88,2.88,0,0,0,1.28,2.14h0a8.84,8.84,0,0,1,.7.68,0.48,0.48,0,0,0,.32.21h0a0.35,0.35,0,0,0,.24-0.12h0a0.27,0.27,0,0,0,.12-0.18h0a0.44,0.44,0,0,0-.24-0.22h0l-0.14-.1h0a1.11,1.11,0,0,1-.59-0.75h0a5.14,5.14,0,0,0-1-2.38h0c-0.19-.29-0.37-0.57-0.54-0.87h0a1.87,1.87,0,0,1-.29-0.88,1.27,1.27,0,0,1,.58-1l0,0,0,0a3.57,3.57,0,0,1,1.8-.42,11.81,11.81,0,0,1,1.21.08h0a11.49,11.49,0,0,0,1.17.08,3.81,3.81,0,0,0,1-.13l0.14,0.48-0.16-.47a0.83,0.83,0,0,1,.26,0,1.44,1.44,0,0,1,.59.17h0a1.12,1.12,0,0,0,.45.14h0.05v0.09l-0.06-.05,0.06,0v0.09l-0.06-.05h0l0.11,0.09H154l0-.09,0.11,0.09h0l-0.12.09,0-.09h0.15l-0.12.09h0l0.11-.08v0.14l-0.11-.06,0.11-.08v0.14h0v0h-0.13l-0.12-.06A2.85,2.85,0,0,0,152.7,71a3.23,3.23,0,0,0-1,.16l-0.08,0h-0.08a8.5,8.5,0,0,1-1.29-.16,7.65,7.65,0,0,0-1.31-.15,3.24,3.24,0,0,0-.49,0l-0.28,0L148,70.73a1.09,1.09,0,0,0-.86-0.52H147c-0.46.1-.72,0.1-0.78,0.69h0l0,0.24h0a8.15,8.15,0,0,1-.26,1.81l-0.14.48-0.48-.14a3.91,3.91,0,0,1-1.41-.92h0a2.62,2.62,0,0,0-1.7-.9h-0.89l0.45-.76a2.22,2.22,0,0,0,.42-1,2.37,2.37,0,0,0-.59-1.09h0l-0.22-.32h0A12.62,12.62,0,0,0,139,65.59h0a4.53,4.53,0,0,1-1-1.23h0A5.84,5.84,0,0,0,136,62.19h0a1.34,1.34,0,0,1-.76-0.86h0V61.22a1.14,1.14,0,0,1,.35-0.74h0a0.58,0.58,0,0,0,.16-0.42,1.63,1.63,0,0,0-.09-0.47h0l-0.09-.3,0.48-.13-0.48.14a3.7,3.7,0,0,0-.38-1h0a3.53,3.53,0,0,1-.53-1.94,7.54,7.54,0,0,1,.21-1.6h0a4.52,4.52,0,0,0,.11-1,5.85,5.85,0,0,0-1.22-3.37h0A12,12,0,0,0,130.48,47h0a0.88,0.88,0,0,1-.44-0.75h0V46.08h0V45.86h0a3.11,3.11,0,0,1-.42-1.49,4.21,4.21,0,0,1,1.49-2.78h0a3.3,3.3,0,0,0,.79-2.4c0-.43,0-0.86-0.07-1.27h0V37.84h0c0-.33,0-0.63,0-0.92a3.6,3.6,0,0,1,.3-1.56h0a3.93,3.93,0,0,0,.39-1.69,6.91,6.91,0,0,0-.93-3.06h0a3.05,3.05,0,0,1-.44-1.36,1.86,1.86,0,0,1,.15-0.72h0a1.18,1.18,0,0,0,.07-0.45V27.85h0V27.08l0.58,0.09a2.81,2.81,0,0,0,.44,0h0.36l0.34,0h0.12l0,0.5v-0.5h32.81a3.16,3.16,0,0,1,.61.05l0.2,0,0.12,0.17,0,0L167,27.65l-0.06.22a1,1,0,0,0,0,.28v0.2h0v0.22q0,6.58,0,13.16,0,9,0,17.93h0a2.35,2.35,0,0,1,0,.3h0a2.19,2.19,0,0,0,0,.26,0.44,0.44,0,0,0,.21.43l0,0,0,0,1.78,1.69q2,1.87,3.93,3.76l22.64,22,11.9,11.57,4.7,4.57h0l-0.1.11,0-.14,0.07,0-0.1.11,0-.14h0l0.15,0,0.46,0,0,0.7h-0.5l0.49-.07a1.87,1.87,0,0,1,0,.26c0,0.12,0,.24,0,0.35h0c0,0.12,0,.23,0,0.33a1.08,1.08,0,0,0,.13.57l0,0v0l-0.15.06,0.13-.1,0,0-0.15.06,0.13-.1-0.4.3,0.39-.31a2.41,2.41,0,0,0,.3.31l0,0,0,0,0.28,0.29h0l-0.08.08,0.07-.09h0l-0.08.08,0.07-.09,0,0,0,0a3.94,3.94,0,0,1,.27.33h0l0.31,0.44-0.41.29,0.4-.29a1.08,1.08,0,0,1,.16.58h0a0.71,0.71,0,0,0,.14.47l-0.37.34,0.32-.38,0.05,0,0.07,0.07,0,0.09a1.53,1.53,0,0,1,.07.19h0a0.49,0.49,0,0,0,.12.25l0,0,0,0.05a0.89,0.89,0,0,1,.13.51v0.13h0v0.12a0.51,0.51,0,0,0,.13.41l0,0,0,0-0.32.26,0.26-.32,0.06,0.06-0.32.26,0.26-.32,0,0,0,0a0.73,0.73,0,0,0,.33.23l-0.16.48,0.15-.48,0,0.13v-0.14h0l0,0.13v-0.14h0.15l0.13,0.08a2.2,2.2,0,0,1,.25.2l0,0,0,0-0.2.14,0.16-.18,0,0-0.2.14,0.16-.18h0l0.07,0.07h0a2.91,2.91,0,0,0,.25.24l0,0,0,0a0.47,0.47,0,0,0,.21.1h0a0.73,0.73,0,0,1,.3.14l0,0,0,0.05-0.13.09,0.11-.12,0,0-0.13.09,0.11-.12,0,0,0,0a0.83,0.83,0,0,1,.16.48,1,1,0,0,1-.11.44l0,0.08-0.12.12h0l-0.22.23,0,0,0,0a2.25,2.25,0,0,0-.26.26l0,0,0,0a2.63,2.63,0,0,0-.28.28l0,0,0,0-0.23.21-0.05.05-0.16-.16,0.19,0.13,0,0-0.16-.16,0.19,0.13,0,0.05,0,0-0.16.16,0,0,0,0,0,0-0.07-.11,0.08,0.11h0l-0.07-.11,0.08,0.11-0.31-.39,0.32,0.38-0.23.18h0a2,2,0,0,0-.47.44h0l-0.12-.08h0.15l0,0.07-0.12-.08h0.15l-0.5,0,0.5,0a1.21,1.21,0,0,1-.48,1l-0.06,0-0.07,0,0-.15,0.1,0.12,0,0,0-.15,0.1,0.12h0a2.07,2.07,0,0,0-.27.27l0,0,0,0a0.3,0.3,0,0,0-.1.23,0.71,0.71,0,0,0,.05.25h0l-0.14.05,0.1-.11,0,0.06-0.14.05,0.1-.11h0a1,1,0,0,1,.28.79h0a0.87,0.87,0,0,0,.11.51l0,0,0,0,0.06,0.12-0.45.23,0.44-.24a0.92,0.92,0,0,1,.15.44h0v0.09l0,0.08a0.65,0.65,0,0,1-.16.22h0a2.3,2.3,0,0,0-.35.35h0l-0.2.24,0,0,0,0a0.54,0.54,0,0,0-.18.47v0.22h0c0,0.08,0,.16,0,0.25a0.88,0.88,0,0,1-.2.61l-0.38-.33,0.39,0.31v0l0,0a0.52,0.52,0,0,0-.1.23h0l-0.05.16-0.06.14-0.13.09-0.23-.35,0.33,0.27-0.09.08-0.23-.35,0.33,0.27,0,0-0.09.08-0.35-.36,0.35,0.35-0.22.23,0,0-0.05,0a0.75,0.75,0,0,0-.39.66,1.54,1.54,0,0,0,.15.6v0.06L212,124l0.18-.09v0L212,124l0.18-.09h0a2,2,0,0,1,.2.85,2.05,2.05,0,0,1-.16.79l0,0.05,0,0a0.63,0.63,0,0,0-.13.36,0.6,0.6,0,0,0,.15.37h0l-0.16.12,0.14-.14,0,0-0.16.12,0.14-.14,0,0,0,0a0.7,0.7,0,0,0,.34.24h0l-0.06.18v-0.19h0l-0.06.18v-0.19h0.12l0.1,0.07a0.68,0.68,0,0,0,.33.07h0a1.08,1.08,0,0,1,.4.08l0.26,0.12,0,0.29h-0.14l0.13,0v0h-0.14l0.13,0h0a3.8,3.8,0,0,1,.19,1.12,2.55,2.55,0,0,1-.17.92l0,0.08-0.06.07a0.6,0.6,0,0,0-.1.23l-0.48-.14,0.48,0.13a1.34,1.34,0,0,1-.07.2l-0.07.15-0.15.08a2.81,2.81,0,0,1-.69.23h0Z"/></g></g></g></g></g><path class="n" d="M174.89,91.81V86.29h1.33v5.52h-1.33Z"/><path class="n" d="M178.76,91.81V89.13a0.25,0.25,0,0,0-.26-0.29,0.76,0.76,0,0,0-.46.21v2.76h-1.17V87.89h1l0.07,0.42a1.55,1.55,0,0,1,1-.5,0.86,0.86,0,0,1,.94,1v3h-1.16Z"/><path class="n" d="M182,91.88c-1.07,0-1.66-.71-1.66-2s0.65-2,1.66-2a2,2,0,0,1,1,.22l-0.16,1a1.07,1.07,0,0,0-.64-0.22c-0.43,0-.66.35-0.66,1s0.25,1,.72,1a1.17,1.17,0,0,0,.64-0.22L183,91.6A1.8,1.8,0,0,1,182,91.88Z"/><path class="n" d="M183.43,91.81v-5.6L184.6,86v5.77h-1.17Z"/><path class="n" d="M187.22,91.81l-0.07-.42a1.53,1.53,0,0,1-1,.5,0.86,0.86,0,0,1-.94-1v-3h1.16v2.69a0.25,0.25,0,0,0,.26.28,0.76,0.76,0,0,0,.45-0.2V87.89h1.17v3.92h-1Z"/><path class="n" d="M189.93,91.89a2.68,2.68,0,0,1-1.33-.35l0.15-.94a2.56,2.56,0,0,0,1.17.39,0.28,0.28,0,0,0,.34-0.26,0.78,0.78,0,0,0-.58-0.5,1.37,1.37,0,0,1-1-1.24A1.17,1.17,0,0,1,190,87.81a2.52,2.52,0,0,1,1.15.26L191,89a2.31,2.31,0,0,0-1-.29,0.23,0.23,0,0,0-.27.22,0.77,0.77,0,0,0,.54.46,1.44,1.44,0,0,1,1,1.26A1.22,1.22,0,0,1,189.93,91.89Z"/><path class="n" d="M192.31,87.47a0.65,0.65,0,0,1-.66-0.66,0.66,0.66,0,0,1,1.31,0A0.65,0.65,0,0,1,192.31,87.47Zm-0.58,4.34V87.89h1.16v3.92h-1.16Z"/><path class="n" d="M195,91.89c-1,0-1.65-.7-1.65-2s0.67-2,1.66-2,1.65,0.72,1.65,2S196,91.89,195,91.89Zm0-3.12c-0.34,0-.5.41-0.5,1.08s0.17,1.08.51,1.08,0.5-.4.5-1.07S195.35,88.77,195,88.77Z"/><path class="n" d="M199,91.81V89.13a0.25,0.25,0,0,0-.26-0.29,0.76,0.76,0,0,0-.46.21v2.76H197.1V87.89h1l0.07,0.42a1.54,1.54,0,0,1,1-.5,0.86,0.86,0,0,1,.94,1v3H199Z"/><path class="n" d="M203.69,91.89c-1,0-1.65-.7-1.65-2s0.67-2,1.65-2,1.65,0.72,1.65,2S204.68,91.89,203.69,91.89Zm0-3.12c-0.34,0-.5.41-0.5,1.08s0.17,1.08.51,1.08,0.5-.4.5-1.07S204,88.77,203.69,88.77Z"/><path class="n" d="M207.69,91.81V89.13a0.25,0.25,0,0,0-.26-0.29,0.76,0.76,0,0,0-.46.21v2.76h-1.17V87.89h1l0.07,0.42a1.55,1.55,0,0,1,1-.5,0.86,0.86,0,0,1,.94,1v3h-1.16Z"/><path class="n" d="M212.66,87a0.38,0.38,0,0,0-.43.45v0.42h0.61l0.16,1h-0.77v2.93h-1.11V88.88h-0.47v-1h0.47V87.29a1.06,1.06,0,0,1,1.17-1.17,3.21,3.21,0,0,1,.6,0l0.14,0.9A1.78,1.78,0,0,0,212.66,87Z"/><path class="n" d="M214.76,91.89c-1,0-1.65-.7-1.65-2s0.67-2,1.66-2,1.65,0.72,1.65,2S215.74,91.89,214.76,91.89Zm0-3.12c-0.34,0-.5.41-0.5,1.08s0.17,1.08.51,1.08,0.5-.4.5-1.07S215.11,88.77,214.76,88.77Z"/><path class="n" d="M218,89.42v2.39h-1.17V87.89h1l0.09,0.57a1.32,1.32,0,0,1,.92-0.65L219,89A1.75,1.75,0,0,0,218,89.42Z"/><path class="n" d="M223.05,91.81V89.12a0.24,0.24,0,0,0-.26-0.28,0.66,0.66,0,0,0-.43.2v2.77h-1.15V89.12a0.24,0.24,0,0,0-.26-0.28,0.68,0.68,0,0,0-.43.2v2.77h-1.15V87.89h1l0.07,0.41a1.5,1.5,0,0,1,1-.49,0.81,0.81,0,0,1,.82.46,1.53,1.53,0,0,1,1-.46,0.86,0.86,0,0,1,.93,1v3h-1.15Z"/><path class="n" d="M226.78,91.81l-0.07-.42a1.53,1.53,0,0,1-1,.5,0.86,0.86,0,0,1-.93-1v-3h1.16v2.69a0.25,0.25,0,0,0,.26.28,0.77,0.77,0,0,0,.45-0.2V87.89h1.17v3.92h-1Z"/><path class="n" d="M228.34,91.81v-5.6l1.17-.18v5.77h-1.17Z"/><path class="n" d="M231.88,91.81l-0.06-.41a1.31,1.31,0,0,1-1,.48,0.9,0.9,0,0,1-.9-1.06c0-.87.66-1.31,1.78-1.49V89.2a0.41,0.41,0,0,0-.48-0.48,2.19,2.19,0,0,0-.93.3l-0.14-.9a3.41,3.41,0,0,1,1.39-.29,1.12,1.12,0,0,1,1.31,1.31v2.67h-1Zm-0.16-1.87a0.78,0.78,0,0,0-.7.74,0.32,0.32,0,0,0,.29.38,0.61,0.61,0,0,0,.42-0.21v-0.9Z"/><path class="n" d="M234.58,89.42v2.39h-1.17V87.89h1l0.09,0.57a1.32,1.32,0,0,1,.92-0.65L235.59,89A1.75,1.75,0,0,0,234.58,89.42Z"/><path class="n" d="M238,91.85a1.39,1.39,0,0,1-1.47,1.31,3.15,3.15,0,0,1-.52,0l-0.16-1a2,2,0,0,0,.43.06,0.54,0.54,0,0,0,.46-0.23l0-.13L235.64,88l1.22-.14,0.54,2.67,0.49-2.62h1.16Z"/><path class="n" d="M243,91.81l-0.06-.38a1.32,1.32,0,0,1-1,.46c-0.73,0-1.22-.62-1.22-1.85,0-1.53.72-2.18,1.66-2.18a1.5,1.5,0,0,1,.4.06v-1.7l1.16-.18v5.77h-1Zm-0.18-3a0.49,0.49,0,0,0-.23-0.06c-0.41,0-.68.34-0.68,1.12s0.21,0.93.51,0.93a0.66,0.66,0,0,0,.4-0.19v-1.8Z"/><path class="n" d="M246,91.89c-1,0-1.65-.7-1.65-2s0.67-2,1.66-2,1.65,0.72,1.65,2S247,91.89,246,91.89Zm0-3.12c-0.34,0-.5.41-0.5,1.08s0.17,1.08.51,1.08,0.5-.4.5-1.07S246.38,88.77,246,88.77Z"/><path class="n" d="M249.17,90.2a0.77,0.77,0,0,0,.8.82,2.06,2.06,0,0,0,1-.3l0.13,0.82a2.71,2.71,0,0,1-1.35.34c-1.14,0-1.74-.7-1.74-2,0-1.15.58-2,1.6-2s1.5,0.82,1.5,2a3.23,3.23,0,0,1,0,.43h-1.93Zm0-.7h0.89c0-.6-0.18-0.9-0.44-0.9S249.21,88.85,249.16,89.5Z"/><path class="n" d="M252.77,91.89a2.68,2.68,0,0,1-1.33-.35l0.15-.94a2.55,2.55,0,0,0,1.17.39,0.28,0.28,0,0,0,.34-0.26,0.78,0.78,0,0,0-.58-0.5,1.37,1.37,0,0,1-1-1.24,1.17,1.17,0,0,1,1.29-1.18,2.51,2.51,0,0,1,1.15.26L253.8,89a2.31,2.31,0,0,0-1-.29,0.23,0.23,0,0,0-.27.22,0.77,0.77,0,0,0,.54.46,1.44,1.44,0,0,1,1,1.26A1.22,1.22,0,0,1,252.77,91.89Z"/><path class="n" d="M257.92,91.81V89.13a0.25,0.25,0,0,0-.26-0.29,0.76,0.76,0,0,0-.46.21v2.76H256V87.89h1l0.07,0.42a1.55,1.55,0,0,1,1-.5,0.86,0.86,0,0,1,.94,1v3h-1.16Z"/><path class="n" d="M261.15,91.89c-1,0-1.65-.7-1.65-2s0.67-2,1.65-2,1.65,0.72,1.65,2S262.13,91.89,261.15,91.89Zm0-3.12c-0.34,0-.5.41-0.5,1.08s0.17,1.08.51,1.08,0.5-.4.5-1.07S261.5,88.77,261.15,88.77Z"/><path class="n" d="M264.71,91.88a1.06,1.06,0,0,1-1.26-1.27V88.88H263v-1h0.45v-1.2l1.12-.18v1.38h0.62l0.16,1h-0.78v1.58a0.33,0.33,0,0,0,.36.41l0.29,0,0.15,1A2.71,2.71,0,0,1,264.71,91.88Z"/><path class="n" d="M267.85,87.47a0.65,0.65,0,0,1-.66-0.66,0.66,0.66,0,0,1,1.31,0A0.65,0.65,0,0,1,267.85,87.47Zm-0.58,4.34V87.89h1.16v3.92h-1.16Z"/><path class="n" d="M272.69,91.81V89.12a0.24,0.24,0,0,0-.26-0.28,0.66,0.66,0,0,0-.43.2v2.77h-1.15V89.12a0.24,0.24,0,0,0-.26-0.28,0.68,0.68,0,0,0-.43.2v2.77H269V87.89h1l0.07,0.41a1.5,1.5,0,0,1,1-.49,0.81,0.81,0,0,1,.82.46,1.53,1.53,0,0,1,1-.46,0.86,0.86,0,0,1,.93,1v3h-1.15Z"/><path class="n" d="M275.94,91.85a1.48,1.48,0,0,1-.39-0.06V93l-1.17.18v-5.3h1l0.06,0.38a1.3,1.3,0,0,1,1-.46c0.74,0,1.22.62,1.22,1.85C277.6,91.19,276.88,91.85,275.94,91.85Zm0-3a0.62,0.62,0,0,0-.41.19v1.8a0.46,0.46,0,0,0,.23,0c0.41,0,.68-0.33.68-1.11S276.24,88.86,276,88.86Z"/><path class="n" d="M278.08,91.81v-5.6l1.17-.18v5.77h-1.17Z"/><path class="n" d="M281.88,91.85a1.39,1.39,0,0,1-1.47,1.31,3.16,3.16,0,0,1-.52,0l-0.16-1a2,2,0,0,0,.43.06,0.54,0.54,0,0,0,.46-0.23l0-.13L279.54,88l1.22-.14,0.54,2.67,0.49-2.62H283Z"/><path class="n" d="M185.93,101.74a2.67,2.67,0,0,1-1.33-.35l0.15-.94a2.55,2.55,0,0,0,1.17.39,0.28,0.28,0,0,0,.34-0.26,0.78,0.78,0,0,0-.58-0.5,1.37,1.37,0,0,1-1-1.24A1.17,1.17,0,0,1,186,97.66a2.51,2.51,0,0,1,1.15.26l-0.14.93a2.31,2.31,0,0,0-1-.29,0.23,0.23,0,0,0-.27.22,0.77,0.77,0,0,0,.54.46,1.44,1.44,0,0,1,1,1.26A1.22,1.22,0,0,1,185.93,101.74Zm3.82-.08-0.07-.42a1.53,1.53,0,0,1-1,.5,0.86,0.86,0,0,1-.94-1v-3h1.16v2.69a0.24,0.24,0,0,0,.26.28,0.77,0.77,0,0,0,.45-0.2V97.74h1.17v3.92h-1Zm3.1,0a1.49,1.49,0,0,1-.39-0.06v1.22l-1.17.18v-5.3h1l0.06,0.38a1.3,1.3,0,0,1,1-.46c0.74,0,1.22.62,1.22,1.85C194.51,101,193.8,101.7,192.85,101.7Zm0-3a0.62,0.62,0,0,0-.41.19v1.8a0.47,0.47,0,0,0,.23,0c0.41,0,.68-0.33.68-1.11S193.16,98.71,192.87,98.71Zm3.14,1.34a0.77,0.77,0,0,0,.8.82,2,2,0,0,0,1-.3L198,101.4a2.72,2.72,0,0,1-1.35.34c-1.14,0-1.74-.7-1.74-2,0-1.15.58-2,1.6-2s1.5,0.82,1.5,2a3.16,3.16,0,0,1,0,.43H196Zm0-.7h0.89c0-.6-0.18-0.9-0.44-0.9S196,98.69,196,99.35Zm3.61-.08v2.39h-1.17V97.74h1l0.09,0.57a1.32,1.32,0,0,1,.92-0.65l0.19,1.22A1.75,1.75,0,0,0,199.61,99.27Zm1.94-2a0.65,0.65,0,0,1-.66-0.66,0.66,0.66,0,0,1,1.31,0A0.65,0.65,0,0,1,201.55,97.32ZM201,101.66V97.74h1.16v3.92H201Zm3.28,0.08c-1,0-1.65-.7-1.65-2s0.67-2,1.66-2,1.65,0.72,1.65,2S205.23,101.74,204.25,101.74Zm0-3.12c-0.34,0-.5.41-0.5,1.08s0.17,1.08.51,1.08,0.5-.4.5-1.07S204.6,98.62,204.25,98.62Zm3.28,0.65v2.39h-1.17V97.74h1l0.09,0.57a1.32,1.32,0,0,1,.92-0.65l0.19,1.22A1.75,1.75,0,0,0,207.53,99.27Zm4.38,2.46c-1.07,0-1.66-.71-1.66-2s0.65-2,1.66-2a2,2,0,0,1,1,.22l-0.16,1a1.07,1.07,0,0,0-.64-0.22c-0.43,0-.66.35-0.66,1s0.25,1,.72,1a1.17,1.17,0,0,0,.64-0.22l0.14,0.94A1.8,1.8,0,0,1,211.91,101.73Zm1.43-.07v-5.6l1.17-.18v5.77h-1.17Zm2.36-4.34a0.65,0.65,0,0,1-.66-0.66,0.66,0.66,0,0,1,1.31,0A0.65,0.65,0,0,1,215.7,97.32Zm-0.58,4.34V97.74h1.16v3.92h-1.16Zm3.62,0V99a0.25,0.25,0,0,0-.26-0.29,0.76,0.76,0,0,0-.46.21v2.76h-1.17V97.74h1l0.07,0.42a1.55,1.55,0,0,1,1-.5,0.86,0.86,0,0,1,.94,1v3h-1.16Zm2.3-4.34a0.65,0.65,0,0,1-.66-0.66,0.66,0.66,0,0,1,1.31,0A0.65,0.65,0,0,1,221,97.32Zm-0.58,4.34V97.74h1.16v3.92h-1.16Zm3.3,0.07c-1.07,0-1.66-.71-1.66-2s0.65-2,1.66-2a2,2,0,0,1,1,.22l-0.16,1a1.07,1.07,0,0,0-.64-0.22c-0.43,0-.66.35-0.66,1s0.25,1,.72,1a1.17,1.17,0,0,0,.64-0.22l0.14,0.94A1.8,1.8,0,0,1,223.76,101.73Zm3.25-.07-0.06-.41a1.31,1.31,0,0,1-1,.48,0.9,0.9,0,0,1-.9-1.06c0-.87.66-1.31,1.78-1.49V99a0.41,0.41,0,0,0-.48-0.48,2.2,2.2,0,0,0-.93.3l-0.14-.9a3.42,3.42,0,0,1,1.39-.29A1.12,1.12,0,0,1,228,99v2.67h-1Zm-0.16-1.87a0.78,0.78,0,0,0-.7.74,0.32,0.32,0,0,0,.29.38,0.61,0.61,0,0,0,.42-0.21v-0.9Zm1.7,1.87v-5.6l1.17-.18v5.77h-1.17Zm4.28-1.61a0.77,0.77,0,0,0,.8.82,2,2,0,0,0,1-.3l0.13,0.82a2.72,2.72,0,0,1-1.35.34c-1.14,0-1.74-.7-1.74-2,0-1.15.58-2,1.6-2s1.5,0.82,1.5,2a3.16,3.16,0,0,1,0,.43h-1.93Zm0-.7h0.89c0-.6-0.18-0.9-0.44-0.9S232.86,98.69,232.82,99.35Zm4.24-2.47a0.38,0.38,0,0,0-.43.45v0.42h0.61l0.16,1h-0.77v2.93h-1.11V98.73H235v-1h0.47V97.13A1.06,1.06,0,0,1,236.69,96a3.24,3.24,0,0,1,.6,0l0.14,0.9A1.8,1.8,0,0,0,237.06,96.88Zm2.4,0a0.38,0.38,0,0,0-.43.45v0.42h0.61l0.16,1H239v2.93h-1.11V98.73h-0.47v-1h0.47V97.13A1.06,1.06,0,0,1,239.08,96a3.24,3.24,0,0,1,.6,0l0.14,0.9A1.8,1.8,0,0,0,239.46,96.88Zm1.22,0.44a0.65,0.65,0,0,1-.66-0.66,0.66,0.66,0,0,1,1.31,0A0.65,0.65,0,0,1,240.68,97.32Zm-0.58,4.34V97.74h1.16v3.92h-1.16Zm3.3,0.07c-1.07,0-1.66-.71-1.66-2s0.65-2,1.66-2a2,2,0,0,1,1,.22l-0.16,1a1.07,1.07,0,0,0-.64-0.22c-0.43,0-.66.35-0.66,1s0.25,1,.72,1a1.17,1.17,0,0,0,.64-0.22l0.14,0.94A1.8,1.8,0,0,1,243.39,101.73Zm3.25-.07-0.06-.41a1.31,1.31,0,0,1-1,.48,0.9,0.9,0,0,1-.9-1.06c0-.87.66-1.31,1.78-1.49V99a0.41,0.41,0,0,0-.48-0.48,2.2,2.2,0,0,0-.93.3l-0.14-.9a3.42,3.42,0,0,1,1.39-.29A1.12,1.12,0,0,1,247.63,99v2.67h-1Zm-0.16-1.87a0.78,0.78,0,0,0-.7.74,0.32,0.32,0,0,0,.29.38,0.61,0.61,0,0,0,.42-0.21v-0.9Zm3.24,1.94c-1.07,0-1.66-.71-1.66-2s0.65-2,1.66-2a2,2,0,0,1,1,.22l-0.16,1a1.07,1.07,0,0,0-.64-0.22c-0.43,0-.66.35-0.66,1s0.25,1,.72,1a1.17,1.17,0,0,0,.64-0.22l0.14,0.94A1.8,1.8,0,0,1,249.72,101.73Zm3.54,0a1.39,1.39,0,0,1-1.47,1.31,3.2,3.2,0,0,1-.52,0l-0.16-1a1.94,1.94,0,0,0,.43.06,0.54,0.54,0,0,0,.46-0.23l0-.13-1.1-3.89,1.22-.14,0.54,2.67,0.49-2.61h1.16Zm4.39,0c-1,0-1.65-.7-1.65-2s0.67-2,1.66-2,1.65,0.72,1.65,2S258.64,101.74,257.65,101.74Zm0-3.12c-0.34,0-.5.41-0.5,1.08s0.17,1.08.51,1.08,0.5-.4.5-1.07S258,98.62,257.65,98.62Zm3.28,0.65v2.39h-1.17V97.74h1l0.09,0.57a1.32,1.32,0,0,1,.92-0.65l0.19,1.22A1.75,1.75,0,0,0,260.93,99.27Zm4,2.47a2.67,2.67,0,0,1-1.33-.35l0.15-.94a2.55,2.55,0,0,0,1.17.39,0.28,0.28,0,0,0,.34-0.26,0.78,0.78,0,0,0-.58-0.5,1.37,1.37,0,0,1-1-1.24A1.17,1.17,0,0,1,265,97.66a2.51,2.51,0,0,1,1.15.26l-0.14.93a2.31,2.31,0,0,0-1-.29,0.23,0.23,0,0,0-.27.22,0.77,0.77,0,0,0,.54.46,1.44,1.44,0,0,1,1,1.26A1.22,1.22,0,0,1,264.93,101.74Zm3.65-.08-0.06-.41a1.31,1.31,0,0,1-1,.48,0.9,0.9,0,0,1-.9-1.06c0-.87.66-1.31,1.78-1.49V99a0.41,0.41,0,0,0-.48-0.48,2.2,2.2,0,0,0-.93.3l-0.14-.9a3.42,3.42,0,0,1,1.39-.29A1.12,1.12,0,0,1,269.57,99v2.67h-1Zm-0.16-1.87a0.78,0.78,0,0,0-.7.74,0.32,0.32,0,0,0,.29.38,0.61,0.61,0,0,0,.42-0.21v-0.9Zm3.46-2.91a0.38,0.38,0,0,0-.43.45v0.42h0.61l0.16,1h-0.77v2.93h-1.11V98.73h-0.47v-1h0.47V97.13A1.06,1.06,0,0,1,271.5,96a3.24,3.24,0,0,1,.6,0l0.14,0.9A1.8,1.8,0,0,0,271.88,96.88Zm1.59,3.17a0.77,0.77,0,0,0,.8.82,2,2,0,0,0,1-.3l0.13,0.82a2.72,2.72,0,0,1-1.35.34c-1.14,0-1.74-.7-1.74-2,0-1.15.58-2,1.6-2s1.5,0.82,1.5,2a3.16,3.16,0,0,1,0,.43h-1.93Zm0-.7h0.89c0-.6-0.18-0.9-0.44-0.9S273.5,98.69,273.46,99.35Zm4,2.37a1.06,1.06,0,0,1-1.26-1.27V98.73h-0.45v-1h0.45v-1.2l1.12-.18v1.38h0.62l0.16,1h-0.78v1.58a0.33,0.33,0,0,0,.36.41l0.29,0,0.15,1A2.72,2.72,0,0,1,277.42,101.72Zm3.08,0A1.39,1.39,0,0,1,279,103a3.2,3.2,0,0,1-.52,0l-0.16-1a1.94,1.94,0,0,0,.43.06,0.54,0.54,0,0,0,.46-0.23l0-.13-1.1-3.89,1.22-.14,0.54,2.67,0.49-2.61h1.16Zm1,0v-1.45h1.3v1.45h-1.3Z"/></svg>