<?xml version="1.0" standalone="no"?>
<!DOCTYPE svg PUBLIC "-//W3C//DTD SVG 1.1//EN" "http://www.w3.org/Graphics/SVG/1.1/DTD/svg11.dtd" >
<svg xmlns="http://www.w3.org/2000/svg">
<metadata></metadata>
<defs>
<font id="pill_gothic_600mg_rgbold" horiz-adv-x="1150" >
<font-face units-per-em="2048" ascent="1638" descent="-410" />
<missing-glyph horiz-adv-x="448" />
<glyph unicode="&#xdf;" horiz-adv-x="1374" d="M57 836v206h113v162q0 133 105.5 221t261.5 88q143 0 270 -51l-57 -202q-81 18 -160 18q-75 0 -112.5 -36t-37.5 -99v-101h789v-198l-230 -228h37q129 -11 193.5 -80t64.5 -169v-99q0 -123 -95 -202.5t-251 -79.5q-224 0 -336 112l107 160q74 -65 180 -65q58 0 90.5 24.5 t32.5 73.5v49q0 45 -35 71.5t-106 26.5h-172v170l231 223h-491v-831h-279v836h-113z" />
<glyph unicode="&#xfb01;" horiz-adv-x="1300" d="M55 870v183h131v116q0 105 63.5 179.5t162.5 108.5t221 34q256 0 497 -78l-47 -194q-13 2 -66.5 11.5t-75.5 12.5t-68.5 9t-90.5 8t-96 2q-112 0 -163.5 -34.5t-51.5 -109.5v-65h252v-183h-252v-870h-285v870h-131zM915 0v1059h287v-1059h-287z" />
<glyph unicode="&#xfb02;" horiz-adv-x="1347" d="M57 870v183h131v116q0 105 63.5 179.5t162.5 108.5t221 34q257 0 498 -78h65v-1413h-287v1247q-118 15 -223 15q-112 0 -163.5 -34.5t-51.5 -109.5v-65h252v-183h-252v-870h-285v870h-131z" />
<glyph horiz-adv-x="2048" />
<glyph horiz-adv-x="2048" />
<glyph horiz-adv-x="682" />
<glyph unicode="&#xd;" horiz-adv-x="448" />
<glyph unicode=" "  horiz-adv-x="448" />
<glyph unicode="&#x09;" horiz-adv-x="448" />
<glyph unicode="&#xa0;" horiz-adv-x="448" />
<glyph unicode="!" horiz-adv-x="571" d="M150 1393h307l-27 -908h-256zM158 0v252h297v-252h-297z" />
<glyph unicode="&#x22;" horiz-adv-x="673" d="M109 1407h184l-12 -453h-158zM381 1407h182l-12 -453h-156z" />
<glyph unicode="#" horiz-adv-x="1318" d="M80 248l4 164h244l69 393h-243l6 164h274l47 272h203l-47 -272h207l49 272h199l-45 -272h192l-4 -164h-223l-70 -393h215l-4 -164h-248l-39 -248h-204l40 248h-206l-41 -248h-203l39 248h-211zM530 412h209l68 393h-205z" />
<glyph unicode="$" horiz-adv-x="1220" d="M92 180l135 182q57 -60 161.5 -100.5t211.5 -40.5q98 0 162.5 42t64.5 126v96l-682 263v288q0 161 102.5 253t282.5 116v194h228v-192q194 -20 364 -137l-112 -207q-59 42 -150.5 75t-181.5 33q-232 0 -232 -151v-123l684 -260v-262q0 -163 -102.5 -259t-273.5 -122v-244 h-228v238q-137 12 -252.5 62t-181.5 130z" />
<glyph unicode="%" horiz-adv-x="1533" d="M94 1020v160q0 107 88.5 170t216.5 63q120 0 208.5 -65.5t88.5 -167.5v-160q0 -107 -86 -171.5t-211 -64.5q-136 0 -220.5 61.5t-84.5 174.5zM205 0l882 1393h234l-870 -1393h-246zM297 1044q0 -75 102 -75q38 0 69.5 22t31.5 56v112q0 33 -30 51.5t-71 18.5 q-40 0 -71 -21.5t-31 -52.5v-111zM858 199v194q0 107 81 166t210 59q121 0 205 -56.5t84 -160.5v-188q0 -109 -80.5 -169t-208.5 -60q-118 0 -204.5 59t-86.5 156zM1049 352l2 -110q0 -36 28.5 -58t69.5 -22q39 0 69.5 23.5t30.5 58.5v110q0 39 -28 60.5t-72 21.5 q-40 0 -70 -24.5t-30 -59.5z" />
<glyph unicode="&#x26;" horiz-adv-x="1503" d="M84 352q0 102 79.5 193t258.5 219l-186 182v193q0 124 112 200t275 76q186 0 293.5 -82.5t107.5 -236.5q0 -97 -54.5 -176.5t-156.5 -157.5l-29 -21l234 -223l237 221l181 -161l-238 -230l236 -225l-185 -162l-225 219l-2 -2q-182 -198 -453 -198q-229 0 -357 92.5 t-128 279.5zM377 350q0 -63 46 -98t130 -35q76 0 141.5 31.5t147.5 107.5l-248 240q-124 -91 -170.5 -141t-46.5 -105zM485 1028l133 -127l21 14q123 92 123 175q0 106 -141 106q-60 0 -98 -24t-38 -64v-80z" />
<glyph unicode="'" horiz-adv-x="497" d="M139 1454h219l-28 -489h-164z" />
<glyph unicode="(" horiz-adv-x="759" d="M150 240v626q0 234 95.5 417t256.5 276l121 -111q-103 -66 -165.5 -217.5t-62.5 -364.5v-626q0 -221 62 -367t166 -211l-121 -113q-160 93 -256 275.5t-96 415.5z" />
<glyph unicode=")" horiz-adv-x="798" d="M123 -352q102 72 163.5 228t61.5 370v618q0 216 -55.5 365t-155.5 219l107 113q159 -93 254.5 -278t95.5 -419v-618q0 -233 -95.5 -416.5t-254.5 -278.5z" />
<glyph unicode="*" horiz-adv-x="811" d="M92 1169l39 123l207 -65v211h135v-213l207 67l39 -123l-203 -65l127 -170l-108 -80l-129 174l-130 -174l-106 78l127 172z" />
<glyph unicode="+" horiz-adv-x="1169" d="M61 696v193h412v381h221v-381h414v-193h-414v-430h-221v430h-412z" />
<glyph unicode="," horiz-adv-x="489" d="M47 -207q26 37 41 65.5t28 83t13 121.5v125h238v-55q0 -85 -16.5 -155t-46.5 -120t-54 -79t-57 -58z" />
<glyph unicode="-" horiz-adv-x="708" d="M90 485v226h528v-226h-528z" />
<glyph unicode="." horiz-adv-x="524" d="M119 0v252h282v-252h-282z" />
<glyph unicode="/" horiz-adv-x="858" d="M35 -174l545 1567h243l-549 -1567h-239z" />
<glyph unicode="0" horiz-adv-x="1288" d="M104 422v541q0 137 72 240.5t193.5 156.5t273.5 53t274 -53t194.5 -156.5t72.5 -240.5v-541q0 -137 -73 -238.5t-194.5 -152.5t-273.5 -51t-273 51t-193.5 152.5t-72.5 238.5zM391 428q0 -101 69.5 -155t182.5 -54q112 0 183 54t71 155v526q0 102 -71.5 159.5 t-182.5 57.5q-116 0 -184 -56.5t-68 -160.5v-526z" />
<glyph unicode="1" horiz-adv-x="806" d="M66 1151v242h552v-1393h-286v1151h-266z" />
<glyph unicode="2" d="M88 1200q228 199 539 199q124 0 221.5 -39.5t158 -124t60.5 -203.5q0 -78 -22 -141t-72 -117.5t-110.5 -99t-157.5 -101.5q-173 -91 -233 -158t-71 -177h678v-238h-977v131q0 205 104 353.5t345 279.5q129 68 180 120.5t51 125.5q0 71 -53 109t-147 38q-185 0 -365 -147z " />
<glyph unicode="3" horiz-adv-x="1212" d="M66 293l239 92q29 -81 106 -121.5t173 -40.5q103 0 170 37t67 117v76q0 151 -223 151h-199v219h189q95 0 157 32.5t62 107.5v65q0 75 -61 111.5t-158 36.5q-83 0 -152.5 -38t-95.5 -112l-229 94q41 134 177 215.5t322 81.5q142 0 247.5 -36.5t170 -119t64.5 -204.5v-68 q0 -95 -57.5 -169.5t-157.5 -106.5q105 -33 167 -104t62 -169v-88q0 -74 -27 -135.5t-74 -103.5t-111.5 -71t-137.5 -42.5t-154 -13.5q-203 0 -348.5 82t-187.5 225z" />
<glyph unicode="4" horiz-adv-x="1230" d="M49 274v211l602 908h334v-879h203v-240h-203v-274h-285v274h-651zM350 514h350v512h-26z" />
<glyph unicode="5" horiz-adv-x="1187" d="M117 328l264 67q11 -78 73.5 -127t161.5 -49q88 0 145.5 39t57.5 111v139q0 70 -55 107.5t-150 37.5h-436l72 740h778v-242h-534l-25 -272h188q200 0 323.5 -94t123.5 -273v-154q0 -116 -68.5 -204t-175 -131t-231.5 -43q-218 0 -349.5 90.5t-162.5 257.5z" />
<glyph unicode="6" horiz-adv-x="1208" d="M102 375v614q0 125 67.5 222t186 149.5t267.5 52.5q136 0 237 -28t193 -91l-109 -198q-138 80 -305 80q-113 0 -182.5 -50.5t-69.5 -136.5v-211q47 60 129.5 96.5t177.5 36.5q189 0 307.5 -91.5t118.5 -262.5v-195q0 -91 -43.5 -165t-116.5 -120.5t-164 -71.5t-190 -25 t-189.5 26t-161 75t-112 125t-41.5 169zM387 391q0 -85 64.5 -129.5t154.5 -44.5q59 0 109.5 17.5t85.5 58.5t35 98v144q0 82 -64 126t-164 44q-95 0 -158 -45.5t-63 -124.5v-144z" />
<glyph unicode="7" horiz-adv-x="1019" d="M20 1135v258h949v-150l-430 -1243h-316l420 1135h-623z" />
<glyph unicode="8" horiz-adv-x="1228" d="M94 350v80q0 108 72 182t176 109q-98 33 -159.5 113t-61.5 180v49q0 110 69.5 191t180 120t245.5 39q134 0 244.5 -38.5t181 -119.5t70.5 -192v-62q0 -88 -70 -168t-153 -112q252 -93 252 -291v-80q0 -92 -43 -164.5t-116.5 -116.5t-166.5 -66.5t-199 -22.5 q-110 0 -203 23t-165 67t-113 116t-41 164zM379 373q0 -55 35.5 -91t86 -49.5t115.5 -13.5q95 0 165.5 36t70.5 112v94q0 70 -69.5 112.5t-151.5 42.5h-29q-56 -3 -104.5 -19t-83.5 -51.5t-35 -84.5v-88zM406 971q0 -66 59 -105.5t139 -42.5h25q86 3 142 39.5t56 108.5v59 q0 69 -63.5 106.5t-147.5 37.5q-86 0 -148 -38t-62 -106v-59z" />
<glyph unicode="9" horiz-adv-x="1212" d="M92 834v206q0 111 73 198t187 131t246 44t247 -43.5t189 -130.5t74 -199v-686q0 -88 -43 -160.5t-115 -118.5t-162.5 -70.5t-189.5 -24.5q-126 0 -246.5 33.5t-206.5 95.5l93 198q157 -88 358 -88q115 0 186.5 46t71.5 134v179q-50 -58 -132 -88.5t-167 -30.5 q-203 0 -333 99.5t-130 275.5zM377 842q0 -77 67 -117.5t160 -40.5q88 0 152.5 42t64.5 116v176q0 71 -66.5 112t-156.5 41q-89 0 -155 -41t-66 -112v-176z" />
<glyph unicode=":" horiz-adv-x="579" d="M156 0v272h282v-272h-282zM156 795v270h282v-270h-282z" />
<glyph unicode=";" horiz-adv-x="636" d="M174 -207q26 37 41 65.5t28 83t13 121.5v125h238v-55q0 -85 -16.5 -155t-46.5 -120t-54.5 -79t-57.5 -58zM223 784v281h269v-281h-269z" />
<glyph unicode="&#x3c;" horiz-adv-x="1249" d="M127 514l911 567l80 -166l-631 -391l656 -366l-84 -162z" />
<glyph unicode="=" horiz-adv-x="1155" d="M94 342v197h965v-197h-965zM94 772v195h965v-195h-965z" />
<glyph unicode="&#x3e;" horiz-adv-x="1236" d="M123 903l104 166l912 -524l-908 -563l-102 165l616 385z" />
<glyph unicode="?" horiz-adv-x="989" d="M47 1274q86 60 197 99.5t221 39.5q210 0 325 -75t115 -230v-68q0 -19 -3.5 -37t-7 -32.5t-14 -32t-15.5 -27.5t-21 -27t-21.5 -23.5t-26 -24t-24.5 -21.5t-27.5 -22.5t-25.5 -20.5q-84 -62 -116 -108.5t-32 -124.5v-88h-274v120q0 86 39 151t117 120q75 52 116 92.5 t41 81.5v53q0 100 -184 100q-71 0 -150 -26t-135 -64zM279 0v252h327v-252h-327z" />
<glyph unicode="@" horiz-adv-x="1640" d="M94 541q0 145 25 286q29 171 123 308t249.5 220t346.5 83q201 0 362 -74t251.5 -206t90.5 -298q0 -512 -350 -512q-78 0 -143.5 26t-85.5 89q-47 -59 -126 -100t-163 -41q-124 0 -187 54.5t-63 139.5q0 52 18 153.5t52 200.5q38 117 153.5 192t237.5 75q120 0 193 -52.5 t73 -140.5q0 -25 -4 -52t-13 -68.5t-12 -59.5q-22 -121 -22 -176q0 -44 26 -74.5t66 -30.5q197 0 197 379q0 195 -154 319t-397 124q-229 0 -383 -138t-183 -348q-24 -163 -24 -274q0 -187 153.5 -305.5t432.5 -118.5q157 0 323 88l70 -121q-179 -100 -393 -100 q-176 0 -317 42t-233 116.5t-141 175t-49 219.5zM610 582q0 -115 109 -115q78 0 139.5 52.5t73.5 131.5q3 15 12.5 59t14.5 67.5t9.5 58.5t4.5 61q0 50 -28.5 73t-86.5 23q-77 0 -141 -66.5t-78 -148.5q-7 -34 -14.5 -81.5t-11 -78.5t-3.5 -36z" />
<glyph unicode="A" horiz-adv-x="1329" d="M43 0l467 1405h317l457 -1405h-311l-92 319h-432l-95 -319h-311zM502 543h327l-161 542z" />
<glyph unicode="B" horiz-adv-x="1294" d="M147 0v1393h560q197 0 315.5 -99t118.5 -268v-47q0 -77 -56.5 -152t-144.5 -102q113 -39 177.5 -116t64.5 -185v-76q0 -168 -118 -258t-319 -90h-598zM432 223h266q199 0 199 156v72q0 72 -58.5 113.5t-140.5 41.5h-266v-383zM432 815h256q77 0 123.5 39.5t46.5 110.5v47 q0 84 -53.5 119.5t-151.5 35.5h-221v-352z" />
<glyph unicode="C" horiz-adv-x="1163" d="M121 438v514q0 139 73.5 245.5t194.5 161t270 54.5q150 0 256 -33.5t197 -105.5l-115 -201q-133 96 -317 96q-121 0 -196.5 -61.5t-75.5 -171.5v-483q0 -116 75.5 -175t202.5 -59q192 0 311 84l107 -197q-88 -68 -189.5 -97t-252.5 -29q-157 0 -277.5 50t-192 155 t-71.5 253z" />
<glyph unicode="D" horiz-adv-x="1341" d="M150 0v1393h509q123 0 223.5 -30t175 -89t115.5 -153t41 -216v-420q0 -122 -44.5 -216t-123.5 -152t-181.5 -87.5t-223.5 -29.5h-491zM430 240h211q127 0 209 66t82 200v377q0 132 -76.5 200t-196.5 68h-229v-911z" />
<glyph unicode="E" d="M147 0v1393h873v-242h-588v-328h469v-231h-469v-352h633v-240h-918z" />
<glyph unicode="F" horiz-adv-x="1075" d="M147 0v1393h871v-242h-586v-328h467v-233h-467v-590h-285z" />
<glyph unicode="G" horiz-adv-x="1343" d="M121 436v518q0 144 78.5 249.5t207.5 157.5t291 52q265 0 478 -133l-101 -209q-86 51 -168 75.5t-194 24.5q-133 0 -219 -62t-86 -175v-479q0 -115 79 -175.5t207 -60.5q137 0 240 47v295h-223v223h510v-643q-228 -161 -527 -161q-165 0 -292.5 50.5t-204 155.5 t-76.5 250z" />
<glyph unicode="H" horiz-adv-x="1452" d="M147 0v1393h285v-590h586v590h285v-1393h-285v561h-586v-561h-285z" />
<glyph unicode="I" horiz-adv-x="632" d="M174 0v1393h285v-1393h-285z" />
<glyph unicode="J" horiz-adv-x="1146" d="M35 313l276 66q3 -61 60.5 -109.5t142.5 -48.5q88 0 142.5 43t54.5 127v1002h286v-1012q0 -191 -124.5 -294t-346.5 -103q-214 0 -341.5 85.5t-149.5 243.5z" />
<glyph unicode="K" horiz-adv-x="1335" d="M147 0v1393h285v-627l467 627h350l-542 -664l602 -729h-363l-424 545l-90 -103v-442h-285z" />
<glyph unicode="L" horiz-adv-x="1112" d="M147 0v1393h285v-1153h649v-240h-934z" />
<glyph unicode="M" horiz-adv-x="1736" d="M147 0v1393h310l409 -772l416 772h307v-1393h-286v973l-353 -680h-170l-348 678v-971h-285z" />
<glyph unicode="N" horiz-adv-x="1435" d="M147 0v1393h271l606 -963v963h262v-1393h-268l-608 958v-958h-263z" />
<glyph unicode="O" horiz-adv-x="1388" d="M123 436v522q0 209 156 332t399 123h33q157 0 282.5 -54t199 -158.5t73.5 -242.5v-522q0 -146 -71.5 -250t-195 -155t-288.5 -51h-31q-255 0 -406 118t-151 338zM410 455q0 -117 71 -176.5t199 -59.5h31q126 0 198 60t72 176v481q0 111 -75 173t-195 62h-33 q-121 0 -194.5 -62t-73.5 -171v-483z" />
<glyph unicode="P" horiz-adv-x="1277" d="M147 0v1393h574q214 0 341.5 -104t127.5 -292v-151q0 -177 -131 -273t-334 -96h-293v-477h-285zM432 702h270q92 0 147.5 44t55.5 133v88q0 85 -55.5 134.5t-147.5 49.5h-270v-449z" />
<glyph unicode="Q" horiz-adv-x="1388" d="M121 436v522q0 209 156 332t399 123h33q157 0 282.5 -54t199 -158.5t73.5 -242.5v-522q0 -188 -117 -305l135 -141l-139 -111l-146 152q-127 -51 -288 -51h-31q-255 0 -406 118t-151 338zM408 455q0 -117 71 -176.5t199 -59.5h31q61 0 100 10l-137 146l137 110l143 -149 q27 56 27 119v481q0 111 -75 173t-195 62h-33q-121 0 -194.5 -62t-73.5 -171v-483z" />
<glyph unicode="R" horiz-adv-x="1288" d="M150 0v1393h581q217 0 339 -98.5t122 -293.5v-67q0 -134 -66 -223t-184 -123l295 -588h-307l-252 524h-244v-524h-284zM434 748h285q79 2 133.5 43t54.5 116v84q0 75 -53 117.5t-141 42.5h-279v-403z" />
<glyph unicode="S" horiz-adv-x="1222" d="M100 199l138 180q76 -76 176 -117t204 -41q105 0 163.5 42.5t58.5 117.5q0 77 -56 118.5t-213 88.5q-221 64 -327 160q-110 99 -109 261q1 96 39 173q40 79 108.5 128t155.5 75t185 26q281 0 483 -174l-129 -190q-87 66 -168 94t-178 28q-100 0 -156.5 -41t-56.5 -116 q0 -73 58.5 -116t217.5 -91q216 -63 321.5 -162t106.5 -252q0 -189 -135.5 -298t-357.5 -109q-154 0 -296.5 56.5t-232.5 158.5z" />
<glyph unicode="T" horiz-adv-x="1198" d="M33 1151v242h1130v-242h-424v-1151h-286v1151h-420z" />
<glyph unicode="U" horiz-adv-x="1431" d="M145 449v944h285v-930q0 -119 82 -181.5t203 -62.5q120 0 202 64t82 180v930h285v-944q0 -114 -44.5 -204.5t-122.5 -147.5t-180 -87t-220 -30q-119 0 -221.5 29.5t-181.5 86.5t-124 147.5t-45 205.5z" />
<glyph unicode="V" horiz-adv-x="1282" d="M37 1393h311l289 -1043l297 1043h309l-459 -1393h-297z" />
<glyph unicode="W" horiz-adv-x="1839" d="M63 1393h293l185 -1031l250 1031h256l253 -1037l181 1037h293l-291 -1393h-316l-249 991l-246 -991h-318z" />
<glyph unicode="X" horiz-adv-x="1261" d="M43 0l416 694l-387 699h321l244 -486l258 486h319l-403 -699l403 -694h-323l-256 479l-266 -479h-326z" />
<glyph unicode="Y" horiz-adv-x="1294" d="M59 1393h326l258 -602l264 602h326l-447 -877v-516h-286v518z" />
<glyph unicode="Z" horiz-adv-x="1202" d="M88 0v162l655 987h-643v244h1008v-162l-653 -989h651v-242h-1018z" />
<glyph unicode="[" horiz-adv-x="579" d="M150 -326v1719h387v-187h-148v-1349h139v-183h-378z" />
<glyph unicode="\" horiz-adv-x="925" d="M59 1393h248l608 -1393h-247z" />
<glyph unicode="]" horiz-adv-x="575" d="M92 -133h139v1327h-139v199h383v-1715h-383v189z" />
<glyph unicode="^" horiz-adv-x="903" d="M90 842l367 571l354 -569l-145 -64l-209 340l-215 -340z" />
<glyph unicode="_" horiz-adv-x="1159" d="M90 -68h979v-165h-979v165z" />
<glyph unicode="`" horiz-adv-x="565" d="M76 1391l180 102l217 -313l-131 -78z" />
<glyph unicode="a" horiz-adv-x="1132" d="M96 291v252l641 88v74q0 114 -176 114q-69 0 -167 -23.5t-161 -50.5l-77 193q90 54 213.5 89.5t228.5 35.5q198 0 310 -91t112 -263v-709h-232l-26 92q-51 -57 -123 -79.5t-170 -22.5q-180 0 -276.5 79.5t-96.5 221.5zM381 315q0 -54 41.5 -82t116.5 -28q72 0 132 32 t60 85v135l-350 -51v-91z" />
<glyph unicode="b" horiz-adv-x="1208" d="M127 0v1413h285v-483q106 135 295 135q193 0 297 -101.5t104 -281.5v-317q0 -182 -103.5 -281.5t-297.5 -99.5q-87 0 -168.5 35t-128.5 102l-45 -121h-238zM412 358q0 -74 59 -113.5t145 -39.5q207 0 207 162v313q0 74 -56 118t-140 44q-94 0 -154.5 -40.5t-60.5 -119.5 v-324z" />
<glyph unicode="c" horiz-adv-x="1007" d="M102 358v324q0 182 133 282.5t353 100.5t366 -111l-102 -196q-105 65 -236 65q-102 0 -165.5 -44.5t-63.5 -127.5v-260q0 -86 66 -130t168 -44q132 0 237 59l98 -194q-130 -100 -366 -100q-146 0 -253.5 40t-171 125.5t-63.5 210.5z" />
<glyph unicode="d" horiz-adv-x="1206" d="M100 365v317q0 180 104.5 281.5t299.5 101.5q187 0 293 -135v483h284v-1413h-237l-45 121q-47 -67 -128.5 -102t-166.5 -35q-196 0 -300 99.5t-104 281.5zM385 367q0 -162 207 -162q86 0 144.5 39.5t58.5 113.5v324q0 79 -59.5 119.5t-153.5 40.5q-84 0 -140.5 -44 t-56.5 -118v-313z" />
<glyph unicode="e" horiz-adv-x="1148" d="M98 360v347q0 105 70.5 187.5t181.5 125.5t238 43q197 0 331 -98t134 -258v-261h-670v-73q0 -79 68.5 -117.5t181.5 -38.5q192 0 315 70l90 -191q-169 -108 -426 -108q-81 0 -155.5 14.5t-140 45t-114 74t-76.5 105t-28 133.5zM385 633h401v67q0 63 -60.5 101.5 t-137.5 38.5t-139.5 -39.5t-63.5 -102.5v-65z" />
<glyph unicode="f" horiz-adv-x="718" d="M43 862v182h125v113q0 148 103 226.5t257 78.5q165 0 277 -39l-45 -209q-93 19 -176 19q-59 0 -96 -25t-37 -75v-89h249v-182h-249v-862h-283v862h-125z" />
<glyph unicode="g" horiz-adv-x="1185" d="M70 -188q0 156 159 223q-51 27 -74.5 62t-23.5 89q0 48 35 98.5t96 80.5q-141 90 -141 278v59q0 120 62.5 203t165.5 120.5t241 37.5q139 0 248 -45l252 90l67 -170l-158 -49q56 -77 56 -184v-78q0 -89 -35.5 -155.5t-99 -106.5t-146 -59t-182.5 -19q-88 0 -170 16 q-31 -31 -31 -63q0 -31 25.5 -52.5t68.5 -29.5l600 -80v-240q0 -97 -61.5 -166.5t-158.5 -102t-216 -32.5h-153q-122 0 -217 30t-152 93.5t-57 151.5zM344 -154q0 -47 46 -70.5t114 -23.5h133q75 0 118 25.5t44 75.5v59l-369 45q-86 -23 -86 -111zM410 610q0 -64 51 -96.5 t131 -32.5q76 0 125 30.5t49 98.5v84q-1 63 -53 97t-123 34q-75 0 -127.5 -33.5t-52.5 -97.5v-84z" />
<glyph unicode="h" horiz-adv-x="1232" d="M127 0v1413h287v-536q42 82 136 134t195 52q189 0 276 -95t87 -280v-688h-287v672q0 72 -45.5 111.5t-122.5 39.5q-92 0 -165.5 -50.5t-73.5 -121.5v-651h-287z" />
<glyph unicode="i" horiz-adv-x="587" d="M147 1217v196h291v-196h-291zM150 0v1044h286v-1044h-286z" />
<glyph unicode="j" horiz-adv-x="620" d="M-131 -207q88 20 142 41.5t96 58t59.5 91t17.5 135.5v925h287v-956q0 -232 -130.5 -353.5t-408.5 -166.5zM182 1214v199h287v-199h-287z" />
<glyph unicode="k" horiz-adv-x="1120" d="M127 0v1413h287v-733h65l273 364h327l-370 -487l401 -557h-332l-299 434h-65v-434h-287z" />
<glyph unicode="l" horiz-adv-x="587" d="M150 0v1413h286v-1413h-286z" />
<glyph unicode="m" horiz-adv-x="1830" d="M127 0v1044h217l23 -157q42 77 133.5 126.5t187.5 49.5q122 0 204 -45.5t107 -140.5q43 78 142 133t211 55q178 0 266 -80t88 -248v-737h-287v668q0 81 -36 120t-119 39q-88 0 -147.5 -51.5t-59.5 -130.5v-645h-287v672q0 80 -36 118.5t-116 38.5q-81 0 -142.5 -54.5 t-61.5 -125.5v-649h-287z" />
<glyph unicode="n" horiz-adv-x="1234" d="M127 0v1044h225l29 -163q135 182 348 182q381 0 381 -373v-690h-287v655q0 170 -188 170q-84 0 -152.5 -51.5t-68.5 -122.5v-651h-287z" />
<glyph unicode="o" horiz-adv-x="1181" d="M98 362v322q0 176 138.5 277.5t357.5 101.5q224 0 355.5 -101t131.5 -278v-322q0 -117 -68 -205t-177.5 -131.5t-241.5 -43.5q-135 0 -246.5 43t-180.5 131t-69 206zM383 381q0 -76 61 -119t150 -43q83 0 143 44t60 118v285q0 73 -59.5 115t-143.5 42q-86 0 -148.5 -42.5 t-62.5 -114.5v-285z" />
<glyph unicode="p" horiz-adv-x="1204" d="M123 -442v1486h235l48 -122q45 67 126 103t168 36q194 0 298 -100t104 -283v-320q0 -180 -104 -279t-298 -99q-189 0 -294 131v-553h-283zM408 360q0 -79 59.5 -119t153.5 -40q84 0 140 45t56 121v303q0 86 -55 127t-150 41q-87 0 -145.5 -40t-58.5 -116v-322z" />
<glyph unicode="q" horiz-adv-x="1204" d="M100 358v320q0 183 104.5 283t299.5 100q85 0 166.5 -36t128.5 -103l45 122h237v-1486h-284v553q-105 -131 -293 -131q-195 0 -299.5 99t-104.5 279zM385 362q0 -74 56 -117.5t141 -43.5q94 0 153.5 40t59.5 119v322q0 75 -58.5 115.5t-144.5 40.5q-97 0 -152 -40 t-55 -124v-312z" />
<glyph unicode="r" horiz-adv-x="790" d="M129 0v1044h223l43 -163q33 78 102 131t156 53q74 0 121 -16l-41 -273q-57 10 -115 10q-83 0 -142.5 -51.5t-59.5 -134.5v-600h-287z" />
<glyph unicode="s" horiz-adv-x="1026" d="M70 113l102 188q58 -42 152 -72t172 -30q95 0 137.5 25t42.5 77q0 42 -48 67t-171 52q-192 37 -274.5 116t-82.5 209q0 78 35.5 140.5t95 100.5t133 57.5t154.5 19.5q242 0 410 -105l-92 -188q-137 72 -279 72q-180 0 -180 -103q0 -45 42.5 -69.5t158.5 -46.5 q196 -39 280 -114.5t84 -203.5q0 -151 -118.5 -238t-301.5 -87q-120 0 -241.5 34t-210.5 99z" />
<glyph unicode="t" horiz-adv-x="837" d="M31 858v186h145v244h285v-244h256v-186h-256v-510q0 -119 125 -119q102 0 174 29l49 -213q-132 -55 -313 -55q-156 0 -239 73t-83 234v561h-143z" />
<glyph unicode="u" horiz-adv-x="1226" d="M127 358v686h285v-665q0 -76 57 -118t145 -42q87 0 145 43t58 117v665h287v-686q0 -118 -67.5 -205.5t-177.5 -130t-245 -42.5q-212 0 -349.5 100.5t-137.5 277.5z" />
<glyph unicode="v" horiz-adv-x="1124" d="M37 1044h301l223 -739l227 739h297l-389 -1044h-274z" />
<glyph unicode="w" horiz-adv-x="1552" d="M47 1044h279l137 -751l199 751h227l211 -745l127 745h276l-264 -1044h-266l-195 700l-186 -700h-277z" />
<glyph unicode="x" horiz-adv-x="1103" d="M20 0l365 512l-348 532h321l195 -348l190 348h330l-354 -532l362 -512h-327l-203 319l-201 -319h-330z" />
<glyph unicode="y" horiz-adv-x="1116" d="M43 1044h303l213 -729l211 729h301l-412 -1167q-115 -318 -497 -321l-35 206q84 2 160 42t102 110l25 68z" />
<glyph unicode="z" horiz-adv-x="983" d="M80 0v156l461 669h-453v219h782v-137l-462 -682h493v-225h-821z" />
<glyph unicode="{" horiz-adv-x="634" d="M104 600l109 102l-59 355q-28 161 62 298.5t269 198.5l111 -114q-115 -58 -161.5 -162.5t-31.5 -216.5l41 -365l-88 -90l95 -76l-48 -426q-14 -119 37.5 -222t167.5 -161l-116 -122q-101 40 -174 99t-111.5 128t-51.5 142.5t-1 148.5l57 401z" />
<glyph unicode="|" horiz-adv-x="473" d="M121 -301v1694h229v-1694h-229z" />
<glyph unicode="}" horiz-adv-x="667" d="M90 -276q132 72 190 174t44 206l-54 428l99 74l-93 86l48 369q14 98 -43.5 204.5t-174.5 172.5l99 108q122 -37 210.5 -119t124 -179.5t17.5 -190.5l-65 -355l114 -102l-114 -82l65 -401q12 -70 -6.5 -147t-63 -147t-120 -128t-170.5 -88z" />
<glyph unicode="~" horiz-adv-x="837" d="M106 1288q84 142 205 142q47 0 137 -41t125 -41q66 0 101 67l104 -84q0 -1 -12 -20.5t-17.5 -28t-19.5 -27.5t-26 -29t-29 -22.5t-37 -18t-41 -5.5q-52 0 -145.5 42t-145.5 42q-23 0 -46.5 -15t-31 -24.5t-24.5 -30.5z" />
<glyph unicode="&#xa1;" horiz-adv-x="542" d="M137 -354l33 946h256l33 -946h-322zM152 838v221h288v-221h-288z" />
<glyph unicode="&#xa2;" horiz-adv-x="1026" d="M115 358v324q0 174 121 273.5t325 107.5l39 272l180 -28l-43 -254q133 -27 230 -99l-103 -196q-105 65 -235 65q-103 0 -166.5 -44.5t-63.5 -127.5v-260q0 -86 66 -130t168 -44q132 0 237 59l99 -194q-130 -100 -367 -100h-16l-43 -254l-174 26l41 248 q-140 35 -217.5 124.5t-77.5 231.5z" />
<glyph unicode="&#xa3;" horiz-adv-x="1126" d="M68 582v192h249l-16 187q-1 110 45.5 196t133 140.5t204 83t260.5 30.5v-240q-181 0 -269 -53.5t-85 -167.5l18 -176h346v-192h-327q10 -92 10 -125q2 -85 -8.5 -127t-50.5 -90h473v-240h-979v150q86 6 143.5 28.5t86 61.5t39 82.5t9.5 103.5l-14 156h-268z" />
<glyph unicode="&#xa5;" horiz-adv-x="1320" d="M84 1393h326l258 -602l264 602h325l-358 -703h293v-125h-356l-25 -49v-92h381v-119h-381v-305h-287v305h-399v119h399v94l-24 47h-377v125h315z" />
<glyph unicode="&#xa6;" horiz-adv-x="364" d="M92 -215v680h180v-680h-180zM92 745v682h180v-682h-180z" />
<glyph unicode="&#xa7;" horiz-adv-x="1175" d="M98 614q0 73 43.5 149t102.5 103q-43 76 -43 191q0 167 119.5 260.5t302.5 93.5q130 0 234.5 -43t170.5 -123l-102 -133q-53 56 -134.5 89.5t-164.5 33.5q-90 0 -146.5 -48.5t-56.5 -131.5q0 -26 9.5 -51t20.5 -43t37 -38.5t42 -32t52 -29.5t51 -24.5t56 -24t51 -21.5 q81 -35 139 -70.5t108.5 -85t76 -114.5t25.5 -146q0 -83 -37.5 -157t-108.5 -112q49 -70 49 -163q0 -184 -119.5 -286.5t-306.5 -102.5q-133 0 -246.5 52.5t-177.5 145.5l127 125q35 -58 121 -101.5t162 -43.5q219 0 219 192q0 41 -27.5 82.5t-65.5 72.5t-97 64t-101 52.5 t-98 42.5q-76 33 -126 65t-88 75.5t-55.5 101t-17.5 134.5zM315 618q0 -36 14 -66t32.5 -50.5t55.5 -42.5t63 -34t75 -32q8 -4 32 -15t33 -15.5t30.5 -14.5t32.5 -15.5t29 -15.5t31 -17.5t29 -17.5t31 -20q27 6 53.5 41.5t26.5 63.5q0 35 -14 65.5t-35 53t-58 45.5 t-69.5 38.5t-83.5 36.5q-126 53 -232 125q-34 -7 -55 -41t-21 -72z" />
<glyph unicode="&#xa8;" horiz-adv-x="821" d="M111 1206v199h200v-199h-200zM510 1206v199h199v-199h-199z" />
<glyph unicode="&#xa9;" horiz-adv-x="1638" d="M92 717q0 151 56 285t152.5 230t232 152t288.5 56q201 0 367.5 -95.5t262 -261.5t95.5 -366q0 -150 -56.5 -284t-153 -230t-230.5 -151.5t-285 -55.5q-204 0 -371 94t-262.5 259.5t-95.5 367.5zM231 715q0 -164 77.5 -298.5t213.5 -212t301 -77.5q122 0 231 45.5 t187 123.5t124 187.5t46 231.5t-46 231.5t-124.5 188t-188 124.5t-231.5 46q-164 0 -299.5 -78t-213 -213t-77.5 -299zM453 653v97q0 92 52.5 167.5t139 117.5t186.5 42q104 0 171 -31.5t139 -111.5l-101 -119q-35 42 -93 68t-116 26q-77 0 -132.5 -45.5t-55.5 -113.5v-97 q0 -73 59 -117.5t140 -46.5q60 0 119 23t102 63l90 -122q-54 -59 -144 -94t-175 -35q-161 0 -271 91t-110 238z" />
<glyph unicode="&#xaa;" horiz-adv-x="729" d="M92 954v136l375 53v22q0 59 -31.5 84t-91.5 25q-33 0 -86 -15t-82 -30l-51 119q113 61 229 61q129 0 203 -57.5t74 -175.5v-414h-111l-45 76q-25 -35 -75.5 -57.5t-96.5 -22.5q-98 0 -154.5 51.5t-56.5 144.5zM256 961q0 -26 31 -45t65 -19q38 0 73.5 19t35.5 49v73 l-205 -28v-49z" />
<glyph unicode="&#xab;" horiz-adv-x="972" d="M92 356l326 371l80 -82l-201 -285l199 -274l-78 -86zM475 356l326 371l78 -82l-199 -285l199 -274l-78 -86z" />
<glyph unicode="&#xac;" horiz-adv-x="942" d="M92 551v164h756v-348h-166v184h-590z" />
<glyph unicode="&#xad;" horiz-adv-x="708" d="M90 485v226h528v-226h-528z" />
<glyph unicode="&#xae;" horiz-adv-x="1638" d="M92 717q0 207 93 372t259.5 258t376.5 93q205 0 371 -93.5t260 -259t94 -370.5q0 -207 -94 -372t-259.5 -257t-371.5 -92q-210 0 -376.5 91.5t-259.5 256.5t-93 373zM231 715q0 -168 76 -302.5t211 -210t305 -75.5q167 0 301.5 75.5t210.5 210t76 302.5q0 167 -76 302 t-211 211.5t-303 76.5t-303.5 -76.5t-211 -211.5t-75.5 -302zM537 332v764h346q103 0 171 -64.5t68 -163.5v-37q0 -73 -41 -122t-112 -72l192 -305h-178l-184 284h-105v-284h-157zM694 735h168q42 0 73.5 22.5t31.5 61.5v45q0 38 -32 68.5t-73 30.5h-168v-228z" />
<glyph unicode="&#xaf;" horiz-adv-x="927" d="M111 1307v112h704v-112h-704z" />
<glyph unicode="&#xb0;" horiz-adv-x="788" d="M92 1106v57q0 113 85 179t214 71q127 -5 215 -71.5t88 -178.5v-57q0 -113 -88 -178.5t-215 -65.5q-128 0 -213.5 65.5t-85.5 178.5zM264 1092q1 -40 39.5 -64t87.5 -24q51 0 91 23.5t40 64.5v92q0 39 -40.5 64.5t-90.5 25.5q-49 0 -88 -25.5t-39 -64.5v-92z" />
<glyph unicode="&#xb1;" horiz-adv-x="1144" d="M92 0v162h961v-162h-961zM121 623v178h340v319h203v-319h356v-178h-356v-342h-203v342h-340z" />
<glyph unicode="&#xb2;" horiz-adv-x="878" d="M147 1311q48 42 134 71t194 29q125 0 201 -52.5t76 -156.5q0 -132 -164 -205q-24 -12 -66.5 -31t-66 -30t-45 -30.5t-25.5 -41.5h369v-162h-602v99q0 103 56.5 162.5t178.5 111.5q98 39 126 59q31 24 32 48q0 65 -113 65q-70 0 -118 -17.5t-103 -51.5z" />
<glyph unicode="&#xb3;" horiz-adv-x="757" d="M92 791l107 96q25 -36 80.5 -59t117.5 -23q58 0 95.5 14t37.5 43v23q0 41 -42.5 64.5t-94.5 23.5h-137v131h131q51 0 92 18t41 58v18q0 32 -36.5 45.5t-86.5 13.5q-64 0 -116.5 -18t-77.5 -49l-84 108q39 52 126 83.5t181 31.5q301 0 301 -201v-18q0 -58 -42.5 -100 t-96.5 -56q57 -17 101 -58t44 -95v-31q0 -59 -26 -101t-71.5 -63.5t-96 -31t-111.5 -9.5q-110 0 -203 38t-133 104z" />
<glyph unicode="&#xb4;" horiz-adv-x="575" d="M94 1167l225 320l177 -101l-269 -286z" />
<glyph unicode="&#xb6;" horiz-adv-x="1124" d="M92 1040v50q0 131 88.5 215.5t229.5 87.5h559v-1393h-146v1270h-168v-1270h-157v756h-88q-141 0 -229.5 76t-88.5 208z" />
<glyph unicode="&#xb7;" horiz-adv-x="430" d="M119 408v251h282v-251h-282z" />
<glyph unicode="&#xb8;" horiz-adv-x="550" d="M115 -178l37 178h155l-24 -102q157 -56 157 -197q0 -157 -260 -240l-65 113q1 1 23.5 11t38 19t35.5 23.5t31 31.5t11 36q0 53 -36.5 82.5t-102.5 44.5z" />
<glyph unicode="&#xb9;" horiz-adv-x="575" d="M61 1206v187h422v-695h-213v508h-209z" />
<glyph unicode="&#xba;" horiz-adv-x="786" d="M92 1022v141q0 109 88 177.5t211 68.5q122 0 211.5 -68.5t89.5 -177.5v-143q0 -110 -89 -177t-212 -67t-211 68t-88 178zM272 1038q0 -60 29.5 -88t91.5 -28q46 0 83.5 22t37.5 60v172q-1 37 -38 59t-83 22q-48 0 -84.5 -23.5t-36.5 -62.5v-133z" />
<glyph unicode="&#xbb;" horiz-adv-x="962" d="M72 645l80 82l325 -371l-325 -356l-78 86l198 274zM455 645l77 82l328 -371l-328 -356l-75 86l198 274z" />
<glyph unicode="&#xbc;" horiz-adv-x="1431" d="M63 1206v187h422v-695h-213v508h-209zM109 0l882 1393h234l-871 -1393h-245zM668 143v111l336 479h266v-440h123v-150h-123v-143h-201v143h-401zM879 293h190v256h-18z" />
<glyph unicode="&#xbd;" horiz-adv-x="1366" d="M63 1206v187h422v-695h-213v508h-209zM72 0l882 1393h234l-871 -1393h-245zM748 594q49 42 134 71t193 29q125 0 201 -52.5t76 -156.5q0 -131 -164 -204q-24 -12 -66.5 -31t-66 -30.5t-45 -31t-25.5 -41.5h369v-161h-602v98q0 103 56.5 162.5t178.5 111.5q98 39 126 59 q32 24 32 48q0 65 -113 65q-70 0 -118 -17.5t-103 -51.5z" />
<glyph unicode="&#xbe;" horiz-adv-x="1570" d="M59 791l107 96q25 -36 81 -59t118 -23q58 0 95.5 14t37.5 43v23q0 41 -43 64.5t-95 23.5h-137v131h131q51 0 92 18t41 58v18q0 59 -122 59q-65 0 -117.5 -18t-77.5 -49l-84 108q39 52 126 83.5t181 31.5q301 0 301 -201v-18q0 -58 -42.5 -100t-96.5 -56q57 -17 101 -58 t44 -95v-31q0 -59 -26 -101t-71.5 -63.5t-96 -31t-111.5 -9.5q-110 0 -203 38t-133 104zM279 0l882 1393h234l-871 -1393h-245zM834 141v111l335 479h267v-440h123v-150h-123v-143h-201v143h-401zM1044 291h191v256h-18z" />
<glyph unicode="&#xbf;" horiz-adv-x="884" d="M43 14q0 26 4 49.5t15 46.5t18 37t27.5 36.5t27.5 30t33 33t31 29.5q74 62 104.5 112t30.5 128v92h274v-125q0 -72 -35 -131t-106 -119l-24.5 -24.5l-27 -27t-23.5 -25t-23.5 -28.5t-16 -26t-13 -29.5t-3.5 -27.5v-53q0 -109 145 -109q117 0 262 99l105 -193 q-86 -63 -193 -105t-213 -42q-189 0 -294 77t-105 236v59zM297 809v254h328v-254h-328z" />
<glyph unicode="&#xc0;" horiz-adv-x="1331" d="M43 0l467 1405h317l457 -1405h-311l-92 319h-432l-95 -319h-311zM397 1794l181 102l217 -313l-131 -78zM502 543h327l-161 542z" />
<glyph unicode="&#xc1;" horiz-adv-x="1331" d="M43 0l467 1405h317l457 -1405h-311l-92 319h-432l-95 -319h-311zM502 543h327l-161 542zM535 1569l225 319l176 -100l-268 -287z" />
<glyph unicode="&#xc2;" horiz-adv-x="1331" d="M43 0l467 1405h317l457 -1405h-311l-92 319h-432l-95 -319h-311zM385 1602l277 186l276 -193l-82 -100l-194 115l-195 -113zM502 543h327l-161 542z" />
<glyph unicode="&#xc3;" horiz-adv-x="1331" d="M43 0l467 1405h317l457 -1405h-311l-92 319h-432l-95 -319h-311zM328 1604q83 141 204 141q47 0 137.5 -41t125.5 -41q65 0 100 68l104 -84q-1 -1 -12 -20.5t-17 -28t-20 -27.5t-26 -29.5t-29 -23t-37 -18t-41 -5.5q-52 0 -145.5 42t-145.5 42q-23 0 -46.5 -15t-31 -24.5 t-24.5 -30.5zM502 543h327l-161 542z" />
<glyph unicode="&#xc4;" horiz-adv-x="1331" d="M43 0l467 1405h317l457 -1405h-311l-92 319h-432l-95 -319h-311zM365 1522v198h200v-198h-200zM502 543h327l-161 542zM764 1522v198h199v-198h-199z" />
<glyph unicode="&#xc5;" horiz-adv-x="1331" d="M43 0l467 1405h317l457 -1405h-311l-92 319h-432l-95 -319h-311zM502 543h327l-161 542zM502 1657q0 67 47.5 112.5t112.5 45.5q67 0 115 -45.5t48 -112.5q0 -66 -48.5 -113t-114.5 -47q-65 0 -112.5 47t-47.5 113zM586 1655q0 -33 22.5 -55.5t53.5 -22.5q34 0 56.5 22 t22.5 56t-23 58t-56 24q-31 0 -53.5 -24t-22.5 -58z" />
<glyph unicode="&#xc6;" horiz-adv-x="1857" d="M10 0l862 1393h881v-242h-489v-326h403v-223h-401v-362h532v-240h-817v315h-449l-188 -315h-334zM643 539h338v585z" />
<glyph unicode="&#xc7;" horiz-adv-x="1187" d="M131 438v514q0 139 73.5 245.5t195 161t270.5 54.5q150 0 255 -33.5t197 -105.5l-114 -201q-133 96 -318 96q-121 0 -196.5 -61.5t-75.5 -171.5v-483q0 -116 75.5 -175t202.5 -59q193 0 312 84l106 -197q-80 -62 -171.5 -91t-221.5 -33l-19 -84q158 -57 158 -197 q0 -157 -260 -240l-65 113q1 1 23.5 11t38 19t35.5 23.5t31 31.5t11 36q0 53 -36.5 82.5t-102.5 44.5l32 164q-199 24 -317.5 140t-118.5 312z" />
<glyph unicode="&#xc8;" horiz-adv-x="1163" d="M147 0v1393h873v-242h-588v-328h469v-231h-469v-352h633v-240h-918zM334 1782l180 102l217 -313l-131 -78z" />
<glyph unicode="&#xc9;" horiz-adv-x="1163" d="M147 0v1393h873v-242h-588v-328h469v-231h-469v-352h633v-240h-918zM473 1556l225 320l176 -100l-268 -287z" />
<glyph unicode="&#xca;" horiz-adv-x="1163" d="M147 0v1393h873v-242h-588v-328h469v-231h-469v-352h633v-240h-918zM326 1589l276 187l277 -193l-82 -100l-195 114l-194 -112z" />
<glyph unicode="&#xcb;" horiz-adv-x="1163" d="M147 0v1393h873v-242h-588v-328h469v-231h-469v-352h633v-240h-918zM303 1509v199h201v-199h-201zM702 1509v199h199v-199h-199z" />
<glyph unicode="&#xcc;" horiz-adv-x="632" d="M51 1782l180 102l218 -313l-132 -78zM174 0v1393h285v-1393h-285z" />
<glyph unicode="&#xcd;" horiz-adv-x="632" d="M174 0v1393h285v-1393h-285zM186 1556l225 320l177 -101l-269 -286z" />
<glyph unicode="&#xce;" horiz-adv-x="632" d="M41 1589l276 187l277 -193l-82 -100l-195 114l-194 -112zM174 0v1393h285v-1393h-285z" />
<glyph unicode="&#xcf;" horiz-adv-x="632" d="M21 1509v199h200v-199h-200zM174 0v1393h285v-1393h-285zM420 1509v199h199v-199h-199z" />
<glyph unicode="&#xd0;" horiz-adv-x="1421" d="M59 602v209h189v612h487q116 0 223.5 -30t191.5 -84.5t134.5 -139t50.5 -186.5v-528q0 -113 -46.5 -201t-129.5 -143t-191 -83t-235 -28h-485v602h-189zM532 238h201q316 0 316 233v496q0 102 -91 159.5t-223 57.5h-200v-373h284v-209h-287v-364z" />
<glyph unicode="&#xd1;" horiz-adv-x="1437" d="M123 0v1393h270l606 -963v963h263v-1393h-269l-608 958v-958h-262zM381 1591q84 142 205 142q47 0 137 -41t125 -41q65 0 100 67l105 -84q-1 -2 -10.5 -18t-14.5 -23.5t-16.5 -24t-20.5 -26t-23.5 -22.5t-28.5 -20t-32 -12t-37 -5q-52 0 -145 42t-145 42q-23 0 -46.5 -15 t-32 -25t-24.5 -30z" />
<glyph unicode="&#xd2;" horiz-adv-x="1386" d="M121 436v522q0 209 156 332t399 123h33q157 0 282.5 -54t199 -158.5t73.5 -242.5v-522q0 -146 -71.5 -250t-195 -155t-288.5 -51h-31q-255 0 -406 118t-151 338zM408 455q0 -117 71 -176.5t199 -59.5h31q126 0 198 60t72 176v481q0 111 -75 173t-195 62h-33 q-121 0 -194.5 -62t-73.5 -171v-483zM422 1802l180 103l217 -314l-131 -78z" />
<glyph unicode="&#xd3;" horiz-adv-x="1386" d="M121 436v522q0 209 156 332t399 123h33q157 0 282.5 -54t199 -158.5t73.5 -242.5v-522q0 -146 -71.5 -250t-195 -155t-288.5 -51h-31q-255 0 -406 118t-151 338zM408 455q0 -117 71 -176.5t199 -59.5h31q126 0 198 60t72 176v481q0 111 -75 173t-195 62h-33 q-121 0 -194.5 -62t-73.5 -171v-483zM561 1577l225 319l177 -100l-269 -287z" />
<glyph unicode="&#xd4;" horiz-adv-x="1386" d="M121 436v522q0 209 156 332t399 123h33q157 0 282.5 -54t199 -158.5t73.5 -242.5v-522q0 -146 -71.5 -250t-195 -155t-288.5 -51h-31q-255 0 -406 118t-151 338zM408 455q0 -117 71 -176.5t199 -59.5h31q126 0 198 60t72 176v481q0 111 -75 173t-195 62h-33 q-121 0 -194.5 -62t-73.5 -171v-483zM412 1610l276 186l277 -192l-82 -101l-195 115l-194 -113z" />
<glyph unicode="&#xd5;" horiz-adv-x="1386" d="M121 436v522q0 209 156 332t399 123h33q157 0 282.5 -54t199 -158.5t73.5 -242.5v-522q0 -146 -71.5 -250t-195 -155t-288.5 -51h-31q-255 0 -406 118t-151 338zM352 1612q83 141 205 141q47 0 137 -41t125 -41q66 0 101 68l104 -84q-1 -1 -12 -20.5t-17 -28t-20 -27.5 t-26 -29.5t-29 -23t-37 -18t-41 -5.5q-52 0 -145.5 42t-145.5 42q-23 0 -46 -14.5t-31.5 -24.5t-24.5 -30zM408 455q0 -117 71 -176.5t199 -59.5h31q126 0 198 60t72 176v481q0 111 -75 173t-195 62h-33q-121 0 -194.5 -62t-73.5 -171v-483z" />
<glyph unicode="&#xd6;" horiz-adv-x="1386" d="M121 436v522q0 209 156 332t399 123h33q157 0 282.5 -54t199 -158.5t73.5 -242.5v-522q0 -146 -71.5 -250t-195 -155t-288.5 -51h-31q-255 0 -406 118t-151 338zM391 1530v199h201v-199h-201zM408 455q0 -117 71 -176.5t199 -59.5h31q126 0 198 60t72 176v481 q0 111 -75 173t-195 62h-33q-121 0 -194.5 -62t-73.5 -171v-483zM791 1530v199h198v-199h-198z" />
<glyph unicode="&#xd7;" horiz-adv-x="1230" d="M86 0l412 510l-396 494h228l280 -353l287 353h225l-393 -494l410 -510h-238l-291 367l-286 -367h-238z" />
<glyph unicode="&#xd8;" horiz-adv-x="1314" d="M119 436v522q0 209 156 332t399 123h33q120 0 227 -35l88 183h158l-117 -242q94 -60 146.5 -152.5t52.5 -208.5v-522q0 -146 -71.5 -250t-195 -155t-288.5 -51h-31q-133 0 -238 30l-76 -157h-167l106 221q-182 120 -182 362zM406 455q0 -71 24 -117l393 815 q-53 18 -116 18h-33q-121 0 -194.5 -62t-73.5 -171v-483zM547 238q59 -19 129 -19h31q126 0 198 60t72 176v481q0 74 -35 127z" />
<glyph unicode="&#xd9;" horiz-adv-x="1435" d="M145 449v944h285v-930q0 -119 82 -181.5t203 -62.5q120 0 202 64t82 180v930h285v-944q0 -114 -44.5 -204.5t-122.5 -147.5t-180 -87t-220 -30q-119 0 -221.5 29.5t-181.5 86.5t-124 147.5t-45 205.5zM449 1782l180 102l217 -313l-131 -78z" />
<glyph unicode="&#xda;" horiz-adv-x="1433" d="M145 449v944h285v-930q0 -119 82 -181.5t203 -62.5q120 0 202 64t82 180v930h285v-944q0 -114 -44.5 -204.5t-122.5 -147.5t-180 -87t-220 -30q-119 0 -221.5 29.5t-181.5 86.5t-124 147.5t-45 205.5zM588 1556l225 320l176 -100l-268 -287z" />
<glyph unicode="&#xdb;" horiz-adv-x="1433" d="M145 449v944h285v-930q0 -119 82 -181.5t203 -62.5q120 0 202 64t82 180v930h285v-944q0 -114 -44.5 -204.5t-122.5 -147.5t-180 -87t-220 -30q-119 0 -221.5 29.5t-181.5 86.5t-124 147.5t-45 205.5zM438 1589l277 187l276 -193l-82 -100l-194 114l-195 -112z" />
<glyph unicode="&#xdc;" horiz-adv-x="1433" d="M145 449v944h285v-930q0 -119 82 -181.5t203 -62.5q120 0 202 64t82 180v930h285v-944q0 -114 -44.5 -204.5t-122.5 -147.5t-180 -87t-220 -30q-119 0 -221.5 29.5t-181.5 86.5t-124 147.5t-45 205.5zM416 1509v199h200v-199h-200zM815 1509v199h199v-199h-199z" />
<glyph unicode="&#xdd;" horiz-adv-x="1300" d="M59 1393h326l258 -602l264 602h326l-447 -877v-516h-286v518zM518 1556l225 320l177 -100l-269 -287z" />
<glyph unicode="&#xde;" horiz-adv-x="1146" d="M86 0v1393h285v-254h256q199 0 316.5 -108t117.5 -290v-39q0 -182 -114.5 -278t-319.5 -96h-256v-328h-285zM371 567h235q75 0 121.5 37.5t46.5 100.5v36q0 65 -48 112.5t-122 47.5h-233v-334z" />
<glyph unicode="&#xe0;" d="M104 291v252l641 88v74q0 114 -176 114q-69 0 -166 -23.5t-161 -50.5l-78 193q90 54 213.5 89.5t228.5 35.5q198 0 310 -91t112 -263v-709h-231l-27 92q-51 -57 -123 -79.5t-170 -22.5q-180 0 -276.5 79.5t-96.5 221.5zM289 1489l180 102l217 -313l-131 -78zM389 315 q0 -54 41.5 -82t116.5 -28q72 0 132 32t60 85v135l-350 -51v-91z" />
<glyph unicode="&#xe1;" d="M104 291v252l641 88v74q0 114 -176 114q-69 0 -166 -23.5t-161 -50.5l-78 193q90 54 213.5 89.5t228.5 35.5q198 0 310 -91t112 -263v-709h-231l-27 92q-51 -57 -123 -79.5t-170 -22.5q-180 0 -276.5 79.5t-96.5 221.5zM389 315q0 -54 41.5 -82t116.5 -28q72 0 132 32 t60 85v135l-350 -51v-91zM426 1264l225 319l176 -100l-268 -287z" />
<glyph unicode="&#xe2;" d="M104 291v252l641 88v74q0 114 -176 114q-69 0 -166 -23.5t-161 -50.5l-78 193q90 54 213.5 89.5t228.5 35.5q198 0 310 -91t112 -263v-709h-231l-27 92q-51 -57 -123 -79.5t-170 -22.5q-180 0 -276.5 79.5t-96.5 221.5zM276 1296l277 187l276 -193l-81 -100l-195 115 l-195 -113zM389 315q0 -54 41.5 -82t116.5 -28q72 0 132 32t60 85v135l-350 -51v-91z" />
<glyph unicode="&#xe3;" d="M104 291v252l641 88v74q0 114 -176 114q-69 0 -166 -23.5t-161 -50.5l-78 193q90 54 213.5 89.5t228.5 35.5q198 0 310 -91t112 -263v-709h-231l-27 92q-51 -57 -123 -79.5t-170 -22.5q-180 0 -276.5 79.5t-96.5 221.5zM219 1298q84 142 205 142q47 0 137 -41t125 -41 q65 0 100 67l105 -84q0 -1 -12 -20.5t-17.5 -28t-19.5 -27.5t-26 -29t-29 -22.5t-37 -18t-41 -5.5q-52 0 -145.5 42t-145.5 42q-23 0 -46.5 -15t-32 -25t-24.5 -30zM389 315q0 -54 41.5 -82t116.5 -28q72 0 132 32t60 85v135l-350 -51v-91z" />
<glyph unicode="&#xe4;" d="M104 291v252l641 88v74q0 114 -176 114q-69 0 -166 -23.5t-161 -50.5l-78 193q90 54 213.5 89.5t228.5 35.5q198 0 310 -91t112 -263v-709h-231l-27 92q-51 -57 -123 -79.5t-170 -22.5q-180 0 -276.5 79.5t-96.5 221.5zM256 1217v198h201v-198h-201zM389 315 q0 -54 41.5 -82t116.5 -28q72 0 132 32t60 85v135l-350 -51v-91zM655 1217v198h199v-198h-199z" />
<glyph unicode="&#xe5;" d="M104 291v252l641 88v74q0 114 -176 114q-69 0 -166 -23.5t-161 -50.5l-78 193q90 54 213.5 89.5t228.5 35.5q198 0 310 -91t112 -263v-709h-231l-27 92q-51 -57 -123 -79.5t-170 -22.5q-180 0 -276.5 79.5t-96.5 221.5zM389 315q0 -54 41.5 -82t116.5 -28q72 0 132 32 t60 85v135l-350 -51v-91zM391 1352q0 67 47 112t113 45q67 0 115.5 -45t48.5 -112q0 -66 -49 -113t-115 -47q-65 0 -112.5 47t-47.5 113zM475 1350q0 -33 22.5 -55.5t53.5 -22.5q34 0 57 22t23 56t-23 58t-57 24q-31 0 -53.5 -24t-22.5 -58z" />
<glyph unicode="&#xe6;" horiz-adv-x="1734" d="M59 307v219l639 74v105q0 143 -192 143q-65 0 -160 -20.5t-156 -41.5l-61 185q80 47 191 78.5t210 31.5q230 0 320 -116q122 116 364 116q197 0 322 -92t125 -266v-205l-651 -57v-88q0 -71 66 -111.5t184 -40.5q85 0 177 28t144 62l96 -180q-179 -145 -432 -145 q-335 0 -446 178q-53 -91 -147.5 -134.5t-211.5 -43.5q-175 0 -278 86t-103 235zM328 315q0 -54 49 -84t131 -30q77 0 134.5 32.5t57.5 92.5v110l-372 -41v-80zM1010 621l391 34v80q0 64 -51.5 94.5t-141.5 30.5q-82 0 -140 -38t-58 -99v-102z" />
<glyph unicode="&#xe7;" horiz-adv-x="1028" d="M115 358v324q0 182 132.5 282.5t352.5 100.5q221 0 367 -111l-103 -196q-105 65 -235 65q-103 0 -166.5 -44.5t-63.5 -127.5v-260q0 -86 66 -130t168 -44q132 0 237 59l99 -194q-120 -93 -336 -100l-21 -84q158 -57 158 -197q0 -157 -260 -240l-66 113q2 1 24 11t37.5 19 t36 23.5t31.5 31.5t11 36q0 53 -36.5 82.5t-103.5 44.5l35 168q-170 24 -267 117t-97 251z" />
<glyph unicode="&#xe8;" d="M98 360v347q0 105 70.5 187.5t181.5 125.5t238 43q197 0 331 -98t134 -258v-261h-670v-73q0 -79 68.5 -117.5t181.5 -38.5q192 0 315 70l90 -191q-169 -108 -426 -108q-81 0 -155.5 14.5t-140 45t-114 74t-76.5 105t-28 133.5zM307 1491l180 102l218 -313l-132 -78z M385 633h401v67q0 63 -60.5 101.5t-137.5 38.5t-139.5 -39.5t-63.5 -102.5v-65z" />
<glyph unicode="&#xe9;" d="M98 360v347q0 105 70.5 187.5t181.5 125.5t238 43q197 0 331 -98t134 -258v-261h-670v-73q0 -79 68.5 -117.5t181.5 -38.5q192 0 315 70l90 -191q-169 -108 -426 -108q-81 0 -155.5 14.5t-140 45t-114 74t-76.5 105t-28 133.5zM385 633h401v67q0 63 -60.5 101.5 t-137.5 38.5t-139.5 -39.5t-63.5 -102.5v-65zM444 1266l226 319l176 -100l-268 -287z" />
<glyph unicode="&#xea;" d="M98 360v347q0 105 70.5 187.5t181.5 125.5t238 43q197 0 331 -98t134 -258v-261h-670v-73q0 -79 68.5 -117.5t181.5 -38.5q192 0 315 70l90 -191q-169 -108 -426 -108q-81 0 -155.5 14.5t-140 45t-114 74t-76.5 105t-28 133.5zM295 1298l276 187l277 -193l-82 -100 l-195 115l-194 -113zM385 633h401v67q0 63 -60.5 101.5t-137.5 38.5t-139.5 -39.5t-63.5 -102.5v-65z" />
<glyph unicode="&#xeb;" d="M98 360v347q0 105 70.5 187.5t181.5 125.5t238 43q197 0 331 -98t134 -258v-261h-670v-73q0 -79 68.5 -117.5t181.5 -38.5q192 0 315 70l90 -191q-169 -108 -426 -108q-81 0 -155.5 14.5t-140 45t-114 74t-76.5 105t-28 133.5zM274 1219v198h201v-198h-201zM385 633h401 v67q0 63 -60.5 101.5t-137.5 38.5t-139.5 -39.5t-63.5 -102.5v-65zM674 1219v198h198v-198h-198z" />
<glyph unicode="&#xec;" horiz-adv-x="544" d="M0 1473l180 102l217 -313l-131 -78zM121 0v1059h287v-1059h-287z" />
<glyph unicode="&#xed;" horiz-adv-x="544" d="M121 0v1059h287v-1059h-287zM135 1247l225 320l177 -101l-269 -286z" />
<glyph unicode="&#xee;" horiz-adv-x="544" d="M-10 1280l276 186l277 -192l-82 -100l-195 114l-194 -112zM121 0v1059h287v-1059h-287z" />
<glyph unicode="&#xef;" horiz-adv-x="544" d="M-32 1202v199h200v-199h-200zM121 0v1059h287v-1059h-287zM367 1202v199h199v-199h-199z" />
<glyph unicode="&#xf0;" horiz-adv-x="1157" d="M86 356v226q0 162 109.5 268t291.5 106q77 0 159.5 -23t131.5 -67q-30 86 -92.5 166t-144.5 142l-287 -130l-66 123l215 97q-103 65 -190 88l123 188q211 -61 360 -176l267 121l67 -127l-217 -96q252 -268 252 -600v-306q0 -169 -141.5 -272.5t-354.5 -103.5 q-132 0 -241 45t-175.5 132t-66.5 199zM371 389q0 -74 59 -122t141 -48t145.5 47.5t63.5 120.5v158q0 76 -62.5 123t-150.5 47q-81 0 -138.5 -47t-57.5 -119v-160z" />
<glyph unicode="&#xf1;" horiz-adv-x="1234" d="M127 0v1044h225l29 -163q135 182 348 182q381 0 381 -373v-690h-287v655q0 170 -188 170q-84 0 -152.5 -51.5t-68.5 -122.5v-651h-287zM278 1300q84 142 205 142q47 0 137 -41t125 -41q66 0 101 67l104 -84q0 -1 -12 -20.5t-17.5 -28t-19.5 -27.5t-26 -29t-29 -22.5 t-37 -18t-41 -5.5q-52 0 -145.5 42t-145.5 42q-23 0 -46.5 -15t-31 -24.5t-24.5 -30.5z" />
<glyph unicode="&#xf2;" horiz-adv-x="1183" d="M98 362v322q0 176 138.5 277.5t357.5 101.5q224 0 355.5 -101t131.5 -278v-322q0 -117 -68 -205t-177.5 -131.5t-241.5 -43.5q-135 0 -246.5 43t-180.5 131t-69 206zM319 1491l181 102l217 -313l-131 -78zM383 381q0 -76 61 -119t150 -43q83 0 143 44t60 118v285 q0 73 -59.5 115t-143.5 42q-86 0 -148.5 -42.5t-62.5 -114.5v-285z" />
<glyph unicode="&#xf3;" horiz-adv-x="1183" d="M98 362v322q0 176 138.5 277.5t357.5 101.5q224 0 355.5 -101t131.5 -278v-322q0 -117 -68 -205t-177.5 -131.5t-241.5 -43.5q-135 0 -246.5 43t-180.5 131t-69 206zM383 381q0 -76 61 -119t150 -43q83 0 143 44t60 118v285q0 73 -59.5 115t-143.5 42q-86 0 -148.5 -42.5 t-62.5 -114.5v-285zM459 1266l225 319l176 -100l-268 -287z" />
<glyph unicode="&#xf4;" horiz-adv-x="1183" d="M98 362v322q0 176 138.5 277.5t357.5 101.5q224 0 355.5 -101t131.5 -278v-322q0 -117 -68 -205t-177.5 -131.5t-241.5 -43.5q-135 0 -246.5 43t-180.5 131t-69 206zM309 1298l277 187l276 -193l-82 -100l-194 115l-195 -113zM383 381q0 -76 61 -119t150 -43q83 0 143 44 t60 118v285q0 73 -59.5 115t-143.5 42q-86 0 -148.5 -42.5t-62.5 -114.5v-285z" />
<glyph unicode="&#xf5;" horiz-adv-x="1183" d="M98 362v322q0 176 138.5 277.5t357.5 101.5q224 0 355.5 -101t131.5 -278v-322q0 -117 -68 -205t-177.5 -131.5t-241.5 -43.5q-135 0 -246.5 43t-180.5 131t-69 206zM250 1300q84 142 205 142q47 0 137 -41t125 -41q65 0 100 67l105 -84q-1 -2 -10.5 -18t-14.5 -23.5 t-16.5 -24t-20.5 -26t-23.5 -22.5t-28.5 -20t-32 -12t-37 -5q-52 0 -145 42t-145 42q-23 0 -46.5 -15t-32 -25t-24.5 -30zM383 381q0 -76 61 -119t150 -43q83 0 143 44t60 118v285q0 73 -59.5 115t-143.5 42q-86 0 -148.5 -42.5t-62.5 -114.5v-285z" />
<glyph unicode="&#xf6;" horiz-adv-x="1183" d="M98 362v322q0 176 138.5 277.5t357.5 101.5q224 0 355.5 -101t131.5 -278v-322q0 -117 -68 -205t-177.5 -131.5t-241.5 -43.5q-135 0 -246.5 43t-180.5 131t-69 206zM289 1219v198h200v-198h-200zM383 381q0 -76 61 -119t150 -43q83 0 143 44t60 118v285q0 73 -59.5 115 t-143.5 42q-86 0 -148.5 -42.5t-62.5 -114.5v-285zM688 1219v198h199v-198h-199z" />
<glyph unicode="&#xf7;" horiz-adv-x="1396" d="M92 483v164h1213v-164h-1213zM575 115v241h259v-241h-259zM575 764v244h259v-244h-259z" />
<glyph unicode="&#xf8;" horiz-adv-x="1165" d="M98 362v322q0 176 138.5 277.5t357.5 101.5q127 0 227 -35l76 127h131l-104 -176q76 -48 116.5 -123.5t40.5 -171.5v-322q0 -117 -68 -205t-177.5 -131.5t-241.5 -43.5q-133 0 -242 41l-84 -142h-139l119 197q-150 108 -150 284zM383 381q0 -29 10 -59l293 485 q-46 16 -92 16q-86 0 -148.5 -42.5t-62.5 -114.5v-285zM481 240q49 -21 113 -21q83 0 143 44t60 118v285q0 37 -19 69z" />
<glyph unicode="&#xf9;" horiz-adv-x="1228" d="M127 358v686h285v-665q0 -76 57 -118t145 -42q87 0 145 43t58 117v665h287v-686q0 -118 -67.5 -205.5t-177.5 -130t-245 -42.5q-212 0 -349.5 100.5t-137.5 277.5zM346 1470l180 103l217 -313l-131 -78z" />
<glyph unicode="&#xfa;" horiz-adv-x="1228" d="M127 358v686h285v-665q0 -76 57 -118t145 -42q87 0 145 43t58 117v665h287v-686q0 -118 -67.5 -205.5t-177.5 -130t-245 -42.5q-212 0 -349.5 100.5t-137.5 277.5zM483 1245l226 320l176 -101l-269 -286z" />
<glyph unicode="&#xfb;" horiz-adv-x="1228" d="M127 358v686h285v-665q0 -76 57 -118t145 -42q87 0 145 43t58 117v665h287v-686q0 -118 -67.5 -205.5t-177.5 -130t-245 -42.5q-212 0 -349.5 100.5t-137.5 277.5zM334 1278l276 186l277 -192l-82 -101l-195 115l-194 -112z" />
<glyph unicode="&#xfc;" horiz-adv-x="1228" d="M127 358v686h285v-665q0 -76 57 -118t145 -42q87 0 145 43t58 117v665h287v-686q0 -118 -67.5 -205.5t-177.5 -130t-245 -42.5q-212 0 -349.5 100.5t-137.5 277.5zM313 1200v199h201v-199h-201zM713 1200v199h198v-199h-198z" />
<glyph unicode="&#xfd;" horiz-adv-x="1116" d="M43 1044h303l213 -729l211 729h301l-412 -1167q-115 -318 -497 -321l-35 206q84 2 160 42t102 110l25 68zM426 1249l225 320l177 -101l-269 -286z" />
<glyph unicode="&#xfe;" horiz-adv-x="1265" d="M137 -459v1870h287v-479q64 70 133.5 103.5t163.5 33.5q190 0 306 -102.5t116 -272.5v-329q0 -172 -116.5 -278.5t-305.5 -106.5q-106 0 -180.5 30t-134.5 96v-565h-269zM440 377q0 -77 62 -126.5t149 -49.5q84 0 145.5 48t61.5 132v289q0 88 -57.5 132t-149.5 44 q-86 0 -148.5 -49.5t-62.5 -126.5v-293z" />
<glyph unicode="&#xff;" horiz-adv-x="1120" d="M45 1044h303l213 -729l211 729h301l-411 -1167q-115 -318 -498 -321l-35 206q84 2 160 42t102 110l25 68zM258 1202v199h201v-199h-201zM657 1202v199h199v-199h-199z" />
<glyph unicode="&#x152;" horiz-adv-x="1857" d="M63 459v475q0 117 81.5 223t218.5 170t290 64h1114v-240h-548v-311h462v-234h-460v-366h594v-240h-1160q-162 0 -298.5 61.5t-215 167t-78.5 230.5zM350 489q1 -105 90 -177t215 -72h277v911h-279q-117 0 -210 -76.5t-93 -173.5v-412z" />
<glyph unicode="&#x153;" horiz-adv-x="1792" d="M94 360v355q0 168 118.5 265t317.5 97q55 0 109.5 -8.5t111.5 -27.5t104.5 -55.5t74.5 -86.5q55 86 147.5 134t200.5 48q135 0 240.5 -38.5t170 -122t64.5 -201.5v-207l-655 -88v-74q0 -47 38 -81.5t91.5 -49t113.5 -14.5q79 0 173.5 21t150.5 50l98 -172 q-178 -110 -434 -110q-290 0 -403 184q-52 -98 -158 -143t-233 -45q-200 0 -320.5 100t-120.5 270zM381 377q0 -67 58.5 -109.5t140.5 -42.5q76 0 135 40t63 102v340q-4 62 -63.5 99.5t-136.5 37.5q-82 0 -139.5 -41t-57.5 -105v-321zM1096 604l368 47l-2 64q0 59 -49.5 94 t-116.5 35q-79 -3 -136.5 -40.5t-61.5 -96.5z" />
<glyph unicode="&#x178;" horiz-adv-x="1302" d="M61 1393h326l258 -602l264 602h326l-447 -877v-516h-286v518zM350 1509v199h201v-199h-201zM750 1509v199h198v-199h-198z" />
<glyph unicode="&#x2c6;" horiz-adv-x="749" d="M98 1276l277 186l276 -192l-82 -101l-194 115l-195 -113z" />
<glyph unicode="&#x2dc;" horiz-adv-x="890" d="M106 1288q84 142 205 142q47 0 137 -41t125 -41q66 0 101 67l104 -84q0 -1 -12 -20.5t-17.5 -28t-19.5 -27.5t-26 -29t-29 -22.5t-37 -18t-41 -5.5q-52 0 -145.5 42t-145.5 42q-23 0 -46.5 -15t-31 -24.5t-24.5 -30.5z" />
<glyph unicode="&#x2000;" horiz-adv-x="952" />
<glyph unicode="&#x2001;" horiz-adv-x="1905" />
<glyph unicode="&#x2002;" horiz-adv-x="952" />
<glyph unicode="&#x2003;" horiz-adv-x="1905" />
<glyph unicode="&#x2004;" horiz-adv-x="635" />
<glyph unicode="&#x2005;" horiz-adv-x="476" />
<glyph unicode="&#x2006;" horiz-adv-x="317" />
<glyph unicode="&#x2007;" horiz-adv-x="317" />
<glyph unicode="&#x2008;" horiz-adv-x="238" />
<glyph unicode="&#x2009;" horiz-adv-x="381" />
<glyph unicode="&#x200a;" horiz-adv-x="105" />
<glyph unicode="&#x2010;" horiz-adv-x="708" d="M90 485v226h528v-226h-528z" />
<glyph unicode="&#x2011;" horiz-adv-x="708" d="M90 485v226h528v-226h-528z" />
<glyph unicode="&#x2012;" horiz-adv-x="708" d="M90 485v226h528v-226h-528z" />
<glyph unicode="&#x2013;" horiz-adv-x="1216" d="M10 520v172h1186v-172h-1186z" />
<glyph unicode="&#x2015;" horiz-adv-x="1646" d="M12 520v172h1620v-172h-1620z" />
<glyph unicode="&#x2018;" horiz-adv-x="327" d="M43 985v55q0 153 46 257.5t114 156.5l110 -68q-55 -98 -55 -274v-127h-215z" />
<glyph unicode="&#x2019;" horiz-adv-x="344" d="M2 1057q26 37 41 65.5t28 83t13 121.5v125h238v-55q0 -85 -16.5 -155t-46.5 -120t-54.5 -79t-57.5 -58z" />
<glyph unicode="&#x201a;" horiz-adv-x="491" d="M143 -207q26 37 41 65.5t28 83t13 121.5v125h238v-55q0 -85 -16.5 -155t-46.5 -120t-54 -79t-57 -58z" />
<glyph unicode="&#x201c;" horiz-adv-x="655" d="M43 985v55q0 153 46 257.5t114 156.5l110 -68q-55 -98 -55 -274v-127h-215zM356 985v55q0 153 46 257.5t114 156.5l111 -68q-56 -100 -56 -274v-127h-215z" />
<glyph unicode="&#x201d;" horiz-adv-x="659" d="M2 1034q39 56 60.5 115.5t21.5 155.5v125h238v-56q0 -85 -16.5 -155t-46.5 -119.5t-54.5 -78t-57.5 -58.5zM315 1034q39 56 60.5 115.5t21.5 155.5v125h238v-56q0 -69 -12 -129.5t-29 -101t-43 -78.5t-45 -58.5t-45 -43.5z" />
<glyph unicode="&#x201e;" horiz-adv-x="870" d="M143 -205q39 56 60.5 115.5t21.5 155.5v124h238v-55q0 -69 -12 -129.5t-29 -101t-43 -78.5t-45 -58.5t-45 -43.5zM477 -203q39 56 60.5 115.5t21.5 155.5v125h238v-56q0 -69 -12 -129.5t-29 -101t-43 -78.5t-45 -58.5t-45 -43.5z" />
<glyph unicode="&#x2022;" horiz-adv-x="694" d="M139 342v410h416v-410h-416z" />
<glyph unicode="&#x2026;" horiz-adv-x="1630" d="M139 0v254h264v-254h-264zM682 0v254h266v-254h-266zM1227 0v254h264v-254h-264z" />
<glyph unicode="&#x202f;" horiz-adv-x="381" />
<glyph unicode="&#x2039;" horiz-adv-x="591" d="M76 356l313 371l121 -82l-201 -285l201 -274l-121 -86z" />
<glyph unicode="&#x203a;" horiz-adv-x="591" d="M78 645l123 82l313 -371l-313 -356l-121 86l199 274z" />
<glyph unicode="&#x205f;" horiz-adv-x="476" />
<glyph unicode="&#x20ac;" horiz-adv-x="1388" d="M63 512v129h185v121h-185v129h185v61q0 139 73.5 245.5t194.5 161t270 54.5q150 0 256 -33.5t197 -105.5l-115 -201q-133 96 -317 96q-121 0 -196.5 -61.5t-75.5 -171.5v-45h497v-129h-497v-121h497v-129h-497v-59q0 -116 75.5 -175t202.5 -59q192 0 311 84l107 -197 q-88 -68 -189.5 -97t-253.5 -29q-241 0 -390.5 118.5t-149.5 339.5v74h-185z" />
<glyph unicode="&#x2122;" horiz-adv-x="1128" d="M72 1335v99h389v-99h-139v-338h-111v338h-139zM547 1004v430h112l109 -185l111 185h112v-430h-108v253l-97 -159h-38l-93 162v-256h-108z" />
<glyph unicode="&#x25fc;" horiz-adv-x="1044" d="M0 0v1044h1044v-1044h-1044z" />
<glyph unicode="&#xfb03;" horiz-adv-x="2082" d="M49 870v183h131v116q0 105 63.5 179.5t162.5 108.5t221 34q245 0 481 -74q121 74 301 74q257 0 498 -78l-47 -194q-11 2 -66.5 11.5t-76.5 12.5t-68 9t-91 8t-96 2q-112 0 -163.5 -34.5t-51.5 -109.5v-65h252v-183h-252v-870h-284v870h-132v183h132v116q0 33 6 68 q-167 25 -289 25q-112 0 -163.5 -34.5t-51.5 -109.5v-65h252v-183h-252v-870h-285v870h-131zM1663 0v1059h287v-1059h-287z" />
<glyph unicode="&#xfb04;" horiz-adv-x="2158" d="M55 870v183h131v116q0 105 63.5 179.5t162.5 108.5t221 34q245 0 481 -74q121 74 301 74q257 0 498 -78h110v-1413h-286v1241q-155 21 -269 21q-112 0 -163.5 -34.5t-51.5 -109.5v-65h252v-183h-252v-870h-284v870h-131v183h131v116q0 33 6 68q-167 25 -289 25 q-112 0 -163.5 -34.5t-51.5 -109.5v-65h252v-183h-252v-870h-285v870h-131z" />
</font>
</defs>
</svg>
