<?xml version="1.0" standalone="no"?>
<!DOCTYPE svg PUBLIC "-//W3C//DTD SVG 1.1//EN" "http://www.w3.org/Graphics/SVG/1.1/DTD/svg11.dtd" >
<svg>
<metadata>
Created by FontForge 20120731 at Mon Oct 13 21:12:43 2014
 By World Wide Web Server
Copyright (c) 1988, 1990 Adobe Systems Incorporated.  All Rights Reserved.Garamond 3 is a trademark of Linotype AG and/or its subsidiaries.
</metadata>
<defs>
<font id="GaramondThree-SC" horiz-adv-x="500" >
  <font-face 
    font-family="Garamond 3"
    font-weight="400"
    font-stretch="normal"
    units-per-em="1000"
    panose-1="2 2 5 0 0 0 0 0 0 0"
    ascent="780"
    descent="-220"
    x-height="446"
    cap-height="612"
    bbox="-167 -220 1019 840"
    underline-thickness="50"
    underline-position="-50"
    stemh="26"
    stemv="74"
    unicode-range="U+0020-FB02"
  />
<missing-glyph horiz-adv-x="250" 
 />
    <glyph glyph-name=".notdef" horiz-adv-x="250" 
 />
    <glyph glyph-name="space" unicode=" " horiz-adv-x="250" 
 />
    <glyph glyph-name="space" unicode="&#xa0;" horiz-adv-x="250" 
 />
    <glyph glyph-name="exclam" unicode="!" horiz-adv-x="278" 
d="M139 84c25 0 49 -23 49 -49s-24 -49 -49 -49s-49 23 -49 49s24 49 49 49zM183 513l-21 -204c-7 -64 -5 -117 -9 -121c-2 -2 -6 -4 -14 -4s-12 2 -14 4c-4 4 -2 57 -9 121l-21 204c-3 25 -3 36 -3 43c0 33 14 52 47 52s47 -19 47 -52c0 -7 0 -18 -3 -43z" />
    <glyph glyph-name="quotedbl" unicode="&#x22;" horiz-adv-x="333" 
d="M266 545l-16 -204c-1 -8 0 -31 -15 -31s-14 23 -15 31l-16 204c-1 7 -1 16 -1 26c0 36 9 55 32 55s32 -19 32 -55c0 -10 0 -19 -1 -26zM129 545l-16 -204c-1 -8 0 -31 -15 -31s-14 23 -15 31l-16 204c-1 7 -1 16 -1 26c0 36 9 55 32 55s32 -19 32 -55c0 -10 0 -19 -1 -26
z" />
    <glyph glyph-name="numbersign" unicode="#" 
d="M432 227l-2 -38h-88l-26 -189h-42l27 189h-118l-27 -189h-41l26 189h-97l2 38h100l19 130h-97l1 38h101l26 189h42l-27 -189h118l27 189h41l-26 -189h84l-2 -38h-87l-19 -130h85zM324 357h-118l-18 -130h118z" />
    <glyph glyph-name="dollar" unicode="$" 
d="M172 -97l9 103c-26 3 -48 9 -70 17c-49 18 -50 23 -50 69c0 29 3 104 19 104c3 0 7 -1 10 -6c6 -10 0 -121 94 -150l21 252c-41 18 -113 52 -113 138s57 132 135 147l6 96c0 5 5 11 14 11s14 -8 14 -15c0 -3 0 -7 -1 -15l-6 -77c4 0 9 1 18 1c12 0 24 -3 37 -4l7 97
c0 4 1 12 13 12c8 0 14 -3 14 -11c0 -4 -2 -22 -3 -33l-7 -69c60 -19 71 -27 71 -50v-87c0 -13 -6 -14 -10 -14c-20 0 -3 70 -64 115l-17 -213c27 -12 121 -47 121 -149c0 -121 -113 -160 -149 -170l-8 -108c0 -7 -2 -14 -12 -14c-8 0 -13 1 -13 10c0 5 1 9 1 14l8 96
c-25 0 -32 0 -56 2l-8 -111c-1 -8 -3 -11 -12 -11c-13 0 -14 5 -14 8c0 4 0 9 1 15zM305 244l-17 -214c55 14 86 55 86 116c0 38 -19 79 -69 98zM229 279l-21 -247c15 -4 34 -6 41 -6c6 0 12 1 15 2l17 229zM212 360l13 192c-52 -2 -81 -50 -81 -97c0 -63 49 -85 68 -95z
M250 551l-14 -201l53 -21l17 217c-13 3 -24 6 -37 6c-7 0 -13 -1 -19 -1z" />
    <glyph glyph-name="percent" unicode="%" horiz-adv-x="833" 
d="M701 625l-533 -677h-44l454 574l-2 2c-50 -28 -95 -36 -119 -36c-30 0 -51 8 -79 17c0 -9 -1 -28 -2 -42c-7 -93 -100 -221 -202 -221c-48 0 -107 29 -107 117c0 126 129 237 217 237c16 0 31 -1 40 -5c23 -10 47 -30 53 -63c25 -9 39 -16 74 -16c77 0 124 34 152 53
c25 17 54 47 65 60h33zM113 333c0 -53 29 -69 63 -69c78 0 180 110 180 237c0 5 -1 10 -1 15c-14 13 -49 37 -56 58c-16 0 -33 -5 -47 -13c-57 -33 -139 -163 -139 -228zM647 333c78 0 101 -55 101 -102c0 -81 -79 -249 -202 -249c-78 0 -112 54 -112 125
c0 89 110 226 213 226zM661 309c-78 0 -181 -170 -181 -238c0 -45 23 -67 67 -67c108 0 179 160 179 231c0 35 -18 74 -65 74z" />
    <glyph glyph-name="ampersand" unicode="&#x26;" horiz-adv-x="667" 
d="M199 439c0 -59 62 -107 72 -107c9 0 67 39 67 104c0 29 -19 66 -69 66c-34 0 -70 -10 -70 -63zM436 183l71 90c12 15 29 48 29 57c0 5 -2 11 -12 13c-42 7 -59 8 -59 18c0 4 8 9 15 9c27 0 53 -2 80 -2c25 0 52 2 78 2c9 0 15 -3 15 -11c0 -11 -9 -10 -22 -11
s-29 -4 -43 -22l-139 -174c-2 -2 -2 -7 -2 -11c0 -14 79 -101 122 -101c21 0 52 12 63 12c8 0 14 -4 14 -11c0 -32 -62 -59 -109 -59c-61 0 -108 52 -128 73c-10 11 -18 23 -22 23c-12 0 -51 -96 -197 -96c-60 0 -163 23 -163 143c0 130 160 163 160 179c0 4 -46 39 -46 100
c0 60 39 122 130 122c70 0 119 -36 119 -96c0 -86 -101 -102 -101 -113c0 -3 3 -5 5 -7l123 -130c3 -3 5 -7 8 -7c5 0 7 5 11 10zM368 115l-155 166c-38 -16 -108 -51 -108 -129c0 -62 45 -122 125 -122c85 0 144 63 144 75c0 4 -3 7 -6 10z" />
    <glyph glyph-name="quoteright" unicode="&#x2019;" horiz-adv-x="222" 
d="M108 626c37 0 55 -35 55 -69c0 -56 -72 -115 -92 -115c-5 0 -12 1 -12 8c0 10 56 41 56 75c0 32 -49 33 -49 58c0 31 17 43 42 43z" />
    <glyph glyph-name="parenleft" unicode="(" horiz-adv-x="278" 
d="M98 259c0 -246 151 -373 151 -384c0 -4 -3 -9 -9 -9c-17 0 -214 175 -214 376c0 206 186 384 215 384c6 0 11 -2 11 -8c0 -8 -154 -147 -154 -359z" />
    <glyph glyph-name="parenright" unicode=")" horiz-adv-x="278" 
d="M180 233c0 246 -151 373 -151 384c0 4 3 9 9 9c17 0 214 -175 214 -376c0 -206 -186 -384 -215 -384c-6 0 -11 2 -11 8c0 8 154 147 154 359z" />
    <glyph glyph-name="asterisk" unicode="*" 
d="M250 626c24 0 36 -20 36 -39c0 -39 -26 -60 -26 -150c88 48 97 105 134 105c32 0 38 -26 38 -34c0 -58 -68 -32 -165 -86c96 -62 165 -25 165 -88c0 -15 -13 -33 -34 -33c-50 0 -47 58 -137 105c0 -114 26 -104 26 -150c0 -22 -14 -41 -37 -41s-37 19 -37 41
c0 46 26 36 26 150c-90 -47 -87 -105 -137 -105c-21 0 -34 18 -34 33c0 63 69 26 165 88c-97 54 -165 28 -165 86c0 8 6 34 38 34c37 0 46 -57 134 -105c0 90 -26 111 -26 150c0 19 12 39 36 39z" />
    <glyph glyph-name="plus" unicode="+" horiz-adv-x="600" 
d="M281 208v170h38v-170h169v-38h-169v-170h-38v170h-169v38h169z" />
    <glyph glyph-name="comma" unicode="," horiz-adv-x="250" 
d="M72 36c0 35 28 48 55 48c42 0 75 -41 75 -98c0 -71 -92 -141 -118 -141c-8 0 -10 4 -10 7c0 13 80 56 80 119c0 18 -10 25 -18 25c-7 0 -13 -2 -20 -2c-6 0 -44 4 -44 42z" />
    <glyph glyph-name="hyphen" unicode="-" horiz-adv-x="333" 
d="M289 219v-60h-245v60h245z" />
    <glyph glyph-name="hyphen" unicode="&#xad;" horiz-adv-x="333" 
d="M289 219v-60h-245v60h245z" />
    <glyph glyph-name="period" unicode="." horiz-adv-x="250" 
d="M76 35c0 26 24 49 49 49s49 -23 49 -49s-24 -49 -49 -49s-49 23 -49 49z" />
    <glyph glyph-name="slash" unicode="/" horiz-adv-x="278" 
d="M258 626l-200 -644h-38l200 644h38z" />
    <glyph glyph-name="zero" unicode="0" 
d="M34 200c0 126 86 216 210 216s210 -90 210 -216s-86 -216 -210 -216s-210 90 -210 216zM74 200c0 -110 82 -180 170 -180s170 70 170 180s-82 180 -170 180s-170 -70 -170 -180z" />
    <glyph glyph-name="one" unicode="1" 
d="M282 340v-290c0 -23 27 -26 53 -28c27 -2 53 -1 53 -13c0 -8 -5 -13 -16 -13c-41 0 -82 4 -123 4s-82 -4 -123 -4c-7 0 -10 6 -10 11c0 13 25 13 49 15c25 2 49 5 49 28v287c0 29 -18 34 -56 41c-25 5 -38 4 -38 16c0 10 11 12 26 12c32 0 64 -4 102 -4s76 4 114 4
c11 0 16 -5 16 -12c0 -15 -13 -15 -48 -18c-24 -2 -48 -10 -48 -36z" />
    <glyph glyph-name="two" unicode="2" 
d="M170 56h230c7 0 10 -4 10 -10v-41c0 -5 -6 -9 -12 -9c-46 0 -88 4 -168 4c-90 0 -136 -4 -166 -4c-14 0 -20 2 -20 8c0 12 88 69 168 128c90 67 112 106 112 150c0 54 -32 98 -100 98c-82 0 -136 -92 -148 -92c-6 0 -10 2 -10 6c0 32 78 122 187 122
c91 0 145 -58 145 -120c0 -80 -52 -115 -141 -172c-60 -39 -95 -60 -95 -64c0 -3 4 -4 8 -4z" />
    <glyph glyph-name="three" unicode="3" 
d="M356 330c0 -68 -66 -110 -102 -142l2 -2c58 4 166 -40 166 -136c0 -138 -142 -256 -294 -256c-46 0 -60 12 -60 32c0 16 16 28 36 28c36 0 42 -34 82 -34c58 0 168 94 168 200c0 62 -54 118 -137 118c-66 0 -91 -48 -114 -48c-8 0 -11 2 -11 11c0 33 208 93 208 210
c0 33 -30 69 -72 69c-78 0 -114 -66 -124 -66c-5 0 -10 3 -10 7c0 25 62 95 140 95c70 0 122 -39 122 -86z" />
    <glyph glyph-name="four" unicode="4" 
d="M346 -206h-43c-6 0 -13 4 -13 13v179c0 6 -4 10 -11 10h-247c-12 0 -18 6 -18 18c0 10 7 25 21 43l300 361c4 6 9 10 15 10c3 0 8 -3 8 -10v-370c0 -8 4 -12 11 -12h77c7 0 10 -2 10 -7v-26c0 -5 -4 -7 -10 -7h-78c-6 0 -10 -3 -10 -13v-176c0 -8 -6 -13 -12 -13zM290 56
v250c0 5 -1 8 -2 8c-2 0 -5 -5 -10 -11l-211 -249c-5 -6 -7 -10 -7 -13c0 -4 4 -5 9 -5h205c11 0 16 5 16 20z" />
    <glyph glyph-name="five" unicode="5" 
d="M335 354l-203 -26c-4 -1 -10 -21 -10 -40c0 -24 276 -10 276 -232c0 -168 -210 -262 -306 -262c-15 0 -20 3 -20 11c0 11 10 14 57 27c115 32 201 84 201 210c0 194 -254 160 -254 200c0 26 40 147 51 148l202 23c5 1 14 3 21 3c8 0 14 -5 14 -18c0 -31 -17 -42 -29 -44z
" />
    <glyph glyph-name="six" unicode="6" 
d="M46 230c0 278 332 450 393 447c8 0 11 -4 11 -12c0 -15 -58 -27 -130 -88c-65 -55 -200 -163 -200 -361c0 -128 62 -210 145 -210c79 0 129 72 129 180c0 88 -58 148 -128 148c-32 0 -46 -10 -57 -10c-4 0 -9 2 -9 7c0 17 46 39 93 39c107 0 169 -84 169 -182
c0 -115 -82 -204 -206 -204c-130 0 -210 112 -210 246z" />
    <glyph glyph-name="seven" unicode="7" 
d="M171 -158l169 452c5 13 12 30 12 40c0 9 -4 14 -18 14h-268c-22 0 -30 6 -30 28c0 18 10 34 30 34h208c44 0 71 2 89 3c18 2 27 3 36 3c11 0 19 -10 19 -21c0 -9 -10 -31 -20 -56l-186 -497c-17 -46 -21 -48 -34 -48c-10 0 -17 6 -17 15c0 8 6 23 10 33z" />
    <glyph glyph-name="eight" unicode="8" 
d="M446 162c0 -122 -104 -178 -210 -178c-118 0 -188 64 -188 158c0 78 78 138 144 146v2c-64 30 -126 88 -126 157c0 93 84 161 190 161c114 0 176 -56 176 -140c0 -79 -58 -116 -118 -146c102 -48 132 -96 132 -160zM110 129c0 -70 61 -123 128 -123c74 0 140 54 140 125
c0 89 -106 141 -153 141c-61 0 -115 -72 -115 -143zM134 470c0 -100 138 -136 152 -136s84 50 84 127c0 81 -42 125 -118 125c-74 0 -118 -46 -118 -116z" />
    <glyph glyph-name="nine" unicode="9" 
d="M38 220c0 104 90 196 194 196c128 0 220 -114 220 -236c0 -275 -336 -386 -385 -386c-14 0 -19 1 -19 9c0 9 23 16 66 39c126 67 264 156 264 350c0 84 -66 202 -146 202c-72 0 -126 -82 -126 -159c0 -89 58 -145 112 -145c45 0 62 12 72 12c6 0 8 -4 8 -9
c0 -16 -44 -39 -99 -39c-99 0 -161 66 -161 166z" />
    <glyph glyph-name="colon" unicode=":" horiz-adv-x="250" 
d="M125 84c25 0 49 -23 49 -49s-24 -49 -49 -49s-49 23 -49 49s24 49 49 49zM125 402c25 0 49 -23 49 -49s-24 -49 -49 -49s-49 23 -49 49s24 49 49 49z" />
    <glyph glyph-name="semicolon" unicode=";" horiz-adv-x="250" 
d="M72 36c0 35 28 48 55 48c42 0 75 -41 75 -98c0 -71 -92 -141 -118 -141c-8 0 -10 4 -10 7c0 13 80 56 80 119c0 18 -10 25 -18 25c-7 0 -13 -2 -20 -2c-6 0 -44 4 -44 42zM125 402c25 0 49 -23 49 -49s-24 -49 -49 -49s-49 23 -49 49s24 49 49 49z" />
    <glyph glyph-name="less" unicode="&#x3c;" horiz-adv-x="600" 
d="M490 35v-41l-379 175v40l379 175v-41l-333 -154z" />
    <glyph glyph-name="equal" unicode="=" horiz-adv-x="600" 
d="M488 279v-38h-376v38h376zM488 137v-38h-376v38h376z" />
    <glyph glyph-name="greater" unicode="&#x3e;" horiz-adv-x="600" 
d="M110 35l333 154l-333 154v41l379 -175v-40l-379 -175v41z" />
    <glyph glyph-name="question" unicode="?" horiz-adv-x="389" 
d="M328 427c0 -111 -101 -138 -171 -200c-18 -16 -5 -67 -23 -67c-12 0 -12 36 -12 53c0 22 3 41 5 54c10 68 151 72 151 203c0 54 -40 108 -88 108c-36 0 -40 -23 -74 -23c-14 0 -30 7 -30 26c0 25 31 27 42 27c156 0 200 -122 200 -181zM138 74c23 0 44 -21 44 -44
s-21 -44 -44 -44s-44 21 -44 44s21 44 44 44z" />
    <glyph glyph-name="at" unicode="@" horiz-adv-x="800" 
d="M505 380c0 31 -14 52 -42 52c-47 0 -136 -68 -136 -189c0 -58 29 -79 65 -79c46 0 113 110 113 216zM519 419l9 37h63l-63 -243c-1 -3 -2 -11 -2 -20c0 -17 8 -38 38 -38c87 0 133 113 133 195c0 109 -101 258 -281 258c-156 0 -272 -121 -272 -328
c0 -133 104 -272 281 -272c83 0 132 22 185 45l13 -19c-61 -26 -124 -52 -197 -52c-244 0 -350 182 -350 308c0 201 156 336 340 336c173 0 307 -117 307 -275c0 -95 -62 -222 -173 -222c-63 0 -85 54 -84 66h-2c-11 -17 -53 -59 -107 -65c-23 -1 -90 4 -90 115
c0 63 58 223 184 223c43 0 55 -26 68 -49z" />
    <glyph glyph-name="A" unicode="A" horiz-adv-x="667" 
d="M465 79l-49 162c-8 25 -12 25 -94 26c-68 1 -84 -3 -88 -11c-24 -49 -71 -187 -71 -198c0 -20 21 -28 29 -30c31 -8 51 -12 51 -20c0 -12 -16 -12 -23 -12c-27 0 -59 4 -88 4c-38 0 -77 -4 -111 -4c-8 0 -12 3 -12 12c0 13 26 11 51 20c20 7 25 14 30 25l255 579
c2 4 6 6 10 6c6 0 11 -3 12 -7l186 -531c19 -55 39 -68 52 -72c27 -8 46 -5 46 -20c0 -10 -8 -12 -20 -12c-43 0 -77 4 -116 4c-37 0 -72 -4 -111 -4c-10 0 -14 7 -14 11c0 12 20 15 56 21c6 1 25 9 25 26c0 7 -4 17 -6 25zM322 495l-67 -161c-2 -6 -6 -12 -6 -18
c0 -5 64 -5 72 -5c6 0 70 0 70 6c0 5 -2 10 -5 19l-53 158c-1 2 -2 6 -6 6c-2 0 -4 -2 -5 -5z" />
    <glyph glyph-name="B" unicode="B" horiz-adv-x="611" 
d="M110 56l9 446c0 15 1 31 1 40c0 27 -16 28 -46 32c-28 4 -42 5 -42 17s34 17 52 17c95 0 189 8 210 8c150 0 212 -78 212 -144c0 -97 -68 -105 -68 -115c0 -15 113 -38 113 -165c0 -90 -27 -143 -139 -180c-27 -9 -128 -12 -276 -12c-24 0 -54 -2 -77 -2
c-24 0 -36 0 -36 13c0 12 22 12 43 13c22 1 44 8 44 32zM204 311v-208c0 -43 12 -69 108 -69c20 0 42 2 63 8c52 15 86 65 86 128c0 132 -112 148 -222 148c-20 0 -35 -1 -35 -7zM206 554v-200c7 -3 33 -6 61 -6c14 0 35 2 52 3c66 5 109 58 109 120c0 111 -99 113 -161 113
c-46 0 -61 -5 -61 -30z" />
    <glyph glyph-name="C" unicode="C" horiz-adv-x="611" 
d="M26 297c0 163 113 329 354 329c14 0 62 -3 98 -10c88 -15 89 -19 89 -104c0 -9 0 -12 -7 -12c-31 0 -45 96 -178 96c-126 0 -250 -119 -250 -306c0 -138 84 -278 242 -278c87 0 126 40 150 70c23 29 32 47 42 47c5 0 12 -4 12 -8c0 -52 -14 -82 -19 -93
c-6 -15 -87 -46 -178 -46c-187 0 -355 116 -355 315z" />
    <glyph glyph-name="D" unicode="D" horiz-adv-x="722" 
d="M204 556v-431c0 -70 63 -101 128 -101c78 0 264 65 264 268c0 205 -184 296 -308 296c-82 0 -84 -18 -84 -32zM380 0h-236c-14 0 -31 -1 -47 -2s-31 -2 -43 -2c-5 0 -18 0 -18 10c0 8 7 17 37 22c22 4 45 7 45 65v470c0 19 -42 17 -68 19c-23 2 -30 2 -30 13
c0 17 27 17 39 17h91c25 0 49 2 74 3c26 2 54 3 86 3c210 0 380 -104 380 -345c0 -150 -138 -273 -310 -273z" />
    <glyph glyph-name="E" unicode="E" horiz-adv-x="556" 
d="M119 73v468c0 26 -10 31 -47 39c-31 6 -44 8 -44 20c0 9 14 12 29 12c37 0 119 -4 144 -4c30 0 171 4 256 4c15 0 15 -11 15 -32v-96c0 -4 -4 -6 -8 -6c-13 0 -11 11 -27 45c-15 35 -20 51 -190 51c-36 0 -42 -13 -42 -47v-173c0 -20 15 -22 50 -22h87c74 0 51 86 76 86
c13 0 14 -9 14 -20c0 -23 -4 -37 -4 -84c0 -42 4 -69 4 -97c0 -9 -1 -17 -11 -17c-15 0 -16 16 -21 45c-9 52 -18 59 -141 59c-47 0 -54 -6 -54 -26v-194c0 -45 4 -50 120 -50c68 0 91 10 112 34c48 55 43 81 60 81c9 0 10 -5 10 -10c0 -4 -3 -9 -4 -16l-19 -102
c-3 -16 -9 -21 -23 -21h-285c-55 0 -86 -1 -103 -2c-18 -1 -23 -2 -28 -2c-8 0 -24 0 -24 12c0 15 18 13 43 20c26 8 55 3 55 45z" />
    <glyph glyph-name="F" unicode="F" 
d="M466 602v-122c0 -7 -2 -10 -11 -10c-6 0 -10 3 -11 6c-31 74 -2 102 -176 102c-55 0 -66 -8 -66 -40v-169c0 -33 5 -37 72 -37c19 0 36 4 57 5c71 8 43 92 77 92c6 0 11 -2 11 -17c0 -28 -2 -55 -2 -83c0 -27 2 -86 2 -104c0 -11 -4 -16 -9 -16c-13 0 -16 11 -27 55
c-7 28 -15 40 -118 40c-50 0 -63 -3 -63 -27v-192c0 -42 11 -48 73 -57c20 -3 41 -1 41 -17c1 -10 -5 -15 -25 -15c-16 0 -36 4 -124 4c-42 0 -83 -4 -113 -4c-18 0 -32 2 -32 14c0 10 4 11 61 18c24 3 33 16 33 81v422c0 36 -5 40 -30 47c-36 10 -58 1 -58 19
c0 11 11 13 48 13c22 0 48 0 76 -1c28 0 58 -1 84 -1c36 0 79 1 118 2s74 2 91 2c10 0 21 -3 21 -10z" />
    <glyph glyph-name="G" unicode="G" horiz-adv-x="722" 
d="M531 127v57c0 62 -1 73 -60 73c-57 0 -67 2 -67 14c0 19 20 19 35 19c42 0 83 -2 125 -2c43 0 86 2 116 2c22 0 33 -2 33 -12c0 -16 -22 -16 -49 -16c-21 0 -47 -1 -47 -35v-158c0 -13 -3 -32 -21 -41c-56 -26 -120 -46 -223 -46c-179 0 -346 103 -346 306
c0 211 157 338 367 338c67 0 112 -11 166 -26c39 -11 42 -25 42 -124c0 -8 -4 -8 -13 -8c-22 0 -36 128 -189 128c-70 0 -267 -19 -267 -299c0 -187 142 -285 254 -285c25 0 56 3 80 10c33 10 64 13 64 105z" />
    <glyph glyph-name="H" unicode="H" horiz-adv-x="778" 
d="M210 538v-180c0 -25 4 -33 25 -33h271c53 0 59 2 59 14v190c0 37 0 42 -52 51c-14 2 -26 4 -26 15c0 17 15 17 29 17c32 0 60 -4 95 -4c34 0 76 4 101 4c10 0 29 0 29 -14c0 -15 -15 -14 -58 -18c-18 -1 -32 -13 -32 -41v-473c0 -28 17 -37 44 -38c24 -1 45 -2 45 -18
c0 -13 -18 -14 -29 -14c-13 0 -38 4 -112 4c-79 0 -100 -4 -111 -4c-9 0 -20 2 -20 13c0 15 23 18 45 19c42 3 52 17 52 81v157c0 22 -7 24 -49 25h-222c-72 0 -84 -6 -84 -24v-201c0 -25 22 -31 59 -38c11 -2 33 -4 33 -19c0 -11 -14 -13 -22 -13c-20 0 -51 4 -106 4
c-91 0 -111 -4 -120 -4c-7 0 -26 0 -26 11c0 16 26 17 44 21c28 6 52 10 52 44v459c0 39 -4 40 -59 49c-12 2 -24 4 -24 19c0 11 11 13 22 13c30 0 59 -4 89 -4c37 0 74 4 111 4c23 0 29 -3 29 -14c0 -17 -24 -16 -46 -18s-36 -13 -36 -42z" />
    <glyph glyph-name="I" unicode="I" horiz-adv-x="333" 
d="M208 521v-459c0 -27 23 -32 34 -34c32 -6 54 -6 54 -20c0 -11 -18 -12 -37 -12c-26 0 -47 4 -98 4c-49 0 -77 -4 -102 -4c-23 0 -37 3 -37 15c0 13 6 12 51 17c18 2 49 7 49 44v466c0 32 -11 37 -40 42c-29 6 -37 4 -37 18s15 14 27 14c31 0 47 -4 94 -4c40 0 60 4 90 4
c22 0 45 0 45 -12c0 -18 -18 -15 -65 -20c-27 -3 -28 -33 -28 -59z" />
    <glyph glyph-name="J" unicode="J" horiz-adv-x="389" 
d="M261 532v-434c0 -206 -180 -318 -262 -318c-38 0 -67 17 -67 56c0 31 20 50 50 50c56 0 52 -52 76 -52c49 0 117 94 117 258v455c0 29 -25 29 -71 33c-24 2 -35 4 -35 13c0 13 10 19 25 19c38 0 95 -4 142 -4c32 0 58 4 87 4c9 0 22 -3 22 -16c0 -15 -11 -15 -29 -16
c-40 -2 -55 -7 -55 -48z" />
    <glyph glyph-name="K" unicode="K" horiz-adv-x="722" 
d="M129 102v434c0 27 -2 42 -21 44c-45 4 -57 3 -57 19c0 13 19 13 25 13c33 0 66 -4 99 -4c34 0 73 4 102 4c9 0 23 -1 23 -13c0 -20 -30 -13 -55 -19c-29 -7 -30 -21 -30 -51v-203c0 -6 2 -8 5 -8s6 3 10 7l261 227c7 5 12 9 12 15c0 8 -5 8 -53 13c-34 4 -39 3 -39 15
c0 17 17 17 32 17c35 0 68 -4 102 -4c35 0 68 4 104 4c11 0 22 -2 22 -14c0 -16 -13 -18 -38 -18c-24 0 -48 -15 -57 -22l-261 -196c-2 -2 -5 -5 -5 -8c0 -7 9 -14 15 -20l216 -192c52 -47 109 -109 135 -114c33 -7 40 -8 40 -18c0 -12 -18 -14 -27 -14c-39 0 -77 4 -116 4
c-40 0 -79 -4 -119 -4c-16 0 -24 3 -24 15c0 11 19 13 63 17c8 1 16 10 16 18c0 14 -248 244 -277 244c-17 0 -17 -5 -17 -15v-182c0 -13 2 -26 6 -39c5 -17 27 -21 48 -26c19 -5 40 -3 39 -16c0 -12 -18 -16 -29 -16c-35 0 -75 4 -113 4s-77 -4 -115 -4c-17 0 -18 9 -18 15
c1 19 25 16 43 17c32 2 53 19 53 74z" />
    <glyph glyph-name="L" unicode="L" 
d="M113 95v442c0 35 -27 41 -69 43c-18 1 -36 4 -36 17c0 14 15 15 24 15c40 0 75 -4 121 -4c38 0 75 4 113 4c19 0 33 -2 33 -18c0 -12 -26 -14 -50 -14c-28 0 -50 -8 -50 -58v-453c0 -32 15 -35 40 -35c22 0 69 2 111 8c71 10 107 92 121 92c10 0 12 -9 12 -17
c0 -14 -5 -61 -15 -103c-4 -16 -15 -18 -20 -18c-53 0 -116 4 -267 4c-48 0 -95 -4 -143 -4c-24 0 -26 6 -26 16c0 14 12 15 23 16c59 5 78 11 78 67z" />
    <glyph glyph-name="M" unicode="M" horiz-adv-x="833" 
d="M356 81l-90 212c-6 15 -86 188 -92 188c-7 0 -7 -96 -7 -149v-271c0 -19 34 -29 59 -33c40 -7 55 -7 55 -20c0 -12 -14 -12 -28 -12c-33 0 -74 4 -111 4c-35 0 -76 -4 -111 -4c-9 0 -20 3 -20 13c0 15 12 17 34 19c39 4 63 19 64 34l33 432c1 10 1 17 1 45
c0 22 -9 24 -64 39c-30 8 -45 8 -45 19c0 7 1 13 25 13c23 0 45 -2 68 -2c26 0 52 2 78 2c8 0 14 -3 17 -9l198 -431c1 -3 4 -5 7 -5s6 3 7 6l177 401c5 12 14 38 29 38c12 0 67 -2 79 -2c27 0 55 2 82 2c5 0 12 -7 12 -12c0 -21 -29 -17 -47 -20c-57 -9 -71 -11 -71 -78
v-413c0 -38 13 -47 77 -59c16 -3 36 -8 36 -19c0 -13 -14 -13 -47 -13c-43 0 -60 4 -83 4c-48 0 -96 -4 -134 -4c-11 0 -25 1 -25 17c0 11 25 13 37 15c47 9 53 11 53 40v362c0 20 -3 26 -8 26c-3 0 -6 -2 -8 -6l-184 -425c-2 -5 -8 -7 -13 -7c-17 0 -36 52 -40 63z" />
    <glyph glyph-name="N" unicode="N" horiz-adv-x="778" 
d="M618 148v399c0 29 -15 28 -80 33c-13 1 -33 1 -33 15c0 16 18 17 30 17c37 0 75 -4 112 -4c29 0 67 4 88 4c11 0 23 -3 23 -16c-2 -13 -14 -16 -34 -16c-63 0 -66 -18 -66 -93v-485c0 -19 -2 -38 -17 -38c-13 0 -26 14 -38 28l-425 493c-2 2 -5 4 -8 4s-3 -5 -3 -19
l2 -321c0 -25 2 -39 2 -60c0 -54 23 -59 47 -61c49 -4 78 -3 78 -19c0 -13 -9 -13 -19 -13c-32 0 -73 4 -116 4c-83 0 -97 -4 -128 -4c-7 0 -18 1 -18 11c0 14 5 15 73 21c21 2 29 11 29 27l12 395c1 23 2 44 2 51c0 67 -14 70 -44 73c-59 5 -71 5 -71 20c0 11 15 18 31 18
c14 0 37 -4 70 -4c29 0 43 4 55 4c22 0 32 -15 40 -24l392 -462c2 -2 3 -5 8 -5c7 0 6 11 6 27z" />
    <glyph glyph-name="O" unicode="O" horiz-adv-x="722" 
d="M24 304c0 180 141 322 332 322c235 0 335 -182 335 -318c0 -142 -95 -326 -340 -326c-186 0 -327 131 -327 322zM130 302c0 -228 144 -290 226 -290c220 0 229 261 229 311c0 129 -74 273 -233 273c-108 0 -222 -83 -222 -294z" />
    <glyph glyph-name="P" unicode="P" horiz-adv-x="556" 
d="M125 111v414c0 37 -3 50 -43 53c-27 2 -47 2 -47 17c0 12 8 17 21 17c46 0 92 -4 138 -4c40 0 81 4 121 4c128 0 207 -72 207 -168c0 -70 -55 -197 -192 -197c-65 0 -109 32 -114 32s-5 -6 -5 -20v-195c0 -27 10 -32 19 -36c39 -15 78 -5 78 -21c0 -10 -15 -11 -20 -11
c-36 0 -58 4 -120 4c-63 0 -83 -4 -114 -4c-13 0 -16 3 -16 14c0 10 33 9 54 18c31 12 33 43 33 83zM211 527v-213c0 -15 2 -21 61 -21c145 0 164 102 164 143c0 52 -31 142 -157 142c-63 0 -68 -17 -68 -51z" />
    <glyph glyph-name="Q" unicode="Q" horiz-adv-x="722" 
d="M24 304c0 180 141 322 332 322c235 0 335 -182 335 -318c0 -130 -79 -295 -280 -321c6 -44 108 -163 239 -163c41 0 59 -1 59 -11c0 -5 0 -10 -8 -13c-34 -11 -84 -12 -119 -12c-134 0 -258 89 -298 200c-151 27 -260 148 -260 316zM130 302c0 -228 144 -289 226 -289
c220 0 229 260 229 310c0 129 -74 273 -233 273c-108 0 -222 -83 -222 -294z" />
    <glyph glyph-name="R" unicode="R" horiz-adv-x="667" 
d="M132 74v477c0 21 -24 26 -60 29c-11 1 -35 2 -35 16c0 12 13 16 22 16c8 0 86 -4 116 -4c45 0 91 4 136 4c83 0 184 -30 184 -154c0 -102 -108 -139 -108 -154c0 -5 3 -9 8 -17l118 -194c19 -30 39 -53 89 -65c27 -6 47 -7 47 -18c0 -5 -3 -9 -10 -9c-42 0 -59 1 -91 1
c-81 0 -85 0 -90 9l-147 259c-10 17 -37 30 -63 30c-30 0 -30 -8 -30 -27v-173c0 -50 0 -58 70 -72c18 -4 40 -5 40 -19c0 -12 -22 -13 -26 -13c-37 0 -75 4 -112 4c-46 0 -91 -4 -139 -4c-5 0 -17 2 -16 13c0 17 25 15 49 19c24 3 48 11 48 46zM218 551v-213
c0 -9 9 -12 56 -12c58 0 135 8 135 133c0 99 -76 123 -157 123c-9 0 -34 0 -34 -31z" />
    <glyph glyph-name="S" unicode="S" horiz-adv-x="444" 
d="M365 557v-83c0 -4 -3 -8 -9 -8c-34 0 0 126 -136 126c-78 0 -109 -44 -109 -93c0 -144 300 -125 300 -331c0 -129 -93 -186 -214 -186c-17 0 -63 8 -97 15c-62 13 -73 31 -73 92c0 27 3 87 23 87c26 0 4 -29 34 -84c10 -18 44 -76 128 -76c95 0 133 58 133 108
c0 152 -300 142 -300 334c0 84 62 168 189 168c14 0 34 -1 54 -5c77 -15 77 -26 77 -64z" />
    <glyph glyph-name="T" unicode="T" horiz-adv-x="611" 
d="M264 590h221c14 0 28 -1 42 1c35 6 28 45 46 45c15 0 15 -32 15 -74c0 -46 -1 -98 -19 -98c-20 0 -17 44 -30 64c-6 9 -45 28 -145 28c-40 0 -47 -3 -47 -64v-403c0 -47 14 -55 57 -61c27 -4 53 -3 53 -19c0 -13 -15 -13 -21 -13c-30 0 -85 4 -129 4
c-41 0 -89 -4 -141 -4c-5 0 -17 0 -17 10c0 16 32 17 57 22c45 9 55 24 55 83v402c0 41 -7 43 -89 43c-91 0 -129 -99 -150 -99c-10 0 -12 8 -12 13c0 13 30 92 41 122c10 27 14 44 28 44c21 0 3 -34 37 -39c50 -6 99 -7 148 -7z" />
    <glyph glyph-name="U" unicode="U" horiz-adv-x="722" 
d="M564 236v288c0 47 -12 49 -49 56c-16 3 -34 0 -34 19c0 8 9 13 21 13c28 0 58 -4 86 -4c29 0 59 4 88 4c14 0 19 -7 19 -16c0 -16 -13 -13 -33 -16c-36 -5 -58 -8 -58 -55v-292c0 -163 -46 -251 -268 -251c-198 0 -224 86 -224 235c0 118 4 206 4 293c0 50 -4 69 -42 70
c-32 1 -55 1 -55 13c0 14 6 19 22 19c42 0 74 -4 116 -4c44 0 64 4 112 4c6 0 25 -4 25 -15c0 -17 -12 -17 -44 -17c-17 -2 -38 -8 -42 -27c-10 -45 -10 -299 -10 -355c0 -122 44 -182 175 -182c139 0 191 66 191 220z" />
    <glyph glyph-name="V" unicode="V" horiz-adv-x="667" 
d="M377 162l136 371c1 3 2 8 2 12c0 30 -53 27 -82 35c-8 2 -14 7 -14 13c0 16 11 19 17 19c35 0 67 -4 105 -4c30 0 83 4 93 4c9 0 15 -8 15 -17c0 -7 -1 -14 -8 -15c-54 -8 -59 -19 -93 -102l-200 -490c-2 -5 -6 -8 -12 -8c-8 0 -11 8 -14 14l-232 561
c-9 18 -30 22 -49 25c-18 3 -35 4 -35 20c0 9 19 12 25 12c38 0 76 -4 114 -4c32 0 65 4 97 4c7 0 29 -2 29 -13c0 -17 -21 -19 -40 -19c-20 0 -41 1 -41 -20c0 -3 1 -6 2 -9l102 -257c51 -129 62 -143 65 -143c5 0 14 1 18 11z" />
    <glyph glyph-name="W" unicode="W" horiz-adv-x="1000" 
d="M485 203l-112 -211c-3 -5 -9 -12 -17 -12c-5 0 -14 3 -23 24l-242 535c-14 31 -17 34 -36 41c-21 8 -41 6 -41 20c0 6 5 12 30 12c18 0 52 -4 87 -4c29 0 59 4 88 4c14 0 19 -4 19 -14c0 -18 -28 -16 -48 -18c-6 -1 -11 -5 -11 -13c0 -4 1 -10 3 -14l193 -441
c3 -8 5 -13 12 -13c6 0 9 6 12 11l76 154c3 6 5 10 5 11c0 6 -7 15 -9 20l-131 266c-9 19 -21 16 -32 19c-19 5 -42 6 -42 19s16 13 19 13c33 0 66 -4 100 -4c36 0 72 4 108 4c7 0 16 -2 16 -12c0 -20 -39 -9 -66 -20c-9 -3 -9 -8 -9 -13c0 -3 0 -7 2 -10l80 -169
c4 -8 7 -23 15 -23c7 0 11 10 13 15l70 158c6 14 11 25 11 32c0 9 -7 10 -13 10c-22 1 -54 4 -54 15c0 17 7 17 23 17c28 0 56 -4 85 -4c23 0 58 4 71 4s21 -3 21 -17s-46 -11 -59 -15c-5 -2 -28 -18 -38 -39l-97 -208c-4 -9 -8 -13 -8 -16c0 -4 3 -7 8 -16l80 -164
c7 -14 11 -27 18 -27c6 0 9 5 11 9l183 433c2 4 4 8 4 13c0 10 -5 13 -11 15c-21 7 -38 5 -44 7s-10 6 -10 12c0 11 8 13 15 13c20 0 51 -4 76 -4c23 0 58 4 80 4c12 0 20 -2 20 -12c0 -20 -42 -10 -54 -20c-26 -24 -34 -45 -46 -73l-229 -518c-2 -4 -6 -9 -14 -9
c-9 0 -12 6 -16 13l-116 230c-1 3 -4 4 -7 4c-11 0 -13 -12 -19 -24z" />
    <glyph glyph-name="X" unicode="X" horiz-adv-x="722" 
d="M487 64l-127 171c-3 4 -8 14 -18 14c-12 1 -16 -13 -33 -39c-43 -63 -87 -131 -87 -154c0 -12 11 -22 36 -28c24 -6 61 -5 61 -20c0 -8 -15 -12 -24 -12c-27 0 -82 4 -123 4c-42 0 -84 -4 -125 -4c-7 0 -21 3 -21 13c0 16 20 14 43 19c24 5 51 11 68 30l179 210
c3 4 5 10 5 15c0 9 -9 18 -15 25l-198 257c-7 9 -22 13 -32 15c-20 4 -46 6 -46 18c0 11 10 14 27 14c41 0 83 -4 124 -4c39 0 79 4 118 4c10 0 27 -2 27 -16c0 -15 -16 -14 -49 -16c-21 -1 -40 -4 -40 -19c0 -10 4 -20 10 -28l92 -130c10 -14 28 -45 41 -45c1 0 4 1 5 1
c5 2 10 6 13 11l90 144c8 13 21 30 21 44s-19 21 -27 22c-24 4 -54 5 -56 16c-2 16 15 16 27 16c36 0 72 -4 108 -4c33 0 65 4 98 4c6 0 27 -1 27 -10c0 -15 -22 -12 -52 -22c-43 -14 -61 -39 -132 -126l-87 -108c-6 -7 -9 -13 -9 -21c0 -10 3 -16 8 -22l186 -240
c19 -24 43 -32 67 -35c26 -4 44 -5 44 -18c0 -11 -9 -14 -18 -14c-44 0 -89 4 -133 4c-45 0 -90 -4 -135 -4c-8 0 -18 1 -18 13c0 15 19 15 51 19c17 2 38 2 37 17c0 4 -4 14 -8 19z" />
    <glyph glyph-name="Y" unicode="Y" horiz-adv-x="667" 
d="M267 295l-176 250c-17 24 -36 31 -49 35c-23 6 -39 9 -39 21c0 8 3 10 9 11h15c33 0 67 -4 100 -4c42 0 85 4 127 4c6 0 14 -3 14 -13c0 -13 -20 -19 -46 -19c-15 0 -32 -3 -32 -16c0 -7 2 -11 5 -16l148 -219c3 -4 9 -9 14 -9s11 5 15 11l144 201c8 10 13 22 13 28
c0 17 -14 18 -29 20c-20 3 -47 5 -47 18s10 14 15 14c33 0 67 -4 100 -4c27 0 53 4 80 4c18 0 31 0 31 -13s-12 -14 -34 -19c-16 -3 -31 -8 -40 -18l-233 -283c-3 -4 -5 -13 -5 -23v-171c0 -53 13 -55 31 -57c35 -5 81 -6 81 -19s-15 -13 -22 -13c-40 0 -81 4 -121 4
c-47 0 -95 -4 -142 -4c-12 0 -15 4 -15 9c0 15 33 17 56 23c32 9 46 11 46 71v153c0 12 -3 25 -14 43z" />
    <glyph glyph-name="Z" unicode="Z" horiz-adv-x="611" 
d="M16 16l421 529c5 7 11 13 11 17c0 6 -9 8 -20 8c-50 0 -162 -4 -243 -10c-117 -9 -125 -102 -147 -102c-7 0 -11 3 -11 11c0 5 1 8 2 12l45 138c3 10 7 18 16 18s10 -5 10 -29c0 -9 5 -17 20 -17c12 0 397 11 416 11c14 0 37 0 37 -15c0 -7 -11 -18 -21 -31l-388 -491
c-4 -5 -5 -12 -5 -17c0 -18 26 -18 50 -18c48 0 98 -2 147 -2c111 0 125 2 153 21c63 43 44 118 68 118c7 0 10 -6 10 -13c0 -15 -1 -33 -1 -44l-3 -98c-1 -15 -17 -16 -32 -16c-21 0 -46 1 -72 2s-53 2 -80 2c-30 0 -108 -2 -185 -5c-77 -2 -153 -5 -180 -5
c-15 0 -21 8 -21 16c0 4 1 7 3 10z" />
    <glyph glyph-name="bracketleft" unicode="[" horiz-adv-x="333" 
d="M88 300v312c0 10 1 14 6 14c8 0 64 -37 111 -37c25 0 47 10 65 19s31 18 35 18c3 0 6 -2 6 -6c0 -2 -2 -6 -5 -11c-24 -37 -62 -62 -107 -62c-30 0 -33 10 -43 10c-5 0 -6 -3 -6 -6v-600c0 -5 1 -8 4 -8c11 0 16 4 40 4c83 0 115 -63 115 -71c0 -4 -4 -6 -8 -6
c-12 0 -40 35 -114 35c-67 0 -79 -35 -91 -35c-4 0 -8 3 -8 6v315c0 46 -50 12 -50 52c0 44 50 15 50 57z" />
    <glyph glyph-name="backslash" unicode="\" horiz-adv-x="278" 
d="M-65 626h37l371 -644h-37z" />
    <glyph glyph-name="bracketright" unicode="]" horiz-adv-x="333" 
d="M245 612v-312c0 -42 50 -13 50 -57c0 -40 -50 -6 -50 -52v-315c0 -3 -4 -6 -8 -6c-12 0 -24 35 -91 35c-74 0 -102 -35 -114 -35c-4 0 -8 2 -8 6c0 8 32 71 115 71c24 0 29 -4 40 -4c3 0 4 3 4 8v600c0 3 -1 6 -6 6c-10 0 -13 -10 -43 -10c-45 0 -83 25 -107 62
c-3 5 -5 9 -5 11c0 4 3 6 6 6c9 0 51 -37 100 -37c24 0 49 10 70 19s37 18 41 18c5 0 6 -4 6 -14z" />
    <glyph glyph-name="asciicircum" unicode="^" horiz-adv-x="600" 
d="M148 219h-55l184 365h46l184 -365h-55l-152 301z" />
    <glyph glyph-name="underscore" unicode="_" 
d="M500 -125h-500v50h500v-50z" />
    <glyph glyph-name="quoteleft" unicode="&#x2018;" horiz-adv-x="222" 
d="M114 442c-37 0 -55 35 -55 69c0 56 72 115 92 115c5 0 12 -1 12 -8c0 -10 -56 -41 -56 -75c0 -32 49 -33 49 -58c0 -31 -17 -43 -42 -43z" />
    <glyph glyph-name="a" unicode="a" 
d="M288 190h-106c-7 0 -14 -6 -18 -16l-22 -52c-14 -32 -26 -62 -26 -81c0 -31 56 -15 56 -34c0 -7 -4 -11 -18 -11c-15 0 -24 4 -71 4s-57 -4 -68 -4c-8 0 -11 3 -11 8c0 20 47 9 65 49l179 393c4 9 10 12 15 12s9 -4 12 -12l154 -396c20 -47 59 -27 59 -44
c0 -9 -5 -10 -22 -10c-21 0 -43 4 -77 4c-48 0 -74 -4 -86 -4s-15 3 -15 9c0 21 60 6 60 29c0 18 -7 40 -33 117l-7 22c-4 11 -11 17 -20 17zM188 226h88c6 0 8 0 8 3c0 5 -2 14 -10 37l-29 84c-1 4 -3 8 -6 8s-6 -3 -8 -7l-34 -87c-9 -20 -13 -31 -13 -36c0 -1 1 -2 4 -2z
" />
    <glyph glyph-name="b" unicode="b" 
d="M418 342c0 -56 -52 -75 -52 -79c0 -11 88 -31 88 -124c0 -89 -80 -139 -242 -139c-80 0 -140 -4 -160 -4c-15 0 -22 4 -22 11c0 12 18 12 41 15c17 2 29 12 29 33v307c0 31 -2 48 -21 55c-28 11 -47 5 -47 16c0 8 3 13 15 13c27 0 59 -3 98 -1c45 2 79 5 133 5
c78 0 140 -42 140 -108zM174 214v-164c0 -18 18 -28 72 -28c94 0 134 52 134 107c0 67 -50 105 -138 105c-63 0 -68 -2 -68 -20zM174 414v-145c0 -12 9 -13 64 -13c81 0 112 36 112 84c0 64 -37 88 -120 88c-50 0 -56 -4 -56 -14z" />
    <glyph glyph-name="c" unicode="c" 
d="M24 221c0 136 98 237 286 237c72 0 138 -25 140 -37c3 -26 4 -41 4 -49c0 -10 -3 -13 -8 -13c-14 0 -36 77 -136 77c-114 0 -198 -89 -198 -211c0 -126 68 -213 176 -215c134 -2 150 98 166 98c10 0 12 -12 12 -45c0 -49 -86 -79 -172 -79c-152 0 -270 101 -270 237z" />
    <glyph glyph-name="d" unicode="d" horiz-adv-x="556" 
d="M98 68v309c0 37 -12 40 -38 42c-32 2 -39 5 -39 14c0 8 7 11 26 11c18 0 43 -1 75 0c34 1 84 6 148 6c138 0 254 -82 254 -228c0 -182 -180 -226 -262 -226c-46 0 -84 4 -116 4c-45 0 -65 -4 -97 -4c-8 0 -15 3 -15 10c0 12 16 12 32 16s32 13 32 46zM450 215
c0 115 -94 213 -226 213c-44 0 -52 -2 -52 -34v-298c0 -60 22 -74 76 -74c116 0 202 68 202 193z" />
    <glyph glyph-name="e" unicode="e" 
d="M188 396v-134c0 -10 7 -16 28 -16h76c29 0 45 1 63 15c16 12 21 43 29 43s10 -4 10 -15c0 -10 -3 -24 -4 -59c-1 -36 0 -61 0 -74c0 -7 -3 -10 -10 -10c-10 0 -5 23 -23 53c-9 16 -39 25 -65 25h-78c-19 0 -26 -6 -26 -19v-146c0 -24 18 -37 109 -37c57 0 94 13 110 36
c21 30 26 58 36 58c7 0 9 -4 9 -10c0 -8 -9 -54 -14 -79c-4 -19 -5 -31 -15 -31c-23 0 -91 4 -189 4c-86 0 -154 -4 -182 -4c-13 0 -18 3 -18 11c0 15 20 13 40 15c25 3 40 10 40 42v300c0 48 -9 57 -31 58s-32 5 -32 12s3 12 15 12c28 0 70 -4 155 -4c87 0 145 4 191 4
c24 0 26 -4 26 -18v-73c0 -10 -2 -15 -7 -15c-15 0 -10 32 -34 51c-25 21 -62 33 -132 33c-75 0 -77 -10 -77 -28z" />
    <glyph glyph-name="f" unicode="f" horiz-adv-x="444" 
d="M176 369v-104c0 -14 6 -19 36 -19c47 0 89 3 106 14c26 18 21 54 37 54c7 0 9 -5 9 -16c0 -19 -4 -32 -4 -68c0 -28 4 -55 4 -67c0 -9 -3 -13 -11 -13c-13 0 -10 17 -21 46c-13 32 -69 28 -103 28c-46 0 -53 -7 -53 -28v-132c0 -31 21 -39 41 -42c21 -3 41 -2 41 -15
c0 -7 -3 -11 -22 -11c-26 0 -61 4 -95 4s-79 -4 -103 -4c-10 0 -14 4 -14 12c0 11 20 10 39 14c20 4 39 9 39 42v324c0 25 -17 32 -35 35c-20 3 -35 2 -35 11c0 8 6 12 28 12c30 0 74 -4 167 -4c61 0 122 4 175 4c15 0 22 -3 22 -15v-84c0 -7 -2 -11 -8 -11
c-18 0 -16 37 -47 60c-31 22 -77 28 -139 28c-46 0 -54 -12 -54 -55z" />
    <glyph glyph-name="g" unicode="g" horiz-adv-x="556" 
d="M412 62v79c0 34 -23 41 -60 43c-26 1 -36 1 -36 14c0 8 7 14 21 14c16 0 48 -4 91 -4c37 0 73 4 97 4c12 0 19 -4 19 -15s-15 -12 -34 -14c-17 -2 -30 -18 -30 -47v-96c0 -30 -120 -54 -196 -54c-170 0 -260 102 -260 234c0 148 132 238 268 238c92 0 171 -29 174 -49
c4 -30 4 -43 4 -64c0 -8 -4 -11 -13 -11c-16 0 -33 102 -153 102c-110 0 -192 -94 -192 -208c0 -132 90 -216 196 -216c70 0 104 16 104 50z" />
    <glyph glyph-name="h" unicode="h" horiz-adv-x="611" 
d="M100 60v332c0 24 -9 29 -47 32c-11 1 -15 5 -15 9c0 9 7 13 18 13c29 0 57 -4 86 -4s57 4 81 4c11 0 19 -1 19 -10c0 -10 -8 -11 -33 -14c-22 -2 -35 -7 -35 -30v-132c0 -13 4 -16 16 -16h227c12 0 16 3 16 16v140c0 18 -10 19 -36 22c-21 3 -25 5 -25 12c0 8 5 12 12 12
c31 0 61 -4 92 -4s61 4 92 4c5 0 10 -5 10 -10c0 -11 -16 -12 -33 -14c-19 -2 -38 -7 -38 -28v-336c0 -30 13 -35 28 -36c18 -2 40 0 40 -13c0 -7 -2 -13 -11 -13c-32 0 -64 4 -96 4s-64 -4 -96 -4c-11 0 -14 5 -14 12c0 12 19 12 37 14c19 2 38 6 38 36v134
c0 13 -5 16 -17 16h-226c-12 0 -16 -3 -16 -16v-134c0 -27 11 -34 36 -36c28 -2 36 -6 36 -14c0 -9 -5 -12 -13 -12c-32 0 -65 4 -97 4c-33 0 -65 -4 -98 -4c-9 0 -12 4 -12 11c0 15 20 13 39 16c18 3 35 10 35 37z" />
    <glyph glyph-name="i" unicode="i" horiz-adv-x="278" 
d="M176 384v-326c0 -26 12 -34 38 -36s34 -6 34 -16c0 -8 -5 -10 -24 -10c-21 0 -53 4 -86 4s-65 -4 -98 -4c-9 0 -12 4 -12 11c0 9 10 13 34 15s40 10 40 36v326c0 28 -9 34 -28 36c-24 2 -34 6 -34 15c0 7 5 11 14 11c21 0 49 -4 86 -4c39 0 69 4 90 4c9 0 14 -4 14 -11
c0 -9 -10 -13 -34 -15c-26 -2 -34 -8 -34 -36z" />
    <glyph glyph-name="j" unicode="j" horiz-adv-x="333" 
d="M164 88v296c0 28 -15 33 -41 38c-18 3 -30 0 -30 14c0 7 6 10 17 10c20 0 43 -4 84 -4c42 0 71 4 86 4c14 0 18 -4 18 -11c0 -10 -11 -10 -32 -14c-16 -4 -28 -9 -28 -37v-316c0 -112 -104 -268 -199 -268c-29 0 -45 20 -45 48c0 24 16 38 39 38c37 0 41 -38 63 -38
c26 0 68 60 68 240z" />
    <glyph glyph-name="k" unicode="k" horiz-adv-x="556" 
d="M180 382v-126c0 -8 2 -12 5 -12c2 0 8 5 16 12l135 113c20 17 40 32 40 41s-11 10 -23 10c-17 1 -37 -1 -37 13c0 7 7 13 21 13c23 0 47 -4 81 -4c41 0 62 4 76 4c12 0 18 -3 18 -12c0 -8 -12 -10 -28 -13c-21 -4 -39 -13 -53 -23l-171 -128c-3 -3 -6 -5 -6 -8
c0 -4 3 -5 6 -8l193 -179c57 -53 89 -57 89 -70c0 -10 -8 -9 -19 -9c-20 0 -49 4 -86 4c-50 0 -72 -4 -87 -4c-8 0 -14 4 -14 11c0 26 51 4 51 25c0 9 -12 22 -39 47l-142 128c-4 4 -11 11 -15 11c-6 0 -11 -5 -11 -12v-131c0 -51 17 -52 41 -55c19 -2 27 -6 27 -13
c0 -8 -4 -11 -19 -11c-23 0 -52 4 -85 4s-65 -4 -90 -4c-10 0 -14 4 -14 11c0 9 5 13 28 15c28 2 38 14 38 36v326c0 26 -9 35 -38 37c-19 1 -23 5 -23 12c0 9 5 13 19 13c15 0 34 -4 85 -4c47 0 63 4 78 4c10 0 15 -5 15 -12c0 -10 -12 -14 -34 -14c-19 0 -28 -8 -28 -38z
" />
    <glyph glyph-name="l" unicode="l" horiz-adv-x="444" 
d="M424 74l-15 -66c-2 -9 -9 -12 -21 -12c-60 0 -119 4 -214 4c-74 0 -127 -4 -144 -4c-9 0 -12 3 -12 10c0 12 24 13 51 16c14 1 33 11 33 41v327c0 28 -9 28 -61 34c-10 2 -13 3 -13 11c0 7 4 11 23 11c26 0 58 -4 91 -4c50 0 81 4 94 4c10 0 14 -3 14 -11
c0 -9 -14 -11 -33 -13c-25 -3 -41 -10 -41 -33v-343c0 -16 5 -24 82 -24c136 0 144 82 161 82c6 0 9 -2 9 -8c0 -5 -2 -12 -4 -22z" />
    <glyph glyph-name="m" unicode="m" horiz-adv-x="667" 
d="M185 431l153 -294c3 -6 5 -9 8 -9s5 3 7 9l138 276c10 19 22 33 35 33c32 0 65 -2 97 -2c13 0 19 -2 19 -13c0 -9 -14 -11 -43 -11c-23 0 -35 -3 -35 -38v-335c0 -18 16 -23 34 -25c21 -2 46 0 46 -15c0 -5 -5 -11 -20 -11c-30 0 -60 4 -91 4c-35 0 -69 -4 -91 -4
c-15 0 -22 1 -22 9c0 11 14 13 35 17c18 3 35 8 35 30v272c0 9 -2 19 -4 19s-4 -5 -9 -15l-150 -306c-2 -4 -6 -10 -10 -10s-6 5 -9 11l-152 294c-7 14 -11 26 -15 26c-5 0 -4 -10 -4 -25l-1 -269c0 -19 21 -24 40 -27c32 -5 40 -7 40 -16c0 -4 -4 -10 -12 -10
c-22 0 -52 4 -89 4c-43 0 -69 -4 -89 -4c-8 0 -12 3 -12 10c0 14 19 14 39 16c19 2 39 11 41 41l16 237c3 52 6 75 6 94c0 20 -13 26 -44 28c-26 2 -30 5 -30 13c0 7 6 11 19 11c15 0 39 -4 110 -4c5 0 10 -3 14 -11z" />
    <glyph glyph-name="n" unicode="n" horiz-adv-x="611" 
d="M169 432l301 -310c3 -4 5 -6 8 -6s4 4 4 10v254c0 33 -7 36 -33 39c-34 5 -49 5 -49 17c0 7 6 10 15 10c18 0 45 -4 80 -4s50 4 70 4c14 0 19 -3 19 -10c0 -11 -15 -11 -34 -13c-22 -3 -38 -14 -38 -45v-340c0 -27 2 -40 2 -45s-1 -9 -7 -9s-11 4 -17 10l-343 355
c-3 3 -5 7 -9 7c-3 0 -6 -15 -6 -36v-186c0 -104 11 -109 47 -112c24 -2 47 -5 47 -15c0 -9 -5 -11 -16 -11c-20 0 -46 4 -86 4c-44 0 -68 -4 -85 -4c-8 0 -15 1 -15 10c0 20 55 10 65 26c8 11 13 58 13 102v232c0 43 -21 54 -51 57c-24 2 -31 3 -31 12c0 6 3 11 15 11
c18 0 57 -4 95 -4c26 0 32 -3 39 -10z" />
    <glyph glyph-name="o" unicode="o" horiz-adv-x="556" 
d="M24 221c0 137 104 237 254 237c140 0 246 -100 246 -237c0 -135 -106 -237 -252 -237c-144 0 -248 102 -248 237zM112 221c0 -135 56 -211 160 -211c112 0 168 76 168 211c0 137 -72 211 -162 211c-92 0 -166 -74 -166 -211z" />
    <glyph glyph-name="p" unicode="p" horiz-adv-x="444" 
d="M100 50v333c0 35 -13 36 -58 41c-9 1 -12 3 -12 11c0 6 7 11 20 11c18 0 50 -4 90 -4c48 0 80 4 138 4c72 0 146 -32 146 -122s-68 -149 -141 -149c-63 0 -84 8 -109 15v-137c0 -22 7 -29 30 -31c32 -3 38 -7 38 -14c0 -9 -3 -12 -15 -12c-33 0 -57 4 -91 4
s-68 -4 -90 -4c-11 0 -16 3 -16 11c0 14 18 13 35 15c18 2 35 5 35 28zM174 391v-160c0 -16 14 -26 59 -26c64 0 117 43 117 116c0 67 -53 103 -129 103c-37 0 -47 -9 -47 -33z" />
    <glyph glyph-name="q" unicode="q" horiz-adv-x="556" 
d="M24 221c0 137 104 237 254 237c140 0 246 -100 246 -237c0 -116 -78 -208 -193 -230c28 -67 106 -113 167 -113c16 0 26 2 33 2s11 -4 11 -9c0 -12 -22 -23 -84 -23c-93 0 -202 49 -226 140c-123 16 -208 111 -208 233zM112 221c0 -135 56 -211 160 -211
c112 0 168 76 168 211c0 137 -72 211 -162 211c-92 0 -166 -74 -166 -211z" />
    <glyph glyph-name="r" unicode="r" 
d="M400 338c0 -100 -84 -97 -84 -113c0 -6 5 -10 14 -26l80 -137c17 -29 34 -35 57 -40c12 -2 19 -4 19 -13c0 -6 -5 -9 -15 -9c-22 0 -73 -4 -92 -4c-7 0 -12 3 -19 16l-97 174c-13 23 -32 34 -56 34c-23 0 -31 -8 -31 -30v-138c0 -18 9 -28 30 -30c31 -3 42 -6 42 -16
c0 -8 -4 -10 -20 -10c-26 0 -46 4 -88 4c-48 0 -72 -4 -98 -4c-2 0 -12 2 -12 9c0 13 18 15 36 17s36 7 36 31v345c0 19 -6 21 -26 25c-16 3 -32 1 -32 11s5 12 18 12c19 0 49 -4 90 -4c46 0 85 4 114 4c86 0 134 -48 134 -108zM332 328c0 63 -40 96 -109 96
c-40 0 -47 -5 -47 -18v-148c0 -16 8 -20 52 -20c71 0 104 33 104 90z" />
    <glyph glyph-name="s" unicode="s" horiz-adv-x="389" 
d="M36 40v75c0 18 6 25 14 25c22 0 -4 -130 144 -130c72 0 102 32 102 77c0 107 -240 93 -240 251c0 78 64 120 156 120c66 0 112 -26 113 -38c1 -16 5 -53 5 -70c0 -11 -3 -18 -11 -18c-11 0 -9 13 -25 44c-14 24 -38 56 -103 56c-49 0 -79 -22 -79 -70
c0 -100 246 -90 246 -238c0 -86 -68 -140 -164 -140c-94 0 -158 22 -158 56z" />
    <glyph glyph-name="t" unicode="t" 
d="M288 340v-274c0 -31 22 -42 44 -44s44 -3 44 -16c0 -9 -10 -10 -16 -10c-36 0 -71 4 -107 4s-71 -4 -107 -4c-8 0 -14 4 -14 11c0 13 21 13 41 15c21 2 41 13 41 44v274c0 67 -7 72 -44 72c-124 0 -120 -80 -145 -80c-10 0 -11 4 -11 10c0 8 5 18 24 74
c16 50 20 56 29 56c11 0 21 -38 51 -38h256c20 0 55 2 74 12c13 6 13 20 22 20c10 0 8 -12 8 -63c0 -56 -8 -65 -16 -65c-11 0 -10 14 -21 38c-10 21 -28 36 -92 36c-55 0 -61 -5 -61 -72z" />
    <glyph glyph-name="u" unicode="u" horiz-adv-x="556" 
d="M94 130v264c0 23 -15 28 -30 30c-16 2 -32 1 -32 12c0 6 5 10 16 10c30 0 61 -4 91 -4s61 4 84 4c11 0 17 -4 17 -10c0 -7 -13 -12 -29 -15s-43 -9 -43 -27v-238c0 -102 36 -142 130 -142c92 0 136 44 136 176v186c0 33 -30 43 -46 47c-14 3 -22 5 -22 12s5 11 17 11
c14 0 42 -4 66 -4c41 0 47 4 71 4c8 0 12 -3 12 -8c0 -8 -9 -11 -20 -14c-20 -4 -48 -14 -48 -48v-212c0 -132 -66 -180 -170 -180c-152 0 -200 54 -200 146z" />
    <glyph glyph-name="v" unicode="v" 
d="M270 104l100 243c7 16 14 35 14 48c0 20 -23 26 -37 27c-23 3 -28 5 -28 13c0 6 5 11 16 11c17 0 33 -4 71 -4c41 0 53 4 69 4c11 0 15 -5 15 -12c0 -11 -25 -13 -38 -23c-16 -14 -27 -30 -35 -49l-150 -354c-7 -17 -10 -24 -17 -24s-9 7 -17 24l-152 346
c-10 23 -21 38 -30 49c-24 25 -43 21 -43 31c0 8 5 12 14 12c28 0 57 -4 85 -4s57 4 79 4c11 0 16 -5 16 -12c0 -6 -5 -9 -16 -11c-27 -3 -38 -5 -38 -21c0 -20 16 -55 36 -100z" />
    <glyph glyph-name="w" unicode="w" horiz-adv-x="722" 
d="M370 168l-81 -160c-9 -17 -12 -24 -19 -24s-9 7 -18 24l-189 364c-13 25 -26 38 -36 46c-14 10 -23 14 -23 19c0 7 5 9 15 9c19 0 34 -4 66 -4c24 0 47 4 61 4c12 0 18 -4 18 -10c0 -11 -10 -12 -21 -13c-10 -1 -21 -2 -21 -13c0 -12 10 -28 23 -52l137 -258
c4 -7 6 -12 9 -12c4 0 8 10 25 42l24 46c5 9 8 15 8 22s-5 19 -9 27l-90 170c-11 20 -24 26 -35 28c-20 4 -26 4 -26 12c0 7 4 11 14 11c17 0 35 -4 74 -4c31 0 54 4 72 4c11 0 14 -4 14 -11s-5 -10 -16 -11c-17 -2 -28 -3 -28 -15c0 -8 4 -14 13 -32l57 -111l55 116
c4 10 7 17 7 27s-15 14 -27 15c-10 1 -17 5 -17 12c0 6 5 10 15 10c15 0 36 -4 56 -4s41 4 55 4c13 0 18 -3 18 -9c0 -9 -12 -11 -26 -15s-30 -11 -39 -30l-69 -141c-3 -7 -6 -13 -6 -16c0 -5 3 -7 5 -12l67 -120c6 -10 7 -15 10 -15s4 4 7 12l112 266c8 18 15 32 15 42
c0 8 -11 13 -27 15c-17 2 -21 5 -21 12s6 11 17 11c16 0 30 -4 57 -4c18 0 33 4 48 4c8 0 14 -3 14 -9c0 -7 -5 -9 -13 -12c-13 -4 -32 -11 -47 -45l-166 -372c-7 -17 -10 -24 -17 -24s-9 7 -18 24z" />
    <glyph glyph-name="x" unicode="x" horiz-adv-x="556" 
d="M337 82l-83 99l-66 -91c-18 -24 -22 -37 -22 -50c0 -23 60 -14 60 -32c0 -8 -7 -12 -16 -12c-24 0 -60 4 -90 4c-52 0 -74 -4 -90 -4c-6 0 -10 3 -10 11c0 16 34 4 71 34c33 26 141 155 141 165c0 14 -148 195 -176 212c-16 9 -36 4 -36 16c0 8 9 12 21 12
c17 0 56 -4 87 -4s61 4 85 4c16 0 21 -4 21 -11c0 -19 -56 -5 -56 -23c0 -16 6 -24 24 -46l79 -97l75 94c13 16 18 29 18 40c0 31 -60 12 -60 32c0 7 6 11 20 11c13 0 30 -4 74 -4c40 0 61 4 82 4c10 0 16 -5 16 -15c0 -13 -33 -8 -50 -19c-70 -46 -150 -160 -150 -170
c0 -8 129 -167 160 -201c30 -33 70 -16 70 -36c0 -9 -7 -9 -24 -9c-22 0 -59 4 -94 4c-52 0 -88 -4 -104 -4c-9 0 -12 4 -12 10c0 22 60 12 60 31c0 9 -11 28 -25 45z" />
    <glyph glyph-name="y" unicode="y" 
d="M276 180v-118c0 -36 23 -38 43 -40c21 -2 41 -3 41 -15c0 -9 -9 -11 -24 -11c-22 0 -66 4 -96 4c-31 0 -64 -4 -88 -4c-19 0 -26 1 -26 10c0 12 19 12 38 16s38 4 38 40v122c0 20 -14 40 -34 67l-103 138c-34 43 -61 29 -61 46c0 6 5 11 16 11c28 0 56 -4 84 -4
c27 0 55 4 83 4c10 0 15 -6 15 -12c0 -18 -52 -4 -52 -24c0 -32 106 -156 124 -168c7 5 108 133 108 159c0 25 -50 17 -50 34c0 6 4 11 14 11c14 0 27 -4 62 -4c40 0 52 4 66 4c10 0 14 -2 14 -9c0 -12 -35 -14 -79 -67l-85 -103c-35 -43 -48 -59 -48 -87z" />
    <glyph glyph-name="z" unicode="z" horiz-adv-x="444" 
d="M22 371l29 90c3 8 6 11 11 11c14 0 9 -30 29 -30c27 0 77 -3 149 -2c87 2 136 6 171 6c9 0 13 -4 13 -13c0 -5 -19 -27 -37 -49l-226 -286c-23 -29 -33 -44 -33 -57c0 -9 8 -15 22 -15c16 0 56 -4 108 -4c56 0 99 3 117 21c34 33 27 82 43 82c12 0 13 -11 13 -21
c0 -14 -5 -36 -8 -80c-2 -25 -5 -28 -17 -28c-62 0 -125 4 -187 4s-125 -4 -173 -4c-24 0 -34 4 -34 13c0 13 11 30 31 55l227 292c25 33 38 47 38 55s-6 9 -21 9c-34 0 -161 -2 -192 -15c-40 -17 -53 -65 -69 -65c-7 0 -10 4 -10 10c0 5 3 11 6 21z" />
    <glyph glyph-name="braceleft" unicode="{" horiz-adv-x="333" 
d="M126 -11v157c0 56 -14 84 -76 100c62 16 76 44 76 100v157c0 105 67 123 145 123v-20c-65 -3 -77 -38 -77 -98v-149c0 -62 -18 -97 -61 -112v-2c43 -15 61 -50 61 -112v-149c0 -60 12 -95 77 -98v-20c-78 0 -145 18 -145 123z" />
    <glyph glyph-name="bar" unicode="|" horiz-adv-x="222" 
d="M92 0v666h38v-666h-38z" />
    <glyph glyph-name="braceright" unicode="}" horiz-adv-x="333" 
d="M207 146v-157c0 -105 -67 -123 -145 -123v20c65 3 77 38 77 98v149c0 62 18 97 61 112v2c-43 15 -61 50 -61 112v149c0 60 -12 95 -77 98v20c78 0 145 -18 145 -123v-157c0 -56 14 -84 76 -100c-62 -16 -76 -44 -76 -100z" />
    <glyph glyph-name="asciitilde" unicode="~" horiz-adv-x="600" 
d="M495 252l36 -36c-30 -42 -63 -86 -125 -86c-37 0 -69 15 -102 33c-32 18 -69 35 -115 35c-44 0 -68 -37 -84 -72l-36 36c22 42 58 86 125 86c34 0 73 -15 111 -32c37 -16 75 -36 102 -36c40 0 65 37 88 72z" />
    <glyph glyph-name="exclamdown" unicode="&#xa1;" horiz-adv-x="278" 
d="M139 304c-25 0 -49 23 -49 49s24 49 49 49s49 -23 49 -49s-24 -49 -49 -49zM95 -125l21 204c7 64 5 117 9 121c2 2 6 4 14 4s12 -2 14 -4c4 -4 2 -57 9 -121l21 -204c3 -25 3 -36 3 -43c0 -33 -14 -52 -47 -52s-47 19 -47 52c0 7 0 18 3 43z" />
    <glyph glyph-name="cent" unicode="&#xa2;" 
d="M329 355l-104 -304c20 -20 56 -25 80 -25c58 0 75 25 86 25c6 0 10 -3 10 -10c0 -15 -65 -59 -133 -59c-24 0 -45 4 -64 10l-48 -140h-29l51 152c-60 36 -97 105 -97 172c0 105 72 213 230 220l44 129h29l-44 -129c32 -11 75 -21 75 -52c0 -19 -15 -25 -26 -25
c-22 0 -42 20 -60 36zM199 69l103 301c-71 -2 -151 -52 -151 -188c0 -61 27 -93 48 -113z" />
    <glyph glyph-name="sterling" unicode="&#xa3;" 
d="M241 320h144c10 0 14 -2 14 -14c0 -11 -3 -18 -14 -18h-137c2 -10 8 -53 8 -77c0 -68 -24 -117 -31 -139c36 -14 93 -28 120 -28c91 0 114 57 128 57c4 0 7 -4 7 -8c0 -7 -24 -111 -129 -111c-69 0 -144 60 -147 61c-13 -14 -49 -61 -118 -61c-35 0 -73 22 -73 63
c0 12 4 66 78 66c35 0 49 -8 106 -26c7 26 9 39 9 60c0 64 -15 97 -28 143h-113c-11 0 -21 3 -21 17c0 11 9 15 21 15h102c-24 63 -26 111 -26 124c0 100 88 158 172 158c61 0 134 -26 134 -50c0 -20 -6 -85 -8 -92s-3 -9 -9 -9c-30 0 2 131 -122 131
c-60 0 -105 -42 -105 -98c0 -14 14 -85 38 -164zM39 45c0 -13 9 -39 52 -39c47 0 87 44 87 48c0 7 -55 33 -83 33c-39 0 -56 -25 -56 -42z" />
    <glyph glyph-name="fraction" unicode="&#x2044;" horiz-adv-x="167" 
d="M334 602l-458 -620h-43l458 620h43z" />
    <glyph glyph-name="fraction" unicode="&#x2215;" horiz-adv-x="167" 
d="M334 602l-458 -620h-43l458 620h43z" />
    <glyph glyph-name="yen" unicode="&#xa5;" 
d="M266 213v-131c0 -50 12 -51 25 -54c26 -6 60 -6 60 -18c0 -14 -11 -14 -17 -14c-29 0 -59 4 -89 4c-35 0 -70 -4 -105 -4c-9 0 -11 4 -11 10c0 14 25 16 41 22c25 9 36 11 36 68v117h-153c-7 0 -15 3 -15 16c0 12 7 16 15 16h153c0 10 -3 22 -12 38l-8 14h-132
c-8 0 -16 3 -16 17c0 11 7 15 16 15h115l-105 194c-11 20 -28 27 -40 33c-14 7 -25 9 -25 20c0 9 2 11 7 12h10c25 0 50 -4 74 -4c32 0 64 4 94 4c5 0 11 -3 11 -13c0 -20 -26 -15 -44 -19c-8 -2 -14 -6 -14 -15c0 -6 1 -9 4 -14l109 -211c3 -4 7 -8 10 -8c4 0 9 4 12 10
l106 193c5 10 10 22 10 26c0 13 -9 18 -20 19c-16 1 -36 4 -36 18c0 13 7 14 11 14c24 0 49 -4 73 -4c20 0 39 4 60 4c13 0 23 0 23 -14c0 -11 -9 -16 -21 -18s-25 -6 -34 -18l-135 -209h112c8 0 16 -3 16 -17c0 -11 -7 -15 -16 -15h-132l-19 -29c-2 -4 -4 -13 -4 -23h156
c7 0 15 -3 15 -18c0 -10 -7 -14 -15 -14h-156z" />
    <glyph glyph-name="florin" unicode="&#x192;" 
d="M111 368l7 28h108c13 70 34 266 176 266c26 0 81 -12 81 -67c0 -19 -13 -44 -39 -44c-29 0 -35 23 -35 38c0 22 18 31 18 36c0 12 -14 13 -24 13c-86 0 -102 -147 -115 -242h124l-5 -28h-122l-30 -239c-5 -41 -39 -282 -166 -282c-60 0 -75 34 -75 58c0 27 11 45 40 45
c17 0 36 -10 36 -33c0 -19 -15 -25 -15 -35s15 -13 20 -13c60 0 84 115 94 211l31 288h-109z" />
    <glyph glyph-name="section" unicode="&#xa7;" 
d="M252 626c54 0 126 -33 126 -97c0 -37 -24 -54 -52 -54s-46 19 -46 47s34 40 34 52c0 22 -43 32 -64 32c-47 0 -84 -30 -84 -73c0 -102 260 -181 260 -337c0 -69 -47 -122 -116 -122c-3 0 -14 1 -16 1c46 -43 92 -78 92 -147c0 -67 -47 -126 -146 -126
c-58 0 -137 33 -137 102c0 20 17 53 55 53c28 0 48 -20 48 -47c0 -26 -35 -41 -35 -52c0 -25 53 -36 73 -36c31 0 86 16 86 79c0 116 -259 161 -259 332c0 79 53 123 126 123c3 0 5 -1 8 -2l2 2l-38 33c-35 31 -59 66 -59 115c0 85 72 122 142 122zM191 334
c-31 0 -68 -25 -68 -70c0 -27 11 -48 29 -66c38 -38 104 -102 151 -102c23 0 71 14 71 74c0 20 -14 43 -24 54c-84 92 -123 110 -159 110z" />
    <glyph glyph-name="currency" unicode="&#xa4;" 
d="M206 402c59 0 100 -40 100 -78c0 -51 -53 -81 -80 -90c17 -20 94 -95 105 -106c20 24 63 79 63 96s-7 24 -20 26c-14 2 -20 4 -20 9s4 9 10 9c18 0 37 -4 55 -4s37 4 52 4c10 0 13 -3 13 -9c0 -11 -27 -20 -56 -43c-23 -18 -51 -57 -80 -104c14 -18 50 -57 94 -81
c29 -16 46 -22 46 -28s-3 -7 -12 -7c-26 0 -48 4 -69 4c-24 0 -53 -4 -68 -4c-14 0 -17 3 -17 8c0 4 4 7 12 9c6 2 14 4 14 8c0 8 -30 35 -39 45c-53 -63 -100 -82 -175 -82c-78 0 -112 52 -112 103c0 76 88 123 120 133c-23 32 -40 48 -40 86c0 54 40 96 104 96zM90 114
c0 -52 34 -90 87 -90c69 0 103 43 114 57c-13 11 -106 101 -135 128c-42 -23 -66 -53 -66 -95zM156 332c0 -50 48 -80 54 -80c7 0 52 23 52 64c0 39 -24 64 -56 64c-34 0 -50 -25 -50 -48z" />
    <glyph glyph-name="quotesingle" unicode="'" horiz-adv-x="222" 
d="M142 545l-16 -204c-1 -8 0 -31 -15 -31s-14 23 -15 31l-16 204c-1 7 -1 16 -1 26c0 36 9 55 32 55s32 -19 32 -55c0 -10 0 -19 -1 -26z" />
    <glyph glyph-name="quotedblleft" unicode="&#x201c;" horiz-adv-x="389" 
d="M114 442c-37 0 -55 35 -55 69c0 56 72 115 92 115c5 0 12 -1 12 -8c0 -10 -56 -41 -56 -75c0 -32 49 -33 49 -58c0 -31 -17 -43 -42 -43zM281 442c-37 0 -55 35 -55 69c0 56 72 115 92 115c5 0 12 -1 12 -8c0 -10 -56 -41 -56 -75c0 -32 49 -33 49 -58
c0 -31 -17 -43 -42 -43z" />
    <glyph glyph-name="guillemotleft" unicode="&#xab;" 
d="M157 189c57 -60 102 -135 102 -144c0 -3 -2 -8 -6 -8c-5 0 -31 20 -42 35c-16 21 -129 110 -129 116c0 4 8 7 16 13c33 24 137 128 146 136c3 2 7 4 10 4c5 0 6 -5 6 -9c0 -18 -65 -106 -103 -143zM315 189c57 -60 102 -135 102 -144c0 -3 -2 -8 -6 -8
c-5 0 -31 20 -42 35c-16 21 -129 110 -129 116c0 4 8 7 16 13c33 24 137 128 146 136c3 2 7 4 10 4c5 0 6 -5 6 -9c0 -18 -65 -106 -103 -143z" />
    <glyph glyph-name="guilsinglleft" unicode="&#x2039;" horiz-adv-x="333" 
d="M153 189c57 -60 102 -135 102 -144c0 -3 -2 -8 -6 -8c-5 0 -31 20 -42 35c-16 21 -129 110 -129 116c0 4 8 7 16 13c33 24 137 128 146 136c3 2 7 4 10 4c5 0 6 -5 6 -9c0 -18 -65 -106 -103 -143z" />
    <glyph glyph-name="guilsinglright" unicode="&#x203a;" horiz-adv-x="333" 
d="M180 189c-57 60 -102 135 -102 144c0 3 2 8 6 8c5 0 31 -20 42 -35c16 -21 129 -110 129 -116c0 -4 -8 -7 -16 -13c-33 -24 -137 -128 -146 -136c-3 -2 -7 -4 -10 -4c-5 0 -6 5 -6 9c0 18 65 106 103 143z" />
    <glyph glyph-name="fi" unicode="&#xfb01;" horiz-adv-x="722" 
d="M176 369v-104c0 -14 6 -19 36 -19c47 0 89 3 106 14c26 18 21 54 37 54c7 0 9 -5 9 -16c0 -19 -4 -32 -4 -68c0 -28 4 -55 4 -67c0 -9 -3 -13 -11 -13c-13 0 -10 17 -21 46c-13 32 -69 28 -103 28c-46 0 -53 -7 -53 -28v-132c0 -31 21 -39 41 -42c21 -3 41 -2 41 -15
c0 -7 -3 -11 -22 -11c-26 0 -61 4 -95 4s-79 -4 -103 -4c-10 0 -14 4 -14 12c0 11 20 10 39 14c20 4 39 9 39 42v324c0 25 -17 32 -35 35c-20 3 -35 2 -35 11c0 8 6 12 28 12c30 0 74 -4 167 -4c61 0 122 4 175 4c15 0 22 -3 22 -15v-84c0 -7 -2 -11 -8 -11
c-18 0 -16 37 -47 60c-31 22 -77 28 -139 28c-46 0 -54 -12 -54 -55zM620 384v-326c0 -26 12 -34 38 -36s34 -6 34 -16c0 -8 -5 -10 -24 -10c-21 0 -53 4 -86 4s-65 -4 -98 -4c-9 0 -12 4 -12 11c0 9 10 13 34 15s40 10 40 36v326c0 28 -9 34 -28 36c-24 2 -34 6 -34 15
c0 7 5 11 14 11c21 0 49 -4 86 -4c39 0 69 4 90 4c9 0 14 -4 14 -11c0 -9 -10 -13 -34 -15c-26 -2 -34 -8 -34 -36z" />
    <glyph glyph-name="fl" unicode="&#xfb02;" horiz-adv-x="888" 
d="M176 369v-104c0 -14 6 -19 36 -19c47 0 89 3 106 14c26 18 21 54 37 54c7 0 9 -5 9 -16c0 -19 -4 -32 -4 -68c0 -28 4 -55 4 -67c0 -9 -3 -13 -11 -13c-13 0 -10 17 -21 46c-13 32 -69 28 -103 28c-46 0 -53 -7 -53 -28v-132c0 -31 21 -39 41 -42c21 -3 41 -2 41 -15
c0 -7 -3 -11 -22 -11c-26 0 -61 4 -95 4s-79 -4 -103 -4c-10 0 -14 4 -14 12c0 11 20 10 39 14c20 4 39 9 39 42v324c0 25 -17 32 -35 35c-20 3 -35 2 -35 11c0 8 6 12 28 12c30 0 74 -4 167 -4c61 0 122 4 175 4c15 0 22 -3 22 -15v-84c0 -7 -2 -11 -8 -11
c-18 0 -16 37 -47 60c-31 22 -77 28 -139 28c-46 0 -54 -12 -54 -55zM868 74l-15 -66c-2 -9 -9 -12 -21 -12c-60 0 -119 4 -214 4c-74 0 -127 -4 -144 -4c-9 0 -12 3 -12 10c0 12 24 13 51 16c14 1 33 11 33 41v327c0 28 -9 28 -61 34c-10 2 -13 3 -13 11c0 7 4 11 23 11
c26 0 58 -4 91 -4c50 0 81 4 94 4c10 0 14 -3 14 -11c0 -9 -14 -11 -33 -13c-25 -3 -41 -10 -41 -33v-343c0 -16 5 -24 82 -24c136 0 144 82 161 82c6 0 9 -2 9 -8c0 -5 -2 -12 -4 -22z" />
    <glyph glyph-name="endash" unicode="&#x2013;" 
d="M500 212v-46h-500v46h500z" />
    <glyph glyph-name="dagger" unicode="&#x2020;" 
d="M261 -199h-22v148c0 117 -20 187 -41 255c32 38 41 85 41 182c-34 0 -59 -8 -81 -16c-21 -8 -39 -17 -55 -17c-32 0 -45 19 -45 44s13 44 45 44c17 0 34 -8 55 -16c22 -9 48 -17 81 -17c0 115 -35 139 -35 170c0 20 12 48 46 48s46 -28 46 -48c0 -31 -35 -55 -35 -170
c34 0 59 8 81 17c21 8 39 16 55 16c32 0 45 -19 45 -44s-13 -44 -45 -44c-16 0 -34 9 -55 17c-22 8 -47 16 -81 16c0 -97 9 -144 41 -182c-21 -68 -41 -138 -41 -255v-148z" />
    <glyph glyph-name="daggerdbl" unicode="&#x2021;" 
d="M250 626c34 0 46 -28 46 -48c0 -31 -35 -55 -35 -170c34 0 59 8 81 17c21 8 39 16 55 16c32 0 45 -19 45 -44s-13 -44 -45 -44c-16 0 -34 9 -55 17c-22 8 -47 16 -81 16c0 -97 9 -144 41 -175c-32 -30 -41 -77 -41 -174c34 0 59 8 81 16c21 8 39 17 55 17
c32 0 45 -19 45 -44s-13 -44 -45 -44c-33 0 -69 33 -136 33c0 -115 35 -139 35 -170c0 -20 -12 -48 -46 -48s-46 28 -46 48c0 31 35 55 35 170c-67 0 -103 -33 -136 -33c-32 0 -45 19 -45 44s13 44 45 44c16 0 34 -9 55 -17c22 -8 47 -16 81 -16c0 97 -9 144 -41 174
c32 31 41 78 41 175c-34 0 -59 -8 -81 -16c-21 -8 -39 -17 -55 -17c-32 0 -45 19 -45 44s13 44 45 44c17 0 34 -8 55 -16c22 -9 48 -17 81 -17c0 115 -35 139 -35 170c0 20 12 48 46 48z" />
    <glyph glyph-name="periodcentered" unicode="&#xb7;" horiz-adv-x="250" 
d="M125 242c27 0 53 -26 53 -53s-26 -53 -53 -53s-53 26 -53 53s26 53 53 53z" />
    <glyph glyph-name="periodcentered" unicode="&#x2219;" horiz-adv-x="250" 
d="M125 242c27 0 53 -26 53 -53s-26 -53 -53 -53s-53 26 -53 53s26 53 53 53z" />
    <glyph glyph-name="paragraph" unicode="&#xb6;" horiz-adv-x="600" 
d="M299 608h240v-22c-65 -6 -85 -6 -85 -50v-756h-46v798h-67v-798h-46v417c-144 0 -205 87 -205 213c0 139 59 198 209 198z" />
    <glyph glyph-name="bullet" unicode="&#x2022;" 
d="M250 456c84 0 152 -68 152 -152s-68 -152 -152 -152s-152 68 -152 152s68 152 152 152z" />
    <glyph glyph-name="quotesinglbase" unicode="&#x201a;" horiz-adv-x="222" 
d="M108 84c37 0 55 -35 55 -69c0 -56 -72 -115 -92 -115c-5 0 -12 1 -12 8c0 10 56 41 56 75c0 32 -49 33 -49 58c0 31 17 43 42 43z" />
    <glyph glyph-name="quotedblbase" unicode="&#x201e;" horiz-adv-x="389" 
d="M275 84c37 0 55 -35 55 -69c0 -56 -72 -115 -92 -115c-5 0 -12 1 -12 8c0 10 56 41 56 75c0 32 -49 33 -49 58c0 31 17 43 42 43zM108 84c37 0 55 -35 55 -69c0 -56 -72 -115 -92 -115c-5 0 -12 1 -12 8c0 10 56 41 56 75c0 32 -49 33 -49 58c0 31 17 43 42 43z" />
    <glyph glyph-name="quotedblright" unicode="&#x201d;" horiz-adv-x="389" 
d="M275 626c37 0 55 -35 55 -69c0 -56 -72 -115 -92 -115c-5 0 -12 1 -12 8c0 10 56 41 56 75c0 32 -49 33 -49 58c0 31 17 43 42 43zM108 626c37 0 55 -35 55 -69c0 -56 -72 -115 -92 -115c-5 0 -12 1 -12 8c0 10 56 41 56 75c0 32 -49 33 -49 58c0 31 17 43 42 43z" />
    <glyph glyph-name="guillemotright" unicode="&#xbb;" 
d="M343 189c-57 60 -102 135 -102 144c0 3 2 8 6 8c5 0 31 -20 42 -35c16 -21 129 -110 129 -116c0 -4 -8 -7 -16 -13c-33 -24 -137 -128 -146 -136c-3 -2 -7 -4 -10 -4c-5 0 -6 5 -6 9c0 18 65 106 103 143zM185 189c-57 60 -102 135 -102 144c0 3 2 8 6 8
c5 0 31 -20 42 -35c16 -21 129 -110 129 -116c0 -4 -8 -7 -16 -13c-33 -24 -137 -128 -146 -136c-3 -2 -7 -4 -10 -4c-5 0 -6 5 -6 9c0 18 65 106 103 143z" />
    <glyph glyph-name="ellipsis" unicode="&#x2026;" horiz-adv-x="1000" 
d="M118 35c0 26 24 49 49 49s49 -23 49 -49s-24 -49 -49 -49s-49 23 -49 49zM451 35c0 26 24 49 49 49s49 -23 49 -49s-24 -49 -49 -49s-49 23 -49 49zM784 35c0 26 24 49 49 49s49 -23 49 -49s-24 -49 -49 -49s-49 23 -49 49z" />
    <glyph glyph-name="perthousand" unicode="&#x2030;" horiz-adv-x="1000" 
d="M757 58c0 -22 6 -78 80 -78c79 0 158 133 158 205c0 29 -3 78 -67 78c-77 0 -171 -130 -171 -205zM711 88c0 75 80 201 205 201c86 0 103 -66 103 -100c0 -96 -90 -231 -192 -231c-43 0 -116 28 -116 130zM639 630l-552 -689h-43l479 596l-2 2c-24 -16 -72 -25 -102 -25
c-40 0 -61 8 -81 14c1 -5 1 -5 1 -17c0 -96 -90 -231 -192 -231c-43 0 -116 28 -116 130c0 64 80 201 205 201c24 0 49 -5 68 -18c54 -37 21 -57 105 -57c33 0 78 8 97 17c80 38 83 64 100 77h33zM77 380c0 -22 6 -78 70 -78c89 0 168 130 168 192c0 18 1 37 -1 45
c-24 12 -48 37 -54 44c-5 2 -10 2 -12 2c-77 0 -171 -130 -171 -205zM550 289c86 0 103 -66 103 -100c0 -96 -90 -231 -192 -231c-43 0 -116 28 -116 130c0 75 80 201 205 201zM562 263c-77 0 -171 -130 -171 -205c0 -22 6 -78 80 -78c79 0 158 133 158 205
c0 29 -3 78 -67 78z" />
    <glyph glyph-name="questiondown" unicode="&#xbf;" horiz-adv-x="389" 
d="M61 -39c0 111 101 138 171 200c18 16 5 67 23 67c12 0 12 -36 12 -53c0 -22 -3 -41 -5 -54c-10 -68 -151 -72 -151 -203c0 -54 40 -108 88 -108c36 0 40 23 74 23c14 0 30 -7 30 -26c0 -25 -31 -27 -42 -27c-156 0 -200 122 -200 181zM253 314c-23 0 -44 21 -44 44
s21 44 44 44s44 -21 44 -44s-21 -44 -44 -44z" />
    <glyph glyph-name="grave" unicode="`" horiz-adv-x="278" 
d="M62 658l150 -149h-35l-166 104c-10 6 -19 17 -19 32c0 17 17 33 34 33c18 0 28 -13 36 -20z" />
    <glyph glyph-name="acute" unicode="&#xb4;" horiz-adv-x="278" 
d="M66 509l150 149c8 7 18 20 36 20c17 0 34 -16 34 -33c0 -15 -9 -26 -19 -32l-166 -104h-35z" />
    <glyph glyph-name="circumflex" unicode="&#x2c6;" horiz-adv-x="278" 
d="M167 676l122 -167h-33l-117 105l-117 -105h-33l122 167h56z" />
    <glyph glyph-name="tilde" unicode="&#x2dc;" horiz-adv-x="278" 
d="M4 534h-27c19 91 84 99 106 99s45 -12 68 -23s46 -24 64 -24c36 0 52 30 56 50h31c-8 -34 -40 -102 -105 -102c-28 0 -53 12 -75 23c-23 12 -43 24 -64 24c-41 0 -53 -36 -54 -47z" />
    <glyph glyph-name="macron" unicode="&#xaf;" horiz-adv-x="278" 
d="M291 599v-50h-303v50h303z" />
    <glyph glyph-name="macron" unicode="&#x2c9;" horiz-adv-x="278" 
d="M291 599v-50h-303v50h303z" />
    <glyph glyph-name="breve" unicode="&#x2d8;" horiz-adv-x="278" 
d="M0 664h30c0 -34 26 -99 108 -99c89 0 104 65 110 99h30c-2 -13 -6 -155 -139 -155c-96 0 -139 64 -139 155z" />
    <glyph glyph-name="dotaccent" unicode="&#x2d9;" horiz-adv-x="278" 
d="M139 621c25 0 47 -22 47 -47s-22 -47 -47 -47s-47 22 -47 47s22 47 47 47z" />
    <glyph glyph-name="dieresis" unicode="&#xa8;" horiz-adv-x="278" 
d="M41 621c25 0 47 -22 47 -47s-22 -47 -47 -47s-47 22 -47 47s22 47 47 47zM237 621c25 0 47 -22 47 -47s-22 -47 -47 -47s-47 22 -47 47s22 47 47 47z" />
    <glyph glyph-name="ring" unicode="&#x2da;" horiz-adv-x="278" 
d="M138 702c52 0 100 -48 100 -100s-48 -99 -100 -99s-99 47 -99 99s47 100 99 100zM138 668c-35 0 -65 -31 -65 -66s30 -65 65 -65s66 30 66 65s-31 66 -66 66z" />
    <glyph glyph-name="cedilla" unicode="&#xb8;" horiz-adv-x="278" 
d="M126 0l-30 -66c12 3 29 7 38 7c39 0 75 -29 75 -70c0 -60 -57 -85 -119 -85c-22 0 -64 6 -84 16l15 31c19 -6 40 -13 61 -13c26 0 57 12 57 42c0 35 -33 39 -52 39c-10 0 -19 -3 -23 -5l-17 5l44 99h35z" />
    <glyph glyph-name="hungarumlaut" unicode="&#x2dd;" horiz-adv-x="278" 
d="M157 509h-33l134 133c21 21 34 36 50 36c21 0 36 -16 36 -37c0 -23 -40 -41 -66 -57zM-24 509l133 151c11 13 24 18 34 18c18 0 36 -13 36 -37c0 -23 -40 -43 -63 -59l-100 -73h-40z" />
    <glyph glyph-name="ogonek" unicode="&#x2db;" horiz-adv-x="278" 
d="M258 19v-9c-56 -21 -153 -61 -153 -132c0 -30 29 -44 55 -44c34 0 74 24 102 42l13 -30c-40 -25 -91 -52 -139 -52c-47 0 -101 20 -101 75c0 98 147 136 223 150z" />
    <glyph glyph-name="caron" unicode="&#x2c7;" horiz-adv-x="278" 
d="M111 509l-122 167h33l117 -105l117 105h33l-122 -167h-56z" />
    <glyph glyph-name="emdash" unicode="&#x2014;" horiz-adv-x="1000" 
d="M875 212v-46h-750v46h750z" />
    <glyph glyph-name="AE" unicode="&#xc6;" horiz-adv-x="889" 
d="M265 256l-106 -181c-3 -5 -8 -13 -8 -21c0 -19 21 -24 33 -26c31 -4 50 -5 50 -15s-6 -17 -19 -17c-37 0 -92 4 -104 4c-19 0 -33 -4 -75 -4c-11 0 -24 3 -24 15s9 11 35 17c16 3 23 15 32 28l284 427c17 26 42 63 42 79c0 9 -5 15 -13 18c-25 10 -61 9 -86 10
c-5 0 -7 4 -7 10c0 10 8 12 24 12c94 0 160 -4 228 -4c109 0 185 4 250 4c15 0 15 -11 15 -32v-96c0 -4 -4 -6 -8 -6c-13 0 -11 11 -27 45c-15 35 -20 51 -190 51c-36 0 -43 -13 -43 -47v-173c0 -20 16 -22 51 -22h111c57 0 20 86 52 86c13 0 14 -9 14 -20
c0 -23 -4 -37 -4 -84c0 -42 4 -69 4 -97c0 -9 -1 -17 -11 -17c-15 0 -16 16 -21 45c-9 52 -18 59 -141 59c-47 0 -55 -6 -55 -26v-194c0 -45 8 -50 121 -50c68 0 91 10 112 34c48 55 43 81 60 81c9 0 10 -5 10 -10c0 -4 -3 -9 -4 -16l-19 -102c-3 -16 -9 -21 -23 -21h-285
c-18 0 -38 -1 -59 -2s-43 -2 -66 -2c-28 0 -31 4 -31 11c0 9 8 12 61 24c33 7 37 14 37 55v178h-177c-10 0 -17 -3 -20 -8zM462 306v241c0 8 -5 13 -7 13c-4 0 -8 -5 -9 -8l-150 -243c22 -4 62 -5 93 -5c23 0 46 1 73 2z" />
    <glyph glyph-name="ordfeminine" unicode="&#xaa;" horiz-adv-x="233" 
d="M186 549v-137c0 -10 4 -21 21 -21c9 0 14 5 17 8c4 2 6 5 11 5c3 0 7 -1 7 -5c0 -7 -17 -38 -54 -38c-28 0 -43 20 -50 30c-25 -19 -39 -36 -82 -36c-26 0 -50 15 -50 46c0 62 83 84 89 86c21 7 34 12 48 15c1 4 3 10 3 23c0 36 -1 59 -42 59c-68 0 -42 -70 -86 -70
c-12 0 -14 8 -14 15c0 12 43 73 121 73c61 0 61 -38 61 -53zM144 437v28c0 19 -4 21 -8 21s-82 -17 -82 -69c0 -16 11 -32 35 -32c40 0 55 30 55 52z" />
    <glyph glyph-name="Lslash" unicode="&#x141;" 
d="M199 308v-239c0 -32 15 -35 40 -35c22 0 69 2 111 8c71 10 107 92 121 92c10 0 12 -9 12 -17c0 -14 -5 -61 -15 -103c-4 -16 -15 -18 -20 -18c-53 0 -116 4 -267 4c-48 0 -95 -4 -143 -4c-24 0 -26 6 -26 16c0 14 12 15 23 16c59 5 78 11 78 67v192l-75 -19
c-17 -4 -20 -4 -20 4v13c0 10 2 13 20 17l75 19v216c0 35 -27 41 -69 43c-18 1 -36 4 -36 17c0 14 15 15 24 15c40 0 75 -4 121 -4c38 0 75 4 113 4c19 0 33 -2 33 -18c0 -12 -26 -14 -50 -14c-28 0 -50 -8 -50 -58v-180l121 30c17 4 20 4 20 -4v-13c0 -10 -2 -13 -20 -17z
" />
    <glyph glyph-name="Oslash" unicode="&#xd8;" horiz-adv-x="722" 
d="M192 93l301 453c-36 31 -83 50 -141 50c-108 0 -222 -83 -222 -294c0 -97 26 -164 62 -209zM519 520l-301 -454c46 -40 99 -54 138 -54c220 0 229 261 229 311c0 70 -22 144 -66 197zM582 681h44l-74 -111c96 -64 139 -173 139 -262c0 -142 -95 -326 -340 -326
c-60 0 -115 14 -162 40l-77 -116h-44l89 134c-82 56 -133 149 -133 264c0 180 141 322 332 322c65 0 120 -14 165 -38z" />
    <glyph glyph-name="OE" unicode="&#x152;" horiz-adv-x="889" 
d="M452 97v423c0 46 -8 60 -77 60c-162 0 -239 -124 -239 -279c0 -144 66 -277 198 -277c104 0 118 16 118 73zM538 278v-194c0 -45 8 -50 124 -50c68 0 91 10 112 34c48 55 43 81 60 81c9 0 10 -5 10 -10c0 -4 -3 -9 -4 -16l-19 -102c-3 -16 -9 -21 -23 -21h-285
c-15 0 -37 -2 -65 -4c-29 -2 -63 -4 -102 -4c-169 0 -314 99 -314 301c0 156 110 319 336 319c38 0 122 -8 188 -8c104 0 156 4 238 8c15 0 15 -11 15 -32v-96c0 -4 -4 -6 -8 -6c-13 0 -11 11 -27 45c-15 35 -20 51 -190 51c-36 0 -46 -13 -46 -47v-173c0 -20 19 -22 54 -22
h87c74 0 51 86 76 86c13 0 14 -9 14 -20c0 -23 -4 -37 -4 -84c0 -42 4 -69 4 -97c0 -9 -1 -17 -11 -17c-15 0 -16 16 -21 45c-9 52 -18 59 -141 59c-47 0 -58 -6 -58 -26z" />
    <glyph glyph-name="ordmasculine" unicode="&#xba;" horiz-adv-x="266" 
d="M211 482c0 42 -17 105 -86 105c-40 0 -70 -34 -70 -111c0 -34 18 -106 78 -106c59 0 78 68 78 112zM134 602c72 0 127 -58 127 -122c0 -62 -38 -125 -129 -125c-90 0 -127 58 -127 122c0 61 38 125 129 125z" />
    <glyph glyph-name="ae" unicode="&#xe6;" horiz-adv-x="778" 
d="M378 192h-134c-7 0 -11 -2 -14 -7l-73 -107c-9 -13 -19 -30 -19 -39c0 -24 66 -16 66 -31c0 -8 -4 -12 -12 -12c-27 0 -53 4 -80 4s-53 -4 -80 -4c-9 0 -14 4 -14 9c0 11 32 3 70 53l222 294c21 28 30 41 30 54c0 32 -88 7 -88 26c0 7 4 14 18 14c71 0 142 -4 213 -4
c67 0 142 4 213 4c6 0 12 -6 12 -22v-79c0 -4 -4 -5 -8 -5c-18 0 -10 84 -122 84c-102 0 -110 -11 -110 -27v-133c0 -10 7 -16 28 -16h76c29 0 45 1 63 15c16 12 21 43 29 43s10 -4 10 -15c0 -10 -3 -24 -4 -59c-1 -36 0 -61 0 -74c0 -7 -3 -10 -10 -10c-10 0 -5 23 -23 53
c-9 16 -39 25 -65 25h-78c-19 0 -26 -6 -26 -19v-150c0 -24 18 -35 102 -35c137 0 119 94 143 94c5 0 8 -5 8 -11c0 -5 -2 -12 -3 -22l-13 -71c-3 -14 -7 -16 -17 -16c-60 0 -119 4 -170 4c-69 0 -128 -4 -188 -4c-13 0 -18 5 -18 11c0 22 76 -3 76 43v132c0 5 -4 10 -10 10
zM268 222h110c7 0 10 4 10 11v171c0 4 -2 6 -3 6c-3 0 -6 -4 -9 -9l-105 -156c-9 -12 -11 -15 -11 -18s3 -5 8 -5z" />
    <glyph glyph-name="dotlessi" unicode="&#x131;" horiz-adv-x="278" 
d="M176 384v-326c0 -26 12 -34 38 -36s34 -6 34 -16c0 -8 -5 -10 -24 -10c-21 0 -53 4 -86 4s-65 -4 -98 -4c-9 0 -12 4 -12 11c0 9 10 13 34 15s40 10 40 36v326c0 28 -9 34 -28 36c-24 2 -34 6 -34 15c0 7 5 11 14 11c21 0 49 -4 86 -4c39 0 69 4 90 4c9 0 14 -4 14 -11
c0 -9 -10 -13 -34 -15c-26 -2 -34 -8 -34 -36z" />
    <glyph glyph-name="lslash" unicode="&#x142;" horiz-adv-x="444" 
d="M274 244l-98 -24v-174c0 -16 5 -24 82 -24c136 0 144 82 161 82c6 0 9 -2 9 -8c0 -5 -2 -12 -4 -22l-15 -66c-2 -9 -9 -12 -21 -12c-60 0 -119 4 -214 4c-74 0 -127 -4 -144 -4c-9 0 -12 3 -12 10c0 12 24 13 51 16c14 1 33 11 33 41v138l-66 -17c-17 -4 -20 -4 -20 4v7
c0 10 2 12 20 17l66 17v161c0 28 -9 28 -61 34c-10 2 -13 3 -13 11c0 7 4 11 23 11c26 0 58 -4 91 -4c50 0 81 4 94 4c10 0 14 -3 14 -11c0 -9 -14 -11 -33 -13c-25 -3 -41 -10 -41 -33v-142l98 25c17 4 20 4 20 -4v-7c0 -10 -2 -12 -20 -17z" />
    <glyph glyph-name="oslash" unicode="&#xf8;" horiz-adv-x="556" 
d="M153 64l221 336c-25 21 -59 32 -100 32c-82 0 -162 -86 -162 -211c0 -68 14 -121 41 -157zM395 377l-220 -335c25 -21 58 -32 99 -32c82 0 162 86 162 211c0 69 -14 121 -41 156zM470 546h36l-86 -131c66 -45 104 -118 104 -194c0 -121 -98 -237 -250 -237
c-45 0 -84 10 -118 28l-88 -134h-36l97 149c-67 45 -105 118 -105 194c0 121 98 237 250 237c45 0 86 -10 120 -28z" />
    <glyph glyph-name="oe" unicode="&#x153;" horiz-adv-x="778" 
d="M130 223c0 -143 68 -205 164 -205c74 0 94 10 94 44v322c0 30 -24 44 -77 44c-103 0 -181 -82 -181 -205zM42 223c0 121 102 227 254 227c34 0 67 -2 95 -4s52 -4 65 -4c40 0 80 1 120 2s80 2 120 2c6 0 12 -6 12 -18v-73c0 -10 -2 -15 -7 -15c-15 0 -10 32 -34 51
c-25 21 -62 33 -132 33c-51 0 -67 -4 -67 -30v-132c0 -13 7 -16 30 -16h76c29 0 45 1 63 15c16 12 21 43 29 43s10 -4 10 -15c0 -10 -3 -24 -4 -59c-1 -36 0 -61 0 -74c0 -7 -3 -10 -10 -10c-10 0 -5 23 -23 53c-9 16 -39 25 -65 25h-78c-22 0 -28 -4 -28 -17v-145
c0 -29 18 -40 102 -40c137 0 119 94 143 94c5 0 8 -5 8 -11c0 -5 -2 -12 -3 -22l-13 -71c-3 -14 -7 -16 -17 -16c-63 0 -129 4 -196 4s-133 -4 -196 -4c-176 0 -254 86 -254 227z" />
    <glyph glyph-name="germandbls" unicode="&#xdf;" horiz-adv-x="778" 
d="M36 40v75c0 18 6 25 14 25c22 0 -4 -130 144 -130c72 0 102 32 102 77c0 107 -240 93 -240 251c0 78 64 120 156 120c66 0 112 -26 113 -38c1 -16 5 -53 5 -70c0 -11 -3 -18 -11 -18c-11 0 -9 13 -25 44c-14 24 -38 56 -103 56c-49 0 -79 -22 -79 -70
c0 -100 246 -90 246 -238c0 -86 -68 -140 -164 -140c-94 0 -158 22 -158 56zM425 40v75c0 18 6 25 14 25c22 0 -4 -130 144 -130c72 0 102 32 102 77c0 107 -240 93 -240 251c0 78 64 120 156 120c66 0 112 -26 113 -38c1 -16 5 -53 5 -70c0 -11 -3 -18 -11 -18
c-11 0 -9 13 -25 44c-14 24 -38 56 -103 56c-49 0 -79 -22 -79 -70c0 -100 246 -90 246 -238c0 -86 -68 -140 -164 -140c-94 0 -158 22 -158 56z" />
    <glyph glyph-name="onesuperior" unicode="&#xb9;" horiz-adv-x="300" 
d="M124 335v210c0 8 0 19 -10 19c-9 0 -35 -10 -50 -10c-5 0 -6 1 -6 6c0 4 3 5 6 6c51 19 88 36 103 36c5 0 13 0 13 -9v-309c0 -16 4 -25 48 -25c11 0 22 -4 22 -14c0 -6 -7 -6 -16 -6c-24 0 -48 2 -75 2c-28 0 -58 -2 -72 -2c-8 0 -21 0 -21 7c0 6 5 9 35 13
c23 3 23 6 23 76z" />
    <glyph glyph-name="logicalnot" unicode="&#xac;" horiz-adv-x="600" 
d="M450 99v142h-338v38h376v-180h-38z" />
    <glyph glyph-name="mu" unicode="&#xb5;" 
d="M148 315l-1 -170c0 -18 -2 -34 -2 -51c0 -41 30 -64 79 -64c111 0 119 47 120 88l5 190c0 8 1 16 1 24c0 12 -9 12 -56 24c-8 2 -29 8 -29 16s11 10 22 10c17 0 34 -4 51 -4c20 0 39 4 59 4c7 0 21 -3 21 -23c0 -101 -7 -202 -7 -303c0 -21 20 -24 29 -24
c39 0 52 0 52 -10c0 -8 -5 -10 -20 -12c-70 -11 -111 -20 -120 -20c-8 0 -8 7 -8 16v23c0 3 -2 12 -7 12c-16 0 -59 -59 -140 -59c-23 0 -41 3 -57 10c0 -6 -2 -23 -2 -36c0 -43 4 -74 4 -118c0 -42 -22 -58 -46 -58c-28 0 -40 28 -40 52c0 34 13 92 17 166
c6 112 6 225 6 339c0 14 -17 16 -29 19c-24 6 -30 8 -30 15c0 11 11 11 25 11s28 -4 43 -4c14 0 29 4 44 4s17 -8 17 -21c0 -15 -1 -33 -1 -46z" />
    <glyph glyph-name="mu" unicode="&#x3bc;" 
d="M148 315l-1 -170c0 -18 -2 -34 -2 -51c0 -41 30 -64 79 -64c111 0 119 47 120 88l5 190c0 8 1 16 1 24c0 12 -9 12 -56 24c-8 2 -29 8 -29 16s11 10 22 10c17 0 34 -4 51 -4c20 0 39 4 59 4c7 0 21 -3 21 -23c0 -101 -7 -202 -7 -303c0 -21 20 -24 29 -24
c39 0 52 0 52 -10c0 -8 -5 -10 -20 -12c-70 -11 -111 -20 -120 -20c-8 0 -8 7 -8 16v23c0 3 -2 12 -7 12c-16 0 -59 -59 -140 -59c-23 0 -41 3 -57 10c0 -6 -2 -23 -2 -36c0 -43 4 -74 4 -118c0 -42 -22 -58 -46 -58c-28 0 -40 28 -40 52c0 34 13 92 17 166
c6 112 6 225 6 339c0 14 -17 16 -29 19c-24 6 -30 8 -30 15c0 11 11 11 25 11s28 -4 43 -4c14 0 29 4 44 4s17 -8 17 -21c0 -15 -1 -33 -1 -46z" />
    <glyph glyph-name="trademark" unicode="&#x2122;" horiz-adv-x="990" 
d="M239 590v-310c0 -54 0 -51 50 -58v-18h-156v18c50 7 50 4 50 58v310h-52c-42 0 -59 -32 -69 -70h-18v88h334v-88h-18c-10 38 -27 70 -69 70h-52zM673 201l-155 315h-2v-231c0 -41 10 -58 53 -63v-18h-130v18c43 5 53 22 53 63v256c0 29 -40 49 -68 49v18h109l161 -322
l167 322h93v-18c-42 -2 -58 -23 -58 -59v-251c0 -54 0 -51 50 -58v-18h-155v18c49 7 49 4 49 58v239h-2l-156 -318h-9z" />
    <glyph glyph-name="Eth" unicode="&#xd0;" horiz-adv-x="722" 
d="M204 556v-231h170c10 0 13 -1 13 -17s-3 -17 -13 -17h-170v-166c0 -70 63 -101 128 -101c78 0 264 65 264 268c0 205 -184 296 -308 296c-82 0 -84 -18 -84 -32zM118 325v238c0 19 -42 17 -68 19c-23 2 -30 2 -30 13c0 17 27 17 39 17h91c25 0 49 2 74 3c26 2 54 3 86 3
c210 0 380 -104 380 -345c0 -150 -138 -273 -310 -273h-236c-14 0 -31 -1 -47 -2s-31 -2 -43 -2c-5 0 -18 0 -18 10c0 8 7 17 37 22c22 4 45 7 45 65v198h-76c-10 0 -13 1 -13 17s3 17 13 17h76z" />
    <glyph glyph-name="onehalf" unicode="&#xbd;" horiz-adv-x="750" 
d="M611 602l-458 -620h-43l458 620h43zM115 335v210c0 8 0 19 -10 19c-9 0 -35 -10 -50 -10c-5 0 -6 1 -6 6c0 4 3 5 6 6c51 19 88 36 103 36c5 0 13 0 13 -9v-309c0 -16 4 -25 48 -25c11 0 22 -4 22 -14c0 -6 -7 -6 -16 -6c-24 0 -48 2 -75 2c-28 0 -58 -2 -72 -2
c-8 0 -21 0 -21 7c0 6 5 9 35 13c23 3 23 6 23 76zM514 41h126c9 0 19 0 25 1c14 1 16 19 26 19c4 0 6 -3 6 -6c0 -13 -1 -32 -5 -51c0 -3 -6 -6 -10 -6c-10 0 -121 2 -146 2c-26 0 -52 -2 -78 -2c-5 0 -15 1 -15 6c0 1 2 4 3 5l124 122c32 32 69 85 69 131
c0 48 -35 69 -73 69c-71 0 -87 -47 -99 -47c-6 0 -9 2 -9 8c0 10 48 69 118 69c62 0 123 -30 123 -93c0 -50 -31 -81 -87 -131l-98 -87c-3 -3 -9 -6 -9 -8c0 -1 5 -1 9 -1z" />
    <glyph glyph-name="plusminus" unicode="&#xb1;" horiz-adv-x="600" 
d="M281 244v134h38v-134h169v-38h-169v-133h-38v133h-169v38h169zM112 0v38h376v-38h-376z" />
    <glyph glyph-name="Thorn" unicode="&#xde;" horiz-adv-x="556" 
d="M213 409v-211c0 -16 1 -23 60 -23c102 0 163 56 163 141c0 88 -61 144 -159 144c-53 0 -64 -14 -64 -51zM127 72v464c0 19 -3 35 -29 40l-11 2c-29 6 -37 4 -37 18s15 16 27 16c31 0 47 -4 94 -4c40 0 60 4 90 4c22 0 45 -2 45 -14c0 -18 -18 -15 -65 -20
c-27 -3 -28 -33 -28 -57v-29c34 1 68 2 102 2c109 0 206 -57 207 -165c1 -81 -63 -200 -193 -200c-63 0 -108 33 -113 33c-3 0 -3 -3 -3 -8v-92c0 -27 23 -32 34 -34c32 -6 61 -6 61 -20c0 -11 -25 -12 -44 -12c-26 0 -47 4 -98 4c-49 0 -77 -4 -102 -4c-12 0 -25 3 -25 15
c0 11 6 12 39 17c18 2 49 7 49 44z" />
    <glyph glyph-name="onequarter" unicode="&#xbc;" horiz-adv-x="750" 
d="M658 387l-218 -254c-1 -2 -3 -4 -3 -6c0 -4 5 -4 12 -4h119c18 0 25 0 25 17v137c10 7 28 12 34 12c9 0 22 -1 22 -6v-143c0 -14 1 -17 13 -17h32c6 0 10 -4 10 -9c0 -8 -4 -13 -12 -13h-30c-13 0 -13 -6 -13 -15v-47c0 -17 5 -21 23 -25c14 -3 27 -3 27 -10
c0 -5 -4 -6 -11 -6c-22 0 -43 2 -66 2c-24 0 -44 -2 -65 -2c-4 0 -7 1 -7 7s13 3 30 9c11 4 13 17 13 26v47c0 10 -6 14 -18 14h-164c-6 0 -8 6 -8 11c0 3 1 6 2 7l225 284c4 4 7 7 14 7c14 0 22 -6 22 -12c0 -4 -5 -7 -8 -11zM631 602l-458 -620h-43l458 620h43zM115 335
v210c0 8 0 19 -10 19c-9 0 -35 -10 -50 -10c-5 0 -6 1 -6 6c0 4 3 5 6 6c51 19 88 36 103 36c5 0 13 0 13 -9v-309c0 -16 4 -25 48 -25c11 0 22 -4 22 -14c0 -6 -7 -6 -16 -6c-24 0 -48 2 -75 2c-28 0 -58 -2 -72 -2c-8 0 -21 0 -21 7c0 6 5 9 35 13c23 3 23 6 23 76z" />
    <glyph glyph-name="divide" unicode="&#xf7;" horiz-adv-x="600" 
d="M488 170h-376v38h376v-38zM300 386c22 0 42 -19 42 -42s-20 -42 -42 -42s-42 19 -42 42s20 42 42 42zM300 76c22 0 42 -19 42 -42s-20 -42 -42 -42s-42 19 -42 42s20 42 42 42z" />
    <glyph glyph-name="brokenbar" unicode="&#xa6;" horiz-adv-x="222" 
d="M92 0v248h38v-248h-38zM92 418v248h38v-248h-38z" />
    <glyph glyph-name="degree" unicode="&#xb0;" horiz-adv-x="400" 
d="M200 572c-60 0 -109 -53 -109 -113s49 -113 109 -113s109 53 109 113s-49 113 -109 113zM200 602c80 0 143 -63 143 -143s-63 -143 -143 -143s-143 63 -143 143s63 143 143 143z" />
    <glyph glyph-name="thorn" unicode="&#xfe;" horiz-adv-x="444" 
d="M102 58v334c0 24 -9 29 -47 32c-11 1 -15 5 -15 9c0 9 7 13 18 13c29 0 57 -4 86 -4s57 4 86 4c9 0 14 -7 14 -12c0 -6 -4 -9 -14 -10c-41 -4 -54 -9 -54 -32v-35c52 1 79 3 106 3c100 0 142 -55 142 -122c0 -87 -69 -149 -137 -149c-54 0 -77 7 -111 15v-48
c0 -25 11 -32 36 -34c28 -2 36 -6 36 -14c0 -9 -5 -12 -13 -12c-32 0 -65 4 -97 4c-33 0 -65 -4 -98 -4c-9 0 -12 4 -12 11c0 9 10 13 34 15s40 10 40 36zM176 322v-190c0 -7 23 -13 57 -13c62 0 117 43 117 116c0 67 -53 103 -129 103c-28 0 -45 -5 -45 -16z" />
    <glyph glyph-name="threequarters" unicode="&#xbe;" horiz-adv-x="750" 
d="M658 387l-218 -254c-1 -2 -3 -4 -3 -6c0 -4 5 -4 12 -4h119c18 0 25 0 25 17v137c10 7 28 12 34 12c9 0 22 -1 22 -6v-143c0 -14 1 -17 13 -17h32c6 0 10 -4 10 -9c0 -8 -4 -13 -12 -13h-30c-13 0 -13 -6 -13 -15v-47c0 -17 5 -21 23 -25c14 -3 27 -3 27 -10
c0 -5 -4 -6 -11 -6c-22 0 -43 2 -66 2c-24 0 -44 -2 -65 -2c-4 0 -7 1 -7 7s13 3 30 9c11 4 13 17 13 26v47c0 10 -6 14 -18 14h-164c-6 0 -8 6 -8 11c0 3 1 6 2 7l225 284c4 4 7 7 14 7c14 0 22 -6 22 -12c0 -4 -5 -7 -8 -11zM631 602l-458 -620h-43l458 620h43zM234 538
c0 -40 -72 -79 -72 -84s49 -5 69 -23c10 -9 44 -27 44 -77c0 -78 -97 -159 -200 -159c-25 0 -39 7 -39 18c0 13 15 17 24 17c22 0 33 -13 52 -13c23 0 107 45 107 121c0 61 -46 80 -90 80c-52 0 -63 -25 -73 -25c-3 0 -8 2 -8 6c0 21 138 54 138 134c0 14 -3 47 -54 47
c-52 0 -63 -38 -75 -38c-6 0 -7 3 -7 6c0 6 37 54 88 54s96 -20 96 -64z" />
    <glyph glyph-name="twosuperior" unicode="&#xb2;" horiz-adv-x="300" 
d="M97 282h126c9 0 19 0 25 1c14 1 16 19 26 19c4 0 6 -3 6 -6c0 -13 -1 -32 -5 -51c0 -3 -6 -6 -10 -6c-10 0 -121 2 -146 2c-26 0 -52 -2 -78 -2c-5 0 -15 1 -15 6c0 1 2 4 3 5l124 122c32 32 69 85 69 131c0 48 -35 69 -73 69c-71 0 -87 -47 -99 -47c-6 0 -9 2 -9 8
c0 10 48 69 118 69c62 0 123 -30 123 -93c0 -50 -31 -81 -87 -131l-98 -87c-3 -3 -9 -6 -9 -8c0 -1 5 -1 9 -1z" />
    <glyph glyph-name="registered" unicode="&#xae;" horiz-adv-x="800" 
d="M400 -18c-173 0 -315 145 -315 321c0 177 142 323 315 323c174 0 315 -145 315 -323c0 -176 -141 -321 -315 -321zM400 16c148 0 271 137 271 287c0 152 -122 289 -271 289c-148 0 -271 -138 -271 -289c0 -150 124 -287 271 -287zM251 467v13h158c55 0 110 -26 110 -84
c0 -50 -34 -85 -76 -99l54 -74c27 -36 58 -70 76 -80v-7h-50c-32 0 -53 54 -121 153h-52v-92c0 -45 0 -43 47 -49v-12h-146v12c47 6 47 4 47 49v222c0 46 0 43 -47 48zM350 464v-159h46c47 0 71 31 71 87c0 53 -35 72 -75 72h-42z" />
    <glyph glyph-name="minus" unicode="&#x2212;" horiz-adv-x="600" 
d="M488 170h-376v38h376v-38z" />
    <glyph glyph-name="eth" unicode="&#xf0;" horiz-adv-x="556" 
d="M98 244v133c0 37 -12 40 -38 42c-32 2 -39 5 -39 14c0 8 7 11 26 11c18 0 43 -1 75 0c34 1 84 6 148 6c138 0 254 -82 254 -228c0 -182 -180 -226 -262 -226c-46 0 -84 4 -116 4c-45 0 -65 -4 -97 -4c-8 0 -15 3 -15 10c0 12 16 12 32 16s32 13 32 46v140h-54
c-13 0 -24 6 -24 19s11 18 24 17h54zM172 394v-150h174c13 0 24 -5 24 -18s-11 -18 -24 -18h-174v-112c0 -60 22 -74 76 -74c116 0 202 68 202 193c0 115 -82 213 -240 213c-28 0 -38 -13 -38 -34z" />
    <glyph glyph-name="multiply" unicode="&#xd7;" horiz-adv-x="600" 
d="M273 189l-161 161l29 28l159 -161l162 161l26 -25l-161 -164l161 -161l-26 -28l-162 163l-161 -163l-27 31z" />
    <glyph glyph-name="threesuperior" unicode="&#xb3;" horiz-adv-x="300" 
d="M237 538c0 -40 -72 -79 -72 -84s49 -5 69 -23c10 -9 44 -27 44 -77c0 -78 -97 -159 -200 -159c-25 0 -39 7 -39 18c0 13 15 17 24 17c22 0 33 -13 52 -13c23 0 107 45 107 121c0 61 -46 80 -90 80c-52 0 -63 -25 -73 -25c-3 0 -8 2 -8 6c0 21 138 54 138 134
c0 14 -3 47 -54 47c-52 0 -63 -38 -75 -38c-6 0 -7 3 -7 6c0 6 37 54 88 54s96 -20 96 -64z" />
    <glyph glyph-name="copyright" unicode="&#xa9;" horiz-adv-x="800" 
d="M400 -18c-173 0 -315 145 -315 321c0 177 142 323 315 323c174 0 315 -145 315 -323c0 -176 -141 -321 -315 -321zM400 16c148 0 271 137 271 287c0 152 -122 289 -271 289c-148 0 -271 -138 -271 -289c0 -150 124 -287 271 -287zM543 222h14l-16 -63
c-3 -10 -8 -13 -23 -18c-19 -6 -54 -15 -98 -15c-104 0 -197 50 -197 185c0 78 67 180 202 180c49 0 72 -8 97 -17c14 -5 19 -12 19 -20v-65h-14c-2 40 -26 84 -107 84c-94 0 -138 -68 -139 -158c-1 -100 45 -171 147 -171c68 0 99 38 115 78z" />
    <glyph glyph-name="Aacute" unicode="&#xc1;" horiz-adv-x="667" 
d="M465 79l-49 162c-8 25 -12 25 -94 26c-68 1 -84 -3 -88 -11c-24 -49 -71 -187 -71 -198c0 -20 21 -28 29 -30c31 -8 51 -12 51 -20c0 -12 -16 -12 -23 -12c-27 0 -59 4 -88 4c-38 0 -77 -4 -111 -4c-8 0 -12 3 -12 12c0 13 26 11 51 20c20 7 25 14 30 25l255 579
c2 4 6 6 10 6c6 0 11 -3 12 -7l186 -531c19 -55 39 -68 52 -72c27 -8 46 -5 46 -20c0 -10 -8 -12 -20 -12c-43 0 -77 4 -116 4c-37 0 -72 -4 -111 -4c-10 0 -14 7 -14 11c0 12 20 15 56 21c6 1 25 9 25 26c0 7 -4 17 -6 25zM322 495l-67 -161c-2 -6 -6 -12 -6 -18
c0 -5 64 -5 72 -5c6 0 70 0 70 6c0 5 -2 10 -5 19l-53 158c-1 2 -2 6 -6 6c-2 0 -4 -2 -5 -5zM284 647l150 149c8 7 18 20 36 20c17 0 34 -16 34 -33c0 -15 -9 -26 -19 -32l-166 -104h-35z" />
    <glyph glyph-name="Acircumflex" unicode="&#xc2;" horiz-adv-x="667" 
d="M465 79l-49 162c-8 25 -12 25 -94 26c-68 1 -84 -3 -88 -11c-24 -49 -71 -187 -71 -198c0 -20 21 -28 29 -30c31 -8 51 -12 51 -20c0 -12 -16 -12 -23 -12c-27 0 -59 4 -88 4c-38 0 -77 -4 -111 -4c-8 0 -12 3 -12 12c0 13 26 11 51 20c20 7 25 14 30 25l255 579
c2 4 6 6 10 6c6 0 11 -3 12 -7l186 -531c19 -55 39 -68 52 -72c27 -8 46 -5 46 -20c0 -10 -8 -12 -20 -12c-43 0 -77 4 -116 4c-37 0 -72 -4 -111 -4c-10 0 -14 7 -14 11c0 12 20 15 56 21c6 1 25 9 25 26c0 7 -4 17 -6 25zM322 495l-67 -161c-2 -6 -6 -12 -6 -18
c0 -5 64 -5 72 -5c6 0 70 0 70 6c0 5 -2 10 -5 19l-53 158c-1 2 -2 6 -6 6c-2 0 -4 -2 -5 -5zM385 814l122 -167h-33l-117 105l-117 -105h-33l122 167h56z" />
    <glyph glyph-name="Adieresis" unicode="&#xc4;" horiz-adv-x="667" 
d="M465 79l-49 162c-8 25 -12 25 -94 26c-68 1 -84 -3 -88 -11c-24 -49 -71 -187 -71 -198c0 -20 21 -28 29 -30c31 -8 51 -12 51 -20c0 -12 -16 -12 -23 -12c-27 0 -59 4 -88 4c-38 0 -77 -4 -111 -4c-8 0 -12 3 -12 12c0 13 26 11 51 20c20 7 25 14 30 25l255 579
c2 4 6 6 10 6c6 0 11 -3 12 -7l186 -531c19 -55 39 -68 52 -72c27 -8 46 -5 46 -20c0 -10 -8 -12 -20 -12c-43 0 -77 4 -116 4c-37 0 -72 -4 -111 -4c-10 0 -14 7 -14 11c0 12 20 15 56 21c6 1 25 9 25 26c0 7 -4 17 -6 25zM322 495l-67 -161c-2 -6 -6 -12 -6 -18
c0 -5 64 -5 72 -5c6 0 70 0 70 6c0 5 -2 10 -5 19l-53 158c-1 2 -2 6 -6 6c-2 0 -4 -2 -5 -5zM259 759c25 0 47 -22 47 -47s-22 -47 -47 -47s-47 22 -47 47s22 47 47 47zM455 759c25 0 47 -22 47 -47s-22 -47 -47 -47s-47 22 -47 47s22 47 47 47z" />
    <glyph glyph-name="Agrave" unicode="&#xc0;" horiz-adv-x="667" 
d="M465 79l-49 162c-8 25 -12 25 -94 26c-68 1 -84 -3 -88 -11c-24 -49 -71 -187 -71 -198c0 -20 21 -28 29 -30c31 -8 51 -12 51 -20c0 -12 -16 -12 -23 -12c-27 0 -59 4 -88 4c-38 0 -77 -4 -111 -4c-8 0 -12 3 -12 12c0 13 26 11 51 20c20 7 25 14 30 25l255 579
c2 4 6 6 10 6c6 0 11 -3 12 -7l186 -531c19 -55 39 -68 52 -72c27 -8 46 -5 46 -20c0 -10 -8 -12 -20 -12c-43 0 -77 4 -116 4c-37 0 -72 -4 -111 -4c-10 0 -14 7 -14 11c0 12 20 15 56 21c6 1 25 9 25 26c0 7 -4 17 -6 25zM322 495l-67 -161c-2 -6 -6 -12 -6 -18
c0 -5 64 -5 72 -5c6 0 70 0 70 6c0 5 -2 10 -5 19l-53 158c-1 2 -2 6 -6 6c-2 0 -4 -2 -5 -5zM280 796l150 -149h-35l-166 104c-10 6 -19 17 -19 32c0 17 17 33 34 33c18 0 28 -13 36 -20z" />
    <glyph glyph-name="Aring" unicode="&#xc5;" horiz-adv-x="667" 
d="M465 79l-49 162c-8 25 -12 25 -94 26c-68 1 -84 -3 -88 -11c-24 -49 -71 -187 -71 -198c0 -20 21 -28 29 -30c31 -8 51 -12 51 -20c0 -12 -16 -12 -23 -12c-27 0 -59 4 -88 4c-38 0 -77 -4 -111 -4c-8 0 -12 3 -12 12c0 13 26 11 51 20c20 7 25 14 30 25l255 579
c2 4 6 6 10 6c6 0 11 -3 12 -7l186 -531c19 -55 39 -68 52 -72c27 -8 46 -5 46 -20c0 -10 -8 -12 -20 -12c-43 0 -77 4 -116 4c-37 0 -72 -4 -111 -4c-10 0 -14 7 -14 11c0 12 20 15 56 21c6 1 25 9 25 26c0 7 -4 17 -6 25zM322 495l-67 -161c-2 -6 -6 -12 -6 -18
c0 -5 64 -5 72 -5c6 0 70 0 70 6c0 5 -2 10 -5 19l-53 158c-1 2 -2 6 -6 6c-2 0 -4 -2 -5 -5zM356 840c52 0 100 -48 100 -100s-48 -99 -100 -99s-99 47 -99 99s47 100 99 100zM356 806c-35 0 -65 -31 -65 -66s30 -65 65 -65s66 30 66 65s-31 66 -66 66z" />
    <glyph glyph-name="Atilde" unicode="&#xc3;" horiz-adv-x="667" 
d="M465 79l-49 162c-8 25 -12 25 -94 26c-68 1 -84 -3 -88 -11c-24 -49 -71 -187 -71 -198c0 -20 21 -28 29 -30c31 -8 51 -12 51 -20c0 -12 -16 -12 -23 -12c-27 0 -59 4 -88 4c-38 0 -77 -4 -111 -4c-8 0 -12 3 -12 12c0 13 26 11 51 20c20 7 25 14 30 25l255 579
c2 4 6 6 10 6c6 0 11 -3 12 -7l186 -531c19 -55 39 -68 52 -72c27 -8 46 -5 46 -20c0 -10 -8 -12 -20 -12c-43 0 -77 4 -116 4c-37 0 -72 -4 -111 -4c-10 0 -14 7 -14 11c0 12 20 15 56 21c6 1 25 9 25 26c0 7 -4 17 -6 25zM322 495l-67 -161c-2 -6 -6 -12 -6 -18
c0 -5 64 -5 72 -5c6 0 70 0 70 6c0 5 -2 10 -5 19l-53 158c-1 2 -2 6 -6 6c-2 0 -4 -2 -5 -5zM222 672h-27c19 91 84 99 106 99s45 -12 68 -23s46 -24 64 -24c36 0 52 30 56 50h31c-8 -34 -40 -102 -105 -102c-28 0 -53 12 -75 23c-23 12 -43 24 -64 24
c-41 0 -53 -36 -54 -47z" />
    <glyph glyph-name="Ccedilla" unicode="&#xc7;" horiz-adv-x="611" 
d="M301 -99l37 84c-169 15 -312 128 -312 312c0 163 113 329 354 329c14 0 62 -3 98 -10c88 -15 89 -19 89 -104c0 -9 0 -12 -7 -12c-31 0 -45 96 -178 96c-126 0 -250 -119 -250 -306c0 -138 84 -278 242 -278c87 0 126 40 150 70c23 29 32 47 42 47c5 0 12 -4 12 -8
c0 -52 -14 -82 -19 -93c-6 -15 -87 -46 -178 -46c-3 0 -5 0 -9 1l-22 -49c12 3 29 7 38 7c39 0 75 -29 75 -70c0 -60 -57 -85 -119 -85c-22 0 -64 6 -84 16l15 31c19 -6 40 -13 61 -13c26 0 57 12 57 42c0 35 -33 39 -52 39c-10 0 -19 -3 -23 -5z" />
    <glyph glyph-name="Eacute" unicode="&#xc9;" horiz-adv-x="556" 
d="M119 73v468c0 26 -10 31 -47 39c-31 6 -44 8 -44 20c0 9 14 12 29 12c37 0 119 -4 144 -4c30 0 171 4 256 4c15 0 15 -11 15 -32v-96c0 -4 -4 -6 -8 -6c-13 0 -11 11 -27 45c-15 35 -20 51 -190 51c-36 0 -42 -13 -42 -47v-173c0 -20 15 -22 50 -22h87c74 0 51 86 76 86
c13 0 14 -9 14 -20c0 -23 -4 -37 -4 -84c0 -42 4 -69 4 -97c0 -9 -1 -17 -11 -17c-15 0 -16 16 -21 45c-9 52 -18 59 -141 59c-47 0 -54 -6 -54 -26v-194c0 -45 4 -50 120 -50c68 0 91 10 112 34c48 55 43 81 60 81c9 0 10 -5 10 -10c0 -4 -3 -9 -4 -16l-19 -102
c-3 -16 -9 -21 -23 -21h-285c-55 0 -86 -1 -103 -2c-18 -1 -23 -2 -28 -2c-8 0 -24 0 -24 12c0 15 18 13 43 20c26 8 55 3 55 45zM205 647l150 149c8 7 18 20 36 20c17 0 34 -16 34 -33c0 -15 -9 -26 -19 -32l-166 -104h-35z" />
    <glyph glyph-name="Ecircumflex" unicode="&#xca;" horiz-adv-x="556" 
d="M119 73v468c0 26 -10 31 -47 39c-31 6 -44 8 -44 20c0 9 14 12 29 12c37 0 119 -4 144 -4c30 0 171 4 256 4c15 0 15 -11 15 -32v-96c0 -4 -4 -6 -8 -6c-13 0 -11 11 -27 45c-15 35 -20 51 -190 51c-36 0 -42 -13 -42 -47v-173c0 -20 15 -22 50 -22h87c74 0 51 86 76 86
c13 0 14 -9 14 -20c0 -23 -4 -37 -4 -84c0 -42 4 -69 4 -97c0 -9 -1 -17 -11 -17c-15 0 -16 16 -21 45c-9 52 -18 59 -141 59c-47 0 -54 -6 -54 -26v-194c0 -45 4 -50 120 -50c68 0 91 10 112 34c48 55 43 81 60 81c9 0 10 -5 10 -10c0 -4 -3 -9 -4 -16l-19 -102
c-3 -16 -9 -21 -23 -21h-285c-55 0 -86 -1 -103 -2c-18 -1 -23 -2 -28 -2c-8 0 -24 0 -24 12c0 15 18 13 43 20c26 8 55 3 55 45zM306 814l122 -167h-33l-117 105l-117 -105h-33l122 167h56z" />
    <glyph glyph-name="Edieresis" unicode="&#xcb;" horiz-adv-x="556" 
d="M119 73v468c0 26 -10 31 -47 39c-31 6 -44 8 -44 20c0 9 14 12 29 12c37 0 119 -4 144 -4c30 0 171 4 256 4c15 0 15 -11 15 -32v-96c0 -4 -4 -6 -8 -6c-13 0 -11 11 -27 45c-15 35 -20 51 -190 51c-36 0 -42 -13 -42 -47v-173c0 -20 15 -22 50 -22h87c74 0 51 86 76 86
c13 0 14 -9 14 -20c0 -23 -4 -37 -4 -84c0 -42 4 -69 4 -97c0 -9 -1 -17 -11 -17c-15 0 -16 16 -21 45c-9 52 -18 59 -141 59c-47 0 -54 -6 -54 -26v-194c0 -45 4 -50 120 -50c68 0 91 10 112 34c48 55 43 81 60 81c9 0 10 -5 10 -10c0 -4 -3 -9 -4 -16l-19 -102
c-3 -16 -9 -21 -23 -21h-285c-55 0 -86 -1 -103 -2c-18 -1 -23 -2 -28 -2c-8 0 -24 0 -24 12c0 15 18 13 43 20c26 8 55 3 55 45zM180 759c25 0 47 -22 47 -47s-22 -47 -47 -47s-47 22 -47 47s22 47 47 47zM376 759c25 0 47 -22 47 -47s-22 -47 -47 -47s-47 22 -47 47
s22 47 47 47z" />
    <glyph glyph-name="Egrave" unicode="&#xc8;" horiz-adv-x="556" 
d="M119 73v468c0 26 -10 31 -47 39c-31 6 -44 8 -44 20c0 9 14 12 29 12c37 0 119 -4 144 -4c30 0 171 4 256 4c15 0 15 -11 15 -32v-96c0 -4 -4 -6 -8 -6c-13 0 -11 11 -27 45c-15 35 -20 51 -190 51c-36 0 -42 -13 -42 -47v-173c0 -20 15 -22 50 -22h87c74 0 51 86 76 86
c13 0 14 -9 14 -20c0 -23 -4 -37 -4 -84c0 -42 4 -69 4 -97c0 -9 -1 -17 -11 -17c-15 0 -16 16 -21 45c-9 52 -18 59 -141 59c-47 0 -54 -6 -54 -26v-194c0 -45 4 -50 120 -50c68 0 91 10 112 34c48 55 43 81 60 81c9 0 10 -5 10 -10c0 -4 -3 -9 -4 -16l-19 -102
c-3 -16 -9 -21 -23 -21h-285c-55 0 -86 -1 -103 -2c-18 -1 -23 -2 -28 -2c-8 0 -24 0 -24 12c0 15 18 13 43 20c26 8 55 3 55 45zM201 796l150 -149h-35l-166 104c-10 6 -19 17 -19 32c0 17 17 33 34 33c18 0 28 -13 36 -20z" />
    <glyph glyph-name="Iacute" unicode="&#xcd;" horiz-adv-x="333" 
d="M208 521v-459c0 -27 23 -32 34 -34c32 -6 54 -6 54 -20c0 -11 -18 -12 -37 -12c-26 0 -47 4 -98 4c-49 0 -77 -4 -102 -4c-23 0 -37 3 -37 15c0 13 6 12 51 17c18 2 49 7 49 44v466c0 32 -11 37 -40 42c-29 6 -37 4 -37 18s15 14 27 14c31 0 47 -4 94 -4c40 0 60 4 90 4
c22 0 45 0 45 -12c0 -18 -18 -15 -65 -20c-27 -3 -28 -33 -28 -59zM94 647l150 149c8 7 18 20 36 20c17 0 34 -16 34 -33c0 -15 -9 -26 -19 -32l-166 -104h-35z" />
    <glyph glyph-name="Icircumflex" unicode="&#xce;" horiz-adv-x="333" 
d="M208 521v-459c0 -27 23 -32 34 -34c32 -6 54 -6 54 -20c0 -11 -18 -12 -37 -12c-26 0 -47 4 -98 4c-49 0 -77 -4 -102 -4c-23 0 -37 3 -37 15c0 13 6 12 51 17c18 2 49 7 49 44v466c0 32 -11 37 -40 42c-29 6 -37 4 -37 18s15 14 27 14c31 0 47 -4 94 -4c40 0 60 4 90 4
c22 0 45 0 45 -12c0 -18 -18 -15 -65 -20c-27 -3 -28 -33 -28 -59zM195 814l122 -167h-33l-117 105l-117 -105h-33l122 167h56z" />
    <glyph glyph-name="Idieresis" unicode="&#xcf;" horiz-adv-x="333" 
d="M208 521v-459c0 -27 23 -32 34 -34c32 -6 54 -6 54 -20c0 -11 -18 -12 -37 -12c-26 0 -47 4 -98 4c-49 0 -77 -4 -102 -4c-23 0 -37 3 -37 15c0 13 6 12 51 17c18 2 49 7 49 44v466c0 32 -11 37 -40 42c-29 6 -37 4 -37 18s15 14 27 14c31 0 47 -4 94 -4c40 0 60 4 90 4
c22 0 45 0 45 -12c0 -18 -18 -15 -65 -20c-27 -3 -28 -33 -28 -59zM69 759c25 0 47 -22 47 -47s-22 -47 -47 -47s-47 22 -47 47s22 47 47 47zM265 759c25 0 47 -22 47 -47s-22 -47 -47 -47s-47 22 -47 47s22 47 47 47z" />
    <glyph glyph-name="Igrave" unicode="&#xcc;" horiz-adv-x="333" 
d="M208 521v-459c0 -27 23 -32 34 -34c32 -6 54 -6 54 -20c0 -11 -18 -12 -37 -12c-26 0 -47 4 -98 4c-49 0 -77 -4 -102 -4c-23 0 -37 3 -37 15c0 13 6 12 51 17c18 2 49 7 49 44v466c0 32 -11 37 -40 42c-29 6 -37 4 -37 18s15 14 27 14c31 0 47 -4 94 -4c40 0 60 4 90 4
c22 0 45 0 45 -12c0 -18 -18 -15 -65 -20c-27 -3 -28 -33 -28 -59zM90 796l150 -149h-35l-166 104c-10 6 -19 17 -19 32c0 17 17 33 34 33c18 0 28 -13 36 -20z" />
    <glyph glyph-name="Ntilde" unicode="&#xd1;" horiz-adv-x="778" 
d="M618 148v399c0 29 -15 28 -80 33c-13 1 -33 1 -33 15c0 16 18 17 30 17c37 0 75 -4 112 -4c29 0 67 4 88 4c11 0 23 -3 23 -16c-2 -13 -14 -16 -34 -16c-63 0 -66 -18 -66 -93v-485c0 -19 -2 -38 -17 -38c-13 0 -26 14 -38 28l-425 493c-2 2 -5 4 -8 4s-3 -5 -3 -19
l2 -321c0 -25 2 -39 2 -60c0 -54 23 -59 47 -61c49 -4 78 -3 78 -19c0 -13 -9 -13 -19 -13c-32 0 -73 4 -116 4c-83 0 -97 -4 -128 -4c-7 0 -18 1 -18 11c0 14 5 15 73 21c21 2 29 11 29 27l12 395c1 23 2 44 2 51c0 67 -14 70 -44 73c-59 5 -71 5 -71 20c0 11 15 18 31 18
c14 0 37 -4 70 -4c29 0 43 4 55 4c22 0 32 -15 40 -24l392 -462c2 -2 3 -5 8 -5c7 0 6 11 6 27zM254 672h-27c19 91 84 99 106 99s45 -12 68 -23s46 -24 64 -24c36 0 52 30 56 50h31c-8 -34 -40 -102 -105 -102c-28 0 -53 12 -75 23c-23 12 -43 24 -64 24
c-41 0 -53 -36 -54 -47z" />
    <glyph glyph-name="Oacute" unicode="&#xd3;" horiz-adv-x="722" 
d="M24 304c0 180 141 322 332 322c235 0 335 -182 335 -318c0 -142 -95 -326 -340 -326c-186 0 -327 131 -327 322zM130 302c0 -228 144 -290 226 -290c220 0 229 261 229 311c0 129 -74 273 -233 273c-108 0 -222 -83 -222 -294zM288 647l150 149c8 7 18 20 36 20
c17 0 34 -16 34 -33c0 -15 -9 -26 -19 -32l-166 -104h-35z" />
    <glyph glyph-name="Ocircumflex" unicode="&#xd4;" horiz-adv-x="722" 
d="M24 304c0 180 141 322 332 322c235 0 335 -182 335 -318c0 -142 -95 -326 -340 -326c-186 0 -327 131 -327 322zM130 302c0 -228 144 -290 226 -290c220 0 229 261 229 311c0 129 -74 273 -233 273c-108 0 -222 -83 -222 -294zM389 814l122 -167h-33l-117 105l-117 -105
h-33l122 167h56z" />
    <glyph glyph-name="Odieresis" unicode="&#xd6;" horiz-adv-x="722" 
d="M24 304c0 180 141 322 332 322c235 0 335 -182 335 -318c0 -142 -95 -326 -340 -326c-186 0 -327 131 -327 322zM130 302c0 -228 144 -290 226 -290c220 0 229 261 229 311c0 129 -74 273 -233 273c-108 0 -222 -83 -222 -294zM263 759c25 0 47 -22 47 -47
s-22 -47 -47 -47s-47 22 -47 47s22 47 47 47zM459 759c25 0 47 -22 47 -47s-22 -47 -47 -47s-47 22 -47 47s22 47 47 47z" />
    <glyph glyph-name="Ograve" unicode="&#xd2;" horiz-adv-x="722" 
d="M24 304c0 180 141 322 332 322c235 0 335 -182 335 -318c0 -142 -95 -326 -340 -326c-186 0 -327 131 -327 322zM130 302c0 -228 144 -290 226 -290c220 0 229 261 229 311c0 129 -74 273 -233 273c-108 0 -222 -83 -222 -294zM284 796l150 -149h-35l-166 104
c-10 6 -19 17 -19 32c0 17 17 33 34 33c18 0 28 -13 36 -20z" />
    <glyph glyph-name="Otilde" unicode="&#xd5;" horiz-adv-x="722" 
d="M24 304c0 180 141 322 332 322c235 0 335 -182 335 -318c0 -142 -95 -326 -340 -326c-186 0 -327 131 -327 322zM130 302c0 -228 144 -290 226 -290c220 0 229 261 229 311c0 129 -74 273 -233 273c-108 0 -222 -83 -222 -294zM226 672h-27c19 91 84 99 106 99
s45 -12 68 -23s46 -24 64 -24c36 0 52 30 56 50h31c-8 -34 -40 -102 -105 -102c-28 0 -53 12 -75 23c-23 12 -43 24 -64 24c-41 0 -53 -36 -54 -47z" />
    <glyph glyph-name="Scaron" unicode="&#x160;" horiz-adv-x="444" 
d="M365 557v-83c0 -4 -3 -8 -9 -8c-34 0 0 126 -136 126c-78 0 -109 -44 -109 -93c0 -144 300 -125 300 -331c0 -129 -93 -186 -214 -186c-17 0 -63 8 -97 15c-62 13 -73 31 -73 92c0 27 3 87 23 87c26 0 4 -29 34 -84c10 -18 44 -76 128 -76c95 0 133 58 133 108
c0 152 -300 142 -300 334c0 84 62 168 189 168c14 0 34 -1 54 -5c77 -15 77 -26 77 -64zM208 647l-122 167h33l117 -105l117 105h33l-122 -167h-56z" />
    <glyph glyph-name="Uacute" unicode="&#xda;" horiz-adv-x="722" 
d="M564 236v288c0 47 -12 49 -49 56c-16 3 -34 0 -34 19c0 8 9 13 21 13c28 0 58 -4 86 -4c29 0 59 4 88 4c14 0 19 -7 19 -16c0 -16 -13 -13 -33 -16c-36 -5 -58 -8 -58 -55v-292c0 -163 -46 -251 -268 -251c-198 0 -224 86 -224 235c0 118 4 206 4 293c0 50 -4 69 -42 70
c-32 1 -55 1 -55 13c0 14 6 19 22 19c42 0 74 -4 116 -4c44 0 64 4 112 4c6 0 25 -4 25 -15c0 -17 -12 -17 -44 -17c-17 -2 -38 -8 -42 -27c-10 -45 -10 -299 -10 -355c0 -122 44 -182 175 -182c139 0 191 66 191 220zM288 647l150 149c8 7 18 20 36 20c17 0 34 -16 34 -33
c0 -15 -9 -26 -19 -32l-166 -104h-35z" />
    <glyph glyph-name="Ucircumflex" unicode="&#xdb;" horiz-adv-x="722" 
d="M564 236v288c0 47 -12 49 -49 56c-16 3 -34 0 -34 19c0 8 9 13 21 13c28 0 58 -4 86 -4c29 0 59 4 88 4c14 0 19 -7 19 -16c0 -16 -13 -13 -33 -16c-36 -5 -58 -8 -58 -55v-292c0 -163 -46 -251 -268 -251c-198 0 -224 86 -224 235c0 118 4 206 4 293c0 50 -4 69 -42 70
c-32 1 -55 1 -55 13c0 14 6 19 22 19c42 0 74 -4 116 -4c44 0 64 4 112 4c6 0 25 -4 25 -15c0 -17 -12 -17 -44 -17c-17 -2 -38 -8 -42 -27c-10 -45 -10 -299 -10 -355c0 -122 44 -182 175 -182c139 0 191 66 191 220zM389 814l122 -167h-33l-117 105l-117 -105h-33l122 167
h56z" />
    <glyph glyph-name="Udieresis" unicode="&#xdc;" horiz-adv-x="722" 
d="M564 236v288c0 47 -12 49 -49 56c-16 3 -34 0 -34 19c0 8 9 13 21 13c28 0 58 -4 86 -4c29 0 59 4 88 4c14 0 19 -7 19 -16c0 -16 -13 -13 -33 -16c-36 -5 -58 -8 -58 -55v-292c0 -163 -46 -251 -268 -251c-198 0 -224 86 -224 235c0 118 4 206 4 293c0 50 -4 69 -42 70
c-32 1 -55 1 -55 13c0 14 6 19 22 19c42 0 74 -4 116 -4c44 0 64 4 112 4c6 0 25 -4 25 -15c0 -17 -12 -17 -44 -17c-17 -2 -38 -8 -42 -27c-10 -45 -10 -299 -10 -355c0 -122 44 -182 175 -182c139 0 191 66 191 220zM263 759c25 0 47 -22 47 -47s-22 -47 -47 -47
s-47 22 -47 47s22 47 47 47zM459 759c25 0 47 -22 47 -47s-22 -47 -47 -47s-47 22 -47 47s22 47 47 47z" />
    <glyph glyph-name="Ugrave" unicode="&#xd9;" horiz-adv-x="722" 
d="M564 236v288c0 47 -12 49 -49 56c-16 3 -34 0 -34 19c0 8 9 13 21 13c28 0 58 -4 86 -4c29 0 59 4 88 4c14 0 19 -7 19 -16c0 -16 -13 -13 -33 -16c-36 -5 -58 -8 -58 -55v-292c0 -163 -46 -251 -268 -251c-198 0 -224 86 -224 235c0 118 4 206 4 293c0 50 -4 69 -42 70
c-32 1 -55 1 -55 13c0 14 6 19 22 19c42 0 74 -4 116 -4c44 0 64 4 112 4c6 0 25 -4 25 -15c0 -17 -12 -17 -44 -17c-17 -2 -38 -8 -42 -27c-10 -45 -10 -299 -10 -355c0 -122 44 -182 175 -182c139 0 191 66 191 220zM284 796l150 -149h-35l-166 104c-10 6 -19 17 -19 32
c0 17 17 33 34 33c18 0 28 -13 36 -20z" />
    <glyph glyph-name="Yacute" unicode="&#xdd;" horiz-adv-x="667" 
d="M267 295l-176 250c-17 24 -36 31 -49 35c-23 6 -39 9 -39 21c0 8 3 10 9 11h15c33 0 67 -4 100 -4c42 0 85 4 127 4c6 0 14 -3 14 -13c0 -13 -20 -19 -46 -19c-15 0 -32 -3 -32 -16c0 -7 2 -11 5 -16l148 -219c3 -4 9 -9 14 -9s11 5 15 11l144 201c8 10 13 22 13 28
c0 17 -14 18 -29 20c-20 3 -47 5 -47 18s10 14 15 14c33 0 67 -4 100 -4c27 0 53 4 80 4c18 0 31 0 31 -13s-12 -14 -34 -19c-16 -3 -31 -8 -40 -18l-233 -283c-3 -4 -5 -13 -5 -23v-171c0 -53 13 -55 31 -57c35 -5 81 -6 81 -19s-15 -13 -22 -13c-40 0 -81 4 -121 4
c-47 0 -95 -4 -142 -4c-12 0 -15 4 -15 9c0 15 33 17 56 23c32 9 46 11 46 71v153c0 12 -3 25 -14 43zM275 647l150 149c8 7 18 20 36 20c17 0 34 -16 34 -33c0 -15 -9 -26 -19 -32l-166 -104h-35z" />
    <glyph glyph-name="Ydieresis" unicode="&#x178;" horiz-adv-x="667" 
d="M267 295l-176 250c-17 24 -36 31 -49 35c-23 6 -39 9 -39 21c0 8 3 10 9 11h15c33 0 67 -4 100 -4c42 0 85 4 127 4c6 0 14 -3 14 -13c0 -13 -20 -19 -46 -19c-15 0 -32 -3 -32 -16c0 -7 2 -11 5 -16l148 -219c3 -4 9 -9 14 -9s11 5 15 11l144 201c8 10 13 22 13 28
c0 17 -14 18 -29 20c-20 3 -47 5 -47 18s10 14 15 14c33 0 67 -4 100 -4c27 0 53 4 80 4c18 0 31 0 31 -13s-12 -14 -34 -19c-16 -3 -31 -8 -40 -18l-233 -283c-3 -4 -5 -13 -5 -23v-171c0 -53 13 -55 31 -57c35 -5 81 -6 81 -19s-15 -13 -22 -13c-40 0 -81 4 -121 4
c-47 0 -95 -4 -142 -4c-12 0 -15 4 -15 9c0 15 33 17 56 23c32 9 46 11 46 71v153c0 12 -3 25 -14 43zM250 759c25 0 47 -22 47 -47s-22 -47 -47 -47s-47 22 -47 47s22 47 47 47zM446 759c25 0 47 -22 47 -47s-22 -47 -47 -47s-47 22 -47 47s22 47 47 47z" />
    <glyph glyph-name="Zcaron" unicode="&#x17d;" horiz-adv-x="611" 
d="M16 16l421 529c5 7 11 13 11 17c0 6 -9 8 -20 8c-50 0 -162 -4 -243 -10c-117 -9 -125 -102 -147 -102c-7 0 -11 3 -11 11c0 5 1 8 2 12l45 138c3 10 7 18 16 18s10 -5 10 -29c0 -9 5 -17 20 -17c12 0 397 11 416 11c14 0 37 0 37 -15c0 -7 -11 -18 -21 -31l-388 -491
c-4 -5 -5 -12 -5 -17c0 -18 26 -18 50 -18c48 0 98 -2 147 -2c111 0 125 2 153 21c63 43 44 118 68 118c7 0 10 -6 10 -13c0 -15 -1 -33 -1 -44l-3 -98c-1 -15 -17 -16 -32 -16c-21 0 -46 1 -72 2s-53 2 -80 2c-30 0 -108 -2 -185 -5c-77 -2 -153 -5 -180 -5
c-15 0 -21 8 -21 16c0 4 1 7 3 10zM292 647l-122 167h33l117 -105l117 105h33l-122 -167h-56z" />
    <glyph glyph-name="aacute" unicode="&#xe1;" 
d="M288 190h-106c-7 0 -14 -6 -18 -16l-22 -52c-14 -32 -26 -62 -26 -81c0 -31 56 -15 56 -34c0 -7 -4 -11 -18 -11c-15 0 -24 4 -71 4s-57 -4 -68 -4c-8 0 -11 3 -11 8c0 20 47 9 65 49l179 393c4 9 10 12 15 12s9 -4 12 -12l154 -396c20 -47 59 -27 59 -44
c0 -9 -5 -10 -22 -10c-21 0 -43 4 -77 4c-48 0 -74 -4 -86 -4s-15 3 -15 9c0 21 60 6 60 29c0 18 -7 40 -33 117l-7 22c-4 11 -11 17 -20 17zM188 226h88c6 0 8 0 8 3c0 5 -2 14 -10 37l-29 84c-1 4 -3 8 -6 8s-6 -3 -8 -7l-34 -87c-9 -20 -13 -31 -13 -36c0 -1 1 -2 4 -2z
M177 509l150 149c8 7 18 20 36 20c17 0 34 -16 34 -33c0 -15 -9 -26 -19 -32l-166 -104h-35z" />
    <glyph glyph-name="acircumflex" unicode="&#xe2;" 
d="M288 190h-106c-7 0 -14 -6 -18 -16l-22 -52c-14 -32 -26 -62 -26 -81c0 -31 56 -15 56 -34c0 -7 -4 -11 -18 -11c-15 0 -24 4 -71 4s-57 -4 -68 -4c-8 0 -11 3 -11 8c0 20 47 9 65 49l179 393c4 9 10 12 15 12s9 -4 12 -12l154 -396c20 -47 59 -27 59 -44
c0 -9 -5 -10 -22 -10c-21 0 -43 4 -77 4c-48 0 -74 -4 -86 -4s-15 3 -15 9c0 21 60 6 60 29c0 18 -7 40 -33 117l-7 22c-4 11 -11 17 -20 17zM188 226h88c6 0 8 0 8 3c0 5 -2 14 -10 37l-29 84c-1 4 -3 8 -6 8s-6 -3 -8 -7l-34 -87c-9 -20 -13 -31 -13 -36c0 -1 1 -2 4 -2z
M278 676l122 -167h-33l-117 105l-117 -105h-33l122 167h56z" />
    <glyph glyph-name="adieresis" unicode="&#xe4;" 
d="M288 190h-106c-7 0 -14 -6 -18 -16l-22 -52c-14 -32 -26 -62 -26 -81c0 -31 56 -15 56 -34c0 -7 -4 -11 -18 -11c-15 0 -24 4 -71 4s-57 -4 -68 -4c-8 0 -11 3 -11 8c0 20 47 9 65 49l179 393c4 9 10 12 15 12s9 -4 12 -12l154 -396c20 -47 59 -27 59 -44
c0 -9 -5 -10 -22 -10c-21 0 -43 4 -77 4c-48 0 -74 -4 -86 -4s-15 3 -15 9c0 21 60 6 60 29c0 18 -7 40 -33 117l-7 22c-4 11 -11 17 -20 17zM188 226h88c6 0 8 0 8 3c0 5 -2 14 -10 37l-29 84c-1 4 -3 8 -6 8s-6 -3 -8 -7l-34 -87c-9 -20 -13 -31 -13 -36c0 -1 1 -2 4 -2z
M152 621c25 0 47 -22 47 -47s-22 -47 -47 -47s-47 22 -47 47s22 47 47 47zM348 621c25 0 47 -22 47 -47s-22 -47 -47 -47s-47 22 -47 47s22 47 47 47z" />
    <glyph glyph-name="agrave" unicode="&#xe0;" 
d="M288 190h-106c-7 0 -14 -6 -18 -16l-22 -52c-14 -32 -26 -62 -26 -81c0 -31 56 -15 56 -34c0 -7 -4 -11 -18 -11c-15 0 -24 4 -71 4s-57 -4 -68 -4c-8 0 -11 3 -11 8c0 20 47 9 65 49l179 393c4 9 10 12 15 12s9 -4 12 -12l154 -396c20 -47 59 -27 59 -44
c0 -9 -5 -10 -22 -10c-21 0 -43 4 -77 4c-48 0 -74 -4 -86 -4s-15 3 -15 9c0 21 60 6 60 29c0 18 -7 40 -33 117l-7 22c-4 11 -11 17 -20 17zM188 226h88c6 0 8 0 8 3c0 5 -2 14 -10 37l-29 84c-1 4 -3 8 -6 8s-6 -3 -8 -7l-34 -87c-9 -20 -13 -31 -13 -36c0 -1 1 -2 4 -2z
M173 658l150 -149h-35l-166 104c-10 6 -19 17 -19 32c0 17 17 33 34 33c18 0 28 -13 36 -20z" />
    <glyph glyph-name="aring" unicode="&#xe5;" 
d="M288 190h-106c-7 0 -14 -6 -18 -16l-22 -52c-14 -32 -26 -62 -26 -81c0 -31 56 -15 56 -34c0 -7 -4 -11 -18 -11c-15 0 -24 4 -71 4s-57 -4 -68 -4c-8 0 -11 3 -11 8c0 20 47 9 65 49l179 393c4 9 10 12 15 12s9 -4 12 -12l154 -396c20 -47 59 -27 59 -44
c0 -9 -5 -10 -22 -10c-21 0 -43 4 -77 4c-48 0 -74 -4 -86 -4s-15 3 -15 9c0 21 60 6 60 29c0 18 -7 40 -33 117l-7 22c-4 11 -11 17 -20 17zM188 226h88c6 0 8 0 8 3c0 5 -2 14 -10 37l-29 84c-1 4 -3 8 -6 8s-6 -3 -8 -7l-34 -87c-9 -20 -13 -31 -13 -36c0 -1 1 -2 4 -2z
M277 702c52 0 100 -48 100 -100s-48 -99 -100 -99s-99 47 -99 99s47 100 99 100zM277 668c-35 0 -65 -31 -65 -66s30 -65 65 -65s66 30 66 65s-31 66 -66 66z" />
    <glyph glyph-name="atilde" unicode="&#xe3;" 
d="M288 190h-106c-7 0 -14 -6 -18 -16l-22 -52c-14 -32 -26 -62 -26 -81c0 -31 56 -15 56 -34c0 -7 -4 -11 -18 -11c-15 0 -24 4 -71 4s-57 -4 -68 -4c-8 0 -11 3 -11 8c0 20 47 9 65 49l179 393c4 9 10 12 15 12s9 -4 12 -12l154 -396c20 -47 59 -27 59 -44
c0 -9 -5 -10 -22 -10c-21 0 -43 4 -77 4c-48 0 -74 -4 -86 -4s-15 3 -15 9c0 21 60 6 60 29c0 18 -7 40 -33 117l-7 22c-4 11 -11 17 -20 17zM188 226h88c6 0 8 0 8 3c0 5 -2 14 -10 37l-29 84c-1 4 -3 8 -6 8s-6 -3 -8 -7l-34 -87c-9 -20 -13 -31 -13 -36c0 -1 1 -2 4 -2z
M115 534h-27c19 91 84 99 106 99s45 -12 68 -23s46 -24 64 -24c36 0 52 30 56 50h31c-8 -34 -40 -102 -105 -102c-28 0 -53 12 -75 23c-23 12 -43 24 -64 24c-41 0 -53 -36 -54 -47z" />
    <glyph glyph-name="ccedilla" unicode="&#xe7;" 
d="M214 -99l39 87c-132 15 -229 110 -229 233c0 136 98 237 286 237c72 0 138 -25 140 -37c3 -26 4 -41 4 -49c0 -10 -3 -13 -8 -13c-14 0 -36 77 -136 77c-114 0 -198 -89 -198 -211c0 -126 68 -213 176 -215c134 -2 150 98 166 98c10 0 12 -12 12 -45
c0 -49 -86 -79 -172 -79c-3 0 -5 0 -8 1l-23 -51c12 3 29 7 38 7c39 0 75 -29 75 -70c0 -60 -57 -85 -119 -85c-22 0 -64 6 -84 16l15 31c19 -6 40 -13 61 -13c26 0 57 12 57 42c0 35 -33 39 -52 39c-10 0 -19 -3 -23 -5z" />
    <glyph glyph-name="eacute" unicode="&#xe9;" 
d="M188 396v-134c0 -10 7 -16 28 -16h76c29 0 45 1 63 15c16 12 21 43 29 43s10 -4 10 -15c0 -10 -3 -24 -4 -59c-1 -36 0 -61 0 -74c0 -7 -3 -10 -10 -10c-10 0 -5 23 -23 53c-9 16 -39 25 -65 25h-78c-19 0 -26 -6 -26 -19v-146c0 -24 18 -37 109 -37c57 0 94 13 110 36
c21 30 26 58 36 58c7 0 9 -4 9 -10c0 -8 -9 -54 -14 -79c-4 -19 -5 -31 -15 -31c-23 0 -91 4 -189 4c-86 0 -154 -4 -182 -4c-13 0 -18 3 -18 11c0 15 20 13 40 15c25 3 40 10 40 42v300c0 48 -9 57 -31 58s-32 5 -32 12s3 12 15 12c28 0 70 -4 155 -4c87 0 145 4 191 4
c24 0 26 -4 26 -18v-73c0 -10 -2 -15 -7 -15c-15 0 -10 32 -34 51c-25 21 -62 33 -132 33c-75 0 -77 -10 -77 -28zM191 509l150 149c8 7 18 20 36 20c17 0 34 -16 34 -33c0 -15 -9 -26 -19 -32l-166 -104h-35z" />
    <glyph glyph-name="ecircumflex" unicode="&#xea;" 
d="M188 396v-134c0 -10 7 -16 28 -16h76c29 0 45 1 63 15c16 12 21 43 29 43s10 -4 10 -15c0 -10 -3 -24 -4 -59c-1 -36 0 -61 0 -74c0 -7 -3 -10 -10 -10c-10 0 -5 23 -23 53c-9 16 -39 25 -65 25h-78c-19 0 -26 -6 -26 -19v-146c0 -24 18 -37 109 -37c57 0 94 13 110 36
c21 30 26 58 36 58c7 0 9 -4 9 -10c0 -8 -9 -54 -14 -79c-4 -19 -5 -31 -15 -31c-23 0 -91 4 -189 4c-86 0 -154 -4 -182 -4c-13 0 -18 3 -18 11c0 15 20 13 40 15c25 3 40 10 40 42v300c0 48 -9 57 -31 58s-32 5 -32 12s3 12 15 12c28 0 70 -4 155 -4c87 0 145 4 191 4
c24 0 26 -4 26 -18v-73c0 -10 -2 -15 -7 -15c-15 0 -10 32 -34 51c-25 21 -62 33 -132 33c-75 0 -77 -10 -77 -28zM292 676l122 -167h-33l-117 105l-117 -105h-33l122 167h56z" />
    <glyph glyph-name="edieresis" unicode="&#xeb;" 
d="M188 396v-134c0 -10 7 -16 28 -16h76c29 0 45 1 63 15c16 12 21 43 29 43s10 -4 10 -15c0 -10 -3 -24 -4 -59c-1 -36 0 -61 0 -74c0 -7 -3 -10 -10 -10c-10 0 -5 23 -23 53c-9 16 -39 25 -65 25h-78c-19 0 -26 -6 -26 -19v-146c0 -24 18 -37 109 -37c57 0 94 13 110 36
c21 30 26 58 36 58c7 0 9 -4 9 -10c0 -8 -9 -54 -14 -79c-4 -19 -5 -31 -15 -31c-23 0 -91 4 -189 4c-86 0 -154 -4 -182 -4c-13 0 -18 3 -18 11c0 15 20 13 40 15c25 3 40 10 40 42v300c0 48 -9 57 -31 58s-32 5 -32 12s3 12 15 12c28 0 70 -4 155 -4c87 0 145 4 191 4
c24 0 26 -4 26 -18v-73c0 -10 -2 -15 -7 -15c-15 0 -10 32 -34 51c-25 21 -62 33 -132 33c-75 0 -77 -10 -77 -28zM166 621c25 0 47 -22 47 -47s-22 -47 -47 -47s-47 22 -47 47s22 47 47 47zM362 621c25 0 47 -22 47 -47s-22 -47 -47 -47s-47 22 -47 47s22 47 47 47z" />
    <glyph glyph-name="egrave" unicode="&#xe8;" 
d="M188 396v-134c0 -10 7 -16 28 -16h76c29 0 45 1 63 15c16 12 21 43 29 43s10 -4 10 -15c0 -10 -3 -24 -4 -59c-1 -36 0 -61 0 -74c0 -7 -3 -10 -10 -10c-10 0 -5 23 -23 53c-9 16 -39 25 -65 25h-78c-19 0 -26 -6 -26 -19v-146c0 -24 18 -37 109 -37c57 0 94 13 110 36
c21 30 26 58 36 58c7 0 9 -4 9 -10c0 -8 -9 -54 -14 -79c-4 -19 -5 -31 -15 -31c-23 0 -91 4 -189 4c-86 0 -154 -4 -182 -4c-13 0 -18 3 -18 11c0 15 20 13 40 15c25 3 40 10 40 42v300c0 48 -9 57 -31 58s-32 5 -32 12s3 12 15 12c28 0 70 -4 155 -4c87 0 145 4 191 4
c24 0 26 -4 26 -18v-73c0 -10 -2 -15 -7 -15c-15 0 -10 32 -34 51c-25 21 -62 33 -132 33c-75 0 -77 -10 -77 -28zM187 658l150 -149h-35l-166 104c-10 6 -19 17 -19 32c0 17 17 33 34 33c18 0 28 -13 36 -20z" />
    <glyph glyph-name="iacute" unicode="&#xed;" horiz-adv-x="278" 
d="M176 384v-326c0 -26 12 -34 38 -36s34 -6 34 -16c0 -8 -5 -10 -24 -10c-21 0 -53 4 -86 4s-65 -4 -98 -4c-9 0 -12 4 -12 11c0 9 10 13 34 15s40 10 40 36v326c0 28 -9 34 -28 36c-24 2 -34 6 -34 15c0 7 5 11 14 11c21 0 49 -4 86 -4c39 0 69 4 90 4c9 0 14 -4 14 -11
c0 -9 -10 -13 -34 -15c-26 -2 -34 -8 -34 -36zM75 509l150 149c8 7 18 20 36 20c17 0 34 -16 34 -33c0 -15 -9 -26 -19 -32l-166 -104h-35z" />
    <glyph glyph-name="icircumflex" unicode="&#xee;" horiz-adv-x="278" 
d="M176 384v-326c0 -26 12 -34 38 -36s34 -6 34 -16c0 -8 -5 -10 -24 -10c-21 0 -53 4 -86 4s-65 -4 -98 -4c-9 0 -12 4 -12 11c0 9 10 13 34 15s40 10 40 36v326c0 28 -9 34 -28 36c-24 2 -34 6 -34 15c0 7 5 11 14 11c21 0 49 -4 86 -4c39 0 69 4 90 4c9 0 14 -4 14 -11
c0 -9 -10 -13 -34 -15c-26 -2 -34 -8 -34 -36zM176 676l122 -167h-33l-117 105l-117 -105h-33l122 167h56z" />
    <glyph glyph-name="idieresis" unicode="&#xef;" horiz-adv-x="278" 
d="M176 384v-326c0 -26 12 -34 38 -36s34 -6 34 -16c0 -8 -5 -10 -24 -10c-21 0 -53 4 -86 4s-65 -4 -98 -4c-9 0 -12 4 -12 11c0 9 10 13 34 15s40 10 40 36v326c0 28 -9 34 -28 36c-24 2 -34 6 -34 15c0 7 5 11 14 11c21 0 49 -4 86 -4c39 0 69 4 90 4c9 0 14 -4 14 -11
c0 -9 -10 -13 -34 -15c-26 -2 -34 -8 -34 -36zM50 621c25 0 47 -22 47 -47s-22 -47 -47 -47s-47 22 -47 47s22 47 47 47zM246 621c25 0 47 -22 47 -47s-22 -47 -47 -47s-47 22 -47 47s22 47 47 47z" />
    <glyph glyph-name="igrave" unicode="&#xec;" horiz-adv-x="278" 
d="M176 384v-326c0 -26 12 -34 38 -36s34 -6 34 -16c0 -8 -5 -10 -24 -10c-21 0 -53 4 -86 4s-65 -4 -98 -4c-9 0 -12 4 -12 11c0 9 10 13 34 15s40 10 40 36v326c0 28 -9 34 -28 36c-24 2 -34 6 -34 15c0 7 5 11 14 11c21 0 49 -4 86 -4c39 0 69 4 90 4c9 0 14 -4 14 -11
c0 -9 -10 -13 -34 -15c-26 -2 -34 -8 -34 -36zM71 658l150 -149h-35l-166 104c-10 6 -19 17 -19 32c0 17 17 33 34 33c18 0 28 -13 36 -20z" />
    <glyph glyph-name="ntilde" unicode="&#xf1;" horiz-adv-x="611" 
d="M169 432l301 -310c3 -4 5 -6 8 -6s4 4 4 10v254c0 33 -7 36 -33 39c-34 5 -49 5 -49 17c0 7 6 10 15 10c18 0 45 -4 80 -4s50 4 70 4c14 0 19 -3 19 -10c0 -11 -15 -11 -34 -13c-22 -3 -38 -14 -38 -45v-340c0 -27 2 -40 2 -45s-1 -9 -7 -9s-11 4 -17 10l-343 355
c-3 3 -5 7 -9 7c-3 0 -6 -15 -6 -36v-186c0 -104 11 -109 47 -112c24 -2 47 -5 47 -15c0 -9 -5 -11 -16 -11c-20 0 -46 4 -86 4c-44 0 -68 -4 -85 -4c-8 0 -15 1 -15 10c0 20 55 10 65 26c8 11 13 58 13 102v232c0 43 -21 54 -51 57c-24 2 -31 3 -31 12c0 6 3 11 15 11
c18 0 57 -4 95 -4c26 0 32 -3 39 -10zM171 534h-27c19 91 84 99 106 99s45 -12 68 -23s46 -24 64 -24c36 0 52 30 56 50h31c-8 -34 -40 -102 -105 -102c-28 0 -53 12 -75 23c-23 12 -43 24 -64 24c-41 0 -53 -36 -54 -47z" />
    <glyph glyph-name="oacute" unicode="&#xf3;" horiz-adv-x="556" 
d="M24 221c0 137 104 237 254 237c140 0 246 -100 246 -237c0 -135 -106 -237 -252 -237c-144 0 -248 102 -248 237zM112 221c0 -135 56 -211 160 -211c112 0 168 76 168 211c0 137 -72 211 -162 211c-92 0 -166 -74 -166 -211zM205 509l150 149c8 7 18 20 36 20
c17 0 34 -16 34 -33c0 -15 -9 -26 -19 -32l-166 -104h-35z" />
    <glyph glyph-name="ocircumflex" unicode="&#xf4;" horiz-adv-x="556" 
d="M24 221c0 137 104 237 254 237c140 0 246 -100 246 -237c0 -135 -106 -237 -252 -237c-144 0 -248 102 -248 237zM112 221c0 -135 56 -211 160 -211c112 0 168 76 168 211c0 137 -72 211 -162 211c-92 0 -166 -74 -166 -211zM306 676l122 -167h-33l-117 105l-117 -105
h-33l122 167h56z" />
    <glyph glyph-name="odieresis" unicode="&#xf6;" horiz-adv-x="556" 
d="M24 221c0 137 104 237 254 237c140 0 246 -100 246 -237c0 -135 -106 -237 -252 -237c-144 0 -248 102 -248 237zM112 221c0 -135 56 -211 160 -211c112 0 168 76 168 211c0 137 -72 211 -162 211c-92 0 -166 -74 -166 -211zM180 621c25 0 47 -22 47 -47s-22 -47 -47 -47
s-47 22 -47 47s22 47 47 47zM376 621c25 0 47 -22 47 -47s-22 -47 -47 -47s-47 22 -47 47s22 47 47 47z" />
    <glyph glyph-name="ograve" unicode="&#xf2;" horiz-adv-x="556" 
d="M24 221c0 137 104 237 254 237c140 0 246 -100 246 -237c0 -135 -106 -237 -252 -237c-144 0 -248 102 -248 237zM112 221c0 -135 56 -211 160 -211c112 0 168 76 168 211c0 137 -72 211 -162 211c-92 0 -166 -74 -166 -211zM201 658l150 -149h-35l-166 104
c-10 6 -19 17 -19 32c0 17 17 33 34 33c18 0 28 -13 36 -20z" />
    <glyph glyph-name="otilde" unicode="&#xf5;" horiz-adv-x="556" 
d="M24 221c0 137 104 237 254 237c140 0 246 -100 246 -237c0 -135 -106 -237 -252 -237c-144 0 -248 102 -248 237zM112 221c0 -135 56 -211 160 -211c112 0 168 76 168 211c0 137 -72 211 -162 211c-92 0 -166 -74 -166 -211zM143 534h-27c19 91 84 99 106 99
s45 -12 68 -23s46 -24 64 -24c36 0 52 30 56 50h31c-8 -34 -40 -102 -105 -102c-28 0 -53 12 -75 23c-23 12 -43 24 -64 24c-41 0 -53 -36 -54 -47z" />
    <glyph glyph-name="scaron" unicode="&#x161;" horiz-adv-x="389" 
d="M36 40v75c0 18 6 25 14 25c22 0 -4 -130 144 -130c72 0 102 32 102 77c0 107 -240 93 -240 251c0 78 64 120 156 120c66 0 112 -26 113 -38c1 -16 5 -53 5 -70c0 -11 -3 -18 -11 -18c-11 0 -9 13 -25 44c-14 24 -38 56 -103 56c-49 0 -79 -22 -79 -70
c0 -100 246 -90 246 -238c0 -86 -68 -140 -164 -140c-94 0 -158 22 -158 56zM167 509l-122 167h33l117 -105l117 105h33l-122 -167h-56z" />
    <glyph glyph-name="uacute" unicode="&#xfa;" horiz-adv-x="556" 
d="M94 130v264c0 23 -15 28 -30 30c-16 2 -32 1 -32 12c0 6 5 10 16 10c30 0 61 -4 91 -4s61 4 84 4c11 0 17 -4 17 -10c0 -7 -13 -12 -29 -15s-43 -9 -43 -27v-238c0 -102 36 -142 130 -142c92 0 136 44 136 176v186c0 33 -30 43 -46 47c-14 3 -22 5 -22 12s5 11 17 11
c14 0 42 -4 66 -4c41 0 47 4 71 4c8 0 12 -3 12 -8c0 -8 -9 -11 -20 -14c-20 -4 -48 -14 -48 -48v-212c0 -132 -66 -180 -170 -180c-152 0 -200 54 -200 146zM191 509l150 149c8 7 18 20 36 20c17 0 34 -16 34 -33c0 -15 -9 -26 -19 -32l-166 -104h-35z" />
    <glyph glyph-name="ucircumflex" unicode="&#xfb;" horiz-adv-x="556" 
d="M94 130v264c0 23 -15 28 -30 30c-16 2 -32 1 -32 12c0 6 5 10 16 10c30 0 61 -4 91 -4s61 4 84 4c11 0 17 -4 17 -10c0 -7 -13 -12 -29 -15s-43 -9 -43 -27v-238c0 -102 36 -142 130 -142c92 0 136 44 136 176v186c0 33 -30 43 -46 47c-14 3 -22 5 -22 12s5 11 17 11
c14 0 42 -4 66 -4c41 0 47 4 71 4c8 0 12 -3 12 -8c0 -8 -9 -11 -20 -14c-20 -4 -48 -14 -48 -48v-212c0 -132 -66 -180 -170 -180c-152 0 -200 54 -200 146zM292 676l122 -167h-33l-117 105l-117 -105h-33l122 167h56z" />
    <glyph glyph-name="udieresis" unicode="&#xfc;" horiz-adv-x="556" 
d="M94 130v264c0 23 -15 28 -30 30c-16 2 -32 1 -32 12c0 6 5 10 16 10c30 0 61 -4 91 -4s61 4 84 4c11 0 17 -4 17 -10c0 -7 -13 -12 -29 -15s-43 -9 -43 -27v-238c0 -102 36 -142 130 -142c92 0 136 44 136 176v186c0 33 -30 43 -46 47c-14 3 -22 5 -22 12s5 11 17 11
c14 0 42 -4 66 -4c41 0 47 4 71 4c8 0 12 -3 12 -8c0 -8 -9 -11 -20 -14c-20 -4 -48 -14 -48 -48v-212c0 -132 -66 -180 -170 -180c-152 0 -200 54 -200 146zM166 621c25 0 47 -22 47 -47s-22 -47 -47 -47s-47 22 -47 47s22 47 47 47zM362 621c25 0 47 -22 47 -47
s-22 -47 -47 -47s-47 22 -47 47s22 47 47 47z" />
    <glyph glyph-name="ugrave" unicode="&#xf9;" horiz-adv-x="556" 
d="M94 130v264c0 23 -15 28 -30 30c-16 2 -32 1 -32 12c0 6 5 10 16 10c30 0 61 -4 91 -4s61 4 84 4c11 0 17 -4 17 -10c0 -7 -13 -12 -29 -15s-43 -9 -43 -27v-238c0 -102 36 -142 130 -142c92 0 136 44 136 176v186c0 33 -30 43 -46 47c-14 3 -22 5 -22 12s5 11 17 11
c14 0 42 -4 66 -4c41 0 47 4 71 4c8 0 12 -3 12 -8c0 -8 -9 -11 -20 -14c-20 -4 -48 -14 -48 -48v-212c0 -132 -66 -180 -170 -180c-152 0 -200 54 -200 146zM187 658l150 -149h-35l-166 104c-10 6 -19 17 -19 32c0 17 17 33 34 33c18 0 28 -13 36 -20z" />
    <glyph glyph-name="yacute" unicode="&#xfd;" 
d="M276 180v-118c0 -36 23 -38 43 -40c21 -2 41 -3 41 -15c0 -9 -9 -11 -24 -11c-22 0 -66 4 -96 4c-31 0 -64 -4 -88 -4c-19 0 -26 1 -26 10c0 12 19 12 38 16s38 4 38 40v122c0 20 -14 40 -34 67l-103 138c-34 43 -61 29 -61 46c0 6 5 11 16 11c28 0 56 -4 84 -4
c27 0 55 4 83 4c10 0 15 -6 15 -12c0 -18 -52 -4 -52 -24c0 -32 106 -156 124 -168c7 5 108 133 108 159c0 25 -50 17 -50 34c0 6 4 11 14 11c14 0 27 -4 62 -4c40 0 52 4 66 4c10 0 14 -2 14 -9c0 -12 -35 -14 -79 -67l-85 -103c-35 -43 -48 -59 -48 -87zM177 509l150 149
c8 7 18 20 36 20c17 0 34 -16 34 -33c0 -15 -9 -26 -19 -32l-166 -104h-35z" />
    <glyph glyph-name="ydieresis" unicode="&#xff;" 
d="M276 180v-118c0 -36 23 -38 43 -40c21 -2 41 -3 41 -15c0 -9 -9 -11 -24 -11c-22 0 -66 4 -96 4c-31 0 -64 -4 -88 -4c-19 0 -26 1 -26 10c0 12 19 12 38 16s38 4 38 40v122c0 20 -14 40 -34 67l-103 138c-34 43 -61 29 -61 46c0 6 5 11 16 11c28 0 56 -4 84 -4
c27 0 55 4 83 4c10 0 15 -6 15 -12c0 -18 -52 -4 -52 -24c0 -32 106 -156 124 -168c7 5 108 133 108 159c0 25 -50 17 -50 34c0 6 4 11 14 11c14 0 27 -4 62 -4c40 0 52 4 66 4c10 0 14 -2 14 -9c0 -12 -35 -14 -79 -67l-85 -103c-35 -43 -48 -59 -48 -87zM152 621
c25 0 47 -22 47 -47s-22 -47 -47 -47s-47 22 -47 47s22 47 47 47zM348 621c25 0 47 -22 47 -47s-22 -47 -47 -47s-47 22 -47 47s22 47 47 47z" />
    <glyph glyph-name="zcaron" unicode="&#x17e;" horiz-adv-x="444" 
d="M22 371l29 90c3 8 6 11 11 11c14 0 9 -30 29 -30c27 0 77 -3 149 -2c87 2 136 6 171 6c9 0 13 -4 13 -13c0 -5 -19 -27 -37 -49l-226 -286c-23 -29 -33 -44 -33 -57c0 -9 8 -15 22 -15c16 0 56 -4 108 -4c56 0 99 3 117 21c34 33 27 82 43 82c12 0 13 -11 13 -21
c0 -14 -5 -36 -8 -80c-2 -25 -5 -28 -17 -28c-62 0 -125 4 -187 4s-125 -4 -173 -4c-24 0 -34 4 -34 13c0 13 11 30 31 55l227 292c25 33 38 47 38 55s-6 9 -21 9c-34 0 -161 -2 -192 -15c-40 -17 -53 -65 -69 -65c-7 0 -10 4 -10 10c0 5 3 11 6 21zM194 509l-122 167h33
l117 -105l117 105h33l-122 -167h-56z" />
    <glyph glyph-name="Euro" unicode="&#x20ac;" 
d="M462 338h-16c-9 41 -62 60 -136 60c-127 0 -172 -59 -185 -158h286l-11 -17h-277c-1 -5 -1 -13 -1 -19v-21h252l-11 -17h-239c11 -106 73 -164 186 -164c64 0 125 16 136 62h16l-5 -40c-23 -22 -67 -39 -151 -39c-137 0 -209 60 -221 181h-64l10 17h52c-1 4 -1 16 -1 21
s0 14 1 19h-62l10 17h54c15 114 70 176 221 176c91 0 133 -20 151 -37z" />
    </font>
</defs>
</svg>
